<svg xmlns="http://www.w3.org/2000/svg" width="81" height="80" fill="none" viewBox="0 0 81 80">
  <path fill="#3692FE" fill-rule="evenodd" d="m20.03 60 11.869-32.917c1.506-3.843 4.314-6.019 8.047-6.082h.083l.084-.001c3.733.063 6.54 2.24 8.047 6.083L60.03 60l-7.35-2.587-10.14-28.12c-.617-1.555-1.33-2.115-2.51-2.14-1.182.025-1.894.585-2.511 2.14l-10.14 28.12L20.03 60Zm25.164-12.534c0 2.875-2.281 5.206-5.095 5.206-2.814 0-5.095-2.331-5.095-5.206 0-2.876 2.281-5.206 5.095-5.206 2.814 0 5.095 2.33 5.095 5.206Z" clip-rule="evenodd"/>
  <g filter="url(#a)" opacity=".44">
    <path fill="#3692FE" fill-rule="evenodd" d="m23.03 57 11.869-32.917c1.506-3.843 4.314-6.019 8.047-6.082h.083l.084-.001c3.733.063 6.54 2.24 8.047 6.083L63.03 57l-7.35-2.587-10.14-28.12c-.617-1.555-1.33-2.115-2.51-2.14-1.182.025-1.894.585-2.511 2.14l-10.14 28.12L23.03 57Zm25.164-12.534c0 2.875-2.281 5.206-5.095 5.206-2.814 0-5.095-2.331-5.095-5.206 0-2.876 2.281-5.206 5.095-5.206 2.814 0 5.095 2.33 5.095 5.206Z" clip-rule="evenodd"/>
  </g>
  <defs>
    <filter id="a" width="56" height="55" x="15.029" y="10" color-interpolation-filters="sRGB" filterUnits="userSpaceOnUse">
      <feFlood flood-opacity="0" result="BackgroundImageFix"/>
      <feBlend in="SourceGraphic" in2="BackgroundImageFix" result="shape"/>
      <feGaussianBlur result="effect1_foregroundBlur_52_17184" stdDeviation="4"/>
    </filter>
  </defs>
</svg>
