<svg width="200" height="84" viewBox="0 0 200 84" fill="none" xmlns="http://www.w3.org/2000/svg">
<path d="M64.7036 32.1162C62.1427 32.1162 59.7311 33.1758 57.9121 35.1013C56.1029 37.0148 55.1072 39.549 55.1072 42.2348V51.9282H57.792V42.2348C57.792 40.2733 58.5184 38.4256 59.8357 37.0308C61.1451 35.646 62.873 34.8838 64.7036 34.8838C66.5341 34.8838 68.262 35.646 69.5715 37.0308C70.8906 38.4256 71.6151 40.2733 71.6151 42.2348V51.9282H74.2999V42.2348C74.2999 39.549 73.3042 37.0148 71.495 35.1013C69.6761 33.1758 67.2644 32.1162 64.7036 32.1162Z" fill="black"/>
<path d="M64.7035 41.832C63.9636 41.832 63.3611 42.4526 63.3611 43.2149V51.9266H66.0459V43.2149C66.0459 42.4526 65.4435 41.832 64.7035 41.832Z" fill="black"/>
<path d="M36.298 35.0475C34.4287 36.9211 33.4001 39.4054 33.4001 42.0433C33.4001 44.6812 34.4287 47.1654 36.298 49.0391C38.1557 50.9027 40.6158 51.9283 43.2231 51.9283H52.5715V49.1628H43.2231C41.319 49.1628 39.5252 48.4145 38.1712 47.0577C36.8269 45.7088 36.0869 43.9289 36.0869 42.0433C36.0869 40.1576 36.8269 38.3778 38.1712 37.0289C39.5252 35.6701 41.3209 34.9238 43.2231 34.9238H52.5695V32.1582H43.2231C40.6158 32.1582 38.1557 33.1838 36.298 35.0475Z" fill="black"/>
<path d="M163.796 35.0983C161.977 33.1748 159.565 32.1133 157.004 32.1133C154.443 32.1133 152.032 33.1728 150.213 35.0983C148.403 37.0119 147.408 39.546 147.408 42.2318V51.9253H150.093V42.2318C150.093 40.2703 150.819 38.4226 152.136 37.0279C153.446 35.6431 155.174 34.8809 157.004 34.8809C158.835 34.8809 160.563 35.6431 161.872 37.0279C163.191 38.4226 163.916 40.2703 163.916 42.2318V51.9253H166.6V42.2318C166.6 39.546 165.605 37.0119 163.796 35.0983Z" fill="black"/>
<path d="M157.004 41.832C156.264 41.832 155.662 42.4526 155.662 43.2149V51.9286H158.347V43.2149C158.347 42.4526 157.744 41.832 157.004 41.832Z" fill="black"/>
<path d="M98.6072 34.8818H106.933V51.9282H109.618V34.8818H117.883V32.1162H98.6072V34.8818Z" fill="black"/>
<path d="M93.3844 47.1812L78.7187 32.0723H76.8591V51.9282H79.542V36.8212L94.2077 51.9282H96.0518V32.0723H93.3844V47.1812Z" fill="black"/>
<path d="M142.193 47.1812L127.527 32.0723H125.668V51.9282H128.353V36.8212L143.016 51.9282H144.862V32.0723H142.193V47.1812Z" fill="black"/>
<path d="M123.116 32.0723H120.427V51.9282H123.116V32.0723Z" fill="black"/>
</svg>
