<svg xmlns="http://www.w3.org/2000/svg" width="200" height="84" fill="none" viewBox="0 0 200 84">
  <path fill="#000" d="M113.22 38.654c-3.889 0-7.032 3.068-7.032 6.862 0 3.795 3.143 6.863 7.032 6.863h.019a7.137 7.137 0 0 0 4.961-2.004 6.803 6.803 0 0 0 2.053-4.859c0-3.794-3.144-6.862-7.033-6.862Zm28.005 19.328c-5.18 0-9.941-3.067-11.885-7.908l4.87-4.753v.195c0 3.263 2.362 6.083 5.652 6.721.454.089.926.124 1.381.124 2.798 0 5.379-1.631 6.469-4.22 1.291-3.015.2-6.508-2.58-8.317a7.052 7.052 0 0 0-3.889-1.152c-1.818 0-3.617.674-4.961 2.003L122.325 54.26a12.927 12.927 0 0 1-9.105 3.723 12.9 12.9 0 0 1-4.852-.94c-4.797-1.915-7.923-6.49-7.923-11.543V27.997c-.073-1.046.454-2.04 1.381-2.59a2.986 2.986 0 0 1 1.49-.407c.509 0 1.036.142 1.49.408.927.55 1.454 1.543 1.382 2.589v7.11a12.978 12.978 0 0 1 7.032-2.056c1.654 0 3.308.319 4.889.957 3.907 1.578 6.778 4.947 7.632 9.008l6.452-6.295c2.453-2.394 5.706-3.653 9.032-3.653 1.635 0 3.307.32 4.888.94C150.892 35.941 154 40.48 154 45.516c0 5.994-4.361 11.136-10.395 12.254-.799.141-1.599.212-2.38.212ZM85.743 58c-5.179 0-9.958-3.085-11.885-7.926l4.87-4.753v.195c0 3.263 2.363 6.083 5.652 6.721a7.28 7.28 0 0 0 1.381.124c2.799 0 5.38-1.631 6.488-4.22 1.29-3.015.2-6.508-2.58-8.317a7.05 7.05 0 0 0-3.89-1.152c-1.817 0-3.616.674-4.96 2.003L66.824 54.33c-2.453 2.394-5.724 3.653-9.05 3.653-1.653 0-3.307-.319-4.888-.957C48.107 55.092 45 50.552 45 45.499c0-5.054 3.108-9.594 7.887-11.526a13.034 13.034 0 0 1 4.888-.958c3.326 0 6.597 1.277 9.05 3.653.727.71 1 1.755.727 2.713a2.854 2.854 0 0 1-2.035 1.968c-.236.071-.49.089-.727.089-.763 0-1.49-.302-2.035-.834a7.094 7.094 0 0 0-4.961-2.003c-1.8 0-3.599.674-4.98 2.004a6.743 6.743 0 0 0 0 9.7c1.363 1.347 3.18 2.003 4.98 2.003a7.09 7.09 0 0 0 4.96-2.004l13.957-13.547c2.436-2.394 5.707-3.653 9.032-3.653 1.636 0 3.308.301 4.87.94 4.78 1.932 7.888 6.472 7.888 11.526-.019 5.975-4.362 11.1-10.395 12.217-.764.142-1.563.213-2.363.213Z"/>
</svg>
