<svg width="200" height="84" viewBox="0 0 200 84" fill="none" xmlns="http://www.w3.org/2000/svg">
<path opacity="0.978" d="M83.4736 29.5454C86.2583 29.8091 88.7416 30.8258 90.9229 32.5962C90.0459 33.9244 89.1204 35.2132 88.1465 36.4614C86.3412 35.1731 84.332 34.4044 82.1191 34.1558C80.8781 34.1097 79.9527 34.6075 79.3428 35.6479C79.0919 36.7503 79.4758 37.5412 80.4941 38.021C82.6469 38.7407 84.8139 39.4189 86.9951 40.0552C91.2292 41.8693 92.5606 44.9657 90.9902 49.3442C90.0468 51.2752 88.5344 52.5185 86.4531 53.0737C82.423 54.0115 78.6307 53.4239 75.0762 51.311C74.3816 50.8639 73.7494 50.3441 73.1797 49.7515C74.1321 48.4765 75.1484 47.2563 76.2275 46.0903C78.214 47.7846 80.5164 48.7339 83.1348 48.938C83.9664 48.8861 84.7566 48.6825 85.5049 48.3276C86.5615 47.3896 86.6522 46.395 85.7764 45.3442C85.2724 45.0015 84.7299 44.7305 84.1504 44.5308C82.7177 44.0818 81.2732 43.6747 79.8164 43.3101C74.6736 41.8494 72.9805 38.5719 74.7373 33.478C75.5505 31.986 76.7469 30.9239 78.3262 30.2915C79.2661 29.9461 80.2147 29.6972 81.1709 29.5454H83.4736ZM58.1455 29.6812C59.8041 29.6375 61.452 29.6829 63.0889 29.8169C66.3621 37.5467 69.636 45.2766 72.9092 53.0063C71.105 53.1645 69.2988 53.1867 67.4912 53.0737C66.7472 51.4032 66.0702 49.7081 65.46 47.9888C62.2083 47.9436 58.9573 47.9879 55.708 48.1235C55.0308 49.7509 54.353 51.379 53.6758 53.0063C51.8718 53.1644 50.0662 53.1867 48.2588 53.0737C51.6119 45.2974 54.9072 37.4998 58.1455 29.6812ZM31.7344 39.0386H40.9443V29.9526H46.2266V53.1421H40.9443V43.9204H31.7344V53.1421H26.4521V29.9526H31.7344V39.0386ZM99.5908 39.0386H108.801V29.9526H114.083V53.1421H108.801V43.9204H99.5908V53.1421H94.4434V29.9526H99.5908V39.0386ZM118.823 42.4282C122.491 45.8973 126.104 49.4459 129.659 53.0737C127.221 53.1642 124.783 53.1642 122.345 53.0737C119.997 50.7233 117.649 48.3725 115.302 46.022C116.503 44.8419 117.677 43.644 118.823 42.4282ZM149.162 34.563H136.702V39.1733H147.673V43.7847H136.702V48.5308H149.298V53.1421H131.555V29.9526H149.162V34.563ZM173 29.9526V30.0874C170.012 34.6664 167.056 39.2778 164.129 43.9204C164.061 46.9938 164.038 50.068 164.061 53.1421H158.914C158.937 50.1132 158.914 47.0844 158.847 44.0562C155.89 39.3776 152.932 34.6986 149.975 30.02C152.006 29.9296 154.038 29.9296 156.069 30.02C157.915 33.0148 159.743 36.0212 161.555 39.0386C163.366 36.0213 165.194 33.0147 167.04 30.02C169.026 29.9522 171.013 29.93 173 29.9526ZM60.4482 36.3257C59.5194 38.6605 58.5708 40.9889 57.6035 43.3101C59.5442 43.3779 61.486 43.4001 63.4277 43.3774C62.6337 41.2417 61.7982 39.1167 60.9219 37.0034C60.8475 36.6972 60.6897 36.4712 60.4482 36.3257ZM122.345 29.9526C124.828 29.93 127.311 29.9522 129.794 30.02C126.203 33.6381 122.591 37.2321 118.959 40.8013C117.695 39.626 116.476 38.4049 115.302 37.1392C117.652 34.7407 120 32.3455 122.345 29.9526Z" fill="black"/>
</svg>
