<svg xmlns="http://www.w3.org/2000/svg" width="200" height="84" fill="none" viewBox="0 0 200 84">
  <g clip-path="url(#a)">
    <path fill="#000" d="M45.4 31h-.098a.665.665 0 0 0-.175.023l-15.643 4.288a.661.661 0 0 0-.484.634.657.657 0 0 0 .484.634l9.645 2.647 5.996 1.642a.666.666 0 0 0 .175.024h.098a.646.646 0 0 0 .174-.024l5.997-1.642 9.646-2.647a.66.66 0 0 0 .483-.634.658.658 0 0 0-.483-.634l-15.642-4.288A.646.646 0 0 0 45.4 31Z"/>
    <path fill="#000" d="M45.567 42.137h-.434a.654.654 0 0 1-.173-.023l-8.002-2.194a.667.667 0 0 0-.35 0l-7.124 1.953a.66.66 0 0 0-.484.633.654.654 0 0 0 .484.632l9.651 2.647 5.992 1.643a.665.665 0 0 0 .175.023h.098a.646.646 0 0 0 .173-.023l5.993-1.643 9.652-2.647a.657.657 0 0 0 0-1.265l-7.126-1.953a.659.659 0 0 0-.348 0l-8.002 2.194a.654.654 0 0 1-.175.023Z"/>
    <path fill="#000" d="M45.567 48.686h-.434a.654.654 0 0 1-.173-.023l-8-2.193a.665.665 0 0 0-.35 0l-7.127 1.954a.657.657 0 0 0-.484.633.657.657 0 0 0 .484.633l15.643 4.288a.665.665 0 0 0 .175.024h.098a.646.646 0 0 0 .173-.024l15.645-4.288a.66.66 0 0 0 .349-1.031.657.657 0 0 0-.35-.235L54.09 46.47a.665.665 0 0 0-.35 0l-7.998 2.193a.658.658 0 0 1-.175.023Zm24.611 2.602.001-16.984h4.108v6.714h7.43v-6.712h4.109l-.002 16.983h-4.108l.002-6.955-7.433-.001v6.955h-4.107Zm29.104-4.229c-.624 2.722-2.758 4.556-5.892 4.556-3.81 0-6.511-2.32-6.511-6.12 0-3.775 2.756-6.498 6.432-6.497 3.972 0 6.052 2.724 6.052 5.985v1.185h-8.648c.108 1.59 1.297 2.507 2.81 2.507 1.35 0 2.184-.512 2.62-1.616h3.137Zm-3.676-2.966c-.08-1.187-.836-2.264-2.323-2.264-1.561 0-2.296.996-2.513 2.264h4.836Zm23.182 7.199V37.68h-5.918v-3.37h15.997v3.369h-5.997v13.614h-4.082Z"/>
    <path fill="#000" d="M135.438 43.127c-.624-.351-1.216-.485-2.054-.485-1.622 0-2.703.915-2.703 2.99v5.662h-3.891V39.325h3.894v2.18c.459-1.347 1.703-2.507 3.323-2.507.73 0 1.351.217 1.676.486l-.245 3.643Zm9.403-3.793h3.919v11.97h-3.917v-1.868c-.65 1.347-2.001 2.18-3.812 2.18-3.241 0-4.268-2.21-4.268-4.772v-7.519h3.891v6.577c0 1.699.568 2.647 1.999 2.647 1.459 0 2.185-1.213 2.185-3.127l.003-6.087Zm8.431 7.973c.156 1.16 1.082 1.806 2.541 1.806 1.054 0 1.756-.377 1.756-1.023 0-.594-.378-.917-1.352-1.08l-1.837-.297c-2.756-.43-4.242-1.374-4.242-3.747 0-2.319 2.029-3.963 5.243-3.961 3.405 0 5.431 1.51 5.675 4.07l-3.216.107c-.19-1.05-1.026-1.644-2.514-1.644-.972 0-1.561.405-1.561 1.05 0 .487.38.78.973.863l2.322.399c2.622.405 4.134 1.557 4.134 3.855 0 2.507-2.135 3.91-5.404 3.91-3.243 0-5.702-1.322-5.917-4.234l3.399-.074Zm-45.604-2.798 3.992-5.187h-4.053l-1.901 2.586 1.962 2.6Zm1.793 3.364v.002l-2.181-2.865-1.971-2.561-2.243-3.127-4.35-.001 4.377 5.85-4.757 6.12h4.053l2.677-3.558 2.647 3.558h4.351l-2.603-3.418Zm59.593.622c-.919 0-1.405-.432-1.405-1.456V36.018h-2.405l-.406 1.592c-.296 1.105-.647 1.725-1.837 1.94l-.864.135v2.371h1.674v6.04c0 2.695 1.756 3.531 3.702 3.531 1.561 0 2.594-.377 3.485-1.05v-2.568c-.728.324-1.35.486-1.944.486Z"/>
    <path fill="#000" d="M170.837 39.328h-2.511v2.724h2.511v-2.724Z"/>
  </g>
  <defs>
    <clipPath id="a">
      <path fill="#fff" d="M29 31h142v23H29z"/>
    </clipPath>
  </defs>
</svg>
