<svg width="200" height="84" viewBox="0 0 200 84" fill="black" xmlns="http://www.w3.org/2000/svg">
<g clip-path="url(#clip0_2102_73152)">
<path d="M147.798 50.372L143.289 34.782H146.087L149.507 47.8775L153.082 34.782H155.881L159.456 47.8775L162.876 34.782H165.674L161.167 50.372H157.901L154.482 37.9936L151.062 50.372H147.798Z" fill="black"/>
<path d="M135.373 50.8394C130.243 50.8394 127.755 47.0978 127.755 42.5767C127.755 38.0556 130.243 34.3141 135.373 34.3141C140.503 34.3141 142.99 38.0556 142.99 42.5767C142.99 47.0978 140.503 50.8394 135.373 50.8394ZM130.553 42.5767C130.553 47.0978 132.73 48.9686 135.373 48.9686C138.015 48.9686 140.192 47.0978 140.192 42.5767C140.192 38.0556 138.015 36.1849 135.373 36.1849C132.73 36.1849 130.553 38.0556 130.553 42.5767Z" fill="black"/>
<path d="M125.881 50.3715H123.239V30.1046H125.881V50.3715Z" fill="black"/>
<path d="M121.054 50.3715H118.412V30.1046H121.054V50.3715Z" fill="black"/>
<path d="M109.565 50.8394C104.435 50.8394 101.948 47.0978 101.948 42.5767C101.948 38.0556 104.435 34.3141 109.41 34.3141C114.54 34.3141 116.56 38.2116 116.56 41.9531V43.2003H104.746C104.932 47.2849 107.047 48.9686 109.565 48.9686C111.586 48.9686 113.296 47.8773 113.762 45.6947H116.405C115.783 48.6568 113.451 50.8394 109.565 50.8394ZM109.41 36.1849C107.016 36.1849 105.15 37.7127 104.808 41.3296H113.762C113.762 37.7439 111.772 36.1849 109.41 36.1849Z" fill="black"/>
<path d="M78.9399 50.3715V30.1046H82.9817L89.5108 47.2535L96.0399 30.1046H100.082V50.3715H97.4389V32.9108L90.7544 50.3715H88.2672L81.5827 32.9108V50.3715H78.9399Z" fill="black"/>
<path fill-rule="evenodd" clip-rule="evenodd" d="M52.7724 58.271C61.8157 58.271 69.1468 50.9189 69.1468 41.8496C69.1468 32.7804 61.8157 25.4283 52.7724 25.4283C43.729 25.4283 36.3979 32.7804 36.3979 41.8496C36.3979 50.9189 43.729 58.271 52.7724 58.271ZM52.7724 60.3496C62.9605 60.3496 71.2196 52.0669 71.2196 41.8496C71.2196 31.6323 62.9605 23.3496 52.7724 23.3496C42.5843 23.3496 34.3252 31.6323 34.3252 41.8496C34.3252 52.0669 42.5843 60.3496 52.7724 60.3496Z" fill="black"/>
<path fill-rule="evenodd" clip-rule="evenodd" d="M55.053 52.6577C61.0056 52.6577 65.8312 47.8183 65.8312 41.8487C65.8312 35.8791 61.0056 31.0397 55.053 31.0397C49.1004 31.0397 44.2749 35.8791 44.2749 41.8487C44.2749 47.8183 49.1004 52.6577 55.053 52.6577ZM55.053 54.7364C62.1503 54.7364 67.9038 48.9663 67.9038 41.8487C67.9038 34.731 62.1503 28.9611 55.053 28.9611C47.9556 28.9611 42.2021 34.731 42.2021 41.8487C42.2021 48.9663 47.9556 54.7364 55.053 54.7364Z" fill="black"/>
<path fill-rule="evenodd" clip-rule="evenodd" d="M52.1498 46.4223C54.6682 46.4223 56.7098 44.3749 56.7098 41.8492C56.7098 39.3236 54.6682 37.2762 52.1498 37.2762C49.6314 37.2762 47.5898 39.3236 47.5898 41.8492C47.5898 44.3749 49.6314 46.4223 52.1498 46.4223ZM52.1498 48.5009C55.8129 48.5009 58.7825 45.5229 58.7825 41.8492C58.7825 38.1756 55.8129 35.1976 52.1498 35.1976C48.4866 35.1976 45.5171 38.1756 45.5171 41.8492C45.5171 45.5229 48.4866 48.5009 52.1498 48.5009Z" fill="black"/>
</g>
<defs>
<clipPath id="clip0_2102_73152">
<rect width="131.35" height="37" fill="black" transform="translate(34.3252 23.3496)"/>
</clipPath>
</defs>
</svg>
