<svg xmlns="http://www.w3.org/2000/svg" width="200" height="84" fill="none" viewBox="0 0 200 84">
  <path fill="#000" d="M162.748 42.493c-.857-.566-1.802-.968-2.697-1.47-.579-.327-1.197-.617-1.701-1.031-.857-.704-.68-2.086.215-2.69 1.285-.855 3.413-.377 3.641 1.37 0 .038.038.064.075.064h1.941c.051 0 .089-.039.076-.089-.101-1.207-.567-2.212-1.424-2.853-.82-.615-1.752-.942-2.748-.942-5.128 0-5.595 5.417-2.835 7.126.315.201 3.024 1.559 3.983 2.15.957.59 1.26 1.67.844 2.526-.379.779-1.361 1.32-2.344 1.257-1.071-.064-1.903-.641-2.193-1.547a2.755 2.755 0 0 1-.075-.615.082.082 0 0 0-.076-.076h-2.104c-.038 0-.076.038-.076.075 0 1.522.378 2.363 1.411 3.13.971.73 2.028 1.03 3.126 1.03 2.873 0 4.359-1.62 4.661-3.305.265-1.646-.226-3.129-1.7-4.11Zm-91.373-7.366h-1.953a.086.086 0 0 0-.076.051l-1.726 5.681a.08.08 0 0 1-.151 0l-1.727-5.681c-.012-.038-.038-.05-.075-.05h-3.213c-.038 0-.076.038-.076.075v14.505c0 .037.038.074.076.074h2.104c.037 0 .076-.037.076-.074V38.685c0-.089.126-.101.15-.026l1.74 5.72.126.401c.012.038.037.051.075.051h1.614c.037 0 .062-.025.075-.05l.126-.403 1.739-5.719c.025-.088.151-.063.151.026v11.023c0 .037.038.074.075.074h2.105c.037 0 .075-.037.075-.074V35.203c0-.038-.038-.076-.075-.076h-1.235Zm59.151 0a.084.084 0 0 0-.076.051l-1.726 5.681a.079.079 0 0 1-.151 0l-1.727-5.681c-.012-.038-.037-.05-.075-.05h-3.201c-.038 0-.076.038-.076.075v14.505c0 .037.038.074.076.074h2.105c.037 0 .076-.037.076-.074V38.685c0-.089.126-.101.151-.026l1.737 5.72.127.401c.013.038.038.051.076.051h1.613a.084.084 0 0 0 .075-.05l.126-.403 1.74-5.719c.025-.088.151-.063.151.026v11.023a.08.08 0 0 0 .075.074h2.104c.038 0 .076-.037.076-.074V35.203a.082.082 0 0 0-.076-.076h-3.2Zm-27.144 0h-9.943c-.037 0-.075.038-.075.076v1.81c0 .037.038.076.075.076h3.844v12.619c0 .037.038.074.075.074h2.105c.038 0 .075-.037.075-.074v-12.62h3.844c.037 0 .075-.038.075-.075v-1.81c0-.038-.025-.076-.075-.076Zm12.413 14.655h1.915a.08.08 0 0 0 .075-.1l-3.956-14.555c-.012-.037-.038-.05-.076-.05h-2.746a.085.085 0 0 0-.076.05l-3.957 14.555c-.012.05.026.1.076.1h1.915c.038 0 .063-.025.076-.05l1.147-4.235c.012-.038.037-.05.075-.05h4.234c.038 0 .064.025.076.05l1.147 4.235c.012.025.05.05.075.05Zm-5.028-6.41 1.538-5.669a.079.079 0 0 1 .151 0l1.537 5.67c.012.05-.025.1-.075.1h-3.075c-.051 0-.088-.05-.076-.1Zm37.691 6.41h1.914a.08.08 0 0 0 .076-.1l-3.956-14.555c-.013-.037-.038-.05-.076-.05h-2.747a.083.083 0 0 0-.075.05l-3.957 14.555c-.012.05.025.1.075.1h1.916a.084.084 0 0 0 .076-.05l1.147-4.235c.012-.038.038-.05.075-.05h4.234c.037 0 .063.025.076.05l1.146 4.235c.013.025.038.05.076.05Zm-5.028-6.41 1.537-5.669a.079.079 0 0 1 .151 0l1.537 5.67a.08.08 0 0 1-.075.1h-3.075a.08.08 0 0 1-.075-.1Zm-62.201 4.261v-4.499c0-.038.038-.076.076-.076h5.608c.037 0 .075-.037.075-.075v-1.81c0-.037-.038-.075-.075-.075h-5.608c-.038 0-.076-.038-.076-.075v-3.846c0-.038.038-.075.076-.075h6.376c.038 0 .076-.039.076-.076v-1.81c0-.037-.038-.076-.076-.076H79.05c-.038 0-.075.039-.075.076v14.492a.08.08 0 0 0 .075.075h8.896a.08.08 0 0 0 .076-.075v-1.91a.08.08 0 0 0-.076-.076h-6.653c-.038-.012-.063-.038-.063-.088Zm100.747 2.025-7.284-7.505a.076.076 0 0 1 0-.1l6.553-6.788a.073.073 0 0 0-.05-.126h-2.684c-.025 0-.038.013-.05.026l-5.558 5.757a.073.073 0 0 1-.126-.05v-5.657a.081.081 0 0 0-.076-.076h-2.104a.082.082 0 0 0-.076.076V49.72c0 .038.038.076.076.076h2.104a.08.08 0 0 0 .076-.076v-6.385c0-.063.089-.1.126-.05l6.301 6.485a.097.097 0 0 0 .05.026h2.684c.051-.013.088-.101.038-.138Z"/>
  <path fill="#000" stroke="#000" stroke-linecap="round" stroke-linejoin="round" stroke-width=".78" d="m35.688 52.258-.605-.427h-3.554l-.605.427-.34 2.817.315-.278h4.814l.328.278-.353-2.817Z"/>
  <path stroke="#000" stroke-linecap="round" stroke-linejoin="round" stroke-width=".78" d="m48 27.322-12.74 9.427 2.37-5.556L48 27.322Zm-29.387 0 12.626 9.515-2.255-5.644-10.37-3.871Zm24.799 21.857-3.39 5.179 7.258 1.998 2.08-7.064-5.948-.113Zm-26.147.113 2.067 7.064 7.245-1.998-3.377-5.179-5.935.113Z"/>
  <path stroke="#000" stroke-linecap="round" stroke-linejoin="round" stroke-width=".78" d="m26.186 40.43-2.015 3.044 7.182.326-.24-7.73-4.927 4.36Zm14.24.001-5.003-4.448-.163 7.817 7.182-.326-2.016-3.043ZM26.577 54.358l4.348-2.1-3.743-2.916-.605 5.016Zm9.111-2.1 4.334 2.1-.592-5.015-3.742 2.915Z"/>
  <path stroke="#000" stroke-linecap="round" stroke-linejoin="round" stroke-width=".78" d="m40.022 54.358-4.334-2.1.353 2.816-.039 1.194 4.02-1.91Zm-13.445 0 4.032 1.91-.025-1.194.341-2.816-4.348 2.1Zm4.108-6.876-3.604-1.055 2.545-1.169 1.059 2.224Zm5.243 0 1.058-2.224 2.559 1.169-3.617 1.055Zm-9.351 6.876.63-5.179-4.007.113 3.377 5.066Zm12.827-5.179.618 5.179 3.39-5.066-4.008-.113Z"/>
  <path stroke="#000" stroke-linecap="round" stroke-linejoin="round" stroke-width=".78" d="m42.442 43.473-7.182.327.667 3.682 1.06-2.224 2.557 1.168 2.898-2.953Zm-15.36 2.953 2.544-1.168 1.059 2.224.668-3.682-7.182-.327 2.91 2.953Z"/>
  <path stroke="#000" stroke-linecap="round" stroke-linejoin="round" stroke-width=".78" d="m24.17 43.473 3.012 5.87-.1-2.917-2.911-2.953Zm15.374 2.953-.113 2.916 3.01-5.87-2.897 2.954Zm-8.19-2.626-.668 3.682.844 4.349.189-5.731-.365-2.3Zm3.906 0-.354 2.287.177 5.744.845-4.349-.669-3.682Z"/>
  <path stroke="#000" stroke-linecap="round" stroke-linejoin="round" stroke-width=".78" d="m35.927 47.482-.844 4.349.605.427 3.742-2.916.114-2.916-3.617 1.056Zm-8.846-1.056.1 2.916 3.743 2.916.605-.427-.845-4.349-3.603-1.056Zm8.922 9.842.038-1.194-.328-.277H30.9l-.315.277.026 1.194-4.033-1.91 1.412 1.156 2.86 1.973h4.902l2.873-1.973 1.399-1.156-4.02 1.91Z"/>
  <path fill="#000" stroke="#000" stroke-linecap="round" stroke-linejoin="round" stroke-width=".78" d="m35.688 52.259-.605-.428h-3.554l-.604.428-.341 2.815.315-.276h4.814l.328.276-.353-2.815Z"/>
  <path stroke="#000" stroke-linecap="round" stroke-linejoin="round" stroke-width=".78" d="m48.54 37.364 1.072-5.202-1.613-4.84-12.312 9.113 4.738 3.996 6.692 1.948 1.474-1.722-.642-.465 1.02-.93-.781-.603 1.02-.779-.668-.516ZM17 32.162l1.084 5.203-.693.515 1.033.78-.781.603 1.02.929-.642.465 1.474 1.722 6.692-1.948 4.738-3.996-12.312-9.113L17 32.162Z"/>
  <path stroke="#000" stroke-linecap="round" stroke-linejoin="round" stroke-width=".78" d="m47.118 42.38-6.692-1.95 2.016 3.044-3.011 5.869 3.981-.05h5.948l-2.242-6.914Zm-20.932-1.95-6.69 1.95-2.231 6.912H23.2l3.982.05-3.011-5.868 2.015-3.043Zm9.074 3.37.428-7.366 1.941-5.24h-8.645l1.94 5.24.43 7.366.163 2.312.012 5.719h3.555l.012-5.719.164-2.312Z"/>
</svg>
