<svg xmlns="http://www.w3.org/2000/svg" width="200" height="84" fill="none" viewBox="0 0 200 84">

  <g mask="url(#a)">
    <path fill="#000" d="M145.41 36.72c-4.22 0-7.69 3.09-7.69 7.86 0 4.77 3.41 7.95 7.69 7.95 2.8 0 5.44-1.35 6.76-3.86l-2.51-1.26c-.84 1.38-2.42 2.19-4.12 2.19-2.35 0-4.25-1.26-4.67-3.7h11.88c.03-.48.06-.93.06-1.35 0-4.73-3.19-7.82-7.4-7.82v-.01Zm-4.51 6.63c.45-2.51 2.28-3.7 4.54-3.7 2.26 0 3.93 1.35 4.25 3.7h-8.79Zm-39.79-3.99c-.97-1.71-3.03-2.64-5.22-2.64-4.25 0-7.44 3.41-7.44 7.89 0 4.48 3.38 7.92 7.31 7.92 2.32 0 4.38-1.19 5.34-2.93v2.54h3.16V37.1h-3.16v2.25l.01.01Zm-4.8 10.21c-2.64 0-4.67-2.25-4.67-4.96s2.03-4.93 4.6-4.93c2.41 0 4.83 2.03 4.83 4.93s-2.25 4.96-4.76 4.96Zm66.87-12.85c-1.61 0-4.02.84-4.89 2.7V37.1h-3.15v15.04h3.15v-8.08c0-3.12 2.38-4.25 4.35-4.25 1.97 0 3.41 1.48 3.41 3.93v8.4h3.15v-8.6c0-4.28-2.22-6.83-6.02-6.83v.01Zm-47.651 0c-1.61 0-4.02.84-4.89 2.7V37.1h-3.16v15.04h3.16v-8.08c0-3.12 2.38-4.25 4.35-4.25 1.97 0 3.41 1.48 3.41 3.93v8.4h3.16v-8.6c0-4.28-2.22-6.83-6.02-6.83l-.01.01ZM82.6 46.96l-9.21-15.33h-3.7v20.51h3.22V36.78l9.3 15.36h3.61V31.63H82.6v15.33Zm49.71-3.41-3.28-.61c-1.25-.23-1.84-.81-1.84-1.71 0-1.19 1.03-1.84 2.77-1.84 1.61 0 2.77.77 2.83 1.93h3.03c0-3.25-3.03-4.6-5.83-4.6-3.48 0-5.96 1.84-5.96 4.6 0 2.25 1.32 3.74 4.18 4.28l3.03.58c1.45.29 1.93.81 1.93 1.64 0 1.32-1.03 2.03-3.09 2.03-2.06 0-3.35-.93-3.48-2.32h-2.93c.13 3.22 2.74 4.99 6.37 4.99s6.28-1.96 6.28-4.96c0-2.19-1.26-3.51-4.02-4.03l.01.02Zm-71.6-.62c-1.5-.99-3.14-1.86-4.93-2.61-.73-.3-1.24-.71-1.53-1.24-.29-.53-.36-1.19-.21-1.98.47-2.32.62-4.54.45-6.67-.17-2.13-.97-3.45-2.38-3.96l-.52-.19c-1.5-.56-2.98-.3-4.44.77-1.46 1.07-2.76 2.51-3.91 4.31-.97 1.53-1.84 3.1-2.6 4.72-.61-.11-1.19-.2-1.73-.28-2.55-.32-4.57-.35-6.05-.08-1.48.27-2.33.81-2.54 1.63l-.26.93c-.21.75.17 1.58 1.16 2.5.99.91 2.03 1.69 3.12 2.33 1.09.66 1.86 1.46 2.29 2.37.43.91.59 2.09.48 3.53-.15 1.93-.01 3.73.42 5.39.43 1.66 1.33 2.72 2.7 3.17l.77.26c1.22.41 2.51.03 3.85-1.14 1.34-1.17 2.66-2.9 3.94-5.2.51-.89 1.02-1.9 1.53-3.03 1.14.17 2.24.3 3.31.37 2.48.16 4.49.06 6.02-.29 1.53-.35 2.41-.9 2.62-1.63l.29-1.06c.26-.97-.37-1.94-1.87-2.93l.02.01Zm-14.1-11.35c1.33-2.11 2.74-3.38 4.22-3.78 1.07.3 1.7 1.34 1.87 3.11.17 1.77.11 3.56-.19 5.36-.15.86-.5 1.44-1.05 1.75-.55.31-1.25.35-2.11.11-1.84-.53-3.67-.99-5.5-1.4.81-1.8 1.73-3.52 2.76-5.16v.01Zm-.29 12.87c-1.57-.41-2.63-1.15-3.2-2.24-.57-1.08-.55-2.38.05-3.88 0-.02.02-.04.03-.07.03 0 .06.01.08.02 1.92.42 3.85.92 5.78 1.5.82.24 1.37.64 1.67 1.21.3.57.31 1.25.03 2.05-.26.77-.54 1.52-.83 2.25-1.2-.25-2.41-.52-3.61-.83v-.01Zm-8.82-4.3c-1.16.5-2.39.28-3.7-.66-.66-.45-1.22-.95-1.67-1.51 1.33-.6 3.43-.77 6.31-.52.46.04.96.11 1.49.19-.63 1.23-1.44 2.07-2.43 2.5Zm9.94 10.22c-1.12 1.91-2.25 3.39-3.41 4.44-1.16 1.05-2.19 1.52-3.09 1.42-.62-.88-.98-1.93-1.08-3.16-.1-1.22-.04-2.51.18-3.86.15-.99.71-1.62 1.67-1.9.97-.28 2.26-.21 3.9.19 1.03.26 2.03.49 3.01.67-.39.79-.78 1.52-1.18 2.19v.01Zm6.91-4.33c-.94-.13-1.87-.28-2.81-.45.24-.64.48-1.29.7-1.95.3-.84.74-1.39 1.32-1.66.58-.27 1.25-.23 2.03.11 2.96 1.31 4.66 2.53 5.09 3.67-1.55.56-3.65.65-6.33.27v.01Z"/>
  </g>
</svg>
