<svg xmlns="http://www.w3.org/2000/svg" width="200" height="84" fill="none" viewBox="0 0 200 84">
  <path fill="#000" d="M63.881 29c.695 0 1.257.576 1.257 1.288v2.575c0 .711-.563 1.288-1.257 1.288H50.055l7.542 5.15H42.514c-1.389 0-2.514-1.152-2.514-2.575v-2.968c0-.623.103-1.227.31-1.813a4.386 4.386 0 0 1 .955-1.529 4.59 4.59 0 0 1 1.548-1.048c.62-.245 1.342-.368 2.168-.368h18.9ZM41.257 54.754c-.694 0-1.257-.576-1.257-1.287V50.89c0-.71.563-1.287 1.257-1.287h13.826l-7.541-5.151h15.082c1.389 0 2.514 1.153 2.514 2.575v2.968a5.41 5.41 0 0 1-.31 1.813 4.386 4.386 0 0 1-.954 1.53c-.413.434-.93.783-1.549 1.047-.62.246-1.342.368-2.168.368h-18.9ZM85.485 55c-5.71 0-9.347-2.782-9.495-7.35h4.789c.23 2.006 2.27 3.32 4.904 3.32 2.649 0 4.459-1.297 4.459-3.084 0-1.585-1.135-2.462-3.999-3.12l-3.093-.69c-4.377-.961-6.533-3.237-6.533-6.794 0-4.485 3.785-7.452 9.083-7.452 5.53 0 9.001 2.916 9.084 7.317h-4.657c-.165-2.057-1.926-3.305-4.41-3.305-2.452 0-4.098 1.197-4.098 3.001 0 1.5 1.152 2.343 3.884 2.984l2.88.624c4.755 1.045 6.828 3.136 6.828 6.844 0 4.721-3.735 7.705-9.626 7.705Z"/>
  <path fill="#000" fill-rule="evenodd" d="M101.645 54.864c2.205 0 4.394-1.13 5.381-3.051h.099v2.765h4.64V42.153c0-3.642-2.945-6.035-7.47-6.035-4.674 0-7.586 2.41-7.767 5.917h4.393c.231-1.332 1.366-2.242 3.16-2.242 1.81 0 2.961.977 2.961 2.663v1.197l-4.442.27c-4.394.27-6.862 2.175-6.862 5.462 0 3.254 2.55 5.48 5.907 5.48Zm1.58-3.557c-1.629 0-2.715-.843-2.715-2.191 0-1.282 1.02-2.108 2.814-2.243l3.718-.236v1.315c0 1.956-1.727 3.355-3.817 3.355Zm27.942-5.765c0 5.816-2.715 9.322-7.159 9.322-2.583 0-4.558-1.28-5.528-3.388h-.099v3.102h-4.739V30.251h4.804v9.39h.099c.971-2.14 2.929-3.422 5.447-3.422 4.443 0 7.175 3.49 7.175 9.323Zm-4.921 0c0-3.288-1.514-5.378-3.9-5.378-2.32 0-3.916 2.14-3.916 5.378 0 3.27 1.58 5.36 3.916 5.36 2.403 0 3.9-2.056 3.9-5.36Zm17.758 3.506c-.444 1.383-1.793 2.276-3.554 2.276-2.452 0-4.048-1.77-4.048-4.35v-.303h12.16v-1.5c0-5.496-3.241-9.053-8.375-9.053-5.217 0-8.508 3.742-8.508 9.508 0 5.782 3.258 9.34 8.689 9.34 4.36 0 7.52-2.378 8.046-5.918h-4.41Zm-3.768-9.29c2.139 0 3.603 1.586 3.703 3.895h-7.488c.165-2.259 1.679-3.894 3.785-3.894Z" clip-rule="evenodd"/>
  <path fill="#000" d="M154.504 54.577h-4.805V36.505h4.641v3.253h.099c.625-2.293 2.122-3.54 4.195-3.54.56 0 1.037.084 1.366.185v4.333c-.395-.168-1.053-.286-1.744-.286-2.369 0-3.752 1.483-3.752 4.029v10.098Z"/>
</svg>
