<svg xmlns="http://www.w3.org/2000/svg" width="200" height="84" fill="none" viewBox="0 0 200 84">
  <path fill="url(#a)" d="M29.694 38.426a5.383 5.383 0 1 1 0 10.767V38.426Z"/>
  <path fill="#000" d="M27.633 38.836a5.383 5.383 0 0 1 2.06-.41v10.767a5.385 5.385 0 0 1-3.806-9.19c.5-.5 1.093-.897 1.746-1.167Z"/>
  <path fill="#000" fill-rule="evenodd" d="M20.677 35.547a18.748 18.748 0 0 1 1.625-3.591c1.799-3.027 4.25-4.84 6.907-4.84 2.083 0 4.038 1.113 5.652 3.051 2.511-.228 4.68.367 6.152 1.84 1.4 1.4 2.008 3.431 1.866 5.788 2.218 1.68 3.507 3.773 3.507 6.014 0 2.657-1.813 5.108-4.84 6.907-1.156.687-2.482 1.274-3.938 1.738a18.465 18.465 0 0 1-1.491 3.207c-1.8 3.027-4.25 4.84-6.908 4.84-2.081 0-4.036-1.112-5.65-3.048-2.512.228-4.681-.367-6.154-1.84-1.547-1.547-2.126-3.865-1.797-6.54C13.944 47.536 13 45.726 13 43.808c0-2.658 1.813-5.108 4.84-6.908a18.17 18.17 0 0 1 2.837-1.354Zm2.588-3.019c1.693-2.848 3.838-4.292 5.944-4.292 1.479 0 2.977.712 4.325 2.122-.273.054-.55.116-.828.187-2.447.622-5.072 1.918-7.574 3.814a24.418 24.418 0 0 0-3.097.724c.36-.93.772-1.785 1.23-2.555Zm-7.422 15.2c-1.145-1.24-1.723-2.588-1.723-3.92 0-2.105 1.445-4.25 4.293-5.944.57-.339 1.189-.653 1.849-.94-.25.935-.451 1.916-.597 2.933-1.846 2.464-3.109 5.044-3.721 7.45-.036.14-.07.28-.1.42Zm.81 2.204c-.117 2.104.44 3.785 1.545 4.89 1.045 1.045 2.608 1.6 4.558 1.556-.156-.23-.307-.47-.454-.717a18.758 18.758 0 0 1-1.625-3.59 18.188 18.188 0 0 1-2.836-1.355 14.52 14.52 0 0 1-1.187-.784Zm3.61.761a16.366 16.366 0 0 1-1.85-.94 12.81 12.81 0 0 1-1.608-1.122c.059-.34.134-.69.225-1.048.44-1.73 1.248-3.58 2.404-5.416a28.55 28.55 0 0 0-.047 1.641c0 2.457.314 4.788.875 6.885Zm1.773 1.842a16.98 16.98 0 0 0 1.229 2.553c.252.425.514.818.785 1.18.446-.065.909-.157 1.386-.279 1.719-.437 3.554-1.237 5.378-2.38-.37.014-.744.022-1.12.022-2.764 0-5.367-.397-7.658-1.096Zm10.594-.183c-.949.104-1.93.158-2.937.158-2.992 0-5.765-.483-8.118-1.304-.676-2.19-1.068-4.706-1.068-7.398 0-1.21.08-2.383.228-3.508a26.845 26.845 0 0 1 2.321-2.643 26.913 26.913 0 0 1 2.534-2.237 26.65 26.65 0 0 1 4.103-.313c2.547 0 4.936.35 7.04.961.744 2.27 1.178 4.907 1.178 7.74 0 1.211-.08 2.387-.228 3.513-.69.9-1.465 1.786-2.32 2.642a26.896 26.896 0 0 1-2.733 2.389Zm.43 1.078c-2.433 1.804-4.975 3.041-7.347 3.645-.278.07-.554.133-.826.186 1.347 1.409 2.844 2.12 4.322 2.12 2.106 0 4.251-1.444 5.945-4.293.406-.684.778-1.438 1.108-2.25-1.019.258-2.09.457-3.202.592Zm3.673-1.88c-.618.179-1.261.336-1.926.468a28.51 28.51 0 0 0 2.475-2.458c-.156.69-.34 1.354-.549 1.99Zm1.303-.424a17.298 17.298 0 0 0 2.937-1.373c2.849-1.693 4.293-3.839 4.293-5.944 0-1.617-.852-3.258-2.537-4.7-.066.396-.151.797-.255 1.204-.612 2.407-1.875 4.986-3.721 7.45-.169 1.175-.41 2.3-.717 3.363Zm3.744-14.083c-.02-1.804-.57-3.256-1.56-4.245-1.044-1.045-2.606-1.6-4.556-1.557.155.23.306.469.453.715a18.45 18.45 0 0 1 1.49 3.207c1.457.464 2.783 1.052 3.938 1.738.08.047.157.094.235.142Zm-3.744-.551a17.29 17.29 0 0 1 2.937 1.372c.257.153.502.309.736.469a13.28 13.28 0 0 1-.32 1.704c-.44 1.73-1.25 3.58-2.405 5.417.031-.541.047-1.09.047-1.646 0-2.626-.358-5.108-.995-7.316Zm-1.773-1.712a16.715 16.715 0 0 0-1.11-2.252 13.416 13.416 0 0 0-.783-1.176c-.447.064-.91.157-1.388.279-1.748.444-3.617 1.265-5.472 2.44a28.388 28.388 0 0 1 2.183-.084c2.335 0 4.555.283 6.57.792Zm-12.981 1.115a28.711 28.711 0 0 0-2.147 2.166c.129-.567.276-1.118.44-1.65a21.59 21.59 0 0 1 1.707-.516Z" clip-rule="evenodd"/>
  <path fill="#000" d="M183.925 48.994a6.519 6.519 0 0 1-1.721-.215 4.898 4.898 0 0 1-1.42-.645 5.585 5.585 0 0 1-1.147-1.09l1.032-1.248c.526.66 1.047 1.129 1.563 1.406.517.267 1.114.401 1.793.401.411 0 .798-.057 1.161-.172.364-.115.655-.282.875-.502.22-.22.33-.483.33-.788a.916.916 0 0 0-.158-.531 1.159 1.159 0 0 0-.416-.387 2.841 2.841 0 0 0-.616-.301 5.453 5.453 0 0 0-.732-.215 6.998 6.998 0 0 0-.803-.158 8.388 8.388 0 0 1-1.505-.387 3.906 3.906 0 0 1-1.119-.617 2.522 2.522 0 0 1-.674-.86 2.73 2.73 0 0 1-.229-1.148c0-.42.095-.808.286-1.161a2.84 2.84 0 0 1 .818-.904 3.882 3.882 0 0 1 1.233-.588 5.172 5.172 0 0 1 1.52-.215c.583 0 1.114.067 1.592.201a4.03 4.03 0 0 1 1.276.602c.373.258.684.579.932.961l-1.061 1.104a3.461 3.461 0 0 0-.76-.817 2.972 2.972 0 0 0-.946-.488 3.297 3.297 0 0 0-1.076-.172c-.43 0-.812.058-1.147.172a1.854 1.854 0 0 0-.774.488c-.192.2-.287.444-.287.731 0 .22.052.416.158.588.105.172.258.325.458.46a3.3 3.3 0 0 0 .775.329c.315.086.674.162 1.075.23.545.095 1.047.22 1.506.372.469.144.87.325 1.205.545.344.21.607.469.788.774.192.306.287.665.287 1.076 0 .64-.167 1.2-.502 1.678-.334.478-.808.846-1.419 1.104-.603.258-1.32.387-2.151.387Zm-15.124-.144V38.813h4.703c.717 0 1.32.096 1.807.287.488.192.856.478 1.105.86.258.374.387.832.387 1.377 0 .536-.163 1-.488 1.391-.325.383-.784.646-1.377.79l.043-.273c.44.095.837.258 1.191.487a2.6 2.6 0 0 1 .846.89c.21.363.315.788.315 1.276 0 .516-.095.965-.286 1.348-.182.373-.44.678-.775.917-.325.23-.703.402-1.133.517-.43.114-.898.172-1.405.172h-4.933Zm1.549-1.49h3.355c.421 0 .779-.053 1.076-.158.306-.115.545-.282.717-.502a1.35 1.35 0 0 0 .258-.832c0-.335-.101-.607-.301-.817a1.646 1.646 0 0 0-.775-.46 3.29 3.29 0 0 0-1.047-.157h-3.283v2.925Zm0-4.417h3.212c.306 0 .583-.058.832-.173.258-.114.458-.272.602-.473.153-.2.229-.43.229-.688 0-.44-.167-.765-.502-.975-.334-.22-.779-.33-1.333-.33h-3.04v2.639Zm-14.418 5.907 4.287-10.038h1.678l4.259 10.039h-1.677l-2.725-6.396a25.105 25.105 0 0 1-.201-.502c-.076-.23-.162-.473-.258-.731s-.186-.502-.273-.732l-.2-.559.387-.014c-.067.19-.143.401-.23.63-.076.23-.162.464-.258.703a26.858 26.858 0 0 1-.487 1.262l-2.711 6.339h-1.591Zm1.878-2.437.603-1.491h5.105l.502 1.49h-6.21Zm-11.038 2.437V38.813h1.549v8.547h5.507v1.492h-7.056Zm-15.783 0V38.813h7.127v1.492h-5.578v7.055h5.578v1.492h-7.127Zm.76-4.402v-1.491h5.579v1.491h-5.579Zm-7.783 4.546c-.737 0-1.42-.124-2.051-.373a5.049 5.049 0 0 1-1.664-1.06 4.81 4.81 0 0 1-1.089-1.636c-.259-.63-.388-1.328-.388-2.093 0-.727.139-1.396.416-2.008a5.118 5.118 0 0 1 1.133-1.62 5.296 5.296 0 0 1 1.678-1.09 5.395 5.395 0 0 1 2.036-.387c.555 0 1.09.08 1.606.243a5.85 5.85 0 0 1 1.406.617c.42.258.76.54 1.018.846l-.99 1.176a5.334 5.334 0 0 0-.946-.717 4.152 4.152 0 0 0-1.032-.459 3.605 3.605 0 0 0-1.119-.172c-.478 0-.937.086-1.377.258a3.573 3.573 0 0 0-1.161.732 3.565 3.565 0 0 0-.803 1.132 3.58 3.58 0 0 0-.287 1.449c0 .564.095 1.07.287 1.52.2.45.473.832.817 1.147.354.306.76.545 1.219.717.459.163.956.244 1.491.244.421 0 .813-.057 1.176-.172.364-.115.693-.263.99-.445.306-.181.583-.382.832-.602l.76 1.276c-.239.24-.564.473-.976.703-.411.23-.874.416-1.391.56a5.912 5.912 0 0 1-1.591.214Zm-13.428-.144v-1.476h2.022V40.29h-2.022v-1.477h5.593v1.477h-2.022v7.084h2.022v1.477h-5.593Zm-7.422 0v-8.546h-3.213v-1.492h8.06v1.492h-3.299v8.547h-1.548Zm-9.364.144a6.525 6.525 0 0 1-1.721-.215 4.907 4.907 0 0 1-1.42-.645 5.596 5.596 0 0 1-1.147-1.09l1.032-1.248c.526.66 1.047 1.129 1.564 1.406.516.267 1.113.401 1.792.401.411 0 .798-.057 1.162-.172.363-.115.654-.282.874-.502.22-.22.33-.483.33-.788a.909.909 0 0 0-.158-.531 1.166 1.166 0 0 0-.415-.387 2.85 2.85 0 0 0-.617-.301 5.455 5.455 0 0 0-.731-.215 7.034 7.034 0 0 0-.803-.158 8.412 8.412 0 0 1-1.506-.387 3.906 3.906 0 0 1-1.119-.617 2.518 2.518 0 0 1-.674-.86 2.732 2.732 0 0 1-.23-1.148c0-.42.096-.808.288-1.161.2-.354.473-.655.817-.904a3.876 3.876 0 0 1 1.233-.588 5.17 5.17 0 0 1 1.52-.215c.584 0 1.114.067 1.592.201a4.03 4.03 0 0 1 1.276.602c.373.258.684.579.933.961l-1.062 1.104a3.464 3.464 0 0 0-.76-.817 2.97 2.97 0 0 0-.946-.488 3.296 3.296 0 0 0-1.076-.172c-.43 0-.812.058-1.147.172a1.856 1.856 0 0 0-.774.488 1.02 1.02 0 0 0-.287.731c0 .22.052.416.158.588a1.5 1.5 0 0 0 .459.46c.2.123.458.233.774.329.315.086.674.162 1.076.23.544.095 1.046.22 1.505.372.469.144.87.325 1.205.545.344.21.607.469.788.774.192.306.287.665.287 1.076 0 .64-.167 1.2-.502 1.678-.334.478-.807.846-1.42 1.104-.602.258-1.319.387-2.15.387Zm-13.864-.144V38.813h1.548v8.547h5.507v1.492h-7.055Zm-8.42.144a5.78 5.78 0 0 1-2.152-.387 5.21 5.21 0 0 1-1.706-1.09 4.974 4.974 0 0 1-1.133-1.635 5.364 5.364 0 0 1-.387-2.05c0-.736.129-1.415.387-2.037a4.936 4.936 0 0 1 1.133-1.649 5.212 5.212 0 0 1 1.706-1.09 5.78 5.78 0 0 1 2.151-.387c.775 0 1.487.13 2.137.387.66.259 1.229.627 1.707 1.105a4.934 4.934 0 0 1 1.133 1.649c.267.621.401 1.295.401 2.022a5.16 5.16 0 0 1-.401 2.036 5.133 5.133 0 0 1-1.133 1.65 5.018 5.018 0 0 1-1.707 1.09 5.74 5.74 0 0 1-2.136.386Zm0-1.505c.554 0 1.06-.091 1.52-.273.468-.182.87-.435 1.204-.76.344-.335.607-.722.789-1.162.191-.449.287-.936.287-1.462a3.6 3.6 0 0 0-.287-1.449 3.256 3.256 0 0 0-.789-1.161 3.437 3.437 0 0 0-1.204-.775 4.097 4.097 0 0 0-1.52-.272 4.21 4.21 0 0 0-1.535.272 3.63 3.63 0 0 0-1.205.775 3.254 3.254 0 0 0-.788 1.161c-.182.44-.273.923-.273 1.449s.091 1.013.273 1.462c.181.44.444.827.788 1.162.345.325.746.578 1.205.76a4.2 4.2 0 0 0 1.534.273Zm-11.803 1.505a6.525 6.525 0 0 1-1.721-.215 4.907 4.907 0 0 1-1.42-.645 5.596 5.596 0 0 1-1.147-1.09l1.032-1.248c.526.66 1.047 1.129 1.564 1.406.516.267 1.113.401 1.792.401.411 0 .798-.057 1.162-.172.363-.115.655-.282.874-.502.22-.22.33-.483.33-.788a.915.915 0 0 0-.157-.531 1.166 1.166 0 0 0-.416-.387 2.85 2.85 0 0 0-.617-.301 5.455 5.455 0 0 0-.731-.215 7.043 7.043 0 0 0-.803-.158 8.41 8.41 0 0 1-1.506-.387 3.904 3.904 0 0 1-1.119-.617 2.517 2.517 0 0 1-.674-.86 2.73 2.73 0 0 1-.23-1.148c0-.42.096-.808.288-1.161.2-.354.473-.655.817-.904a3.876 3.876 0 0 1 1.233-.588 5.17 5.17 0 0 1 1.52-.215c.584 0 1.114.067 1.592.201a4.03 4.03 0 0 1 1.276.602c.373.258.684.579.933.961l-1.062 1.104a3.461 3.461 0 0 0-.76-.817 2.97 2.97 0 0 0-.946-.488 3.295 3.295 0 0 0-1.076-.172c-.43 0-.812.058-1.147.172a1.856 1.856 0 0 0-.774.488 1.02 1.02 0 0 0-.287.731c0 .22.053.416.158.588a1.5 1.5 0 0 0 .459.46c.2.123.459.233.774.329.316.086.674.162 1.076.23.544.095 1.046.22 1.505.372.469.144.87.325 1.205.545.344.21.607.469.789.774a2 2 0 0 1 .286 1.076c0 .64-.167 1.2-.502 1.678-.334.478-.807.846-1.42 1.104-.601.258-1.319.387-2.15.387Z"/>
  <defs>
    <linearGradient id="a" x1="29.694" x2="33.766" y1="43.81" y2="43.81" gradientUnits="userSpaceOnUse">
      <stop/>
    </linearGradient>
  </defs>
</svg>
