<svg xmlns="http://www.w3.org/2000/svg" width="200" height="84" fill="none" viewBox="0 0 200 84">
  <path fill="#000" fill-rule="evenodd" d="M124.919 39.66c.355.239.686.513.986.817a6.471 6.471 0 0 1 1.503 2.335 7.24 7.24 0 0 1 .553 2.804 7.696 7.696 0 0 1-.274 1.908 6.543 6.543 0 0 1-.711 1.71 6.634 6.634 0 0 1-2.566 2.533 6.497 6.497 0 0 1-1.698.701 7.425 7.425 0 0 1-1.895.234 6.212 6.212 0 0 1-.869-.038 58.642 58.642 0 0 1-5.252 7.906 33.424 33.424 0 0 1-8.016 7.555 11.957 11.957 0 0 1-5.449 1.869 5.91 5.91 0 0 1-2.921-.623 5.992 5.992 0 0 1-2.172-1.908 11.705 11.705 0 0 1-1.816-5.101 26.464 26.464 0 0 1-.12-5.297c.064 1.743.288 3.477.672 5.18a10.374 10.374 0 0 0 2.132 4.556 4.495 4.495 0 0 0 1.86 1.34c.726.28 1.515.368 2.287.257a9.72 9.72 0 0 0 4.343-2.064 30.838 30.838 0 0 0 6.594-7.634 53.384 53.384 0 0 0 4.067-7.71 4.165 4.165 0 0 1-.435-.35 6.664 6.664 0 0 1-1.105-1.441 6.544 6.544 0 0 1-.711-1.71 6.171 6.171 0 0 1-.274-1.909 7.697 7.697 0 0 1 .274-1.908c.147-.602.387-1.18.711-1.71a6.633 6.633 0 0 1 2.566-2.532 6.76 6.76 0 0 1 1.734-.702 7.977 7.977 0 0 1 1.935-.234h.079a47.769 47.769 0 0 0 2.211-11.255 20.64 20.64 0 0 0-.395-6.27c-.474-1.986-1.422-3.817-3.041-4.557-1.618-.74-3.79-.234-5.646.818a22.093 22.093 0 0 0-5.133 4.052 50.96 50.96 0 0 0-7.857 10.78 51.826 51.826 0 0 1 7.067-11.524 24.331 24.331 0 0 1 5.094-4.713 10.772 10.772 0 0 1 3.317-1.557 6.52 6.52 0 0 1 3.952.08 6.807 6.807 0 0 1 3.154 2.45 12.633 12.633 0 0 1 1.659 3.35 24.249 24.249 0 0 1 1.066 7.05 50.573 50.573 0 0 1-1.46 12.461Zm-1.896 8.295c.279-.321.494-.691.632-1.09.165-.422.232-.874.198-1.325a3.463 3.463 0 0 0-.829-2.414 3.116 3.116 0 0 0-.986-.74 3.254 3.254 0 0 0-2.607 0c-.384.165-.722.42-.987.74a3.32 3.32 0 0 0-.631 1.09 3.817 3.817 0 0 0 0 2.648c.138.4.353.77.631 1.09.288.286.622.523.987.702.406.194.853.286 1.303.27.45.012.896-.08 1.303-.27.381-.151.72-.392.986-.701Z" clip-rule="evenodd"/>
  <path fill="#000" d="M51.477 43.089a6.426 6.426 0 0 1 1.698.973c.477.384.869.863 1.149 1.405.285.596.419 1.25.39 1.91a4.87 4.87 0 0 1-.473 2.141 4.835 4.835 0 0 1-1.344 1.63 5.485 5.485 0 0 1-2.014 1.053 7.24 7.24 0 0 1-2.487.39 6.828 6.828 0 0 1-2.488-.43 10.444 10.444 0 0 1-2.25-1.207 4.185 4.185 0 0 1-.75-.623c-.2-.236-.356-.389-.474-.506l-.079-.077h-.042l-.04-.039h-.036c-.158-.194-.237-.311-.237-.428a1.82 1.82 0 0 1 .197-.546l1.895-1.79a.55.55 0 0 1 .355-.157c.07.016.137.042.198.079a.899.899 0 0 1 .135.093c.04.031.085.066.139.101.066.044.145.112.236.191.072.062.15.13.237.199l.097.077c.176.14.375.298.574.43a5.06 5.06 0 0 0 1.106.583c.368.125.755.19 1.145.195.32.01.64-.03.947-.117.22-.056.423-.163.592-.312a.99.99 0 0 0 .316-.467 2.97 2.97 0 0 0 .08-.584.996.996 0 0 0-.274-.585 4.373 4.373 0 0 0-.632-.467 3.507 3.507 0 0 0-.79-.35 7.571 7.571 0 0 1-.71-.234 18.246 18.246 0 0 1-2.296-.97 6.874 6.874 0 0 1-1.658-1.17 4.788 4.788 0 0 1-.987-1.402 4.735 4.735 0 0 1-.316-1.711 4.018 4.018 0 0 1 .395-1.83 4.043 4.043 0 0 1 1.187-1.402 4.935 4.935 0 0 1 1.817-.896 9.24 9.24 0 0 1 2.408-.312 7.653 7.653 0 0 1 1.895.234 7.949 7.949 0 0 1 1.817.702l.71.467c.213.136.412.293.593.467.144.132.276.275.396.429.088.098.143.22.157.35a.558.558 0 0 1-.079.27.894.894 0 0 1-.094.134c-.032.04-.068.084-.103.136l-1.66 1.749a.55.55 0 0 1-.356.194.575.575 0 0 1-.274-.078 1.716 1.716 0 0 0-.274-.234l-.079-.078c-.14-.15-.3-.28-.474-.39l-.592-.35a3.075 3.075 0 0 0-.632-.27 1.869 1.869 0 0 0-.67-.118 3.524 3.524 0 0 0-.672.079 2.303 2.303 0 0 0-.553.194.86.86 0 0 0-.395.35.714.714 0 0 0-.158.506.775.775 0 0 0 .158.506c.128.172.29.317.474.429.238.14.49.256.75.35.318.12.674.238 1.066.355.75.233 1.462.509 2.133.779Zm17.331-4.442c.16 0 .32.027.473.078.122.04.24.117.124.235.032.1.045.206.039.311a1.188 1.188 0 0 1-.08.312l-.139.331c-.24.575-.505 1.205-.769 1.888-.27.667-.568 1.386-.87 2.114l-.157.378c-.355.857-.711 1.753-1.066 2.648-.355.896-.711 1.791-1.066 2.648-.266.72-.56 1.441-.834 2.116l-.153.377c-.139.342-.27.677-.397 1-.162.414-.317.81-.472 1.18a74.165 74.165 0 0 0-.711 1.753c-.092.235-.166.446-.232.63-.075.215-.14.395-.203.54l.04-.039a.932.932 0 0 1-.275.468.654.654 0 0 1-.473.194H59.06a.98.98 0 0 1-.671-.194.764.764 0 0 1-.197-.546c0-.117 0-.195.039-.234a.482.482 0 0 1 .08-.117l1.734-4.401-5.213-12.618a.81.81 0 0 1 0-.74.799.799 0 0 1 .75-.312h2.727a.599.599 0 0 1 .435.156c.127.117.221.265.274.428l3.12 8.686 3.04-8.686a.732.732 0 0 1 .297-.454.75.75 0 0 1 .532-.13h2.8Zm13.151 1.557a5.265 5.265 0 0 0-1.659-1.285 5.103 5.103 0 0 0-2.21-.467c-.533 0-1.064.065-1.58.194-.44.102-.865.259-1.264.467a4.166 4.166 0 0 0-.908.662 1.98 1.98 0 0 0-.513.702l-.237-.935c-.02-.059-.04-.107-.06-.156a2.492 2.492 0 0 1-.059-.156.627.627 0 0 0-.158-.27 1.044 1.044 0 0 0-.237-.194.798.798 0 0 0-.355-.078H71.06a.994.994 0 0 0-.632.194l.08-.039a.915.915 0 0 0-.274.27.632.632 0 0 0-.08.39v12.073c0 .223.068.44.198.623a.87.87 0 0 0 .67.235h2.488a.592.592 0 0 0 .274-.04c.088-.045.18-.084.274-.116a.699.699 0 0 0 .197-.27 1.12 1.12 0 0 0 .08-.35v-7.014c.03-.314.123-.618.273-.896.163-.272.362-.521.593-.74.225-.192.478-.35.75-.468a2.02 2.02 0 0 1 .79-.155c.312.008.62.074.908.194.294.117.562.289.79.506.239.202.428.455.553.74.144.276.212.585.197.896v7.049a.615.615 0 0 0 .158.623.635.635 0 0 0 .632.156h2.527a.829.829 0 0 0 .592-.195.98.98 0 0 0 .197-.623V44.45a7.614 7.614 0 0 0-.355-2.341 5.185 5.185 0 0 0-.982-1.904Zm14.299 10.608a.499.499 0 0 1-.123.178 2.545 2.545 0 0 0-.351.31 8.443 8.443 0 0 1-1.975.973 6.21 6.21 0 0 1-2.25.39 7.429 7.429 0 0 1-1.895-.234 6.489 6.489 0 0 1-1.698-.702 6.633 6.633 0 0 1-2.567-2.531 6.56 6.56 0 0 1-.711-1.711 6.2 6.2 0 0 1-.274-1.908c.01-.645.103-1.286.274-1.908a6.05 6.05 0 0 1 .71-1.71 5.633 5.633 0 0 1 1.106-1.441 7.89 7.89 0 0 1 1.46-1.09 6.489 6.489 0 0 1 1.699-.702 7.429 7.429 0 0 1 1.895-.234c.748 0 1.493.104 2.211.311a7.146 7.146 0 0 1 1.895.935l-.04-.039c.156.072.291.178.396.312a.617.617 0 0 1 .158.467.863.863 0 0 1-.119.39l-.986 1.636a.911.911 0 0 1-.75.546.508.508 0 0 1-.238-.04 2.337 2.337 0 0 1-.316-.155 5.022 5.022 0 0 0-1.027-.506 3.971 3.971 0 0 0-1.187-.194 2.84 2.84 0 0 0-1.263.27c-.384.165-.722.42-.987.74-.279.32-.493.69-.632 1.09a3.821 3.821 0 0 0 0 2.648c.139.4.353.77.632 1.09.288.286.621.523.987.702.392.19.826.282 1.263.27.408.006.813-.074 1.187-.234a5.175 5.175 0 0 0 1.027-.546.842.842 0 0 1 .274-.117.433.433 0 0 1 .197-.038c.122.003.243.03.355.078.109.038.184.137.287.273l.029.038 1.224 1.83a.82.82 0 0 0 .059.097c.02.03.04.059.06.098a.24.24 0 0 1 .04.156.494.494 0 0 1-.036.212Zm1.931 1.544h3.119a.531.531 0 0 0 .395-.117.478.478 0 0 0 .119-.35v-9.27a682.797 682.797 0 0 1 2.883 4.713 663.402 663.402 0 0 0 2.883 4.713c.069.098.149.189.237.27a.291.291 0 0 0 .238.078h3.514a.492.492 0 0 0 .355-.117.381.381 0 0 0 .119-.311V36.778a.378.378 0 0 0-.158-.35.674.674 0 0 0-.395-.117h-3.12a.45.45 0 0 0-.315.117.394.394 0 0 0-.158.311v8.644c-.948-1.48-1.856-2.92-2.765-4.361-.908-1.441-1.816-2.882-2.764-4.362a.678.678 0 0 0-.592-.35h-3.593a.39.39 0 0 0-.355.156.475.475 0 0 0-.12.35v15.112a.438.438 0 0 0 .12.312.485.485 0 0 0 .353.116Z"/>
  <path fill="#000" fill-rule="evenodd" d="M142.767 34.79a1.006 1.006 0 0 0-.274-.156.944.944 0 0 0-.316-.078h-2.448a.786.786 0 0 0-.632.234.945.945 0 0 0-.197.584v4.518a3.168 3.168 0 0 0-.671-.585 3.012 3.012 0 0 0-.751-.467 6.168 6.168 0 0 0-.908-.311 4.818 4.818 0 0 0-1.106-.118c-.948 0-1.888.186-2.764.546a6.421 6.421 0 0 0-2.171 1.52 7.29 7.29 0 0 0-1.938 5.064 7.39 7.39 0 0 0 .513 2.803 7.877 7.877 0 0 0 1.422 2.26 6.749 6.749 0 0 0 2.172 1.519 6.983 6.983 0 0 0 2.764.545c.362.012.723-.041 1.066-.156.326-.086.644-.203.948-.35.285-.154.561-.323.828-.506.238-.194.474-.39.671-.584l.198.506c.048.095.082.175.11.241.017.042.032.078.048.109a.625.625 0 0 0 .157.27.394.394 0 0 0 .198.156c.114.037.235.05.355.039h2.132c.593 0 .869-.27.869-.818V35.374a1.112 1.112 0 0 0-.079-.35 1.067 1.067 0 0 0-.196-.234Zm-3.593 10.866a3.43 3.43 0 0 1-.316 1.285 3.243 3.243 0 0 1-.751 1.013 5.02 5.02 0 0 1-1.066.701 3.674 3.674 0 0 1-1.303.234 2.891 2.891 0 0 1-1.302-.27 3.72 3.72 0 0 1-.987-.701 3.323 3.323 0 0 1-.632-1.09 3.828 3.828 0 0 1 0-2.649c.139-.4.353-.77.632-1.09.264-.32.603-.574.987-.74.406-.19.853-.282 1.302-.27.475-.009.947.084 1.382.27.412.177.787.428 1.106.74.308.313.55.684.711 1.09.17.422.263.87.274 1.325v.156l-.037-.004Zm17.929-3.933c.316.467.556.98.711 1.519.171.541.225 1.112.158 1.675v.94a.86.86 0 0 1-.158.584.924.924 0 0 1-.513.27 6.055 6.055 0 0 1-1.027.078h-7.897c.047.42.196.821.434 1.171.223.286.489.535.79.74.293.18.612.31.947.39.311.073.629.112.948.117.278-.007.555-.033.829-.078.144-.041.278-.082.412-.122.123-.038.246-.075.377-.112a3.002 3.002 0 0 0 1.225-.702c.102-.07.207-.135.316-.194a.736.736 0 0 1 .273-.079c.103.006.2.047.274.117.116.078.222.168.316.27l1.145 1.285a2.2 2.2 0 0 1 .158.27.495.495 0 0 1 .039.235.649.649 0 0 1-.119.39.922.922 0 0 1-.273.27 7.029 7.029 0 0 1-2.172 1.363 6.424 6.424 0 0 1-2.566.506 7.845 7.845 0 0 1-2.843-.546 7.619 7.619 0 0 1-2.33-1.48 7.017 7.017 0 0 1-1.618-2.26 6.619 6.619 0 0 1-.593-2.803 7.073 7.073 0 0 1 .238-1.83 7.808 7.808 0 0 1 .671-1.675c.3-.518.658-1 1.066-1.44.405-.439.87-.819 1.382-1.13a6.334 6.334 0 0 1 1.659-.74 6.02 6.02 0 0 1 1.895-.27c.6-.004 1.198.075 1.776.234a7.406 7.406 0 0 1 1.619.662c.493.306.956.659 1.382 1.052.399.406.757.849 1.069 1.323Zm-8.054 1.246a5.524 5.524 0 0 0-.474.74h5.646a5.403 5.403 0 0 0-.513-.779 4.717 4.717 0 0 0-.632-.623 3.078 3.078 0 0 0-.79-.428 2.703 2.703 0 0 0-1.026-.156 2.084 2.084 0 0 0-.829.156 3.015 3.015 0 0 0-.751.467 3.15 3.15 0 0 0-.631.623Z" clip-rule="evenodd"/>
</svg>
