<svg width="24" height="24" viewBox="0 0 24 24" fill="none" xmlns="http://www.w3.org/2000/svg">
<path d="M6.75774 8.80811C6.67967 8.73004 6.67975 8.60302 6.75774 8.5249L11.6864 3.59619C11.8035 3.47937 11.9932 3.47936 12.1103 3.59619L17.039 8.5249C17.117 8.60302 17.1171 8.73004 17.039 8.80811L16.331 9.51514C16.2529 9.59291 16.1268 9.59302 16.0488 9.51514L12.6171 6.0835L12.6171 20.98C12.6171 21.0904 12.5274 21.1802 12.4169 21.1802L11.4169 21.1802C11.3065 21.1802 11.2167 21.0904 11.2167 20.98L11.2167 6.04639L7.74797 9.51514C7.66995 9.59302 7.54383 9.59291 7.46574 9.51514L6.75774 8.80811Z" fill="currentColor"/>
<path d="M17.0379 8.52475C17.116 8.60285 17.116 8.72949 17.0379 8.80759L16.3306 9.51498C16.2524 9.59308 16.1258 9.59308 16.0477 9.51498L11.8975 5.36473L7.74721 9.51498C7.66911 9.59308 7.54248 9.59308 7.46437 9.51498L6.75699 8.80759C6.67888 8.72949 6.67888 8.60286 6.75699 8.52475L11.6853 3.59641C11.8025 3.47925 11.9924 3.47925 12.1096 3.59641L17.0379 8.52475Z" fill="currentColor"/>
</svg>
