<svg width="24" height="24" viewBox="0 0 24 24" fill="none" xmlns="http://www.w3.org/2000/svg">
<path d="M15.3721 7.14161C15.4501 7.06353 15.5772 7.06359 15.6553 7.14161L20.584 12.0703C20.7008 12.1874 20.7008 12.3771 20.584 12.4941L15.6553 17.4229C15.5772 17.5008 15.4501 17.5009 15.3721 17.4229L14.665 16.7148C14.5872 16.6368 14.5872 16.5107 14.665 16.4326L18.0967 13.001L3.20019 13.001C3.08974 13.001 3 12.9112 3 12.8008L3 11.8008C3 11.6903 3.08974 11.6006 3.20019 11.6006L18.1338 11.6006L14.665 8.13184C14.587 8.05373 14.587 7.92672 14.665 7.84864L15.3721 7.14161Z" fill="currentColor"/>
</svg>
