<svg width="24" height="24" viewBox="0 0 24 24" fill="none" xmlns="http://www.w3.org/2000/svg">
<path d="M17.0382 15.7564C17.1162 15.8345 17.1161 15.9615 17.0382 16.0396L12.1095 20.9683C11.9924 21.0851 11.8027 21.0851 11.6856 20.9683L6.75691 16.0396C6.67893 15.9615 6.67885 15.8345 6.75691 15.7564L7.46492 15.0494C7.54301 14.9716 7.66913 14.9715 7.74715 15.0494L11.1788 18.481L11.1788 3.58453C11.1788 3.47408 11.2685 3.38434 11.379 3.38434L12.379 3.38434C12.4894 3.38434 12.5792 3.47408 12.5792 3.58453L12.5792 18.5181L16.0479 15.0494C16.1259 14.9715 16.2521 14.9716 16.3302 15.0494L17.0382 15.7564Z" fill="currentColor"/>
<path d="M6.75699 16.0397C6.67888 15.9616 6.67888 15.835 6.75699 15.7569L7.46437 15.0495C7.54248 14.9714 7.66911 14.9714 7.74721 15.0495L11.8975 19.1997L16.0477 15.0495C16.1258 14.9714 16.2524 14.9714 16.3306 15.0495L17.0379 15.7569C17.116 15.835 17.116 15.9616 17.0379 16.0397L12.1096 20.968C11.9924 21.0852 11.8025 21.0852 11.6853 20.968L6.75699 16.0397Z" fill="currentColor"/>
</svg>
