<svg width="24" height="24" viewBox="0 0 24 24" fill="none" xmlns="http://www.w3.org/2000/svg">
<path d="M8.42383 17.4229C8.34576 17.5009 8.21874 17.5008 8.14063 17.4229L3.21191 12.4942C3.09509 12.3771 3.09509 12.1874 3.21191 12.0703L8.14063 7.14162C8.21874 7.06363 8.34577 7.06355 8.42383 7.14162L9.13086 7.84962C9.20864 7.92771 9.20875 8.05383 9.13086 8.13185L5.69922 11.5635L20.5957 11.5635C20.7062 11.5635 20.7959 11.6532 20.7959 11.7637L20.7959 12.7637C20.7959 12.8741 20.7062 12.9639 20.5957 12.9639L5.66211 12.9639L9.13086 16.4326C9.20875 16.5107 9.20864 16.6368 9.13086 16.7149L8.42383 17.4229Z" fill="currentColor"/>
<path d="M8.14047 7.14175C8.21858 7.06365 8.34521 7.06365 8.42332 7.14175L9.1307 7.84914C9.2088 7.92724 9.2088 8.05387 9.1307 8.13198L4.98045 12.2822L9.1307 16.4325C9.2088 16.5106 9.2088 16.6372 9.1307 16.7153L8.42332 17.4227C8.34521 17.5008 8.21858 17.5008 8.14047 17.4227L3.21213 12.4944C3.09497 12.3772 3.09497 12.1873 3.21213 12.0701L8.14047 7.14175Z" fill="currentColor"/>
</svg>
