<svg width="24" height="24" viewBox="0 0 24 24" fill="none" xmlns="http://www.w3.org/2000/svg">
<g clip-path="url(#clip0_2489_2937)">
<path d="M4 22H20C21.1 22 22 21.1 22 20V7H17.91C17.4315 4.167 14.967 2 12 2C9.033 2 6.5685 4.167 6.0905 7H2V20C2 21.1 2.9 22 4 22ZM12 4C13.8595 4 15.4225 5.2775 15.8685 7H8.1315C8.5775 5.2775 10.1405 4 12 4ZM6 9V11H8V9H16V11H18V9H20V20H4V9H6Z" fill="currentColor"/>
</g>
<rect x="4" y="9" width="16" height="11" fill="currentColor"/>
<defs>
<clipPath id="clip0_2489_2937">
<rect width="24" height="24" fill="white"/>
</clipPath>
</defs>
</svg>
