<svg width="48" height="48" viewBox="0 0 48 48" fill="none" xmlns="http://www.w3.org/2000/svg">
<circle cx="24" cy="24" r="24" fill="#2C2C34"/>
<path fill-rule="evenodd" clip-rule="evenodd" d="M36.4556 15.6764L37.1922 13.8343C37.1922 13.8343 36.2547 12.8109 35.1163 11.6511C33.9779 10.4913 31.5671 11.1735 31.5671 11.1735L28.8216 8H24H19.1785L16.4329 11.1735C16.4329 11.1735 14.0222 10.4913 12.8838 11.6511C11.7453 12.8109 10.8078 13.8343 10.8078 13.8343L11.5445 15.6764L10.6069 18.4054C10.6069 18.4054 13.3642 29.0456 13.6873 30.3449C14.3235 32.9034 14.7588 33.8926 16.5669 35.1889C18.3749 36.4852 21.6562 38.7367 22.192 39.0778C22.7277 39.4189 23.3973 40 24 40C24.6027 40 25.2724 39.4189 25.8081 39.0778C26.3438 38.7367 29.6251 36.4852 31.4332 35.1889C33.2413 33.8926 33.6766 32.9034 34.3127 30.3449C34.6358 29.0456 37.3931 18.4054 37.3931 18.4054L36.4556 15.6764Z" fill="url(#paint0_linear_11995_1639)"/>
<path fill-rule="evenodd" clip-rule="evenodd" d="M24 27.9141C24.1836 27.9141 25.3596 28.3371 26.3034 28.8346C27.2471 29.3322 27.931 29.684 28.1496 29.8234C28.3682 29.9629 28.2349 30.2257 28.0358 30.3691C27.8366 30.5126 25.1606 32.6237 24.9009 32.8571C24.6412 33.0905 24.2595 33.4759 24 33.4759C23.7406 33.4759 23.3589 33.0905 23.0992 32.8571C22.8394 32.6237 20.1635 30.5126 19.9643 30.3691C19.7651 30.2257 19.6319 29.9629 19.8505 29.8234C20.0691 29.684 20.753 29.3322 21.6968 28.8346C22.6404 28.3371 23.8165 27.9141 24 27.9141ZM24.0144 12.8774C24.1045 12.88 24.6123 12.9051 25.3394 13.152C26.143 13.4249 27.0135 13.7661 27.4153 13.7661C27.8171 13.7661 30.7971 13.1861 30.7971 13.1861C30.7971 13.1861 34.3286 17.5355 34.3286 18.4651C34.3286 19.3947 33.8843 19.64 33.4376 20.1233C32.991 20.6065 31.0402 22.717 30.7897 22.988C30.5392 23.259 30.0177 23.67 30.3244 24.4096C30.6312 25.1492 31.0837 26.0904 30.5805 27.045C30.0772 27.9996 29.215 28.6368 28.6625 28.5315C28.1101 28.426 26.8126 27.7353 26.3355 27.4197C25.8584 27.1042 24.3461 25.8335 24.3461 25.3474C24.3461 24.8613 25.9093 23.9884 26.1981 23.79C26.487 23.5918 27.8042 22.8242 27.8312 22.5229C27.8581 22.2215 27.8478 22.1332 27.4591 21.3887C27.0704 20.6442 26.3703 19.6507 26.4868 18.9896C26.6033 18.3287 27.7324 17.9849 28.5381 17.6749C29.3437 17.365 30.895 16.7795 31.0887 16.6885C31.2826 16.5974 31.2325 16.5107 30.6454 16.454C30.0584 16.3973 28.3926 16.172 27.6416 16.3853C26.8906 16.5986 25.6075 16.9231 25.5036 17.0951C25.3996 17.2672 25.308 17.273 25.4147 17.8666C25.5214 18.4601 26.0709 21.3083 26.1242 21.8142C26.1776 22.3201 26.2819 22.6545 25.7465 22.7792C25.2111 22.9039 24.3098 23.1205 24.0001 23.1205C23.6903 23.1205 22.789 22.9039 22.2536 22.7792C21.7181 22.6545 21.8225 22.3201 21.8758 21.8142C21.9292 21.3083 22.4787 18.4601 22.5854 17.8666C22.6921 17.273 22.6004 17.2672 22.4966 17.0951C22.3926 16.9231 21.1095 16.5986 20.3585 16.3853C19.6075 16.172 17.9417 16.3973 17.3547 16.454C16.7677 16.5107 16.7176 16.5974 16.9114 16.6885C17.1052 16.7795 18.6564 17.365 19.462 17.6749C20.2677 17.9849 21.3968 18.3287 21.5133 18.9896C21.6298 19.6507 20.9297 20.6442 20.541 21.3887C20.1523 22.1332 20.142 22.2215 20.169 22.5229C20.1959 22.8242 21.5132 23.5918 21.802 23.79C22.0908 23.9884 23.6539 24.8613 23.6539 25.3474C23.6539 25.8335 22.1418 27.1042 21.6646 27.4197C21.1875 27.7353 19.8901 28.426 19.3376 28.5315C18.7851 28.6368 17.9229 27.9996 17.4196 27.045C16.9164 26.0904 17.3689 25.1492 17.6756 24.4096C17.9824 23.67 17.4609 23.259 17.2104 22.988C16.9599 22.717 15.0091 20.6065 14.5624 20.1233C14.1158 19.64 13.6716 19.3947 13.6716 18.4651C13.6716 17.5355 17.2031 13.1861 17.2031 13.1861C17.2031 13.1861 20.183 13.7661 20.5848 13.7661C20.9866 13.7661 21.8572 13.4249 22.6608 13.152C23.3878 12.9051 23.8956 12.88 23.9857 12.8774H24.0144Z" fill="white"/>
<mask id="mask0_11995_1639" style="mask-type:alpha" maskUnits="userSpaceOnUse" x="12" y="8" width="24" height="6">
<path d="M31.5672 11.1735L28.8216 8H24.0001H19.1785L16.433 11.1735C16.433 11.1735 14.0222 10.4913 12.8838 11.6511C12.8838 11.6511 16.0981 11.3555 17.2031 13.1862C17.2031 13.1862 20.183 13.7661 20.5848 13.7661C20.9866 13.7661 21.8572 13.425 22.6608 13.1521C23.4643 12.8792 24.0001 12.8772 24.0001 12.8772C24.0001 12.8772 24.5358 12.8792 25.3394 13.1521C26.143 13.425 27.0135 13.7661 27.4153 13.7661C27.8171 13.7661 30.7971 13.1862 30.7971 13.1862C31.902 11.3555 35.1163 11.6511 35.1163 11.6511C33.9779 10.4913 31.5672 11.1735 31.5672 11.1735Z" fill="white"/>
</mask>
<g mask="url(#mask0_11995_1639)">
<path d="M31.5672 11.1735L28.8216 8H24.0001H19.1785L16.433 11.1735C16.433 11.1735 14.0222 10.4913 12.8838 11.6511C12.8838 11.6511 16.0981 11.3555 17.2031 13.1862C17.2031 13.1862 20.183 13.7661 20.5848 13.7661C20.9866 13.7661 21.8572 13.425 22.6608 13.1521C23.4643 12.8792 24.0001 12.8772 24.0001 12.8772C24.0001 12.8772 24.5358 12.8792 25.3394 13.1521C26.143 13.425 27.0135 13.7661 27.4153 13.7661C27.8171 13.7661 30.7971 13.1862 30.7971 13.1862C31.902 11.3555 35.1163 11.6511 35.1163 11.6511C33.9779 10.4913 31.5672 11.1735 31.5672 11.1735Z" fill="url(#paint1_linear_11995_1639)"/>
</g>
<defs>
<linearGradient id="paint0_linear_11995_1639" x1="10.6069" y1="24.2258" x2="37.3931" y2="24.2258" gradientUnits="userSpaceOnUse">
<stop stop-color="#FF5500"/>
<stop offset="0.409877" stop-color="#FF5500"/>
<stop offset="0.581981" stop-color="#FF2000"/>
<stop offset="1" stop-color="#FF2000"/>
</linearGradient>
<linearGradient id="paint1_linear_11995_1639" x1="13.3614" y1="10.9237" x2="35.1163" y2="10.9237" gradientUnits="userSpaceOnUse">
<stop stop-color="#FF452A"/>
<stop offset="1" stop-color="#FF2000"/>
</linearGradient>
</defs>
</svg>
