<svg width="20" height="20" viewBox="0 0 20 20" fill="currentColor" xmlns="http://www.w3.org/2000/svg">
<path d="M1.5 15.833V2.5C1.5 1.94772 1.94772 1.5 2.5 1.5C3.05228 1.5 3.5 1.94772 3.5 2.5V15.833C3.5 16.0098 3.57029 16.1797 3.69531 16.3047C3.82034 16.4297 3.99018 16.5 4.16699 16.5H17.5C18.0523 16.5 18.5 16.9477 18.5 17.5C18.5 18.0523 18.0523 18.5 17.5 18.5H4.16699C3.45975 18.5 2.78135 18.2188 2.28125 17.7188C1.78115 17.2187 1.5 16.5403 1.5 15.833ZM5.66699 14.167V11.667C5.66699 11.1147 6.11471 10.667 6.66699 10.667C7.21913 10.6672 7.66699 11.1148 7.66699 11.667V14.167C7.66682 14.719 7.21902 15.1668 6.66699 15.167C6.11482 15.167 5.66717 14.7191 5.66699 14.167ZM9.83301 14.167V7.5C9.83301 6.94782 10.2809 6.50018 10.833 6.5C11.3853 6.5 11.833 6.94772 11.833 7.5V14.167C11.8328 14.7191 11.3852 15.167 10.833 15.167C10.281 15.1668 9.83318 14.719 9.83301 14.167ZM14 14.167V4.16699C14 3.61471 14.4477 3.16699 15 3.16699C15.5523 3.16699 16 3.61471 16 4.16699V14.167C15.9998 14.7191 15.5522 15.167 15 15.167C14.4478 15.167 14.0002 14.7191 14 14.167Z"/>
</svg>
