<svg width="20" height="20" viewBox="0 0 20 20" fill="none" xmlns="http://www.w3.org/2000/svg">
<g clip-path="url(#clip0_536_15693)">
<path d="M17.6757 13.2423C17.1455 14.4961 16.3163 15.6008 15.2606 16.4601C14.2048 17.3193 12.9546 17.9069 11.6194 18.1713C10.2841 18.4358 8.90435 18.3691 7.60078 17.9772C6.29722 17.5852 5.10952 16.8799 4.14151 15.9229C3.17351 14.9659 2.45467 13.7863 2.04786 12.4873C1.64104 11.1883 1.55863 9.8094 1.80783 8.47119C2.05702 7.13298 2.63024 5.87619 3.47737 4.81069C4.32449 3.74519 5.41973 2.90343 6.66733 2.359M17.5007 10.0007C17.9607 10.0007 18.3382 9.6265 18.2923 9.169C18.1002 7.25581 17.2524 5.46792 15.8926 4.10843C14.5328 2.74895 12.7447 1.90153 10.8315 1.70983C10.3732 1.664 9.99983 2.0415 9.99983 2.5015V9.16817C9.99983 9.38918 10.0876 9.60114 10.2439 9.75742C10.4002 9.9137 10.6121 10.0015 10.8332 10.0015L17.5007 10.0007Z" stroke="currentColor" stroke-width="2" stroke-linecap="round" stroke-linejoin="round"/>
</g>
<defs>
<clipPath id="clip0_536_15693">
<rect width="20" height="20" fill="white"/>
</clipPath>
</defs>
</svg>
