<svg width="48" height="48" viewBox="0 0 48 48" fill="none" xmlns="http://www.w3.org/2000/svg">
<circle cx="24" cy="24" r="24" fill="url(#paint0_linear_10169:6081)"/>
<path d="M16.1602 11.9844C14.678 11.9856 13.2295 12.4261 11.9977 13.2503C10.7659 14.0745 9.806 15.2454 9.23937 16.6149C8.67275 17.9844 8.52482 19.4912 8.81427 20.9448C9.10371 22.3984 9.81755 23.7335 10.8656 24.7815C11.9136 25.8296 13.2488 26.5434 14.7023 26.8328C16.1559 27.1223 17.6627 26.9744 19.0322 26.4077C20.4018 25.8411 21.5726 24.8812 22.3968 23.6494C23.221 22.4176 23.6615 20.9691 23.6627 19.487C23.6616 17.4975 22.8708 15.5898 21.4641 14.183C20.0573 12.7763 18.1496 11.9855 16.1602 11.9844ZM16.1602 23.9063C15.2853 23.9063 14.43 23.6468 13.7026 23.1607C12.9751 22.6747 12.4082 21.9838 12.0734 21.1755C11.7386 20.3671 11.651 19.4777 11.8218 18.6196C11.9925 17.7615 12.4139 16.9734 13.0326 16.3548C13.6513 15.7362 14.4395 15.3149 15.2976 15.1443C16.1557 14.9737 17.0451 15.0614 17.8534 15.3963C18.6617 15.7312 19.3525 16.2983 19.8384 17.0258C20.3244 17.7533 20.5837 18.6086 20.5836 19.4835C20.5796 20.6554 20.1123 21.7782 19.2836 22.6067C18.4549 23.4353 17.332 23.9025 16.1602 23.9063ZM38.2595 18.3975C38.2619 19.4704 37.9907 20.5261 37.4716 21.465C36.6707 20.8132 35.759 20.3107 34.7802 19.9816C35.0412 19.4943 35.1786 18.9504 35.1804 18.3975C35.1804 17.5124 34.8287 16.6635 34.2029 16.0376C33.577 15.4117 32.7281 15.0601 31.8429 15.0601C30.9578 15.0601 30.1089 15.4117 29.483 16.0376C28.8571 16.6635 28.5055 17.5124 28.5055 18.3975C28.5013 18.9511 28.639 19.4965 28.9056 19.9816C27.9267 20.3109 27.0148 20.8133 26.2136 21.465C25.6793 20.4886 25.4086 19.3899 25.4282 18.277C25.4479 17.1642 25.7571 16.0757 26.3255 15.1187C26.8939 14.1618 27.7019 13.3695 28.6697 12.8198C29.6376 12.2702 30.732 11.9823 31.845 11.9844C33.5454 11.9862 35.1757 12.6624 36.3782 13.8647C37.5808 15.0669 38.2573 16.6971 38.2595 18.3975ZM31.845 20.993C30.3624 20.9917 28.9127 21.4302 27.6793 22.2528C26.4459 23.0754 25.4841 24.2454 24.9155 25.6146C24.347 26.9838 24.1972 28.4909 24.4852 29.9453C24.7731 31.3996 25.4858 32.736 26.5332 33.7853C27.5806 34.8346 28.9156 35.5497 30.3695 35.8403C31.8233 36.1309 33.3306 35.9839 34.7009 35.4179C36.0712 34.8518 37.2429 33.8922 38.0678 32.6603C38.8926 31.4283 39.3337 29.9795 39.3352 28.4969C39.3332 26.5097 38.5439 24.6043 37.14 23.1978C35.7361 21.7914 33.8322 20.9986 31.845 20.993ZM31.845 32.9066C30.9712 32.9055 30.1175 32.6454 29.3916 32.159C28.6657 31.6726 28.1004 30.9819 27.7672 30.1742C27.4339 29.3665 27.3476 28.4782 27.5193 27.6215C27.691 26.7647 28.1129 25.9782 28.7316 25.3613C29.3503 24.7444 30.1381 24.3248 30.9953 24.1557C31.8526 23.9865 32.7407 24.0754 33.5474 24.411C34.3541 24.7467 35.0431 25.314 35.5273 26.0413C36.0116 26.7686 36.2692 27.6232 36.2677 28.4969C36.2643 29.6676 35.7968 30.7892 34.9677 31.6158C34.1387 32.4424 33.0157 32.9066 31.845 32.9066ZM22.5747 29.5712C22.5747 31.273 21.8987 32.9051 20.6953 34.1084C19.492 35.3118 17.8599 35.9878 16.1581 35.9878C14.4563 35.9878 12.8242 35.3118 11.6209 34.1084C10.4176 32.9051 9.74152 31.273 9.74152 29.5712H12.8207C12.8207 30.4564 13.1723 31.3053 13.7982 31.9312C14.4241 32.5571 15.273 32.9087 16.1581 32.9087C17.0432 32.9087 17.8921 32.5571 18.518 31.9312C19.1439 31.3053 19.4955 30.4564 19.4955 29.5712H22.5747Z" fill="#252525"/>
<defs>
<linearGradient id="paint0_linear_10169:6081" x1="45.5526" y1="2.44741" x2="3.11065" y2="44.8893" gradientUnits="userSpaceOnUse">
<stop stop-color="#F1D961"/>
<stop offset="1" stop-color="#CDA146"/>
</linearGradient>
</defs>
</svg>
