<svg width="32" height="32" viewBox="0 0 32 32" fill="none" xmlns="http://www.w3.org/2000/svg">
<rect width="32" height="32" rx="8" fill="#F4F6F8"/>
<path d="M25.6011 15.2298C24.3147 14.7679 23.5234 13.4587 23.6228 12.4249C23.6228 12.2549 23.521 12.097 23.3923 11.9854C23.2635 11.8744 23.0638 11.8264 22.8967 11.8533C20.9363 12.1409 19.1413 10.7067 18.9634 8.69068C18.9474 8.50873 18.8478 8.34506 18.6933 8.24721C18.5394 8.14994 18.3477 8.12877 18.1778 8.19229C16.5888 8.7742 15.0873 7.72202 14.4882 6.351C14.3761 6.09464 14.098 5.95331 13.8239 6.01397C9.31323 7.02049 6 11.3772 6 16C6 21.4926 10.5074 26 16 26C21.4925 26 25.9999 21.4926 25.9999 16C25.9837 15.6511 25.9812 15.366 25.6011 15.2298ZM10.1113 16.6301C9.78772 16.6301 9.52538 16.3677 9.52538 16.0441C9.52538 15.7205 9.78772 15.4582 10.1113 15.4582C10.4349 15.4582 10.6973 15.7205 10.6973 16.0441C10.6973 16.3677 10.4349 16.6301 10.1113 16.6301ZM12.4844 21.2735C11.5151 21.2735 10.7266 20.4849 10.7266 19.5156C10.7266 18.5464 11.5151 17.7578 12.4844 17.7578C13.4537 17.7578 14.2422 18.5464 14.2422 19.5156C14.2422 20.4849 13.4537 21.2735 12.4844 21.2735ZM13.0703 14.2422C12.4243 14.2422 11.8984 13.7164 11.8984 13.0704C11.8984 12.4243 12.4243 11.8985 13.0703 11.8985C13.7163 11.8985 14.2422 12.4243 14.2422 13.0704C14.2422 13.7164 13.7163 14.2422 13.0703 14.2422ZM17.7578 22.4453C17.1118 22.4453 16.5859 21.9195 16.5859 21.2735C16.5859 20.6274 17.1118 20.1016 17.7578 20.1016C18.4038 20.1016 18.9297 20.6274 18.9297 21.2735C18.9297 21.9195 18.4038 22.4453 17.7578 22.4453ZM18.3437 17.7578C17.3744 17.7578 16.5859 16.9693 16.5859 16C16.5859 15.0307 17.3744 14.2422 18.3437 14.2422C19.313 14.2422 20.1015 15.0307 20.1015 16C20.1015 16.9693 19.3131 17.7578 18.3437 17.7578ZM21.83 18.9738C21.5064 18.9738 21.2441 18.7115 21.2441 18.3879C21.2441 18.0642 21.5064 17.8019 21.83 17.8019C22.1536 17.8019 22.416 18.0642 22.416 18.3879C22.416 18.7115 22.1536 18.9738 21.83 18.9738Z" fill="#7A8AA0"/>
</svg>
