<svg width="24" height="24" viewBox="0 0 24 24" fill="none" xmlns="http://www.w3.org/2000/svg">
<mask id="path-1-inside-1_2494_216" fill="white">
<path fill-rule="evenodd" clip-rule="evenodd" d="M19.5853 3.87982C15.6884 4.36169 12.675 7.61 12.675 11.5455C12.675 15.8131 16.2186 19.2727 20.5898 19.2727C20.6053 19.2727 20.6208 19.2727 20.6363 19.2726C18.8019 20.9634 16.328 22 13.6061 22C7.94928 22 3.36353 17.5228 3.36353 12C3.36353 6.47715 7.94928 2 13.6061 2C15.8378 2 17.9028 2.69684 19.5853 3.87982Z"/>
</mask>
<path d="M19.5853 3.87982L19.8062 5.66622C20.5449 5.57488 21.1511 5.03833 21.3316 4.31624C21.5121 3.59414 21.2295 2.83546 20.6206 2.40736L19.5853 3.87982ZM20.6363 19.2726L21.8562 20.5961C22.4027 20.0924 22.5834 19.3045 22.311 18.613C22.0387 17.9214 21.3693 17.4684 20.6261 17.4726L20.6363 19.2726ZM14.475 11.5455C14.475 8.56325 16.7662 6.04212 19.8062 5.66622L19.3644 2.09343C14.6106 2.68125 10.875 6.65675 10.875 11.5455H14.475ZM20.5898 17.4727C17.1718 17.4727 14.475 14.7786 14.475 11.5455H10.875C10.875 16.8476 15.2654 21.0727 20.5898 21.0727V17.4727ZM20.6261 17.4726C20.6138 17.4727 20.6017 17.4727 20.5898 17.4727V21.0727C20.6088 21.0727 20.6277 21.0727 20.6465 21.0726L20.6261 17.4726ZM19.4163 17.9491C17.9053 19.3419 15.8638 20.2 13.6061 20.2V23.8C16.7922 23.8 19.6985 22.585 21.8562 20.5961L19.4163 17.9491ZM13.6061 20.2C8.90248 20.2 5.16353 16.4883 5.16353 12H1.56353C1.56353 18.5574 6.99608 23.8 13.6061 23.8V20.2ZM5.16353 12C5.16353 7.51169 8.90248 3.8 13.6061 3.8V0.2C6.99608 0.2 1.56353 5.44261 1.56353 12H5.16353ZM13.6061 3.8C15.4583 3.8 17.1633 4.37724 18.55 5.35228L20.6206 2.40736C18.6424 1.01644 16.2174 0.2 13.6061 0.2V3.8Z" fill="currentColor" mask="url(#path-1-inside-1_2494_216)"/>
</svg>
