<svg width="24" height="24" viewBox="0 0 24 24" fill="none" xmlns="http://www.w3.org/2000/svg">
<path fill-rule="evenodd" clip-rule="evenodd" d="M16.6414 5.15876H7.35889C6.14386 5.15876 5.15889 6.14374 5.15889 7.35877V9.05742H18.8414V7.35876C18.8414 6.14374 17.8564 5.15876 16.6414 5.15876ZM5.15889 16.6412V10.8574H13.0408V18.8412H7.35889C6.14386 18.8412 5.15889 17.8563 5.15889 16.6412ZM14.8408 18.8412H16.6414C17.8564 18.8412 18.8414 17.8563 18.8414 16.6412V10.8574H14.8408V18.8412ZM7.35889 3.35876C5.14975 3.35876 3.35889 5.14963 3.35889 7.35877V16.6412C3.35889 18.8504 5.14975 20.6412 7.35889 20.6412H16.6414C18.8505 20.6412 20.6414 18.8504 20.6414 16.6412V7.35876C20.6414 5.14963 18.8505 3.35876 16.6414 3.35876H7.35889Z" fill="currentColor"/>
</svg>
