<svg width="24" height="24" viewBox="0 0 24 24" fill="none" xmlns="http://www.w3.org/2000/svg">
<path fill-rule="evenodd" clip-rule="evenodd" d="M7.35889 5.15876H16.6414C17.8564 5.15876 18.8414 6.14374 18.8414 7.35876V9.05737H5.15889V7.35877C5.15889 6.14374 6.14386 5.15876 7.35889 5.15876ZM14.8408 10.8574H18.8414V16.6412C18.8414 17.8563 17.8564 18.8412 16.6414 18.8412H14.8408V10.8574ZM3.35889 7.35877C3.35889 5.14963 5.14975 3.35876 7.35889 3.35876H16.6414C18.8505 3.35876 20.6414 5.14963 20.6414 7.35876V16.6412C20.6414 18.8504 18.8505 20.6412 16.6414 20.6412H7.35889C5.14975 20.6412 3.35889 18.8504 3.35889 16.6412V7.35877Z" fill="currentColor"/>
</svg>
