<svg width="60" height="60" viewBox="0 0 60 60" fill="none" xmlns="http://www.w3.org/2000/svg">
<path fill-rule="evenodd" clip-rule="evenodd" d="M30 58C45.464 58 58 45.464 58 30C58 14.536 45.464 2 30 2C14.536 2 2 14.536 2 30C2 45.464 14.536 58 30 58ZM30 60C46.5685 60 60 46.5685 60 30C60 13.4315 46.5685 0 30 0C13.4315 0 0 13.4315 0 30C0 46.5685 13.4315 60 30 60Z" fill="#E14D4D"/>
<path d="M23.0711 37.0711C23.4616 37.4616 24.0948 37.4616 24.4853 37.0711L30.1421 31.4142L35.799 37.0711C36.1895 37.4616 36.8227 37.4616 37.2132 37.0711C37.6037 36.6806 37.6037 36.0474 37.2132 35.6569L31.5563 30L37.2132 24.3431C37.6037 23.9526 37.6037 23.3195 37.2132 22.9289C36.8227 22.5384 36.1895 22.5384 35.799 22.9289L30.1421 28.5858L24.4853 22.9289C24.0948 22.5384 23.4616 22.5384 23.0711 22.9289C22.6805 23.3195 22.6805 23.9526 23.0711 24.3432L28.7279 30L23.0711 35.6568C22.6805 36.0474 22.6805 36.6805 23.0711 37.0711Z" fill="#E14D4D"/>
</svg>
