<svg width="24" height="24" viewBox="0 0 24 24" fill="none" xmlns="http://www.w3.org/2000/svg">
<path fill-rule="evenodd" clip-rule="evenodd" d="M5.5 8.75C5.5 6.95507 6.95507 5.5 8.75 5.5H9.88158V4H8.75C6.12665 4 4 6.12665 4 8.75V15.75C4 18.3734 6.12665 20.5 8.75 20.5H12.25H15.75C18.3734 20.5 20.5 18.3734 20.5 15.75V14.6184H19V15.75C19 17.5449 17.5449 19 15.75 19H12.25H8.75C6.95507 19 5.5 17.5449 5.5 15.75V8.75ZM13.75 5.5H17.9394L10.1408 13.2986L11.2015 14.3593L19 6.56073V10.75H20.5V4.75V4H19.75H13.75V5.5Z" fill="currentColor"/>
</svg>
