<svg width="48" height="48" viewBox="0 0 48 48" fill="none" xmlns="http://www.w3.org/2000/svg">
<path d="M24 48C37.2548 48 48 37.2548 48 24C48 10.7452 37.2548 0 24 0C10.7452 0 0 10.7452 0 24C0 37.2548 10.7452 48 24 48Z" fill="black"/>
<path d="M32.4797 22.3741H29.8647V17.4825C29.8647 16.8217 29.7895 16.3461 29.4289 16.3461C29.0682 16.3461 28.993 16.8217 28.993 17.4825V22.3741H26.3799V17.4825C26.3799 16.8217 26.3047 16.3461 25.944 16.3461C25.5834 16.3461 25.5081 16.8217 25.5081 17.4825V22.3741H22.8931V14.904H25.5101V15.6795C25.6788 15.3926 25.9223 15.1559 26.2152 14.9943C26.508 14.8326 26.8393 14.752 27.1744 14.7608C27.888 14.7608 28.507 15.0167 28.8966 15.7501C29.0535 15.4411 29.297 15.1834 29.5981 15.0079C29.899 14.8325 30.2447 14.7466 30.5937 14.7608C31.6081 14.7608 32.4816 15.4025 32.4816 17.0203L32.4797 22.3741ZM19.3774 18.6438C19.0283 18.9303 18.5037 19.2302 18.5037 20.1394C18.5037 20.7506 18.6619 21.0008 18.9415 21.0008C19.2212 21.0008 19.3774 20.7506 19.3774 20.1394V18.6438ZM19.0071 14.7608C20.7427 14.7608 21.9925 15.3567 21.9925 17.2323V22.3741H19.3774V21.7266C19.0977 22.1678 18.5924 22.5097 17.7767 22.5097C17.2155 22.5097 15.9041 22.3187 15.9041 20.3781C15.9041 17.7213 19.3754 18.6323 19.3754 17.0165C19.3754 16.3556 19.2173 16.0863 18.9377 16.0863C18.658 16.0863 18.5018 16.3556 18.5018 17.0165V17.4271H16.0198V17.2362C16.0198 15.3605 17.2714 14.7646 19.0071 14.7646V14.7608ZM36.8844 19.3754H39.3686C39.3339 21.5489 38.0667 22.5173 36.3175 22.5173C34.5684 22.5173 33.2665 21.5298 33.2665 19.2894V17.9887C33.2665 15.7482 34.5451 14.7608 36.3175 14.7608C38.09 14.7608 39.3686 15.7482 39.3686 17.9887V18.7718H35.8836V20.0496C35.8836 20.7085 35.9686 21.1841 36.3831 21.1841C36.7976 21.1841 36.8844 20.7085 36.8844 20.0496V19.3754ZM36.761 17.2209C36.761 16.5619 36.686 16.0863 36.3251 16.0863C35.9648 16.0863 35.8893 16.5619 35.8893 17.2209V17.6162H36.761V17.2209ZM15.1616 16.5065V16.1245C15.1616 13.5403 13.6033 12.8412 11.8831 12.8412C10.1629 12.8412 8.63159 13.7599 8.63159 16.3461V19.0029C8.63159 20.7429 9.37603 22.5173 11.3682 22.5173C12.2823 22.5173 12.8686 22.0799 13.1212 21.6654L13.3276 22.3817H15.1481V17.4271H11.9853V19.0239H12.697V19.3582C12.697 20.1699 12.5831 20.9129 12.0663 20.9129C11.5495 20.9129 11.4376 20.1699 11.4376 19.3582V15.9545C11.4376 15.1638 11.4897 14.438 11.8908 14.438C12.292 14.438 12.344 15.1638 12.344 15.9545V16.5065H15.1616Z" fill="white"/>
<path d="M22.5931 33.1377C22.1183 33.3363 21.6083 33.4383 21.0927 33.4376C19.8525 33.4376 19.1218 32.7385 19.1218 31.4092V26.8137H18.5953V25.8243H19.1218V24.812H21.7351V25.8243H22.5931V26.8137H21.7351V31.2927C21.7351 31.7759 21.822 32.1999 22.2441 32.1999C22.3675 32.1997 22.4886 32.1653 22.5931 32.1006V33.1396V33.1377ZM15.5095 26.8137H18.1034V26.4126C18.1034 24.577 16.8656 23.7615 15.0295 23.7615C13.2747 23.7615 11.9552 24.7337 11.9552 26.4355C11.9552 29.6252 15.6002 28.9185 15.6002 31.0826C15.6002 31.6556 15.3747 31.8466 15.1007 31.8466C14.8268 31.8466 14.6032 31.6556 14.6032 31.0826V30.2918H11.9861V30.6738C11.9861 32.5896 13.2457 33.4376 15.1392 33.4376C16.9482 33.4376 18.2985 32.4406 18.2985 30.6566C18.2985 27.1021 14.5495 28.0876 14.5495 26.1203C14.5495 25.5473 14.7826 25.3563 15.0295 25.3563C15.2764 25.3563 15.5095 25.5473 15.5095 26.1203V26.8137ZM26.4365 28.1507C26.4365 27.4917 26.3615 27.0161 26.0007 27.0161C25.6403 27.0161 25.5648 27.4917 25.5648 28.1507V30.9699C25.5648 31.6288 25.6403 32.1044 26.0007 32.1044C26.3615 32.1044 26.4365 31.6288 26.4365 30.9699V28.1507ZM26.0007 25.6906C27.7731 25.6906 29.0517 26.6781 29.0517 28.9185V30.2116C29.0517 32.452 27.7731 33.4395 26.0007 33.4395C24.2287 33.4395 22.9501 32.452 22.9501 30.2116V28.9089C22.9501 26.6685 24.2268 25.681 26.0007 25.681V25.6906ZM33.3292 28.4028C33.3292 27.7419 33.2542 27.2664 32.8933 27.2664C32.5329 27.2664 32.4575 27.7419 32.4575 28.4028V30.7101C32.4575 31.3691 32.5329 31.8447 32.8933 31.8447C33.2542 31.8447 33.3292 31.3691 33.3292 30.7101V28.4028ZM33.993 25.681C35.2289 25.681 35.9444 26.6685 35.9444 28.9089V30.2021C35.9444 32.4425 35.2289 33.43 33.993 33.43C33.6896 33.4316 33.3904 33.3598 33.1217 33.2211C32.853 33.0823 32.6222 32.8806 32.4499 32.6335V35.1566H29.8503V25.8243H32.4655V26.4775C32.6374 26.2304 32.8682 26.0287 33.1369 25.8899C33.4061 25.7511 33.7047 25.6794 34.0081 25.681H33.993ZM35.6049 26.0955C35.6291 26.1377 35.6647 26.1727 35.707 26.1967C35.7502 26.2229 35.7996 26.2361 35.8499 26.2349C35.8988 26.2356 35.9467 26.223 35.9885 26.1987C36.0313 26.1746 36.0669 26.1396 36.0911 26.0974C36.1167 26.0553 36.13 26.0071 36.1295 25.958C36.13 25.9088 36.1172 25.8605 36.092 25.8181C36.0669 25.7757 36.0303 25.7409 35.9866 25.7173C35.9453 25.6932 35.8978 25.6807 35.8499 25.681C35.8005 25.6813 35.7521 25.6938 35.7093 25.7173C35.6661 25.7415 35.6305 25.7773 35.6068 25.8205C35.5816 25.862 35.5683 25.9095 35.5683 25.958C35.5688 26.0062 35.5812 26.0535 35.6049 26.0955ZM35.6414 25.8396C35.6571 25.8122 35.678 25.7881 35.7027 25.7688C35.7279 25.7495 35.7564 25.7354 35.7867 25.7272C35.8176 25.719 35.8494 25.717 35.8807 25.7212C35.9121 25.7254 35.942 25.7358 35.9695 25.7517C36.0061 25.7729 36.037 25.8032 36.0583 25.8396C36.0797 25.8757 36.0911 25.917 36.0911 25.9589C36.0911 26.0009 36.0797 26.0422 36.0583 26.0783C36.036 26.1138 36.0056 26.1433 35.9695 26.1643C35.9334 26.1862 35.8921 26.1975 35.8499 26.1967C35.8072 26.1973 35.7649 26.1861 35.7283 26.1643C35.6918 26.1439 35.6609 26.1142 35.6396 26.0783C35.6191 26.0416 35.6082 26.0001 35.6087 25.958C35.6082 25.9162 35.6196 25.8751 35.6414 25.8396ZM35.933 25.8205C35.9069 25.8015 35.8746 25.7927 35.8423 25.7956H35.7573V26.1203H35.8057V25.9886H35.8461L35.9249 26.1184H35.979L35.894 25.9771C35.914 25.97 35.9316 25.9574 35.9444 25.9408C35.9577 25.9225 35.9638 25.9 35.9615 25.8775C35.9596 25.8551 35.9491 25.8341 35.933 25.8186V25.8205ZM35.8057 25.8396H35.8385C35.8575 25.8383 35.8769 25.8422 35.894 25.851C35.9002 25.8555 35.905 25.8613 35.9078 25.8679C35.9107 25.8746 35.9121 25.8819 35.9116 25.8892C35.9116 25.9274 35.8864 25.9446 35.8385 25.9446H35.8057V25.8396Z" fill="white"/>
</svg>
