<svg width="40" height="40" viewBox="0 0 40 40" fill="none" xmlns="http://www.w3.org/2000/svg">
<path d="M39.896 27.4427C39.896 27.4427 39.896 31.5893 39.4533 33.3693C39.1035 34.8657 38.3467 36.2362 37.2667 37.3293C36.3387 38.2493 35.1147 39.0893 33.2667 39.5267C31.3907 39.964 27.3493 39.9427 27.3493 39.9427H12.6507C12.6507 39.9427 8.504 39.9427 6.71333 39.5053C4.92667 39.0467 3.66133 38.2293 2.74 37.3067C1.812 36.3867 0.969333 35.172 0.546666 33.3067C0.103999 31.4427 0.125333 27.4213 0.125333 27.4213V12.76C0.125333 12.76 0.125333 8.61333 0.567999 6.83333C0.918907 5.33661 1.67764 3.96637 2.76 2.87466C3.68267 1.95333 4.90667 1.12 6.76 0.677331C8.63067 0.239998 12.672 0.259998 12.672 0.259998H27.3693C27.3693 0.259998 31.516 0.259998 33.3067 0.697331C35.0933 1.16133 36.36 1.97333 37.2867 2.896C38.208 3.81733 39.052 5.036 39.4733 6.896C39.896 8.76 39.896 12.7813 39.896 12.7813V27.4427Z" fill="url(#paint0_linear)"/>
<path d="M33.6613 12.3867C34.484 23.672 26.948 29.036 20.188 29.62C13.916 30.1667 8.02133 26.4787 7.516 20.76C7.09333 16.0533 10.1253 14.0213 12.5053 13.828C14.948 13.62 16.9893 15.2347 17.1773 17.2027C17.3493 19.088 16.124 19.9627 15.2653 20.0307C14.588 20.0933 13.7507 19.6933 13.6613 18.8547C13.5987 18.1253 13.896 18.0413 13.812 17.2653C13.6827 15.88 12.4427 15.7347 11.772 15.7973C10.948 15.86 9.452 16.8027 9.64 19.1093C9.85333 21.432 12.1667 23.276 15.1973 23C18.484 22.708 20.7813 20.26 20.948 16.8027C20.948 16.6147 20.9893 16.448 21.0733 16.2813C21.1133 16.2187 21.136 16.156 21.1973 16.0947C21.2867 15.964 21.3707 15.86 21.4733 15.7547L21.7707 15.464C23.1973 14.1667 28.38 11.068 33.24 12.0307C33.2867 12.0307 33.328 12.052 33.3493 12.0733C33.536 12.0733 33.64 12.22 33.6613 12.3853" fill="white"/>
<defs>
<linearGradient id="paint0_linear" x1="38.7826" y1="1.49015" x2="0.210966" y2="39.9092" gradientUnits="userSpaceOnUse">
<stop stop-color="#11C4D1"/>
<stop offset="1" stop-color="#0062AD"/>
</linearGradient>
</defs>
</svg>
