<svg width="24" height="24" viewBox="0 0 24 24" fill="none" xmlns="http://www.w3.org/2000/svg">
<path fill-rule="evenodd" clip-rule="evenodd" d="M21.4545 8.14358L18.3011 4.99014L17.1073 6.1839L20.3535 9.43011L19.0807 10.7029L15.8345 7.45669L11.6954 11.5959C12.5675 12.5614 13.0986 13.841 13.0986 15.2446C13.0986 18.2519 10.6607 20.6897 7.65342 20.6897C4.64614 20.6897 2.20825 18.2519 2.20825 15.2446C2.20825 12.2373 4.64614 9.7994 7.65342 9.7994C8.60375 9.7994 9.49721 10.0429 10.2749 10.4708L17.0283 3.71735L17.0117 3.70077L18.2845 2.42798L22.7273 6.87079L21.4545 8.14358ZM11.2986 15.2446C11.2986 17.2577 9.6666 18.8897 7.65342 18.8897C5.64025 18.8897 4.00825 17.2577 4.00825 15.2446C4.00825 13.2314 5.64025 11.5994 7.65342 11.5994C9.6666 11.5994 11.2986 13.2314 11.2986 15.2446Z" fill="currentColor"/>
</svg>
