<svg width="24" height="24" viewBox="0 0 24 24" fill="currentColor" xmlns="http://www.w3.org/2000/svg">
<path d="M12 3C12.5523 3 13 3.44772 13 4V5.45455C13 6.00683 12.5523 6.45455 12 6.45455C11.4477 6.45455 11 6.00683 11 5.45455V4C11 3.44772 11.4477 3 12 3Z"/>
<path d="M12 15.6364C14.0083 15.6364 15.6364 14.0083 15.6364 12C15.6364 9.99169 14.0083 8.36363 12 8.36363C9.99169 8.36363 8.36363 9.99169 8.36363 12C8.36363 14.0083 9.99169 15.6364 12 15.6364Z"/>
<path d="M13 18.5455C13 17.9932 12.5523 17.5455 12 17.5455C11.4477 17.5455 11 17.9932 11 18.5455V20C11 20.5523 11.4477 21 12 21C12.5523 21 13 20.5523 13 20V18.5455Z"/>
<path d="M5.63522 5.63381C6.02575 5.24328 6.65891 5.24328 7.04944 5.63381L8.08216 6.66653C8.47269 7.05706 8.47269 7.69022 8.08216 8.08075C7.69164 8.47127 7.05848 8.47127 6.66795 8.08075L5.63522 7.04802C5.2447 6.65749 5.2447 6.02433 5.63522 5.63381Z"/>
<path d="M17.3321 15.9179C16.9416 15.5274 16.3084 15.5274 15.9179 15.9179C15.5274 16.3084 15.5274 16.9416 15.9179 17.3321L16.9506 18.3648C17.3411 18.7554 17.9743 18.7554 18.3648 18.3648C18.7554 17.9743 18.7554 17.3411 18.3648 16.9506L17.3321 15.9179Z"/>
<path d="M3 12C3 11.4477 3.44772 11 4 11H5.45455C6.00683 11 6.45455 11.4477 6.45455 12C6.45455 12.5523 6.00683 13 5.45455 13H4C3.44772 13 3 12.5523 3 12Z"/>
<path d="M18.5455 11C17.9932 11 17.5455 11.4477 17.5455 12C17.5455 12.5523 17.9932 13 18.5455 13H20C20.5523 13 21 12.5523 21 12C21 11.4477 20.5523 11 20 11H18.5455Z"/>
<path d="M8.08216 15.9179C8.47269 16.3084 8.47269 16.9416 8.08216 17.3321L7.04944 18.3648C6.65891 18.7554 6.02575 18.7554 5.63522 18.3648C5.2447 17.9743 5.2447 17.3411 5.63522 16.9506L6.66795 15.9179C7.05848 15.5274 7.69164 15.5274 8.08216 15.9179Z"/>
<path d="M18.3648 7.04802C18.7554 6.65749 18.7554 6.02433 18.3648 5.63381C17.9743 5.24328 17.3411 5.24328 16.9506 5.63381L15.9179 6.66653C15.5274 7.05706 15.5274 7.69022 15.9179 8.08075C16.3084 8.47127 16.9416 8.47127 17.3321 8.08075L18.3648 7.04802Z"/>
</svg>
