<svg width="24" height="24" viewBox="0 0 24 24" fill="currentColor" xmlns="http://www.w3.org/2000/svg">
<path d="M8.53685 6.63162C8.51645 5.70543 7.85413 5 6.77863 5C5.70313 5 5 5.70543 5 6.63162C5 7.53861 5.68234 8.26436 6.73782 8.26436H6.75791C7.85413 8.26436 8.53685 7.53861 8.53685 6.63162Z"/>
<path d="M8.33138 9.55371H5.1875V18.9998H8.33138V9.55371Z"/>
<path d="M16.0503 9.33203C18.1191 9.33203 19.6701 10.6824 19.6701 13.5838L19.67 18.9999H16.5262V13.9463C16.5262 12.6769 16.0713 11.8107 14.9332 11.8107C14.0646 11.8107 13.5473 12.3946 13.3201 12.9586C13.2369 13.1608 13.2165 13.4424 13.2165 13.7247V19.0002H10.0723C10.0723 19.0002 10.1137 10.4405 10.0723 9.55409H13.2165V10.8921C13.6338 10.2489 14.3811 9.33203 16.0503 9.33203Z"/>
</svg>
