<svg xmlns="http://www.w3.org/2000/svg" width="80" height="80" fill="none" viewBox="0 0 80 80">
  <path fill="#4BA4B1" d="M44.161 49.376a9.48 9.48 0 0 1-3.597.717c-5.352 0-9.692-4.45-9.692-9.94 0-.405.033-.805.076-1.2l-9.762-1.627a20.69 20.69 0 0 0-.179 2.672c0 11.045 8.733 20 19.503 20 3.776 0 7.297-1.105 10.282-3.01l-6.63-7.612Zm5.52-12.611-12.969 2.933 22.78 4.856c.331-1.461.515-2.989.515-4.556 0-11.044-8.733-20-19.502-20-4.323 0-8.31 1.445-11.545 3.884l6.74 7.677a9.434 9.434 0 0 1 4.864-1.35c4.193 0 7.769 2.734 9.118 6.556Z"/>
  <g filter="url(#a)" opacity=".6">
    <path fill="#4BA4B1" d="M50.161 45.376a9.48 9.48 0 0 1-3.597.717c-5.352 0-9.691-4.45-9.691-9.94 0-.405.032-.805.075-1.2l-9.762-1.627a20.69 20.69 0 0 0-.179 2.672c0 11.045 8.733 20 19.503 20 3.776 0 7.297-1.105 10.282-3.01l-6.63-7.612Zm5.52-12.611-12.969 2.933 22.78 4.856c.331-1.461.515-2.989.515-4.556 0-11.044-8.733-20-19.502-20-4.323 0-8.31 1.445-11.545 3.884l6.74 7.677a9.434 9.434 0 0 1 4.864-1.35c4.193 0 7.769 2.734 9.118 6.556Z"/>
  </g>
  <defs>
    <filter id="a" width="63" height="64" x="15.007" y="3.998" color-interpolation-filters="sRGB" filterUnits="userSpaceOnUse">
      <feFlood flood-opacity="0" result="BackgroundImageFix"/>
      <feBlend in="SourceGraphic" in2="BackgroundImageFix" result="shape"/>
      <feGaussianBlur result="effect1_foregroundBlur_52_23784" stdDeviation="6"/>
    </filter>
  </defs>
</svg>
