<svg width="25" height="24" viewBox="0 0 25 24" fill="none" xmlns="http://www.w3.org/2000/svg">
<path d="M4.45459 12.8903H11.0774C11.3536 12.8903 11.5774 13.1142 11.5774 13.3903V20.0132H8.45459C6.24545 20.0132 4.45459 18.2223 4.45459 16.0132V12.8903Z" fill="currentColor"/>
<path fill-rule="evenodd" clip-rule="evenodd" d="M9.77744 14.6903H6.25459V16.0132C6.25459 17.2282 7.23956 18.2132 8.45459 18.2132H9.77744V14.6903ZM4.45459 12.8903V16.0132C4.45459 18.2223 6.24545 20.0132 8.45459 20.0132H11.5774V13.3903C11.5774 13.1142 11.3536 12.8903 11.0774 12.8903H4.45459Z" fill="currentColor"/>
<path d="M4.45459 7.98682C4.45459 5.77768 6.24545 3.98682 8.45459 3.98682H11.5774V10.6097C11.5774 10.8858 11.3536 11.1097 11.0774 11.1097H4.45459V7.98682Z" fill="currentColor"/>
<path fill-rule="evenodd" clip-rule="evenodd" d="M9.77744 5.78682H8.45459C7.23956 5.78682 6.25459 6.77179 6.25459 7.98682V9.30967H9.77744V5.78682ZM8.45459 3.98682C6.24545 3.98682 4.45459 5.77768 4.45459 7.98682V11.1097H11.0774C11.3536 11.1097 11.5774 10.8858 11.5774 10.6097V3.98682H8.45459Z" fill="currentColor"/>
<path d="M13.3582 13.3903C13.3582 13.1142 13.582 12.8903 13.8582 12.8903H20.481V16.0132C20.481 18.2223 18.6901 20.0132 16.481 20.0132H13.3582V13.3903Z" fill="currentColor"/>
<path fill-rule="evenodd" clip-rule="evenodd" d="M15.1582 14.6903V18.2132H16.481C17.696 18.2132 18.681 17.2282 18.681 16.0132V14.6903H15.1582ZM13.8582 12.8903C13.582 12.8903 13.3582 13.1142 13.3582 13.3903V20.0132H16.481C18.6901 20.0132 20.481 18.2223 20.481 16.0132V12.8903H13.8582Z" fill="currentColor"/>
<path d="M13.3582 3.98682H16.481C18.6901 3.98682 20.481 5.77768 20.481 7.98682V11.1097H13.8582C13.582 11.1097 13.3582 10.8858 13.3582 10.6097V3.98682Z" fill="currentColor"/>
<path fill-rule="evenodd" clip-rule="evenodd" d="M16.481 5.78682H15.1582V9.30967H18.681V7.98682C18.681 6.77179 17.696 5.78682 16.481 5.78682ZM13.3582 3.98682V10.6097C13.3582 10.8858 13.582 11.1097 13.8582 11.1097H20.481V7.98682C20.481 5.77768 18.6901 3.98682 16.481 3.98682H13.3582Z" fill="currentColor"/>
</svg>
