<svg width="25" height="24" viewBox="0 0 25 24" fill="none" xmlns="http://www.w3.org/2000/svg">
<path fill-rule="evenodd" clip-rule="evenodd" d="M19.5596 12C19.5596 15.7715 16.5022 18.8289 12.7307 18.8289C8.95921 18.8289 5.90181 15.7715 5.90181 12C5.90181 8.2285 8.95921 5.17109 12.7307 5.17109C16.5022 5.17109 19.5596 8.2285 19.5596 12ZM21.3596 12C21.3596 16.7656 17.4963 20.6289 12.7307 20.6289C7.9651 20.6289 4.10181 16.7656 4.10181 12C4.10181 7.23439 7.9651 3.37109 12.7307 3.37109C17.4963 3.37109 21.3596 7.23439 21.3596 12ZM12.5717 14.9159L16.9449 10.5426L15.6722 9.26984L11.7939 13.1481L9.78918 11.1433L8.51636 12.416L11.016 14.9159C11.4456 15.3454 12.1421 15.3455 12.5717 14.9159Z" fill="currentColor"/>
</svg>
