<svg width="25" height="24" viewBox="0 0 25 24" fill="none" xmlns="http://www.w3.org/2000/svg">
<path fill-rule="evenodd" clip-rule="evenodd" d="M12.4116 23C18.4868 23 23.4116 18.0751 23.4116 12C23.4116 5.92487 18.4868 1 12.4116 1C6.33649 1 1.41162 5.92487 1.41162 12C1.41162 18.0751 6.33649 23 12.4116 23ZM11.3533 13.7722C11.291 14.1292 11.2598 14.5117 11.2598 14.9197H13.1468C13.1468 14.574 13.1582 14.2992 13.1808 14.0952C13.2035 13.8855 13.2913 13.6504 13.4443 13.3897C13.552 13.2084 13.688 13.0412 13.8523 12.8882C14.0167 12.7352 14.1952 12.5794 14.3878 12.4207C14.5805 12.2564 14.7703 12.075 14.9573 11.8767C15.3143 11.497 15.6062 11.0777 15.8328 10.6187C16.0652 10.1597 16.1813 9.66105 16.1813 9.12271C16.1813 8.72038 16.1133 8.33221 15.9773 7.95821C15.847 7.57855 15.6515 7.24138 15.3908 6.94671C15.0338 6.52738 14.5862 6.22421 14.0478 6.03721C13.5152 5.85021 12.9485 5.75671 12.3478 5.75671C11.9285 5.75671 11.5092 5.82188 11.0898 5.95221C10.6705 6.07688 10.2965 6.26955 9.96785 6.53021C9.58251 6.81921 9.27651 7.19605 9.04985 7.66071C8.82318 8.12538 8.68718 8.62405 8.64185 9.15671H10.5118C10.5062 8.90171 10.543 8.66655 10.6223 8.45121C10.7073 8.23021 10.8377 8.04605 11.0133 7.89872C11.1777 7.74571 11.3817 7.63238 11.6253 7.55871C11.8747 7.48505 12.1353 7.44821 12.4073 7.44821C12.7077 7.44821 12.9967 7.49638 13.2743 7.59271C13.552 7.68338 13.7815 7.84205 13.9628 8.06871C14.0818 8.20471 14.1668 8.36621 14.2178 8.55321C14.2688 8.74021 14.2943 8.94138 14.2943 9.15671C14.2943 9.45138 14.2547 9.72621 14.1753 9.98121C14.1017 10.2362 13.9515 10.4884 13.7248 10.7377C13.4528 11.0267 13.1922 11.2647 12.9428 11.4517C12.6992 11.633 12.4725 11.82 12.2628 12.0127C12.0588 12.1997 11.8803 12.4462 11.7273 12.7522C11.546 13.0752 11.4213 13.4152 11.3533 13.7722ZM11.2683 16.1862V18.2432H13.1468V16.1862H11.2683Z" fill="currentColor"/>
</svg>
