<svg width="25" height="24" viewBox="0 0 25 24" fill="none" xmlns="http://www.w3.org/2000/svg">
<path fill-rule="evenodd" clip-rule="evenodd" d="M12.4116 21.2C17.4926 21.2 21.6116 17.081 21.6116 12C21.6116 6.91898 17.4926 2.8 12.4116 2.8C7.3306 2.8 3.21162 6.91898 3.21162 12C3.21162 17.081 7.3306 21.2 12.4116 21.2ZM12.4116 23C18.4868 23 23.4116 18.0751 23.4116 12C23.4116 5.92487 18.4868 1 12.4116 1C6.33649 1 1.41162 5.92487 1.41162 12C1.41162 18.0751 6.33649 23 12.4116 23Z" fill="currentColor"/>
<path d="M11.2598 14.9197C11.2598 14.5117 11.291 14.1292 11.3533 13.7722C11.4213 13.4152 11.546 13.0752 11.7273 12.7522C11.8803 12.4462 12.0588 12.1997 12.2628 12.0127C12.4725 11.82 12.6992 11.633 12.9428 11.4517C13.1922 11.2647 13.4528 11.0267 13.7248 10.7377C13.9515 10.4884 14.1017 10.2362 14.1753 9.98121C14.2547 9.72621 14.2943 9.45138 14.2943 9.15671C14.2943 8.94138 14.2688 8.74021 14.2178 8.55321C14.1668 8.36621 14.0818 8.20471 13.9628 8.06871C13.7815 7.84205 13.552 7.68338 13.2743 7.59271C12.9967 7.49638 12.7077 7.44821 12.4073 7.44821C12.1353 7.44821 11.8747 7.48505 11.6253 7.55871C11.3817 7.63238 11.1777 7.74571 11.0133 7.89872C10.8377 8.04605 10.7073 8.23021 10.6223 8.45121C10.543 8.66655 10.5062 8.90171 10.5118 9.15671H8.64185C8.68718 8.62405 8.82318 8.12538 9.04985 7.66071C9.27651 7.19605 9.58251 6.81921 9.96785 6.53021C10.2965 6.26955 10.6705 6.07688 11.0898 5.95221C11.5092 5.82188 11.9285 5.75671 12.3478 5.75671C12.9485 5.75671 13.5152 5.85021 14.0478 6.03721C14.5862 6.22421 15.0338 6.52738 15.3908 6.94671C15.6515 7.24138 15.847 7.57855 15.9773 7.95821C16.1133 8.33221 16.1813 8.72038 16.1813 9.12271C16.1813 9.66105 16.0652 10.1597 15.8328 10.6187C15.6062 11.0777 15.3143 11.497 14.9573 11.8767C14.7703 12.075 14.5805 12.2564 14.3878 12.4207C14.1952 12.5794 14.0167 12.7352 13.8523 12.8882C13.688 13.0412 13.552 13.2084 13.4443 13.3897C13.2913 13.6504 13.2035 13.8855 13.1808 14.0952C13.1582 14.2992 13.1468 14.574 13.1468 14.9197H11.2598ZM11.2683 18.2432V16.1862H13.1468V18.2432H11.2683Z" fill="currentColor"/>
</svg>
