<svg width="20" height="20" viewBox="0 0 20 20" fill="currentColor" xmlns="http://www.w3.org/2000/svg">
<path d="M10.0001 1.5C12.2179 1.5 14.3382 2.32463 15.9864 3.76562L16.3096 4.0625L16.3243 4.07617L16.5001 4.25195V2.5C16.5001 1.94772 16.9478 1.5 17.5001 1.5C18.0523 1.5 18.5001 1.94772 18.5001 2.5V6.66699C18.4999 7.21913 18.0522 7.66699 17.5001 7.66699H13.3331C12.781 7.66681 12.3332 7.21902 12.3331 6.66699C12.3331 6.11482 12.7809 5.66717 13.3331 5.66699H15.086L14.9092 5.49023H14.9083C13.5825 4.22305 11.8273 3.5 10.0001 3.5C8.71448 3.5 7.45764 3.88147 6.38872 4.5957C5.3199 5.30993 4.48711 6.32505 3.99517 7.5127C3.5032 8.70042 3.37425 10.0077 3.62505 11.2686C3.87592 12.5292 4.49542 13.6878 5.40435 14.5967C6.3132 15.5053 7.47103 16.1242 8.7315 16.375C9.99237 16.6258 11.2996 16.4969 12.4874 16.0049C13.675 15.5129 14.6901 14.6801 15.4043 13.6113C16.1186 12.5424 16.5001 11.2856 16.5001 10C16.5001 9.44772 16.9478 9 17.5001 9C18.0523 9 18.5001 9.44772 18.5001 10C18.5001 11.6811 18.0014 13.3248 17.0674 14.7227C16.1335 16.1203 14.8059 17.2092 13.253 17.8525C11.6998 18.4959 9.99066 18.6649 8.34185 18.3369C6.69301 18.0089 5.17806 17.1995 3.98931 16.0107C2.80056 14.822 1.99111 13.307 1.66314 11.6582C1.33519 10.0094 1.50418 8.30021 2.14751 6.74707C2.79083 5.19411 3.87978 3.86655 5.2774 2.93262C6.67521 1.99863 8.31891 1.5 10.0001 1.5Z"/>
</svg>
