<svg width="24" height="24" viewBox="0 0 24 24" fill="none" xmlns="http://www.w3.org/2000/svg">
<path fill-rule="evenodd" clip-rule="evenodd" d="M15.8823 16.8118C14.3048 18.1753 12.2487 19 10 19C5.02944 19 1 14.9706 1 10C1 5.02944 5.02944 1 10 1C14.9706 1 19 5.02944 19 10C19 12.0511 18.3139 13.9419 17.1586 15.4555L23 21.2969L21.6837 22.6132L15.8823 16.8118Z" fill="currentColor"/>
<path d="M16.1 10C16.1 11.707 15.4 13.249 14.2691 14.3572C13.1679 15.4362 11.6624 16.1 10 16.1C8.33761 16.1 6.83206 15.4362 5.73093 14.3572C4.60001 13.249 3.9 11.707 3.9 10C3.9 8.29296 4.60001 6.75103 5.73093 5.64282C6.83206 4.5638 8.33761 3.9 10 3.9C11.494 3.9 12.8604 4.43591 13.9211 5.32699C15.2547 6.44737 16.1 8.12454 16.1 10Z" stroke="white" stroke-width="1.8"/>
</svg>
