<svg width="24" height="24" viewBox="0 0 24 24" fill="none" xmlns="http://www.w3.org/2000/svg">
<path fill-rule="evenodd" clip-rule="evenodd" d="M17.2 9.63684C17.2 13.6133 13.9764 16.8368 10 16.8368C6.02355 16.8368 2.8 13.6133 2.8 9.63684C2.8 5.66039 6.02355 2.43684 10 2.43684C13.9764 2.43684 17.2 5.66039 17.2 9.63684ZM15.6849 16.6144C14.1351 17.8787 12.1561 18.6368 10 18.6368C5.02944 18.6368 1 14.6074 1 9.63684C1 4.66628 5.02944 0.636841 10 0.636841C14.9706 0.636841 19 4.66628 19 9.63684C19 11.7808 18.2503 13.7497 16.9988 15.2957L23 21.2969L21.6837 22.6132L15.6849 16.6144Z" fill="currentColor"/>
</svg>
