<svg width="24" height="24" viewBox="0 0 24 24" fill="none" xmlns="http://www.w3.org/2000/svg">
<g clip-path="url(#clip0_2494_231)">
<path d="M20.4228 11.9907C20.4228 10.8153 21.0574 9.79851 21.9907 9.22948C21.7573 8.39925 21.4307 7.60634 21.0201 6.8694C19.9561 7.1306 18.7895 6.8694 17.9589 6.02985C17.1283 5.1903 16.8577 4.03358 17.119 2.97015C16.3817 2.55037 15.5884 2.22388 14.7578 2C14.1885 2.93284 13.1713 3.56716 11.9953 3.56716C10.8194 3.56716 9.80215 2.93284 9.23285 2C8.40224 2.23321 7.60896 2.5597 6.87168 2.97948C7.13299 4.04291 6.87168 5.20896 6.03173 6.03918C5.19179 6.8694 4.03453 7.13993 2.9706 6.87873C2.55063 7.61567 2.22399 8.40858 2 9.23881C2.93327 9.80784 3.5679 10.8246 3.5679 12C3.5679 13.1754 2.93327 14.1922 2 14.7612C2.23332 15.5914 2.55996 16.3843 2.97993 17.1213C4.04386 16.8601 5.21045 17.1306 6.04106 17.9608C6.87168 18.791 7.14232 19.9571 6.88101 21.0205C7.61829 21.4403 8.41157 21.7668 9.24218 22C9.81148 21.0672 10.8287 20.4328 12.0047 20.4328C13.1806 20.4328 14.1979 21.0672 14.7578 22C15.5884 21.7668 16.3817 21.4403 17.119 21.0299C16.8577 19.9664 17.1283 18.8004 17.9589 17.9701C18.7895 17.1399 19.9561 16.8694 21.0201 17.1306C21.44 16.3937 21.7667 15.6007 22 14.7705C21.0667 14.2015 20.4321 13.1847 20.4321 12.0093L20.4228 11.9907ZM11.986 16.1418C9.69949 16.1418 7.83294 14.2854 7.83294 11.9907C7.83294 9.6959 9.69949 7.83955 11.986 7.83955C14.2725 7.83955 16.1391 9.6959 16.1391 11.9907C16.1391 14.2854 14.2818 16.1418 11.986 16.1418Z" fill="currentColor" stroke="currentColor" stroke-width="1.8" stroke-miterlimit="10"/>
</g>
<defs>
<clipPath id="clip0_2494_231">
<rect width="24" height="24" fill="white"/>
</clipPath>
</defs>
</svg>
