<svg xmlns="http://www.w3.org/2000/svg" width="80" height="80" fill="none" viewBox="0 0 80 80">
  <g filter="url(#a)" opacity=".4">
    <path fill="#7E38D7" fill-rule="evenodd" d="m31.99 42.143.64 4.5-3.208.643-2.567-.643-3.851-6.429 1.284-11.571 4.492-5.786 5.776-.643L40.332 19l7.702 3.857-1.926 1.928c5.562.858 9.2 1.5 10.91 1.93 2.568.642 7.06 3.857 7.702 4.5.642.642.336 3.597 0 5.785-.224 1.459-.652 2.53-1.283 3.214L66.004 55h-5.776l1.284-1.285-5.135-10.93-14.12 1.93L37.124 55h-5.776l1.925-3.214 3.851-13.5-2.567-2.572L28.78 37l-.642 5.143 1.925 1.929 1.926-1.93Zm9.027 7.592 1.918-3.948 2.557-.658L47.409 55h-6.392l1.279-.658-1.279-4.607Zm12.32-4.47 1.917-1.297 3.196 5.516L57.81 55h-5.752l1.278-1.947v-7.787Z" clip-rule="evenodd"/>
  </g>
  <path fill="#020003" fill-rule="evenodd" d="m26.407 45.428.671 4.75-3.357.679-2.687-.678-4.03-6.786 1.343-12.215 4.701-6.106 6.045-.679L35.138 21l8.06 4.072-2.015 2.035c5.82.905 9.627 1.584 11.418 2.036 2.686.678 7.388 4.072 8.06 4.75.672.678.351 3.798 0 6.107-.235 1.54-.683 2.67-1.344 3.393L62.004 59h-6.045l1.344-1.357-5.374-11.536-14.776 2.036L31.781 59h-6.045l2.015-3.393 4.03-14.25-2.687-2.714L23.048 40l-.671 5.428 2.014 2.037 2.016-2.037Zm9.448 8.015 2.007-4.168 2.676-.694L42.544 59h-6.689l1.338-.694-1.338-4.863Zm12.892-4.718 2.007-1.37 3.345 5.823-.67 5.822h-6.02l1.338-2.055v-8.22Z" clip-rule="evenodd"/>
  <defs>
    <filter id="a" width="69" height="62" x="10.004" y="6" color-interpolation-filters="sRGB" filterUnits="userSpaceOnUse">
      <feFlood flood-opacity="0" result="BackgroundImageFix"/>
      <feBlend in="SourceGraphic" in2="BackgroundImageFix" result="shape"/>
      <feGaussianBlur result="effect1_foregroundBlur_52_25165" stdDeviation="6.5"/>
    </filter>
  </defs>
</svg>
