<svg xmlns="http://www.w3.org/2000/svg" width="81" height="80" fill="none" viewBox="0 0 81 80">
  <g filter="url(#a)">
    <path fill="#124DFC" fill-opacity=".32" fill-rule="evenodd" d="M35.4 22C26.895 22 20 28.895 20 37.4v11.2C20 57.105 26.895 64 35.4 64h11.2C55.105 64 62 57.105 62 48.6V37.4C62 28.895 55.105 22 46.6 22H35.4Zm11.15 6.655a9.298 9.298 0 0 1 7.684 8.46c.058 1.02-.74 2.124-2.088 1.109-1.817-1.37-4.494-2.318-7.168-2.318-1.384 0-2.08-.853-2.08-2.008V31.14h-5.712a4.911 4.911 0 0 0-.078.002 6.675 6.675 0 0 0-6.517 6.872l.001.03a6.646 6.646 0 0 0 2.388 4.888 6.645 6.645 0 0 0 4.128 1.555h.884a1.312 1.312 0 0 1 0 2.625h-.884a1.3 1.3 0 0 1-.108-.005 9.27 9.27 0 0 1-2.717-.486 9.25 9.25 0 0 1-2.194-1.09l-.098-.065a5.522 5.522 0 0 1-.235-.161 9.282 9.282 0 0 1-3.783-7.813 1.298 1.298 0 0 1 .006-.313l.007-.03a1.87 1.87 0 0 0 .008-.034 9.298 9.298 0 0 1 9.193-8.596h.033a1.038 1.038 0 0 1 .087 0h.395a1.044 1.044 0 0 1 .12 0h6.616a1.059 1.059 0 0 1 .12 0h.33a.965.965 0 0 0 .076-.002l.044.001.032.001a9.27 9.27 0 0 1 1.51.136Zm-10.897 28.69a9.299 9.299 0 0 1-7.685-8.46c-.058-1.02.74-2.124 2.088-1.108 1.817 1.368 4.494 2.317 7.168 2.317 1.384 0 2.081.853 2.081 2.008v2.758h5.71l.048-.002h.03a6.675 6.675 0 0 0 6.518-6.873l-.001-.029a6.645 6.645 0 0 0-2.388-4.888 6.645 6.645 0 0 0-4.128-1.555h-.884a1.312 1.312 0 0 1 0-2.625h.884a1.3 1.3 0 0 1 .108.005c.948.027 1.86.196 2.717.486a9.253 9.253 0 0 1 2.292 1.155c.08.053.159.105.235.161a9.282 9.282 0 0 1 3.783 7.813 1.354 1.354 0 0 1-.005.314l-.008.03-.001.006a.863.863 0 0 0-.007.028 9.299 9.299 0 0 1-9.345 8.595H44.5l-.016.001a.865.865 0 0 1-.072 0l-.02-.001h-6.596a.875.875 0 0 0-.076.002 1.048 1.048 0 0 1-.076-.002h-.33a.892.892 0 0 0-.076.002 1.039 1.039 0 0 1-.076-.002 9.256 9.256 0 0 1-1.509-.136Z" clip-rule="evenodd"/>
  </g>
  <path fill="#124DFC" fill-rule="evenodd" d="M34.4 19C25.895 19 19 25.895 19 34.4v11.2C19 54.105 25.895 61 34.4 61h11.2C54.105 61 61 54.105 61 45.6V34.4C61 25.895 54.105 19 45.6 19H34.4Zm11.15 6.655a9.298 9.298 0 0 1 7.684 8.46c.058 1.02-.74 2.124-2.088 1.109-1.817-1.37-4.494-2.318-7.168-2.318-1.384 0-2.08-.853-2.08-2.008V28.14h-5.712a4.911 4.911 0 0 0-.078.002 6.675 6.675 0 0 0-6.517 6.872l.001.03a6.646 6.646 0 0 0 2.388 4.888 6.645 6.645 0 0 0 4.128 1.555h.884a1.312 1.312 0 0 1 0 2.625h-.884a1.3 1.3 0 0 1-.108-.005 9.27 9.27 0 0 1-2.717-.486 9.25 9.25 0 0 1-2.292-1.155 5.522 5.522 0 0 1-.235-.161 9.282 9.282 0 0 1-3.783-7.813 1.298 1.298 0 0 1 .006-.313l.007-.03a1.87 1.87 0 0 0 .008-.034 9.298 9.298 0 0 1 9.193-8.596h.033a1.038 1.038 0 0 1 .087 0h.395a1.044 1.044 0 0 1 .12 0h6.616a1.059 1.059 0 0 1 .12 0h.33a.965.965 0 0 0 .076-.002l.044.001.032.001a9.27 9.27 0 0 1 1.51.136Zm-10.897 28.69a9.299 9.299 0 0 1-7.685-8.46c-.058-1.02.74-2.124 2.088-1.108 1.817 1.368 4.494 2.317 7.168 2.317 1.384 0 2.081.853 2.081 2.008v2.758h5.71l.048-.002h.03a6.675 6.675 0 0 0 6.518-6.873l-.001-.029a6.645 6.645 0 0 0-2.388-4.888 6.645 6.645 0 0 0-4.128-1.555h-.884a1.312 1.312 0 0 1 0-2.625h.884a1.3 1.3 0 0 1 .108.005c.948.027 1.86.196 2.717.486a9.253 9.253 0 0 1 2.292 1.155c.08.053.159.105.235.161a9.282 9.282 0 0 1 3.783 7.813 1.354 1.354 0 0 1-.005.314l-.008.03-.001.006a.863.863 0 0 0-.007.028 9.299 9.299 0 0 1-9.345 8.595H43.5l-.016.001a.865.865 0 0 1-.072 0l-.02-.001h-6.596a.875.875 0 0 0-.076.002 1.048 1.048 0 0 1-.076-.002h-.33a.892.892 0 0 0-.076.002 1.039 1.039 0 0 1-.076-.002 9.256 9.256 0 0 1-1.509-.136Z" clip-rule="evenodd"/>
  <defs>
    <filter id="a" width="62" height="62" x="10" y="12" color-interpolation-filters="sRGB" filterUnits="userSpaceOnUse">
      <feFlood flood-opacity="0" result="BackgroundImageFix"/>
      <feBlend in="SourceGraphic" in2="BackgroundImageFix" result="shape"/>
      <feGaussianBlur result="effect1_foregroundBlur_266_3916" stdDeviation="5"/>
    </filter>
  </defs>
</svg>
