<svg width="25" height="24" viewBox="0 0 25 24" fill="none" xmlns="http://www.w3.org/2000/svg">
<path d="M6.65039 9.60419H9.84961V6.40497H6.65039V9.60419ZM11.25 10.6042L11.2422 10.6852C11.2102 10.8415 11.0869 10.9648 10.9307 10.9968L10.8496 11.0046H5.65039L5.56934 10.9968C5.41309 10.9648 5.28978 10.8415 5.25781 10.6852L5.25 10.6042V5.40497C5.25 5.21166 5.38706 5.04968 5.56934 5.01239L5.65039 5.00458H10.8496L10.9307 5.01239C11.1129 5.04968 11.25 5.21166 11.25 5.40497V10.6042Z" fill="currentColor"/>
<path d="M6.65039 17.6042H9.84961V14.405H6.65039V17.6042ZM11.25 18.6042L11.2422 18.6852C11.2102 18.8415 11.0869 18.9648 10.9307 18.9968L10.8496 19.0046H5.65039L5.56934 18.9968C5.41309 18.9648 5.28978 18.8415 5.25781 18.6852L5.25 18.6042V13.405C5.25 13.2117 5.38706 13.0497 5.56934 13.0124L5.65039 13.0046H10.8496L10.9307 13.0124C11.1129 13.0497 11.25 13.2117 11.25 13.405V18.6042Z" fill="currentColor"/>
<path d="M14.6504 9.60419H17.8496V6.40497H14.6504V9.60419ZM19.25 10.6042L19.2422 10.6852C19.2102 10.8415 19.0869 10.9648 18.9307 10.9968L18.8496 11.0046H13.6504L13.5693 10.9968C13.4131 10.9648 13.2898 10.8415 13.2578 10.6852L13.25 10.6042V5.40497C13.25 5.21166 13.3871 5.04968 13.5693 5.01239L13.6504 5.00458H18.8496L18.9307 5.01239C19.1129 5.04968 19.25 5.21166 19.25 5.40497V10.6042Z" fill="currentColor"/>
<path d="M14.6504 17.6042H17.8496V14.405H14.6504V17.6042ZM19.25 18.6042L19.2422 18.6852C19.2102 18.8415 19.0869 18.9648 18.9307 18.9968L18.8496 19.0046H13.6504L13.5693 18.9968C13.4131 18.9648 13.2898 18.8415 13.2578 18.6852L13.25 18.6042V13.405C13.25 13.2117 13.3871 13.0497 13.5693 13.0124L13.6504 13.0046H18.8496L18.9307 13.0124C19.1129 13.0497 19.25 13.2117 19.25 13.405V18.6042Z" fill="currentColor"/>
</svg>
