<svg width="40" height="40" viewBox="0 0 40 40" fill="none" xmlns="http://www.w3.org/2000/svg">
<g clip-path="url(#clip0)">
<path d="M18.7706 19.0107C19.6102 20.4953 17.7326 20.9555 16.8515 21.0402C15.5163 21.1705 15.2399 20.3976 15.5007 19.4265C15.5862 19.0788 15.7763 18.7659 16.0448 18.5305C16.3133 18.2949 16.6476 18.1481 17.0021 18.1099C17.3513 18.0777 17.7026 18.1452 18.0154 18.3045C18.3282 18.4638 18.5899 18.7086 18.7706 19.0107Z" fill="#FF007A"/>
<path d="M24.0107 16.2681C23.0349 23.7659 36.19 22.2055 35.9396 28.173C37.2372 26.4785 37.7952 21.8744 33.9749 19.5046C30.5713 17.3916 26.1362 18.5479 24.0107 16.2681Z" fill="#FF007A"/>
<path d="M31.5896 13.4371C31.5039 13.3576 31.4158 13.2794 31.3301 13.2012C31.417 13.2807 31.5039 13.3641 31.5896 13.4371Z" fill="#FF007A"/>
<path d="M34.6475 18.905L34.6398 18.8932C34.521 18.6716 34.3856 18.4594 34.2349 18.2583C33.7913 17.6548 33.1551 17.2223 32.4325 17.0331C31.9515 16.9084 31.4595 16.8307 30.9636 16.8011C30.4614 16.7646 29.9489 16.7437 29.4311 16.7164C28.3931 16.6589 27.3304 16.5521 26.2922 16.2549C26.0327 16.1806 25.7732 16.0997 25.5228 16.002C25.393 15.9551 25.2723 15.9043 25.1438 15.8495C25.0154 15.7947 24.8843 15.7321 24.7546 15.6657C24.2664 15.3972 23.8144 15.0673 23.4089 14.6842C22.6096 13.9373 21.9816 13.0899 21.3522 12.2687C20.759 11.4444 20.1223 10.6524 19.4449 9.89633C18.7765 9.15562 17.9864 8.5357 17.1091 8.06358C16.2008 7.60399 15.2142 7.32095 14.2012 7.22934C15.252 7.11471 16.315 7.24496 17.3076 7.60997C18.3093 8.00058 19.2249 8.58471 20.0028 9.3293C20.5107 9.80775 20.9874 10.3185 21.4302 10.8583C24.7261 10.2066 27.3991 10.7853 29.4532 11.909L29.4999 11.9324C30.1537 12.2886 30.7664 12.7162 31.3269 13.2073C31.4165 13.2855 31.5047 13.3637 31.5865 13.4432C32.024 13.847 32.4312 14.2826 32.8049 14.7467L32.8335 14.7845C34.0467 16.3279 34.6461 17.9325 34.6475 18.905Z" fill="#FF007A"/>
<path d="M34.6464 18.9047L34.6387 18.8892L34.6464 18.9047Z" fill="#FF007A"/>
<path d="M14.3679 8.19238C15.2088 8.31492 16.0664 8.65123 16.6192 9.29256C17.1721 9.93389 17.3757 10.7681 17.5354 11.562C17.6651 12.1772 17.7677 12.8042 18.0089 13.3869C18.1257 13.6711 18.297 13.9201 18.4398 14.1886C18.5579 14.4115 18.7732 14.6122 18.8563 14.8508C18.8711 14.885 18.8766 14.9226 18.8723 14.9597C18.8681 14.9968 18.8539 15.0321 18.8317 15.0619C18.5384 15.3878 17.7469 15.0255 17.4483 14.8794C16.9325 14.6225 16.4703 14.2685 16.0872 13.8366C14.8896 12.5005 14.2706 10.5778 14.3083 8.82719C14.3166 8.61466 14.3365 8.40273 14.3679 8.19238Z" fill="#FF007A"/>
<path d="M28.4307 23.2622C26.6142 28.355 34.8538 31.7717 31.7669 36.9492C34.9343 35.6352 36.4383 31.6661 35.1238 28.5167C33.9741 25.752 30.5743 24.7444 28.4307 23.2622Z" fill="#FF007A"/>
<path d="M17.5332 29.9204C18.0283 29.5455 18.5695 29.2367 19.1435 29.0014C19.7243 28.7679 20.3268 28.5932 20.9421 28.48C22.163 28.2466 23.3711 28.1893 24.3858 27.7788C24.8872 27.5821 25.3485 27.2949 25.747 26.9314C26.1328 26.5714 26.428 26.1247 26.6086 25.628C26.7937 25.1038 26.8687 24.5468 26.8293 23.9921C26.7835 23.3962 26.6492 22.8104 26.4309 22.2544C26.8833 22.7269 27.2125 23.3043 27.3897 23.9353C27.567 24.5662 27.5865 25.2313 27.4469 25.8717C27.2881 26.5495 26.9454 27.1701 26.4568 27.6641C25.9732 28.1427 25.39 28.5077 24.7492 28.7329C24.1377 28.9484 23.5 29.0799 22.8534 29.1239C22.2306 29.1761 21.6285 29.1905 21.0368 29.2256C19.8404 29.276 18.6589 29.5104 17.5332 29.9204Z" fill="#FF007A"/>
<path d="M29.1559 38.8736C28.9731 39.0196 28.7901 39.1748 28.589 39.3103C28.3866 39.4443 28.1744 39.5628 27.9544 39.6649C27.4963 39.8894 26.9927 40.004 26.483 39.9999C25.1023 39.9739 24.1265 38.9414 23.5555 37.7747C23.1663 36.9797 22.8977 36.1205 22.4358 35.3633C21.7752 34.28 20.6451 33.408 19.3214 33.5695C18.7818 33.6374 18.2756 33.8811 17.9759 34.3517C17.1869 35.581 18.3197 37.3029 19.7639 37.0591C19.8869 37.0403 20.007 37.0071 20.1222 36.96C20.2368 36.911 20.3439 36.8455 20.44 36.7658C20.6418 36.5971 20.7939 36.3762 20.8798 36.1272C20.9748 35.8674 20.9958 35.5861 20.9409 35.315C20.8816 35.0316 20.7151 34.7825 20.4764 34.6202C20.7539 34.7508 20.9702 34.9844 21.0797 35.272C21.1934 35.5678 21.2226 35.8898 21.1641 36.2014C21.1074 36.5261 20.9648 36.8296 20.7514 37.08C20.638 37.2087 20.507 37.3207 20.3622 37.4123C20.2186 37.503 20.0649 37.5761 19.9042 37.6301C19.5782 37.7419 19.2312 37.778 18.8894 37.7357C18.4094 37.667 17.9568 37.4698 17.5788 37.1647C17.1324 36.8101 16.8002 36.3461 16.3967 35.9472C15.9341 35.4596 15.3882 35.0592 14.785 34.7649C14.3691 34.5814 13.9338 34.4458 13.4875 34.3609C13.263 34.3139 13.0359 34.28 12.8089 34.2514C12.705 34.2409 12.1964 34.1275 12.125 34.1939C12.8269 33.5449 13.592 32.9685 14.4088 32.4733C15.2475 31.9733 16.1479 31.5863 17.087 31.3224C18.0607 31.0471 19.0791 30.9686 20.0831 31.0916C20.6 31.1539 21.1063 31.2856 21.5884 31.4827C22.0936 31.6853 22.5599 31.9747 22.9664 32.3378C23.3688 32.7186 23.6941 33.1741 23.9241 33.6792C24.1318 34.1519 24.2866 34.6463 24.386 35.1534C24.6818 36.6693 24.5729 39.0196 26.5492 39.3664C26.6522 39.3864 26.7561 39.4012 26.8606 39.4106L27.1837 39.4185C27.4058 39.4026 27.6265 39.3708 27.8442 39.3233C28.295 39.2169 28.7343 39.0661 29.1559 38.8736Z" fill="#FF007A"/>
<path d="M17.671 37.2179L17.6191 37.1772L17.671 37.2179Z" fill="#FF007A"/>
<path d="M15.899 15.8258C15.827 16.1036 15.7013 16.3645 15.5291 16.5936C15.2085 17.0114 14.7844 17.3373 14.299 17.5387C13.8623 17.7276 13.4 17.8497 12.9275 17.901C12.8249 17.914 12.7185 17.9218 12.616 17.9297C12.3167 17.941 12.0288 18.0484 11.7946 18.2361C11.5604 18.4238 11.3922 18.6818 11.3145 18.9725C11.2789 19.1171 11.2525 19.2639 11.2353 19.4118C11.1886 19.795 11.1808 20.1939 11.1393 20.6761C11.0377 21.4969 10.8013 22.295 10.4399 23.0382C9.97019 24.0314 9.44337 24.8317 9.56534 25.9763C9.64578 26.7193 10.0247 27.2172 10.5282 27.7308C11.4365 28.6642 13.4698 29.0812 13.0156 31.3807C12.7419 32.7532 10.4762 34.1937 7.29194 34.6968C7.60855 34.6485 6.88579 33.4245 6.84037 33.3463C6.49911 32.8093 6.1254 32.3035 5.8542 31.7209C5.32218 30.5908 5.07563 29.2833 5.29364 28.0449C5.52331 26.7414 6.48353 25.7429 7.28156 24.747C8.23141 23.5622 9.22795 22.0097 9.44854 20.4715C9.50045 20.0988 9.53678 19.632 9.61983 19.1679C9.699 18.6539 9.85933 18.1557 10.0948 17.6924C10.2555 17.3885 10.467 17.1147 10.7202 16.883C10.8522 16.7599 10.9393 16.5959 10.9675 16.4172C10.9957 16.2385 10.9635 16.0556 10.8759 15.8975L5.7997 6.72593L13.0909 15.7645C13.174 15.8692 13.2789 15.9544 13.3984 16.0138C13.5178 16.0731 13.6488 16.1055 13.782 16.1083C13.9153 16.1112 14.0475 16.0846 14.1693 16.0304C14.2913 15.9761 14.3998 15.8955 14.4871 15.7945C14.5795 15.6863 14.6319 15.5494 14.6354 15.4069C14.639 15.2645 14.5934 15.1251 14.5066 15.0125C14.0304 14.4011 13.5269 13.778 13.039 13.1653L11.2042 10.8842L7.52162 6.32966L2.5 0L7.99394 5.92167L11.914 10.2754L13.8695 12.4575C14.5183 13.1914 15.167 13.9018 15.8159 14.6735L15.9222 14.8039L15.9456 15.0058C15.9773 15.2799 15.9615 15.5573 15.899 15.8258Z" fill="#FF007A"/>
<path d="M17.5782 37.1569C17.2258 36.8836 16.9124 36.5629 16.6465 36.2041C16.9318 36.5457 17.2432 36.8643 17.5782 37.1569Z" fill="#FF007A"/>
</g>
<defs>
<clipPath id="clip0">
<rect width="40" height="40" fill="white"/>
</clipPath>
</defs>
</svg>
