<svg width="24" height="24" viewBox="0 0 24 24" fill="currentColor" xmlns="http://www.w3.org/2000/svg">
<path fill-rule="evenodd" clip-rule="evenodd" d="M21 18H14.82C14.5176 17.1507 13.8493 16.4824 13 16.18V13H20C20.5523 13 21 12.5523 21 12C21 11.4477 20.5523 11 20 11H19V5C19 3.34315 17.6569 2 16 2H8C6.34315 2 5 3.34315 5 5V11H4C3.44772 11 3 11.4477 3 12C3 12.5523 3.44772 13 4 13H11V16.18C10.1507 16.4824 9.48238 17.1507 9.18 18H3C2.44772 18 2 18.4477 2 19C2 19.5523 2.44772 20 3 20H9.18C9.61062 21.1865 10.7378 21.9765 12 21.9765C13.2622 21.9765 14.3894 21.1865 14.82 20H21C21.5523 20 22 19.5523 22 19C22 18.4477 21.5523 18 21 18ZM7 11V5C7 4.44772 7.44772 4 8 4H16C16.5523 4 17 4.44772 17 5V11H7ZM11 19C11 19.5523 11.4477 20 12 20C12.5523 20 13 19.5523 13 19C13 18.4477 12.5523 18 12 18C11.4477 18 11 18.4477 11 19Z"/>
</svg>
