<svg width="24" height="24" viewBox="0 0 24 24" fill="none" xmlns="http://www.w3.org/2000/svg">
<path d="M17.5157 13.7939L18.1243 15.4946H19.7655C19.9505 15.4946 20.0256 15.7331 19.874 15.8394L18.5739 16.7507L19.0184 18.5749C19.0617 18.7524 18.8536 18.8824 18.7134 18.7654L17.3375 17.6173L15.9617 18.7654C15.8215 18.8824 15.6134 18.7524 15.6567 18.5749L16.1012 16.7507L14.8011 15.8394C14.6495 15.7331 14.7245 15.4946 14.9096 15.4946H16.5507L17.1594 13.7939C17.2193 13.6265 17.4558 13.6265 17.5157 13.7939Z" fill="currentColor"/>
<path fill-rule="evenodd" clip-rule="evenodd" d="M0 5.33574C0 3.49346 1.49144 2 3.33123 2H14.2334V4.27437H17.2618V7.30686H18.0189V9.79682C18.0982 9.76967 18.1829 9.74409 18.2706 9.7229C18.55 9.6554 18.9606 9.60661 19.4103 9.75797C19.8582 9.90874 20.156 10.1955 20.3356 10.4098C20.5126 10.621 20.6451 10.8485 20.7276 10.9931C20.7599 11.0498 20.7861 11.0964 20.8085 11.1363C20.8445 11.2003 20.8707 11.2469 20.897 11.2902C20.9349 11.2999 20.9762 11.3093 21.0315 11.3219C21.0763 11.3321 21.1303 11.3443 21.1992 11.3606C21.359 11.3982 21.6164 11.4617 21.8736 11.5782C22.1418 11.6996 22.4853 11.9114 22.7473 12.2915C23.0043 12.6642 23.0829 13.0536 23.1076 13.3356C23.1317 13.6106 23.1108 13.8719 23.0958 14.0392C23.0901 14.1026 23.0851 14.1549 23.0808 14.1998C23.0721 14.2905 23.0662 14.3518 23.0634 14.4141C23.0956 14.455 23.1291 14.494 23.1787 14.5515C23.2089 14.5866 23.2452 14.6287 23.2908 14.6823C23.3991 14.8099 23.5683 15.0139 23.7075 15.2606C23.8529 15.5185 24 15.8819 24 16.3285C24 16.7768 23.8512 17.1414 23.7074 17.3975C23.5686 17.6445 23.4001 17.8496 23.2901 17.9799C23.2405 18.0387 23.2019 18.0836 23.17 18.1208C23.1274 18.1703 23.0967 18.206 23.0677 18.2423C23.0707 18.3005 23.076 18.3574 23.0834 18.4372C23.088 18.4865 23.0934 18.5446 23.0996 18.6171C23.1142 18.7882 23.1336 19.0503 23.1084 19.3253C23.0829 19.6043 23.0041 19.9969 22.7437 20.3708C22.4799 20.7495 22.1354 20.959 21.8692 21.0784C21.6134 21.1931 21.3572 21.256 21.1992 21.2932C21.1355 21.3082 21.0845 21.3198 21.0418 21.3296C20.9846 21.3426 20.942 21.3524 20.9038 21.3622C20.8798 21.4023 20.8563 21.4448 20.8245 21.5023C20.801 21.5446 20.773 21.5952 20.7371 21.6588C20.6543 21.8056 20.5206 22.0363 20.3386 22.2513C20.1514 22.4724 19.8513 22.752 19.4067 22.9002C18.9619 23.0486 18.5548 23.0056 18.2669 22.9369C17.9916 22.8712 17.7485 22.7625 17.6016 22.6952C17.5424 22.6681 17.4952 22.6461 17.4558 22.6277C17.4063 22.6047 17.3685 22.5871 17.3346 22.5722C17.2965 22.5885 17.2546 22.6077 17.1981 22.6336C17.1602 22.651 17.1154 22.6716 17.0611 22.6961C16.9155 22.762 16.6745 22.8689 16.4045 22.9341C16.1251 23.0016 15.7145 23.0504 15.2648 22.8991C14.8169 22.7483 14.5191 22.4615 14.3395 22.2472C14.1625 22.036 14.0299 21.8085 13.9475 21.664C13.9152 21.6072 13.889 21.5606 13.8666 21.5208C13.8306 21.4567 13.8044 21.4101 13.7781 21.3668C13.7402 21.3571 13.699 21.3477 13.6438 21.3352C13.599 21.325 13.5448 21.3127 13.4759 21.2965C13.3161 21.2589 13.0587 21.1954 12.8014 21.0789C12.5333 20.9574 12.1898 20.7456 11.9278 20.3655C11.6707 19.9928 11.5921 19.6034 11.5674 19.3214C11.5664 19.3093 11.5654 19.2972 11.5645 19.2852H4.46688C1.99989 19.2852 0 17.2826 0 14.8123V5.33574ZM11.3387 17.9206C11.232 17.7928 11.0885 17.6108 10.9676 17.3964C10.8222 17.1385 10.6751 16.7752 10.6751 16.3285C10.6751 15.8802 10.8239 15.5156 10.9677 15.2595C11.1065 15.0125 11.275 14.8075 11.385 14.6771C11.4346 14.6184 11.4732 14.5734 11.5051 14.5363C11.5476 14.4868 11.5784 14.451 11.6074 14.4147C11.6044 14.3565 11.5991 14.2997 11.5917 14.2199C11.5871 14.1706 11.5817 14.1125 11.5755 14.04C11.5608 13.8688 11.5415 13.6067 11.5667 13.3317C11.5922 13.0527 11.671 12.6602 11.9314 12.2862C12.1952 11.9075 12.5397 11.6981 12.8059 11.5787C13.0616 11.4639 13.3179 11.4011 13.4759 11.3639C13.5396 11.3489 13.5907 11.3372 13.6334 11.3274C13.6906 11.3144 13.733 11.3047 13.7713 11.2949C13.7952 11.2547 13.8187 11.2123 13.8506 11.1548C13.874 11.1125 13.9021 11.0618 13.938 10.9982C14.0208 10.8514 14.1544 10.6207 14.3364 10.4058C14.5237 10.1846 14.8238 9.90507 15.2683 9.75679C15.7132 9.6084 16.1202 9.65143 16.4082 9.72013C16.4947 9.74077 16.578 9.76566 16.6562 9.79218V8.67148H3.02839V8.6703C2.41169 8.65346 1.83975 8.45713 1.36278 8.1316V14.8123C1.36278 16.5289 2.75253 17.9206 4.46688 17.9206H11.3387ZM1.36278 5.33574V5.55235C1.36278 6.42737 2.00247 7.15278 2.83912 7.28525V4.27437H12.8707V3.36462H3.33123C2.24408 3.36462 1.36278 4.24712 1.36278 5.33574ZM4.39117 7.30686V5.63899H15.8991V7.30686H4.39117ZM20.8 21.393L20.7966 21.3944C20.7966 21.3944 20.7977 21.3939 20.8 21.393ZM17.4444 22.5306L17.4411 22.5314C17.4433 22.5308 17.4444 22.5305 17.4444 22.5306ZM17.2282 22.5304L17.2246 22.5294C17.2246 22.5294 17.2258 22.5297 17.2282 22.5304ZM13.8848 21.3987L13.8815 21.3973C13.8837 21.3982 13.8848 21.3986 13.8848 21.3987ZM13.8751 11.2641L13.8785 11.2626C13.8785 11.2627 13.8774 11.2631 13.8751 11.2641ZM20.7936 11.2597L20.7903 11.2584C20.7903 11.2584 20.7905 11.2585 20.791 11.2587C20.7916 11.2589 20.7924 11.2593 20.7936 11.2597ZM22.6372 16.3285C22.6372 16.6475 22.399 16.9252 22.1649 17.1979C21.9872 17.405 21.8118 17.6093 21.7451 17.8268C21.6782 18.0449 21.704 18.3227 21.73 18.6031C21.7641 18.9704 21.7987 19.3421 21.6259 19.5902C21.4552 19.8353 21.1168 19.9126 20.7784 19.9899C20.5127 20.0506 20.247 20.1113 20.0625 20.2532C19.8805 20.3931 19.7467 20.6345 19.6125 20.8766C19.4372 21.1928 19.2611 21.5105 18.976 21.6056C18.6942 21.6996 18.382 21.554 18.0679 21.4077C17.8209 21.2925 17.5728 21.1769 17.3375 21.1769C17.1006 21.1769 16.8471 21.2933 16.596 21.4087C16.2808 21.5535 15.9694 21.6966 15.6991 21.6056C15.4264 21.5138 15.2498 21.1993 15.073 20.8847C14.9349 20.6388 14.7967 20.3928 14.6126 20.2532C14.4297 20.1144 14.167 20.0546 13.9036 19.9947C13.5629 19.9172 13.2211 19.8395 13.0492 19.5902C12.8785 19.3426 12.9129 18.984 12.9475 18.6241C12.9746 18.3415 13.0018 18.0581 12.93 17.8268C12.8587 17.5973 12.6797 17.3897 12.5007 17.1819C12.2694 16.9135 12.0379 16.6449 12.0379 16.3285C12.0379 16.0095 12.2761 15.7319 12.5102 15.4592C12.6879 15.252 12.8633 15.0477 12.93 14.8303C12.9969 14.6121 12.9711 14.3343 12.9451 14.0539C12.9109 13.6866 12.8764 13.3149 13.0492 13.0668C13.2199 12.8217 13.5583 12.7444 13.8967 12.6671C14.1624 12.6065 14.4281 12.5458 14.6126 12.4039C14.7946 12.2639 14.9284 12.0226 15.0626 11.7804C15.2379 11.4642 15.4139 11.1466 15.6991 11.0515C15.9809 10.9575 16.2931 11.103 16.6072 11.2494C16.8542 11.3645 17.1023 11.4802 17.3375 11.4802C17.5745 11.4802 17.828 11.3637 18.0791 11.2483C18.3942 11.1035 18.7057 10.9605 18.976 11.0515C19.2487 11.1432 19.4253 11.4577 19.602 11.7723C19.7402 12.0183 19.8784 12.2642 20.0625 12.4039C20.2454 12.5426 20.5081 12.6024 20.7715 12.6623C21.1122 12.7398 21.454 12.8176 21.6259 13.0668C21.7966 13.3144 21.7622 13.673 21.7276 14.033C21.7005 14.3155 21.6733 14.599 21.7451 14.8303C21.8164 15.0597 21.9953 15.2673 22.1744 15.4751C22.4057 15.7435 22.6372 16.0121 22.6372 16.3285Z" fill="currentColor"/>
</svg>
