<svg width="24" height="24" viewBox="0 0 24 24" fill="none" xmlns="http://www.w3.org/2000/svg">
<g clip-path="url(#clip0_2512_37)">
<path fill-rule="evenodd" clip-rule="evenodd" d="M18.301 7.53846V4.40803H15.0903V2H3.53177C1.71773 2 0.224749 3.36455 0.0240803 5.13043H0V14.7625C0 17.3793 2.11906 19.4983 4.73579 19.4983H12.2649C12.2408 19.2174 12.2649 18.9605 12.2809 18.792C12.2809 18.7197 12.289 18.6716 12.297 18.6234C12.305 18.5271 12.313 18.4629 12.313 18.3906C12.2809 18.3505 12.2408 18.3104 12.1926 18.2462C12.1605 18.214 12.1204 18.1659 12.0722 18.1097C11.9599 17.9732 11.7753 17.7565 11.6308 17.4997C11.4783 17.2268 11.3177 16.8415 11.3177 16.3679C11.3177 15.8943 11.4783 15.509 11.6308 15.2361C11.7753 14.9712 11.9518 14.7545 12.0722 14.6181C12.1284 14.5538 12.1686 14.5057 12.2007 14.4656C12.2408 14.4174 12.2809 14.3773 12.305 14.3371C12.305 14.2809 12.297 14.2167 12.289 14.1365C12.289 14.0803 12.2809 14.0241 12.2729 13.9438C12.2569 13.7592 12.2408 13.4863 12.2649 13.1973C12.289 12.9003 12.3773 12.4829 12.6502 12.0896C12.9311 11.6883 13.3003 11.4635 13.5813 11.3351C13.8462 11.2147 14.1191 11.1505 14.2876 11.1104C14.3599 11.0943 14.408 11.0783 14.4562 11.0702C14.5204 11.0542 14.5605 11.0462 14.6007 11.0381C14.6247 10.998 14.6488 10.9498 14.689 10.8856C14.713 10.8455 14.7371 10.7893 14.7773 10.7251C14.8656 10.5645 15.01 10.3237 15.2027 10.099C15.4033 9.85819 15.7164 9.56923 16.19 9.4087C16.6635 9.24816 17.089 9.29632 17.394 9.36856C17.691 9.4408 17.9478 9.55318 18.1003 9.62542C18.1645 9.65753 18.2127 9.68161 18.2609 9.69766C18.309 9.72174 18.3492 9.73779 18.3893 9.75385C18.4294 9.73779 18.4696 9.72174 18.5338 9.68963C18.5739 9.67358 18.6221 9.6495 18.6783 9.62542C18.7826 9.57726 18.9351 9.51304 19.1037 9.44883V7.53846H18.301ZM3.01003 4.40803V7.59465C2.12709 7.45819 1.44482 6.68763 1.44482 5.75652V5.53177C1.44482 4.37592 2.38395 3.44482 3.53177 3.44482H13.6455V4.40803H3.01003ZM16.8562 7.53846H4.45485V5.85284H16.8562V7.53846Z" fill="currentColor"/>
<path d="M23.0528 17.9492C23.2213 17.4194 23.9999 16.9619 23.9999 16.3679C23.9999 15.7739 23.2293 15.3405 23.0528 14.7786C22.8842 14.2247 23.2534 13.3819 22.9324 12.9164C22.6033 12.4428 21.7203 12.5472 21.2708 12.21C20.8293 11.8729 20.6367 10.9498 20.123 10.7813C19.6012 10.6047 18.9511 11.2308 18.3812 11.2308C17.8113 11.2308 17.1772 10.6047 16.6474 10.7813C16.1096 10.9579 15.941 11.8729 15.4915 12.21C15.0501 12.5552 14.1591 12.4508 13.838 12.9164C13.517 13.3739 13.8701 14.2488 13.7096 14.7786C13.5491 15.3164 12.7625 15.7739 12.7625 16.3679C12.7625 16.9619 13.533 17.3953 13.7096 17.9492C13.8862 18.511 13.517 19.3538 13.838 19.8194C14.1591 20.2849 15.0501 20.1886 15.4915 20.5258C15.941 20.8629 16.1337 21.7779 16.6474 21.9545C17.1611 22.1231 17.8193 21.497 18.3812 21.497C18.9431 21.497 19.5852 22.1311 20.123 21.9545C20.6528 21.7779 20.8293 20.8629 21.2708 20.5258C21.7203 20.1806 22.6033 20.2849 22.9324 19.8194C23.2534 19.3538 22.8922 18.487 23.0528 17.9492ZM21.0701 15.8462L19.6976 16.8174L20.1631 18.7438C20.2113 18.9365 19.9865 19.0729 19.842 18.9445L18.3812 17.7324L16.9283 18.9445C16.7758 19.0729 16.5591 18.9365 16.5992 18.7438L17.0728 16.8174L15.6922 15.8462C15.5317 15.7338 15.612 15.4849 15.8126 15.4849H17.5464L18.1966 13.687C18.2608 13.5023 18.5096 13.5023 18.5738 13.687L19.216 15.4849H20.9578C21.1504 15.4849 21.2307 15.7338 21.0701 15.8462Z" fill="currentColor"/>
</g>
<defs>
<clipPath id="clip0_2512_37">
<rect width="24" height="19.9866" fill="white" transform="translate(0 2)"/>
</clipPath>
</defs>
</svg>
