<svg width="24" height="24" viewBox="0 0 24 24" fill="none" xmlns="http://www.w3.org/2000/svg">
<path fill-rule="evenodd" clip-rule="evenodd" d="M2.0001 2.7666H1.1001V3.6666V6.36658V7.26659V8.16659V18.6665C1.1001 20.8205 2.84619 22.5665 5.0001 22.5665H19.0001C21.154 22.5665 22.9001 20.8205 22.9001 18.6665V10.2666C22.9001 8.11267 21.154 6.36658 19.0001 6.36658H16.1434C15.7265 4.31257 13.9105 2.7666 11.7334 2.7666H2.0001ZM14.2798 6.36658C13.9091 5.31792 12.909 4.5666 11.7334 4.5666H2.9001V6.36658H14.2798ZM17.5518 14.4194C17.5518 16.2527 19.0379 17.7388 20.8711 17.7388V11.1001C19.0379 11.1001 17.5518 12.5862 17.5518 14.4194Z" fill="currentColor"/>
</svg>
