<svg width="25" height="24" viewBox="0 0 25 24" fill="none" xmlns="http://www.w3.org/2000/svg">
<path fill-rule="evenodd" clip-rule="evenodd" d="M19.704 17.8745L12.904 6.09647C12.8777 6.05102 12.8525 6.03196 12.8324 6.02082C12.8075 6.00702 12.7725 5.99647 12.7308 5.99647C12.6891 5.99647 12.654 6.00702 12.6291 6.02082C12.609 6.03195 12.5838 6.05102 12.5576 6.09647L5.75749 17.8745H19.704ZM14.4628 5.19647C13.693 3.86314 11.7685 3.86314 10.9987 5.19647L3.50583 18.1745C3.12093 18.8412 3.60205 19.6745 4.37185 19.6745H21.0897C21.8595 19.6745 22.3406 18.8412 21.9557 18.1745L14.4628 5.19647ZM13.6308 10.0928V14.3101H11.8308V10.0928H13.6308ZM13.6308 16.5205V15.0109H11.8308V16.5205H13.6308Z" fill="currentColor"/>
</svg>
