<svg width="24" height="24" viewBox="0 0 24 24" fill="none" xmlns="http://www.w3.org/2000/svg">
<g clip-path="url(#clip0_13227_1683)">
<path fill-rule="evenodd" clip-rule="evenodd" d="M13 18.5844L13.79 17.7844C14.1822 17.3923 14.8179 17.3923 15.21 17.7844C15.6022 18.1765 15.6022 18.8123 15.21 19.2044L12.71 21.7044C12.6149 21.7955 12.5028 21.8668 12.38 21.9144C12.1366 22.0144 11.8635 22.0144 11.62 21.9144C11.4973 21.8668 11.3851 21.7955 11.29 21.7044L8.79004 19.2044C8.60072 19.0167 8.49424 18.7611 8.49424 18.4944C8.49424 18.2278 8.60072 17.9722 8.79004 17.7844C8.9778 17.5951 9.2334 17.4886 9.50004 17.4886C9.76668 17.4886 10.0223 17.5951 10.21 17.7844L11 18.5844L11 13.9944C11 13.4421 11.4478 12.9944 12 12.9944C12.5523 12.9944 13 13.4421 13 13.9944L13 18.5844ZM6.98358 16.698C6.63219 16.7921 6.25727 16.6917 6.00004 16.4344C2.71075 13.1254 2.72142 7.77803 6.02389 4.48215C9.32635 1.18626 14.6737 1.18626 17.9762 4.48215C21.2787 7.77803 21.2893 13.1254 18 16.4344C17.7428 16.6917 17.3679 16.7921 17.0165 16.698C16.6651 16.6038 16.3907 16.3293 16.2965 15.978C16.2023 15.6266 16.3028 15.2517 16.56 14.9944C18.4052 13.1499 18.9575 10.3755 17.9593 7.96499C16.9611 5.5545 14.609 3.98275 12 3.98275C9.39104 3.98275 7.03899 5.5545 6.04079 7.96499C5.04259 10.3755 5.59486 13.1499 7.44004 14.9944C7.69727 15.2517 7.79773 15.6266 7.70358 15.978C7.60942 16.3293 7.33496 16.6038 6.98358 16.698Z" fill="#7A8AA0"/>
</g>
<defs>
<clipPath id="clip0_13227_1683">
<rect width="24" height="24" fill="white"/>
</clipPath>
</defs>
</svg>
