<svg width="24" height="24" viewBox="0 0 24 24" fill="currentColor" xmlns="http://www.w3.org/2000/svg">
<path fill-rule="evenodd" clip-rule="evenodd" d="M1.00005 16.757C0.993623 17.8861 1.64412 18.9475 2.65284 19.4546L10.6525 23.4544C11.4976 23.8773 12.4925 23.8773 13.3375 23.4544L21.3364 19.455C22.3551 18.9482 22.9994 17.9081 23 16.7701V7.23C22.9995 6.10257 22.3445 5.0464 21.335 4.54447L13.3375 0.545717C12.4925 0.122853 11.4976 0.122853 10.6525 0.545717L2.65284 4.54557C1.64412 5.05265 0.993623 6.1141 1.00005 7.24313V16.757ZM21 16.7696C20.9998 17.1491 20.7849 17.4958 20.445 17.6646L20.4428 17.6657L13 21.3871V11.6182L21 7.61818V16.7696ZM19.7691 5.99757L12.4425 2.33428C12.1609 2.19333 11.8289 2.19347 11.5473 2.33443L9.22597 3.49507L17 7.38211L19.7691 5.99757ZM6.9899 4.61311L4.22596 5.99507L12 9.88212L14.764 8.50015L6.9899 4.61311ZM3.00005 7.61819L11 11.6182V21.3921L3.55002 17.6671L3.54884 17.6665C3.21003 17.4952 2.99741 17.1468 3.00005 16.7671V7.61819Z"/>
</svg>
