<svg xmlns="http://www.w3.org/2000/svg" width="80" height="80" fill="none" viewBox="0 0 80 80">
  <g clip-path="url(#a)">
    <g filter="url(#b)">
      <path fill="url(#c)" fill-opacity=".4" fill-rule="evenodd" d="M18 35.997c0-12.151 9.85-22 22-22s22.001 9.849 22 22c0 4.303-1.236 8.317-3.372 11.708a22.13 22.13 0 0 1-1.963 2.654L40.029 33.723 25.723 48.027l-2.362 2.362a21.815 21.815 0 0 1-1.968-2.65A21.883 21.883 0 0 1 18 35.997Zm38.106 8.573.202-.403v.001a18.325 18.325 0 0 0 1.93-8.17c0-10.056-8.182-18.237-18.237-18.237-10.056 0-18.236 8.18-18.236 18.236 0 2.843.673 5.68 1.947 8.208l.203.4 16.114-16.113L56.106 44.57ZM40 57.996a21.916 21.916 0 0 0 14.34-5.314l-14.31-14.31-14.337 14.336A21.876 21.876 0 0 0 40 57.996Z" clip-rule="evenodd"/>
    </g>
    <path fill="url(#d)" fill-rule="evenodd" d="M18 39.997c0-12.151 9.85-22 22-22s22.001 9.849 22 22c0 4.303-1.236 8.317-3.372 11.708a22.13 22.13 0 0 1-1.963 2.654L40.029 37.723 25.723 52.027l-2.362 2.362a21.815 21.815 0 0 1-1.968-2.65A21.883 21.883 0 0 1 18 39.997Zm38.106 8.573.202-.403v.001a18.325 18.325 0 0 0 1.93-8.17c0-10.056-8.182-18.237-18.237-18.237-10.056 0-18.236 8.18-18.236 18.236 0 2.843.673 5.68 1.947 8.208l.203.4 16.114-16.113L56.106 48.57ZM40 61.996a21.916 21.916 0 0 0 14.34-5.314l-14.31-14.31-14.337 14.336A21.876 21.876 0 0 0 40 61.996Z" clip-rule="evenodd"/>
  </g>
  <defs>
    <linearGradient id="c" x1="40" x2="40.065" y1="13.996" y2="57.996" gradientUnits="userSpaceOnUse">
      <stop stop-color="#169E00"/>
      <stop offset=".49" stop-color="#00C537"/>
      <stop offset="1" stop-color="#00B1C9"/>
    </linearGradient>
    <linearGradient id="d" x1="40" x2="40.065" y1="17.996" y2="61.996" gradientUnits="userSpaceOnUse">
      <stop stop-color="#169E00"/>
      <stop offset=".49" stop-color="#00C537"/>
      <stop offset="1" stop-color="#00B1C9"/>
    </linearGradient>
    <clipPath id="a">
      <path fill="#fff" d="M0 0h80v80H0z"/>
    </clipPath>
    <filter id="b" width="72" height="72" x="4" y="-.004" color-interpolation-filters="sRGB" filterUnits="userSpaceOnUse">
      <feFlood flood-opacity="0" result="BackgroundImageFix"/>
      <feBlend in="SourceGraphic" in2="BackgroundImageFix" result="shape"/>
      <feGaussianBlur result="effect1_foregroundBlur_52_25679" stdDeviation="7"/>
    </filter>
  </defs>
</svg>
