<svg xmlns="http://www.w3.org/2000/svg" width="80" height="80" fill="none" viewBox="0 0 80 80">
  <rect width="49" height="44" x="15" y="18" fill="url(#a)" rx="7"/>
  <rect width="49" height="44" x="15" y="18" fill="url(#b)" fill-opacity=".3" rx="7"/>
  <path fill="url(#c)" fill-rule="evenodd" d="M33.5 28a3.5 3.5 0 0 0-3.5 3.5V62h7V31.5a3.5 3.5 0 0 0-3.5-3.5Zm-10 9a3.5 3.5 0 0 0-3.5 3.5V62h7V40.5a3.5 3.5 0 0 0-3.5-3.5Zm16.5.5a3.5 3.5 0 1 1 7 0V62h-7V37.5ZM53.5 30a3.5 3.5 0 0 0-3.5 3.5V62h7V33.5a3.5 3.5 0 0 0-3.5-3.5Z" clip-rule="evenodd"/>
  <g filter="url(#d)">
    <path fill="url(#e)" fill-rule="evenodd" d="M33.5 33a3.5 3.5 0 0 0-3.5 3.5V67h7V36.5a3.5 3.5 0 0 0-3.5-3.5Zm-10 9a3.5 3.5 0 0 0-3.5 3.5V67h7V45.5a3.5 3.5 0 0 0-3.5-3.5Zm16.5.5a3.5 3.5 0 1 1 7 0V67h-7V42.5ZM53.5 35a3.5 3.5 0 0 0-3.5 3.5V67h7V38.5a3.5 3.5 0 0 0-3.5-3.5Z" clip-rule="evenodd"/>
  </g>
  <defs>
    <linearGradient id="a" x1="13.078" x2="48.526" y1="-3" y2="49.979" gradientUnits="userSpaceOnUse">
      <stop stop-color="#00D0FF"/>
      <stop offset="1" stop-color="#00D0FF" stop-opacity="0"/>
    </linearGradient>
    <linearGradient id="b" x1="34" x2="56" y1="18" y2="68" gradientUnits="userSpaceOnUse">
      <stop stop-color="#5BE1FF" stop-opacity="0"/>
      <stop offset="1" stop-color="#5BA7FF"/>
    </linearGradient>
    <linearGradient id="c" x1="38.5" x2="38.5" y1="28" y2="62" gradientUnits="userSpaceOnUse">
      <stop stop-color="#0085FF"/>
      <stop offset="1" stop-color="#0085FF" stop-opacity=".4"/>
    </linearGradient>
    <linearGradient id="e" x1="38.5" x2="38.5" y1="33" y2="67" gradientUnits="userSpaceOnUse">
      <stop stop-color="#0085FF"/>
      <stop offset="1" stop-color="#0085FF" stop-opacity=".4"/>
    </linearGradient>
    <filter id="d" width="53" height="50" x="12" y="25" color-interpolation-filters="sRGB" filterUnits="userSpaceOnUse">
      <feFlood flood-opacity="0" result="BackgroundImageFix"/>
      <feBlend in="SourceGraphic" in2="BackgroundImageFix" result="shape"/>
      <feGaussianBlur result="effect1_foregroundBlur_55_2124" stdDeviation="4"/>
    </filter>
  </defs>
</svg>
