<svg xmlns="http://www.w3.org/2000/svg" width="80" height="80" fill="none" viewBox="0 0 80 80">
  <g class="Default">
    <g class="symbol" filter="url(#a)" opacity=".4">
      <path fill="#0085FF" fill-rule="evenodd" d="m45.039 15 11.89 17.936-11.89 6.678-11.89-6.678L45.039 15Zm-8.25 17.088 8.25-12.446 8.25 12.446-8.25 4.633-8.25-4.633Z" clip-rule="evenodd"/>
      <path fill="#0085FF" d="M45.021 43.556 31.228 35.81l-.377.568c-4.248 6.408-3.299 14.8 2.282 20.178 6.566 6.327 17.213 6.327 23.78 0 5.58-5.377 6.53-13.77 2.281-20.178l-.376-.568-13.797 7.747Z"/>
    </g>
    <g class="symbol">
      <path fill="url(#b)" fill-rule="evenodd" d="m40.038 17.15 12.02 17.82-12.02 6.635-12.02-6.635 12.02-17.82Zm-8.34 16.977 8.34-12.365 8.341 12.365-8.341 4.604-8.34-4.604Z" clip-rule="evenodd"/>
      <path fill="url(#c)" d="m40.02 45.521-13.943-7.697-.381.565c-4.295 6.366-3.336 14.705 2.306 20.046 6.639 6.287 17.402 6.287 24.041 0 5.642-5.341 6.6-13.68 2.306-20.046l-.38-.565-13.948 7.697Z"/>
    </g>
  </g>
  <defs>
    <linearGradient id="b" x1="40.023" x2="40.023" y1="17.15" y2="63.15" class="b" gradientUnits="userSpaceOnUse">
      <stop stop-color="#0085FF"/>
      <stop offset="1" stop-color="#0085FF"/>
    </linearGradient>
    <linearGradient id="c" x1="40.023" x2="40.023" y1="17.15" y2="63.15" class="c" gradientUnits="userSpaceOnUse">
      <stop stop-color="#0085FF"/>
      <stop offset="1" stop-color="#0085FF"/>
    </linearGradient>
    <filter id="a" width="53.632" height="66.3" x="18.207" y="5" class="a" color-interpolation-filters="sRGB" filterUnits="userSpaceOnUse">
      <feFlood flood-opacity="0" result="BackgroundImageFix"/>
      <feBlend in="SourceGraphic" in2="BackgroundImageFix" result="shape"/>
      <feGaussianBlur result="effect1_foregroundBlur_91_843" stdDeviation="5"/>
    </filter>
  </defs>
</svg>
