<svg xmlns="http://www.w3.org/2000/svg" width="80" height="80" fill="none" viewBox="0 0 80 80">
  <g class="easytracks">
    <g class="symbol">
      <g class="symbol">
        <path fill="#00A3FF" fill-rule="evenodd" d="m40.039 17 11.89 17.936-11.89 6.678-11.89-6.678L40.039 17Zm-8.25 17.088 8.25-12.446 8.25 12.446-8.25 4.633-8.25-4.633Z" clip-rule="evenodd"/>
        <path fill="#00A3FF" d="M40.021 45.556 26.228 37.81l-.377.568c-4.248 6.408-3.299 14.8 2.282 20.178 6.566 6.327 17.213 6.327 23.78 0 5.58-5.377 6.53-13.77 2.281-20.178l-.376-.568-13.797 7.747Z"/>
      </g>
    </g>
    <g class="symbol" filter="url(#a)" opacity=".6">
      <path fill="#00A3FF" fill-rule="evenodd" d="m45.039 15 11.89 17.936-11.89 6.678-11.89-6.678L45.039 15Zm-8.25 17.088 8.25-12.446 8.25 12.446-8.25 4.633-8.25-4.633Z" clip-rule="evenodd"/>
      <path fill="#00A3FF" d="M45.021 43.556 31.228 35.81l-.377.568c-4.248 6.408-3.299 14.8 2.282 20.178 6.566 6.327 17.213 6.327 23.78 0 5.58-5.377 6.53-13.77 2.281-20.178l-.376-.568-13.797 7.747Z"/>
    </g>
  </g>
  <defs>
    <filter id="a" width="61.632" height="74.3" x="14.207" y="1" class="a" color-interpolation-filters="sRGB" filterUnits="userSpaceOnUse">
      <feFlood flood-opacity="0" result="BackgroundImageFix"/>
      <feBlend in="SourceGraphic" in2="BackgroundImageFix" result="shape"/>
      <feGaussianBlur result="effect1_foregroundBlur_55_2126" stdDeviation="7"/>
    </filter>
  </defs>
</svg>
