<svg xmlns="http://www.w3.org/2000/svg" width="80" height="80" fill="none" viewBox="0 0 80 80">
  <g filter="url(#a)" opacity=".5">
    <path fill="url(#b)" fill-rule="evenodd" d="M67.102 43c0 12.703-10.298 23-23 23-.39 0-.777-.01-1.162-.029a.008.008 0 0 0-.005.015.008.008 0 0 1-.006.014H17.996c-.976 0-1.465-1.18-.775-1.87l1.514-1.513c3.751-3.752 3.96-9.65 2.863-14.84A23.097 23.097 0 0 1 21.102 43c0-12.703 10.297-23 23-23 12.702 0 23 10.297 23 23Zm-25.47 4.359a12.173 12.173 0 0 0-.231 2.396h4.531c0-.697.03-1.237.089-1.622.06-.396.255-.876.586-1.441.19-.324.427-.63.711-.919.296-.3.616-.607.96-.919a18.18 18.18 0 0 0 1.084-1.08 12.428 12.428 0 0 0 1.99-2.83c.533-1.02.8-2.15.8-3.387 0-.829-.142-1.646-.427-2.45a6.256 6.256 0 0 0-1.208-2.127 6.444 6.444 0 0 0-2.897-2.017 10.902 10.902 0 0 0-3.678-.613c-.853 0-1.706.126-2.56.378-.84.253-1.599.63-2.274 1.135-.865.613-1.564 1.436-2.097 2.469a9.261 9.261 0 0 0-.96 3.333h4.514a3.521 3.521 0 0 1 .231-1.387c.166-.42.427-.775.782-1.063a2.847 2.847 0 0 1 1.12-.577c.45-.132.918-.198 1.404-.198.592 0 1.149.096 1.67.288.521.18.948.493 1.28.937.213.252.36.553.444.901.083.348.124.72.124 1.117 0 .613-.077 1.19-.23 1.73-.155.528-.475 1.063-.96 1.603-.593.637-1.132 1.148-1.617 1.532-.486.372-.925.75-1.316 1.135-.39.372-.746.877-1.066 1.514a7.726 7.726 0 0 0-.8 2.162Zm-.196 4.666V56.8h4.496v-4.775h-4.496Z" clip-rule="evenodd"/>
  </g>
  <path fill="url(#c)" fill-rule="evenodd" d="M65.102 40c0 12.703-10.298 23-23 23-.39 0-.777-.01-1.162-.029a.008.008 0 0 0-.005.015.008.008 0 0 1-.006.014H15.996c-.976 0-1.465-1.18-.775-1.87l1.514-1.513c3.751-3.752 3.96-9.65 2.863-14.84A23.097 23.097 0 0 1 19.102 40c0-12.703 10.297-23 23-23 12.702 0 23 10.297 23 23Zm-25.47 4.359a12.173 12.173 0 0 0-.231 2.396h4.531c0-.697.03-1.237.089-1.622.06-.396.255-.876.586-1.441.19-.324.427-.63.711-.919.296-.3.616-.607.96-.919a18.18 18.18 0 0 0 1.084-1.08 12.428 12.428 0 0 0 1.99-2.83c.533-1.02.8-2.15.8-3.387 0-.829-.142-1.646-.427-2.45a6.256 6.256 0 0 0-1.208-2.127 6.444 6.444 0 0 0-2.897-2.017 10.902 10.902 0 0 0-3.678-.613c-.853 0-1.706.126-2.56.378-.84.253-1.599.63-2.274 1.135-.865.613-1.564 1.436-2.097 2.469a9.261 9.261 0 0 0-.96 3.333h4.514a3.521 3.521 0 0 1 .231-1.387c.166-.42.427-.775.782-1.063a2.847 2.847 0 0 1 1.12-.577c.45-.132.918-.198 1.404-.198.592 0 1.149.096 1.67.288.521.18.948.493 1.28.937.213.252.36.553.444.901.083.348.124.72.124 1.117 0 .613-.077 1.19-.23 1.73-.155.528-.475 1.063-.96 1.603-.593.637-1.132 1.148-1.617 1.532-.486.372-.925.75-1.316 1.135-.39.372-.746.877-1.066 1.514a7.726 7.726 0 0 0-.8 2.162Zm-.196 4.666V53.8h4.496v-4.775h-4.496Z" clip-rule="evenodd"/>
  <defs>
    <radialGradient id="b" cx="0" cy="0" r="1" gradientTransform="matrix(6.64459 -43.12501 46.4896 7.163 42 57.713)" gradientUnits="userSpaceOnUse">
      <stop stop-color="#F99"/>
      <stop offset=".995" stop-color="#FF8585" stop-opacity=".1"/>
    </radialGradient>
    <radialGradient id="c" cx="0" cy="0" r="1" gradientTransform="matrix(6.64459 -43.12501 46.4896 7.163 40 54.713)" gradientUnits="userSpaceOnUse">
      <stop stop-color="#F99"/>
      <stop offset=".995" stop-color="#FF8585" stop-opacity=".1"/>
    </radialGradient>
    <filter id="a" width="66.203" height="62" x="8.898" y="12" color-interpolation-filters="sRGB" filterUnits="userSpaceOnUse">
      <feFlood flood-opacity="0" result="BackgroundImageFix"/>
      <feBlend in="SourceGraphic" in2="BackgroundImageFix" result="shape"/>
      <feGaussianBlur result="effect1_foregroundBlur_55_2114" stdDeviation="4"/>
    </filter>
  </defs>
</svg>
