<svg xmlns="http://www.w3.org/2000/svg" width="80" height="80" fill="none" viewBox="0 0 80 80">
  <g filter="url(#a)" opacity=".6">
    <path fill="url(#b)" d="M31 25a3 3 0 0 1 3-3h15.11a3 3 0 0 1 2.245 1.01l10.89 12.281a3 3 0 0 1 .755 1.99V61a3 3 0 0 1-3 3H34a3 3 0 0 1-3-3V25Z"/>
  </g>
  <path fill="url(#c)" fill-opacity=".9" d="M16.444 23.889a3 3 0 0 1 3-3h10.718V62.04H19.444a3 3 0 0 1-3-3V23.89Z"/>
  <path fill="url(#d)" d="M22.323 18.99a3 3 0 0 1 3-3h17.688a3 3 0 0 1 2.254 1.02l12.564 14.297a3 3 0 0 1 .747 1.98V61a3 3 0 0 1-3 3H25.323a3 3 0 0 1-3-3V18.99Z"/>
  <path fill="url(#e)" fill-opacity=".7" d="M22.323 18.99a3 3 0 0 1 3-3h17.688a3 3 0 0 1 2.254 1.02l12.564 14.297a3 3 0 0 1 .747 1.98V61a3 3 0 0 1-3 3H25.323a3 3 0 0 1-3-3V18.99Z"/>
  <path fill="url(#f)" d="M43.879 29.136V18.13c0-.92 1.136-1.351 1.747-.664l12.45 14.006c.574.645.116 1.664-.747 1.664h-9.45a4 4 0 0 1-4-4Z"/>
  <defs>
    <linearGradient id="b" x1="59.844" x2="43.255" y1="66.187" y2="52.232" gradientUnits="userSpaceOnUse">
      <stop stop-color="#5BBAFF" stop-opacity="0"/>
      <stop offset="1" stop-color="#51DEFD"/>
    </linearGradient>
    <linearGradient id="c" x1="13.266" x2="29.251" y1="41.992" y2="39.958" gradientUnits="userSpaceOnUse">
      <stop stop-color="#45E6FF" stop-opacity="0"/>
      <stop offset="1" stop-color="#0C71FF"/>
    </linearGradient>
    <linearGradient id="d" x1="55" x2="36.067" y1="66.5" y2="50.716" gradientUnits="userSpaceOnUse">
      <stop stop-color="#5BBAFF" stop-opacity="0"/>
      <stop offset="1" stop-color="#51DEFD"/>
    </linearGradient>
    <linearGradient id="f" x1="46" x2="58.348" y1="37.404" y2="37.627" gradientUnits="userSpaceOnUse">
      <stop offset=".193" stop-color="#2DB3FF"/>
      <stop offset="1" stop-color="#B7F2FF"/>
    </linearGradient>
    <radialGradient id="e" cx="0" cy="0" r="1" gradientTransform="matrix(-8.00004 29.49998 -56.1809 -15.23559 48 20)" gradientUnits="userSpaceOnUse">
      <stop stop-color="#1E47FF" stop-opacity=".94"/>
      <stop offset="1" stop-color="#012AFF" stop-opacity=".04"/>
    </radialGradient>
    <filter id="a" width="54" height="64" x="20" y="11" color-interpolation-filters="sRGB" filterUnits="userSpaceOnUse">
      <feFlood flood-opacity="0" result="BackgroundImageFix"/>
      <feBlend in="SourceGraphic" in2="BackgroundImageFix" result="shape"/>
      <feGaussianBlur result="effect1_foregroundBlur_55_2138" stdDeviation="5.5"/>
    </filter>
  </defs>
</svg>
