<svg xmlns="http://www.w3.org/2000/svg" width="80" height="80" fill="none" viewBox="0 0 80 80">
  <g clip-path="url(#a)">
    <g filter="url(#b)" opacity=".3">
      <path fill="url(#c)" d="M40.17 15 16.61 29.074 40.17 43.25V15Z"/>
      <path fill="url(#d)" d="M40.17 15 16.61 29.074 40.17 43.25V15Z"/>
      <path fill="url(#e)" d="m40.169 15 23.559 14.074-.267.803L40.169 43.35V15Z"/>
      <path fill="url(#f)" d="m40.169 15 23.559 14.074-.267.803L40.169 43.35V15Z"/>
      <path fill="url(#g)" d="m40.169 43.22 23.559-14.146v27.041l-23.56 15.027V43.219Z"/>
      <path fill="url(#h)" d="m40.169 43.22 23.559-14.146v27.041l-23.56 15.027V43.219Z"/>
      <path fill="url(#i)" d="m40.169 43.22 2.877 5.343 23.292-14.16-2.61-5.329-23.56 14.145Z"/>
      <path fill="url(#j)" d="M40.17 43.22 16.61 29.073v27.041l23.56 15.027V43.219Z"/>
      <path fill="url(#k)" d="m40.169 43.22-2.877 5.343L14 34.403l2.61-5.329L40.17 43.22Z"/>
    </g>
    <path fill="url(#l)" d="M40.169 14.508 18.715 27.325l21.454 12.908V14.508Z"/>
    <path fill="url(#m)" fill-opacity=".6" d="M40.169 14.508 18.715 27.325l21.454 12.908V14.508Z"/>
    <path fill="url(#n)" d="m40.169 14.508 21.454 12.817-.243.73-21.211 12.27V14.508Z"/>
    <path fill="url(#o)" d="m40.169 14.508 21.454 12.817-.243.73-21.211 12.27V14.508Z"/>
    <path fill="url(#p)" d="m40.169 40.206 21.454-12.881V51.95L40.169 65.634V40.206Z"/>
    <path fill="url(#q)" d="m40.169 40.206 2.62 4.866L64 32.177l-2.376-4.852L40.17 40.206Z"/>
    <path fill="url(#r)" d="M40.169 40.206 18.715 27.325V51.95l21.454 13.684V40.206Z"/>
    <path fill="url(#s)" d="m40.169 40.206-2.62 4.866-21.211-12.895 2.377-4.852 21.454 12.881Z"/>
  </g>
  <defs>
    <linearGradient id="c" x1="14.789" x2="41.552" y1="33.19" y2="42.139" gradientUnits="userSpaceOnUse">
      <stop stop-color="#5BBAFF"/>
      <stop offset="1" stop-color="#51DEFD"/>
    </linearGradient>
    <linearGradient id="e" x1="38.347" x2="65.111" y1="33.19" y2="42.139" gradientUnits="userSpaceOnUse">
      <stop stop-color="#5BBAFF"/>
      <stop offset="1" stop-color="#51DEFD"/>
    </linearGradient>
    <linearGradient id="i" x1="44.527" x2="65.131" y1="53.278" y2="53.841" gradientUnits="userSpaceOnUse">
      <stop offset=".193" stop-color="#2DB3FF"/>
      <stop offset="1" stop-color="#B7F2FF"/>
    </linearGradient>
    <linearGradient id="j" x1="14.789" x2="41.563" y1="47.301" y2="56.236" gradientUnits="userSpaceOnUse">
      <stop stop-color="#0094FF"/>
      <stop offset="1" stop-color="#00D1FF"/>
    </linearGradient>
    <linearGradient id="k" x1="18.358" x2="38.962" y1="53.278" y2="53.841" gradientUnits="userSpaceOnUse">
      <stop offset=".193" stop-color="#2DB3FF"/>
      <stop offset="1" stop-color="#B7F2FF"/>
    </linearGradient>
    <linearGradient id="l" x1="17.056" x2="41.428" y1="31.073" y2="39.222" gradientUnits="userSpaceOnUse">
      <stop stop-color="#5BBAFF"/>
      <stop offset="1" stop-color="#51DEFD"/>
    </linearGradient>
    <linearGradient id="n" x1="38.51" x2="62.882" y1="31.073" y2="39.222" gradientUnits="userSpaceOnUse">
      <stop stop-color="#5BBAFF"/>
      <stop offset="1" stop-color="#51DEFD"/>
    </linearGradient>
    <linearGradient id="q" x1="44.138" x2="62.901" y1="49.366" y2="49.878" gradientUnits="userSpaceOnUse">
      <stop offset=".193" stop-color="#2DB3FF"/>
      <stop offset="1" stop-color="#B7F2FF"/>
    </linearGradient>
    <linearGradient id="r" x1="17.056" x2="41.438" y1="43.923" y2="52.059" gradientUnits="userSpaceOnUse">
      <stop stop-color="#0094FF"/>
      <stop offset="1" stop-color="#00D1FF"/>
    </linearGradient>
    <linearGradient id="s" x1="20.306" x2="39.07" y1="49.366" y2="49.878" gradientUnits="userSpaceOnUse">
      <stop offset=".193" stop-color="#2DB3FF"/>
      <stop offset="1" stop-color="#B7F2FF"/>
    </linearGradient>
    <radialGradient id="d" cx="0" cy="0" r="1" gradientTransform="rotate(-135.47 27.123 15.032) scale(34.9585 61.6004)" gradientUnits="userSpaceOnUse">
      <stop stop-color="#0029FF"/>
      <stop offset="1" stop-color="#012AFF" stop-opacity="0"/>
    </radialGradient>
    <radialGradient id="f" cx="0" cy="0" r="1" gradientTransform="rotate(-68.289 57.211 -12.18) scale(35.8745 78.9334)" gradientUnits="userSpaceOnUse">
      <stop stop-color="#1E47FF"/>
      <stop offset="1" stop-color="#012AFF" stop-opacity="0"/>
    </radialGradient>
    <radialGradient id="g" cx="0" cy="0" r="1" gradientTransform="matrix(24.51595 26.23812 -43.76815 40.89537 36.22 41.02)" gradientUnits="userSpaceOnUse">
      <stop stop-color="#0797FF"/>
      <stop offset=".474" stop-color="#33DAFF"/>
      <stop offset=".953" stop-color="#51DEFD" stop-opacity="0"/>
    </radialGradient>
    <radialGradient id="h" cx="0" cy="0" r="1" gradientTransform="matrix(24.31334 24.21204 -18.91418 18.9933 34.498 41.932)" gradientUnits="userSpaceOnUse">
      <stop stop-color="#0029FF"/>
      <stop offset="1" stop-color="#012AFF" stop-opacity="0"/>
    </radialGradient>
    <radialGradient id="m" cx="0" cy="0" r="1" gradientTransform="matrix(-22.69478 -22.32547 39.33978 -39.99055 36.296 41.617)" gradientUnits="userSpaceOnUse">
      <stop stop-color="#0029FF"/>
      <stop offset="1" stop-color="#012AFF" stop-opacity="0"/>
    </radialGradient>
    <radialGradient id="o" cx="0" cy="0" r="1" gradientTransform="matrix(12.08523 -30.35188 66.78215 26.5907 46.721 42.264)" gradientUnits="userSpaceOnUse">
      <stop stop-color="#1E47FF"/>
      <stop offset="1" stop-color="#012AFF" stop-opacity="0"/>
    </radialGradient>
    <radialGradient id="p" cx="0" cy="0" r="1" gradientTransform="matrix(54.63946 17.75787 -29.62213 91.1448 40.015 44.104)" gradientUnits="userSpaceOnUse">
      <stop stop-color="#0797FF"/>
      <stop offset=".953" stop-color="#51DEFD" stop-opacity="0"/>
    </radialGradient>
    <clipPath id="a">
      <path fill="#fff" d="M0 0h80v80H0z"/>
    </clipPath>
    <filter id="b" width="80.338" height="84.142" x="0" y="1" color-interpolation-filters="sRGB" filterUnits="userSpaceOnUse">
      <feFlood flood-opacity="0" result="BackgroundImageFix"/>
      <feBlend in="SourceGraphic" in2="BackgroundImageFix" result="shape"/>
      <feGaussianBlur result="effect1_foregroundBlur_55_2119" stdDeviation="7"/>
    </filter>
  </defs>
</svg>
