<svg xmlns="http://www.w3.org/2000/svg" width="80" height="80" fill="none" viewBox="0 0 80 80">
  <g class="vote" clip-path="url(#a)">
    <g class="Subtract" filter="url(#b)">
      <path fill="url(#c)" fill-rule="evenodd" d="M16 44h8l9 9 9-9 9-9 9 9h6c0 13.807-11.193 25-25 25S16 57.807 16 44Z" clip-rule="evenodd"/>
      <path fill="url(#d)" fill-opacity=".8" fill-rule="evenodd" d="M16 44h8l9 9 9-9 9-9 9 9h6c0 13.807-11.193 25-25 25S16 57.807 16 44Z" clip-rule="evenodd"/>
    </g>
    <g class="Subtract" filter="url(#e)">
      <path fill="url(#f)" fill-rule="evenodd" d="M66 40h-6l-9-9-9 9-9 9-9-9h-8c0-13.807 11.193-25 25-25s25 11.193 25 25Z" clip-rule="evenodd"/>
      <path fill="url(#g)" fill-opacity=".8" fill-rule="evenodd" d="M66 40h-6l-9-9-9 9-9 9-9-9h-8c0-13.807 11.193-25 25-25s25 11.193 25 25Z" clip-rule="evenodd"/>
    </g>
    <g class="Group 48095640">
      <g class="Subtract">
        <path fill="url(#h)" fill-rule="evenodd" d="M15 40h8l9 9 9-9 9-9 9 9h6c0 13.807-11.193 25-25 25S15 53.807 15 40Z" clip-rule="evenodd"/>
        <path fill="url(#i)" fill-opacity=".8" fill-rule="evenodd" d="M15 40h8l9 9 9-9 9-9 9 9h6c0 13.807-11.193 25-25 25S15 53.807 15 40Z" clip-rule="evenodd"/>
      </g>
      <g class="Subtract">
        <path fill="url(#j)" fill-rule="evenodd" d="M65 40h-6l-9-9-9 9-9 9-9-9h-8c0-13.807 11.193-25 25-25s25 11.193 25 25Z" clip-rule="evenodd"/>
        <path fill="url(#k)" fill-opacity=".8" fill-rule="evenodd" d="M65 40h-6l-9-9-9 9-9 9-9-9h-8c0-13.807 11.193-25 25-25s25 11.193 25 25Z" clip-rule="evenodd"/>
      </g>
    </g>
    <path fill="#fff" fill-opacity=".5" fill-rule="evenodd" d="m50 30.977 9.002 9.047H65v1h-6.412L50 32.394 32 50.393l-9.417-9.441h-7.6v-1h8.015L32 48.978l18-18Z" class="Vector 139 (Stroke)" clip-rule="evenodd"/>
  </g>
  <defs>
    <radialGradient id="c" cx="0" cy="0" r="1" class="c" gradientTransform="matrix(-11.00006 19.99994 -29.4117 -16.17658 55.5 41)" gradientUnits="userSpaceOnUse">
      <stop stop-color="#29C38C"/>
      <stop offset="1" stop-color="#29C38C" stop-opacity="0"/>
    </radialGradient>
    <radialGradient id="d" cx="0" cy="0" r="1" class="d" gradientTransform="matrix(13.99987 27.50001 -40.44124 20.58806 59 35)" gradientUnits="userSpaceOnUse">
      <stop offset=".504" stop-color="#29C38C" stop-opacity="0"/>
      <stop offset="1" stop-color="#29C38C"/>
    </radialGradient>
    <radialGradient id="f" cx="0" cy="0" r="1" class="f" gradientTransform="matrix(30.99998 -11.49997 16.91174 45.58823 21 37.5)" gradientUnits="userSpaceOnUse">
      <stop stop-color="#D74758"/>
      <stop offset="1" stop-color="#D74758" stop-opacity="0"/>
    </radialGradient>
    <radialGradient id="g" cx="0" cy="0" r="1" class="g" gradientTransform="matrix(-8.50012 -27 39.70583 -12.50016 49.5 40)" gradientUnits="userSpaceOnUse">
      <stop offset=".25" stop-color="#D74758" stop-opacity="0"/>
      <stop offset="1" stop-color="#D74758"/>
    </radialGradient>
    <radialGradient id="h" cx="0" cy="0" r="1" class="h" gradientTransform="matrix(-11.00006 19.99994 -29.4117 -16.17658 54.5 37)" gradientUnits="userSpaceOnUse">
      <stop stop-color="#29C38C"/>
      <stop offset="1" stop-color="#29C38C" stop-opacity="0"/>
    </radialGradient>
    <radialGradient id="i" cx="0" cy="0" r="1" class="i" gradientTransform="matrix(13.99987 27.50001 -40.44124 20.58806 58 31)" gradientUnits="userSpaceOnUse">
      <stop offset=".504" stop-color="#29C38C" stop-opacity="0"/>
      <stop offset="1" stop-color="#29C38C"/>
    </radialGradient>
    <radialGradient id="j" cx="0" cy="0" r="1" class="j" gradientTransform="matrix(30.99998 -11.49997 16.91174 45.58823 20 37.5)" gradientUnits="userSpaceOnUse">
      <stop stop-color="#D74758"/>
      <stop offset="1" stop-color="#D74758" stop-opacity="0"/>
    </radialGradient>
    <radialGradient id="k" cx="0" cy="0" r="1" class="k" gradientTransform="matrix(-8.50012 -27 39.70583 -12.50016 48.5 40)" gradientUnits="userSpaceOnUse">
      <stop offset=".25" stop-color="#D74758" stop-opacity="0"/>
      <stop offset="1" stop-color="#D74758"/>
    </radialGradient>
    <filter id="b" width="78" height="62" x="2" y="21" class="b" color-interpolation-filters="sRGB" filterUnits="userSpaceOnUse">
      <feFlood flood-opacity="0" result="BackgroundImageFix"/>
      <feBlend in="SourceGraphic" in2="BackgroundImageFix" result="shape"/>
      <feGaussianBlur result="effect1_foregroundBlur_55_2131" stdDeviation="7"/>
    </filter>
    <filter id="e" width="78" height="62" x="2" y="1" class="e" color-interpolation-filters="sRGB" filterUnits="userSpaceOnUse">
      <feFlood flood-opacity="0" result="BackgroundImageFix"/>
      <feBlend in="SourceGraphic" in2="BackgroundImageFix" result="shape"/>
      <feGaussianBlur result="effect1_foregroundBlur_55_2131" stdDeviation="7"/>
    </filter>
    <clipPath id="a" class="a">
      <path fill="#fff" d="M0 0h80v80H0z"/>
    </clipPath>
  </defs>
</svg>
