<svg xmlns="http://www.w3.org/2000/svg" width="80" height="80" fill="none" viewBox="0 0 80 80">
  <g class="warpcast">
    <path fill="#472A91" d="M50.592 60.987H29.395C23.663 60.987 19 56.324 19 50.592V29.396C19 23.664 23.663 19 29.395 19h21.197c5.732 0 10.395 4.664 10.395 10.396v21.196c0 5.732-4.663 10.395-10.395 10.395Z" class="Vector"/>
    <g class="Vector" filter="url(#a)" opacity=".5">
      <path fill="#472A91" d="M55.592 55.987H34.395C28.663 55.987 24 51.324 24 45.592V24.396C24 18.664 28.663 14 34.395 14h21.197c5.732 0 10.395 4.664 10.395 10.396v21.196c0 5.732-4.663 10.395-10.395 10.395Z"/>
    </g>
    <path fill="#fff" d="m46.55 32.288-2.07 7.775-2.077-7.775h-4.78l-2.097 7.832-2.09-7.832h-5.444l5.059 17.19h4.697l2.246-7.982 2.245 7.983h4.707l5.048-17.191H46.55Z" class="Vector"/>
  </g>
  <defs>
    <filter id="a" width="69.987" height="69.987" x="10" y="0" class="a" color-interpolation-filters="sRGB" filterUnits="userSpaceOnUse">
      <feFlood flood-opacity="0" result="BackgroundImageFix"/>
      <feBlend in="SourceGraphic" in2="BackgroundImageFix" result="shape"/>
      <feGaussianBlur result="effect1_foregroundBlur_55_2118" stdDeviation="7"/>
    </filter>
  </defs>
</svg>
