<svg xmlns="http://www.w3.org/2000/svg" width="80" height="80" fill="none" viewBox="0 0 80 80">
  <g filter="url(#a)">
    <g opacity=".7">
      <path fill="url(#b)" d="m33.468 50.659-16.714-9.536c-.969-.587-.996-2.593-.027-3.18l16.74-10.126a7.025 7.025 0 0 1 7.281 0l16.74 10.128c.97.586.943 2.215-.026 2.801L40.748 50.66a7.025 7.025 0 0 1-7.28 0v-.001Z" opacity=".69"/>
      <path fill="url(#c)" d="m58.215 42.83-.01 2.008a1.45 1.45 0 0 1-.727 1.403l-16.813 9.75a7.188 7.188 0 0 1-7.28-.054l-16.669-9.989a1.453 1.453 0 0 1-.708-1.11L16 44.834v-5.219c.005.482.247.96.726 1.244l16.74 9.867a7.178 7.178 0 0 0 7.281 0l16.741-9.867c.479-.284.72-.762.727-1.244v3.216Z"/>
    </g>
    <g opacity=".4">
      <path fill="url(#d)" d="M33.468 59.705 16.754 50.17c-.969-.586-.996-2.593-.027-3.18l16.74-10.126a7.025 7.025 0 0 1 7.281 0l16.74 10.128c.97.587.943 2.215-.026 2.801l-16.714 9.914a7.025 7.025 0 0 1-7.28 0Z" opacity=".69"/>
      <path fill="url(#e)" d="m58.215 51.877-.01 2.008a1.45 1.45 0 0 1-.727 1.403l-16.813 9.748a7.188 7.188 0 0 1-7.28-.053l-16.669-9.989a1.453 1.453 0 0 1-.708-1.11L16 53.882v-5.22c.005.482.247.96.726 1.244l16.74 9.867a7.178 7.178 0 0 0 7.281 0l16.741-9.867c.479-.284.72-.762.727-1.244v3.216Z"/>
    </g>
    <path fill="url(#f)" d="m33.468 40.859-16.714-9.536c-.969-.587-.996-2.593-.027-3.18l16.74-10.126a7.025 7.025 0 0 1 7.281 0l16.74 10.128c.97.586.943 2.215-.026 2.801L40.748 40.86a7.025 7.025 0 0 1-7.28 0v-.001Z" opacity=".69"/>
    <path fill="url(#g)" d="m58.215 33.03-.01 2.008a1.45 1.45 0 0 1-.727 1.403l-16.813 9.75a7.188 7.188 0 0 1-7.28-.054l-16.669-9.989a1.453 1.453 0 0 1-.708-1.11L16 35.035v-5.22c.005.482.247.96.726 1.244l16.74 9.867a7.178 7.178 0 0 0 7.281 0l16.741-9.867c.479-.284.72-.762.727-1.244v3.216Z"/>
  </g>
  <g opacity=".7">
    <path fill="url(#h)" d="m36.206 51.046-17.42-9.939c-1.01-.611-1.039-2.702-.029-3.314l17.449-10.555a7.322 7.322 0 0 1 7.588 0l17.448 10.557c1.01.611.982 2.308-.028 2.92l-17.42 10.333a7.323 7.323 0 0 1-7.588 0v-.002Z" opacity=".69"/>
    <path fill="url(#i)" d="m62 42.887-.01 2.093a1.51 1.51 0 0 1-.76 1.462l-17.522 10.16a7.491 7.491 0 0 1-7.589-.054L18.747 46.136a1.514 1.514 0 0 1-.738-1.156L18 44.975v-5.44c.006.503.258 1.001.756 1.297l17.45 10.284a7.482 7.482 0 0 0 7.587 0l17.45-10.284A1.52 1.52 0 0 0 62 39.536v3.351Z"/>
  </g>
  <g opacity=".4">
    <path fill="url(#j)" d="m36.206 60.475-17.42-9.94c-1.01-.61-1.039-2.702-.029-3.313l17.449-10.555a7.323 7.323 0 0 1 7.588 0l17.448 10.556c1.01.612.982 2.309-.028 2.92l-17.42 10.333a7.322 7.322 0 0 1-7.588 0v-.001Z" opacity=".69"/>
    <path fill="url(#k)" d="m62 52.316-.01 2.092c.052.559-.2 1.14-.76 1.462L43.709 66.031a7.492 7.492 0 0 1-7.589-.055l-17.372-10.41a1.514 1.514 0 0 1-.738-1.158l-.01-.004v-5.44c.006.502.258 1.001.756 1.297l17.45 10.284a7.482 7.482 0 0 0 7.587 0l17.45-10.284A1.52 1.52 0 0 0 62 48.964v3.352Z"/>
  </g>
  <path fill="url(#l)" d="m36.206 40.832-17.42-9.94c-1.01-.61-1.039-2.702-.029-3.313l17.449-10.555a7.323 7.323 0 0 1 7.588 0L61.242 27.58c1.01.612.982 2.309-.028 2.92l-17.42 10.333a7.323 7.323 0 0 1-7.588 0v-.001Z" opacity=".69"/>
  <path fill="url(#m)" d="m62 32.673-.01 2.092a1.51 1.51 0 0 1-.76 1.463l-17.522 10.16a7.491 7.491 0 0 1-7.589-.055l-17.372-10.41a1.514 1.514 0 0 1-.738-1.158L18 34.761v-5.44c.006.502.258 1.001.756 1.297l17.45 10.284a7.482 7.482 0 0 0 7.587 0l17.45-10.284A1.52 1.52 0 0 0 62 29.322v3.351Z"/>
  <defs>
    <linearGradient id="b" x1="19.968" x2="45.219" y1="28.644" y2="44.034" gradientUnits="userSpaceOnUse">
      <stop stop-color="#2D8EFF"/>
      <stop offset="1" stop-color="#2D8EFF" stop-opacity=".4"/>
    </linearGradient>
    <linearGradient id="c" x1="18.696" x2="46.186" y1="32.085" y2="48.617" gradientUnits="userSpaceOnUse">
      <stop stop-color="#2D8EFF"/>
      <stop offset="1" stop-color="#2D8EFF" stop-opacity=".4"/>
    </linearGradient>
    <linearGradient id="d" x1="19.968" x2="45.219" y1="37.69" y2="53.08" gradientUnits="userSpaceOnUse">
      <stop stop-color="#2D8EFF"/>
      <stop offset="1" stop-color="#2D8EFF" stop-opacity=".4"/>
    </linearGradient>
    <linearGradient id="e" x1="18.696" x2="46.186" y1="41.131" y2="57.663" gradientUnits="userSpaceOnUse">
      <stop stop-color="#2D8EFF"/>
      <stop offset="1" stop-color="#2D8EFF" stop-opacity=".4"/>
    </linearGradient>
    <linearGradient id="f" x1="19.968" x2="45.219" y1="18.844" y2="34.234" gradientUnits="userSpaceOnUse">
      <stop stop-color="#2D8EFF"/>
      <stop offset="1" stop-color="#2D8EFF" stop-opacity=".4"/>
    </linearGradient>
    <linearGradient id="g" x1="18.696" x2="46.186" y1="22.285" y2="38.817" gradientUnits="userSpaceOnUse">
      <stop stop-color="#2D8EFF"/>
      <stop offset="1" stop-color="#2D8EFF" stop-opacity=".4"/>
    </linearGradient>
    <linearGradient id="h" x1="22.135" x2="48.453" y1="28.101" y2="44.142" gradientUnits="userSpaceOnUse">
      <stop stop-color="#2D8EFF"/>
      <stop offset="1" stop-color="#2D8EFF" stop-opacity=".4"/>
    </linearGradient>
    <linearGradient id="i" x1="20.81" x2="49.462" y1="31.687" y2="48.918" gradientUnits="userSpaceOnUse">
      <stop stop-color="#2D8EFF"/>
      <stop offset="1" stop-color="#2D8EFF" stop-opacity=".4"/>
    </linearGradient>
    <linearGradient id="j" x1="22.135" x2="48.453" y1="37.529" y2="53.57" gradientUnits="userSpaceOnUse">
      <stop stop-color="#2D8EFF"/>
      <stop offset="1" stop-color="#2D8EFF" stop-opacity=".4"/>
    </linearGradient>
    <linearGradient id="k" x1="20.81" x2="49.462" y1="41.116" y2="58.347" gradientUnits="userSpaceOnUse">
      <stop stop-color="#2D8EFF"/>
      <stop offset="1" stop-color="#2D8EFF" stop-opacity=".4"/>
    </linearGradient>
    <linearGradient id="l" x1="22.135" x2="48.453" y1="17.886" y2="33.927" gradientUnits="userSpaceOnUse">
      <stop stop-color="#2D8EFF"/>
      <stop offset="1" stop-color="#2D8EFF" stop-opacity=".4"/>
    </linearGradient>
    <linearGradient id="m" x1="20.81" x2="49.462" y1="21.473" y2="38.704" gradientUnits="userSpaceOnUse">
      <stop stop-color="#2D8EFF"/>
      <stop offset="1" stop-color="#2D8EFF" stop-opacity=".4"/>
    </linearGradient>
    <filter id="a" width="62.216" height="69" x="6" y="7" color-interpolation-filters="sRGB" filterUnits="userSpaceOnUse">
      <feFlood flood-opacity="0" result="BackgroundImageFix"/>
      <feBlend in="SourceGraphic" in2="BackgroundImageFix" result="shape"/>
      <feGaussianBlur result="effect1_foregroundBlur_55_2125" stdDeviation="5"/>
    </filter>
  </defs>
</svg>
