<svg width="80" height="80" viewBox="0 0 80 80" fill="none" xmlns="http://www.w3.org/2000/svg">
<path fill-rule="evenodd" clip-rule="evenodd" d="M40.5178 19C28.619 19 19 28.625 19 40.5323C19 50.0506 25.1632 58.1075 33.7133 60.9591C34.7822 61.1735 35.1738 60.4958 35.1738 59.9258C35.1738 59.4266 35.1386 57.7155 35.1386 55.9327C29.1528 57.2163 27.9064 53.3659 27.9064 53.3659C26.9444 50.8704 25.5191 50.2291 25.5191 50.2291C23.56 48.91 25.6618 48.91 25.6618 48.91C27.835 49.0526 28.9753 51.1202 28.9753 51.1202C30.8988 54.3997 33.9982 53.4731 35.2452 52.9026C35.4231 51.5122 35.9935 50.5497 36.5991 50.0151C31.8251 49.5159 26.8021 47.6623 26.8021 39.3914C26.8021 37.0385 27.6566 35.1135 29.0106 33.6164C28.797 33.0818 28.0486 30.8711 29.2246 27.9123C29.2246 27.9123 31.0415 27.3418 35.1381 30.1225C36.892 29.6512 38.7008 29.4114 40.5178 29.4094C42.3347 29.4094 44.1867 29.6592 45.897 30.1225C49.9941 27.3418 51.811 27.9123 51.811 27.9123C52.987 30.8711 52.2382 33.0818 52.0246 33.6164C53.4142 35.1135 54.2334 37.0385 54.2334 39.3914C54.2334 47.6623 49.2105 49.4801 44.4008 50.0151C45.1848 50.6924 45.8613 51.9755 45.8613 54.0077C45.8613 56.8952 45.8261 59.2126 45.8261 59.9253C45.8261 60.4958 46.2181 61.1735 47.2866 60.9596C55.8367 58.1071 61.9999 50.0506 61.9999 40.5323C62.0351 28.625 52.3809 19 40.5178 19Z" fill="white"/>
<g filter="url(#filter0_f_1533_25775)">
<path fill-rule="evenodd" clip-rule="evenodd" d="M44.5161 17C33.7242 17 25 25.7083 25 36.4816C25 45.0934 30.5899 52.383 38.3446 54.963C39.3141 55.157 39.6693 54.5438 39.6693 54.0281C39.6693 53.5764 39.6373 52.0283 39.6373 50.4153C34.2084 51.5767 33.0779 48.093 33.0779 48.093C32.2054 45.8352 30.9127 45.2549 30.9127 45.2549C29.1358 44.0614 31.0421 44.0614 31.0421 44.0614C33.0131 44.1905 34.0474 46.0612 34.0474 46.0612C35.7919 49.0283 38.6031 48.19 39.734 47.6738C39.8954 46.4158 40.4127 45.545 40.962 45.0613C36.632 44.6097 32.0764 42.9325 32.0764 35.4493C32.0764 33.3205 32.8514 31.5789 34.0794 30.2243C33.8856 29.7406 33.2069 27.7405 34.2735 25.0635C34.2735 25.0635 35.9213 24.5473 39.6369 27.0632C41.2277 26.6368 42.8682 26.4199 44.5161 26.418C46.164 26.418 47.8438 26.644 49.395 27.0632C53.1109 24.5473 54.7588 25.0635 54.7588 25.0635C55.8254 27.7405 55.1463 29.7406 54.9525 30.2243C56.2129 31.5789 56.9559 33.3205 56.9559 35.4493C56.9559 42.9325 52.4002 44.5772 48.0379 45.0613C48.749 45.674 49.3626 46.835 49.3626 48.6737C49.3626 51.2861 49.3307 53.3829 49.3307 54.0277C49.3307 54.5438 49.6862 55.157 50.6553 54.9634C58.41 52.3826 63.9999 45.0934 63.9999 36.4816C64.0319 25.7083 55.2757 17 44.5161 17Z" fill="white" fill-opacity="0.4"/>
</g>
<defs>
<filter id="filter0_f_1533_25775" x="11" y="3" width="67" height="66" filterUnits="userSpaceOnUse" color-interpolation-filters="sRGB">
<feFlood flood-opacity="0" result="BackgroundImageFix"/>
<feBlend mode="normal" in="SourceGraphic" in2="BackgroundImageFix" result="shape"/>
<feGaussianBlur stdDeviation="7" result="effect1_foregroundBlur_1533_25775"/>
</filter>
</defs>
</svg>
