<svg width="80" height="80" viewBox="0 0 80 80" fill="none" xmlns="http://www.w3.org/2000/svg">
<g opacity="0.5" filter="url(#filter0_f_1690_18865)">
<path opacity="0.6" d="M53.7672 39.4713L54.1703 40.0849C58.7161 47.0053 57.7009 56.0687 51.7294 61.8752C48.2164 65.2911 43.6122 66.9994 39.0079 66.9998C39.0079 66.9998 39.0079 66.9998 53.7672 39.4713Z" fill="white"/>
<path opacity="0.2" d="M39.0063 47.8379L53.7656 39.4713C39.0063 66.9998 39.0063 66.9998 39.0063 66.9998C39.0063 61.0043 39.0063 54.1343 39.0063 47.8379Z" fill="white"/>
<path d="M24.2328 39.4713L23.8297 40.0849C19.2839 47.0053 20.2991 56.0687 26.2706 61.8752C29.7836 65.2911 34.3878 66.9994 38.9921 66.9998C38.9921 66.9998 38.9921 66.9998 24.2328 39.4713Z" fill="white"/>
<path opacity="0.6" d="M38.9879 47.8379L24.2285 39.4713C38.9879 66.9998 38.9879 66.9998 38.9879 66.9998C38.9879 61.0043 38.9879 54.1343 38.9879 47.8379Z" fill="white"/>
<path opacity="0.2" d="M39.0117 29.1472V43.5773L51.7253 36.3669L39.0117 29.1472Z" fill="white"/>
<path opacity="0.6" d="M39.0079 29.1472L26.2852 36.3668L39.0079 43.5773V29.1472Z" fill="white"/>
<path d="M39.0079 17.0115L26.2852 36.3714L39.0079 29.1315V17.0115Z" fill="white"/>
<path opacity="0.6" d="M39.0117 29.1295L51.735 36.3695L39.0117 17V29.1295Z" fill="white"/>
</g>
<path opacity="0.6" d="M54.7672 36.4713L55.1703 37.0849C59.7161 44.0053 58.7009 53.0687 52.7294 58.8752C49.2164 62.2911 44.6122 63.9994 40.0079 63.9998C40.0079 63.9998 40.0079 63.9998 54.7672 36.4713Z" fill="white"/>
<path opacity="0.2" d="M40.0063 44.8379L54.7656 36.4713C40.0063 63.9998 40.0063 63.9998 40.0063 63.9998C40.0063 58.0043 40.0063 51.1343 40.0063 44.8379Z" fill="white"/>
<path d="M25.2328 36.4713L24.8297 37.0849C20.2839 44.0053 21.2991 53.0687 27.2706 58.8752C30.7836 62.2911 35.3878 63.9994 39.9921 63.9998C39.9921 63.9998 39.9921 63.9998 25.2328 36.4713Z" fill="white"/>
<path opacity="0.6" d="M39.9879 44.8379L25.2285 36.4713C39.9879 63.9998 39.9879 63.9998 39.9879 63.9998C39.9879 58.0043 39.9879 51.1343 39.9879 44.8379Z" fill="white"/>
<path opacity="0.2" d="M40.0117 26.1472V40.5773L52.7253 33.3669L40.0117 26.1472Z" fill="white"/>
<path opacity="0.6" d="M40.0079 26.1472L27.2852 33.3668L40.0079 40.5773V26.1472Z" fill="white"/>
<path d="M40.0079 14.0115L27.2852 33.3714L40.0079 26.1315V14.0115Z" fill="white"/>
<path opacity="0.6" d="M40.0117 26.1295L52.735 33.3695L40.0117 14V26.1295Z" fill="white"/>
<defs>
<filter id="filter0_f_1690_18865" x="13" y="9" width="52" height="65.9999" filterUnits="userSpaceOnUse" color-interpolation-filters="sRGB">
<feFlood flood-opacity="0" result="BackgroundImageFix"/>
<feBlend mode="normal" in="SourceGraphic" in2="BackgroundImageFix" result="shape"/>
<feGaussianBlur stdDeviation="4" result="effect1_foregroundBlur_1690_18865"/>
</filter>
</defs>
</svg>