<svg xmlns="http://www.w3.org/2000/svg" width="80" height="80" fill="none" viewBox="0 0 80 80">
  <g clip-path="url(#a)">
    <path fill="#fff" fill-opacity=".45" d="M35.861 51.53 16.858 40.689c-1.102-.667-1.133-2.948-.031-3.615L35.86 25.56a7.988 7.988 0 0 1 8.278 0l19.035 11.516c1.101.667 1.101 2.64 0 3.306l-19.034 11.15a7.988 7.988 0 0 1-8.278 0v-.001Z"/>
    <path fill="url(#b)" fill-opacity=".5" d="M35.861 51.53 16.858 40.689c-1.102-.667-1.133-2.948-.031-3.615L35.86 25.56a7.988 7.988 0 0 1 8.278 0l19.035 11.516c1.101.667 1.101 2.64 0 3.306l-19.034 11.15a7.988 7.988 0 0 1-8.278 0v-.001Z"/>
    <path fill="url(#c)" fill-opacity=".8" d="m64 42.63-.011 13.489a1.648 1.648 0 0 1-.828 1.595L44.044 68.8a8.173 8.173 0 0 1-8.278-.06L16.814 57.38a1.652 1.652 0 0 1-.805-1.262L16 56.114v-17.14c.006.547.281 1.092.825 1.414L35.86 51.607a8.162 8.162 0 0 0 8.278 0l19.035-11.219c.544-.322.819-.867.827-1.414v3.656Z"/>
    <g filter="url(#d)" opacity=".7">
      <path fill="#fff" fill-opacity=".45" d="M32.861 51.53 13.858 40.689c-1.102-.667-1.133-2.948-.031-3.615L32.86 25.56a7.988 7.988 0 0 1 8.278 0l19.035 11.516c1.102.667 1.102 2.64 0 3.306l-19.034 11.15a7.988 7.988 0 0 1-8.278 0v-.001Z"/>
      <path fill="url(#e)" fill-opacity=".5" d="M32.861 51.53 13.858 40.689c-1.102-.667-1.133-2.948-.031-3.615L32.86 25.56a7.988 7.988 0 0 1 8.278 0l19.035 11.516c1.102.667 1.102 2.64 0 3.306l-19.034 11.15a7.988 7.988 0 0 1-8.278 0v-.001Z"/>
      <path fill="url(#f)" fill-opacity=".8" d="m61 42.63-.011 13.489a1.648 1.648 0 0 1-.828 1.595L41.044 68.8a8.173 8.173 0 0 1-8.278-.06L13.814 57.38a1.652 1.652 0 0 1-.805-1.262L13 56.114v-17.14c.006.547.281 1.092.825 1.414L32.86 51.607a8.162 8.162 0 0 0 8.278 0l19.035-11.219c.544-.322.819-.867.827-1.414v3.656Z"/>
    </g>
    <path fill="url(#g)" d="M36.705 19.636c0 .022-.004.046-.006.068 0 .008 0 .018-.002.026a.666.666 0 0 1-.034.104.346.346 0 0 1-.03.062.827.827 0 0 1-.046.069l-.01.014a.856.856 0 0 1-.083.088l-.038.034c-.014.012-.028.024-.042.034-.014.012-.032.022-.046.034-.016.01-.03.023-.048.032-.012.007-.024.015-.036.02-.036.02-.073.04-.113.059l-.036.018c-.05.022-.1.042-.157.06-.006 0-.011.004-.017.006a1.917 1.917 0 0 1-.42.086 9.596 9.596 0 0 1-.07.006 1.172 1.172 0 0 1-.085.006c-.026 0-.054 0-.082.003h-.07c-.046 0-.093 0-.139-.006l-8.924-.589a2.703 2.703 0 0 1-.229-.028l-.046-.008a3.25 3.25 0 0 1-.213-.048l-.022-.008a2.215 2.215 0 0 1-.213-.076 1.733 1.733 0 0 1-.172-.085c-.237-.136-.396-.315-.436-.513l-1.046-5.167a.473.473 0 0 1-.01-.107l-.114 25.945c0 .034.004.07.01.106l1.046 5.167c.04.199.198.38.435.514.054.03.113.058.173.084l.028.012c.008.002.014.006.022.01.052.02.107.038.163.054l.022.008h.002a3.224 3.224 0 0 0 .21.049l.047.008a3.234 3.234 0 0 0 .205.026h.024l8.924.588.11.006h.179c.028 0 .056-.004.084-.006.016 0 .032 0 .049-.004l.02-.002a2.826 2.826 0 0 0 .166-.024h.004a2 2 0 0 0 .251-.063c.004 0 .008 0 .012-.004.002 0 .004 0 .006-.002a1.96 1.96 0 0 0 .157-.06l.036-.018a2.013 2.013 0 0 0 .134-.07l.012-.008.048-.032c.017-.01.033-.022.047-.032l.042-.034c.01-.009.022-.017.03-.026l.008-.009a.845.845 0 0 0 .139-.17v-.002l.028-.058c.004-.008.008-.014.01-.023a.597.597 0 0 0 .024-.08v-.002c0-.008 0-.018.004-.026.002-.018.006-.036.006-.054v-.012l.114-25.944.004-.006Z"/>
    <path fill="url(#h)" d="M36.705 19.636c0 .022-.004.046-.006.068 0 .008 0 .018-.002.026a.666.666 0 0 1-.034.104.346.346 0 0 1-.03.062.827.827 0 0 1-.046.069l-.01.014a.856.856 0 0 1-.083.088l-.038.034c-.014.012-.028.024-.042.034-.014.012-.032.022-.046.034-.016.01-.03.023-.048.032-.012.007-.024.015-.036.02-.036.02-.073.04-.113.059l-.036.018c-.05.022-.1.042-.157.06-.006 0-.011.004-.017.006a1.917 1.917 0 0 1-.42.086 9.596 9.596 0 0 1-.07.006 1.172 1.172 0 0 1-.085.006c-.026 0-.054 0-.082.003h-.07c-.046 0-.093 0-.139-.006l-8.924-.589a2.703 2.703 0 0 1-.229-.028l-.046-.008a3.25 3.25 0 0 1-.213-.048l-.022-.008a2.215 2.215 0 0 1-.213-.076 1.733 1.733 0 0 1-.172-.085c-.237-.136-.396-.315-.436-.513l-1.046-5.167a.473.473 0 0 1-.01-.107l-.114 25.945c0 .034.004.07.01.106l1.046 5.167c.04.199.198.38.435.514.054.03.113.058.173.084l.028.012c.008.002.014.006.022.01.052.02.107.038.163.054l.022.008h.002a3.224 3.224 0 0 0 .21.049l.047.008a3.234 3.234 0 0 0 .205.026h.024l8.924.588.11.006h.179c.028 0 .056-.004.084-.006.016 0 .032 0 .049-.004l.02-.002a2.826 2.826 0 0 0 .166-.024h.004a2 2 0 0 0 .251-.063c.004 0 .008 0 .012-.004.002 0 .004 0 .006-.002a1.96 1.96 0 0 0 .157-.06l.036-.018a2.013 2.013 0 0 0 .134-.07l.012-.008.048-.032c.017-.01.033-.022.047-.032l.042-.034c.01-.009.022-.017.03-.026l.008-.009a.845.845 0 0 0 .139-.17v-.002l.028-.058c.004-.008.008-.014.01-.023a.597.597 0 0 0 .024-.08v-.002c0-.008 0-.018.004-.026.002-.018.006-.036.006-.054v-.012l.114-25.944.004-.006Z"/>
    <path fill="url(#i)" d="M50.603 20.647s0 .018-.004.026a.666.666 0 0 1-.024.084l-.01.02c-.01.022-.018.042-.03.064a.738.738 0 0 1-.048.073l-.006.01a.836.836 0 0 1-.082.088c-.012.012-.026.022-.04.034l-.043.034a.376.376 0 0 1-.046.032l-.048.033-.036.02a1.83 1.83 0 0 1-.11.058l-.037.018c-.05.022-.1.042-.154.06-.006 0-.012.004-.018.006a1.917 1.917 0 0 1-.277.066c-.046.008-.095.014-.143.02a6.088 6.088 0 0 1-.07.006l-.084.006c-.026 0-.054 0-.083.002h-.07c-.046 0-.092-.002-.138-.006l-8.925-.588a2.857 2.857 0 0 1-.23-.028l-.047-.008a2.98 2.98 0 0 1-.212-.048c-.005 0-.01-.004-.014-.004a2.706 2.706 0 0 1-.193-.066l-.028-.012a1.733 1.733 0 0 1-.173-.085c-.235-.136-.393-.315-.434-.513L37.7 14.882a.387.387 0 0 1-.01-.107l-.115 25.945c0 .034.004.07.01.106l1.048 5.167c.04.199.197.38.434.514.054.03.112.058.172.084l.028.012c.008.002.014.006.02.01.055.022.113.04.171.058.006 0 .01.004.014.004a2.2 2.2 0 0 0 .16.04c.017.005.035.007.05.009l.047.008.054.01a3.234 3.234 0 0 0 .175.018l8.924.588.115.006h.174c.028 0 .056-.004.085-.006.016 0 .034 0 .05-.004l.02-.002c.048-.006.096-.012.142-.02.008 0 .016 0 .022-.004h.004a2.16 2.16 0 0 0 .251-.063c.004 0 .008 0 .012-.004.002 0 .004 0 .006-.002.055-.018.107-.038.155-.06l.036-.018c.038-.018.076-.038.11-.058l.023-.012.012-.008a.64.64 0 0 0 .048-.032l.046-.032.042-.034c.01-.008.022-.017.03-.026.004-.002.006-.007.008-.009a.845.845 0 0 0 .083-.088l.006-.01a.776.776 0 0 0 .048-.072v-.002c.012-.02.02-.04.028-.062l.01-.02a.558.558 0 0 0 .024-.083v-.002c0-.008 0-.018.004-.026.002-.018.006-.036.006-.054v-.012l.114-25.945c0 .023-.004.045-.006.067l.014-.004Z"/>
    <path fill="url(#j)" d="M50.603 20.647s0 .018-.004.026a.666.666 0 0 1-.024.084l-.01.02c-.01.022-.018.042-.03.064a.738.738 0 0 1-.048.073l-.006.01a.836.836 0 0 1-.082.088c-.012.012-.026.022-.04.034l-.043.034a.376.376 0 0 1-.046.032l-.048.033-.036.02a1.83 1.83 0 0 1-.11.058l-.037.018c-.05.022-.1.042-.154.06-.006 0-.012.004-.018.006a1.917 1.917 0 0 1-.277.066c-.046.008-.095.014-.143.02a6.088 6.088 0 0 1-.07.006l-.084.006c-.026 0-.054 0-.083.002h-.07c-.046 0-.092-.002-.138-.006l-8.925-.588a2.857 2.857 0 0 1-.23-.028l-.047-.008a2.98 2.98 0 0 1-.212-.048c-.005 0-.01-.004-.014-.004a2.706 2.706 0 0 1-.193-.066l-.028-.012a1.733 1.733 0 0 1-.173-.085c-.235-.136-.393-.315-.434-.513L37.7 14.882a.387.387 0 0 1-.01-.107l-.115 25.945c0 .034.004.07.01.106l1.048 5.167c.04.199.197.38.434.514.054.03.112.058.172.084l.028.012c.008.002.014.006.02.01.055.022.113.04.171.058.006 0 .01.004.014.004a2.2 2.2 0 0 0 .16.04c.017.005.035.007.05.009l.047.008.054.01a3.234 3.234 0 0 0 .175.018l8.924.588.115.006h.174c.028 0 .056-.004.085-.006.016 0 .034 0 .05-.004l.02-.002c.048-.006.096-.012.142-.02.008 0 .016 0 .022-.004h.004a2.16 2.16 0 0 0 .251-.063c.004 0 .008 0 .012-.004.002 0 .004 0 .006-.002.055-.018.107-.038.155-.06l.036-.018c.038-.018.076-.038.11-.058l.023-.012.012-.008a.64.64 0 0 0 .048-.032l.046-.032.042-.034c.01-.008.022-.017.03-.026.004-.002.006-.007.008-.009a.845.845 0 0 0 .083-.088l.006-.01a.776.776 0 0 0 .048-.072v-.002c.012-.02.02-.04.028-.062l.01-.02a.558.558 0 0 0 .024-.083v-.002c0-.008 0-.018.004-.026.002-.018.006-.036.006-.054v-.012l.114-25.945c0 .023-.004.045-.006.067l.014-.004Z"/>
    <path fill="url(#k)" d="M38.364 27.761s0 .018-.002.026a.667.667 0 0 1-.024.084c-.002.008-.008.015-.01.023a.807.807 0 0 1-.028.06c-.014.024-.03.046-.046.07l-.01.014a.845.845 0 0 1-.083.088l-.038.034a.663.663 0 0 1-.042.035c-.014.012-.032.022-.046.034-.016.01-.03.022-.048.032l-.034.02c-.036.02-.073.04-.113.058l-.036.018c-.05.022-.1.042-.156.06-.006 0-.012.004-.019.006a1.931 1.931 0 0 1-.279.067c-.046.008-.094.014-.142.02l-.07.006-.085.006c-.026 0-.054 0-.082.002H36.9c-.046 0-.092 0-.139-.006l-8.924-.588a2.708 2.708 0 0 1-.229-.029l-.046-.008a3.314 3.314 0 0 1-.213-.048l-.02-.006a2.605 2.605 0 0 1-.186-.064l-.029-.012a1.732 1.732 0 0 1-.172-.084c-.235-.137-.394-.315-.434-.514l-1.048-5.167a.479.479 0 0 1-.01-.106L25.335 57.1c0 .034.004.07.01.106l1.048 5.167c.04.199.198.378.433.514.055.03.113.058.173.084l.028.012c.008.002.014.006.022.01.052.02.109.038.165.057l.02.006h.002a3.2 3.2 0 0 0 .211.048l.046.008a3.375 3.375 0 0 0 .205.026h.024l8.924.588.112.006h.181c.028 0 .056-.004.084-.006.016 0 .032 0 .048-.004l.02-.002a2.9 2.9 0 0 0 .143-.02c.008 0 .016 0 .022-.004h.002a2.34 2.34 0 0 0 .253-.062c.004 0 .008 0 .012-.002.002 0 .004 0 .006-.002.054-.018.107-.038.157-.06l.036-.019a2.086 2.086 0 0 0 .134-.07l.012-.008a.672.672 0 0 0 .095-.066l.042-.034c.01-.008.022-.016.032-.026l.008-.008a.834.834 0 0 0 .082-.089l.01-.014.047-.068v-.002c.012-.02.02-.04.028-.06a.628.628 0 0 0 .034-.1v-.003c0-.008 0-.018.002-.026.002-.018.006-.036.006-.054v-.012l.114-35.208c0 .022-.004.046-.006.068l.002-.01Z"/>
    <path fill="url(#l)" d="M38.364 27.761s0 .018-.002.026a.667.667 0 0 1-.024.084c-.002.008-.008.015-.01.023a.807.807 0 0 1-.028.06c-.014.024-.03.046-.046.07l-.01.014a.845.845 0 0 1-.083.088l-.038.034a.663.663 0 0 1-.042.035c-.014.012-.032.022-.046.034-.016.01-.03.022-.048.032l-.034.02c-.036.02-.073.04-.113.058l-.036.018c-.05.022-.1.042-.156.06-.006 0-.012.004-.019.006a1.931 1.931 0 0 1-.279.067c-.046.008-.094.014-.142.02l-.07.006-.085.006c-.026 0-.054 0-.082.002H36.9c-.046 0-.092 0-.139-.006l-8.924-.588a2.708 2.708 0 0 1-.229-.029l-.046-.008a3.314 3.314 0 0 1-.213-.048l-.02-.006a2.605 2.605 0 0 1-.186-.064l-.029-.012a1.732 1.732 0 0 1-.172-.084c-.235-.137-.394-.315-.434-.514l-1.048-5.167a.479.479 0 0 1-.01-.106L25.335 57.1c0 .034.004.07.01.106l1.048 5.167c.04.199.198.378.433.514.055.03.113.058.173.084l.028.012c.008.002.014.006.022.01.052.02.109.038.165.057l.02.006h.002a3.2 3.2 0 0 0 .211.048l.046.008a3.375 3.375 0 0 0 .205.026h.024l8.924.588.112.006h.181c.028 0 .056-.004.084-.006.016 0 .032 0 .048-.004l.02-.002a2.9 2.9 0 0 0 .143-.02c.008 0 .016 0 .022-.004h.002a2.34 2.34 0 0 0 .253-.062c.004 0 .008 0 .012-.002.002 0 .004 0 .006-.002.054-.018.107-.038.157-.06l.036-.019a2.086 2.086 0 0 0 .134-.07l.012-.008a.672.672 0 0 0 .095-.066l.042-.034c.01-.008.022-.016.032-.026l.008-.008a.834.834 0 0 0 .082-.089l.01-.014.047-.068v-.002c.012-.02.02-.04.028-.06a.628.628 0 0 0 .034-.1v-.003c0-.008 0-.018.002-.026.002-.018.006-.036.006-.054v-.012l.114-35.208c0 .022-.004.046-.006.068l.002-.01Z"/>
    <path fill="url(#m)" d="M56.69 31.245s0 .019-.003.027a.667.667 0 0 1-.034.104.539.539 0 0 1-.078.132c-.002.005-.006.009-.008.012a.824.824 0 0 1-.082.089c-.012.012-.026.022-.04.034a.632.632 0 0 1-.043.034c-.014.012-.03.022-.046.034-.016.01-.03.022-.048.032l-.036.02c-.036.02-.072.04-.112.059l-.037.018c-.05.022-.1.042-.154.06-.006 0-.012.004-.018.006a1.9 1.9 0 0 1-.251.062c-.01 0-.018.002-.028.004a2.843 2.843 0 0 1-.211.026l-.084.006c-.027 0-.055 0-.083.002h-.07c-.046 0-.092 0-.138-.006l-8.925-.588a2.75 2.75 0 0 1-.229-.028l-.046-.008a3.314 3.314 0 0 1-.213-.048c-.006 0-.014-.004-.02-.006a2.54 2.54 0 0 1-.186-.064l-.028-.012a1.732 1.732 0 0 1-.173-.085c-.235-.136-.395-.315-.436-.514l-1.045-5.166a.391.391 0 0 1-.01-.107L43.66 51.32c0 .034.004.07.01.106l1.046 5.167c.04.198.199.38.436.514.054.03.112.058.172.084l.028.012c.008.002.014.006.022.01.053.02.109.038.165.056l.02.006h.002a2.995 2.995 0 0 0 .211.048l.046.008a3.534 3.534 0 0 0 .205.026h.024l8.924.589.113.006h.178c.028 0 .056-.004.084-.006.017 0 .033 0 .049-.004l.02-.002.14-.02c.008 0 .016 0 .024-.005h.004a2.19 2.19 0 0 0 .251-.062c.004 0 .008 0 .012-.004.002 0 .004 0 .006-.002a1.528 1.528 0 0 0 .304-.136c.005-.004.016-.008.022-.012l.012-.008c.016-.01.032-.02.048-.032.016-.01.032-.023.046-.033l.042-.034c.01-.008.022-.016.03-.026l.008-.008a.845.845 0 0 0 .083-.088l.008-.012a.381.381 0 0 0 .046-.07v-.002c.01-.02.02-.04.028-.06.002-.007.008-.015.01-.02a.597.597 0 0 0 .024-.081v-.002c0-.008 0-.018.004-.026.002-.018.006-.036.006-.054v-.012l.114-25.945c0 .022-.004.044-.006.069l.008-.009Z"/>
    <path fill="url(#n)" d="M56.69 31.245s0 .019-.003.027a.667.667 0 0 1-.034.104.539.539 0 0 1-.078.132c-.002.005-.006.009-.008.012a.824.824 0 0 1-.082.089c-.012.012-.026.022-.04.034a.632.632 0 0 1-.043.034c-.014.012-.03.022-.046.034-.016.01-.03.022-.048.032l-.036.02c-.036.02-.072.04-.112.059l-.037.018c-.05.022-.1.042-.154.06-.006 0-.012.004-.018.006a1.9 1.9 0 0 1-.251.062c-.01 0-.018.002-.028.004a2.843 2.843 0 0 1-.211.026l-.084.006c-.027 0-.055 0-.083.002h-.07c-.046 0-.092 0-.138-.006l-8.925-.588a2.75 2.75 0 0 1-.229-.028l-.046-.008a3.314 3.314 0 0 1-.213-.048c-.006 0-.014-.004-.02-.006a2.54 2.54 0 0 1-.186-.064l-.028-.012a1.732 1.732 0 0 1-.173-.085c-.235-.136-.395-.315-.436-.514l-1.045-5.166a.391.391 0 0 1-.01-.107L43.66 51.32c0 .034.004.07.01.106l1.046 5.167c.04.198.199.38.436.514.054.03.112.058.172.084l.028.012c.008.002.014.006.022.01.053.02.109.038.165.056l.02.006h.002a2.995 2.995 0 0 0 .211.048l.046.008a3.534 3.534 0 0 0 .205.026h.024l8.924.589.113.006h.178c.028 0 .056-.004.084-.006.017 0 .033 0 .049-.004l.02-.002.14-.02c.008 0 .016 0 .024-.005h.004a2.19 2.19 0 0 0 .251-.062c.004 0 .008 0 .012-.004.002 0 .004 0 .006-.002a1.528 1.528 0 0 0 .304-.136c.005-.004.016-.008.022-.012l.012-.008c.016-.01.032-.02.048-.032.016-.01.032-.023.046-.033l.042-.034c.01-.008.022-.016.03-.026l.008-.008a.845.845 0 0 0 .083-.088l.008-.012a.381.381 0 0 0 .046-.07v-.002c.01-.02.02-.04.028-.06.002-.007.008-.015.01-.02a.597.597 0 0 0 .024-.081v-.002c0-.008 0-.018.004-.026.002-.018.006-.036.006-.054v-.012l.114-25.945c0 .022-.004.044-.006.069l.008-.009Z"/>
    <path fill="#fff" fill-opacity=".8" d="M55.198 25.384c.236.137.397.318.441.52l1.046 5.167c.112.542-.66.992-1.596.927l-8.924-.588a2.126 2.126 0 0 1-.897-.255c-.235-.136-.396-.315-.436-.514l-1.046-5.166c-.112-.542.66-.992 1.596-.928l8.924.589c.344.022.655.114.89.25l.002-.002Z"/>
    <path fill="url(#o)" d="M55.198 25.384c.236.137.397.318.441.52l1.046 5.167c.112.542-.66.992-1.596.927l-8.924-.588a2.126 2.126 0 0 1-.897-.255c-.235-.136-.396-.315-.436-.514l-1.046-5.166c-.112-.542.66-.992 1.596-.928l8.924.589c.344.022.655.114.89.25l.002-.002Z"/>
    <path fill="#fff" fill-opacity=".8" d="M38.358 27.587c.114.541-.66.991-1.598.929l-8.924-.588a2.127 2.127 0 0 1-.897-.255c-.235-.137-.394-.315-.434-.514l-1.048-5.167c-.112-.542.663-.991 1.598-.93l8.924.591c.35.024.663.118.898.253.234.134.393.315.433.516l1.046 5.166.002-.002Z"/>
    <path fill="url(#p)" d="M38.358 27.587c.114.541-.66.991-1.598.929l-8.924-.588a2.127 2.127 0 0 1-.897-.255c-.235-.137-.394-.315-.434-.514l-1.048-5.167c-.112-.542.663-.991 1.598-.93l8.924.591c.35.024.663.118.898.253.234.134.393.315.433.516l1.046 5.166.002-.002Z"/>
    <path fill="#fff" fill-opacity=".8" d="M37.698 14.876c-.112-.542.66-.992 1.598-.93l8.925.59c.347.027.66.12.897.256s.395.315.433.513l1.046 5.167c.113.544-.66.994-1.598.93l-8.924-.589a2.126 2.126 0 0 1-.897-.255c-.235-.136-.394-.315-.434-.513l-1.048-5.167.002-.002Z"/>
    <path fill="url(#q)" d="M37.698 14.876c-.112-.542.66-.992 1.598-.93l8.925.59c.347.027.66.12.897.256s.395.315.433.513l1.046 5.167c.113.544-.66.994-1.598.93l-8.924-.589a2.126 2.126 0 0 1-.897-.255c-.235-.136-.394-.315-.434-.513l-1.048-5.167.002-.002Z"/>
    <g opacity=".62">
      <path fill="#fff" fill-opacity=".8" d="M36.693 19.53c.112.541-.66.991-1.598.929l-8.924-.588a2.127 2.127 0 0 1-.898-.255c-.234-.137-.395-.316-.435-.514l-1.046-5.167c-.112-.542.662-.992 1.598-.93l8.924.589a2.1 2.1 0 0 1 .892.249c.236.134.397.317.441.52l1.046 5.166Z"/>
      <path fill="url(#r)" d="M36.693 19.53c.112.541-.66.991-1.598.929l-8.924-.588a2.127 2.127 0 0 1-.898-.255c-.234-.137-.395-.316-.435-.514l-1.046-5.167c-.112-.542.662-.992 1.598-.93l8.924.589a2.1 2.1 0 0 1 .892.249c.236.134.397.317.441.52l1.046 5.166Z"/>
    </g>
  </g>
  <defs>
    <radialGradient id="b" cx="0" cy="0" r="1" gradientTransform="rotate(-70.486 52.298 -5.51) scale(31.0207 68.7988)" gradientUnits="userSpaceOnUse">
      <stop stop-color="#17D5FF" stop-opacity=".01"/>
      <stop offset="1" stop-color="#287EFF"/>
    </radialGradient>
    <radialGradient id="e" cx="0" cy="0" r="1" gradientTransform="rotate(-70.486 50.798 -3.387) scale(31.0207 68.7988)" gradientUnits="userSpaceOnUse">
      <stop stop-color="#17D5FF" stop-opacity=".01"/>
      <stop offset="1" stop-color="#287EFF"/>
    </radialGradient>
    <radialGradient id="g" cx="0" cy="0" r="1" gradientTransform="matrix(1.62839 -33.75975 28.52943 1.3761 30.224 52.87)" gradientUnits="userSpaceOnUse">
      <stop offset=".125" stop-color="#287EFF" stop-opacity="0"/>
      <stop offset=".673" stop-color="#287EFF" stop-opacity="0"/>
      <stop offset="1" stop-color="#17D5FF"/>
    </radialGradient>
    <radialGradient id="h" cx="0" cy="0" r="1" gradientTransform="rotate(33.869 6.476 .477) scale(49.7261 32.2307)" gradientUnits="userSpaceOnUse">
      <stop stop-color="#2238FF"/>
      <stop offset="1" stop-color="#3D73FF" stop-opacity="0"/>
    </radialGradient>
    <radialGradient id="i" cx="0" cy="0" r="1" gradientTransform="rotate(-87.24 50.3 3.757) scale(33.801 28.5495)" gradientUnits="userSpaceOnUse">
      <stop offset=".125" stop-color="#287EFF" stop-opacity="0"/>
      <stop offset=".673" stop-color="#287EFF" stop-opacity="0"/>
      <stop offset="1" stop-color="#17D5FF"/>
    </radialGradient>
    <radialGradient id="j" cx="0" cy="0" r="1" gradientTransform="matrix(41.26913 27.71394 -17.96674 26.75447 15.28 -2.584)" gradientUnits="userSpaceOnUse">
      <stop stop-color="#2238FF"/>
      <stop offset="1" stop-color="#3D73FF" stop-opacity="0"/>
    </radialGradient>
    <radialGradient id="k" cx="0" cy="0" r="1" gradientTransform="matrix(1.62784 -43.36015 28.55119 1.07187 31.888 72.033)" gradientUnits="userSpaceOnUse">
      <stop offset=".125" stop-color="#287EFF" stop-opacity="0"/>
      <stop offset=".673" stop-color="#287EFF" stop-opacity="0"/>
      <stop offset="1" stop-color="#17D5FF"/>
    </radialGradient>
    <radialGradient id="l" cx="0" cy="0" r="1" gradientTransform="matrix(41.28164 35.59314 -24.65674 28.59738 3.033 -.404)" gradientUnits="userSpaceOnUse">
      <stop stop-color="#2238FF"/>
      <stop offset="1" stop-color="#3D73FF" stop-opacity="0"/>
    </radialGradient>
    <radialGradient id="m" cx="0" cy="0" r="1" gradientTransform="matrix(1.62762 -33.75969 28.51638 1.37483 50.21 64.414)" gradientUnits="userSpaceOnUse">
      <stop offset=".125" stop-color="#287EFF" stop-opacity="0"/>
      <stop offset=".673" stop-color="#287EFF" stop-opacity="0"/>
      <stop offset="1" stop-color="#17D5FF"/>
    </radialGradient>
    <radialGradient id="n" cx="0" cy="0" r="1" gradientTransform="matrix(41.2692 27.7122 -17.96522 26.75392 21.365 8.015)" gradientUnits="userSpaceOnUse">
      <stop stop-color="#2238FF"/>
      <stop offset="1" stop-color="#3D73FF" stop-opacity="0"/>
    </radialGradient>
    <radialGradient id="o" cx="0" cy="0" r="1" gradientTransform="matrix(-17.11215 63.67666 -26.66812 -7.16666 65.193 4.947)" gradientUnits="userSpaceOnUse">
      <stop stop-color="#78CEFF"/>
      <stop offset="1" stop-color="#78CEFF" stop-opacity="0"/>
    </radialGradient>
    <radialGradient id="p" cx="0" cy="0" r="1" gradientTransform="matrix(13.88502 43.67193 -54.37985 17.28949 25.423 -3.757)" gradientUnits="userSpaceOnUse">
      <stop stop-color="#00A3FF"/>
      <stop offset="1" stop-color="#00A3FF" stop-opacity="0"/>
    </radialGradient>
    <radialGradient id="q" cx="0" cy="0" r="1" gradientTransform="matrix(12.40564 48.37988 -60.21615 15.44072 34.878 -10.06)" gradientUnits="userSpaceOnUse">
      <stop stop-color="#00A3FF"/>
      <stop offset="1" stop-color="#00A3FF" stop-opacity="0"/>
    </radialGradient>
    <radialGradient id="r" cx="0" cy="0" r="1" gradientTransform="rotate(77.221 17.19 8.801) scale(92.7949 115.544)" gradientUnits="userSpaceOnUse">
      <stop stop-color="#00A3FF"/>
      <stop offset="1" stop-color="#00A3FF" stop-opacity="0"/>
    </radialGradient>
    <linearGradient id="c" x1="16" x2="50.749" y1="56.078" y2="49.267" gradientUnits="userSpaceOnUse">
      <stop stop-color="#0075FF"/>
      <stop offset="1" stop-color="#3FBFFF" stop-opacity=".1"/>
    </linearGradient>
    <linearGradient id="f" x1="13" x2="47.749" y1="56.078" y2="49.267" gradientUnits="userSpaceOnUse">
      <stop stop-color="#0075FF"/>
      <stop offset="1" stop-color="#3FBFFF" stop-opacity=".1"/>
    </linearGradient>
    <clipPath id="a">
      <path fill="#fff" d="M0 0h80v80H0z"/>
    </clipPath>
    <filter id="d" width="76" height="73.492" x="-1" y="10.403" color-interpolation-filters="sRGB" filterUnits="userSpaceOnUse">
      <feFlood flood-opacity="0" result="BackgroundImageFix"/>
      <feBlend in="SourceGraphic" in2="BackgroundImageFix" result="shape"/>
      <feGaussianBlur result="effect1_foregroundBlur_55_2129" stdDeviation="7"/>
    </filter>
  </defs>
</svg>
