<svg xmlns="http://www.w3.org/2000/svg" width="80" height="80" fill="none" viewBox="0 0 80 80">
  <g clip-path="url(#a)">
    <path fill="url(#b)" d="m36.206 45.867-17.42-9.938c-1.01-.612-1.039-2.703-.029-3.314L36.206 22.06a7.323 7.323 0 0 1 7.588 0l17.448 10.556c1.01.611 1.01 2.42 0 3.031L43.794 45.87a7.323 7.323 0 0 1-7.588 0v-.002Z"/>
    <path fill="url(#c)" d="m36.206 38.867-17.42-9.938c-1.01-.612-1.039-2.703-.029-3.314L36.206 15.06a7.323 7.323 0 0 1 7.588 0l17.448 10.556c1.01.611 1.01 2.42 0 3.031L43.794 38.87a7.323 7.323 0 0 1-7.588 0v-.002Z"/>
    <g filter="url(#d)" opacity=".3">
      <path fill="url(#e)" d="m66.007 30.351-.017 15.994a1.51 1.51 0 0 1-.76 1.462l-17.523 10.16a7.492 7.492 0 0 1-7.588-.054L22.747 47.502a1.514 1.514 0 0 1-.738-1.157L22 46.34 22.007 27c.006.502.258 1 .756 1.296l17.45 10.284a7.482 7.482 0 0 0 7.587 0l17.45-10.284A1.52 1.52 0 0 0 66.006 27v3.351Z"/>
      <path fill="url(#f)" d="m66.007 30.351-.017 15.994a1.51 1.51 0 0 1-.76 1.462l-17.523 10.16a7.492 7.492 0 0 1-7.588-.054L22.747 47.502a1.514 1.514 0 0 1-.738-1.157L22 46.34 22.007 27c.006.502.258 1 .756 1.296l17.45 10.284a7.482 7.482 0 0 0 7.587 0l17.45-10.284A1.52 1.52 0 0 0 66.006 27v3.351Z"/>
    </g>
    <path fill="url(#g)" d="m35.506 70.772-20.594-11.5c-1.194-.707-1.227-3.126-.033-3.834l20.627-12.212a8.818 8.818 0 0 1 8.971 0L65.105 55.44c1.194.707 1.194 2.8 0 3.507L44.477 70.774a8.818 8.818 0 0 1-8.97 0v-.002Z" opacity=".5"/>
    <path fill="url(#h)" d="M62.007 37.385 61.99 53.38a1.51 1.51 0 0 1-.76 1.462l-17.521 10.16a7.491 7.491 0 0 1-7.589-.055L18.747 54.536a1.514 1.514 0 0 1-.738-1.157L18 53.375l.007-19.341c.006.502.258 1 .756 1.296l17.45 10.284a7.482 7.482 0 0 0 7.587 0L61.25 35.33a1.52 1.52 0 0 0 .757-1.296v3.351Z"/>
    <path fill="url(#i)" d="M62.007 37.385 61.99 53.38a1.51 1.51 0 0 1-.76 1.462l-17.521 10.16a7.491 7.491 0 0 1-7.589-.055L18.747 54.536a1.514 1.514 0 0 1-.738-1.157L18 53.375l.007-19.341c.006.502.258 1 .756 1.296l17.45 10.284a7.482 7.482 0 0 0 7.587 0L61.25 35.33a1.52 1.52 0 0 0 .757-1.296v3.351Z"/>
  </g>
  <defs>
    <radialGradient id="b" cx="0" cy="0" r="1" gradientTransform="rotate(-80.711 41.846 2.627) scale(28.1573 69.6144)" gradientUnits="userSpaceOnUse">
      <stop stop-color="#2238FF"/>
      <stop offset="1" stop-color="#3D73FF" stop-opacity="0"/>
    </radialGradient>
    <radialGradient id="c" cx="0" cy="0" r="1" gradientTransform="matrix(-.69628 -41.63888 58.36264 -.97593 40 46)" gradientUnits="userSpaceOnUse">
      <stop offset=".331" stop-color="#91F4FF" stop-opacity="0"/>
      <stop offset="1" stop-color="#17D5FF"/>
    </radialGradient>
    <radialGradient id="e" cx="0" cy="0" r="1" gradientTransform="matrix(19.08002 -7.14284 20.81086 55.59018 25 38.466)" gradientUnits="userSpaceOnUse">
      <stop stop-color="#29EDFE"/>
      <stop offset="1" stop-color="#29EDFE" stop-opacity="0"/>
    </radialGradient>
    <radialGradient id="f" cx="0" cy="0" r="1" gradientTransform="rotate(-137.828 38.609 7.78) scale(28.2809 99.8941)" gradientUnits="userSpaceOnUse">
      <stop stop-color="#2238FF"/>
      <stop offset="1" stop-color="#3D73FF" stop-opacity="0"/>
    </radialGradient>
    <radialGradient id="g" cx="0" cy="0" r="1" gradientTransform="matrix(56.74537 -5.78513 23.97756 235.19192 23.44 57.041)" gradientUnits="userSpaceOnUse">
      <stop stop-color="#2238FF"/>
      <stop offset="1" stop-color="#3D73FF" stop-opacity="0"/>
    </radialGradient>
    <radialGradient id="h" cx="0" cy="0" r="1" gradientTransform="matrix(19.08002 -7.14284 20.81086 55.59018 21 45.5)" gradientUnits="userSpaceOnUse">
      <stop stop-color="#29EDFE"/>
      <stop offset="1" stop-color="#29EDFE" stop-opacity="0"/>
    </radialGradient>
    <radialGradient id="i" cx="0" cy="0" r="1" gradientTransform="matrix(-20.9599 -18.98662 67.06475 -74.0348 58 46.5)" gradientUnits="userSpaceOnUse">
      <stop stop-color="#2238FF"/>
      <stop offset="1" stop-color="#3D73FF" stop-opacity="0"/>
    </radialGradient>
    <clipPath id="a">
      <path fill="#fff" d="M0 0h80v80H0z"/>
    </clipPath>
    <filter id="d" width="72.007" height="59.972" x="8" y="13" color-interpolation-filters="sRGB" filterUnits="userSpaceOnUse">
      <feFlood flood-opacity="0" result="BackgroundImageFix"/>
      <feBlend in="SourceGraphic" in2="BackgroundImageFix" result="shape"/>
      <feGaussianBlur result="effect1_foregroundBlur_55_2109" stdDeviation="7"/>
    </filter>
  </defs>
</svg>
