<svg width="48" height="48" viewBox="0 0 48 48" fill="none" xmlns="http://www.w3.org/2000/svg">
<g clip-path="url(#clip0_8191_655)">
<g opacity="0.6" filter="url(#filter0_f_8191_655)">
<path d="M33.8149 36.8082V37.1612C26.9077 40.6533 21.0509 38.381 18.986 36.8082L26.4002 32.7961L33.8149 36.8082Z" fill="#4339DB"/>
<path d="M26.015 31.9615L20.8796 34.7218L24.5066 20.5996H26.015V31.9615Z" fill="#4339DB"/>
<path d="M31.9523 34.7218L26.9454 31.9615V20.5996H28.486L31.9523 34.7218Z" fill="#4339DB"/>
<path fill-rule="evenodd" clip-rule="evenodd" d="M26.4323 10.2002C26.8222 10.2002 27.1382 10.5163 27.1383 10.9062C27.1383 11.2284 26.9224 11.4993 26.6275 11.5841L26.756 11.9015L28.9676 13.217V13.9879H28.358V16.3309H30.7969V18.7703L29.545 19.9257H23.2542L22.0345 18.7703V16.3309H24.506V13.9879H23.8316V13.217L26.1 11.9015L26.1005 11.9009L26.2343 11.5835C25.9409 11.4978 25.7263 11.2273 25.7263 10.9062C25.7264 10.5163 26.0424 10.2003 26.4323 10.2002ZM25.437 16.3309H27.427V13.9879H25.437V16.3309Z" fill="#4339DB"/>
<path d="M23.8 15.711L16.6746 16.8762L18.0671 15.2713H23.8V15.711Z" fill="#4339DB"/>
<path d="M36.1257 16.8762L29.0003 15.711V15.2713L34.7326 15.1927L36.1257 16.8762Z" fill="#4339DB"/>
<path d="M23.8 14.3725V14.7903H18.0671L16.6746 13.1533L23.8 14.3725Z" fill="#4339DB"/>
<path d="M34.7326 14.7903H29.0003V14.3725L36.1257 13.1533L34.7326 14.7903Z" fill="#4339DB"/>
</g>
<path d="M31.4148 36.2077V36.5607C24.5076 40.0527 18.6509 37.7804 16.586 36.2077L24.0001 32.1955L31.4148 36.2077Z" fill="#4339DB"/>
<path d="M23.615 31.361L18.4796 34.1212L22.1066 19.999H23.615V31.361Z" fill="#4339DB"/>
<path d="M29.5523 34.1212L24.5454 31.361V19.999H26.086L29.5523 34.1212Z" fill="#4339DB"/>
<path fill-rule="evenodd" clip-rule="evenodd" d="M24.0323 9.59961C24.4222 9.59961 24.7382 9.91568 24.7383 10.3056C24.7383 10.6278 24.5224 10.8988 24.2274 10.9835L24.356 11.3009L26.5676 12.6165V13.3873H25.958V15.7303H28.3968V18.1697L27.145 19.3251H20.8541L19.6344 18.1697V15.7303H22.106V13.3873H21.4316V12.6165L23.6999 11.3009L23.7005 11.3003L23.8343 10.9829C23.5408 10.8972 23.3263 10.6267 23.3263 10.3056C23.3264 9.91573 23.6424 9.59968 24.0323 9.59961ZM23.037 15.7303H25.027V13.3873H23.037V15.7303Z" fill="#4339DB"/>
<path d="M21.4 15.1104L14.2746 16.2756L15.6671 14.6707H21.4V15.1104Z" fill="#4339DB"/>
<path d="M33.7257 16.2756L26.6003 15.1104V14.6707L32.3326 14.5921L33.7257 16.2756Z" fill="#4339DB"/>
<path d="M21.4 13.7719V14.1897H15.6671L14.2746 12.5527L21.4 13.7719Z" fill="#4339DB"/>
<path d="M32.3326 14.1897H26.6003V13.7719L33.7257 12.5527L32.3326 14.1897Z" fill="#4339DB"/>
</g>
<defs>
<filter id="filter0_f_8191_655" x="4.67462" y="-1.7998" width="43.451" height="52.7998" filterUnits="userSpaceOnUse" color-interpolation-filters="sRGB">
<feFlood flood-opacity="0" result="BackgroundImageFix"/>
<feBlend mode="normal" in="SourceGraphic" in2="BackgroundImageFix" result="shape"/>
<feGaussianBlur stdDeviation="6" result="effect1_foregroundBlur_8191_655"/>
</filter>
<clipPath id="clip0_8191_655">
<rect width="48" height="48" rx="24" fill="white"/>
</clipPath>
</defs>
</svg>
