<svg xmlns="http://www.w3.org/2000/svg" width="25" height="24" fill="none" viewBox="0 0 25 24">
  <path fill="#000" d="M6.65 9.604h3.2V6.405h-3.2v3.2Zm4.6 1-.008.081a.401.401 0 0 1-.311.312l-.081.008h-5.2l-.08-.008a.401.401 0 0 1-.312-.312l-.008-.08v-5.2a.4.4 0 0 1 .32-.393l.08-.007h5.2l.08.007a.4.4 0 0 1 .32.393v5.2Zm-4.6 7h3.2v-3.199h-3.2v3.2Zm4.6 1-.008.081a.401.401 0 0 1-.311.312l-.081.008h-5.2l-.08-.008a.401.401 0 0 1-.312-.312l-.008-.08v-5.2a.4.4 0 0 1 .32-.393l.08-.007h5.2l.08.007a.4.4 0 0 1 .32.393v5.2Zm3.4-9h3.2V6.405h-3.2v3.2Zm4.6 1-.008.081a.401.401 0 0 1-.311.312l-.081.008h-5.2l-.08-.008a.401.401 0 0 1-.312-.312l-.008-.08v-5.2a.4.4 0 0 1 .32-.393l.08-.007h5.2l.08.007a.4.4 0 0 1 .32.393v5.2Zm-4.6 7h3.2v-3.199h-3.2v3.2Zm4.6 1-.008.081a.401.401 0 0 1-.311.312l-.081.008h-5.2l-.08-.008a.401.401 0 0 1-.312-.312l-.008-.08v-5.2a.4.4 0 0 1 .32-.393l.08-.007h5.2l.08.007a.4.4 0 0 1 .32.393v5.2Z"/>
</svg>
