<svg xmlns="http://www.w3.org/2000/svg" width="24" height="24" fill="none" viewBox="0 0 24 24">
  <path fill="#000" d="M8.424 17.423a.2.2 0 0 1-.283 0l-4.93-4.929a.3.3 0 0 1 0-.424l4.93-4.928a.2.2 0 0 1 .283 0l.707.708a.2.2 0 0 1 0 .282l-3.432 3.431h14.897c.11 0 .2.09.2.2v1a.2.2 0 0 1-.2.2H5.662l3.469 3.47a.2.2 0 0 1 0 .282l-.707.708Z"/>
  <path fill="#000" d="M8.14 7.142a.2.2 0 0 1 .283 0l.708.707a.2.2 0 0 1 0 .283l-4.15 4.15 4.15 4.15a.2.2 0 0 1 0 .283l-.708.708a.2.2 0 0 1-.283 0l-4.928-4.929a.3.3 0 0 1 0-.424L8.14 7.142Z"/>
</svg>
