<svg xmlns="http://www.w3.org/2000/svg" width="24" height="24" fill="none" viewBox="0 0 24 24">
  <path fill="#000" d="M9.882 5.35a.1.1 0 0 1-.1.1H6.85a1.4 1.4 0 0 0-1.4 1.4v10.8a1.4 1.4 0 0 0 1.4 1.4h10.8a1.4 1.4 0 0 0 1.4-1.4v-2.932a.1.1 0 0 1 .1-.1h1.2a.1.1 0 0 1 .1.1v2.932a2.8 2.8 0 0 1-2.8 2.8H6.85a2.8 2.8 0 0 1-2.8-2.8V6.85a2.8 2.8 0 0 1 2.8-2.8h2.932a.1.1 0 0 1 .1.1v1.2Zm10.568 5.3a.1.1 0 0 1-.1.1h-1.2a.1.1 0 0 1-.1-.1V6.68a.1.1 0 0 0-.17-.07l-7.643 7.643a.1.1 0 0 1-.142 0l-.424-.424-.425-.424a.1.1 0 0 1 0-.142l7.643-7.642a.1.1 0 0 0-.07-.17H13.85a.1.1 0 0 1-.1-.1V4.15a.1.1 0 0 1 .1-.1h6.5a.1.1 0 0 1 .1.1v6.5Z"/>
</svg>
