<svg width="24" height="24" viewBox="0 0 24 24" fill="currentColor" xmlns="http://www.w3.org/2000/svg">
<path fill-rule="evenodd" clip-rule="evenodd" d="M20 8.94C20 8.69024 19.9221 8.48291 19.75 8.3L13.75 2.3C13.5521 2.11377 13.3438 2 13.06 2H7C5.34315 2 4 3.34315 4 5V19C4 20.6569 5.34315 22 7 22H17C18.6569 22 20 20.6569 20 19V8.94ZM14 5.4099L16.59 7.9999H14V5.4099ZM17 20C17.5523 20 18 19.5523 18 19V10H13C12.4477 10 12 9.55228 12 9V4H7C6.44772 4 6 4.44772 6 5V19C6 19.5523 6.44772 20 7 20H17Z"/>
</svg>
