<svg width="24" height="24" viewBox="0 0 48 48" fill="none" xmlns="http://www.w3.org/2000/svg">
<path d="M40.221 3.78717e-05H18.2803V29.5996H47.9039V7.65882C47.9039 6.65103 47.705 5.65314 47.3186 4.72236C46.9322 3.79158 46.3659 2.94621 45.6522 2.23471C44.9384 1.52321 44.0913 0.959572 43.1593 0.576101C42.2273 0.19263 41.2288 -0.0031313 40.221 3.78717e-05Z" fill="#142533"/>
<path d="M11.44 0H7.65879C5.62755 0 3.67951 0.806905 2.24321 2.24321C0.806905 3.67951 0 5.62755 0 7.65879L0 11.44H11.44V0Z" fill="#142533"/>
<path d="M0 18.2798H11.44V29.7199H0V18.2798Z" fill="#142533"/>
<path d="M36.5596 47.9037H40.3408C41.3486 47.9037 42.3465 47.7048 43.2773 47.3184C44.208 46.932 45.0534 46.3657 45.7649 45.652C46.4764 44.9382 47.04 44.0911 47.4235 43.1591C47.807 42.2271 48.0027 41.2286 47.9996 40.2208V36.56H36.5596V47.9037Z" fill="#142533"/>
<path d="M18.2803 36.56H29.7203V48H18.2803V36.56Z" fill="#142533"/>
<path d="M0 36.56V40.3412C0 42.3725 0.806905 44.3205 2.24321 45.7568C3.67951 47.1931 5.62755 48 7.65879 48H11.44V36.56H0Z" fill="#142533"/>
</svg>
