<svg width="354" height="43" viewBox="0 0 354 43" fill="none" xmlns="http://www.w3.org/2000/svg">
    <rect x="58" y="6" width="238" height="36" rx="5" fill="#F6F7FB" stroke="#172340" stroke-width="2"></rect>
    <path d="M83 24C83 20.134 79.866 17 76 17C72.134 17 69 20.134 69 24C69 27.866 72.134 31 76 31C79.866 31 83 27.866 83 24Z" fill="#F6F7FB" stroke="#172340"></path>
    <path d="M81 24C81 21.2386 78.7614 19 76 19C73.2386 19 71 21.2386 71 24C71 26.7614 73.2386 29 76 29C78.7614 29 81 26.7614 81 24Z" fill="#136BFF" fill-opacity="0.15"></path>
    <path d="M76 19.5C78.4853 19.5 80.5 21.5147 80.5 24C80.5 26.4853 78.4853 28.5 76 28.5C73.5147 28.5 71.5 26.4853 71.5 24C71.5 21.5147 73.5147 19.5 76 19.5Z" stroke="#136BFF" stroke-opacity="0.35"></path>
    <path d="M77 24C77 23.4477 76.5523 23 76 23C75.4477 23 75 23.4477 75 24C75 24.5523 75.4477 25 76 25C76.5523 25 77 24.5523 77 24Z" fill="#136BFF"></path>
    <path fill-rule="evenodd" clip-rule="evenodd" d="M76 0C76.2761 0 76.5 0.137759 76.5 0.307692V23.6923C76.5 23.8622 76.2761 24 76 24C75.7239 24 75.5 23.8622 75.5 23.6923V0.307692C75.5 0.137759 75.7239 0 76 0Z" fill="url(#paint0_linear_10116:2145)"></path>
    <rect x="96.5967" y="10.5967" width="60.8067" height="26.8067" rx="3.40333" fill="white" stroke="#172340" stroke-width="1.19333"></rect>
    <path d="M168 24C168 14.0589 176.059 6 186 6H291.046C293.782 6 296 8.21807 296 10.9542V37.0458C296 39.7819 293.782 42 291.046 42H186C176.059 42 168 33.9411 168 24Z" fill="white" stroke="#172340" stroke-width="2"></path>
    <path d="M193 24C193 20.134 189.866 17 186 17C182.134 17 179 20.134 179 24C179 27.866 182.134 31 186 31C189.866 31 193 27.866 193 24Z" fill="#F6F7FB" stroke="#172340"></path>
    <path d="M191 24C191 21.2386 188.761 19 186 19C183.239 19 181 21.2386 181 24C181 26.7614 183.239 29 186 29C188.761 29 191 26.7614 191 24Z" fill="#136BFF" fill-opacity="0.15"></path>
    <path d="M186 19.5C188.485 19.5 190.5 21.5147 190.5 24C190.5 26.4853 188.485 28.5 186 28.5C183.515 28.5 181.5 26.4853 181.5 24C181.5 21.5147 183.515 19.5 186 19.5Z" stroke="#136BFF" stroke-opacity="0.35"></path>
    <path d="M187 24C187 23.4477 186.552 23 186 23C185.448 23 185 23.4477 185 24C185 24.5523 185.448 25 186 25C186.552 25 187 24.5523 187 24Z" fill="#136BFF"></path>
    <path fill-rule="evenodd" clip-rule="evenodd" d="M186 0C186.276 0 186.5 0.137759 186.5 0.307692V23.6923C186.5 23.8622 186.276 24 186 24C185.724 24 185.5 23.8622 185.5 23.6923V0.307692C185.5 0.137759 185.724 0 186 0Z" fill="url(#paint1_linear_10116:2145)"></path>
    <path d="M44 21C44 19.3431 45.3431 18 47 18H56.6133C57.3792 18 58 18.6208 58 19.3867V28.6133C58 29.3792 57.3792 30 56.6133 30H47C45.3431 30 44 28.6569 44 27V21Z" fill="white" stroke="#172340" stroke-width="2"></path>
    <path d="M34.5 22.3867C34.5 21.3447 35.3447 20.5 36.3867 20.5H42.8067C43.1896 20.5 43.5 20.8104 43.5 21.1933V26.8067C43.5 27.1896 43.1896 27.5 42.8067 27.5H36.3867C35.3447 27.5 34.5 26.6553 34.5 25.6133V22.3867Z" fill="white" stroke="#172340"></path>
    <path d="M0.5 22.5H34.5V25.5H0.5V22.5Z" fill="url(#paint2_linear_10116:2145)" stroke="url(#paint3_linear_10116:2145)"></path>
    <defs>
        <linearGradient id="paint0_linear_10116:2145" x1="76.5" y1="0.307692" x2="76.5" y2="23.6923" gradientUnits="userSpaceOnUse">
            <stop stop-color="#136BFF" stop-opacity="0"></stop>
            <stop offset="1" stop-color="#136BFF"></stop>
        </linearGradient>
        <linearGradient id="paint1_linear_10116:2145" x1="186.5" y1="0.307692" x2="186.5" y2="23.6923" gradientUnits="userSpaceOnUse">
            <stop stop-color="#136BFF" stop-opacity="0"></stop>
            <stop offset="1" stop-color="#136BFF"></stop>
        </linearGradient>
        <linearGradient id="paint2_linear_10116:2145" x1="35.473" y1="24" x2="-2.22459e-07" y2="24" gradientUnits="userSpaceOnUse">
            <stop stop-color="white"></stop>
            <stop offset="1" stop-color="white" stop-opacity="0"></stop>
        </linearGradient>
        <linearGradient id="paint3_linear_10116:2145" x1="35" y1="26" x2="2.83784" y2="26" gradientUnits="userSpaceOnUse">
            <stop stop-color="#172340"></stop>
            <stop offset="1" stop-color="#172340" stop-opacity="0"></stop>
        </linearGradient>
    </defs>
</svg>
