<svg width="48" height="48" viewBox="0 0 48 48" fill="none" xmlns="http://www.w3.org/2000/svg">
<path d="M48 24C48 10.7452 37.2548 0 24 0C10.7452 0 0 10.7452 0 24C0 37.2548 10.7452 48 24 48C37.2548 48 48 37.2548 48 24Z" fill="#142533"/>
<path d="M15.8294 12H17.72V17.72H12V15.8294C12 14.8138 12.4035 13.8398 13.1216 13.1216C13.8398 12.4035 14.8138 12 15.8294 12Z" fill="white"/>
<path d="M21.1399 12H32.1103C32.6142 11.9984 33.1134 12.0963 33.5794 12.2881C34.0454 12.4798 34.469 12.7616 34.8258 13.1174C35.1827 13.4731 35.4659 13.8958 35.659 14.3612C35.8522 14.8266 35.9517 15.3255 35.9517 15.8294V26.7998H21.1399V12Z" fill="white"/>
<path d="M12 21.1399H17.72V26.8599H12V21.1399Z" fill="white"/>
<path d="M32.1706 35.9518H30.28V30.28H36V32.1104C36.0016 32.6143 35.9037 33.1135 35.7119 33.5795C35.5202 34.0455 35.2384 34.4691 34.8826 34.826C34.5269 35.1828 34.1042 35.466 33.6388 35.6592C33.1734 35.8524 32.6745 35.9518 32.1706 35.9518Z" fill="white"/>
<path d="M21.1399 30.28H26.8599V36H21.1399V30.28Z" fill="white"/>
<path d="M12 32.1706V30.28H17.72V36H15.8294C14.8138 36 13.8398 35.5965 13.1216 34.8784C12.4035 34.1602 12 33.1862 12 32.1706Z" fill="white"/>
</svg>
