<svg width="24" height="24" viewBox="0 0 24 24" fill="currentColor" xmlns="http://www.w3.org/2000/svg">
<path d="M12 6C10.2769 6 8.875 7.40188 8.875 9.125V11H8.25C7.56 11 7 11.56 7 12.25V17C7 17.69 7.56 18 8.25 18H9.5H11.375H12.625H13.875H15.75C16.44 18 17 17.69 17 17V12.25C17 11.56 16.44 11 15.75 11H15.125V9.125C15.125 7.40188 13.7231 6 12 6ZM10.125 9.125C10.125 8.09125 10.9662 7.25 12 7.25C13.0338 7.25 13.875 8.09125 13.875 9.125V11H10.125V9.125ZM12.625 14.8269V15.625C12.625 15.9702 12.3452 16.25 12 16.25V16.25C11.6548 16.25 11.375 15.9702 11.375 15.625V14.8269C10.9206 14.5631 10.6444 14.0281 10.7881 13.4369C10.8981 12.9869 11.2756 12.6231 11.7294 12.5288C12.5381 12.3588 13.25 12.9706 13.25 13.75C13.25 14.2119 12.9975 14.6106 12.625 14.8269Z"/>
</svg>
