<svg width="24" height="24" viewBox="0 0 40 40" fill="none" xmlns="http://www.w3.org/2000/svg">
<path d="M34.4121 4.45703L21.9199 13.7351L24.23 8.26117L34.4121 4.45703Z" fill="#E2761B" stroke="#E2761B" stroke-linecap="round" stroke-linejoin="round"/>
<path d="M5.57422 4.45703L17.9659 13.823L15.7688 8.26117L5.57422 4.45703Z" fill="#E4761B" stroke="#E4761B" stroke-linecap="round" stroke-linejoin="round"/>
<path d="M29.9189 25.9639L26.5918 31.0612L33.7104 33.0197L35.7569 26.0769L29.9189 25.9639Z" fill="#E4761B" stroke="#E4761B" stroke-linecap="round" stroke-linejoin="round"/>
<path d="M4.25586 26.0769L6.28976 33.0197L13.4084 31.0612L10.0813 25.9639L4.25586 26.0769Z" fill="#E4761B" stroke="#E4761B" stroke-linecap="round" stroke-linejoin="round"/>
<path d="M13.0071 17.3515L11.0234 20.3522L18.0919 20.666L17.8408 13.0703L13.0071 17.3515Z" fill="#E4761B" stroke="#E4761B" stroke-linecap="round" stroke-linejoin="round"/>
<path d="M26.9795 17.3506L22.0831 12.9814L21.9199 20.6651L28.9758 20.3512L26.9795 17.3506Z" fill="#E4761B" stroke="#E4761B" stroke-linecap="round" stroke-linejoin="round"/>
<path d="M13.4082 31.061L17.6518 28.9895L13.9857 26.127L13.4082 31.061Z" fill="#E4761B" stroke="#E4761B" stroke-linecap="round" stroke-linejoin="round"/>
<path d="M22.334 28.9895L26.5901 31.061L26 26.127L22.334 28.9895Z" fill="#E4761B" stroke="#E4761B" stroke-linecap="round" stroke-linejoin="round"/>
<path d="M26.5901 31.0608L22.334 28.9893L22.673 31.7639L22.6353 32.9315L26.5901 31.0608Z" fill="#D7C1B3" stroke="#D7C1B3" stroke-linecap="round" stroke-linejoin="round"/>
<path d="M13.4082 31.0608L17.363 32.9315L17.3379 31.7639L17.6518 28.9893L13.4082 31.0608Z" fill="#D7C1B3" stroke="#D7C1B3" stroke-linecap="round" stroke-linejoin="round"/>
<path d="M17.4253 24.2939L13.8848 23.2519L16.3832 22.1094L17.4253 24.2939Z" fill="#233447" stroke="#233447" stroke-linecap="round" stroke-linejoin="round"/>
<path d="M22.5605 24.2939L23.6026 22.1094L26.1136 23.2519L22.5605 24.2939Z" fill="#233447" stroke="#233447" stroke-linecap="round" stroke-linejoin="round"/>
<path d="M13.4091 31.0612L14.0117 25.9639L10.082 26.0769L13.4091 31.0612Z" fill="#CD6116" stroke="#CD6116" stroke-linecap="round" stroke-linejoin="round"/>
<path d="M25.9883 25.9639L26.5909 31.0612L29.918 26.0769L25.9883 25.9639Z" fill="#CD6116" stroke="#CD6116" stroke-linecap="round" stroke-linejoin="round"/>
<path d="M28.9777 20.3516L21.9219 20.6654L22.5747 24.2938L23.6168 22.1093L26.1278 23.2517L28.9777 20.3516Z" fill="#CD6116" stroke="#CD6116" stroke-linecap="round" stroke-linejoin="round"/>
<path d="M13.886 23.2517L16.3969 22.1093L17.4265 24.2938L18.0919 20.6654L11.0234 20.3516L13.886 23.2517Z" fill="#CD6116" stroke="#CD6116" stroke-linecap="round" stroke-linejoin="round"/>
<path d="M11.0234 20.3516L13.9864 26.1268L13.886 23.2517L11.0234 20.3516Z" fill="#E4751F" stroke="#E4751F" stroke-linecap="round" stroke-linejoin="round"/>
<path d="M26.1275 23.2517L26.002 26.1268L28.9775 20.3516L26.1275 23.2517Z" fill="#E4751F" stroke="#E4751F" stroke-linecap="round" stroke-linejoin="round"/>
<path d="M18.0912 20.665L17.4258 24.2934L18.2544 28.5747L18.4427 22.9375L18.0912 20.665Z" fill="#E4751F" stroke="#E4751F" stroke-linecap="round" stroke-linejoin="round"/>
<path d="M21.921 20.665L21.582 22.9249L21.7327 28.5747L22.5739 24.2934L21.921 20.665Z" fill="#E4751F" stroke="#E4751F" stroke-linecap="round" stroke-linejoin="round"/>
<path d="M22.5736 24.294L21.7324 28.5753L22.3351 28.9896L26.0011 26.127L26.1266 23.252L22.5736 24.294Z" fill="#F6851B" stroke="#F6851B" stroke-linecap="round" stroke-linejoin="round"/>
<path d="M13.8848 23.252L13.9852 26.127L17.6513 28.9896L18.2539 28.5753L17.4253 24.294L13.8848 23.252Z" fill="#F6851B" stroke="#F6851B" stroke-linecap="round" stroke-linejoin="round"/>
<path d="M22.6361 32.9312L22.6737 31.7636L22.3599 31.4874H17.6267L17.3379 31.7636L17.363 32.9312L13.4082 31.0605L14.7892 32.1905L17.589 34.1365H22.3975L25.2098 32.1905L26.5909 31.0605L22.6361 32.9312Z" fill="#C0AD9E" stroke="#C0AD9E" stroke-linecap="round" stroke-linejoin="round"/>
<path d="M22.3347 28.9895L21.7321 28.5752H18.2544L17.6518 28.9895L17.3379 31.7641L17.6267 31.4879H22.3598L22.6737 31.7641L22.3347 28.9895Z" fill="#161616" stroke="#161616" stroke-linecap="round" stroke-linejoin="round"/>
<path d="M34.9391 14.3378L36.0063 9.21535L34.4118 4.45703L22.334 13.4212L26.9793 17.3509L33.5455 19.2718L35.0019 17.5769L34.3741 17.125L35.3785 16.2084L34.6001 15.6058L35.6045 14.84L34.9391 14.3378Z" fill="#763D16" stroke="#763D16" stroke-linecap="round" stroke-linejoin="round"/>
<path d="M3.99219 9.21535L5.05936 14.3378L4.38139 14.84L5.38578 15.6058L4.61993 16.2084L5.62433 17.125L4.99658 17.5769L6.4404 19.2718L13.0066 17.3509L17.6519 13.4212L5.57411 4.45703L3.99219 9.21535Z" fill="#763D16" stroke="#763D16" stroke-linecap="round" stroke-linejoin="round"/>
<path d="M33.5475 19.2715L26.9812 17.3506L28.9775 20.3512L26.002 26.1265L29.9191 26.0763H35.7571L33.5475 19.2715Z" fill="#F6851B" stroke="#F6851B" stroke-linecap="round" stroke-linejoin="round"/>
<path d="M13.0066 17.3506L6.44042 19.2715L4.25586 26.0763H10.0813L13.9859 26.1265L11.023 20.3512L13.0066 17.3506Z" fill="#F6851B" stroke="#F6851B" stroke-linecap="round" stroke-linejoin="round"/>
<path d="M21.9214 20.666L22.3358 13.4218L24.2441 8.26172H15.7695L17.6528 13.4218L18.0922 20.666L18.2429 22.951L18.2554 28.5756H21.7331L21.7582 22.951L21.9214 20.666Z" fill="#F6851B" stroke="#F6851B" stroke-linecap="round" stroke-linejoin="round"/>
</svg>
