<svg width="48" height="46" viewBox="0 0 48 46" fill="none" xmlns="http://www.w3.org/2000/svg">
<path d="M9.51783 21.1741L10.5743 13.2178L1.39648 6.84613L9.78194 9.68531L11.7628 6.64805L18.9928 2.1582L34.9384 10.9398L35.7637 24.3434L28.6658 34.2145L23.0535 35.0728L25.9586 29.7576V24.6405L23.8458 20.6458L21.6999 19.2263L18.3985 22.6267V26.2252L15.8234 28.6352L12.5551 29.0313L11.1025 29.8567L8.7255 29.0973L7.73509 25.5319L9.51783 23.0228V21.1741Z" fill="white"/>
<path d="M24.1756 6.78035C22.4259 6.4172 20.5111 6.51624 20.5111 6.51624C20.5111 6.51624 19.8839 9.42146 15.9883 10.1808C16.0213 10.1808 21.1384 11.9305 24.1756 6.78035Z" fill="#94A6C3"/>
<path d="M25.7592 33.1253C27.8721 31.4746 29.4568 29.1967 30.1831 26.6216C30.2161 26.5226 30.5132 26.3575 30.7113 26.2254C31.0414 26.0274 31.3716 25.8623 31.4376 25.5982C31.5696 24.8389 31.6357 24.0465 31.6357 23.2542C31.6357 22.9571 31.3385 22.66 31.0414 22.3628C30.8103 22.1648 30.5792 21.9337 30.5792 21.7686C30.2491 18.7644 28.8625 15.9582 26.6506 13.9113L26.4195 14.1424C28.5654 16.1563 29.952 18.8964 30.2491 21.8016C30.2821 22.0657 30.5462 22.3298 30.8103 22.5939C31.0414 22.792 31.3055 23.0891 31.3055 23.2212C31.3055 23.9805 31.2395 24.7398 31.1075 25.4991C31.0744 25.6312 30.7773 25.7633 30.5462 25.8953C30.2161 26.0604 29.919 26.2254 29.8529 26.4896C29.0606 29.2957 27.2449 31.7387 24.8349 33.3234C25.264 32.399 26.6176 29.3948 27.3439 27.8761L27.2118 22.9901L23.0191 18.9294L20.6421 19.2596L18.034 23.4853C18.034 23.4853 19.2555 25.037 17.5388 26.8527C15.8551 28.6354 14.5346 29.0316 14.5346 29.0316L13.3131 28.3713C13.6762 27.9091 14.4025 27.2159 14.9638 26.7537C15.9212 25.9613 16.8786 25.8953 16.8786 25.037C16.9116 23.2542 14.9968 23.7494 14.9968 23.7494L14.3035 24.4097L14.0064 26.8527L12.5538 28.6685L12.3887 28.6354L10.0117 28.1072C10.0117 28.1072 11.4643 27.3479 11.6954 26.4896C11.9265 25.6642 11.2332 22.9241 11.2002 22.759C11.2332 22.792 11.8935 23.3533 12.1906 24.2776C12.7188 22.825 13.4121 21.4385 13.6102 21.3064C13.8083 21.1744 16.4824 19.7548 16.4824 19.7548L15.591 22.0987L16.2513 21.7356L17.836 17.84C17.836 17.84 19.3876 17.0807 20.5431 17.0807C22.6229 17.0476 25.6932 14.5056 24.3066 9.94971C24.7028 10.1148 31.5696 13.5482 32.7581 20.283C33.6495 25.4661 30.7113 30.3191 25.7592 33.1253Z" fill="#94A6C3"/>
<path d="M17.903 7.50586C18.6623 6.61449 18.3652 5.29395 18.3652 5.29395L16.1533 8.5623C16.1203 8.5623 16.9456 8.59531 17.903 7.50586Z" fill="#1B314F"/>
<path d="M10.4737 25.3674L10.7378 24.0469C10.7378 24.0469 9.64838 25.9617 9.54934 26.2258C9.4503 26.5229 9.61537 27.0512 10.0446 27.0182C10.4737 26.9851 11.002 26.3579 11.002 25.8957C11.002 25.3014 10.4737 25.3674 10.4737 25.3674Z" fill="#1B314F"/>
<path d="M30.086 4.36908C30.086 4.36908 31.7367 4.43511 33.4534 4.63319C29.5908 1.59591 25.9263 0.704541 22.9551 0.704541C18.8614 0.704541 16.0882 2.38826 15.9232 2.4873L17.2107 0.440432C17.2107 0.440432 12.0606 -0.0547734 10.2448 5.3925C9.78261 4.23702 9.35343 2.55333 9.35343 2.55333C9.35343 2.55333 6.67933 4.8973 7.93384 8.79291C4.86357 7.67045 0.472756 6.1188 0.307687 6.08579C0.0765917 6.05278 0.0105644 6.15182 0.0105644 6.15182C0.0105644 6.15182 -0.055463 6.25086 0.142619 6.41593C0.505769 6.71305 7.43864 11.8302 8.95727 12.8206C8.62713 14.0091 8.62713 14.5703 8.95727 15.1315C9.41946 15.8908 9.45247 16.287 9.38645 16.8482C9.32042 17.4095 8.72617 22.2624 8.59412 22.8567C8.46206 23.4509 7.07549 25.5638 7.14152 26.1911C7.20754 26.8183 8.0659 29.4924 8.82521 29.7896C9.38645 29.9876 10.773 30.4169 11.6974 30.4169C12.0275 30.4169 12.3247 30.3508 12.4567 30.2187C13.0179 29.7235 13.183 29.6245 13.5792 29.6245C13.6122 29.6245 13.6452 29.6245 13.6782 29.6245C13.8433 29.6245 14.0414 29.6575 14.2725 29.6575C14.8007 29.6575 15.494 29.5585 15.9892 29.0963C16.7155 28.37 17.97 27.3796 18.3662 26.9174C18.8614 26.2901 19.1255 25.4318 18.9934 24.5734C18.8944 23.7811 19.3236 23.0878 19.8188 22.3945C20.446 21.5692 21.6015 20.0836 21.6015 20.0836C23.8794 21.8003 25.299 24.4083 25.299 27.3135C25.299 32.4637 20.8092 36.6234 15.2629 36.6234C14.4045 36.6234 13.5792 36.5243 12.7538 36.3263C15.2959 37.2176 17.4418 37.5148 19.1915 37.5148C22.9221 37.5148 24.9029 36.1612 24.9029 36.1612C24.9029 36.1612 24.2096 37.0526 23.0871 38.076C23.1201 38.076 23.1201 38.076 23.1201 38.076C29.2937 37.2176 32.2979 32.1335 32.2979 32.1335C32.2979 32.1335 32.0668 33.7842 31.7697 34.9067C39.9901 28.7331 38.6035 21.008 38.5705 20.7439C38.6366 20.8429 39.4619 21.8333 39.8911 22.3615C41.2118 8.75986 30.086 4.36908 30.086 4.36908ZM17.4418 26.092C17.3097 26.2571 16.7485 26.7523 16.3523 27.1155C15.9562 27.4786 15.527 27.8418 15.1969 28.1719C15.0648 28.3039 14.8007 28.37 14.4045 28.37C14.2725 28.37 14.1404 28.37 14.0414 28.37C13.9753 28.37 13.9093 28.37 13.8433 28.37C13.7773 28.37 13.7443 28.37 13.7112 28.37C13.6122 28.37 13.5132 28.37 13.4141 28.37C13.9093 27.7097 15.3619 26.1911 15.8571 25.8609C16.4514 25.4648 16.7485 25.0686 16.3853 24.3753C16.0222 23.682 15.0648 23.8471 15.0648 23.8471C15.0648 23.8471 15.626 23.616 16.1212 23.616C15.494 23.4509 14.7016 23.616 14.3385 23.9792C13.9423 24.3423 14.0084 25.6299 13.8433 26.4552C13.6782 27.3136 13.117 27.7427 12.2586 28.535C11.7964 28.9642 11.4663 29.0963 11.2022 29.0963C10.641 28.9973 9.98069 28.8322 9.5185 28.6671C9.18836 28.2379 8.69316 26.8183 8.5611 26.2241C8.66015 25.8939 9.05631 25.2007 9.25439 24.8045C9.65056 24.0452 9.88165 23.616 9.94768 23.2198C10.0797 22.6586 10.5089 19.1922 10.674 17.7396C11.1032 18.3008 11.6974 19.2252 11.5653 19.8195C12.5227 18.4659 11.8295 17.1454 11.4993 16.6171C11.2022 16.0889 10.806 15.0325 11.1362 13.91C11.4663 12.7876 12.6548 9.68428 12.6548 9.68428C12.6548 9.68428 13.051 10.3776 13.6122 10.2455C14.1734 10.1135 18.6963 3.31264 18.6963 3.31264C18.6963 3.31264 19.9178 5.98675 18.6303 7.93456C17.3097 9.88236 16.0222 10.2455 16.0222 10.2455C16.0222 10.2455 17.8379 10.5756 19.5216 9.35414C20.2149 10.9718 20.8752 12.6555 20.9082 12.8866C20.8092 13.1177 19.4886 16.287 19.3566 16.4851C19.2905 16.5511 18.8284 16.6832 18.4982 16.7492C17.937 16.9143 17.6068 17.0133 17.4748 17.1124C17.2437 17.3104 16.1873 20.2156 15.6921 21.6352C15.0978 21.8003 14.5036 22.1304 14.0744 22.7907C14.3055 22.6256 15.0318 22.5266 15.56 22.4605C16.0222 22.4275 17.4418 23.1868 17.8049 24.6064C17.8049 24.6394 17.8049 24.6394 17.8049 24.6724C17.871 25.2007 17.7059 25.6959 17.4418 26.092ZM14.3385 26.4882C14.6356 26.059 14.6026 25.3327 14.6356 25.1016C14.6686 24.8705 14.7347 24.4413 14.9988 24.3753C15.2629 24.3093 15.8901 24.4083 15.8901 24.8705C15.8901 25.2997 15.4279 25.3987 15.0978 25.6959C14.8667 25.927 14.4045 26.4222 14.3385 26.4882ZM27.511 20.1826C27.8411 18.4989 27.8741 17.0463 27.7751 15.8578C29.0626 17.5745 29.8549 19.6544 30.086 21.8003C30.119 22.0644 30.3831 22.3285 30.6472 22.5926C30.8783 22.7907 31.1425 23.0548 31.1425 23.2198C31.1425 23.9792 31.0764 24.7385 30.9444 25.4978C30.9114 25.5968 30.6142 25.7619 30.3831 25.8939C30.053 26.059 29.7559 26.2241 29.6899 26.4882C28.9636 29.0302 27.4119 31.2752 25.332 32.8598C28.4023 29.6575 29.8879 24.3754 27.511 20.1826ZM25.4311 33.157C27.577 31.5063 29.2277 29.1953 29.954 26.5872C29.987 26.4882 30.2841 26.3231 30.4822 26.1911C30.8123 26.026 31.1425 25.8279 31.2085 25.5638C31.3405 24.8045 31.4066 24.0122 31.4066 23.2198C31.4066 22.9227 31.1094 22.6256 30.8123 22.3285C30.6472 22.1304 30.3831 21.8993 30.3831 21.7342C30.119 19.3242 29.1616 17.0463 27.676 15.1645C27.0157 11.2029 24.3747 9.9814 24.3086 9.94839C24.3747 10.0474 26.0914 12.5235 24.9029 15.4287C23.6814 18.3669 20.5451 17.9047 20.281 17.9377C20.0168 17.9377 18.9934 19.2582 17.7059 21.7012C17.5408 21.6352 16.8475 21.4701 16.0552 21.6022C16.6495 19.9515 17.5408 17.6076 17.7059 17.4095C17.7719 17.3435 18.2671 17.2114 18.5973 17.1124C19.2245 16.9473 19.5216 16.8482 19.6207 16.7162C19.6867 16.6171 20.0168 15.8578 20.347 15.0655C20.6441 15.0655 21.4034 14.9995 21.4694 14.9665C21.5355 14.9004 22.1627 13.2828 22.1627 13.0847C22.1627 12.9196 20.8752 9.71729 20.38 8.49579C20.6111 8.23168 20.8422 7.90154 21.0733 7.53839C27.8411 8.26469 33.1233 14.0091 33.1233 20.975C33.1233 26.3232 29.987 30.9781 25.4311 33.157Z" fill="#1B314F"/>
<path d="M16.6492 15.3293C17.2765 14.603 16.9463 13.2494 15.7909 13.0183C16.088 12.3251 16.5172 10.9385 16.5172 10.9385C16.5172 10.9385 13.1498 16.2207 12.8526 16.3197C12.5555 16.4187 12.2584 15.2633 12.2584 15.2633C11.6311 17.6733 13.3148 18.0034 13.5129 17.2441C14.4373 17.013 16.022 16.0226 16.6492 15.3293Z" fill="#1B314F"/>
<path d="M13.7773 16.6184L15.4941 13.6802C15.4941 13.6802 16.4845 14.1754 15.9893 14.9677C15.362 15.8921 13.7773 16.6184 13.7773 16.6184Z" fill="#FFD923"/>
<path d="M35.0058 30.2202C34.5106 30.8804 33.9493 31.5737 33.2891 32.234C37.5478 24.0466 33.4871 16.5525 33.3221 16.2554C33.6192 16.5525 33.9163 16.8826 34.1804 17.1798C37.4488 20.8113 37.845 26.2585 35.0058 30.2202Z" fill="#D82122"/>
<path d="M38.9676 19.6873C37.482 15.6927 35.3691 12.2923 30.7142 9.22198C26.2243 6.25075 21.4044 6.48185 21.1402 6.51486C21.1072 6.51486 21.0742 6.51486 21.0742 6.51486C21.2393 6.44883 21.4044 6.41582 21.5694 6.38281C22.5928 6.05267 23.9134 5.78856 25.2339 5.62349C28.7334 5.12829 32.2659 6.31678 34.6758 8.85883C34.7089 8.89185 34.7089 8.89185 34.7419 8.92486C37.482 11.8301 38.9016 15.4616 38.9676 19.6873Z" fill="#D82122"/>
<path d="M29.6549 3.34481C24.7359 2.42043 21.5666 2.88262 19.2886 3.74098C19.2226 3.47687 18.9915 2.94865 18.7934 2.51947C18.1001 3.34481 17.3738 4.33522 16.9116 4.96248C15.6571 5.82083 15.1289 6.64617 15.1289 6.64617C15.8552 4.17015 17.9681 2.32139 20.5431 1.85921C21.2694 1.72716 22.0618 1.66113 22.9201 1.66113C25.1981 1.69415 27.476 2.25537 29.6549 3.34481Z" fill="#D82122"/>
<path d="M11.4664 9.68483C7.60374 9.55278 8.89128 5.06294 8.95731 4.79883C8.95731 4.83184 9.22142 8.33128 11.4664 9.68483Z" fill="#D82122"/>
<path d="M15.2624 1.59717C12.2911 3.3799 12.8854 7.63866 12.8854 7.63866C10.0462 3.31387 15.0313 1.69621 15.2624 1.59717Z" fill="#D82122"/>
<path d="M10.3793 10.8735C10.5774 11.0386 10.7754 11.3357 10.5443 11.7649C10.4123 11.996 10.2142 11.963 9.91708 11.8309C9.52092 11.6328 7.14394 10.2462 4.99805 8.82666C7.44106 9.68501 9.91708 10.6094 10.3132 10.8075C10.3132 10.8075 10.3463 10.8405 10.3793 10.8735Z" fill="white"/>
</svg>
