<svg width="40" height="40" viewBox="0 0 40 40" fill="none" xmlns="http://www.w3.org/2000/svg">
<path d="M10.3913 22.3499L11.3598 15.0567L2.94678 9.21597L10.6334 11.8185L12.4492 9.03439L19.0767 4.9187L33.6935 12.9685L34.45 25.2551L27.9436 34.3036L22.799 35.0904L25.462 30.2181V25.5275L23.5253 21.8657L21.5582 20.5645L18.5319 23.6815V26.9801L16.1714 29.1893L13.1755 29.5524L11.844 30.309L9.66504 29.6129L8.75716 26.3446L10.3913 24.0446V22.3499Z" fill="white"/>
<path d="M23.8276 9.15569C22.2237 8.82281 20.4685 8.91359 20.4685 8.91359C20.4685 8.91359 19.8936 11.5767 16.3226 12.2728C16.3529 12.2728 21.0435 13.8767 23.8276 9.15569Z" fill="#94A6C3"/>
<path d="M25.2792 33.3052C27.2161 31.792 28.6687 29.704 29.3345 27.3435C29.3647 27.2527 29.6371 27.1014 29.8187 26.9803C30.1213 26.7988 30.4239 26.6474 30.4844 26.4054C30.6054 25.7093 30.666 24.983 30.666 24.2567C30.666 23.9843 30.3936 23.712 30.1213 23.4396C29.9094 23.2581 29.6976 23.0462 29.6976 22.8949C29.395 20.141 28.1239 17.5687 26.0964 15.6924L25.8845 15.9042C27.8516 17.7503 29.1226 20.262 29.395 22.9251C29.4252 23.1672 29.6673 23.4093 29.9094 23.6514C30.1213 23.833 30.3633 24.1053 30.3633 24.2264C30.3633 24.9225 30.3028 25.6185 30.1818 26.3145C30.1515 26.4356 29.8792 26.5567 29.6673 26.6777C29.3647 26.829 29.0924 26.9803 29.0318 27.2225C28.3055 29.7947 26.6411 32.0341 24.432 33.4868C24.8253 32.6394 26.0661 29.8856 26.7319 28.4934L26.6108 24.0146L22.7675 20.2923L20.5886 20.595L18.1978 24.4685C18.1978 24.4685 19.3175 25.8909 17.7439 27.5553C16.2005 29.1894 14.99 29.5526 14.99 29.5526L13.8703 28.9474C14.2032 28.5237 14.8689 27.8882 15.3835 27.4646C16.2611 26.7382 17.1387 26.6777 17.1387 25.8909C17.1689 24.2567 15.4137 24.7106 15.4137 24.7106L14.7782 25.3159L14.5058 27.5553L13.1743 29.2198L13.023 29.1895L10.844 28.7053C10.844 28.7053 12.1756 28.0092 12.3874 27.2225C12.5993 26.4659 11.9638 23.9541 11.9335 23.8028C11.9638 23.833 12.569 24.3475 12.8414 25.1948C13.3255 23.8633 13.9611 22.5923 14.1427 22.4712C14.3243 22.3502 16.7755 21.0489 16.7755 21.0489L15.9584 23.1975L16.5637 22.8646L18.0163 19.2937C18.0163 19.2937 19.4386 18.5977 20.4978 18.5977C22.4043 18.5673 25.2187 16.2371 23.9477 12.0609C24.3109 12.2122 30.6054 15.3595 31.6949 21.5331C32.512 26.2843 29.8187 30.7328 25.2792 33.3052Z" fill="#94A6C3"/>
<path d="M18.0777 9.8207C18.7738 9.00362 18.5014 7.79312 18.5014 7.79312L16.4738 10.7891C16.4436 10.7891 17.2001 10.8194 18.0777 9.8207Z" fill="#1B314F"/>
<path d="M11.2676 26.1938L11.5096 24.9833C11.5096 24.9833 10.511 26.7386 10.4202 26.9807C10.3294 27.253 10.4807 27.7373 10.8742 27.707C11.2676 27.6767 11.7518 27.1018 11.7518 26.6781C11.7518 26.1333 11.2676 26.1938 11.2676 26.1938Z" fill="#1B314F"/>
<path d="M29.2455 6.94535C29.2455 6.94535 30.7586 7.00587 32.3323 7.18745C28.7915 4.40328 25.4324 3.58619 22.7088 3.58619C18.9563 3.58619 16.4142 5.1296 16.2629 5.22038L17.4431 3.34409C17.4431 3.34409 12.7222 2.89015 11.0577 7.88348C10.6341 6.82429 10.2406 5.28091 10.2406 5.28091C10.2406 5.28091 7.78938 7.42955 8.93935 11.0005C6.12494 9.9716 2.10003 8.54926 1.94871 8.519C1.73688 8.48874 1.67635 8.57952 1.67635 8.57952C1.67635 8.57952 1.61583 8.67031 1.7974 8.82162C2.13029 9.09398 8.48542 13.7847 9.87749 14.6926C9.57486 15.782 9.57486 16.2965 9.87749 16.8109C10.3012 17.5069 10.3314 17.8701 10.2709 18.3845C10.2104 18.8991 9.66565 23.3475 9.54461 23.8923C9.42355 24.437 8.15253 26.3738 8.21306 26.9489C8.27357 27.5238 9.0604 29.975 9.75644 30.2475C10.2709 30.429 11.5419 30.8225 12.3893 30.8225C12.6919 30.8225 12.9643 30.7619 13.0853 30.6408C13.5997 30.1869 13.7511 30.0961 14.1143 30.0961C14.1445 30.0961 14.1748 30.0961 14.205 30.0961C14.3564 30.0961 14.5379 30.1264 14.7498 30.1264C15.234 30.1264 15.8695 30.0356 16.3234 29.612C16.9892 28.9462 18.1392 28.0383 18.5023 27.6146C18.9563 27.0396 19.1984 26.2528 19.0773 25.466C18.9865 24.7397 19.38 24.1042 19.8339 23.4686C20.4088 22.7121 21.468 21.3503 21.468 21.3503C23.5561 22.924 24.8574 25.3146 24.8574 27.9777C24.8574 32.6987 20.7418 36.5118 15.6576 36.5118C14.8708 36.5118 14.1143 36.421 13.3576 36.2395C15.6879 37.0565 17.655 37.3289 19.2589 37.3289C22.6786 37.3289 24.4943 36.0881 24.4943 36.0881C24.4943 36.0881 23.8588 36.9052 22.8298 37.8433C22.8601 37.8433 22.8601 37.8433 22.8601 37.8433C28.5192 37.0565 31.2731 32.3961 31.2731 32.3961C31.2731 32.3961 31.0612 33.9092 30.7889 34.9382C38.3242 29.279 37.0532 22.1977 37.0229 21.9556C37.0835 22.0463 37.8401 22.9542 38.2335 23.4384C39.4441 10.9702 29.2455 6.94535 29.2455 6.94535ZM17.655 26.858C17.5339 27.0094 17.0194 27.4633 16.6563 27.7962C16.2932 28.1291 15.8997 28.462 15.5971 28.7646C15.4761 28.8856 15.234 28.9462 14.8708 28.9462C14.7498 28.9462 14.6287 28.9462 14.5379 28.9462C14.4773 28.9462 14.4168 28.9462 14.3564 28.9462C14.2959 28.9462 14.2656 28.9462 14.2353 28.9462C14.1445 28.9462 14.0538 28.9462 13.9629 28.9462C14.4168 28.3409 15.7484 26.9489 16.2023 26.6462C16.7471 26.2831 17.0194 25.9199 16.6865 25.2844C16.3537 24.6488 15.4761 24.8002 15.4761 24.8002C15.4761 24.8002 15.9905 24.5883 16.4444 24.5883C15.8695 24.437 15.1431 24.5883 14.8103 24.9213C14.4471 25.2541 14.5077 26.4344 14.3564 27.1909C14.205 27.9778 13.6906 28.3712 12.9037 29.0974C12.48 29.4909 12.1774 29.612 11.9353 29.612C11.4209 29.5212 10.8156 29.3699 10.392 29.2185C10.0893 28.8251 9.63539 27.5238 9.51434 26.9791C9.60513 26.6764 9.96828 26.041 10.1499 25.6778C10.513 24.9818 10.7248 24.5883 10.7854 24.2252C10.9064 23.7107 11.2998 20.5332 11.4512 19.2016C11.8446 19.7161 12.3893 20.5634 12.2682 21.1082C13.1458 19.8674 12.5104 18.657 12.2077 18.1727C11.9353 17.6885 11.5722 16.7201 11.8748 15.6912C12.1774 14.6623 13.2669 11.8176 13.2669 11.8176C13.2669 11.8176 13.6301 12.4532 14.1445 12.3321C14.6589 12.2111 18.8049 5.97694 18.8049 5.97694C18.8049 5.97694 19.9246 8.42821 18.7444 10.2137C17.5339 11.9992 16.3537 12.3321 16.3537 12.3321C16.3537 12.3321 18.0181 12.6347 19.5615 11.515C20.197 12.9978 20.8023 14.5412 20.8325 14.7531C20.7418 14.9649 19.5312 17.8701 19.4102 18.0517C19.3496 18.1122 18.926 18.2333 18.6233 18.2938C18.1089 18.4451 17.8062 18.5359 17.6852 18.6267C17.4734 18.8082 16.505 21.4713 16.0511 22.7726C15.5063 22.924 14.9616 23.2265 14.5682 23.8318C14.78 23.6805 15.4458 23.5897 15.93 23.5291C16.3537 23.4989 17.655 24.1949 17.9878 25.4962C17.9878 25.5265 17.9878 25.5265 17.9878 25.5567C18.0484 26.041 17.8971 26.4949 17.655 26.858ZM14.8103 27.2212C15.0826 26.8278 15.0524 26.162 15.0826 25.9501C15.1129 25.7383 15.1735 25.3449 15.4156 25.2844C15.6576 25.2239 16.2326 25.3146 16.2326 25.7383C16.2326 26.1317 15.8089 26.2225 15.5063 26.4949C15.2945 26.7068 14.8708 27.1607 14.8103 27.2212ZM26.8851 21.4411C27.1877 19.8977 27.2179 18.5661 27.1272 17.4767C28.3074 19.0503 29.0336 20.9569 29.2455 22.924C29.2757 23.166 29.5178 23.4081 29.7599 23.6502C29.9718 23.8318 30.2139 24.0739 30.2139 24.2252C30.2139 24.9213 30.1533 25.6173 30.0323 26.3133C30.0021 26.4041 29.7297 26.5554 29.5178 26.6764C29.2152 26.8278 28.9429 26.9791 28.8824 27.2212C28.2166 29.5514 26.7942 31.6093 24.8877 33.0618C27.7021 30.1264 29.0639 25.2845 26.8851 21.4411ZM24.9785 33.3343C26.9456 31.8211 28.4587 29.7027 29.1245 27.3119C29.1547 27.2212 29.4271 27.0699 29.6087 26.9489C29.9113 26.7975 30.2139 26.6159 30.2744 26.3738C30.3954 25.6778 30.456 24.9515 30.456 24.2252C30.456 23.9528 30.1836 23.6805 29.9113 23.4081C29.7599 23.2265 29.5178 23.0147 29.5178 22.8634C29.2757 20.6542 28.3981 18.5661 27.0363 16.8411C26.431 13.2097 24.0101 12.09 23.9495 12.0597C24.0101 12.1505 25.5838 14.4202 24.4943 17.0833C23.3746 19.7767 20.4997 19.353 20.2576 19.3832C20.0154 19.3832 19.0773 20.5937 17.8971 22.8331C17.7457 22.7726 17.1102 22.6213 16.3839 22.7424C16.9287 21.2292 17.7457 19.0807 17.8971 18.8991C17.9576 18.8386 18.4115 18.7175 18.7142 18.6267C19.2891 18.4754 19.5615 18.3845 19.6523 18.2635C19.7128 18.1727 20.0154 17.4767 20.3181 16.7504C20.5904 16.7504 21.2864 16.6899 21.3469 16.6596C21.4075 16.5991 21.9825 15.1163 21.9825 14.9347C21.9825 14.7833 20.8023 11.8479 20.3483 10.7282C20.5602 10.4861 20.772 10.1834 20.9838 9.85055C27.1877 10.5163 32.0297 15.782 32.0297 22.1674C32.0297 27.0699 29.1547 31.3369 24.9785 33.3343Z" fill="#1B314F"/>
<path d="M16.9284 16.9922C17.5035 16.3264 17.2008 15.0856 16.1417 14.8738C16.414 14.2384 16.8074 12.9673 16.8074 12.9673C16.8074 12.9673 13.7207 17.8093 13.4482 17.9001C13.1759 17.9908 12.9035 16.9317 12.9035 16.9317C12.3285 19.1409 13.8719 19.4435 14.0535 18.7474C14.9009 18.5356 16.3535 17.6277 16.9284 16.9922Z" fill="#1B314F"/>
<path d="M14.2959 18.1739L15.8696 15.4805C15.8696 15.4805 16.7775 15.9345 16.3235 16.6607C15.7485 17.5081 14.2959 18.1739 14.2959 18.1739Z" fill="#FFD923"/>
<path d="M33.7553 30.6422C33.3014 31.2474 32.7868 31.8829 32.1817 32.4882C36.0855 24.9831 32.3632 18.1135 32.2119 17.8411C32.4842 18.1135 32.7566 18.4161 32.9987 18.6885C35.9947 22.0174 36.3579 27.0106 33.7553 30.6422Z" fill="#D82122"/>
<path d="M37.3869 20.987C36.0251 17.3253 34.0883 14.2083 29.8213 11.3938C25.7056 8.67018 21.2873 8.88202 21.0452 8.91228C21.0149 8.91228 20.9847 8.91228 20.9847 8.91228C21.136 8.85176 21.2873 8.8215 21.4386 8.79124C22.3767 8.48861 23.5873 8.24651 24.7977 8.0952C28.0056 7.64126 31.2437 8.73071 33.4528 11.0609C33.4831 11.0912 33.4831 11.0912 33.5134 11.1214C36.0251 13.7846 37.3264 17.1135 37.3869 20.987Z" fill="#D82122"/>
<path d="M28.8503 6.00642C24.3412 5.15907 21.436 5.58274 19.3479 6.36957C19.2874 6.12747 19.0755 5.64327 18.8939 5.24985C18.2584 6.00642 17.5926 6.91429 17.169 7.48928C16.019 8.2761 15.5348 9.03266 15.5348 9.03266C16.2006 6.76298 18.1374 5.06828 20.4978 4.64462C21.1636 4.52357 21.89 4.46304 22.6768 4.46304C24.7649 4.49331 26.853 5.00776 28.8503 6.00642Z" fill="#D82122"/>
<path d="M12.1775 11.8181C8.63675 11.697 9.817 7.58136 9.87752 7.33926C9.87752 7.36952 10.1196 10.5773 12.1775 11.8181Z" fill="#D82122"/>
<path d="M15.6572 4.40442C12.9335 6.03859 13.4783 9.94245 13.4783 9.94245C10.8757 5.97806 15.4453 4.49521 15.6572 4.40442Z" fill="#D82122"/>
<path d="M11.181 12.9077C11.3626 13.059 11.5441 13.3314 11.3323 13.7248C11.2113 13.9367 11.0297 13.9064 10.7573 13.7853C10.3942 13.6037 8.21527 12.3327 6.24821 11.0314C8.48763 11.8183 10.7573 12.6656 11.1204 12.8472C11.1204 12.8472 11.1508 12.8775 11.181 12.9077Z" fill="white"/>
</svg>
