<svg width="24" height="24" viewBox="0 0 24 24" fill="currentColor" xmlns="http://www.w3.org/2000/svg">
<path d="M12.1878 9.10857C11.4888 8.98866 10.8051 9.39043 10.5698 10.0595C10.4365 10.4384 10.0213 10.6375 9.64238 10.5042C9.26348 10.3709 9.06437 9.95572 9.19766 9.57681C9.66839 8.23868 11.0356 7.43515 12.4337 7.67496C13.8317 7.91475 14.8529 9.12775 14.851 10.5461C14.8507 11.6591 14.0255 12.3941 13.4362 12.7869C13.0457 13.0472 12.6178 13.2624 12.1739 13.4165C11.7978 13.5427 11.3775 13.3338 11.252 12.9572C11.125 12.5764 11.3306 12.1649 11.7112 12.0376C12.0336 11.9244 12.3455 11.7659 12.6294 11.5767C13.1309 11.2423 13.3964 10.8866 13.3964 10.5454V10.5443C13.3975 9.83509 12.8869 9.22847 12.1878 9.10857Z"/>
<path d="M12 15.6364C12.4017 15.6364 12.7273 15.3108 12.7273 14.9091C12.7273 14.5074 12.4017 14.1818 12 14.1818C11.5983 14.1818 11.2727 14.5074 11.2727 14.9091C11.2727 15.3108 11.5983 15.6364 12 15.6364Z"/>
<path fill-rule="evenodd" clip-rule="evenodd" d="M4 12C4 7.58172 7.58172 4 12 4C16.4183 4 20 7.58172 20 12C20 16.4183 16.4183 20 12 20C7.58172 20 4 16.4183 4 12ZM12 5.45455C8.38505 5.45455 5.45455 8.38505 5.45455 12C5.45455 15.615 8.38505 18.5455 12 18.5455C15.615 18.5455 18.5455 15.615 18.5455 12C18.5455 8.38505 15.615 5.45455 12 5.45455Z"/>
</svg>
