<svg width="24" height="24" viewBox="0 0 24 24" fill="currentColor" xmlns="http://www.w3.org/2000/svg">
<path fill-rule="evenodd" clip-rule="evenodd" d="M14.9206 15.4795C15.6743 14.5504 16.8043 14.0074 18.0006 13.9995C20.2098 13.9995 22.0006 15.7904 22.0006 17.9995C22.0006 20.2087 20.2098 21.9995 18.0006 21.9995C15.7915 21.9995 14.0006 20.2087 14.0006 17.9995C14.0036 17.7613 14.0271 17.5238 14.0706 17.2895L8.79064 14.8595C7.21946 16.3958 4.70316 16.377 3.15515 14.8173C1.60714 13.2577 1.60714 10.7413 3.15515 9.1817C4.70316 7.62206 7.21946 7.60323 8.79064 9.13953L14.0706 6.70953C14.0271 6.47529 14.0036 6.23776 14.0006 5.99953C13.9849 4.05305 15.3727 2.37785 17.2881 2.03115C19.2035 1.68445 21.0904 2.76694 21.7579 4.59543C22.4255 6.42393 21.6798 8.4675 19.9916 9.43643C18.3033 10.4054 16.1627 10.0183 14.9206 8.51953L9.82064 10.8695C10.0604 11.6038 10.0604 12.3953 9.82064 13.1295L14.9206 15.4795ZM20.0006 5.99953C20.0006 4.89496 19.1052 3.99953 18.0006 3.99953C16.8961 3.99953 16.0006 4.89496 16.0006 5.99953C16.0006 7.1041 16.8961 7.99953 18.0006 7.99953C19.1052 7.99953 20.0006 7.1041 20.0006 5.99953ZM6.00064 13.9995C4.89607 13.9995 4.00064 13.1041 4.00064 11.9995C4.00064 10.895 4.89607 9.99953 6.00064 9.99953C7.10521 9.99953 8.00064 10.895 8.00064 11.9995C8.00064 13.1041 7.10521 13.9995 6.00064 13.9995ZM16.0006 17.9995C16.0006 19.1041 16.8961 19.9995 18.0006 19.9995C19.1052 19.9995 20.0006 19.1041 20.0006 17.9995C20.0006 16.895 19.1052 15.9995 18.0006 15.9995C16.8961 15.9995 16.0006 16.895 16.0006 17.9995Z"/>
</svg>
