<svg width="24" height="24" viewBox="0 0 299 239" fill="none" xmlns="http://www.w3.org/2000/svg">
<path d="M238.914 59.6196H2.93948C2.35603 59.6114 1.78781 59.4321 1.30526 59.104C0.822722 58.7759 0.44708 58.3134 0.224908 57.7739C0.00273558 57.2343 -0.056197 56.6414 0.0554164 56.0687C0.16703 55.4959 0.444281 54.9685 0.852797 54.5519L52.7218 2.62326C54.4265 0.952968 56.7146 0.0120811 59.1011 0H295.075C295.659 0.0081961 296.227 0.187449 296.71 0.515536C297.192 0.843623 297.568 1.30612 297.79 1.84568C298.012 2.38524 298.071 2.97814 297.959 3.55088C297.848 4.12362 297.57 4.65101 297.162 5.06766L245.293 56.9963C243.588 58.6666 241.3 59.6075 238.914 59.6196Z" fill="url(#paint0_linear)"/>
<path d="M238.913 238.478H2.93911C2.35565 238.47 1.78743 238.291 1.30489 237.963C0.822349 237.635 0.446707 237.172 0.224534 236.633C0.00236174 236.093 -0.0565708 235.5 0.0550425 234.927C0.166656 234.355 0.443907 233.827 0.852423 233.411L52.7214 181.482C54.4261 179.812 56.7142 178.871 59.1007 178.859H295.075C295.658 178.867 296.227 179.046 296.709 179.374C297.192 179.702 297.567 180.165 297.789 180.704C298.012 181.244 298.071 181.837 297.959 182.41C297.847 182.982 297.57 183.51 297.162 183.926L245.293 235.855C243.588 237.525 241.3 238.466 238.913 238.478Z" fill="url(#paint1_linear)"/>
<path d="M295.075 149.049H59.1007C56.7142 149.037 54.4261 148.096 52.7214 146.426L0.852423 94.4971C0.443907 94.0805 0.166656 93.5531 0.0550425 92.9804C-0.0565708 92.4076 0.00236174 91.8147 0.224534 91.2752C0.446707 90.7356 0.822349 90.2731 1.30489 89.945C1.78743 89.6169 2.35565 89.4377 2.93911 89.4295H238.913C241.3 89.4416 243.588 90.3824 245.293 92.0527L297.162 143.981C297.57 144.398 297.847 144.925 297.959 145.498C298.071 146.071 298.012 146.664 297.789 147.203C297.567 147.743 297.192 148.205 296.709 148.533C296.227 148.862 295.658 149.041 295.075 149.049Z" fill="url(#paint2_linear)"/>
<defs>
<linearGradient id="paint0_linear" x1="298.014" y1="-0.00972551" x2="2.59472" y2="241.161" gradientUnits="userSpaceOnUse">
<stop stop-color="#00A3FF"/>
<stop offset="1" stop-color="#3ADCFF"/>
</linearGradient>
<linearGradient id="paint1_linear" x1="298.014" y1="-0.00972551" x2="2.59472" y2="241.161" gradientUnits="userSpaceOnUse">
<stop stop-color="#00A3FF"/>
<stop offset="1" stop-color="#3ADCFF"/>
</linearGradient>
<linearGradient id="paint2_linear" x1="298.014" y1="-0.00972551" x2="2.59472" y2="241.161" gradientUnits="userSpaceOnUse">
<stop stop-color="#00A3FF"/>
<stop offset="1" stop-color="#3ADCFF"/>
</linearGradient>
</defs>
</svg>
