<svg width="24" height="24" viewBox="0 0 24 24" fill="none" xmlns="http://www.w3.org/2000/svg">
<rect width="24" height="24" rx="12"/>
<path d="M17.1287 9.03223C17.0877 9.07389 17.0388 9.10701 16.985 9.12964C16.9311 9.15226 16.8733 9.16396 16.8148 9.16405H5.69478C5.3017 9.16405 5.1026 8.68471 5.37739 8.40004L7.2014 6.51029C7.24247 6.4676 7.29173 6.43361 7.34622 6.41037C7.40072 6.38712 7.45934 6.3751 7.51858 6.375H18.6802C19.0757 6.375 19.2737 6.85934 18.9941 7.14261L17.1287 9.03223ZM17.1287 17.4726C17.045 17.555 16.9322 17.6011 16.8148 17.601H5.69478C5.3017 17.601 5.1026 17.1336 5.37739 16.8561L7.2014 15.0135C7.24299 14.9717 7.29244 14.9385 7.34692 14.9158C7.40139 14.8932 7.4598 14.8816 7.51879 14.8817H18.6802C19.0757 14.8817 19.2737 15.3539 18.9941 15.6301L17.1287 17.4726ZM17.1287 10.7566C17.045 10.6743 16.9322 10.6282 16.8148 10.6284H5.69478C5.3017 10.6284 5.1026 11.0957 5.37739 11.3733L7.2014 13.2158C7.24295 13.2576 7.29237 13.2908 7.34681 13.3134C7.40125 13.336 7.45963 13.3477 7.51858 13.3476H18.6802C19.0757 13.3476 19.2737 12.8754 18.9941 12.5993L17.1287 10.7566Z" fill="url(#paint0_linear)"/>
<defs>
<linearGradient id="paint0_linear" x1="6.2631" y1="17.9053" x2="18.0921" y2="6.077" gradientUnits="userSpaceOnUse">
<stop stop-color="#CF41E8"/>
<stop offset="1" stop-color="#10F2B0"/>
</linearGradient>
</defs>
</svg>
