<svg width="24" height="24" viewBox="0 0 34 32" fill="none" xmlns="http://www.w3.org/2000/svg">
<path fill-rule="evenodd" clip-rule="evenodd" d="M11.125 10.7455C8.86892 10.2201 6.69083 8.37694 6.36881 4.83576C6.32755 4.38199 6.28002 3.98439 6.22852 3.63602C9.05793 1.36042 12.645 0 16.5476 0C21.2837 0 25.555 2.00354 28.5715 5.21486C26.9997 5.83703 13.2516 11.2407 11.125 10.7455Z" fill="#2642B4"/>
<path fill-rule="evenodd" clip-rule="evenodd" d="M24.7482 29.4994C29.4733 26.7075 30.2771 24.319 31.1867 20.4797C32.0964 16.6404 20.5586 18.7699 17.4524 20.093C14.3462 21.4162 12.6188 25.2653 15.7825 28.9076C18.9463 32.5499 20.0232 32.2912 24.7482 29.4994Z" fill="#2642B4"/>
<path fill-rule="evenodd" clip-rule="evenodd" d="M31.024 24.7441C27.8934 25.4004 24.1391 27.5018 22.4707 28.9415C20.8559 30.3348 21.4337 31.7211 23.5815 31.7528C26.7328 30.2605 29.3406 27.7964 31.024 24.7441Z" fill="#4393FF"/>
<path fill-rule="evenodd" clip-rule="evenodd" d="M27.665 4.31927C24.216 2.50575 22.4379 3.01968 14.8086 5.86608C5.23474 9.43798 9.2455 17.0435 16.5476 19.5784C17.2524 19.8231 17.9387 20.0647 18.6068 20.2998C24.4595 22.3601 28.9061 23.9253 31.977 22.7004C32.6997 20.8285 33.0963 18.7926 33.0963 16.6634C33.0963 11.7693 31.0012 7.36797 27.665 4.31927Z" fill="#4393FF"/>
<path fill-rule="evenodd" clip-rule="evenodd" d="M1.75 9.19667C4.4598 9.10938 9.73178 7.56419 11.7818 4.60348C13.7548 1.75402 11.9504 1.33977 9.29538 1.6815C6.03566 3.28451 3.37661 5.9345 1.75 9.19667Z" fill="#4393FF"/>
<path fill-rule="evenodd" clip-rule="evenodd" d="M0.97488 11.0166C0.343888 12.7805 0 14.6824 0 16.6652C0 23.55 4.1461 29.4597 10.0611 32.0003C10.1936 30.1297 10.285 27.9087 10.1934 25.9064C10.0315 22.3672 4.99587 15.3774 0.97488 11.0166Z" fill="#4393FF"/>
</svg>
