<svg width="24" height="24" viewBox="0 0 35 40" fill="none" xmlns="http://www.w3.org/2000/svg">
<path d="M16.2706 19.0107C17.1102 20.4953 15.2326 20.9555 14.3515 21.0402C13.0163 21.1705 12.7399 20.3976 13.0007 19.4265C13.0862 19.0788 13.2763 18.7659 13.5448 18.5305C13.8133 18.2949 14.1476 18.1481 14.5021 18.1099C14.8513 18.0777 15.2026 18.1452 15.5154 18.3045C15.8282 18.4638 16.0899 18.7086 16.2706 19.0107Z" fill="#FF007A"/>
<path d="M21.5107 16.2681C20.5349 23.7659 33.69 22.2055 33.4396 28.173C34.7372 26.4785 35.2952 21.8744 31.4749 19.5046C28.0713 17.3916 23.6362 18.5479 21.5107 16.2681Z" fill="#FF007A"/>
<path d="M29.0896 13.4371C29.0039 13.3576 28.9158 13.2794 28.8301 13.2012C28.917 13.2807 29.0039 13.3641 29.0896 13.4371Z" fill="#FF007A"/>
<path d="M32.1475 18.905L32.1398 18.8932C32.021 18.6716 31.8856 18.4594 31.7349 18.2583C31.2913 17.6548 30.6551 17.2223 29.9325 17.0331C29.4515 16.9084 28.9595 16.8307 28.4636 16.8011C27.9614 16.7646 27.4489 16.7437 26.9311 16.7164C25.8931 16.6589 24.8304 16.5521 23.7922 16.2549C23.5327 16.1806 23.2732 16.0997 23.0228 16.002C22.893 15.9551 22.7723 15.9043 22.6438 15.8495C22.5154 15.7947 22.3843 15.7321 22.2546 15.6657C21.7664 15.3972 21.3144 15.0673 20.9089 14.6842C20.1096 13.9373 19.4816 13.0899 18.8522 12.2687C18.259 11.4444 17.6223 10.6524 16.9449 9.89633C16.2765 9.15562 15.4864 8.5357 14.6091 8.06358C13.7008 7.60399 12.7142 7.32095 11.7012 7.22934C12.752 7.11471 13.815 7.24496 14.8076 7.60997C15.8093 8.00058 16.7249 8.58471 17.5028 9.3293C18.0107 9.80775 18.4874 10.3185 18.9302 10.8583C22.2261 10.2066 24.8991 10.7853 26.9532 11.909L26.9999 11.9324C27.6537 12.2886 28.2664 12.7162 28.8269 13.2073C28.9165 13.2855 29.0047 13.3637 29.0865 13.4432C29.524 13.847 29.9312 14.2826 30.3049 14.7467L30.3335 14.7845C31.5467 16.3279 32.1461 17.9325 32.1475 18.905Z" fill="#FF007A"/>
<path d="M32.1464 18.9047L32.1387 18.8892L32.1464 18.9047Z" fill="#FF007A"/>
<path d="M11.8679 8.19238C12.7088 8.31492 13.5664 8.65123 14.1192 9.29256C14.6721 9.93389 14.8757 10.7681 15.0354 11.562C15.1651 12.1772 15.2677 12.8042 15.5089 13.3869C15.6257 13.6711 15.797 13.9201 15.9398 14.1886C16.0579 14.4115 16.2732 14.6122 16.3563 14.8508C16.3711 14.885 16.3766 14.9226 16.3723 14.9597C16.3681 14.9968 16.3539 15.0321 16.3317 15.0619C16.0384 15.3878 15.2469 15.0255 14.9483 14.8794C14.4325 14.6225 13.9703 14.2685 13.5872 13.8366C12.3896 12.5005 11.7706 10.5778 11.8083 8.82719C11.8166 8.61466 11.8365 8.40273 11.8679 8.19238Z" fill="#FF007A"/>
<path d="M25.9307 23.2622C24.1142 28.355 32.3538 31.7717 29.2669 36.9492C32.4343 35.6352 33.9383 31.6661 32.6238 28.5167C31.4741 25.752 28.0743 24.7444 25.9307 23.2622Z" fill="#FF007A"/>
<path d="M15.0332 29.9204C15.5283 29.5455 16.0695 29.2367 16.6435 29.0014C17.2243 28.7679 17.8268 28.5932 18.4421 28.48C19.663 28.2466 20.8711 28.1893 21.8858 27.7788C22.3872 27.5821 22.8485 27.2949 23.247 26.9314C23.6328 26.5714 23.928 26.1247 24.1086 25.628C24.2937 25.1038 24.3687 24.5468 24.3293 23.9921C24.2835 23.3962 24.1492 22.8104 23.9309 22.2544C24.3833 22.7269 24.7125 23.3043 24.8897 23.9353C25.067 24.5662 25.0865 25.2313 24.9469 25.8717C24.7881 26.5495 24.4454 27.1701 23.9568 27.6641C23.4732 28.1427 22.89 28.5077 22.2492 28.7329C21.6377 28.9484 21 29.0799 20.3534 29.1239C19.7306 29.1761 19.1285 29.1905 18.5368 29.2256C17.3404 29.276 16.1589 29.5104 15.0332 29.9204Z" fill="#FF007A"/>
<path d="M26.6559 38.8736C26.4731 39.0196 26.2901 39.1748 26.089 39.3103C25.8866 39.4443 25.6744 39.5628 25.4544 39.6649C24.9963 39.8894 24.4927 40.004 23.983 39.9999C22.6023 39.9739 21.6265 38.9414 21.0555 37.7747C20.6663 36.9797 20.3977 36.1205 19.9358 35.3633C19.2752 34.28 18.1451 33.408 16.8214 33.5695C16.2818 33.6374 15.7756 33.8811 15.4759 34.3517C14.6869 35.581 15.8197 37.3029 17.2639 37.0591C17.3869 37.0403 17.507 37.0071 17.6222 36.96C17.7368 36.911 17.8439 36.8455 17.94 36.7658C18.1418 36.5971 18.2939 36.3762 18.3798 36.1272C18.4748 35.8674 18.4958 35.5861 18.4409 35.315C18.3816 35.0316 18.2151 34.7825 17.9764 34.6202C18.2539 34.7508 18.4702 34.9844 18.5797 35.272C18.6934 35.5678 18.7226 35.8898 18.6641 36.2014C18.6074 36.5261 18.4648 36.8296 18.2514 37.08C18.138 37.2087 18.007 37.3207 17.8622 37.4123C17.7186 37.503 17.5649 37.5761 17.4042 37.6301C17.0782 37.7419 16.7312 37.778 16.3894 37.7357C15.9094 37.667 15.4568 37.4698 15.0788 37.1647C14.6324 36.8101 14.3002 36.3461 13.8967 35.9472C13.4341 35.4596 12.8882 35.0592 12.285 34.7649C11.8691 34.5814 11.4338 34.4458 10.9875 34.3609C10.763 34.3139 10.5359 34.28 10.3089 34.2514C10.205 34.2409 9.69637 34.1275 9.625 34.1939C10.3269 33.5449 11.092 32.9685 11.9088 32.4733C12.7475 31.9733 13.6479 31.5863 14.587 31.3224C15.5607 31.0471 16.5791 30.9686 17.5831 31.0916C18.1 31.1539 18.6063 31.2856 19.0884 31.4827C19.5936 31.6853 20.0599 31.9747 20.4664 32.3378C20.8688 32.7186 21.1941 33.1741 21.4241 33.6792C21.6318 34.1519 21.7866 34.6463 21.886 35.1534C22.1818 36.6693 22.0729 39.0196 24.0492 39.3664C24.1522 39.3864 24.2561 39.4012 24.3606 39.4106L24.6837 39.4185C24.9058 39.4026 25.1265 39.3708 25.3442 39.3233C25.795 39.2169 26.2343 39.0661 26.6559 38.8736Z" fill="#FF007A"/>
<path d="M15.171 37.2179L15.1191 37.1772L15.171 37.2179Z" fill="#FF007A"/>
<path d="M13.399 15.8258C13.327 16.1036 13.2013 16.3645 13.0291 16.5936C12.7085 17.0114 12.2844 17.3373 11.799 17.5387C11.3623 17.7276 10.9 17.8497 10.4275 17.901C10.3249 17.914 10.2185 17.9218 10.116 17.9297C9.81665 17.941 9.52879 18.0484 9.29459 18.2361C9.06039 18.4238 8.89215 18.6818 8.8145 18.9725C8.77894 19.1171 8.7525 19.2639 8.73534 19.4118C8.68864 19.795 8.68084 20.1939 8.63932 20.6761C8.53765 21.4969 8.30131 22.295 7.93991 23.0382C7.47019 24.0314 6.94337 24.8317 7.06534 25.9763C7.14578 26.7193 7.52468 27.2172 8.02815 27.7308C8.93647 28.6642 10.9698 29.0812 10.5156 31.3807C10.2419 32.7532 7.97624 34.1937 4.79194 34.6968C5.10855 34.6485 4.38579 33.4245 4.34037 33.3463C3.99911 32.8093 3.6254 32.3035 3.3542 31.7209C2.82218 30.5908 2.57563 29.2833 2.79364 28.0449C3.02331 26.7414 3.98353 25.7429 4.78156 24.747C5.73141 23.5622 6.72795 22.0097 6.94854 20.4715C7.00045 20.0988 7.03678 19.632 7.11983 19.1679C7.199 18.6539 7.35933 18.1557 7.59475 17.6924C7.75545 17.3885 7.96701 17.1147 8.2202 16.883C8.35219 16.7599 8.43928 16.5959 8.46752 16.4172C8.49574 16.2385 8.46349 16.0556 8.3759 15.8975L3.2997 6.72593L10.5909 15.7645C10.674 15.8692 10.7789 15.9544 10.8984 16.0138C11.0178 16.0731 11.1488 16.1055 11.282 16.1083C11.4153 16.1112 11.5475 16.0846 11.6693 16.0304C11.7913 15.9761 11.8998 15.8955 11.9871 15.7945C12.0795 15.6863 12.1319 15.5494 12.1354 15.4069C12.139 15.2645 12.0934 15.1251 12.0066 15.0125C11.5304 14.4011 11.0269 13.778 10.539 13.1653L8.70421 10.8842L5.02162 6.32966L0 0L5.49394 5.92167L9.41399 10.2754L11.3695 12.4575C12.0183 13.1914 12.667 13.9018 13.3159 14.6735L13.4222 14.8039L13.4456 15.0058C13.4773 15.2799 13.4615 15.5573 13.399 15.8258Z" fill="#FF007A"/>
<path d="M15.0782 37.1569C14.7258 36.8836 14.4124 36.5629 14.1465 36.2041C14.4318 36.5457 14.7432 36.8643 15.0782 37.1569Z" fill="#FF007A"/>
</svg>
