<svg width="24" height="24" viewBox="0 0 24 24" fill="none" xmlns="http://www.w3.org/2000/svg">
<path fill-rule="evenodd" clip-rule="evenodd" d="M17.4 7.6H18.3C19.7912 7.6 21 8.80883 21 10.3V17.5C21 18.9912 19.7912 20.2 18.3 20.2H5.7C4.20883 20.2 3 18.9912 3 17.5V6.7C3 5.20883 4.20883 4 5.7 4H14.7C16.1912 4 17.4 5.20883 17.4 6.7V7.6ZM14.7 5.8H5.7C5.20294 5.8 4.8 6.20294 4.8 6.7C4.8 7.19706 5.20294 7.6 5.7 7.6H15.6V6.7C15.6 6.20294 15.1971 5.8 14.7 5.8ZM19.2 14.8H18.3C17.8029 14.8 17.4 14.3971 17.4 13.9C17.4 13.4029 17.8029 13 18.3 13H19.2V14.8ZM18.3 11.2H19.2V10.3C19.2 9.8029 18.7971 9.39996 18.3 9.39996H5.7C5.39349 9.40042 5.08914 9.34868 4.8 9.24696V17.5C4.8 17.997 5.20294 18.4 5.7 18.4H18.3C18.7971 18.4 19.2 17.997 19.2 17.5V16.6H18.3C16.8088 16.6 15.6 15.3911 15.6 13.9C15.6 12.4088 16.8088 11.2 18.3 11.2Z" fill="black"/>
</svg>
