<svg width="40" height="40" viewBox="0 0 40 40" fill="none" xmlns="http://www.w3.org/2000/svg">
<path d="M8.19201 12.7888C14.714 6.40375 25.287 6.40375 31.809 12.7888L32.593 13.5578C32.6704 13.6328 32.732 13.7226 32.774 13.8219C32.816 13.9212 32.8377 14.0279 32.8377 14.1358C32.8377 14.2436 32.816 14.3503 32.774 14.4496C32.732 14.5489 32.6704 14.6387 32.593 14.7137L29.908 17.3427C29.8289 17.4194 29.7231 17.4622 29.613 17.4622C29.5029 17.4622 29.3971 17.4194 29.318 17.3427L28.238 16.2847C23.688 11.8307 16.312 11.8307 11.763 16.2847L10.606 17.4178C10.5269 17.4944 10.4211 17.5372 10.311 17.5372C10.2009 17.5372 10.0951 17.4944 10.016 17.4178L7.33001 14.7878C7.25274 14.7127 7.19132 14.6229 7.14938 14.5238C7.10744 14.4246 7.08583 14.3179 7.08583 14.2102C7.08583 14.1026 7.10744 13.9959 7.14938 13.8967C7.19132 13.7976 7.25274 13.7078 7.33001 13.6328L8.19101 12.7888H8.19201ZM37.362 18.2257L39.751 20.5658C39.8283 20.6408 39.8897 20.7306 39.9316 20.8297C39.9736 20.9289 39.9952 21.0356 39.9952 21.1433C39.9952 21.2509 39.9736 21.3576 39.9316 21.4568C39.8897 21.5559 39.8283 21.6457 39.751 21.7207L28.976 32.2708C28.8178 32.424 28.6062 32.5096 28.386 32.5096C28.1658 32.5096 27.9542 32.424 27.796 32.2708L20.148 24.7838C20.1085 24.7454 20.0556 24.724 20.0005 24.724C19.9454 24.724 19.8926 24.7454 19.853 24.7838L12.206 32.2708C12.0478 32.4243 11.836 32.5101 11.6155 32.5101C11.395 32.5101 11.1832 32.4243 11.025 32.2708L0.250006 21.7207C0.172589 21.6457 0.111038 21.5559 0.0690038 21.4566C0.0269698 21.3573 0.00531006 21.2506 0.00531006 21.1427C0.00531006 21.0349 0.0269698 20.9282 0.0690038 20.8289C0.111038 20.7296 0.172589 20.6398 0.250006 20.5647L2.64001 18.2248C2.79819 18.0715 3.00978 17.9859 3.23001 17.9859C3.45023 17.9859 3.66182 18.0715 3.82001 18.2248L11.468 25.7127C11.549 25.7927 11.681 25.7927 11.763 25.7127L19.41 18.2257C19.5682 18.0725 19.7798 17.9869 20 17.9869C20.2202 17.9869 20.4318 18.0725 20.59 18.2257L28.238 25.7127C28.32 25.7927 28.452 25.7927 28.533 25.7127L36.18 18.2257C36.3382 18.0722 36.55 17.9864 36.7705 17.9864C36.991 17.9864 37.2028 18.0722 37.361 18.2257H37.362Z" fill="#3B99FC"/>
</svg>
