<svg width="20" height="20" viewBox="0 0 20 20" fill="none" xmlns="http://www.w3.org/2000/svg">
<rect width="20" height="20" rx="2" ry="2" fill="#00A3FF"/>
<path d="M5.89799 9.28906L5.78603 9.46081C4.52329 11.3979 4.8053 13.9347 6.46405 15.56C7.43988 16.5161 8.71883 16.9943 9.99781 16.9944C9.99781 16.9944 9.99781 16.9944 5.89799 9.28906Z" fill="white"/>
<path opacity="0.6" d="M9.99729 11.6309L5.89746 9.28906C9.99729 16.9944 9.99729 16.9944 9.99729 16.9944C9.99729 15.3162 9.99729 13.3933 9.99729 11.6309Z" fill="white"/>
<path opacity="0.6" d="M14.1018 9.28906L14.2137 9.46081C15.4765 11.3979 15.1945 13.9347 13.5357 15.56C12.5599 16.5161 11.2809 16.9943 10.0019 16.9944C10.0019 16.9944 10.0019 16.9944 14.1018 9.28906Z" fill="white"/>
<path opacity="0.2" d="M10.0015 11.6309L14.1013 9.28906C10.0015 16.9944 10.0015 16.9944 10.0015 16.9944C10.0015 15.3162 10.0015 13.3933 10.0015 11.6309Z" fill="white"/>
<path opacity="0.2" d="M10.0029 6.39941V10.4385L13.5345 8.42024L10.0029 6.39941Z" fill="white"/>
<path opacity="0.6" d="M10.0028 6.39941L6.46875 8.4202L10.0028 10.4385V6.39941Z" fill="white"/>
<path d="M10.0028 3.00195L6.46875 8.42087L10.0028 6.3944V3.00195Z" fill="white"/>
<path opacity="0.6" d="M10.0029 6.39411L13.5372 8.42063L10.0029 2.99902V6.39411Z" fill="white"/>
</svg>
