<svg preserveAspectRatio="none" overflow="visible" style="display: block;" width="20" height="20" viewBox="0 0 20 20" fill="none" xmlns="http://www.w3.org/2000/svg">
<g id="icon/download">
<g id="Icon (Stroke)">
<path d="M6.45996 8.79004L9.34961 11.6797L9.34961 3.98633L10.6504 3.98633L10.6504 11.6797L13.54 8.79004L14.46 9.70996L10.46 13.71L10 14.1689L9.54004 13.71L5.54004 9.70996L6.45996 8.79004Z" fill="#0C0C0D" fill-opacity="0.7"/>
<path d="M3.34961 13.7998L3.34961 13H4.65039V13.7998C4.65039 14.3705 4.65023 14.7597 4.6748 15.0605C4.69877 15.3539 4.74235 15.5063 4.79687 15.6133C4.92628 15.8671 5.13286 16.0737 5.38672 16.2031C5.49373 16.2576 5.64615 16.3012 5.93945 16.3252C6.24033 16.3498 6.62951 16.3496 7.2002 16.3496H12.7998C13.3705 16.3496 13.7597 16.3498 14.0605 16.3252C14.3539 16.3012 14.5063 16.2576 14.6133 16.2031C14.8671 16.0737 15.0737 15.8671 15.2031 15.6133C15.2576 15.5063 15.3012 15.3539 15.3252 15.0605C15.3498 14.7597 15.3496 14.3705 15.3496 13.7998V13H16.6504V13.7998C16.6504 14.3491 16.65 14.8009 16.6201 15.167C16.5896 15.5405 16.5247 15.8825 16.3613 16.2031C16.1073 16.7018 15.7018 17.1073 15.2031 17.3613C14.8825 17.5247 14.5405 17.5896 14.167 17.6201C13.8009 17.65 13.3491 17.6504 12.7998 17.6504H7.2002C6.65087 17.6504 6.19912 17.65 5.83301 17.6201C5.45951 17.5896 5.11754 17.5247 4.79687 17.3613C4.29825 17.1073 3.89274 16.7018 3.63867 16.2031C3.47529 15.8825 3.41043 15.5405 3.37988 15.167C3.34997 14.8009 3.34961 14.3491 3.34961 13.7998Z" fill="#0C0C0D" fill-opacity="0.7"/>
</g>
</g>
</svg>
