<svg width="80" height="80" viewBox="0 0 80 80" fill="none" xmlns="http://www.w3.org/2000/svg">
<g opacity="0.5" filter="url(#filter0_f_561_20406)">
<path d="M53.5666 57.987H32.3696C26.6376 57.987 21.9746 53.324 21.9746 47.592V26.396C21.9746 20.664 26.6376 16 32.3696 16H53.5666C59.2986 16 63.9616 20.664 63.9616 26.396V47.592C63.9616 53.324 59.2986 57.987 53.5666 57.987Z" fill="#7C65C1"/>
</g>
<path d="M51.7876 19H28.1616C25.7251 19.0008 23.3887 19.9691 21.6659 21.692C19.9432 23.415 18.9751 25.7515 18.9746 28.188V51.813C18.9754 54.2495 19.9437 56.5859 21.6667 58.3087C23.3896 60.0314 25.7261 60.9995 28.1626 61H51.7876C54.2239 60.9992 56.5602 60.031 58.2829 58.3083C60.0056 56.5856 60.9738 54.2493 60.9746 51.813V28.187C60.9738 25.7507 60.0056 23.4144 58.2829 21.6917C56.5602 19.969 54.2239 19.0008 51.7876 19Z" fill="#7C65C1"/>
<path d="M49.0463 30.76H53.7503L53.0783 34.456H51.9023V48.568L51.9543 48.569C52.4863 48.596 52.9103 49.037 52.9103 49.576V50.416L52.9623 50.417C53.4943 50.444 53.9183 50.885 53.9183 51.424V52.264H44.5103V51.424C44.5103 50.884 44.9333 50.444 45.4663 50.417H45.5183V49.577C45.5183 49.037 45.9413 48.597 46.4743 48.569H46.5263V41.68C46.5263 39.9423 45.836 38.2758 44.6072 37.0471C43.3785 35.8183 41.712 35.128 39.9743 35.128C38.2366 35.128 36.57 35.8183 35.3413 37.0471C34.1126 38.2758 33.4223 39.9423 33.4223 41.68V48.568L33.4743 48.569C34.0063 48.596 34.4303 49.037 34.4303 49.576V50.416L34.4823 50.417C35.0143 50.444 35.4383 50.885 35.4383 51.424V52.264H26.0303V51.424C26.0303 50.884 26.4543 50.444 26.9863 50.417H27.0383V49.577C27.0383 49.037 27.4623 48.597 27.9943 48.569H28.0463V34.455H26.8703L26.1983 30.759H30.9023V27.903H49.0463V30.76Z" fill="white"/>
<defs>
<filter id="filter0_f_561_20406" x="9.97461" y="4" width="65.9873" height="65.987" filterUnits="userSpaceOnUse" color-interpolation-filters="sRGB">
<feFlood flood-opacity="0" result="BackgroundImageFix"/>
<feBlend mode="normal" in="SourceGraphic" in2="BackgroundImageFix" result="shape"/>
<feGaussianBlur stdDeviation="6" result="effect1_foregroundBlur_561_20406"/>
</filter>
</defs>
</svg>
