<svg xmlns="http://www.w3.org/2000/svg" width="80" height="80" fill="none" viewBox="0 0 80 80">
  <g filter="url(#a)" opacity=".5">
    <path fill="#00A3FF" d="m53.767 39.471.403.614c4.546 6.92 3.53 15.984-2.44 21.79C48.215 65.291 43.611 67 39.007 67l14.76-27.529Z" opacity=".6"/>
    <path fill="#00A3FF" d="m39.006 47.838 14.76-8.367L39.006 67V47.838Z" opacity=".2"/>
    <path fill="#00A3FF" d="m24.233 39.471-.403.614c-4.546 6.92-3.53 15.984 2.44 21.79C29.785 65.291 34.389 67 38.993 67L24.232 39.47Z"/>
    <path fill="#00A3FF" d="m38.988 47.838-14.76-8.367L38.989 67V47.838Z" opacity=".6"/>
    <path fill="#00A3FF" d="M39.012 29.147v14.43l12.713-7.21-12.713-7.22Z" opacity=".2"/>
    <path fill="#00A3FF" d="m39.008 29.147-12.723 7.22 12.723 7.21v-14.43Z" opacity=".6"/>
    <path fill="#00A3FF" d="m39.008 17.011-12.723 19.36 12.723-7.24v-12.12Z"/>
    <path fill="#00A3FF" d="m39.012 29.13 12.723 7.24L39.012 17v12.13Z" opacity=".6"/>
  </g>
  <path fill="#00A3FF" d="m54.767 36.471.403.614c4.546 6.92 3.53 15.984-2.44 21.79C49.215 62.291 44.611 64 40.007 64l14.76-27.529Z" opacity=".6"/>
  <path fill="#00A3FF" d="m40.006 44.838 14.76-8.367L40.006 64V44.838Z" opacity=".2"/>
  <path fill="#00A3FF" d="m25.233 36.471-.403.614c-4.546 6.92-3.53 15.984 2.44 21.79C30.785 62.291 35.389 64 39.993 64L25.232 36.47Z"/>
  <path fill="#00A3FF" d="m39.988 44.838-14.76-8.367L39.989 64V44.838Z" opacity=".6"/>
  <path fill="#00A3FF" d="M40.012 26.147v14.43l12.713-7.21-12.713-7.22Z" opacity=".2"/>
  <path fill="#00A3FF" d="m40.008 26.147-12.723 7.22 12.723 7.21v-14.43Z" opacity=".6"/>
  <path fill="#00A3FF" d="m40.008 14.011-12.723 19.36 12.723-7.24v-12.12Z"/>
  <path fill="#00A3FF" d="m40.012 26.13 12.723 7.24L40.012 14v12.13Z" opacity=".6"/>
  <defs>
    <filter id="a" width="52" height="66" x="13" y="9" color-interpolation-filters="sRGB" filterUnits="userSpaceOnUse">
      <feFlood flood-opacity="0" result="BackgroundImageFix"/>
      <feBlend in="SourceGraphic" in2="BackgroundImageFix" result="shape"/>
      <feGaussianBlur result="effect1_foregroundBlur_55_2105" stdDeviation="4"/>
    </filter>
  </defs>
</svg>
