<svg xmlns="http://www.w3.org/2000/svg" width="81" height="80" fill="none" viewBox="0 0 81 80">
  <g filter="url(#a)" opacity=".5">
    <path fill="#E5A539" d="M52.015 46V14h6v32h-6Z"/>
  </g>
  <g filter="url(#b)" opacity=".5">
    <path fill="#13172A" d="M35.298 55H22.015V23h12.749c6.196 0 9.806 3.506 9.806 8.989 0 3.55-2.318 5.843-3.923 6.607 1.915.899 4.368 2.92 4.368 7.192 0 5.976-4.055 9.212-9.717 9.212Zm-1.025-26.426h-6.062v7.37h6.062c2.63 0 4.101-1.483 4.101-3.686 0-2.2-1.471-3.684-4.1-3.684Zm.4 12.989h-6.462v7.865h6.463c2.81 0 4.144-1.796 4.144-3.956 0-2.156-1.335-3.909-4.144-3.909Z"/>
  </g>
  <path fill="#E5A539" d="M52.015 51V19h6v32h-6Z"/>
  <path fill="#13172A" d="M35.298 60H22.015V28h12.749c6.196 0 9.806 3.506 9.806 8.989 0 3.55-2.318 5.843-3.923 6.607 1.915.899 4.368 2.92 4.368 7.192 0 5.976-4.055 9.212-9.717 9.212Zm-1.025-26.426h-6.062v7.37h6.062c2.63 0 4.101-1.483 4.101-3.686 0-2.2-1.471-3.684-4.1-3.684Zm.4 12.989h-6.462v7.865h6.463c2.81 0 4.144-1.796 4.144-3.956 0-2.156-1.335-3.909-4.144-3.909Z"/>
  <defs>
    <filter id="a" width="34" height="60" x="38.015" y="0" color-interpolation-filters="sRGB" filterUnits="userSpaceOnUse">
      <feFlood flood-opacity="0" result="BackgroundImageFix"/>
      <feBlend in="SourceGraphic" in2="BackgroundImageFix" result="shape"/>
      <feGaussianBlur result="effect1_foregroundBlur_52_17428" stdDeviation="7"/>
    </filter>
    <filter id="b" width="51" height="60" x="8.015" y="9" color-interpolation-filters="sRGB" filterUnits="userSpaceOnUse">
      <feFlood flood-opacity="0" result="BackgroundImageFix"/>
      <feBlend in="SourceGraphic" in2="BackgroundImageFix" result="shape"/>
      <feGaussianBlur result="effect1_foregroundBlur_52_17428" stdDeviation="7"/>
    </filter>
  </defs>
</svg>
