<svg xmlns="http://www.w3.org/2000/svg" width="80" height="80" fill="none" viewBox="0 0 80 80">
  <path fill="#2F48ED" d="M55.643 44.096a2.177 2.177 0 0 1-2.233.152c-.825-.47-1.27-1.574-1.27-3.077v-4.607c0-2.212-.868-3.786-2.32-4.213-2.453-.724-4.285 2.309-4.992 3.45l-4.339 7.09v-8.653c-.048-1.995-.69-3.19-1.907-3.547-.803-.238-2.008-.14-3.181 1.665l-9.702 15.72a17.437 17.437 0 0 1-1.95-8.079c0-9.474 7.5-17.18 16.74-17.18 9.24 0 16.767 7.706 16.767 17.18v.098c.09 1.833-.498 3.293-1.607 4.001h-.006ZM61 40.003v-.092C60.925 28.366 51.755 19 40.49 19 29.223 19 20 28.42 20 39.997 20 51.575 29.192 61 40.49 61a20.153 20.153 0 0 0 13.927-5.602 1.934 1.934 0 0 0 .096-2.704 1.84 1.84 0 0 0-1.276-.609 1.82 1.82 0 0 0-1.327.485 16.543 16.543 0 0 1-5.625 3.54 16.426 16.426 0 0 1-12.976-.61 16.587 16.587 0 0 1-5.274-4.055l8.732-14.168v6.538c0 3.142 1.205 4.158 2.217 4.456 1.012.297 2.56.092 4.184-2.569l4.82-7.879c.15-.254.295-.47.424-.66v4.008c0 2.936 1.168 5.283 3.214 6.44a5.848 5.848 0 0 0 6.005-.243c2.25-1.477 3.476-4.148 3.348-7.365H61Z"/>
  <g filter="url(#a)">
    <path fill="#2F48ED" fill-opacity=".61" d="M59.643 41.096a2.177 2.177 0 0 1-2.233.152c-.825-.47-1.27-1.574-1.27-3.077v-4.607c0-2.212-.868-3.786-2.32-4.213-2.453-.724-4.285 2.309-4.992 3.45l-4.339 7.09v-8.653c-.048-1.995-.69-3.19-1.907-3.547-.803-.238-2.008-.14-3.181 1.666l-9.702 15.72a17.437 17.437 0 0 1-1.95-8.08c0-9.474 7.5-17.18 16.74-17.18 9.24 0 16.767 7.706 16.767 17.18v.098c.09 1.833-.498 3.293-1.607 4.001h-.006ZM65 37.003v-.092C64.925 25.366 55.755 16 44.49 16 33.223 16 24 25.42 24 36.997 24 48.575 33.192 58 44.49 58a20.153 20.153 0 0 0 13.927-5.602 1.934 1.934 0 0 0 .096-2.704 1.84 1.84 0 0 0-1.276-.609 1.82 1.82 0 0 0-1.327.485 16.543 16.543 0 0 1-5.625 3.54 16.426 16.426 0 0 1-12.976-.61 16.587 16.587 0 0 1-5.274-4.055l8.732-14.168v6.538c0 3.142 1.205 4.158 2.217 4.456 1.012.297 2.56.092 4.184-2.569l4.82-7.879c.15-.254.295-.47.424-.66v4.008c0 2.936 1.168 5.283 3.214 6.44a5.848 5.848 0 0 0 6.005-.243c2.25-1.477 3.476-4.148 3.348-7.365H65Z"/>
  </g>
  <defs>
    <filter id="a" width="69" height="70" x="10" y="2" color-interpolation-filters="sRGB" filterUnits="userSpaceOnUse">
      <feFlood flood-opacity="0" result="BackgroundImageFix"/>
      <feBlend in="SourceGraphic" in2="BackgroundImageFix" result="shape"/>
      <feGaussianBlur result="effect1_foregroundBlur_52_21036" stdDeviation="7"/>
    </filter>
  </defs>
</svg>
