<svg xmlns="http://www.w3.org/2000/svg" width="81" height="80" fill="none" viewBox="0 0 81 80">
  <g filter="url(#a)">
    <path fill="url(#b)" d="M43.019 16c-11.606 0-21 9.395-21 21s9.394 21 21 21c11.605 0 21-9.395 21-21s-9.395-21-21-21Zm0 37.919c-9.353 0-16.92-7.567-16.92-16.919 0-1.615.808-5.356 6.59-5.356 5.781 0 10.925 5.611 17.854 6.419 2.338.297 4.208.255 5.611.085 2.04-.255 3.699 1.7 3.103 3.698-2.083 6.972-8.544 12.073-16.238 12.073Z"/>
  </g>
  <path fill="url(#c)" d="M40.019 19c-11.606 0-21 9.395-21 21s9.394 21 21 21c11.605 0 21-9.395 21-21s-9.395-21-21-21Zm0 37.919c-9.353 0-16.92-7.567-16.92-16.919 0-1.615.808-5.356 6.59-5.356 5.781 0 10.925 5.611 17.854 6.419 2.338.297 4.208.255 5.611.085 2.04-.255 3.699 1.7 3.103 3.698-2.083 6.972-8.544 12.073-16.238 12.073Z"/>
  <defs>
    <linearGradient id="b" x1="14.024" x2="41.418" y1="37.105" y2="65.245" gradientUnits="userSpaceOnUse">
      <stop stop-color="#FFE480"/>
      <stop offset=".458" stop-color="#FF43C3"/>
      <stop offset=".98" stop-color="#4156E0"/>
    </linearGradient>
    <linearGradient id="c" x1="11.024" x2="38.418" y1="40.105" y2="68.245" gradientUnits="userSpaceOnUse">
      <stop stop-color="#FFE480"/>
      <stop offset=".458" stop-color="#FF43C3"/>
      <stop offset=".98" stop-color="#4156E0"/>
    </linearGradient>
    <filter id="a" width="66" height="66" x="10.019" y="4" color-interpolation-filters="sRGB" filterUnits="userSpaceOnUse">
      <feFlood flood-opacity="0" result="BackgroundImageFix"/>
      <feBlend in="SourceGraphic" in2="BackgroundImageFix" result="shape"/>
      <feGaussianBlur result="effect1_foregroundBlur_52_21460" stdDeviation="6"/>
    </filter>
  </defs>
</svg>
