<svg xmlns="http://www.w3.org/2000/svg" width="81" height="80" fill="none" viewBox="0 0 81 80">
  <g filter="url(#a)">
    <path fill="#91B3F0" fill-rule="evenodd" d="M30.237 17h-.829l-.538.628-13.872 16.214-.99 1.158.99 1.157L28.87 52.372l.537.628h27.599V40.907H53.42v8.522H34.16l11.526-13.261L46.702 35l-1.015-1.168L34.16 20.57h19.258v8.522h3.588V17h-26.77Zm.01 4.527L18.72 35l11.527 13.473L41.957 35l-11.71-13.473Z" clip-rule="evenodd"/>
  </g>
  <path fill="#232323" fill-rule="evenodd" d="M30.237 22h-.829l-.538.628-13.872 16.214-.99 1.158.99 1.157L28.87 57.372l.537.628h27.599V45.907H53.42v8.522H34.16l11.526-13.261L46.702 40l-1.015-1.168L34.16 25.57h19.258v8.522h3.588V22h-26.77Zm.01 4.527L18.72 40l11.527 13.473L41.957 40l-11.71-13.473Z" clip-rule="evenodd"/>
  <defs>
    <filter id="a" width="61" height="54" x="5.007" y="8" color-interpolation-filters="sRGB" filterUnits="userSpaceOnUse">
      <feFlood flood-opacity="0" result="BackgroundImageFix"/>
      <feBlend in="SourceGraphic" in2="BackgroundImageFix" result="shape"/>
      <feGaussianBlur result="effect1_foregroundBlur_52_21462" stdDeviation="4.5"/>
    </filter>
  </defs>
</svg>
