<svg xmlns="http://www.w3.org/2000/svg" width="80" height="80" fill="none" viewBox="0 0 80 80">
  <path fill="#000" fill-rule="evenodd" d="M39.5 60.998a9.035 9.035 0 0 1-4.504-1.199l-10.492-6.023a8.872 8.872 0 0 1-3.287-3.26A9.011 9.011 0 0 1 20 46.022V33.975a9.01 9.01 0 0 1 1.216-4.492 8.869 8.869 0 0 1 3.287-3.26l10.493-6.024A9.062 9.062 0 0 1 39.5 19c1.578 0 3.13.413 4.503 1.2l10.493 6.02a8.977 8.977 0 0 1 3.226 3.158l-13.77 8.025c-2.711 1.596-4.438 4.613-4.452 7.725V61v-.002ZM58.997 43.95v2.072a9.01 9.01 0 0 1-1.216 4.492 8.868 8.868 0 0 1-3.286 3.26L44.004 59.8a9.208 9.208 0 0 1-.9.452V56.51a5.525 5.525 0 0 1 .721-2.657 5.442 5.442 0 0 1 1.909-1.963c3.932-2.312 7.892-4.578 11.823-6.892.515-.308.995-.66 1.441-1.048Zm-.072-11.121c.05.378.074.761.074 1.148v2.184c-.009 2.345-1.298 4.57-3.29 5.764-3.93 2.314-7.892 4.58-11.822 6.893-.27.162-.532.339-.783.529v-4.21a5.52 5.52 0 0 1 .735-2.679 5.436 5.436 0 0 1 1.94-1.966l13.146-7.663Z" clip-rule="evenodd"/>
  <g filter="url(#a)" opacity=".2">
    <path fill="#000" fill-rule="evenodd" d="M43.5 54.998a9.035 9.035 0 0 1-4.504-1.199l-10.492-6.023a8.872 8.872 0 0 1-3.287-3.26A9.011 9.011 0 0 1 24 40.022V27.975a9.01 9.01 0 0 1 1.216-4.492 8.869 8.869 0 0 1 3.287-3.26l10.493-6.024A9.062 9.062 0 0 1 43.5 13c1.578 0 3.13.413 4.503 1.2l10.493 6.02a8.977 8.977 0 0 1 3.226 3.158l-13.77 8.025c-2.711 1.596-4.438 4.613-4.452 7.725V55v-.002ZM62.997 37.95v2.072a9.01 9.01 0 0 1-1.216 4.492 8.868 8.868 0 0 1-3.286 3.26L48.004 53.8a9.208 9.208 0 0 1-.9.452V50.51a5.525 5.525 0 0 1 .721-2.657 5.442 5.442 0 0 1 1.909-1.963c3.932-2.312 7.892-4.578 11.823-6.892.515-.308.995-.66 1.441-1.048Zm-.072-11.121c.05.378.074.761.074 1.148v2.184c-.009 2.345-1.298 4.57-3.29 5.764-3.93 2.314-7.892 4.58-11.822 6.893-.27.162-.532.339-.783.529v-4.21a5.52 5.52 0 0 1 .735-2.679 5.436 5.436 0 0 1 1.94-1.966l13.146-7.663Z" clip-rule="evenodd"/>
  </g>
  <defs>
    <filter id="a" width="59" height="62" x="14" y="3" color-interpolation-filters="sRGB" filterUnits="userSpaceOnUse">
      <feFlood flood-opacity="0" result="BackgroundImageFix"/>
      <feBlend in="SourceGraphic" in2="BackgroundImageFix" result="shape"/>
      <feGaussianBlur result="effect1_foregroundBlur_52_21530" stdDeviation="5"/>
    </filter>
  </defs>
</svg>
