<svg xmlns="http://www.w3.org/2000/svg" width="80" height="80" fill="none" viewBox="0 0 80 80">
  <g filter="url(#a)" opacity=".7">
    <path fill="url(#b)" d="M44.038 17a20.89 20.89 0 0 0-8.073 1.604l6.353 15.338a4.358 4.358 0 0 1 3.428.03l6.353-15.339A20.958 20.958 0 0 0 44.039 17Z"/>
    <path fill="url(#c)" d="M29.124 23.179a21.033 21.033 0 0 0-4.548 6.854l15.338 6.352a4.376 4.376 0 0 1 2.404-2.445l-6.353-15.336a20.896 20.896 0 0 0-6.841 4.575Z"/>
    <path fill="url(#d)" d="M58.914 23.217a21.01 21.01 0 0 0-6.815-4.586L45.746 33.97a4.403 4.403 0 0 1 2.312 2.349c.012.031.023.063.036.093l15.338-6.353a20.872 20.872 0 0 0-4.518-6.84Z"/>
    <path fill="url(#e)" d="M48.096 36.413a4.36 4.36 0 0 1-.066 3.333l15.339 6.352a21.026 21.026 0 0 0 1.63-8.007 20.94 20.94 0 0 0-1.565-8.035l-15.338 6.357Z"/>
    <path fill="url(#f)" d="m39.914 36.386-15.338-6.353A21.02 21.02 0 0 0 23 38.095a20.96 20.96 0 0 0 1.602 7.942c.012.032.027.062.04.093l15.338-6.352c-.012-.032-.027-.062-.04-.094a4.403 4.403 0 0 1-.026-3.298Z"/>
    <path fill="url(#g)" d="M48.03 39.747a4.367 4.367 0 0 1-2.348 2.312l6.353 15.339a20.937 20.937 0 0 0 11.336-11.296l-15.34-6.355Z"/>
    <path fill="url(#h)" d="M40.96 41.173a4.365 4.365 0 0 1-.977-1.398l-15.34 6.353a20.922 20.922 0 0 0 4.572 6.788 21.015 21.015 0 0 0 6.816 4.508l6.353-15.339a4.44 4.44 0 0 1-1.424-.912Z"/>
    <path fill="url(#i)" d="M44.038 42.393a4.412 4.412 0 0 1-1.652-.308l-6.353 15.339a20.944 20.944 0 0 0 16.004-.025l-6.353-15.34a4.395 4.395 0 0 1-1.646.334Z"/>
  </g>
  <path fill="url(#j)" d="M40.038 19a20.89 20.89 0 0 0-8.073 1.604l6.353 15.338a4.358 4.358 0 0 1 3.428.03l6.353-15.339A20.958 20.958 0 0 0 40.039 19Z"/>
  <path fill="url(#k)" d="M25.124 25.179a21.033 21.033 0 0 0-4.548 6.854l15.338 6.352a4.376 4.376 0 0 1 2.404-2.445l-6.353-15.336a20.896 20.896 0 0 0-6.841 4.575Z"/>
  <path fill="url(#l)" d="M54.914 25.217a21.01 21.01 0 0 0-6.815-4.586L41.746 35.97a4.403 4.403 0 0 1 2.312 2.349c.012.031.023.063.036.093l15.338-6.353a20.872 20.872 0 0 0-4.518-6.84Z"/>
  <path fill="url(#m)" d="M44.096 38.413a4.36 4.36 0 0 1-.066 3.333l15.339 6.352a21.026 21.026 0 0 0 1.63-8.007 20.94 20.94 0 0 0-1.565-8.035l-15.338 6.357Z"/>
  <path fill="url(#n)" d="m35.914 38.386-15.338-6.353A21.02 21.02 0 0 0 19 40.095a20.96 20.96 0 0 0 1.602 7.942c.012.032.027.062.04.093l15.338-6.352c-.012-.032-.027-.062-.04-.094a4.403 4.403 0 0 1-.026-3.298Z"/>
  <path fill="url(#o)" d="M44.03 41.747a4.367 4.367 0 0 1-2.348 2.312l6.353 15.339a20.937 20.937 0 0 0 11.336-11.296l-15.34-6.355Z"/>
  <path fill="url(#p)" d="M36.96 43.173a4.365 4.365 0 0 1-.977-1.398l-15.34 6.353a20.922 20.922 0 0 0 4.572 6.788 21.015 21.015 0 0 0 6.816 4.508l6.353-15.339a4.44 4.44 0 0 1-1.424-.912Z"/>
  <path fill="url(#q)" d="M40.038 44.393a4.412 4.412 0 0 1-1.652-.308l-6.353 15.339a20.944 20.944 0 0 0 16.004-.025l-6.353-15.34a4.395 4.395 0 0 1-1.646.334Z"/>
  <defs>
    <linearGradient id="b" x1="37.85" x2="47.605" y1="25.361" y2="25.558" gradientUnits="userSpaceOnUse">
      <stop stop-color="#32A5D3"/>
      <stop offset=".411" stop-color="#53BD9F"/>
      <stop offset=".618" stop-color="#72CCB0"/>
      <stop offset="1" stop-color="#74E0C1" stop-opacity="0"/>
    </linearGradient>
    <linearGradient id="c" x1="31.262" x2="37.765" y1="34.007" y2="25.927" gradientUnits="userSpaceOnUse">
      <stop stop-color="#32A5D3"/>
      <stop offset=".411" stop-color="#53BD9F"/>
      <stop offset=".618" stop-color="#72CCB0"/>
      <stop offset="1" stop-color="#74E0C1" stop-opacity="0"/>
    </linearGradient>
    <linearGradient id="d" x1="48.03" x2="56.011" y1="25.103" y2="31.902" gradientUnits="userSpaceOnUse">
      <stop stop-color="#32A5D3"/>
      <stop offset=".411" stop-color="#53BD9F"/>
      <stop offset=".618" stop-color="#72CCB0"/>
      <stop offset="1" stop-color="#74E0C1" stop-opacity="0"/>
    </linearGradient>
    <linearGradient id="e" x1="56.583" x2="56.484" y1="31.982" y2="42.033" gradientUnits="userSpaceOnUse">
      <stop stop-color="#32A5D3"/>
      <stop offset=".411" stop-color="#53BD9F"/>
      <stop offset=".618" stop-color="#72CCB0"/>
      <stop offset="1" stop-color="#74E0C1" stop-opacity="0"/>
    </linearGradient>
    <linearGradient id="f" x1="31.724" x2="31.33" y1="44.529" y2="33.986" gradientUnits="userSpaceOnUse">
      <stop stop-color="#32A5D3"/>
      <stop offset=".411" stop-color="#53BD9F"/>
      <stop offset=".618" stop-color="#72CCB0"/>
      <stop offset="1" stop-color="#74E0C1" stop-opacity="0"/>
    </linearGradient>
    <linearGradient id="g" x1="56.699" x2="50.196" y1="41.876" y2="50.251" gradientUnits="userSpaceOnUse">
      <stop stop-color="#32A5D3"/>
      <stop offset=".411" stop-color="#53BD9F"/>
      <stop offset=".618" stop-color="#72CCB0"/>
      <stop offset="1" stop-color="#74E0C1" stop-opacity="0"/>
    </linearGradient>
    <linearGradient id="h" x1="39.474" x2="32.281" y1="51.329" y2="43.841" gradientUnits="userSpaceOnUse">
      <stop stop-color="#32A5D3"/>
      <stop offset=".411" stop-color="#53BD9F"/>
      <stop offset=".618" stop-color="#72CCB0"/>
      <stop offset="1" stop-color="#74E0C1" stop-opacity="0"/>
    </linearGradient>
    <linearGradient id="i" x1="50.164" x2="40.31" y1="50.694" y2="50.398" gradientUnits="userSpaceOnUse">
      <stop stop-color="#32A5D3"/>
      <stop offset=".411" stop-color="#53BD9F"/>
      <stop offset=".618" stop-color="#72CCB0"/>
      <stop offset="1" stop-color="#74E0C1" stop-opacity="0"/>
    </linearGradient>
    <linearGradient id="j" x1="33.85" x2="43.605" y1="27.361" y2="27.558" gradientUnits="userSpaceOnUse">
      <stop stop-color="#32A5D3"/>
      <stop offset=".411" stop-color="#53BD9F"/>
      <stop offset=".618" stop-color="#72CCB0"/>
      <stop offset="1" stop-color="#74E0C1" stop-opacity="0"/>
    </linearGradient>
    <linearGradient id="k" x1="27.262" x2="33.765" y1="36.007" y2="27.927" gradientUnits="userSpaceOnUse">
      <stop stop-color="#32A5D3"/>
      <stop offset=".411" stop-color="#53BD9F"/>
      <stop offset=".618" stop-color="#72CCB0"/>
      <stop offset="1" stop-color="#74E0C1" stop-opacity="0"/>
    </linearGradient>
    <linearGradient id="l" x1="44.03" x2="52.011" y1="27.103" y2="33.902" gradientUnits="userSpaceOnUse">
      <stop stop-color="#32A5D3"/>
      <stop offset=".411" stop-color="#53BD9F"/>
      <stop offset=".618" stop-color="#72CCB0"/>
      <stop offset="1" stop-color="#74E0C1" stop-opacity="0"/>
    </linearGradient>
    <linearGradient id="m" x1="52.583" x2="52.484" y1="33.982" y2="44.033" gradientUnits="userSpaceOnUse">
      <stop stop-color="#32A5D3"/>
      <stop offset=".411" stop-color="#53BD9F"/>
      <stop offset=".618" stop-color="#72CCB0"/>
      <stop offset="1" stop-color="#74E0C1" stop-opacity="0"/>
    </linearGradient>
    <linearGradient id="n" x1="27.724" x2="27.33" y1="46.529" y2="35.986" gradientUnits="userSpaceOnUse">
      <stop stop-color="#32A5D3"/>
      <stop offset=".411" stop-color="#53BD9F"/>
      <stop offset=".618" stop-color="#72CCB0"/>
      <stop offset="1" stop-color="#74E0C1" stop-opacity="0"/>
    </linearGradient>
    <linearGradient id="o" x1="52.699" x2="46.196" y1="43.876" y2="52.251" gradientUnits="userSpaceOnUse">
      <stop stop-color="#32A5D3"/>
      <stop offset=".411" stop-color="#53BD9F"/>
      <stop offset=".618" stop-color="#72CCB0"/>
      <stop offset="1" stop-color="#74E0C1" stop-opacity="0"/>
    </linearGradient>
    <linearGradient id="p" x1="35.474" x2="28.281" y1="53.329" y2="45.841" gradientUnits="userSpaceOnUse">
      <stop stop-color="#32A5D3"/>
      <stop offset=".411" stop-color="#53BD9F"/>
      <stop offset=".618" stop-color="#72CCB0"/>
      <stop offset="1" stop-color="#74E0C1" stop-opacity="0"/>
    </linearGradient>
    <linearGradient id="q" x1="46.164" x2="36.31" y1="52.694" y2="52.398" gradientUnits="userSpaceOnUse">
      <stop stop-color="#32A5D3"/>
      <stop offset=".411" stop-color="#53BD9F"/>
      <stop offset=".618" stop-color="#72CCB0"/>
      <stop offset="1" stop-color="#74E0C1" stop-opacity="0"/>
    </linearGradient>
    <filter id="a" width="64" height="64" x="12" y="6" color-interpolation-filters="sRGB" filterUnits="userSpaceOnUse">
      <feFlood flood-opacity="0" result="BackgroundImageFix"/>
      <feBlend in="SourceGraphic" in2="BackgroundImageFix" result="shape"/>
      <feGaussianBlur result="effect1_foregroundBlur_52_21870" stdDeviation="5.5"/>
    </filter>
  </defs>
</svg>
