<svg xmlns="http://www.w3.org/2000/svg" width="80" height="80" fill="none" viewBox="0 0 80 80">
  <g filter="url(#a)" opacity=".7">
    <path fill="url(#b)" d="M39.395 21 62 34.555v13.557L39.395 34.555V21Z"/>
    <path fill="#2F2F2F" d="M39.395 63.172 62 49.752V36.337L39.395 49.75v13.42Z"/>
    <path fill="#EB9E00" d="M39.396 21 17.35 34.555v13.557l22.046-13.557V21Z"/>
    <path fill="#363636" d="M39.396 63.172 17.35 49.752V36.337l22.046 13.418v13.416Z"/>
  </g>
  <path fill="url(#c)" d="M39.395 19.053 62 32.607v13.557L39.395 32.607V19.053Z"/>
  <path fill="#2F2F2F" d="M39.395 61.224 62 47.804V34.39L39.395 47.804v13.42Z"/>
  <path fill="#EB9E00" d="M39.396 19.053 17.35 32.607v13.557l22.046-13.557V19.053Z"/>
  <path fill="#363636" d="M39.396 61.224 17.35 47.804V34.39l22.046 13.418v13.415Z"/>
  <defs>
    <linearGradient id="b" x1="61.841" x2="39.395" y1="29.787" y2="29.787" gradientUnits="userSpaceOnUse">
      <stop stop-color="#EB9B01"/>
      <stop offset="1" stop-color="#FFB800"/>
    </linearGradient>
    <linearGradient id="c" x1="61.841" x2="39.395" y1="27.839" y2="27.839" gradientUnits="userSpaceOnUse">
      <stop stop-color="#EB9B01"/>
      <stop offset="1" stop-color="#FFB800"/>
    </linearGradient>
    <filter id="a" width="72.65" height="70.172" x="3.35" y="7" color-interpolation-filters="sRGB" filterUnits="userSpaceOnUse">
      <feFlood flood-opacity="0" result="BackgroundImageFix"/>
      <feBlend in="SourceGraphic" in2="BackgroundImageFix" result="shape"/>
      <feGaussianBlur result="effect1_foregroundBlur_52_21951" stdDeviation="7"/>
    </filter>
  </defs>
</svg>
