<svg xmlns="http://www.w3.org/2000/svg" width="81" height="80" fill="none" viewBox="0 0 81 80">
  <g filter="url(#a)">
    <path fill="#B9AAFD" d="M55.909 33.18h-9.036v4.462h9.036v-4.463Zm5.271 7.436h-9.036v5.206h9.036v-5.206ZM44.614 24.998h-9.036v4.463h9.036v-4.463ZM61.18 48.797h-9.036v2.975h9.036v-2.975Zm-11.295-8.181h-8.283v5.206h8.283v-5.206Zm0 8.181h-8.283v2.975h8.283v-2.975Zm-11.296-8.181h-8.283v5.206h8.283v-5.206Zm0 8.181h-8.283v2.975h8.283v-2.975Zm-10.542-8.181h-9.036v5.206h9.036v-5.206Zm5.271-7.436h-9.036v4.462h9.036v-4.463Zm-5.271 15.617h-9.036v2.975h9.036v-2.975Z"/>
  </g>
  <path fill="#B9AAFD" d="M55.909 35.18h-9.036v4.462h9.036v-4.463Z"/>
  <path fill="#2E2626" d="M61.18 42.616h-9.036v5.206h9.036v-5.206ZM44.614 26.998h-9.036v4.463h9.036v-4.463Z"/>
  <path fill="#B9AAFD" d="M61.18 50.797h-9.036v2.975h9.036v-2.975Z"/>
  <path fill="#2E2626" d="M49.885 42.616h-8.283v5.206h8.283v-5.206Zm0 8.181h-8.283v2.975h8.283v-2.975Z"/>
  <path fill="#B9AAFD" d="M38.589 42.616h-8.283v5.206h8.283v-5.206Z"/>
  <path fill="#2E2626" d="M38.589 50.797h-8.283v2.975h8.283v-2.975Zm-10.542-8.181h-9.036v5.206h9.036v-5.206Zm5.271-7.436h-9.036v4.462h9.036v-4.463Zm-5.271 15.617h-9.036v2.975h9.036v-2.975Z"/>
  <defs>
    <filter id="a" width="70.169" height="54.774" x="5.011" y="10.998" color-interpolation-filters="sRGB" filterUnits="userSpaceOnUse">
      <feFlood flood-opacity="0" result="BackgroundImageFix"/>
      <feBlend in="SourceGraphic" in2="BackgroundImageFix" result="shape"/>
      <feGaussianBlur result="effect1_foregroundBlur_52_23782" stdDeviation="7"/>
    </filter>
  </defs>
</svg>
