<svg xmlns="http://www.w3.org/2000/svg" width="81" height="80" fill="none" viewBox="0 0 81 80">
  <g clip-path="url(#a)">
    <g filter="url(#b)" opacity=".5">
      <path fill="#731AE5" fill-rule="evenodd" d="M46.35 16.764a2.081 2.081 0 0 0-2.052 0l-17.567 9.96c-.93.526-.556 1.945.513 1.945h36.16c1.07 0 1.444-1.419.514-1.946L46.35 16.764ZM39.6 45.611a8.77 8.77 0 0 1-5.331 1.776c-4.67 0-8.457-3.553-8.457-7.936 0-4.382 3.786-7.935 8.457-7.935H56.82c4.671 0 8.457 3.553 8.457 7.935 0 4.383-3.786 7.935-8.457 7.935a8.771 8.771 0 0 1-5.331-1.775c-.663-.505-1.444-.87-2.278-.87h-7.333c-.834 0-1.615.365-2.278.87Zm15.98-6.182c0 .818-.707 1.481-1.578 1.481-.872 0-1.58-.663-1.58-1.481 0-.818.708-1.481 1.58-1.481.871 0 1.578.663 1.578 1.48Zm4.736 1.481c.872 0 1.579-.663 1.579-1.481 0-.818-.707-1.481-1.579-1.481s-1.579.663-1.579 1.48c0 .819.707 1.482 1.579 1.482Zm-3.157-2.962c-.872 0-1.579-.664-1.579-1.482s.707-1.48 1.579-1.48 1.578.662 1.578 1.48-.706 1.482-1.578 1.482ZM55.58 42.39c0 .818.707 1.481 1.579 1.481s1.578-.663 1.578-1.48c0-.819-.706-1.482-1.578-1.482-.872 0-1.579.663-1.579 1.481Zm-28.034 7.805h35.896c.676 0 1.224.515 1.224 1.151s-.548 1.152-1.224 1.152H27.546c-.676 0-1.224-.516-1.224-1.152 0-.636.548-1.151 1.224-1.151Zm38.241 3.838H25.2c-.676 0-1.223.515-1.223 1.15 0 .637.547 1.153 1.223 1.153h40.587c.676 0 1.224-.516 1.224-1.152 0-.636-.548-1.151-1.224-1.151Zm-30.52-11.567a.485.485 0 0 1-.485.485h-1.618a.485.485 0 0 1-.485-.485v-1.779H30.9a.485.485 0 0 1-.485-.485v-1.617c0-.268.217-.486.485-.486h1.78V36.32c0-.268.217-.485.484-.485h1.618c.268 0 .485.217.485.485v1.78h1.779c.268 0 .485.217.485.485v1.617a.485.485 0 0 1-.485.485h-1.78v1.779Z" clip-rule="evenodd"/>
    </g>
    <path fill="url(#c)" fill-rule="evenodd" d="M41.385 20.074a2.081 2.081 0 0 0-2.053 0l-17.567 9.96c-.93.527-.556 1.945.513 1.945h36.16c1.07 0 1.444-1.418.514-1.945l-17.567-9.96Zm-6.75 28.848a8.77 8.77 0 0 1-5.332 1.775c-4.67 0-8.457-3.553-8.457-7.935 0-4.383 3.787-7.935 8.457-7.935h22.552c4.67 0 8.457 3.552 8.457 7.935 0 4.382-3.787 7.935-8.457 7.935a8.771 8.771 0 0 1-5.332-1.775c-.663-.506-1.444-.87-2.278-.87h-7.333c-.834 0-1.614.364-2.277.87Zm15.98-6.183c0 .818-.708 1.481-1.58 1.481-.871 0-1.578-.663-1.578-1.48 0-.819.707-1.482 1.579-1.482.871 0 1.578.663 1.578 1.481Zm4.735 1.481c.872 0 1.579-.663 1.579-1.48 0-.819-.707-1.482-1.579-1.482s-1.578.663-1.578 1.481c0 .818.706 1.481 1.578 1.481Zm-3.157-2.962c-.872 0-1.579-.663-1.579-1.481 0-.818.707-1.482 1.579-1.482s1.579.664 1.579 1.482-.707 1.48-1.58 1.48Zm-1.579 4.444c0 .818.707 1.48 1.579 1.48s1.579-.663 1.579-1.48c0-.819-.707-1.482-1.58-1.482-.87 0-1.578.663-1.578 1.482ZM22.58 53.506h35.896c.676 0 1.224.516 1.224 1.151 0 .637-.548 1.152-1.224 1.152H22.58c-.676 0-1.224-.515-1.224-1.152 0-.635.548-1.15 1.224-1.15Zm38.241 3.838H20.234c-.675 0-1.223.515-1.223 1.151s.548 1.152 1.224 1.152H60.82c.676 0 1.224-.516 1.224-1.152 0-.636-.548-1.151-1.224-1.151Zm-30.52-11.567a.485.485 0 0 1-.485.485h-1.617a.485.485 0 0 1-.486-.485v-1.779h-1.779a.485.485 0 0 1-.485-.485v-1.617c0-.268.217-.485.485-.485h1.78v-1.78c0-.268.217-.485.485-.485h1.617c.268 0 .485.217.485.485v1.78h1.779c.268 0 .485.217.485.485v1.617a.485.485 0 0 1-.485.485H30.3v1.779Z" clip-rule="evenodd"/>
  </g>
  <defs>
    <linearGradient id="c" x1="40.528" x2="40.528" y1="14.011" y2="68.218" gradientUnits="userSpaceOnUse">
      <stop offset=".455" stop-color="#171717"/>
      <stop offset="1" stop-color="#731AE5"/>
    </linearGradient>
    <clipPath id="a">
      <path fill="#fff" d="M.01-.002h80v80h-80z"/>
    </clipPath>
    <filter id="b" width="71.034" height="67.843" x="9.977" y="2.493" color-interpolation-filters="sRGB" filterUnits="userSpaceOnUse">
      <feFlood flood-opacity="0" result="BackgroundImageFix"/>
      <feBlend in="SourceGraphic" in2="BackgroundImageFix" result="shape"/>
      <feGaussianBlur result="effect1_foregroundBlur_52_23768" stdDeviation="7"/>
    </filter>
  </defs>
</svg>
