<svg xmlns="http://www.w3.org/2000/svg" width="81" height="80" fill="none" viewBox="0 0 81 80">
  <g clip-path="url(#a)">
    <g filter="url(#b)">
      <path fill="#68D994" d="m66.712 32.035 2.299-5.037-21.198 9.08a5.728 5.728 0 0 0-2.291 1.782l-5.011 6.524-5.012-6.524a5.749 5.749 0 0 0-2.291-1.782l-21.197-9.08 2.299 5.037 17.177 7.357v1.886l-16.107-6.9 2.299 5.037 13.808 5.914v1.885l-12.738-5.456 2.3 5.037 10.438 4.472 4.042 1.73V44.67l4.982 6.485 4.983-6.485V53l4.041-1.732 10.438-4.471 2.3-5.037-12.738 5.456V45.33l13.809-5.914 2.299-5.037-16.108 6.899v-1.886l17.177-7.357Z"/>
    </g>
    <path fill="#68D994" d="m66.712 35.035 2.299-5.037-21.198 9.08a5.728 5.728 0 0 0-2.291 1.782l-5.011 6.524-5.012-6.524a5.749 5.749 0 0 0-2.291-1.782l-21.197-9.08 2.299 5.037 17.177 7.357v1.886l-16.107-6.9 2.299 5.037 13.808 5.914v1.885l-12.738-5.456 2.3 5.037 10.438 4.472 4.042 1.73V47.67l4.982 6.485 4.983-6.485V56l4.041-1.732 10.438-4.471 2.3-5.037-12.738 5.456V48.33l13.809-5.914 2.299-5.037-16.108 6.899v-1.886l17.177-7.357Z"/>
  </g>
  <defs>
    <clipPath id="a">
      <path fill="#fff" d="M.01-.002h80v80h-80z"/>
    </clipPath>
    <filter id="b" width="85" height="54" x="-1.989" y="12.998" color-interpolation-filters="sRGB" filterUnits="userSpaceOnUse">
      <feFlood flood-opacity="0" result="BackgroundImageFix"/>
      <feBlend in="SourceGraphic" in2="BackgroundImageFix" result="shape"/>
      <feGaussianBlur result="effect1_foregroundBlur_52_23771" stdDeviation="7"/>
    </filter>
  </defs>
</svg>
