<svg xmlns="http://www.w3.org/2000/svg" width="80" height="80" fill="none" viewBox="0 0 80 80">
  <g filter="url(#a)">
    <path fill="#1FCE6F" d="M59 14H23.687l10.376 12.236a9 9 0 0 1 12.772 12.62L59 49.374V14Zm-4.563 38-9.649-11.378a9 9 0 0 1-12.425-12.387L21 18.438V52h33.437Z"/>
  </g>
  <path fill="#000" d="M63 17H20.253l12.56 14.812A10.853 10.853 0 0 1 40 29.105c6.017 0 10.895 4.878 10.895 10.895 0 2.707-.988 5.183-2.621 7.088L63 59.822V17Zm-5.523 46-11.68-13.773A10.843 10.843 0 0 1 40 50.895c-6.017 0-10.895-4.878-10.895-10.895 0-2.118.604-4.095 1.65-5.768L17 22.372V63h40.477Z"/>
  <defs>
    <filter id="a" width="66" height="66" x="7" y="0" color-interpolation-filters="sRGB" filterUnits="userSpaceOnUse">
      <feFlood flood-opacity="0" result="BackgroundImageFix"/>
      <feBlend in="SourceGraphic" in2="BackgroundImageFix" result="shape"/>
      <feGaussianBlur result="effect1_foregroundBlur_52_23877" stdDeviation="7"/>
    </filter>
  </defs>
</svg>
