<svg xmlns="http://www.w3.org/2000/svg" width="80" height="80" fill="none" viewBox="0 0 80 80">
  <g filter="url(#a)" opacity=".3">
    <path fill="#fff" d="m34.311 44.074 1.145-8.62-9.943-6.903 9.084 3.076 2.146-3.29 7.833-4.864 17.275 9.514.895 14.52-7.69 10.695-6.08.93 3.147-5.759V47.83l-2.29-4.328-2.324-1.538-3.577 3.684v3.898l-2.79 2.611-3.54.43-1.574.894-2.575-.823-1.073-3.863 1.931-2.718v-2.003Z"/>
    <path fill="#94A6C3" d="M50.192 28.48c-1.896-.394-3.97-.286-3.97-.286s-.68 3.147-4.9 3.97c.035 0 5.58 1.895 8.87-3.684Zm1.717 28.541c2.289-1.788 4.006-4.256 4.792-7.046.036-.107.358-.286.573-.429.357-.215.715-.393.787-.68.143-.822.214-1.68.214-2.539 0-.322-.322-.644-.644-.966-.25-.214-.5-.465-.5-.643-.358-3.255-1.86-6.295-4.257-8.513l-.25.25c2.325 2.182 3.827 5.15 4.149 8.298.036.286.322.573.608.859.25.214.536.536.536.68 0 .822-.071 1.645-.214 2.467-.036.143-.358.286-.608.43-.358.178-.68.357-.751.643a13.219 13.219 0 0 1-5.437 7.404c.465-1.002 1.932-4.256 2.719-5.902l-.143-5.293-4.543-4.4-2.575.358-2.826 4.578s1.324 1.681-.536 3.649c-1.824 1.931-3.255 2.36-3.255 2.36l-1.323-.715c.393-.5 1.18-1.252 1.788-1.753 1.037-.858 2.075-.93 2.075-1.86.035-1.93-2.04-1.394-2.04-1.394l-.75.715-.322 2.647-1.574 1.967-.179-.036-2.575-.572s1.574-.823 1.824-1.753c.25-.894-.5-3.863-.536-4.041.035.035.75.643 1.073 1.645.572-1.574 1.323-3.076 1.538-3.22.214-.142 3.111-1.68 3.111-1.68l-.965 2.54.715-.394 1.717-4.22s1.68-.823 2.933-.823c2.253-.036 5.58-2.79 4.077-7.726.43.179 7.869 3.899 9.156 11.195.966 5.615-2.217 10.873-7.582 13.913Z"/>
    <path fill="#1B314F" d="m35.349 48.616.286-1.43s-1.18 2.074-1.288 2.36c-.107.322.072.895.537.859.465-.036 1.037-.716 1.037-1.216 0-.644-.572-.573-.572-.573Zm8.048-19.349c.823-.966.5-2.397.5-2.397l-2.395 3.541c-.036 0 .858.036 1.895-1.145Z"/>
    <path fill="#1B314F" d="M56.595 25.869s1.788.071 3.648.286c-4.185-3.29-8.155-4.256-11.374-4.256-4.435 0-7.44 1.824-7.618 1.931l1.395-2.217s-5.58-.537-7.547 5.365c-.5-1.252-.966-3.076-.966-3.076s-2.897 2.54-1.538 6.76c-3.326-1.216-8.083-2.897-8.262-2.933-.25-.036-.322.071-.322.071s-.071.108.143.286c.394.322 7.905 5.866 9.55 6.94-.358 1.287-.358 1.895 0 2.503.5.822.537 1.252.465 1.86-.071.608-.715 5.865-.858 6.51-.143.643-1.645 2.932-1.574 3.611.072.68 1.002 3.577 1.824 3.899.608.215 2.11.68 3.112.68.357 0 .68-.072.822-.215.608-.537.787-.644 1.217-.644h.107c.179 0 .393.036.643.036.573 0 1.324-.107 1.86-.608.787-.787 2.146-1.86 2.576-2.36.536-.68.822-1.61.68-2.54-.108-.858.357-1.61.893-2.36a385.18 385.18 0 0 1 1.932-2.504c2.468 1.86 4.005 4.685 4.005 7.833 0 5.58-4.864 10.086-10.873 10.086-.93 0-1.823-.108-2.718-.322 2.754.965 5.08 1.287 6.975 1.287 4.041 0 6.187-1.466 6.187-1.466s-.75.966-1.967 2.074h.036c6.688-.93 9.943-6.438 9.943-6.438s-.25 1.789-.572 3.005c8.906-6.689 7.403-15.058 7.368-15.344.071.107.965 1.18 1.43 1.753 1.431-14.736-10.622-19.493-10.622-19.493ZM42.896 49.403c-.143.179-.751.715-1.18 1.109-.43.393-.894.787-1.252 1.145-.143.143-.43.214-.858.214h-1.073c.536-.715 2.11-2.36 2.646-2.718.644-.43.966-.859.573-1.61-.394-.75-1.431-.572-1.431-.572s.608-.25 1.145-.25c-.68-.18-1.538 0-1.932.393-.43.394-.358 1.789-.536 2.683-.18.93-.787 1.395-1.717 2.253-.5.465-.859.608-1.145.608a12.331 12.331 0 0 1-1.824-.465c-.357-.465-.894-2.003-1.037-2.647.107-.357.536-1.108.751-1.538.43-.822.68-1.287.751-1.717.143-.607.608-4.363.787-5.937.465.608 1.109 1.61.966 2.254 1.037-1.467.286-2.897-.072-3.47-.322-.572-.75-1.716-.393-2.933.357-1.216 1.645-4.578 1.645-4.578s.43.751 1.037.608c.608-.143 5.508-7.51 5.508-7.51s1.324 2.896-.071 5.007c-1.43 2.11-2.826 2.503-2.826 2.503s1.967.358 3.791-.965c.752 1.752 1.467 3.576 1.503 3.827-.108.25-1.538 3.684-1.681 3.898-.072.072-.573.215-.93.286-.608.18-.966.286-1.11.394-.25.214-1.394 3.362-1.93 4.9-.644.178-1.288.536-1.753 1.252.25-.18 1.037-.287 1.61-.358.5-.036 2.038.787 2.432 2.325v.071c.071.572-.108 1.109-.394 1.538Zm-3.362.43c.322-.466.286-1.252.322-1.503.036-.25.107-.715.393-.787.286-.071.966.036.966.537 0 .465-.5.572-.858.894-.25.25-.751.787-.823.858ZM53.804 43c.359-1.824.394-3.398.287-4.685 1.395 1.86 2.253 4.113 2.504 6.438.035.286.322.572.608.858.25.215.536.5.536.68 0 .822-.071 1.645-.214 2.467-.036.108-.358.286-.608.43-.358.178-.68.357-.752.643a13.318 13.318 0 0 1-4.72 6.903c3.326-3.47 4.935-9.192 2.36-13.734Zm-2.252 14.056c2.324-1.788 4.113-4.292 4.9-7.117.035-.108.357-.286.572-.43.358-.178.715-.393.787-.68.143-.822.214-1.68.214-2.538 0-.322-.322-.644-.643-.966-.18-.215-.465-.465-.465-.644a13.974 13.974 0 0 0-2.933-7.117c-.716-4.292-3.577-5.616-3.648-5.652.071.108 1.93 2.79.643 5.938-1.323 3.183-4.72 2.682-5.007 2.718-.286 0-1.395 1.43-2.79 4.077-.179-.071-.93-.25-1.788-.107.644-1.788 1.61-4.328 1.788-4.542.072-.072.608-.215.966-.322.68-.18 1.001-.286 1.109-.43.071-.107.429-.93.787-1.788.322 0 1.144-.071 1.216-.107.071-.072.75-1.824.75-2.039 0-.179-1.394-3.648-1.93-4.971.25-.286.5-.644.75-1.038 7.333.787 13.055 7.01 13.055 14.557 0 5.795-3.398 10.838-8.333 13.198Z"/>
    <path fill="#D82122" d="M61.923 53.874a20.14 20.14 0 0 1-1.86 2.182c4.614-8.87.215-16.99.036-17.311.322.322.644.68.93 1.001 3.541 3.934 3.97 9.836.894 14.128Z"/>
    <path fill="#1B314F" d="M42.038 37.743c.68-.787.322-2.253-.93-2.504.322-.75.787-2.253.787-2.253s-3.649 5.723-3.97 5.83c-.322.107-.644-1.144-.644-1.144-.68 2.61 1.144 2.968 1.359 2.146 1.001-.25 2.718-1.324 3.398-2.075Z"/>
    <path fill="#FFD923" d="m38.925 39.138 1.86-3.183s1.073.537.537 1.395c-.68 1.002-2.397 1.788-2.397 1.788Z"/>
    <path fill="#D82122" d="M66.215 42.465c-1.61-4.328-3.899-8.012-8.942-11.338-4.864-3.22-10.086-2.969-10.372-2.933h-.071c.178-.072.357-.107.536-.143 1.109-.358 2.54-.644 3.97-.823 3.791-.536 7.618.751 10.23 3.505l.07.072c2.97 3.147 4.508 7.081 4.579 11.66ZM36.422 31.628c-4.184-.144-2.79-5.008-2.718-5.294 0 .036.286 3.827 2.718 5.294Z"/>
    <path fill="#fff" d="M35.243 32.914c.215.18.43.501.18.966-.144.25-.358.215-.68.072-.43-.215-3.005-1.717-5.33-3.255 2.647.93 5.33 1.931 5.759 2.146l.072.071Z"/>
    <path fill="#D82122" d="M56.129 24.76c-5.33-1.002-8.763-.501-11.23.429-.072-.286-.323-.858-.537-1.323-.751.894-1.538 1.967-2.039 2.646-1.36.93-1.931 1.824-1.931 1.824.786-2.682 3.075-4.685 5.865-5.186a14.417 14.417 0 0 1 2.576-.214c2.467.035 4.935.643 7.296 1.824Zm-15.594-1.895c-3.219 1.931-2.575 6.545-2.575 6.545-3.076-4.685 2.325-6.438 2.575-6.545Z"/>
  </g>
  <path fill="#fff" d="m26.954 42.639 1.235-9.297-10.724-7.445 9.798 3.318 2.314-3.55 8.448-5.245 18.631 10.26.965 15.662-8.294 11.533-6.557 1.003 3.394-6.21v-5.98l-2.469-4.667-2.507-1.658-3.857 3.973v4.204l-3.01 2.816-3.818.463-1.697.964-2.778-.887-1.157-4.166 2.083-2.931v-2.16Z"/>
  <path fill="#94A6C3" d="M44.081 25.82c-2.044-.424-4.282-.309-4.282-.309s-.733 3.395-5.284 4.282c.038 0 6.017 2.044 9.566-3.973Zm1.852 30.782c2.468-1.929 4.32-4.59 5.169-7.599.038-.116.385-.309.617-.463.386-.231.771-.424.848-.733.155-.887.232-1.813.232-2.739 0-.347-.347-.694-.694-1.041-.27-.232-.54-.502-.54-.694-.386-3.51-2.006-6.79-4.59-9.181l-.27.27c2.507 2.353 4.127 5.555 4.474 8.95.038.308.347.616.655.925.27.231.58.579.58.733 0 .887-.078 1.774-.232 2.661-.039.155-.386.309-.656.463-.386.193-.733.386-.81.695a14.257 14.257 0 0 1-5.863 7.985c.501-1.08 2.083-4.59 2.931-6.365l-.154-5.71-4.899-4.744-2.777.386-3.048 4.937s1.428 1.813-.578 3.935c-1.968 2.083-3.51 2.546-3.51 2.546l-1.428-.772c.424-.54 1.273-1.35 1.929-1.89 1.118-.925 2.237-1.003 2.237-2.006.039-2.083-2.199-1.504-2.199-1.504l-.81.772-.347 2.854-1.697 2.122-.193-.039-2.777-.617s1.697-.887 1.967-1.89c.27-.965-.54-4.166-.579-4.36.039.04.81.695 1.158 1.775.617-1.697 1.427-3.317 1.658-3.472.232-.154 3.356-1.813 3.356-1.813l-1.041 2.74.771-.425 1.852-4.552s1.813-.887 3.163-.887c2.43-.039 6.017-3.009 4.397-8.332.463.193 8.487 4.204 9.875 12.074 1.042 6.056-2.391 11.726-8.177 15.005Z"/>
  <path fill="#1B314F" d="m28.072 47.537.309-1.543s-1.273 2.238-1.389 2.546c-.116.348.077.965.579.926.501-.038 1.118-.771 1.118-1.311 0-.695-.617-.618-.617-.618Zm8.681-20.869c.887-1.041.54-2.584.54-2.584l-2.584 3.819c-.039 0 .925.038 2.044-1.235Z"/>
  <path fill="#1B314F" d="M50.986 23.004s1.93.077 3.935.309c-4.513-3.55-8.795-4.59-12.267-4.59-4.783 0-8.023 1.967-8.216 2.082l1.505-2.391s-6.018-.579-8.14 5.786c-.54-1.35-1.041-3.317-1.041-3.317s-3.125 2.738-1.659 7.29c-3.587-1.311-8.718-3.124-8.91-3.163-.27-.039-.348.077-.348.077s-.077.116.155.309c.424.347 8.525 6.326 10.299 7.483-.386 1.389-.386 2.044 0 2.7.54.888.579 1.35.502 2.006-.078.656-.772 6.326-.926 7.02-.155.695-1.775 3.164-1.698 3.897.078.733 1.08 3.857 1.968 4.204.655.232 2.276.733 3.356.733.385 0 .733-.077.887-.231.656-.579.848-.695 1.311-.695h.116c.193 0 .424.039.694.039.618 0 1.428-.116 2.006-.656.849-.848 2.315-2.006 2.778-2.546a3.59 3.59 0 0 0 .733-2.739c-.116-.925.385-1.735.964-2.545.733-.965 2.083-2.7 2.083-2.7 2.662 2.005 4.32 5.053 4.32 8.447 0 6.018-5.246 10.878-11.726 10.878-1.003 0-1.968-.116-2.932-.347 2.97 1.041 5.478 1.389 7.522 1.389 4.359 0 6.673-1.582 6.673-1.582s-.81 1.042-2.121 2.237h.038c7.214-1.002 10.724-6.943 10.724-6.943s-.27 1.929-.617 3.24c9.605-7.213 7.985-16.24 7.946-16.548.077.116 1.042 1.273 1.543 1.89 1.543-15.893-11.456-21.023-11.456-21.023ZM36.213 48.386c-.155.193-.81.771-1.273 1.196-.463.424-.965.848-1.35 1.234-.155.154-.463.231-.926.231h-1.158c.58-.77 2.276-2.545 2.855-2.931.694-.463 1.042-.926.617-1.736-.424-.81-1.543-.617-1.543-.617s.656-.27 1.235-.27c-.733-.193-1.66 0-2.083.424-.463.425-.386 1.929-.579 2.893-.193 1.003-.849 1.505-1.852 2.43-.54.502-.925.656-1.234.656a13.291 13.291 0 0 1-1.967-.501c-.386-.502-.965-2.16-1.119-2.855.116-.386.579-1.196.81-1.658.463-.888.733-1.39.81-1.852.154-.656.656-4.706.849-6.403.501.655 1.196 1.735 1.041 2.43 1.119-1.582.309-3.125-.077-3.742-.347-.617-.81-1.851-.424-3.163.386-1.312 1.774-4.938 1.774-4.938s.463.81 1.119.656c.656-.154 5.94-8.1 5.94-8.1s1.428 3.124-.077 5.4c-1.543 2.276-3.047 2.7-3.047 2.7s2.121.386 4.089-1.041c.81 1.89 1.581 3.857 1.62 4.127-.116.27-1.659 3.973-1.813 4.205-.077.077-.617.231-1.003.308-.656.193-1.041.309-1.196.425-.27.231-1.504 3.626-2.083 5.284-.694.193-1.389.579-1.89 1.35.27-.192 1.119-.308 1.736-.385.54-.039 2.199.848 2.623 2.507v.077c.077.617-.116 1.196-.424 1.659Zm-3.626.463c.347-.502.308-1.35.347-1.62.038-.27.116-.772.424-.849.309-.077 1.042.039 1.042.579 0 .501-.54.617-.926.964-.27.27-.81.849-.887.926Zm15.39-7.368c.387-1.967.425-3.664.31-5.053 1.504 2.006 2.43 4.436 2.7 6.943.038.309.347.617.655.926.27.232.579.54.579.733 0 .887-.077 1.774-.231 2.662-.04.115-.386.308-.656.462-.386.193-.733.386-.81.695a14.363 14.363 0 0 1-5.092 7.445c3.587-3.742 5.323-9.914 2.546-14.813Zm-2.43 15.16c2.508-1.929 4.437-4.63 5.285-7.676.039-.116.386-.31.617-.463.386-.193.772-.425.85-.733a16.2 16.2 0 0 0 .23-2.739c0-.347-.347-.694-.694-1.041-.193-.232-.501-.502-.501-.695a15.07 15.07 0 0 0-3.163-7.676c-.772-4.629-3.858-6.056-3.935-6.095.077.116 2.083 3.009.694 6.403-1.427 3.434-5.091 2.893-5.4 2.932-.309 0-1.504 1.543-3.009 4.398-.193-.078-1.003-.27-1.928-.116.694-1.929 1.735-4.668 1.928-4.9.077-.076.656-.23 1.042-.346.733-.193 1.08-.309 1.195-.463.078-.116.463-1.003.85-1.929.346 0 1.234-.077 1.31-.116.078-.077.81-1.967.81-2.198 0-.193-1.504-3.935-2.082-5.362.27-.309.54-.695.81-1.119 7.907.849 14.08 7.56 14.08 15.7 0 6.249-3.665 11.688-8.988 14.234Z"/>
  <path fill="#D82122" d="M56.733 53.208a21.717 21.717 0 0 1-2.005 2.353c4.976-9.567.231-18.323.038-18.67.347.347.695.733 1.003 1.08 3.819 4.243 4.282 10.608.964 15.237Z"/>
  <path fill="#1B314F" d="M35.287 35.81c.733-.848.347-2.43-1.003-2.7.348-.81.849-2.43.849-2.43s-3.935 6.172-4.282 6.288c-.347.115-.694-1.235-.694-1.235-.733 2.816 1.234 3.202 1.466 2.315 1.08-.27 2.931-1.428 3.664-2.238Z"/>
  <path fill="#FFD923" d="m31.93 37.315 2.006-3.433s1.157.579.579 1.505c-.733 1.08-2.585 1.928-2.585 1.928Z"/>
  <path fill="#D82122" d="M61.362 40.903c-1.736-4.668-4.204-8.641-9.643-12.228-5.246-3.472-10.878-3.202-11.187-3.163h-.077a3.2 3.2 0 0 1 .579-.155c1.196-.386 2.739-.694 4.281-.887 4.09-.579 8.217.81 11.033 3.78l.077.077c3.202 3.395 4.86 7.638 4.937 12.576ZM29.23 29.215c-4.512-.155-3.008-5.4-2.93-5.71 0 .04.308 4.128 2.93 5.71Z"/>
  <path fill="#fff" d="M27.959 30.603c.231.192.463.54.193 1.041-.154.27-.386.232-.733.077-.463-.231-3.24-1.851-5.748-3.51 2.855 1.003 5.748 2.083 6.21 2.315 0 0 .04.038.078.077Z"/>
  <path fill="#D82122" d="M50.484 21.808c-5.747-1.08-9.45-.54-12.112.463-.077-.309-.347-.926-.578-1.427-.81.964-1.66 2.121-2.2 2.854-1.465 1.003-2.082 1.967-2.082 1.967.848-2.893 3.317-5.053 6.326-5.593a15.551 15.551 0 0 1 2.777-.231c2.662.038 5.323.694 7.87 1.967Zm-16.818-2.044c-3.472 2.083-2.777 7.06-2.777 7.06-3.318-5.054 2.507-6.944 2.777-7.06Z"/>
  <defs>
    <filter id="a" width="59.335" height="56.786" x="16" y="13.6" color-interpolation-filters="sRGB" filterUnits="userSpaceOnUse">
      <feFlood flood-opacity="0" result="BackgroundImageFix"/>
      <feBlend in="SourceGraphic" in2="BackgroundImageFix" result="shape"/>
      <feGaussianBlur result="effect1_foregroundBlur_52_17175" stdDeviation="4"/>
    </filter>
  </defs>
</svg>
