<svg xmlns="http://www.w3.org/2000/svg" width="80" height="80" fill="none" viewBox="0 0 80 80">
  <g clip-path="url(#a)">
    <g filter="url(#b)">
      <path fill="#fff" stroke="#FFD15C" stroke-width="1.887" d="M33.13 56.055c.243-.164.468-.41.58-.76.126-.388.052-.73-.006-.919l-.006-.019.046-.272c.129.072.277.17.446.288l.157.112.215.152c.093.065.227.156.368.231 3.738 2.324 6.83 3.282 9.285 3.163 2.54-.123 4.32-1.4 5.238-3.264.887-1.801.918-4.033.296-6.101-.626-2.082-1.942-4.104-3.905-5.504-3.307-2.359-6.337-5.945-7.87-8.995-.778-1.549-1.087-2.798-1.006-3.614.038-.379.155-.609.294-.756.139-.148.393-.311.881-.392 1.035-.17 2.232-.543 3.447-.921.472-.147.946-.295 1.415-.432 1.75-.512 3.604-.942 5.553-.939 3.779.008 8.214 1.648 12.883 8.474 5.999 8.768 2.706 18.566-4.205 23.713-3.446 2.567-7.746 3.929-12.165 3.411-3.978-.466-8.145-2.469-11.94-6.656Zm.697-2.27-.005.008a.039.039 0 0 1 .005-.008Zm-.376.172.012.002a.048.048 0 0 1-.012-.002Z"/>
      <path fill="#FFD15C" d="M36.565 29.854S47.28 27 49.627 27s11.721 4.553 14.458 12.872c3.878 11.795-6.672 19.528-7.863 18.77 11.35-9.385-7.23-26.732-16.36-25.428-1.142.163-.508 1.142-.508 1.142l-.253 2.536-1.902-3.17-.634-3.869Z"/>
      <path fill="#FFD15C" d="M62.523 36.322c3.384 5.957 2.681 2.547 1.93 9.357 1.39-2.25 3.564-.565 4.462.295.16.154.426.058.419-.164-.035-1.01-.324-3.193-1.996-5.535-2.293-3.211-4.815-3.953-4.815-3.953Z"/>
      <path stroke="#FFD15C" stroke-width=".106" d="m64.453 45.679.331-.819m-.331.819c.751-6.81 1.454-3.4-1.93-9.357 0 0 2.522.742 4.815 3.953 1.672 2.342 1.961 4.524 1.996 5.535.007.222-.258.318-.42.164-.897-.86-3.07-2.544-4.461-.295Z"/>
      <path fill="#FFD15C" d="M35.297 44.773c-1.428 2.417-4.357 2.236-4.301 5.12 2.616 5.813 2.632 5.395 2.632 5.395 4.847-2.722 2.855-8.734 2.136-10.503-.082-.2-.357-.198-.467-.012Z"/>
      <path fill="#FFD15C" d="M24.31 50.118c2.784.363 4.445-2.057 6.683-.238 2.97 5.641 2.631 5.397 2.631 5.397-5.129 2.143-8.64-3.128-9.591-4.784-.107-.187.063-.403.277-.375Zm23.351-3.586s2.79 2.854 1.332 3.297c-1.819-1.119-5.078-.25-6.675.29-.393.132-.779-.217-.637-.607.543-1.495 1.884-4.261 4.458-4.629 1.522-.38 1.522 1.649 1.522 1.649Z"/>
      <path fill="#fff" d="M49.374 32.58c-.317-.444-.951-1.65 1.014-1.65 1.966 0 4.97 2.227 5.58 3.05-.19.502-1.458.614-2.092.565-.634-.048-1.712-.153-2.536-.565-.825-.412-1.649-.956-1.966-1.4Z"/>
    </g>
    <path fill="#fff" stroke="#000" stroke-width="1.887" d="M24.797 52.26a1.45 1.45 0 0 0 .58-.76 1.52 1.52 0 0 0-.007-.919l-.006-.018.047-.273c.128.073.277.17.446.289.04.029.097.07.157.111l.214.153c.094.065.227.156.368.23 3.739 2.324 6.83 3.282 9.286 3.164 2.539-.123 4.319-1.4 5.237-3.264.888-1.802.919-4.034.297-6.102-.626-2.081-1.943-4.104-3.905-5.504-3.308-2.358-6.338-5.945-7.87-8.994-.778-1.55-1.088-2.798-1.006-3.614.038-.38.154-.61.293-.757.14-.148.393-.31.882-.391 1.035-.17 2.232-.544 3.447-.922.471-.147.946-.294 1.414-.431 1.751-.512 3.605-.942 5.553-.939 3.78.007 8.214 1.648 12.884 8.473 5.998 8.768 2.705 18.566-4.205 23.713-3.447 2.567-7.747 3.93-12.165 3.412-3.979-.467-8.146-2.469-11.94-6.657Zm.696-2.269-.004.007a.028.028 0 0 1 .004-.007Zm-.375.171.012.002a.06.06 0 0 1-.012-.002Z"/>
    <path fill="#000" d="M28.231 26.06s10.716-2.854 13.062-2.854c2.347 0 11.722 4.552 14.458 12.872 3.879 11.794-6.671 19.528-7.863 18.77 11.35-9.385-7.229-26.732-16.36-25.428-1.141.163-.507 1.141-.507 1.141l-.254 2.537-1.902-3.17-.634-3.869Z"/>
    <path fill="#000" d="M54.19 32.528c3.384 5.957 2.68 2.546 1.93 9.356 1.39-2.249 3.563-.565 4.461.295.161.154.427.059.42-.164-.035-1.01-.325-3.193-1.997-5.534-2.293-3.212-4.814-3.953-4.814-3.953Z"/>
    <path stroke="#000" stroke-width=".106" d="m56.12 41.884.33-.818m-.33.818c.75-6.81 1.454-3.399-1.93-9.356 0 0 2.521.742 4.814 3.953 1.672 2.341 1.962 4.524 1.996 5.534.008.223-.258.318-.419.164-.898-.86-3.071-2.544-4.462-.295Z"/>
    <path fill="#000" d="M26.964 40.978c-1.428 2.418-4.358 2.236-4.302 5.12 2.617 5.813 2.632 5.396 2.632 5.396 4.847-2.723 2.855-8.735 2.136-10.503-.081-.2-.357-.198-.466-.013Z"/>
    <path fill="#000" d="M15.977 46.324c2.784.363 4.445-2.057 6.682-.238 2.97 5.64 2.632 5.396 2.632 5.396-5.13 2.143-8.64-3.127-9.591-4.783-.108-.187.063-.403.277-.375Zm23.351-3.587s2.79 2.854 1.331 3.298c-1.818-1.12-5.077-.25-6.675.29-.393.132-.778-.217-.637-.607.544-1.495 1.885-4.262 4.459-4.63 1.522-.38 1.522 1.65 1.522 1.65Z"/>
    <path fill="#fff" d="M41.04 28.785c-.317-.444-.95-1.648 1.015-1.648 1.966 0 4.97 2.225 5.58 3.049-.19.501-1.458.614-2.092.565-.634-.049-1.712-.153-2.537-.565-.824-.413-1.648-.957-1.965-1.4Z"/>
  </g>
  <defs>
    <clipPath id="a">
      <rect width="80.004" height="80" fill="#fff" rx="40"/>
    </clipPath>
    <filter id="b" width="73.387" height="65.593" x="10" y="12.17" color-interpolation-filters="sRGB" filterUnits="userSpaceOnUse">
      <feFlood flood-opacity="0" result="BackgroundImageFix"/>
      <feBlend in="SourceGraphic" in2="BackgroundImageFix" result="shape"/>
      <feGaussianBlur result="effect1_foregroundBlur_52_23991" stdDeviation="7"/>
    </filter>
  </defs>
</svg>
