<svg xmlns="http://www.w3.org/2000/svg" width="80" height="80" fill="none" viewBox="0 0 80 80">
  <g clip-path="url(#a)">
    <g filter="url(#b)" opacity=".6">
      <path fill="#633001" fill-rule="evenodd" d="M45.952 61.141c-7.102-.005-12.823-1.71-16.82-4.77-4.046-3.099-6.192-7.495-6.192-12.47 0-4.793 2.141-8.249 4.564-10.585 1.899-1.83 3.994-3.003 5.453-3.678a75.884 75.884 0 0 1-1.11-3.707c-.492-1.832-.976-3.982-.976-5.557 0-1.864.407-3.737 1.503-5.192 1.158-1.537 2.901-2.36 4.998-2.36 1.64 0 3.031.607 4.12 1.656 1.042 1.002 1.735 2.334 2.214 3.722.84 2.439 1.168 5.503 1.26 8.56h2.008c.092-3.057.42-6.121 1.26-8.56.48-1.388 1.172-2.72 2.214-3.722a5.799 5.799 0 0 1 4.12-1.657c2.097 0 3.84.824 4.998 2.361 1.096 1.455 1.503 3.327 1.503 5.192 0 1.575-.484 3.725-.977 5.557a75.884 75.884 0 0 1-1.11 3.707c1.46.675 3.555 1.847 5.454 3.678C66.859 35.652 69 39.108 69 43.901c0 4.975-2.146 9.371-6.191 12.47-3.998 3.06-9.719 4.765-16.821 4.77h-.036Z" clip-rule="evenodd"/>
      <path fill="#D1884F" d="M37.372 14.595c-3.072 0-4.486 2.315-4.486 5.516 0 2.545 1.643 7.642 2.317 9.626a.894.894 0 0 1-.52 1.108c-2.463.98-9.728 4.571-9.728 12.794 0 8.662 7.383 15.193 20.999 15.204h.032c13.615-.01 20.998-6.542 20.998-15.204 0-8.223-7.265-11.814-9.727-12.794a.894.894 0 0 1-.52-1.108c.673-1.984 2.316-7.081 2.316-9.626 0-3.202-1.414-5.517-4.485-5.517-4.422 0-5.524 6.328-5.603 13.119a.824.824 0 0 1-.817.821h-4.356a.824.824 0 0 1-.817-.821c-.079-6.791-1.181-13.119-5.603-13.119Z"/>
      <path fill="#FEDC90" d="M45.986 56.068c-10.004 0-21.014-5.41-21.03-12.412v.032c0 8.67 7.394 15.204 21.03 15.204 13.636 0 21.031-6.535 21.031-15.204v-.032C67 50.658 55.99 56.068 45.987 56.068Z"/>
      <path fill="#633001" d="M40.428 41.505c0 2.364-1.106 3.595-2.47 3.595-1.365 0-2.471-1.231-2.471-3.595 0-2.365 1.106-3.596 2.47-3.596 1.365 0 2.47 1.231 2.47 3.596Zm16.057 0c0 2.364-1.106 3.595-2.47 3.595-1.365 0-2.47-1.231-2.47-3.595 0-2.365 1.105-3.596 2.47-3.596 1.364 0 2.47 1.231 2.47 3.596Z"/>
    </g>
    <path fill="#633001" fill-rule="evenodd" d="M39.952 67.141c-7.102-.005-12.823-1.71-16.82-4.77-4.046-3.099-6.192-7.495-6.192-12.47 0-4.793 2.141-8.249 4.564-10.585 1.899-1.83 3.994-3.003 5.453-3.678a75.884 75.884 0 0 1-1.11-3.707c-.492-1.832-.976-3.982-.976-5.557 0-1.864.407-3.737 1.503-5.192 1.158-1.537 2.901-2.36 4.998-2.36 1.64 0 3.031.607 4.12 1.656 1.042 1.002 1.735 2.334 2.214 3.722.84 2.439 1.168 5.503 1.26 8.56h2.008c.092-3.057.42-6.121 1.26-8.56.48-1.388 1.172-2.72 2.214-3.722a5.799 5.799 0 0 1 4.12-1.657c2.097 0 3.84.824 4.998 2.361 1.096 1.455 1.503 3.328 1.503 5.192 0 1.575-.484 3.725-.977 5.557a75.884 75.884 0 0 1-1.11 3.707c1.46.675 3.555 1.847 5.454 3.678C60.859 41.652 63 45.108 63 49.901c0 4.975-2.146 9.371-6.191 12.47-3.998 3.06-9.719 4.765-16.821 4.77h-.036Z" clip-rule="evenodd"/>
    <path fill="#D1884F" d="M31.372 20.595c-3.072 0-4.486 2.315-4.486 5.516 0 2.545 1.643 7.641 2.317 9.626a.894.894 0 0 1-.52 1.108c-2.463.98-9.728 4.571-9.728 12.794 0 8.662 7.383 15.193 20.999 15.204h.032c13.615-.01 20.998-6.542 20.998-15.204 0-8.223-7.265-11.814-9.727-12.794a.894.894 0 0 1-.52-1.108c.673-1.984 2.316-7.081 2.316-9.626 0-3.202-1.414-5.517-4.485-5.517-4.422 0-5.524 6.328-5.603 13.119a.824.824 0 0 1-.817.821h-4.356a.824.824 0 0 1-.817-.821c-.079-6.791-1.181-13.119-5.603-13.119Z"/>
    <path fill="#FEDC90" d="M39.986 62.068c-10.004 0-21.014-5.41-21.03-12.412v.032c0 8.67 7.394 15.204 21.03 15.204 13.636 0 21.031-6.535 21.031-15.204v-.032C61 56.658 49.99 62.068 39.987 62.068Z"/>
    <path fill="#633001" d="M34.428 47.505c0 2.364-1.106 3.595-2.47 3.595-1.365 0-2.471-1.231-2.471-3.595 0-2.365 1.106-3.596 2.47-3.596 1.365 0 2.47 1.231 2.47 3.596Zm16.057 0c0 2.364-1.106 3.595-2.47 3.595-1.365 0-2.47-1.231-2.47-3.595 0-2.365 1.105-3.596 2.47-3.596 1.364 0 2.47 1.231 2.47 3.596Z"/>
  </g>
  <defs>
    <clipPath id="a">
      <path fill="#fff" d="M0 0h80v80H0z"/>
    </clipPath>
    <filter id="b" width="74.06" height="76.32" x="8.94" y="-1.179" color-interpolation-filters="sRGB" filterUnits="userSpaceOnUse">
      <feFlood flood-opacity="0" result="BackgroundImageFix"/>
      <feBlend in="SourceGraphic" in2="BackgroundImageFix" result="shape"/>
      <feGaussianBlur result="effect1_foregroundBlur_52_24271" stdDeviation="7"/>
    </filter>
  </defs>
</svg>
