<svg xmlns="http://www.w3.org/2000/svg" width="80" height="80" fill="none" viewBox="0 0 80 80">
  <g filter="url(#a)" opacity=".8">
    <mask id="b" width="37" height="37" x="22" y="15" maskUnits="userSpaceOnUse" style="mask-type:alpha">
      <path fill="#fff" d="M50.208 15H30.063A8.063 8.063 0 0 0 22 23.063v20.145a8.063 8.063 0 0 0 8.063 8.063h20.145a8.063 8.063 0 0 0 8.063-8.063V23.063A8.063 8.063 0 0 0 50.208 15Z"/>
    </mask>
    <g mask="url(#b)">
      <path fill="#fff" d="M21.963 17.52a2.558 2.558 0 0 1 2.558-2.557h31.205a2.558 2.558 0 0 1 2.558 2.557v31.206a2.558 2.558 0 0 1-2.558 2.557H24.521a2.558 2.558 0 0 1-2.558-2.557V17.52Z"/>
      <path fill="url(#c)" d="M22 15h36.33v36.329H22v-36.33Z"/>
    </g>
  </g>
  <mask id="d" width="37" height="37" x="22" y="22" maskUnits="userSpaceOnUse" style="mask-type:alpha">
    <path fill="#fff" d="M50.208 22H30.063A8.063 8.063 0 0 0 22 30.063v20.145a8.063 8.063 0 0 0 8.063 8.063h20.145a8.063 8.063 0 0 0 8.063-8.063V30.063A8.063 8.063 0 0 0 50.208 22Z"/>
  </mask>
  <g mask="url(#d)">
    <path fill="#fff" d="M21.963 24.52a2.558 2.558 0 0 1 2.558-2.557h31.205a2.558 2.558 0 0 1 2.558 2.557v31.206a2.558 2.558 0 0 1-2.558 2.557H24.521a2.558 2.558 0 0 1-2.558-2.557V24.52Z"/>
    <path fill="url(#e)" d="M22 22h36.33v36.329H22v-36.33Z"/>
  </g>
  <mask id="f" width="37" height="37" x="22" y="22" maskUnits="userSpaceOnUse" style="mask-type:luminance">
    <path fill="#fff" d="M58.271 22H22v36.271h36.271V22Z"/>
  </mask>
  <g mask="url(#f)">
    <path fill="#000" d="M39.208 39.678 22 31.192v19.016a8.063 8.063 0 0 0 8.063 8.063H49.08l-9.737-18.462a.305.305 0 0 0-.134-.131ZM50.207 22H31.192l9.869 18.528c.03.056.077.102.134.13l17.076 8.42V30.064A8.064 8.064 0 0 0 50.207 22Z"/>
  </g>
  <defs>
    <radialGradient id="c" cx="0" cy="0" r="1" gradientTransform="matrix(-21.7975 -21.7975 16.43882 -16.43882 40.165 33.165)" gradientUnits="userSpaceOnUse">
      <stop offset=".141" stop-color="#FFFBD8"/>
      <stop offset=".307" stop-color="#5FECDB" stop-opacity=".64"/>
      <stop offset=".521" stop-color="#4FBAF7"/>
      <stop offset=".792" stop-color="#A745F4"/>
    </radialGradient>
    <radialGradient id="e" cx="0" cy="0" r="1" gradientTransform="matrix(-21.7975 -21.7975 16.43882 -16.43882 40.163 40.164)" gradientUnits="userSpaceOnUse">
      <stop offset=".141" stop-color="#FFFBD8"/>
      <stop offset=".307" stop-color="#5FECDB" stop-opacity=".64"/>
      <stop offset=".521" stop-color="#4FBAF7"/>
      <stop offset=".792" stop-color="#A745F4"/>
    </radialGradient>
    <filter id="a" width="62.271" height="62.271" x="9" y="2" color-interpolation-filters="sRGB" filterUnits="userSpaceOnUse">
      <feFlood flood-opacity="0" result="BackgroundImageFix"/>
      <feBlend in="SourceGraphic" in2="BackgroundImageFix" result="shape"/>
      <feGaussianBlur result="effect1_foregroundBlur_52_24346" stdDeviation="6.5"/>
    </filter>
  </defs>
</svg>
