<svg xmlns="http://www.w3.org/2000/svg" width="80" height="80" fill="none" viewBox="0 0 80 80">
  <g filter="url(#a)" opacity=".7">
    <path fill="#428CCA" d="M18 44.579c.04-2.76.488-5.438 1.585-8.002a19.816 19.816 0 0 1 5.132-7.12c2.924-2.591 6.331-4.238 10.253-4.875 1.691-.275 3.386-.379 5.093-.242 1.87.15 3.694.512 5.474 1.16-.294.535-.804.87-1.15 1.34-.348.29-.718.548-1.04.874-.728.736-1.594 1.31-2.472 1.867-.131.084-.283.164-.298-.104-.026-.477-.173-.932-.294-1.391.583-.426 1.16-.86 1.753-1.271.163-.113.283-.22.232-.42-.048-.196-.25-.2-.397-.22-.75-.102-1.5-.222-2.256-.265a18.8 18.8 0 0 0-4.885.387c-1.774.368-3.46.962-5.058 1.82-2.12 1.138-3.966 2.587-5.487 4.403a17.703 17.703 0 0 0-3.436 6.346c-.352 1.18-.62 2.377-.688 3.61-.006.105-.064.258.08.307.119.04.222-.056.318-.127.53-.397 1.046-.814 1.597-1.186.458-.31.805-.781 1.39-.905.005.878.019 1.752.255 2.61.077.28.11.506.444.178.205-.2.458-.355.689-.53.135.013.198.108.275.2.54.66 1.195 1.184 1.992 1.525.829.355 1.676.648 2.65.646-.08-.147-.13-.251-.192-.348-.54-.826-.06-1.442.552-1.78a4.631 4.631 0 0 1 1.433-.492c1.9-.348 3.778-.217 5.648.231 1.298.312 2.5.77 3.33 1.861 1.679 2.548.642 5.033-1.096 6.654-2.24 2.085-5.008 2.883-8.014 3.012-1.007.044-2.02-.147-3.01-.384-3.445-.823-5.999-2.863-8.049-5.578-.817-1.082-1.445-2.273-2.027-3.487-.067-.139-.1-.32-.324-.304H18Z"/>
    <path fill="#F8FCFD" d="M40.282 28.086c.122.459.269.914.295 1.391.015.268.167.186.298.104.878-.555 1.744-1.13 2.472-1.867.322-.325.692-.584 1.04-.874l.888.204c-.158.186-.376.328-.438.578.203.081.366-.059.546-.104.203-.051.396-.195.608-.037.045.033-.015.144-.274.476a12.106 12.106 0 0 1-4.846 3.693c-.317.134-.547.29-.611.66-.045.261-.204.505-.347.745-.293.494-.688.911-1.129 1.383.15 0 .214.016.263-.002 1.348-.528 2.642-1.158 3.82-1.994.178-.126.345-.272.58-.284.807.082 1.614.17 2.405.355 1.973.455 3.854 1.143 5.619 2.114.885.488 1.73 1.032 2.548 1.63.756.553 1.438 1.184 2.15 1.783.29.244.661.453.77.863-.167.025-.276-.078-.39-.168-1.273-.99-2.669-1.795-4.115-2.52-.142-.071-.288-.195-.472-.088l.047-.041c-.015-.011-.03-.02-.043-.031l.007.069c0 .304.313.508.302.858-2.084-.956-4.216-1.601-6.513-1.623 2.339.468 4.454 1.413 6.399 2.737.703.63 1.47 1.182 2.11 1.89 1.03 1.144 1.914 2.371 2.553 3.752.19.407.54.772.494 1.27-.295.469-.193 1.01-.265 1.512a17.42 17.42 0 0 1-1.376 4.697 17.256 17.256 0 0 1-2.333 3.842c-.094.116-.17.24-.341.251-.002-.073-.029-.153-.004-.215.306-.801.366-1.646.416-2.48.077-1.267-.097-2.526-.397-3.764-.726-3.001-2.337-5.492-4.702-7.523-1.616-1.39-3.486-2.352-5.558-2.955-1.277-.372-2.583-.563-3.9-.668-.7-.055-1.42-.111-2.18.114.733.412 1.403.787 2.001 1.266.602.375.932.978 1.393 1.513-.264.119-.463-.095-.675-.033-1.54-.513-3.148-.602-4.748-.682-1.333-.068-2.663.081-3.972.336-1.798.352-3.475 1-4.99 2.02l-.023.013c-.122.054-.247.105-.322.222-.223.045-.377.182-.508.351-.231.175-.484.33-.689.53-.335.328-.367.102-.444-.178-.236-.858-.25-1.732-.255-2.61.197-2.263 1.566-3.782 3.381-5.097.084.319-.032.537-.073.758-.154.845.4 1.36 1.256 1.149 1.092-.272 1.99-.852 2.75-1.643.225-.233.421-.313.736-.136.402.224.843.23 1.379.056l-.251-.07c-.914-.221-1.71-1.157-1.274-2.232.268-.657.715-1.194 1.394-1.502 1.189-.537 2.419-.982 3.596-1.548 1.174-.563 2.195-1.284 3.038-2.253.16-.182.188-.553.44-.54.262.012.29.391.464.579v-.002Zm-14.83 11.512c.201-.112.396-.24.604-.34.343-.166.677-.22.904.184a.508.508 0 0 0 .126-.426c.154-.292.185-.59-.079-.825-.277-.248-.572-.084-.821.069-.55.339-.814.87-.977 1.459-.015.056-.025.13.078.078.036-.018.059-.064.088-.095l.08-.102-.003-.002Zm8.454-4.743c.224-.017.445-.035.668-.051 1.172-.088 2.157-.543 2.909-1.428.373-.437.63-.943.808-1.484.032-.097.067-.21-.01-.288-.033-.034-.159-.042-.2-.009-.437.352-.989.504-1.456.801-.678.139-1.301.425-1.922.709-.566.256-1.102.539-1.271 1.21-.122.481-.043.596.474.54Z"/>
    <path fill="#2C3978" d="M39.395 40.563c.212-.062.411.153.676.033-.462-.537-.794-1.138-1.394-1.513.049-.027.102-.082.147-.076 1.453.163 2.884.418 4.25.948 3.504 1.355 6.135 3.651 7.88 6.89a13.055 13.055 0 0 1 1.507 4.963 11.876 11.876 0 0 1-.105 3.24c-.115.655-.35 1.27-.578 1.9-.259.718-.605 1.374-.98 2.033-.147.257-.456.44-.419.79l.006-.007-.1.095c-1.142 1.178-2.482 2.067-4.01 2.719-1.31.559-2.666.96-4.063 1.187-1.603.26-3.227.262-4.851.208-1.59-.053-3.128-.344-4.655-.756-2.479-.667-4.679-1.852-6.725-3.336-.105-.077-.182-.19-.272-.284.24-.046.39.125.56.233 1.918 1.222 4.058 1.806 6.312 2.017 1.224.115 2.449-.058 3.649-.265 2.644-.46 5.01-1.55 7.023-3.27 1.905-1.627 3.32-3.566 3.65-6.107.168-1.304-.059-2.535-.558-3.736-.033-.082-.076-.184-.172-.183-.152.004-.105.15-.133.237a4.736 4.736 0 0 1-.728 1.435c-.598.794-1.384 1.353-2.305 1.89.143-.624.315-1.149.35-1.76-.573.405-1.029.843-1.696 1.017.026-.098.03-.142.047-.18.823-1.746.677-3.462-.212-5.132-.23-.435-.465-.905-.98-1.123-.832-1.093-2.034-1.552-3.331-1.861-1.868-.448-3.747-.58-5.649-.231-.5.09-.988.243-1.433.491-.611.339-1.091.956-.551 1.781.062.095.11.199.191.348-.973.004-1.82-.291-2.65-.647-.797-.34-1.451-.864-1.991-1.524-.077-.093-.14-.19-.276-.2.131-.17.285-.306.508-.352.145-.023.325.002.323-.222l.022-.012c.162.112.282-.02.411-.071.484-.19.958-.41 1.452-.572 2.008-.658 4.062-.962 6.192-.787 1.189.097 2.36.257 3.522.52.919.21 1.802.513 2.697.791.09.03.2.128.29.038.11-.109-.013-.213-.054-.313-.023-.053-.08-.09-.1-.144-.157-.422-.628-.664-.695-1.138l.002-.002Z"/>
    <path fill="#202C4E" d="M40.52 44.666c.516.219.749.69.981 1.124.89 1.672 1.036 3.387.212 5.132-.016.038-.022.082-.047.18.668-.175 1.124-.612 1.696-1.018-.034.612-.206 1.136-.349 1.76.92-.536 1.707-1.096 2.305-1.89a4.78 4.78 0 0 0 .727-1.434c.029-.088-.02-.234.134-.237.095-.002.138.1.172.182.499 1.202.726 2.435.557 3.737-.33 2.54-1.744 4.48-3.65 6.107-2.012 1.72-4.378 2.81-7.022 3.27-1.2.209-2.425.382-3.65.265-2.254-.211-4.394-.796-6.312-2.018-.169-.107-.319-.278-.559-.233-.864-.666-1.7-1.344-2.44-2.161-1.046-1.159-1.982-2.379-2.738-3.724-1.063-1.896-1.837-3.897-2.196-6.039-.123-.745-.264-1.486-.258-2.245.002-.282-.051-.565-.081-.845.225-.017.259.166.324.304.582 1.215 1.21 2.404 2.028 3.487 2.05 2.715 4.604 4.755 8.048 5.578.989.237 2.003.426 3.01.384 3.007-.129 5.773-.927 8.014-3.012 1.738-1.619 2.777-4.106 1.097-6.654h-.002Z"/>
    <path fill="#428CCA" d="M57.318 45.007c.047-.5-.306-.863-.493-1.271-.638-1.38-1.523-2.608-2.555-3.752-.64-.708-1.408-1.26-2.11-1.89.156-.144.346-.074.51-.053.976.13 1.934.334 2.868.641.65.215 1.279.481 1.924.783-.073-.324-.413-.335-.523-.564-.109-.41-.48-.62-.77-.863-.712-.6-1.394-1.23-2.15-1.783a23.763 23.763 0 0 0-2.549-1.63c-1.764-.972-3.645-1.659-5.618-2.114-.791-.182-1.598-.273-2.404-.355-.004-.14.118-.19.204-.262 1.435-1.213 2.603-2.615 3.316-4.349.169-.408.25-.856.532-1.216a19.294 19.294 0 0 1 4.045 2.505c1.806 1.468 3.34 3.17 4.53 5.156 1.063 1.775 1.88 3.643 2.328 5.656.194.865.383 1.726.447 2.615.041.573.169 1.143.146 1.72-.062 1.616-.127 3.233-.59 4.804-.029.097-.023.2-.034.3-.055.005-.11.006-.162.01-.086-1.31-.362-2.586-.731-3.846-.026-.09-.049-.199-.161-.242Z"/>
    <path fill="#202C4E" d="M50.383 59.772c-.037-.348.272-.534.418-.79.375-.658.72-1.314.981-2.035.227-.628.463-1.244.578-1.9.187-1.074.214-2.146.105-3.239a13.122 13.122 0 0 0-1.506-4.964c-1.746-3.238-4.377-5.534-7.88-6.889-1.37-.53-2.8-.783-4.252-.949-.045-.005-.097.051-.146.077-.598-.48-1.268-.854-2-1.266.759-.225 1.479-.17 2.178-.114 1.319.103 2.626.296 3.9.668 2.075.603 3.943 1.568 5.56 2.955 2.364 2.03 3.975 4.522 4.7 7.523.299 1.238.475 2.497.398 3.764-.05.834-.11 1.679-.416 2.48-.024.062 0 .144.004.215-.48 1.435-1.154 2.775-2.127 3.96-.148.181-.328.334-.493.502l-.002.002ZM47.5 26.329c-.282.362-.363.808-.532 1.216-.714 1.734-1.88 3.136-3.316 4.349-.088.074-.21.122-.204.262-.236.013-.403.156-.581.284-1.178.836-2.472 1.464-3.82 1.994-.049.02-.113.002-.263.002.44-.474.837-.889 1.13-1.382.142-.24.301-.485.346-.745.066-.372.294-.526.611-.661a12.107 12.107 0 0 0 4.846-3.693c.26-.33.319-.441.274-.476-.212-.158-.405-.016-.608.037-.18.045-.34.187-.545.104.06-.25.28-.392.437-.578.754-.972 1.45-1.98 1.946-3.103.267-.602.493-1.223.779-1.939.106.708-.045 1.291-.09 1.88-.06.797-.265 1.569-.47 2.34-.007.028.04.072.06.109Z"/>
    <path fill="#F8FCFD" d="M58.21 49.095c.055-.004.11-.005.162-.01-.012.076.063.201-.059.212-.108.01-.1-.116-.105-.202h.002Z"/>
    <path fill="#579CD1" d="M40.283 28.086c-.175-.188-.203-.567-.465-.58-.252-.012-.28.361-.44.541-.843.968-1.863 1.689-3.037 2.253-1.18.566-2.408 1.01-3.597 1.548-.68.306-1.127.843-1.393 1.502-.437 1.075.36 2.01 1.273 2.233.052.013.103.029.251.07-.536.172-.977.167-1.378-.057-.315-.177-.512-.097-.737.136-.76.79-1.658 1.371-2.75 1.643-.855.213-1.41-.304-1.256-1.15.04-.22.158-.436.073-.757-1.815 1.315-3.184 2.834-3.38 5.097-.586.122-.933.596-1.39.905-.55.372-1.066.789-1.598 1.186-.094.07-.199.167-.317.127-.145-.05-.086-.204-.08-.308.067-1.23.337-2.429.687-3.609a17.675 17.675 0 0 1 3.436-6.346c1.52-1.816 3.366-3.265 5.487-4.403a18.555 18.555 0 0 1 5.058-1.82 18.8 18.8 0 0 1 4.885-.387c.756.043 1.506.163 2.256.265.148.02.349.022.398.22.05.201-.07.307-.233.42-.593.411-1.17.845-1.753 1.27Z"/>
    <path fill="#202C4E" d="M39.395 40.564c.068.473.54.713.696 1.138.019.053.079.09.1.144.04.1.164.205.054.313-.09.089-.199-.011-.29-.038-.895-.28-1.779-.583-2.697-.79a25.135 25.135 0 0 0-3.522-.522c-2.13-.174-4.184.13-6.193.787-.493.162-.967.38-1.451.572-.131.05-.25.184-.41.07 1.513-1.019 3.19-1.667 4.99-2.019 1.308-.256 2.64-.404 3.971-.337 1.602.08 3.21.17 4.749.683l.003-.001Zm17.545-1.661c.11.227.45.24.522.564a17.304 17.304 0 0 0-1.924-.783 15.894 15.894 0 0 0-2.867-.64c-.165-.023-.355-.092-.51.052-1.945-1.324-4.06-2.27-6.399-2.737 2.297.022 4.43.666 6.513 1.622.011-.35-.302-.553-.302-.857l-.011.003c.184-.109.33.015.473.088 1.445.726 2.84 1.531 4.114 2.52.114.09.223.193.39.168Z"/>
    <path fill="#2C3978" d="M36.63 32.396c.466-.297 1.018-.45 1.455-.8.039-.034.165-.026.2.008.077.08.042.191.01.288a4.398 4.398 0 0 1-.809 1.484c-.753.883-1.736 1.34-2.908 1.428-.223.016-.445.032-.668.05.212-.278.568-.265.853-.396.93-.43 1.666-1.015 1.868-2.06l-.002-.002Z"/>
    <path fill="#579CD1" d="M36.63 32.396c-.203 1.045-.938 1.63-1.868 2.06-.285.13-.642.12-.854.397-.517.056-.596-.059-.474-.54.169-.671.707-.954 1.272-1.21.622-.283 1.243-.57 1.922-.709l.002.002Z"/>
    <path fill="#2C3978" d="M25.374 39.7c-.028.033-.05.077-.088.095-.102.053-.094-.022-.079-.078.163-.589.428-1.12.977-1.459.25-.153.544-.317.821-.07.265.237.233.534.08.826-.123-.268-.224-.603-.629-.448-.49.187-.893.484-1.003 1.034-.066.006-.08.047-.08.102V39.7Z"/>
    <path fill="#579CD1" d="M25.453 39.6c.11-.548.513-.847 1.003-1.034.405-.155.506.18.628.448a.506.506 0 0 1-.126.426c-.226-.404-.56-.35-.903-.184-.209.1-.404.228-.604.342l.002.002Z"/>
    <path fill="#202C4E" d="M25.662 42.252c0 .223-.18.196-.322.222.077-.117.202-.166.322-.222Zm26.311-6.13-.007-.07c.015.012.03.02.043.032l-.047.042.011-.004Z"/>
    <path fill="#579CD1" d="M25.374 39.7c-.002-.054.013-.096.078-.102l-.078.102Z"/>
  </g>
  <path fill="#428CCA" d="M19 40.579c.04-2.76.488-5.438 1.585-8.002a19.816 19.816 0 0 1 5.132-7.12c2.924-2.591 6.331-4.238 10.253-4.875 1.691-.275 3.386-.379 5.093-.242 1.87.15 3.694.512 5.474 1.16-.294.535-.804.87-1.15 1.34-.348.29-.718.548-1.04.874-.728.736-1.594 1.31-2.472 1.867-.131.084-.283.164-.298-.104-.026-.477-.173-.932-.294-1.391.583-.426 1.16-.86 1.753-1.271.163-.113.283-.22.232-.42-.048-.196-.25-.2-.397-.22-.75-.102-1.5-.222-2.256-.265a18.8 18.8 0 0 0-4.885.387c-1.774.368-3.46.962-5.058 1.82-2.12 1.138-3.966 2.587-5.487 4.403a17.703 17.703 0 0 0-3.436 6.346c-.352 1.18-.62 2.377-.688 3.61-.006.105-.064.258.08.307.119.04.222-.056.318-.127.53-.397 1.046-.814 1.597-1.186.458-.31.805-.781 1.39-.905.005.878.019 1.752.255 2.61.077.28.11.506.444.178.205-.2.458-.355.689-.53.135.013.198.108.275.2.54.66 1.195 1.184 1.992 1.525.829.355 1.676.648 2.65.646-.08-.147-.13-.251-.192-.348-.54-.826-.06-1.442.552-1.78a4.631 4.631 0 0 1 1.433-.492c1.9-.348 3.778-.217 5.648.231 1.298.312 2.5.77 3.33 1.861 1.679 2.548.642 5.033-1.096 6.654-2.24 2.085-5.008 2.883-8.014 3.012-1.007.044-2.02-.147-3.01-.384-3.445-.823-5.999-2.863-8.049-5.578-.817-1.082-1.445-2.273-2.027-3.487-.067-.139-.1-.32-.324-.304H19Z"/>
  <path fill="#F8FCFD" d="M41.282 24.086c.122.459.269.914.295 1.391.015.268.167.186.298.104.878-.555 1.744-1.13 2.472-1.867.322-.325.692-.584 1.04-.874l.888.204c-.158.186-.376.328-.438.578.203.081.366-.059.546-.104.203-.051.396-.195.608-.037.045.033-.015.144-.274.476a12.106 12.106 0 0 1-4.846 3.693c-.317.134-.547.29-.611.66-.045.261-.204.505-.347.745-.293.494-.688.911-1.129 1.383.15 0 .214.016.263-.002 1.348-.528 2.642-1.158 3.82-1.994.178-.126.345-.271.58-.284.807.082 1.614.17 2.405.355 1.973.455 3.854 1.143 5.619 2.114.885.488 1.73 1.033 2.548 1.63.756.553 1.438 1.184 2.15 1.783.29.244.661.453.77.863-.167.025-.276-.078-.39-.168-1.273-.99-2.669-1.795-4.115-2.52-.142-.071-.288-.195-.472-.088l.047-.041c-.015-.011-.03-.02-.043-.031l.007.069c0 .304.313.508.302.858-2.084-.956-4.216-1.601-6.513-1.623 2.339.468 4.454 1.413 6.399 2.737.703.63 1.47 1.182 2.11 1.89 1.03 1.144 1.914 2.371 2.553 3.752.19.407.54.772.494 1.27-.295.469-.193 1.01-.265 1.512a17.42 17.42 0 0 1-1.376 4.697 17.256 17.256 0 0 1-2.333 3.842c-.094.116-.17.24-.341.251-.002-.073-.029-.153-.004-.215.306-.801.366-1.646.416-2.48.077-1.267-.097-2.526-.397-3.764-.726-3.001-2.337-5.492-4.702-7.523-1.616-1.39-3.486-2.352-5.558-2.955-1.277-.372-2.583-.563-3.9-.668-.7-.055-1.42-.111-2.18.114.733.412 1.403.787 2.001 1.266.602.375.932.978 1.393 1.513-.264.119-.463-.095-.675-.033-1.54-.513-3.148-.602-4.748-.682-1.333-.068-2.663.081-3.972.336-1.798.352-3.475 1-4.99 2.02l-.023.013c-.122.054-.247.105-.322.222-.223.045-.377.182-.508.351-.231.175-.484.33-.689.53-.335.328-.367.102-.444-.178-.236-.858-.25-1.732-.255-2.61.197-2.263 1.566-3.782 3.381-5.097.084.319-.032.537-.073.758-.154.845.4 1.36 1.256 1.149 1.092-.272 1.99-.852 2.75-1.643.225-.233.421-.313.736-.136.402.224.843.23 1.379.056l-.251-.07c-.914-.221-1.71-1.157-1.274-2.232.268-.657.715-1.194 1.394-1.502 1.189-.537 2.419-.982 3.596-1.548 1.174-.563 2.195-1.284 3.038-2.253.16-.182.188-.553.44-.54.262.012.29.391.464.579v-.002Zm-14.83 11.512c.201-.112.396-.24.604-.34.343-.166.677-.22.904.184a.508.508 0 0 0 .126-.426c.154-.292.185-.59-.079-.825-.277-.248-.572-.084-.821.069-.55.339-.814.87-.977 1.459-.015.056-.025.13.078.078.036-.018.059-.064.088-.095l.08-.102-.003-.002Zm8.454-4.743c.224-.017.445-.035.668-.051 1.172-.088 2.157-.543 2.909-1.428.373-.437.63-.943.808-1.484.032-.097.067-.21-.01-.288-.033-.034-.159-.042-.2-.009-.437.352-.989.504-1.456.801-.678.139-1.301.425-1.922.709-.566.256-1.102.539-1.271 1.21-.122.481-.043.596.474.54Z"/>
  <path fill="#2C3978" d="M40.395 36.563c.212-.062.411.153.676.033-.462-.537-.794-1.138-1.394-1.513.049-.027.102-.082.147-.076 1.453.163 2.884.418 4.25.948 3.504 1.355 6.135 3.651 7.88 6.89a13.055 13.055 0 0 1 1.507 4.963 11.876 11.876 0 0 1-.105 3.24c-.115.655-.35 1.27-.578 1.9-.259.718-.605 1.374-.98 2.033-.147.257-.456.44-.419.79l.006-.007-.1.095c-1.142 1.178-2.482 2.067-4.01 2.719-1.31.559-2.666.96-4.063 1.187-1.603.26-3.227.262-4.851.208-1.59-.053-3.128-.344-4.655-.756-2.479-.667-4.679-1.852-6.725-3.336-.105-.077-.182-.19-.272-.284.24-.046.39.125.56.233 1.918 1.222 4.058 1.806 6.312 2.017 1.224.115 2.449-.058 3.649-.265 2.644-.46 5.01-1.55 7.023-3.27 1.905-1.627 3.32-3.566 3.65-6.107.168-1.304-.059-2.535-.558-3.736-.033-.082-.076-.184-.172-.183-.152.004-.105.15-.133.237a4.736 4.736 0 0 1-.728 1.435c-.598.794-1.384 1.353-2.305 1.89.143-.624.315-1.149.35-1.76-.573.405-1.029.843-1.696 1.017.026-.098.03-.142.047-.18.823-1.746.677-3.462-.212-5.132-.23-.435-.465-.905-.98-1.123-.832-1.093-2.034-1.552-3.331-1.861-1.868-.448-3.747-.58-5.649-.231-.5.09-.988.243-1.433.491-.611.339-1.091.956-.551 1.781.062.095.11.199.191.348-.973.004-1.82-.291-2.65-.647-.797-.34-1.451-.864-1.991-1.524-.077-.093-.14-.19-.276-.2.131-.17.285-.306.508-.352.145-.023.325.002.323-.222l.022-.012c.162.112.282-.02.411-.071.484-.19.958-.41 1.452-.572 2.008-.658 4.062-.962 6.192-.787 1.189.097 2.36.257 3.522.52.919.21 1.802.513 2.697.791.09.03.2.128.29.038.11-.109-.013-.213-.054-.313-.023-.053-.08-.09-.1-.144-.157-.422-.628-.664-.695-1.138l.002-.002Z"/>
  <path fill="#202C4E" d="M41.52 40.666c.516.219.749.69.981 1.124.89 1.672 1.036 3.387.212 5.132-.016.038-.022.082-.047.18.668-.175 1.124-.612 1.696-1.018-.034.612-.206 1.136-.349 1.76.92-.536 1.707-1.096 2.305-1.89a4.78 4.78 0 0 0 .727-1.434c.029-.088-.02-.234.134-.237.095-.002.138.1.172.182.499 1.202.726 2.435.557 3.737-.33 2.54-1.744 4.48-3.65 6.107-2.012 1.72-4.378 2.81-7.022 3.27-1.2.209-2.425.382-3.65.265-2.254-.211-4.394-.796-6.312-2.018-.169-.107-.319-.278-.559-.233-.864-.666-1.7-1.344-2.44-2.161-1.046-1.159-1.982-2.379-2.738-3.724-1.063-1.896-1.837-3.897-2.196-6.039-.123-.745-.264-1.486-.258-2.245.002-.282-.051-.565-.081-.845.225-.017.259.166.324.304.582 1.215 1.21 2.404 2.028 3.487 2.05 2.715 4.604 4.755 8.048 5.578.989.237 2.003.426 3.01.384 3.007-.129 5.773-.927 8.014-3.012 1.738-1.619 2.777-4.106 1.097-6.654h-.002Z"/>
  <path fill="#428CCA" d="M58.318 41.007c.047-.5-.306-.863-.493-1.271-.638-1.38-1.523-2.608-2.555-3.752-.64-.708-1.408-1.26-2.11-1.89.156-.144.346-.074.51-.053.976.13 1.934.334 2.868.641.65.215 1.279.481 1.924.783-.073-.324-.413-.335-.523-.564-.109-.41-.48-.62-.77-.863-.712-.6-1.394-1.23-2.15-1.783a23.763 23.763 0 0 0-2.549-1.63c-1.764-.972-3.645-1.659-5.618-2.114-.791-.182-1.598-.273-2.404-.355-.004-.14.118-.19.204-.262 1.435-1.213 2.603-2.615 3.316-4.349.169-.408.25-.856.532-1.216a19.294 19.294 0 0 1 4.045 2.505c1.806 1.468 3.34 3.17 4.53 5.156 1.063 1.775 1.88 3.643 2.328 5.656.194.865.383 1.726.447 2.615.041.573.169 1.143.146 1.72-.062 1.616-.127 3.233-.59 4.804-.029.097-.023.2-.034.3-.055.005-.11.006-.162.01-.086-1.31-.362-2.586-.731-3.846-.026-.09-.049-.199-.161-.242Z"/>
  <path fill="#202C4E" d="M51.383 55.772c-.037-.348.272-.534.418-.79.375-.658.72-1.314.981-2.035.227-.628.463-1.244.578-1.9.187-1.074.214-2.146.105-3.239a13.122 13.122 0 0 0-1.506-4.964c-1.746-3.238-4.377-5.534-7.88-6.889-1.37-.53-2.8-.783-4.252-.949-.045-.005-.097.051-.146.077-.598-.48-1.268-.854-2-1.266.759-.225 1.479-.17 2.178-.114 1.319.103 2.626.296 3.9.668 2.075.603 3.943 1.568 5.56 2.955 2.364 2.03 3.975 4.522 4.7 7.523.299 1.238.475 2.497.398 3.764-.05.834-.11 1.679-.416 2.48-.024.062 0 .144.004.215-.48 1.435-1.154 2.775-2.127 3.96-.148.181-.328.334-.493.502l-.002.002ZM48.5 22.329c-.282.362-.363.808-.532 1.216-.714 1.734-1.88 3.136-3.316 4.349-.088.074-.21.122-.204.262-.236.013-.403.156-.581.284-1.178.836-2.472 1.464-3.82 1.994-.049.02-.113.002-.263.002.44-.474.837-.889 1.13-1.382.142-.24.301-.485.346-.745.066-.372.294-.527.611-.661a12.107 12.107 0 0 0 4.846-3.693c.26-.33.319-.441.274-.476-.212-.158-.405-.016-.608.037-.18.045-.34.187-.545.104.06-.25.28-.392.437-.578.754-.972 1.45-1.98 1.946-3.103.267-.602.493-1.223.779-1.939.106.708-.045 1.291-.09 1.88-.06.797-.265 1.569-.47 2.34-.007.028.04.072.06.109Z"/>
  <path fill="#F8FCFD" d="M59.21 45.095c.055-.004.11-.005.162-.01-.012.076.063.201-.059.212-.108.01-.1-.116-.105-.202h.002Z"/>
  <path fill="#579CD1" d="M41.283 24.086c-.175-.188-.203-.567-.465-.58-.252-.012-.28.361-.44.541-.843.968-1.863 1.689-3.037 2.253-1.18.566-2.408 1.01-3.597 1.548-.68.306-1.127.843-1.393 1.502-.437 1.075.36 2.01 1.273 2.233.052.013.103.029.251.07-.536.172-.977.167-1.378-.057-.315-.177-.512-.097-.737.136-.76.79-1.658 1.371-2.75 1.643-.855.213-1.41-.304-1.256-1.15.04-.22.158-.436.073-.757-1.815 1.315-3.184 2.834-3.38 5.097-.586.122-.933.596-1.39.905-.55.372-1.066.789-1.598 1.186-.094.07-.199.167-.317.127-.145-.05-.086-.204-.08-.308.067-1.23.337-2.429.687-3.609a17.675 17.675 0 0 1 3.436-6.346c1.52-1.816 3.366-3.265 5.487-4.403a18.555 18.555 0 0 1 5.058-1.82 18.8 18.8 0 0 1 4.885-.387c.756.043 1.506.163 2.256.265.148.02.349.022.398.22.05.201-.07.307-.233.42-.593.411-1.17.845-1.753 1.27Z"/>
  <path fill="#202C4E" d="M40.395 36.564c.068.473.54.713.696 1.138.019.053.079.09.1.144.04.1.164.205.054.313-.09.089-.199-.011-.29-.038-.895-.28-1.779-.583-2.697-.79a25.135 25.135 0 0 0-3.522-.522c-2.13-.174-4.184.13-6.193.787-.493.162-.967.38-1.451.572-.131.05-.25.184-.41.07 1.513-1.019 3.19-1.667 4.99-2.019 1.308-.256 2.64-.404 3.971-.337 1.602.08 3.21.17 4.749.683l.003-.001Zm17.545-1.661c.11.227.45.24.522.564a17.304 17.304 0 0 0-1.924-.783 15.894 15.894 0 0 0-2.867-.64c-.165-.023-.355-.092-.51.052-1.945-1.324-4.06-2.27-6.399-2.737 2.297.022 4.43.666 6.513 1.622.011-.35-.302-.553-.302-.857l-.011.003c.184-.109.33.015.473.088 1.445.726 2.84 1.531 4.114 2.52.114.09.223.193.39.168Z"/>
  <path fill="#2C3978" d="M37.63 28.396c.466-.297 1.018-.45 1.455-.8.039-.034.165-.026.2.008.077.08.042.191.01.288a4.398 4.398 0 0 1-.809 1.484c-.753.883-1.736 1.34-2.908 1.428l-.668.05c.212-.278.568-.265.853-.396.93-.43 1.666-1.015 1.868-2.06l-.002-.002Z"/>
  <path fill="#579CD1" d="M37.63 28.396c-.203 1.045-.938 1.63-1.868 2.06-.285.13-.642.12-.854.397-.517.056-.596-.059-.474-.54.169-.671.707-.954 1.272-1.21.622-.283 1.243-.57 1.922-.709l.002.002Z"/>
  <path fill="#2C3978" d="M26.374 35.7c-.028.033-.05.077-.088.095-.102.053-.094-.022-.079-.078.163-.589.428-1.12.977-1.459.25-.153.544-.317.821-.07.265.237.233.534.08.826-.123-.268-.224-.603-.629-.448-.49.187-.893.484-1.003 1.034-.066.006-.08.047-.08.102V35.7Z"/>
  <path fill="#579CD1" d="M26.453 35.6c.11-.548.513-.847 1.003-1.034.405-.155.506.18.628.448a.506.506 0 0 1-.126.426c-.226-.404-.56-.35-.903-.184-.209.1-.404.228-.604.342l.002.002Z"/>
  <path fill="#202C4E" d="M26.662 38.252c0 .223-.18.196-.322.222.077-.117.202-.166.322-.222Zm26.311-6.13-.007-.07c.015.012.03.02.043.032l-.047.042.011-.004Z"/>
  <path fill="#579CD1" d="M26.374 35.7c-.002-.054.013-.096.078-.102l-.078.102Z"/>
  <defs>
    <filter id="a" width="60.998" height="62.001" x="8" y="12" color-interpolation-filters="sRGB" filterUnits="userSpaceOnUse">
      <feFlood flood-opacity="0" result="BackgroundImageFix"/>
      <feBlend in="SourceGraphic" in2="BackgroundImageFix" result="shape"/>
      <feGaussianBlur result="effect1_foregroundBlur_52_24347" stdDeviation="5"/>
    </filter>
  </defs>
</svg>
