<svg xmlns="http://www.w3.org/2000/svg" width="80" height="80" fill="none" viewBox="0 0 80 80">
  <path fill="#DDB557" d="M37.773 32.897 36.11 21.064c.532-.03 1.08-.05 1.644-.064l1.673 11.897h-1.653Zm-6.75-11.285 4.245 11.285h1.744L32.676 21.37c-.577.073-1.128.154-1.653.242Zm-3.526.762a29.03 29.03 0 0 0-1.613.487l6.285 10.036h1.917l-6.589-10.523Zm14.379-1.322L40.21 32.897h1.653l1.651-11.74a55.714 55.714 0 0 0-1.638-.105Zm2.454 11.845h-1.743l4.278-11.373c.57.081 1.12.169 1.646.262l-4.18 11.11Zm1.111 0h1.918l6.215-9.925c-.493-.148-1.039-.3-1.635-.452l-6.498 10.377Zm-22.823-7.661.464-1.334 1.06 1.334h-1.524Zm4.902 4.252-1.266-1.594h-4.561l-.555 1.594h6.383Zm2.489 3.131.111 1.121H19.658l.555-1.595h9.42l.376.474Zm.532 5.373-.158-1.594h-11.65l-.556 1.594h12.364Zm.264 2.658.158 1.594H16.697l.555-1.595h13.553Zm.579 5.846-.158-1.594H15.772l-.555 1.594h16.167Zm.264 2.657.158 1.595H14.54l-.604-.578.355-1.017h17.356ZM17.32 53.406 18.985 55h13.241l-.158-1.594H17.32Zm40.07-28.17-.464-1.334-1.06 1.334h1.524Zm-4.903 4.252 1.267-1.594h4.561l.556 1.594h-6.384ZM50 32.619l-.112 1.121h10.463l-.556-1.595h-9.42L50 32.62Zm-.533 5.373.158-1.594h11.65l.556 1.594H49.467Zm-.264 2.658-.158 1.594h14.266l-.555-1.595H49.203Zm-.579 5.846.158-1.594h15.455l.555 1.594H48.624Zm-.264 2.657-.157 1.595h17.264l.604-.578-.354-1.017H48.36Zm14.329 4.253L61.022 55H47.78l.158-1.594h14.75Z"/>
  <g filter="url(#a)">
    <path fill="#DDB557" d="m38.035 32.497-1.468-10.44c.47-.026.953-.045 1.45-.057l1.477 10.497h-1.459ZM32.08 22.54l3.745 9.957h1.539l-3.826-10.17c-.51.064-.996.136-1.459.213Zm-3.112.672c-.525.143-1 .288-1.423.43l5.545 8.855h1.692l-5.813-9.285Zm12.687-1.166-1.47 10.451h1.459l1.457-10.36a51.89 51.89 0 0 0-1.446-.091Zm2.166 10.451h-1.538l3.775-10.035c.503.072.987.15 1.452.231l-3.689 9.804Zm.98 0h1.692l5.484-8.757c-.435-.13-.917-.265-1.442-.399L44.8 32.497Zm-20.138-6.759.41-1.177.935 1.177h-1.345Zm4.327 3.752-1.118-1.407h-4.025l-.49 1.406h5.633Zm2.195 2.762.098.99H22.05l.49-1.407h8.312l.332.417Zm.47 4.741-.14-1.407h-10.28l-.49 1.407h10.91Zm.232 2.345.14 1.407H19.438l.49-1.407h11.958Zm.511 5.159-.14-1.407H18.624l-.49 1.407h14.265Zm.232 2.344.14 1.407H17.536l-.532-.51.312-.897h15.315Zm-12.642 3.752L21.458 52h11.684l-.14-1.407H19.989Zm35.357-24.855-.41-1.177L54 25.738h1.345Zm-4.326 3.752 1.118-1.407h4.024l.49 1.407h-5.632Zm-2.196 2.762-.098.99h9.232l-.49-1.407h-8.312l-.332.417Zm-.47 4.741.14-1.407h10.28l.49 1.407h-10.91Zm-.233 2.345-.139 1.407H60.57l-.49-1.407H48.121Zm-.51 5.159.139-1.407h13.636l.49 1.407H47.609Zm-.233 2.344-.14 1.407h15.234l.533-.51-.312-.897H47.377Zm12.643 3.752L58.549 52H46.866l.14-1.407H60.02Z"/>
  </g>
  <defs>
    <filter id="a" width="74" height="58" x="3.004" y="8" color-interpolation-filters="sRGB" filterUnits="userSpaceOnUse">
      <feFlood flood-opacity="0" result="BackgroundImageFix"/>
      <feBlend in="SourceGraphic" in2="BackgroundImageFix" result="shape"/>
      <feGaussianBlur result="effect1_foregroundBlur_52_24761" stdDeviation="7"/>
    </filter>
  </defs>
</svg>
