<svg xmlns="http://www.w3.org/2000/svg" width="80" height="80" fill="none" viewBox="0 0 80 80">
  <g clip-path="url(#a)">
    <g clip-path="url(#b)" filter="url(#c)">
      <path fill="#1B4DFF" fill-opacity=".5" d="M20.197 42.64c-.367-1.071-.712-2.063-1.052-3.058-.092-.273-.192-.546-.25-.825-.194-.941.544-1.66 1.464-1.385 1.67.5 3.33 1.03 4.982 1.581 2.07.692 4.141 1.374 6.18 2.146.793.3 1.498.828 2.284 1.274-.536-.844-1.211-1.544-2.076-1.99a66.765 66.765 0 0 0-4.409-2.091c-2.094-.895-4.221-1.709-6.332-2.562-.171-.07-.328-.171-.562-.296.689-.731 1.313-1.43 1.975-2.088 4.228-4.227 8.47-8.44 12.694-12.672.712-.713 1.468-.87 2.412-.507 3.283 1.265 6.577 2.497 9.867 3.74 1.2.453 2.046 1.264 2.488 2.474 1.23 3.378 2.45 6.761 3.671 10.142.292.805.12 1.512-.469 2.123-5.243 5.44-10.499 10.873-15.724 16.335-.899.94-1.826 1.244-3.045.703-.894-.398-1.833-.696-2.75-1.043-.623-.236-.63-.26-.274-.844.35-.574.701-1.147 1.045-1.723.391-.654.405-1.334.16-2.049-1.313-3.82-4.067-6.243-7.634-7.88-.28-.128-.564-.243-.844-.373-.814-.377-1.605-.296-2.379.116-.45.24-.904.478-1.422.751Zm16.249 10.05.138.129c.072-.114.127-.24.215-.34 4.583-5.055 9.163-10.113 13.761-15.154.328-.36.407-.691.291-1.137a62.527 62.527 0 0 1-.51-2.188c-.537-2.421-1.069-4.845-1.626-7.374-.097.212-.169.323-.2.444-.861 3.059-1.712 6.12-2.59 9.175-.056.192-.29.41-.483.468-.733.22-1.48.418-2.234.543-.437.072-.566.254-.601.666-.102 1.128-.259 2.252-.368 3.38-.046.47-.185.77-.702.898-.708.173-1.383.476-2.086.661-.393.104-.575.306-.67.68-.773 3.048-1.554 6.096-2.333 9.141l-.002.007Z"/>
      <path fill="#1B4DFF" fill-opacity=".5" d="M58 24.232c-.035.192-.118.456-.12.722 0 .876-.012 1.755.055 2.627.067.874-.106 1.308-.869 1.69-1.322.661-2.656 1.297-3.974 1.965-.375.19-.506.051-.627-.282-.564-1.551-1.165-3.09-1.708-4.648-.585-1.674-1.753-2.691-3.404-3.242-1.419-.471-2.82-.996-4.237-1.47-.43-.144-.55-.301-.324-.738.652-1.26 1.262-2.544 1.898-3.816.456-.91.759-1.096 1.79-.943 1.035.155 2.053.187 3.082-.056.522-.122.991.028 1.327.481.205.278.413.553.605.84.474.71 1.124 1.16 1.965 1.283 1.124.167 1.727.803 1.892 1.915.152 1.036.83 1.69 1.68 2.213.518.32.988.687.974 1.46H58ZM26.437 56.331c-.252 1.076-.13 2.135.169 3.187.041.145.048.305.058.458.057.793-.287 1.123-1.064.999-.416-.067-.823-.234-1.237-.255a23.607 23.607 0 0 0-2.467.01c-.698.041-1.216-.2-1.53-.798-.627-1.187-1.577-1.892-2.9-2.135-.711-.13-1.178-.6-1.292-1.313-.21-1.327-.957-2.222-2.104-2.851-.51-.282-.917-.71-.818-1.344.208-1.313.05-2.585-.204-3.876-.178-.899.12-1.151 1.039-1.07a4.5 4.5 0 0 1 .735.134c.807.217 1.607.338 2.444.113.927-.25 1.667.037 2.131.916.532 1.008 1.32 1.704 2.467 1.878 1.181.18 1.616.98 1.813 2.011.152.805.585 1.404 1.271 1.832.23.143.444.303.67.449.602.388.949.897.82 1.65v.005Z"/>
      <path fill="#1B4DFF" fill-opacity=".5" d="M15.067 46.67c.777-.437 1.565-.858 2.33-1.318 1.418-.851 2.835-1.702 4.222-2.6.816-.527 1.607-.575 2.513-.254 2.693.953 4.617 2.789 5.988 5.222.532.945.92 1.98 1.288 3.004.101.284-.023.726-.185 1.017-1.267 2.261-2.566 4.505-3.859 6.752-.023.042-.092.056-.319.18.049-.584.074-1.059.13-1.53.05-.437.175-.87.196-1.307.042-.825-.268-1.538-.978-1.968-.962-.58-1.567-1.362-1.77-2.479-.239-1.31-1.175-1.928-2.38-2.187-.772-.167-1.338-.516-1.817-1.175-1.128-1.558-1.82-1.727-3.727-1.244-.509.13-1.064.07-1.598.097-.011-.072-.025-.143-.037-.215l.003.005Z"/>
    </g>
    <g clip-path="url(#d)">
      <path fill="#2A4299" d="M25.197 44.64c-.367-1.071-.712-2.063-1.052-3.058-.092-.273-.192-.546-.25-.825-.194-.941.544-1.66 1.464-1.385 1.67.5 3.33 1.03 4.982 1.581 2.07.692 4.141 1.374 6.18 2.146.793.3 1.498.828 2.284 1.274-.536-.844-1.211-1.544-2.076-1.99a66.765 66.765 0 0 0-4.409-2.091c-2.094-.895-4.221-1.709-6.332-2.562-.171-.07-.328-.171-.562-.296.689-.731 1.313-1.43 1.975-2.088 4.228-4.227 8.47-8.44 12.694-12.672.712-.713 1.468-.87 2.412-.507 3.283 1.265 6.577 2.497 9.867 3.74 1.2.453 2.046 1.264 2.488 2.474 1.23 3.378 2.45 6.761 3.671 10.142.292.805.12 1.512-.469 2.123-5.243 5.44-10.499 10.873-15.724 16.335-.899.94-1.826 1.244-3.045.703-.894-.398-1.833-.696-2.75-1.043-.623-.236-.63-.26-.274-.844.35-.574.701-1.147 1.045-1.723.391-.654.405-1.334.16-2.049-1.313-3.82-4.067-6.243-7.634-7.88-.28-.128-.564-.243-.844-.373-.814-.377-1.605-.296-2.379.116-.45.24-.904.478-1.422.751Zm16.249 10.05.138.129c.072-.114.127-.24.215-.34 4.583-5.055 9.163-10.113 13.761-15.154.328-.36.407-.691.291-1.137a62.527 62.527 0 0 1-.51-2.188c-.537-2.421-1.069-4.845-1.626-7.374-.097.212-.169.323-.2.444-.861 3.059-1.712 6.12-2.59 9.175-.056.192-.29.41-.483.468-.733.22-1.48.418-2.234.543-.437.072-.566.254-.601.666-.102 1.128-.259 2.252-.368 3.38-.046.47-.185.77-.702.898-.708.173-1.383.476-2.086.661-.393.104-.575.306-.67.68-.773 3.048-1.554 6.096-2.333 9.141l-.002.007Z"/>
      <path fill="#2A4299" d="M63 26.232c-.035.192-.118.456-.12.722 0 .876-.012 1.755.055 2.627.067.874-.106 1.308-.869 1.69-1.322.661-2.656 1.297-3.974 1.965-.375.19-.506.051-.627-.282-.564-1.551-1.165-3.09-1.708-4.648-.585-1.674-1.753-2.691-3.404-3.242-1.419-.471-2.82-.996-4.237-1.47-.43-.144-.55-.301-.324-.738.652-1.26 1.262-2.544 1.898-3.816.456-.91.759-1.096 1.79-.943 1.035.155 2.053.187 3.082-.056.522-.122.991.028 1.327.481.205.278.413.553.605.84.474.71 1.124 1.16 1.965 1.283 1.124.167 1.727.803 1.892 1.915.152 1.036.83 1.69 1.68 2.213.518.32.988.687.974 1.46H63ZM31.437 58.331c-.252 1.076-.13 2.135.169 3.187.041.145.048.305.058.458.057.793-.287 1.123-1.064.999-.416-.067-.823-.234-1.237-.255a23.607 23.607 0 0 0-2.467.01c-.698.041-1.216-.2-1.53-.798-.627-1.187-1.577-1.892-2.9-2.135-.711-.13-1.178-.6-1.292-1.313-.21-1.327-.957-2.222-2.104-2.851-.51-.282-.917-.71-.818-1.344.208-1.313.05-2.585-.203-3.876-.178-.899.12-1.151 1.038-1.07a4.5 4.5 0 0 1 .735.134c.807.217 1.607.338 2.444.113.927-.25 1.667.037 2.131.916.532 1.008 1.32 1.704 2.467 1.878 1.181.18 1.616.98 1.813 2.011.152.805.585 1.404 1.271 1.832.23.143.444.303.67.449.602.388.949.897.82 1.65v.005Z"/>
      <path fill="#2A4299" d="M20.067 48.67c.777-.437 1.565-.858 2.33-1.318 1.418-.851 2.835-1.702 4.222-2.6.816-.527 1.607-.575 2.513-.254 2.693.953 4.617 2.789 5.988 5.222.532.945.92 1.98 1.288 3.004.101.284-.023.726-.185 1.017-1.267 2.261-2.566 4.505-3.859 6.752-.023.042-.092.056-.319.18.049-.584.074-1.059.13-1.53.05-.437.175-.87.196-1.307.042-.825-.268-1.538-.978-1.968-.962-.58-1.567-1.362-1.77-2.479-.239-1.31-1.175-1.928-2.38-2.187-.772-.167-1.338-.516-1.817-1.175-1.128-1.558-1.82-1.727-3.727-1.244-.509.13-1.064.07-1.598.097-.011-.072-.025-.143-.037-.215l.003.005Z"/>
    </g>
  </g>
  <defs>
    <clipPath id="a">
      <path fill="#fff" d="M0 0h80v80H0z"/>
    </clipPath>
    <clipPath id="b">
      <path fill="#fff" d="M13 16h45v45H13z"/>
    </clipPath>
    <clipPath id="d">
      <path fill="#fff" d="M18 18h45v45H18z"/>
    </clipPath>
    <filter id="c" width="73" height="73" x="-1" y="2" color-interpolation-filters="sRGB" filterUnits="userSpaceOnUse">
      <feFlood flood-opacity="0" result="BackgroundImageFix"/>
      <feBlend in="SourceGraphic" in2="BackgroundImageFix" result="shape"/>
      <feGaussianBlur result="effect1_foregroundBlur_52_24769" stdDeviation="7"/>
    </filter>
  </defs>
</svg>
