<svg xmlns="http://www.w3.org/2000/svg" width="80" height="80" fill="none" viewBox="0 0 80 80">
  <path fill="#026EF4" fill-rule="evenodd" d="M40 24.768c.665 0 1.32.174 1.897.505l3.817 2.186c.547.314.627.81.627 1.078a1.2 1.2 0 0 1-.627 1.078l-9.522 5.449-7.594-4.351 9.504-5.44A3.826 3.826 0 0 1 40 24.767ZM40 21a7.64 7.64 0 0 0-3.797 1.009L21 30.714l15.19 8.702.002-.002 3.805 2.18 3.8-2.175-3.799-2.176 9.513-5.448a3.797 3.797 0 0 1 3.775 0L55.2 32.89l3.8-2.174-3.814-2.184a7.609 7.609 0 0 0-5.125-.89 4.947 4.947 0 0 0-2.447-3.446l-3.818-2.187A7.636 7.636 0 0 0 40 21Zm-.002 24.949L21 35.069v4.351L40 50.3l18.996-10.88.004-4.35-19.002 10.88v-.001Zm0 8.699L21 43.768v4.352L40 59l18.996-10.88.004-4.35-19.002 10.878Z" clip-rule="evenodd"/>
  <g filter="url(#a)" opacity=".8">
    <path fill="#026EF4" fill-rule="evenodd" d="M44 20.768c.665 0 1.32.174 1.897.505l3.817 2.186c.547.314.627.81.627 1.078a1.2 1.2 0 0 1-.627 1.078l-9.522 5.449-7.594-4.351 9.504-5.44A3.826 3.826 0 0 1 44 20.767ZM44 17a7.64 7.64 0 0 0-3.797 1.009L25 26.714l15.19 8.702.002-.002 3.805 2.18 3.8-2.175-3.799-2.176 9.513-5.448a3.797 3.797 0 0 1 3.775 0L59.2 28.89l3.8-2.174-3.814-2.184a7.609 7.609 0 0 0-5.125-.89 4.947 4.947 0 0 0-2.447-3.446l-3.818-2.187A7.636 7.636 0 0 0 44 17Zm-.002 24.949L25 31.069v4.351L44 46.3l18.996-10.88.004-4.35-19.002 10.88v-.001Zm0 8.699L25 39.768v4.352L44 55l18.996-10.88.004-4.35-19.002 10.878Z" clip-rule="evenodd"/>
  </g>
  <defs>
    <filter id="a" width="66" height="66" x="11" y="3" color-interpolation-filters="sRGB" filterUnits="userSpaceOnUse">
      <feFlood flood-opacity="0" result="BackgroundImageFix"/>
      <feBlend in="SourceGraphic" in2="BackgroundImageFix" result="shape"/>
      <feGaussianBlur result="effect1_foregroundBlur_52_24763" stdDeviation="7"/>
    </filter>
  </defs>
</svg>
