<svg xmlns="http://www.w3.org/2000/svg" width="81" height="80" fill="none" viewBox="0 0 81 80">
  <g filter="url(#a)">
    <path fill="url(#b)" fill-opacity=".5" d="M58.262 41.61c1.222 0 2.346-.553 3.374-1.595.205.366.305.782.29 1.202a4.1 4.1 0 0 1-.29 1.365l.065.097c1.927-.097 3.052-.649 4.178-1.526.128.813.128 1.175.128 2.149 0 4.162-3.695 8.156-8.582 8.156-4.816 0-8.547-3.965-8.547-8.547h-.514c-.322.878-.45 1.82-.322 3.087-5.366 2.178-6.812 5.655-6.812 9.002h-3.243a14.685 14.685 0 0 1 .481-5.361c.418-1.463 1.19-3.348 2.635-4.81l-.418-.456c-1.926 1.56-2.25 2.145-3.92 4.355-1.381.293-2.54 1.105-4.499 1.105-1.253 0-2.57-.194-4.691-1.202.613-1.073 1.028-2.047 1.124-3.834h-.642c-1.285 5.297-6.363 6.173-8.547 6.564-1.927.325-2.603 1.787-2.603 3.217a2.21 2.21 0 0 0 .031.422h-1.834a10.576 10.576 0 0 1-.097-1.43c0-1.039.064-2.08.547-2.956 1.739-2.96 3.184-4.066 3.184-6.338 0-2.34-1.703-3.897-1.8-3.997.997-.165 1.35-1.14 2.025-2.18 1.478-2.307 3.952-2.664 5.238-2.664 1.253 0 1.992.162 3.245.162 5.752 0 8.645-6.597 15.65-6.597 4.434 0 7.487 3.25 7.936 7.44l.097.032c.579-.65 1.576-1.528 2.731-1.918 0 .163-.032.355-.032.553 0 3.122.836 6.502 4.434 6.502ZM28.057 54.996h-2.924c-.996-.942-1.639-2.371-1.8-3.188 1.8-.78 2.604-1.365 3.6-2.34l.578.456a4.182 4.182 0 0 0-.546 2.112c0 .718 0 1.14 1.092 2.96Zm17.577 0H43c0-3.574 1.028-4.841 2.507-6.272l.45.355c-.613 1.364-.675 2.307-.675 3.217 0 1.174.128 1.953.353 2.7Z"/>
  </g>
  <path fill="url(#c)" d="M59.262 39.61c1.222 0 2.346-.553 3.374-1.595.205.366.305.782.29 1.202a4.1 4.1 0 0 1-.29 1.365l.065.097c1.927-.097 3.052-.649 4.178-1.526.128.813.128 1.175.128 2.149 0 4.162-3.695 8.156-8.582 8.156-4.816 0-8.547-3.965-8.547-8.547h-.514c-.322.878-.45 1.82-.322 3.087-5.366 2.178-6.812 5.655-6.812 9.002h-3.243a14.685 14.685 0 0 1 .481-5.361c.418-1.463 1.19-3.348 2.635-4.81l-.418-.456c-1.926 1.56-2.25 2.145-3.92 4.355-1.381.293-2.54 1.105-4.499 1.105-1.253 0-2.57-.194-4.691-1.202.613-1.073 1.028-2.047 1.124-3.834h-.642c-1.285 5.297-6.363 6.173-8.547 6.564-1.927.325-2.603 1.787-2.603 3.217a2.21 2.21 0 0 0 .031.422h-1.834a10.576 10.576 0 0 1-.097-1.43c0-1.039.064-2.08.547-2.956 1.739-2.96 3.184-4.066 3.184-6.338 0-2.34-1.703-3.897-1.8-3.997.997-.165 1.35-1.14 2.025-2.18 1.478-2.307 3.952-2.664 5.238-2.664 1.253 0 1.992.162 3.245.162 5.752 0 8.645-6.597 15.65-6.597 4.434 0 7.487 3.25 7.936 7.44l.097.032c.579-.65 1.576-1.528 2.731-1.918 0 .163-.032.355-.032.553 0 3.122.836 6.502 4.434 6.502ZM29.057 52.996h-2.924c-.996-.942-1.639-2.371-1.8-3.188 1.8-.78 2.604-1.365 3.6-2.34l.578.456a4.182 4.182 0 0 0-.546 2.112c0 .718 0 1.14 1.092 2.96Zm17.577 0H44c0-3.574 1.028-4.841 2.507-6.272l.45.355c-.613 1.364-.675 2.307-.675 3.217 0 1.174.128 1.953.353 2.7Z"/>
  <defs>
    <radialGradient id="b" cx="0" cy="0" r="1" gradientTransform="matrix(51 26.00004 -21.04121 41.27309 15.007 29)" gradientUnits="userSpaceOnUse">
      <stop stop-color="#FED681"/>
      <stop offset="1" stop-color="#F25E40"/>
    </radialGradient>
    <radialGradient id="c" cx="0" cy="0" r="1" gradientTransform="matrix(51 26.00004 -21.04121 41.27309 16.007 27)" gradientUnits="userSpaceOnUse">
      <stop stop-color="#FED681"/>
      <stop offset="1" stop-color="#F25E40"/>
    </radialGradient>
    <filter id="a" width="69" height="44" x="6.007" y="20" color-interpolation-filters="sRGB" filterUnits="userSpaceOnUse">
      <feFlood flood-opacity="0" result="BackgroundImageFix"/>
      <feBlend in="SourceGraphic" in2="BackgroundImageFix" result="shape"/>
      <feGaussianBlur result="effect1_foregroundBlur_52_24759" stdDeviation="4.5"/>
    </filter>
  </defs>
</svg>
