<svg xmlns="http://www.w3.org/2000/svg" width="80" height="80" fill="none" viewBox="0 0 80 80">
  <g clip-path="url(#a)">
    <mask id="b" width="54" height="44" x="13" y="18" maskUnits="userSpaceOnUse" style="mask-type:luminance">
      <path fill="#fff" d="m65.98 18.922-9.85 9.848a9.495 9.495 0 0 1-6.715 2.781h-18.34a9.495 9.495 0 0 1-6.715-2.782l-9.849-9.849-.92-.92c.07.672.169 1.394.312 2.156a26.36 26.36 0 0 0 2.206 6.714 26.8 26.8 0 0 0 2.558 4.219 15.01 15.01 0 0 0 6.68 5.08c1.73.668 3.59 1.023 5.492 1.023H49.65c1.902 0 3.762-.355 5.492-1.022a15.01 15.01 0 0 0 6.68-5.081 26.787 26.787 0 0 0 3.412-6.177 26.36 26.36 0 0 0 1.352-4.756c.143-.762.243-1.484.312-2.156l-.92.922ZM15.636 38.915l6.48 6.482h10.257l-5.128 5.127 3.989 3.989 9.116-9.116h17.82l6.483-6.482a5.642 5.642 0 0 0-7.977 0l-.84.841H24.453l-.84-.841a5.623 5.623 0 0 0-3.988-1.652 5.624 5.624 0 0 0-3.988 1.652Zm26.135 9.046-8.632 8.457 3.719 3.72a4.646 4.646 0 0 0 6.57 0L55.607 47.96H41.772Z"/>
    </mask>
    <g mask="url(#b)">
      <path fill="url(#c)" d="M67 18.011H13.491v43.476h53.51V18.011Z"/>
    </g>
    <g filter="url(#d)" opacity=".8">
      <mask id="e" width="54" height="44" x="13" y="14" maskUnits="userSpaceOnUse" style="mask-type:luminance">
        <path fill="#fff" d="m65.98 14.922-9.85 9.848a9.495 9.495 0 0 1-6.715 2.781h-18.34a9.495 9.495 0 0 1-6.715-2.782l-9.849-9.849-.92-.92c.07.672.169 1.394.312 2.156a26.36 26.36 0 0 0 2.206 6.714 26.8 26.8 0 0 0 2.558 4.219 15.01 15.01 0 0 0 6.68 5.08c1.73.668 3.59 1.023 5.492 1.023H49.65c1.902 0 3.762-.355 5.492-1.022a15.01 15.01 0 0 0 6.68-5.081 26.787 26.787 0 0 0 3.412-6.177 26.36 26.36 0 0 0 1.352-4.756c.143-.762.243-1.484.312-2.156l-.92.922ZM15.636 34.915l6.48 6.482h10.257l-5.128 5.127 3.989 3.989 9.116-9.116h17.82l6.483-6.482a5.642 5.642 0 0 0-7.977 0l-.84.841H24.453l-.84-.841a5.623 5.623 0 0 0-3.988-1.652 5.624 5.624 0 0 0-3.988 1.652Zm26.135 9.046-8.632 8.457 3.719 3.72a4.646 4.646 0 0 0 6.57 0L55.607 43.96H41.772Z"/>
      </mask>
      <g mask="url(#e)">
        <path fill="url(#f)" d="M67 14.011H13.491v43.476h53.51V14.011Z"/>
      </g>
    </g>
  </g>
  <defs>
    <linearGradient id="c" x1="13.491" x2="67" y1="39.09" y2="39.09" gradientUnits="userSpaceOnUse">
      <stop offset=".26" stop-color="#4919F9"/>
      <stop offset=".714" stop-color="#ED8620"/>
    </linearGradient>
    <linearGradient id="f" x1="13.491" x2="67" y1="35.09" y2="35.09" gradientUnits="userSpaceOnUse">
      <stop offset=".26" stop-color="#4919F9"/>
      <stop offset=".714" stop-color="#ED8620"/>
    </linearGradient>
    <clipPath id="a">
      <path fill="#fff" d="M0 0h80.004v80H0z"/>
    </clipPath>
    <filter id="d" width="81.308" height="71.476" x="-.408" y=".011" color-interpolation-filters="sRGB" filterUnits="userSpaceOnUse">
      <feFlood flood-opacity="0" result="BackgroundImageFix"/>
      <feBlend in="SourceGraphic" in2="BackgroundImageFix" result="shape"/>
      <feGaussianBlur result="effect1_foregroundBlur_52_25146" stdDeviation="7"/>
    </filter>
  </defs>
</svg>
