<svg xmlns="http://www.w3.org/2000/svg" width="80" height="80" fill="none" viewBox="0 0 80 80">
  <g clip-path="url(#a)">
    <g filter="url(#b)" opacity=".5">
      <path fill="#263058" fill-rule="evenodd" d="m57.282 16.983-5.676-5.713-13.304 13.393 5.675 5.713 13.305-13.393Zm2.047 28.847-5.676-5.713 5.676-5.713 5.675 5.713-5.675 5.713ZM43.977 61.285l-5.675-5.714 13.304-13.393 5.676 5.713-13.305 13.394Zm13.305-28.848L43.977 45.83l-5.675-5.713 13.304-13.393 5.676 5.713Zm-20.934-5.713-5.675 5.713 5.675 5.713 5.676-5.713-5.676-5.713Z" clip-rule="evenodd"/>
    </g>
    <path fill="#0C0F22" fill-rule="evenodd" d="m49.502 21.429-5.676-5.714L30.521 29.11l5.676 5.713L49.502 21.43Zm2.046 28.847-5.675-5.713 5.675-5.713 5.676 5.713-5.675 5.713ZM36.197 65.73l-5.676-5.713 13.305-13.394 5.676 5.714L36.197 65.73Zm13.305-28.847L36.197 50.276l-5.676-5.713 13.305-13.394 5.676 5.714Zm-20.934-5.714-5.675 5.714 5.675 5.713 5.675-5.713-5.675-5.714Z" clip-rule="evenodd"/>
  </g>
  <defs>
    <clipPath id="a">
      <path fill="#fff" d="M.004 0h80v80h-80z"/>
    </clipPath>
    <filter id="b" width="62.331" height="78.015" x="16.673" y="-2.73" color-interpolation-filters="sRGB" filterUnits="userSpaceOnUse">
      <feFlood flood-opacity="0" result="BackgroundImageFix"/>
      <feBlend in="SourceGraphic" in2="BackgroundImageFix" result="shape"/>
      <feGaussianBlur result="effect1_foregroundBlur_52_25164" stdDeviation="7"/>
    </filter>
  </defs>
</svg>
