<svg xmlns="http://www.w3.org/2000/svg" width="80" height="80" fill="none" viewBox="0 0 80 80">
  <g filter="url(#a)" opacity=".4">
    <path fill="#00F9BB" fill-rule="evenodd" d="M66.004 37.635a7.947 7.947 0 0 1-1.814 1.498c-1.784 1.07-4.028 1.416-7.215 1.449h-.81.002-17.6L27.004 48h27.823c4.517-.017 8.54-2.985 10.066-7.224.377-1.045.747-2.092 1.11-3.14ZM38.36 28.441h21.632a4.07 4.07 0 0 1 3.318 1.692 4.048 4.048 0 0 1 .534 3.677c-.53 1.536-1.978 2.66-3.609 2.666H34.637a3.315 3.315 0 0 1-2.573-1.364 3.288 3.288 0 0 1-.457-2.977l2.254-6.717c1.119 2.076 3.372 2.998 4.5 3.023Zm19.153-4.002L64.97 18H40.957c-1.072.003-2.027.772-2.377 1.784a3.497 3.497 0 0 0 .463 3.187 3.515 3.515 0 0 0 2.875 1.467c6.646-.024 9.896-.002 15.596 0Z" clip-rule="evenodd"/>
  </g>
  <path fill="#00F9BB" fill-rule="evenodd" d="M61.004 45.253a8.814 8.814 0 0 1-2 1.698c-1.967 1.212-4.441 1.605-7.956 1.642h-.893.004-19.406L18.003 57H48.68c4.981-.019 9.416-3.383 11.099-8.188.416-1.183.824-2.37 1.225-3.559Zm-30.478-10.42h23.85a4.39 4.39 0 0 1 2.057.503 4.508 4.508 0 0 1 1.602 1.414 4.67 4.67 0 0 1 .788 2.011 4.702 4.702 0 0 1-.2 2.157c-.585 1.741-2.18 3.015-3.978 3.021H26.42a3.578 3.578 0 0 1-1.594-.435 3.673 3.673 0 0 1-1.243-1.11 3.784 3.784 0 0 1-.65-1.625 3.826 3.826 0 0 1 .146-1.75l2.485-7.612c1.234 2.353 3.718 3.398 4.962 3.426Zm21.117-4.536L59.863 23H33.389c-1.182.003-2.234.875-2.621 2.022a4.071 4.071 0 0 0-.173 1.87c.09.628.323 1.225.684 1.742.36.516.836.937 1.387 1.226a3.79 3.79 0 0 0 1.782.437c7.328-.028 10.912-.003 17.196 0Z" clip-rule="evenodd"/>
  <defs>
    <filter id="a" width="65" height="56" x="14.004" y="5" color-interpolation-filters="sRGB" filterUnits="userSpaceOnUse">
      <feFlood flood-opacity="0" result="BackgroundImageFix"/>
      <feBlend in="SourceGraphic" in2="BackgroundImageFix" result="shape"/>
      <feGaussianBlur result="effect1_foregroundBlur_52_25167" stdDeviation="6.5"/>
    </filter>
  </defs>
</svg>
