<svg xmlns="http://www.w3.org/2000/svg" width="80" height="80" fill="none" viewBox="0 0 80 80">
  <g filter="url(#a)" opacity=".25">
    <path fill="url(#b)" fill-rule="evenodd" d="M47.12 15.001c-.682 0-1.364.038-2.041.111C35.479 16.13 28 24.241 28 34.096c0 10.54 8.558 19.086 19.12 19.086h.043a19.039 19.039 0 0 0 8.742-2.132c.772-.402.438-1.566-.428-1.542h-.037c-7.647.194-14.512-3.035-17.308-9.02-1.68-3.582-1.611-6.899-.83-9.52l.019-.068c.4-1.614 1.148-3.103 2.253-4.263.085-.102.176-.2.275-.29.062-.065.129-.125.198-.18.026-.028.053-.055.08-.08.027-.02.046-.04.071-.058a.991.991 0 0 1 .161-.13 10.513 10.513 0 0 1 6.673-2.356c5.703 0 10.33 4.45 10.33 9.942a9.6 9.6 0 0 1-1.602 5.311c4.56-1.572 7.821-5.774 7.82-10.707 0-2.808-1.06-5.376-2.82-7.364a18.932 18.932 0 0 0-2.391-2.071l-.007-.007A19.045 19.045 0 0 0 47.152 15l-.032.001Z" clip-rule="evenodd"/>
    <path fill="url(#c)" fill-rule="evenodd" d="M63.47 27.978c0 4.929-3.105 9.132-7.456 10.706a11.044 11.044 0 0 1-3.815.67c-4.183 0-7.832-2.3-9.778-5.72-.474-.834-.846-2.252-1.1-3.458-.238-1.142-1.728-1.44-2.385-.476a3.49 3.49 0 0 0-.5 1.084c-.014.056-.03.112-.042.167a.165.165 0 0 0-.007.05 11.67 11.67 0 0 0-.26 3.997c.06.6.166 1.192.32 1.775.186.767.444 1.514.768 2.233 2.377 5.335 7.706 8.616 14.723 8.046a17.409 17.409 0 0 0 2.064-.294c5.79-1.223 9.963-6.476 9.998-12.662v-.115a18.238 18.238 0 0 0-.138-2.294 19.323 19.323 0 0 0-5.096-11.062 11.356 11.356 0 0 1 2.704 7.353Z" clip-rule="evenodd"/>
  </g>
  <path fill="url(#d)" fill-rule="evenodd" d="M40.133 18.992c-.754 0-1.508.041-2.256.122C27.266 20.238 19 29.204 19 40.097c0 11.649 9.46 21.094 21.133 21.094h.047a21.043 21.043 0 0 0 9.662-2.357c.853-.443.485-1.73-.473-1.703h-.04c-8.452.215-16.04-3.355-19.131-9.97-1.856-3.959-1.78-7.625-.917-10.521l.02-.076c.443-1.785 1.27-3.43 2.491-4.712.095-.113.195-.22.304-.32a1.99 1.99 0 0 1 .22-.2c.027-.03.057-.06.088-.088.03-.02.05-.043.078-.064.054-.053.114-.102.178-.143a11.62 11.62 0 0 1 7.376-2.604c6.303 0 11.418 4.918 11.418 10.988 0 2.089-.616 4.13-1.772 5.87 5.04-1.737 8.645-6.382 8.643-11.833 0-3.104-1.17-5.943-3.117-8.14a20.918 20.918 0 0 0-2.642-2.29l-.008-.007a21.05 21.05 0 0 0-12.39-4.03h-.035Z" clip-rule="evenodd"/>
  <path fill="url(#e)" fill-rule="evenodd" d="M58.204 33.335c0 5.447-3.432 10.093-8.24 11.832a12.206 12.206 0 0 1-4.218.74c-4.624 0-8.656-2.54-10.808-6.322-.523-.921-.934-2.489-1.215-3.82-.263-1.264-1.91-1.593-2.637-.527a3.866 3.866 0 0 0-.553 1.198c-.014.062-.032.124-.045.184a.18.18 0 0 0-.008.056 12.899 12.899 0 0 0-.288 4.417c.066.663.185 1.318.355 1.962.205.848.49 1.674.848 2.468 2.628 5.897 8.518 9.523 16.273 8.893a19.201 19.201 0 0 0 2.282-.325c6.398-1.352 11.01-7.157 11.05-13.994v-.127a20.148 20.148 0 0 0-.153-2.536 21.359 21.359 0 0 0-5.632-12.226 12.552 12.552 0 0 1 2.989 8.127Z" clip-rule="evenodd"/>
  <defs>
    <linearGradient id="b" x1="28" x2="63.58" y1="53.182" y2="53.182" gradientUnits="userSpaceOnUse">
      <stop stop-color="#2D2D4B"/>
      <stop offset="1" stop-color="#1D1D3A"/>
    </linearGradient>
    <linearGradient id="c" x1="38.059" x2="66" y1="47.116" y2="47.116" gradientUnits="userSpaceOnUse">
      <stop stop-color="#95A1D4"/>
      <stop offset="1" stop-color="#594DA0"/>
    </linearGradient>
    <linearGradient id="d" x1="19" x2="58.325" y1="61.191" y2="61.191" gradientUnits="userSpaceOnUse">
      <stop stop-color="#2D2D4B"/>
      <stop offset="1" stop-color="#1D1D3A"/>
    </linearGradient>
    <linearGradient id="e" x1="30.118" x2="61" y1="54.487" y2="54.487" gradientUnits="userSpaceOnUse">
      <stop stop-color="#95A1D4"/>
      <stop offset="1" stop-color="#594DA0"/>
    </linearGradient>
    <filter id="a" width="64" height="64.182" x="15" y="2" color-interpolation-filters="sRGB" filterUnits="userSpaceOnUse">
      <feFlood flood-opacity="0" result="BackgroundImageFix"/>
      <feBlend in="SourceGraphic" in2="BackgroundImageFix" result="shape"/>
      <feGaussianBlur result="effect1_foregroundBlur_52_25297" stdDeviation="6.5"/>
    </filter>
  </defs>
</svg>
