<svg xmlns="http://www.w3.org/2000/svg" width="81" height="80" fill="none" viewBox="0 0 81 80">
  <g filter="url(#a)" opacity=".4">
    <path fill="url(#b)" d="m61.298 24.894-15.37 26.48a5.278 5.278 0 0 1-1.937 1.922 5.312 5.312 0 0 1-5.286 0 5.277 5.277 0 0 1-1.936-1.922l-2.694-4.639a.054.054 0 0 1 .051-.086c.014.002.027.01.036.021a4.452 4.452 0 0 0 5.567.531 4.416 4.416 0 0 0 1.371-1.448l12.868-22.189a4.389 4.389 0 0 0-.924-5.515 4.437 4.437 0 0 0-1.776-.94.055.055 0 0 1-.055-.055.055.055 0 0 1 .055-.054h5.454c.928.001 1.84.245 2.643.707a5.275 5.275 0 0 1 1.935 1.927 5.24 5.24 0 0 1-.002 5.26ZM43.102 17h-5.33a.055.055 0 0 0-.037.052.054.054 0 0 0 .038.051 2.673 2.673 0 0 1 1.555 1.589 2.645 2.645 0 0 1-.197 2.209l-7.767 13.362a2.67 2.67 0 0 1-1.891 1.28 2.692 2.692 0 0 1-2.195-.64.055.055 0 0 0-.098.025.054.054 0 0 0 .011.04l2.727 4.71a3.48 3.48 0 0 0 1.278 1.272 3.505 3.505 0 0 0 4.771-1.273L46.13 22.208a3.458 3.458 0 0 0-1.28-4.744A3.504 3.504 0 0 0 43.102 17Zm-18.496 0c-.91 0-1.799.268-2.555.77a4.58 4.58 0 0 0-1.694 2.053 4.55 4.55 0 0 0 .997 4.984 4.62 4.62 0 0 0 5.011.991 4.593 4.593 0 0 0 2.064-1.684 4.556 4.556 0 0 0-.57-5.776A4.595 4.595 0 0 0 24.605 17Z"/>
  </g>
  <path fill="url(#c)" d="m60.298 32.894-15.37 26.48a5.278 5.278 0 0 1-1.937 1.922 5.312 5.312 0 0 1-5.286 0 5.277 5.277 0 0 1-1.936-1.922l-2.694-4.639a.054.054 0 0 1 .051-.086c.014.002.027.01.036.021a4.452 4.452 0 0 0 5.567.531 4.416 4.416 0 0 0 1.371-1.448l12.868-22.189a4.389 4.389 0 0 0-.924-5.515 4.437 4.437 0 0 0-1.776-.94.055.055 0 0 1-.055-.055.055.055 0 0 1 .055-.054h5.454c.928.001 1.84.245 2.643.707a5.275 5.275 0 0 1 1.935 1.927 5.24 5.24 0 0 1-.002 5.26ZM42.102 25h-5.33a.055.055 0 0 0-.037.052.054.054 0 0 0 .038.051 2.673 2.673 0 0 1 1.555 1.589 2.645 2.645 0 0 1-.197 2.209l-7.767 13.362a2.67 2.67 0 0 1-1.891 1.28 2.692 2.692 0 0 1-2.195-.64.055.055 0 0 0-.098.025.054.054 0 0 0 .011.04l2.727 4.71a3.48 3.48 0 0 0 1.278 1.272 3.505 3.505 0 0 0 4.771-1.273L45.13 30.208a3.458 3.458 0 0 0-1.28-4.744A3.504 3.504 0 0 0 42.102 25Zm-18.496 0c-.91 0-1.799.268-2.555.77a4.58 4.58 0 0 0-1.694 2.053 4.55 4.55 0 0 0 .997 4.984 4.62 4.62 0 0 0 5.011.991 4.593 4.593 0 0 0 2.064-1.684 4.556 4.556 0 0 0-.57-5.776A4.595 4.595 0 0 0 23.605 25Z"/>
  <defs>
    <linearGradient id="b" x1="61.47" x2="13.61" y1="46.28" y2="13.602" gradientUnits="userSpaceOnUse">
      <stop stop-color="#5433FF"/>
      <stop offset=".5" stop-color="#20BDFF"/>
      <stop offset="1" stop-color="#5CFFA2"/>
    </linearGradient>
    <linearGradient id="c" x1="60.47" x2="12.61" y1="54.28" y2="21.602" gradientUnits="userSpaceOnUse">
      <stop stop-color="#5433FF"/>
      <stop offset=".5" stop-color="#20BDFF"/>
      <stop offset="1" stop-color="#5CFFA2"/>
    </linearGradient>
    <filter id="a" width="74" height="69" x="4.007" y="1" color-interpolation-filters="sRGB" filterUnits="userSpaceOnUse">
      <feFlood flood-opacity="0" result="BackgroundImageFix"/>
      <feBlend in="SourceGraphic" in2="BackgroundImageFix" result="shape"/>
      <feGaussianBlur result="effect1_foregroundBlur_52_25560" stdDeviation="8"/>
    </filter>
  </defs>
</svg>
