<svg xmlns="http://www.w3.org/2000/svg" width="80" height="80" fill="none" viewBox="0 0 80 80">
  <g filter="url(#a)" opacity=".2">
    <path fill="url(#b)" d="M47.056 56.003c-.72 1.967-3.498 1.967-4.217 0L32.234 27.005c-1.01-2.76.371-5.684 2.912-5.684h19.602c2.54 0 3.922 2.923 2.913 5.683l-10.605 29Z"/>
    <path fill="url(#c)" d="M47.056 56.003c-.72 1.967-3.498 1.967-4.217 0L32.234 27.005c-1.01-2.76.371-5.684 2.912-5.684h19.602c2.54 0 3.922 2.923 2.913 5.683l-10.605 29Z"/>
    <path fill="url(#d)" d="M47.056 56.003c-.72 1.967-3.498 1.967-4.217 0L32.234 27.005c-1.01-2.76.371-5.684 2.912-5.684h19.602c2.54 0 3.922 2.923 2.913 5.683l-10.605 29Z"/>
    <path fill="url(#e)" d="M47.056 56.003c-.72 1.967-3.498 1.967-4.217 0L32.234 27.005c-1.01-2.76.371-5.684 2.912-5.684h19.602c2.54 0 3.922 2.923 2.913 5.683l-10.605 29Z"/>
    <path fill="url(#f)" d="m30.752 27.562 10.72 29.056a3.775 3.775 0 0 0 2.879 2.45h-8.107a3.204 3.204 0 0 1-3.01-2.088L22.23 27.113c-1.273-3.457.639-7.117 4.349-7.117h7.049c-1.206.427-2.128 1.332-2.678 2.425-.755 1.5-.847 3.38-.197 5.14Z"/>
    <path fill="url(#g)" fill-opacity=".8" d="M47.056 56.003c-.72 1.967-3.498 1.967-4.217 0L32.234 27.005c-1.01-2.76.371-5.684 2.912-5.684h19.602c2.54 0 3.922 2.923 2.913 5.683l-10.605 29Z"/>
  </g>
  <path fill="url(#h)" d="M47.056 57.968c-.72 1.966-3.498 1.966-4.217 0l-10.605-29c-1.01-2.76.371-5.683 2.912-5.683h19.602c2.54 0 3.922 2.924 2.913 5.684L47.055 57.968Z"/>
  <path fill="url(#i)" d="M47.056 57.968c-.72 1.966-3.498 1.966-4.217 0l-10.605-29c-1.01-2.76.371-5.683 2.912-5.683h19.602c2.54 0 3.922 2.924 2.913 5.684L47.055 57.968Z"/>
  <path fill="url(#j)" d="M47.056 57.968c-.72 1.966-3.498 1.966-4.217 0l-10.605-29c-1.01-2.76.371-5.683 2.912-5.683h19.602c2.54 0 3.922 2.924 2.913 5.684L47.055 57.968Z"/>
  <path fill="url(#k)" d="M47.056 57.968c-.72 1.966-3.498 1.966-4.217 0l-10.605-29c-1.01-2.76.371-5.683 2.912-5.683h19.602c2.54 0 3.922 2.924 2.913 5.684L47.055 57.968Z"/>
  <path fill="url(#l)" d="m30.752 29.526 10.72 29.056a3.775 3.775 0 0 0 2.879 2.45h-8.107a3.203 3.203 0 0 1-3.01-2.088L22.23 29.077c-1.273-3.457.639-7.117 4.349-7.117h7.049c-1.206.428-2.128 1.333-2.678 2.425-.755 1.5-.847 3.38-.197 5.141Z"/>
  <path fill="url(#m)" fill-opacity=".8" d="M47.056 57.968c-.72 1.966-3.498 1.966-4.217 0l-10.605-29c-1.01-2.76.371-5.683 2.912-5.683h19.602c2.54 0 3.922 2.924 2.913 5.684L47.055 57.968Z"/>
  <defs>
    <radialGradient id="c" cx="0" cy="0" r="1" gradientTransform="rotate(75.289 5.681 35.944) scale(18.7229 18.7091)" gradientUnits="userSpaceOnUse">
      <stop stop-color="#ACEA94"/>
      <stop offset="1" stop-opacity="0"/>
    </radialGradient>
    <radialGradient id="d" cx="0" cy="0" r="1" gradientTransform="matrix(20.6032 57.7638 -17.80389 6.35029 40.06 47.229)" gradientUnits="userSpaceOnUse">
      <stop offset=".051" stop-color="#D55401"/>
      <stop offset=".652" stop-opacity="0"/>
    </radialGradient>
    <radialGradient id="e" cx="0" cy="0" r="1" gradientTransform="matrix(-2.7734 16.32459 -16.31157 -2.7712 53.531 21.32)" gradientUnits="userSpaceOnUse">
      <stop stop-color="#62FAD2"/>
      <stop offset="1" stop-opacity="0"/>
    </radialGradient>
    <radialGradient id="i" cx="0" cy="0" r="1" gradientTransform="rotate(75.289 4.408 36.926) scale(18.7229 18.7091)" gradientUnits="userSpaceOnUse">
      <stop stop-color="#ACEA94"/>
      <stop offset="1" stop-opacity="0"/>
    </radialGradient>
    <radialGradient id="j" cx="0" cy="0" r="1" gradientTransform="matrix(20.6032 57.7638 -17.80389 6.35029 40.06 49.193)" gradientUnits="userSpaceOnUse">
      <stop offset=".051" stop-color="#D55401"/>
      <stop offset=".652" stop-opacity="0"/>
    </radialGradient>
    <radialGradient id="k" cx="0" cy="0" r="1" gradientTransform="matrix(-2.7734 16.32459 -16.31157 -2.7712 53.532 23.286)" gradientUnits="userSpaceOnUse">
      <stop stop-color="#62FAD2"/>
      <stop offset="1" stop-opacity="0"/>
    </radialGradient>
    <linearGradient id="b" x1="47.39" x2="33.381" y1="34.407" y2="22.324" gradientUnits="userSpaceOnUse">
      <stop stop-color="#E7CC38"/>
      <stop offset="1" stop-opacity="0"/>
    </linearGradient>
    <linearGradient id="f" x1="33.093" x2="33.093" y1="19.996" y2="59.067" gradientUnits="userSpaceOnUse">
      <stop offset=".021" stop-opacity="0"/>
      <stop offset=".026" stop-color="#121F26"/>
      <stop offset=".069" stop-color="#121F26" stop-opacity=".928"/>
      <stop offset=".112" stop-color="#121F26" stop-opacity=".42"/>
      <stop offset=".143" stop-color="#121F26" stop-opacity=".2"/>
      <stop offset=".171" stop-color="#1FADD5"/>
      <stop offset=".185" stop-color="#2E6583"/>
      <stop offset=".722" stop-color="#0A0A0A"/>
      <stop offset=".96" stop-color="#0A0A0A"/>
      <stop offset=".97" stop-opacity="0"/>
    </linearGradient>
    <linearGradient id="g" x1="53.334" x2="39.397" y1="41.346" y2="36.331" gradientUnits="userSpaceOnUse">
      <stop stop-color="#0A0A0A"/>
      <stop offset=".464" stop-color="#0A0A0A" stop-opacity=".41"/>
      <stop offset="1" stop-opacity="0"/>
    </linearGradient>
    <linearGradient id="h" x1="47.39" x2="33.381" y1="36.371" y2="24.288" gradientUnits="userSpaceOnUse">
      <stop stop-color="#E7CC38"/>
      <stop offset="1" stop-opacity="0"/>
    </linearGradient>
    <linearGradient id="l" x1="33.093" x2="33.093" y1="21.96" y2="61.032" gradientUnits="userSpaceOnUse">
      <stop offset=".021" stop-opacity="0"/>
      <stop offset=".026" stop-color="#121F26"/>
      <stop offset=".069" stop-color="#121F26" stop-opacity=".928"/>
      <stop offset=".112" stop-color="#121F26" stop-opacity=".42"/>
      <stop offset=".143" stop-color="#121F26" stop-opacity=".2"/>
      <stop offset=".171" stop-color="#1FADD5"/>
      <stop offset=".185" stop-color="#2E6583"/>
      <stop offset=".722" stop-color="#0A0A0A"/>
      <stop offset=".96" stop-color="#0A0A0A"/>
      <stop offset=".97" stop-opacity="0"/>
    </linearGradient>
    <linearGradient id="m" x1="53.334" x2="39.397" y1="43.311" y2="38.295" gradientUnits="userSpaceOnUse">
      <stop stop-color="#0A0A0A"/>
      <stop offset=".464" stop-color="#0A0A0A" stop-opacity=".41"/>
      <stop offset="1" stop-opacity="0"/>
    </linearGradient>
    <filter id="a" width="64.157" height="67.071" x="7.835" y="5.996" color-interpolation-filters="sRGB" filterUnits="userSpaceOnUse">
      <feFlood flood-opacity="0" result="BackgroundImageFix"/>
      <feBlend in="SourceGraphic" in2="BackgroundImageFix" result="shape"/>
      <feGaussianBlur result="effect1_foregroundBlur_52_25565" stdDeviation="7"/>
    </filter>
  </defs>
</svg>
