<svg width="150" height="63" viewBox="0 0 150 63" fill="none" xmlns="http://www.w3.org/2000/svg">
<path d="M34.6842 21.4131L29.6011 33.7506H26.2965L21.2295 21.4131H24.8561L28.0758 29.4501L31.363 21.4131H34.6842Z" fill="white"/>
<path d="M37.5098 33.7506H40.8651V21.4131H37.5098V33.7506Z" fill="white"/>
<path d="M48.7401 33.7513H45.3848V21.4138H50.8079C51.7694 21.3922 52.7238 21.5818 53.604 21.9694C54.3563 22.3073 54.9927 22.8589 55.434 23.5557C55.8744 24.2859 56.0982 25.1264 56.0793 25.9789C56.0973 26.7978 55.8891 27.6057 55.4776 28.3138C55.0648 28.987 54.4679 29.5281 53.7575 29.8732L56.3159 33.7501H52.7227L50.5719 30.4718H48.7401V33.7513ZM48.7401 24.1633V27.7767H50.6048C51.164 27.8169 51.7186 27.6507 52.1635 27.3095C52.3427 27.1394 52.4826 26.9322 52.5733 26.7023C52.6641 26.4725 52.7034 26.2256 52.6887 25.9789C52.7027 25.7311 52.663 25.4832 52.5724 25.2521C52.4817 25.021 52.3423 24.8123 52.1635 24.64C51.7214 24.2925 51.1657 24.1221 50.6048 24.1621L48.7401 24.1633Z" fill="white"/>
<path d="M62.413 24.1799H58.7686V21.4131H69.3931V24.1799H65.7666V33.7506H62.413V24.1799Z" fill="white"/>
<path d="M73.9558 32.4995C72.9788 31.501 72.4902 30.0852 72.4902 28.2522V21.4131H75.8456V28.1464C75.8456 30.12 76.5968 31.1068 78.0992 31.1068C79.5908 31.1068 80.3366 30.12 80.3366 28.1464V21.4131H83.6406V28.2522C83.6406 30.0844 83.1521 31.5002 82.175 32.4995C81.6294 33.0176 80.983 33.4179 80.2761 33.6756C79.5691 33.9333 78.8168 34.0428 78.0657 33.9973C77.3146 34.0429 76.5622 33.9334 75.8553 33.6757C75.1484 33.418 74.5014 33.0177 73.9558 32.4995Z" fill="white"/>
<path d="M25.8713 40.4121V42.9381H29.3647V43.8284H25.8713V46.7559H24.876V39.5117H29.7925V40.4121H25.8713Z" fill="white"/>
<path d="M32.6533 46.7577H33.6487V39.5117H32.6533V46.7577Z" fill="white"/>
<path d="M43.1856 39.5117V46.7577H42.3695L38.1873 41.3543V46.7577H37.1943V39.5117H38.0105L42.1927 44.9145V39.5117H43.188" fill="white"/>
<path d="M61.4669 39.5117V46.7577H60.6508L56.4686 41.3543V46.7577H55.4756V39.5117H56.2917L60.4739 44.9145V39.5117H61.4687" fill="white"/>
<path d="M46.703 46.7577H45.6777L48.8329 39.5117H49.8181L52.9846 46.7571H51.9379L51.1743 44.9486H47.4701L46.703 46.7577ZM49.3222 40.5674L47.8178 44.1181H50.8236L49.3222 40.5674Z" fill="white"/>
<path d="M66.242 46.3596C65.6891 46.0471 65.2328 45.5886 64.9228 45.0344C64.5992 44.4537 64.4343 43.798 64.4448 43.1333C64.4347 42.469 64.5995 41.8138 64.9228 41.2334C65.2344 40.6794 65.6924 40.2217 66.2467 39.9106C66.8236 39.5863 67.476 39.4202 68.1377 39.429C68.6497 39.4226 69.1577 39.5196 69.6313 39.714C70.0774 39.9001 70.4731 40.189 70.7862 40.557L70.138 41.2095C69.893 40.9327 69.5907 40.7124 69.2521 40.5641C68.9135 40.4157 68.5467 40.3428 68.1771 40.3503C67.6857 40.3439 67.2016 40.4691 66.7749 40.713C66.362 40.9489 66.0225 41.2944 65.7939 41.7113C65.5555 42.147 65.4337 42.6368 65.4402 43.1333C65.4334 43.6302 65.5552 44.1205 65.7939 44.5564C66.0221 44.9742 66.3617 45.3206 66.7749 45.5572C67.202 45.8011 67.6865 45.9263 68.1783 45.9198C68.5485 45.9255 68.9155 45.8507 69.2538 45.7005C69.5922 45.5503 69.8939 45.3283 70.138 45.0499L70.785 45.7024C70.4704 46.0725 70.0732 46.3636 69.6254 46.5519C69.1508 46.7487 68.6412 46.8471 68.1275 46.8411C67.4675 46.8504 66.8167 46.6843 66.242 46.3596Z" fill="white"/>
<path d="M73.665 46.7577H74.6604V39.5117H73.665V46.7577Z" fill="white"/>
<path d="M78.1772 46.7577H77.1514L80.3065 39.5117H81.2917L84.4583 46.7571H83.4115L82.648 44.9486H78.9437L78.1772 46.7577ZM80.7959 40.5674L79.2915 44.1181H82.2967L80.7959 40.5674Z" fill="white"/>
<path d="M86.9492 39.5117H87.944V45.8573H91.7157V46.7577H86.9492V39.5117Z" fill="white"/>
<mask id="mask0_9277_24453" style="mask-type:luminance" maskUnits="userSpaceOnUse" x="90" y="11" width="39" height="36">
<path d="M90.4023 11.8252H128.451V46.875H90.4023V11.8252Z" fill="white"/>
</mask>
<g mask="url(#mask0_9277_24453)">
<path d="M98.9054 21.4495L91.2776 21.4238C91.1174 21.429 90.9615 21.4765 90.8256 21.5615C90.6897 21.6465 90.5788 21.766 90.5041 21.9078C90.4294 22.0496 90.3935 22.2086 90.4002 22.3688C90.4069 22.5289 90.4559 22.6844 90.5422 22.8195L94.2649 28.8478L98.9054 21.4495Z" fill="white"/>
<path d="M119.143 11.8252C118.795 11.826 118.453 11.9159 118.149 12.0864C117.846 12.2568 117.592 12.5022 117.41 12.7991L101.07 38.89C100.978 39.039 100.93 39.2106 100.93 39.3856C100.93 39.5606 100.978 39.7322 101.07 39.8812L105.086 46.3744C105.177 46.5266 105.306 46.6527 105.46 46.7405C105.614 46.8283 105.788 46.8747 105.965 46.8752C106.142 46.8758 106.316 46.8304 106.471 46.7436C106.625 46.6568 106.755 46.5314 106.846 46.3798L128.451 11.8563L119.143 11.8252Z" fill="white"/>
</g>
<path d="M99.2119 21.4495L91.2776 21.4238C91.1174 21.429 90.9615 21.4765 90.8256 21.5615C90.6897 21.6465 90.5788 21.766 90.5041 21.9078C90.4294 22.0496 90.3935 22.2086 90.4002 22.3688C90.4069 22.5289 90.4559 22.6844 90.5422 22.8195L94.4053 29.1155L99.2119 21.4495Z" fill="white"/>
<path d="M100.312 38.5928L114.256 16.2957L104.558 16.2646C104.21 16.2654 103.868 16.3552 103.564 16.5257C103.261 16.6962 103.006 16.9416 102.825 17.2385L95.1997 29.3842C95.1074 29.5336 95.0586 29.7057 95.0586 29.8813C95.0586 30.0569 95.1074 30.229 95.1997 30.3784L100.312 38.5928Z" fill="white"/>
</svg>
