<svg xmlns="http://www.w3.org/2000/svg" width="80" height="80" fill="none" viewBox="0 0 80 80">
  <g clip-path="url(#a)">
    <path fill="#0F0C48" d="M40 66.087a25.985 25.985 0 0 1-18.372-7.631A26.115 26.115 0 0 1 14 40.045a26.118 26.118 0 0 1 7.628-18.412A25.987 25.987 0 0 1 40 14a25.987 25.987 0 0 1 18.372 7.633A26.118 26.118 0 0 1 66 40.045a26.115 26.115 0 0 1-7.628 18.41A25.985 25.985 0 0 1 40 66.088Zm0-50.082a23.986 23.986 0 0 0-16.959 7.045A24.107 24.107 0 0 0 16 40.045a24.09 24.09 0 0 0 7.038 16.998A23.97 23.97 0 0 0 40 64.082a23.97 23.97 0 0 0 16.962-7.04A24.09 24.09 0 0 0 64 40.046a24.107 24.107 0 0 0-7.041-16.995A23.986 23.986 0 0 0 40 16.005Z"/>
    <path fill="#0F0C48" d="M43.287 61.966a21.529 21.529 0 0 1-15.22-6.323 21.638 21.638 0 0 1-6.32-15.254 21.638 21.638 0 0 1 6.32-15.253 21.53 21.53 0 0 1 15.22-6.324 21.53 21.53 0 0 1 15.22 6.324 21.638 21.638 0 0 1 6.32 15.253 21.639 21.639 0 0 1-6.32 15.254 21.53 21.53 0 0 1-15.22 6.323Zm0-41.597a19.975 19.975 0 0 0-14.12 5.868 20.076 20.076 0 0 0-5.863 14.152 20.075 20.075 0 0 0 5.864 14.15 19.974 19.974 0 0 0 14.12 5.867 19.975 19.975 0 0 0 14.119-5.867 20.076 20.076 0 0 0 5.863-14.15 20.076 20.076 0 0 0-5.863-14.15 19.975 19.975 0 0 0-14.12-5.866v-.004Z"/>
    <path fill="#0F0C48" d="M46.573 57.85a17.071 17.071 0 0 1-12.069-5.015 17.158 17.158 0 0 1-5.01-12.095 17.157 17.157 0 0 1 5.01-12.095 17.071 17.071 0 0 1 12.07-5.015 17.067 17.067 0 0 1 12.069 5.014 17.154 17.154 0 0 1 5.01 12.096 17.158 17.158 0 0 1-5.011 12.095 17.072 17.072 0 0 1-12.069 5.014Zm0-33.107a15.96 15.96 0 0 0-11.285 4.688 16.04 16.04 0 0 0-4.685 11.309 16.041 16.041 0 0 0 4.686 11.307 15.96 15.96 0 0 0 11.284 4.686 15.96 15.96 0 0 0 11.284-4.686 16.04 16.04 0 0 0 4.686-11.307 16.04 16.04 0 0 0-4.685-11.31 15.96 15.96 0 0 0-11.285-4.687Z"/>
    <path fill="#0F0C48" d="M49.86 53.729a12.614 12.614 0 0 1-8.917-3.705 12.678 12.678 0 0 1-3.703-8.937 12.679 12.679 0 0 1 3.702-8.939 12.614 12.614 0 0 1 8.918-3.706 12.614 12.614 0 0 1 8.919 3.706 12.678 12.678 0 0 1 3.701 8.94 12.678 12.678 0 0 1-3.702 8.936 12.614 12.614 0 0 1-8.918 3.705Zm0-24.618a11.948 11.948 0 0 0-8.447 3.51 12.008 12.008 0 0 0-3.506 8.466 12.008 12.008 0 0 0 3.508 8.464 11.949 11.949 0 0 0 8.445 3.51 11.949 11.949 0 0 0 8.446-3.51 12.008 12.008 0 0 0 3.508-8.464 12.008 12.008 0 0 0-3.507-8.466 11.949 11.949 0 0 0-8.447-3.51Z"/>
    <g filter="url(#b)" opacity=".4">
      <path fill="#0F0C48" d="M40 68.087a25.985 25.985 0 0 1-18.372-7.631A26.115 26.115 0 0 1 14 42.045a26.118 26.118 0 0 1 7.628-18.412A25.987 25.987 0 0 1 40 16a25.987 25.987 0 0 1 18.372 7.633A26.118 26.118 0 0 1 66 42.045a26.115 26.115 0 0 1-7.628 18.41A25.985 25.985 0 0 1 40 68.088Zm0-50.082a23.986 23.986 0 0 0-16.959 7.045A24.107 24.107 0 0 0 16 42.045a24.09 24.09 0 0 0 7.038 16.998A23.97 23.97 0 0 0 40 66.082a23.97 23.97 0 0 0 16.962-7.04A24.09 24.09 0 0 0 64 42.046a24.107 24.107 0 0 0-7.041-16.995A23.986 23.986 0 0 0 40 18.005Z"/>
      <path fill="#0F0C48" d="M43.287 63.966a21.529 21.529 0 0 1-15.22-6.323 21.638 21.638 0 0 1-6.32-15.254 21.638 21.638 0 0 1 6.32-15.253 21.53 21.53 0 0 1 15.22-6.324 21.53 21.53 0 0 1 15.22 6.324 21.638 21.638 0 0 1 6.32 15.253 21.639 21.639 0 0 1-6.32 15.254 21.53 21.53 0 0 1-15.22 6.323Zm0-41.597a19.975 19.975 0 0 0-14.12 5.868 20.076 20.076 0 0 0-5.863 14.152 20.075 20.075 0 0 0 5.864 14.15 19.974 19.974 0 0 0 14.12 5.867 19.975 19.975 0 0 0 14.119-5.867 20.076 20.076 0 0 0 5.863-14.15 20.076 20.076 0 0 0-5.863-14.15 19.975 19.975 0 0 0-14.12-5.866v-.004Z"/>
      <path fill="#0F0C48" d="M46.573 59.85a17.071 17.071 0 0 1-12.069-5.015 17.158 17.158 0 0 1-5.01-12.095 17.157 17.157 0 0 1 5.01-12.095 17.071 17.071 0 0 1 12.07-5.015 17.067 17.067 0 0 1 12.069 5.014 17.154 17.154 0 0 1 5.01 12.096 17.158 17.158 0 0 1-5.011 12.095 17.072 17.072 0 0 1-12.069 5.014Zm0-33.107a15.96 15.96 0 0 0-11.285 4.688 16.04 16.04 0 0 0-4.685 11.309 16.041 16.041 0 0 0 4.686 11.307 15.96 15.96 0 0 0 11.284 4.686 15.96 15.96 0 0 0 11.284-4.686 16.04 16.04 0 0 0 4.686-11.307 16.04 16.04 0 0 0-4.685-11.31 15.96 15.96 0 0 0-11.285-4.687Z"/>
      <path fill="#0F0C48" d="M49.86 55.729a12.614 12.614 0 0 1-8.917-3.705 12.678 12.678 0 0 1-3.703-8.937 12.679 12.679 0 0 1 3.702-8.939 12.614 12.614 0 0 1 8.918-3.706 12.614 12.614 0 0 1 8.919 3.706 12.678 12.678 0 0 1 3.701 8.94 12.678 12.678 0 0 1-3.702 8.936 12.614 12.614 0 0 1-8.918 3.705Zm0-24.618a11.948 11.948 0 0 0-8.447 3.51 12.008 12.008 0 0 0-3.506 8.466 12.008 12.008 0 0 0 3.508 8.464 11.949 11.949 0 0 0 8.445 3.51 11.949 11.949 0 0 0 8.446-3.51 12.008 12.008 0 0 0 3.508-8.464 12.008 12.008 0 0 0-3.507-8.466 11.949 11.949 0 0 0-8.447-3.51Z"/>
    </g>
  </g>
  <defs>
    <clipPath id="a">
      <path fill="#fff" d="M0 0h80v80H0z"/>
    </clipPath>
    <filter id="b" width="80" height="80.087" x="0" y="2" color-interpolation-filters="sRGB" filterUnits="userSpaceOnUse">
      <feFlood flood-opacity="0" result="BackgroundImageFix"/>
      <feBlend in="SourceGraphic" in2="BackgroundImageFix" result="shape"/>
      <feGaussianBlur result="effect1_foregroundBlur_52_25589" stdDeviation="7"/>
    </filter>
  </defs>
</svg>
