<svg xmlns="http://www.w3.org/2000/svg" width="80" height="80" fill="none" viewBox="0 0 80 80">
  <g filter="url(#a)">
    <path fill="#7A55FF" fill-opacity=".7" fill-rule="evenodd" d="M21.237 23.179C20 25.429 20 28.418 20 34.396v7.2c0 5.979 0 8.968 1.237 11.218a10 10 0 0 0 3.946 3.945c2.25 1.237 5.239 1.237 11.217 1.237h7.2c5.978 0 8.968 0 11.218-1.237a10 10 0 0 0 3.945-3.945C60 50.564 60 47.574 60 41.596v-7.2c0-5.978 0-8.968-1.237-11.217a10 10 0 0 0-3.945-3.946c-2.25-1.237-5.24-1.237-11.218-1.237h-7.2c-5.978 0-8.968 0-11.217 1.237a10 10 0 0 0-3.946 3.946Zm25.527 9.754a2.662 2.662 0 0 0-4.361-3.054l-9.507 13.577a2.662 2.662 0 0 0 4.361 3.054l9.507-13.577Zm1.283-6.473a6.039 6.039 0 0 1 1.483 8.41l-9.507 13.577a6.039 6.039 0 0 1-9.893-6.928l9.507-13.576a6.039 6.039 0 0 1 8.41-1.483Z" clip-rule="evenodd"/>
  </g>
  <path fill="#000" fill-rule="evenodd" d="M21.237 25.179C20 27.429 20 30.418 20 36.396v7.2c0 5.979 0 8.968 1.237 11.218a10 10 0 0 0 3.946 3.945c2.25 1.237 5.239 1.237 11.217 1.237h7.2c5.978 0 8.968 0 11.218-1.237a10 10 0 0 0 3.945-3.945C60 52.564 60 49.574 60 43.596v-7.2c0-5.978 0-8.968-1.237-11.217a10 10 0 0 0-3.945-3.946c-2.25-1.237-5.24-1.237-11.218-1.237h-7.2c-5.978 0-8.968 0-11.217 1.237a10 10 0 0 0-3.946 3.946Zm25.527 9.754a2.662 2.662 0 0 0-4.361-3.054l-9.507 13.577a2.662 2.662 0 0 0 4.361 3.054l9.507-13.577Zm1.283-6.473a6.039 6.039 0 0 1 1.483 8.41l-9.507 13.577a6.039 6.039 0 0 1-9.893-6.928l9.507-13.576a6.039 6.039 0 0 1 8.41-1.483Z" clip-rule="evenodd"/>
  <defs>
    <filter id="a" width="68" height="68" x="6" y="3.996" color-interpolation-filters="sRGB" filterUnits="userSpaceOnUse">
      <feFlood flood-opacity="0" result="BackgroundImageFix"/>
      <feBlend in="SourceGraphic" in2="BackgroundImageFix" result="shape"/>
      <feGaussianBlur result="effect1_foregroundBlur_52_25678" stdDeviation="7"/>
    </filter>
  </defs>
</svg>
