<svg viewBox="0 0 44 44" fill="none" xmlns="http://www.w3.org/2000/svg">
<g clip-path="url(#clip0_4542_38307)">
<path d="M22 33.5502C28.3788 33.5502 33.55 28.3791 33.55 22.0002C33.55 15.6213 28.3788 10.4502 22 10.4502C15.6211 10.4502 10.45 15.6213 10.45 22.0002C10.45 28.3791 15.6211 33.5502 22 33.5502Z" fill="#FF0420"/>
<g filter="url(#filter0_f_4542_38307)">
<path d="M24.75 32.4501C31.1288 32.4501 36.3 27.279 36.3 20.9001C36.3 14.5212 31.1288 9.3501 24.75 9.3501C18.3711 9.3501 13.2 14.5212 13.2 20.9001C13.2 27.279 18.3711 32.4501 24.75 32.4501Z" fill="#FF0420" fill-opacity="0.4"/>
</g>
<path d="M18.8593 25.3972C18.5019 25.3972 18.17 25.3491 17.8637 25.2528C17.5573 25.1565 17.2992 25.0121 17.0893 24.8197C16.8794 24.6273 16.7291 24.3865 16.6383 24.0978C16.5532 23.8091 16.5419 23.4723 16.6043 23.0872C16.6497 22.8438 16.6979 22.6002 16.749 22.3568C16.8057 22.1134 16.8624 21.8671 16.9191 21.6179C17.1064 20.8536 17.4438 20.2732 17.9318 19.877C18.4197 19.4807 19.0776 19.2825 19.9059 19.2825C20.2633 19.2825 20.5923 19.3334 20.893 19.4353C21.1993 19.5317 21.4575 19.6787 21.6674 19.877C21.883 20.0752 22.0333 20.3186 22.1184 20.6073C22.209 20.8961 22.2205 21.2329 22.1524 21.6179C22.1128 21.8671 22.0644 22.1134 22.0077 22.3568C21.9567 22.6002 21.9027 22.8438 21.8461 23.0872C21.6533 23.8629 21.3129 24.4431 20.8249 24.8282C20.337 25.2074 19.6818 25.3972 18.8593 25.3972ZM18.9699 24.1742C19.2762 24.1742 19.5456 24.0837 19.7783 23.9025C20.0109 23.7212 20.1753 23.4325 20.2718 23.0362C20.3343 22.787 20.388 22.5521 20.4335 22.3313C20.4846 22.1105 20.53 21.8812 20.5697 21.6434C20.6433 21.2472 20.6093 20.9584 20.4675 20.7772C20.3258 20.5959 20.1016 20.5054 19.7953 20.5054C19.489 20.5054 19.2196 20.5959 18.9869 20.7772C18.7601 20.9584 18.5984 21.2472 18.5019 21.6434C18.4394 21.8812 18.3828 22.1105 18.3317 22.3313C18.2862 22.5521 18.241 22.787 18.1955 23.0362C18.1275 23.4325 18.1615 23.7212 18.2977 23.9025C18.4338 24.0837 18.658 24.1742 18.9699 24.1742ZM22.5006 25.3122C22.4437 25.3122 22.3985 25.2924 22.3645 25.2528C22.3304 25.2132 22.319 25.1623 22.3304 25.0999L23.5047 19.5797C23.5159 19.5174 23.5473 19.4664 23.5983 19.4268C23.6494 19.3873 23.7031 19.3674 23.76 19.3674H26.0235C26.3694 19.3674 26.6814 19.407 26.9595 19.4863C27.243 19.5656 27.4786 19.6872 27.6658 19.8515C27.853 20.0157 27.9833 20.2222 28.0572 20.4714C28.1309 20.7148 28.1338 21.0009 28.0657 21.3292C27.9237 21.9802 27.6344 22.4616 27.1978 22.7729C26.7665 23.0843 26.1851 23.24 25.4533 23.24H24.3046L23.9132 25.0999C23.9017 25.1623 23.8706 25.2132 23.8196 25.2528C23.7741 25.2924 23.7201 25.3122 23.6579 25.3122H22.5006ZM24.5258 22.0681H25.5044C25.7368 22.0681 25.944 22.0057 26.1256 21.8812C26.3128 21.7567 26.4346 21.567 26.4915 21.3122C26.5197 21.1649 26.5255 21.0349 26.5085 20.9216C26.4915 20.8082 26.4319 20.7177 26.3298 20.6498C26.2333 20.5818 26.083 20.5479 25.8788 20.5479H24.8577L24.5258 22.0681Z" fill="white"/>
</g>
<defs>
<filter id="filter0_f_4542_38307" x="-0.800049" y="-4.6499" width="51.1" height="51.1001" filterUnits="userSpaceOnUse" color-interpolation-filters="sRGB">
<feFlood flood-opacity="0" result="BackgroundImageFix"/>
<feBlend mode="normal" in="SourceGraphic" in2="BackgroundImageFix" result="shape"/>
<feGaussianBlur stdDeviation="7" result="effect1_foregroundBlur_4542_38307"/>
</filter>
<clipPath id="clip0_4542_38307">
<rect width="44" height="44" fill="white"/>
</clipPath>
</defs>
</svg>
