<svg viewBox="0 0 44 44" fill="none" xmlns="http://www.w3.org/2000/svg">
<g opacity="0.4" filter="url(#filter0_f_4232_291934)">
<path d="M9.08484 17.9735V27.6765C9.08484 28.296 9.41686 28.8688 9.95461 29.1776L18.3815 34.0301C18.9192 34.3388 19.5812 34.3388 20.119 34.0301L28.5458 29.1776C29.0836 28.8688 29.4156 28.296 29.4156 27.6765V17.9735C29.4156 17.354 29.0836 16.7812 28.5458 16.4725L20.119 11.62C19.5812 11.3112 18.9192 11.3112 18.3815 11.62L9.95258 16.4725C9.41482 16.7812 9.08484 17.354 9.08484 17.9735Z" fill="#213147"/>
<path d="M21.0885 24.7069L19.8867 27.9933C19.8542 28.0847 19.8542 28.1843 19.8867 28.2757L21.9542 33.9305L24.3456 32.5533L21.4756 24.7069C21.4104 24.5261 21.1537 24.5261 21.0885 24.7069Z" fill="#12AAFF"/>
<path d="M23.4983 19.18C23.4331 18.9992 23.1764 18.9992 23.1112 19.18L21.9095 22.4665C21.8769 22.5579 21.8769 22.6574 21.9095 22.7488L25.2969 32.007L27.6883 30.6298L23.4983 19.18Z" fill="#12AAFF"/>
<path d="M19.2491 11.9835C19.3082 11.9835 19.3673 11.9997 19.4202 12.0282L28.5396 17.2788C28.6456 17.3397 28.7107 17.4535 28.7107 17.5733V28.0725C28.7107 28.1944 28.6456 28.3061 28.5396 28.367L19.4202 33.6177C19.3693 33.6481 19.3082 33.6623 19.2491 33.6623C19.1901 33.6623 19.131 33.6461 19.078 33.6177L9.95863 28.3711C9.85271 28.3102 9.78753 28.1964 9.78753 28.0766V17.5754C9.78753 17.4535 9.85271 17.3418 9.95863 17.2808L19.078 12.0302C19.131 11.9997 19.1901 11.9835 19.2491 11.9835ZM19.2491 10.45C18.9253 10.45 18.5993 10.5332 18.3081 10.7018L9.1907 15.9504C8.60814 16.2855 8.24963 16.9051 8.24963 17.5754V28.0746C8.24963 28.7448 8.60814 29.3644 9.1907 29.6995L18.3101 34.9501C18.6014 35.1167 18.9253 35.202 19.2512 35.202C19.575 35.202 19.901 35.1187 20.1922 34.9501L29.3116 29.6995C29.8942 29.3644 30.2527 28.7448 30.2527 28.0746V17.5754C30.2527 16.9051 29.8942 16.2855 29.3116 15.9504L20.1902 10.7018C19.8989 10.5332 19.573 10.45 19.2491 10.45Z" fill="#9DCCED"/>
<path d="M13.2178 32.0192L14.057 29.728L15.7456 31.1275L14.167 32.5656L13.2178 32.0192Z" fill="#213147"/>
<path d="M18.4813 16.8237H16.1693C15.9962 16.8237 15.8414 16.9314 15.7823 17.0939L10.8264 30.6419L13.2178 32.019L18.6748 17.1C18.7257 16.9659 18.6259 16.8237 18.4813 16.8237Z" fill="#12AAFF"/>
<path d="M22.5266 16.8237H20.2147C20.0416 16.8237 19.8868 16.9314 19.8277 17.0939L14.1691 32.5634L16.5604 33.9405L22.7202 17.1C22.769 16.9659 22.6692 16.8237 22.5266 16.8237Z" fill="#12AAFF"/>
</g>
<path d="M11.8347 16.8737V26.5767C11.8347 27.1962 12.1667 27.769 12.7045 28.0777L21.1313 32.9302C21.6691 33.2389 22.3311 33.2389 22.8688 32.9302L31.2957 28.0777C31.8334 27.769 32.1655 27.1962 32.1655 26.5767V16.8737C32.1655 16.2542 31.8334 15.6814 31.2957 15.3726L22.8688 10.5201C22.3311 10.2114 21.6691 10.2114 21.1313 10.5201L12.7025 15.3726C12.1647 15.6814 11.8347 16.2542 11.8347 16.8737Z" fill="#213147"/>
<path d="M23.8384 23.607L22.6366 26.8935C22.604 26.9849 22.604 27.0844 22.6366 27.1758L24.7041 32.8306L27.0955 31.4535L24.2254 23.607C24.1603 23.4262 23.9036 23.4262 23.8384 23.607Z" fill="#12AAFF"/>
<path d="M26.2481 18.0802C26.183 17.8994 25.9263 17.8994 25.8611 18.0802L24.6593 21.3666C24.6267 21.458 24.6267 21.5576 24.6593 21.649L28.0468 30.9071L30.4381 29.53L26.2481 18.0802Z" fill="#12AAFF"/>
<path d="M21.999 10.8836C22.0581 10.8836 22.1172 10.8999 22.1701 10.9283L31.2895 16.1789C31.3954 16.2399 31.4606 16.3536 31.4606 16.4735V26.9727C31.4606 27.0945 31.3954 27.2063 31.2895 27.2672L22.1701 32.5178C22.1192 32.5483 22.0581 32.5625 21.999 32.5625C21.9399 32.5625 21.8809 32.5462 21.8279 32.5178L12.7085 27.2712C12.6026 27.2103 12.5374 27.0966 12.5374 26.9767V16.4755C12.5374 16.3536 12.6026 16.2419 12.7085 16.181L21.8279 10.9304C21.8809 10.8999 21.9399 10.8836 21.999 10.8836ZM21.999 9.3501C21.6751 9.3501 21.3492 9.43338 21.0579 9.60196L11.9406 14.8505C11.358 15.1857 10.9995 15.8052 10.9995 16.4755V26.9747C10.9995 27.645 11.358 28.2645 11.9406 28.5996L21.06 33.8503C21.3513 34.0168 21.6751 34.1021 22.001 34.1021C22.3249 34.1021 22.6508 34.0188 22.9421 33.8503L32.0615 28.5996C32.6441 28.2645 33.0026 27.645 33.0026 26.9747V16.4755C33.0026 15.8052 32.6441 15.1857 32.0615 14.8505L22.9401 9.60196C22.6488 9.43338 22.3229 9.3501 21.999 9.3501Z" fill="#9DCCED"/>
<path d="M15.9677 30.9194L16.8069 28.6282L18.4955 30.0277L16.9169 31.4657L15.9677 30.9194Z" fill="#213147"/>
<path d="M21.2311 15.7239H18.9192C18.7461 15.7239 18.5912 15.8315 18.5322 15.994L13.5763 29.542L15.9677 30.9192L21.4246 16.0001C21.4756 15.8661 21.3758 15.7239 21.2311 15.7239Z" fill="white"/>
<path d="M25.2765 15.7239H22.9646C22.7915 15.7239 22.6366 15.8315 22.5776 15.994L16.9189 31.4635L19.3103 32.8407L25.47 16.0001C25.5189 15.8661 25.4191 15.7239 25.2765 15.7239Z" fill="white"/>
<defs>
<filter id="filter0_f_4232_291934" x="0.249634" y="2.44995" width="38.0031" height="40.752" filterUnits="userSpaceOnUse" color-interpolation-filters="sRGB">
<feFlood flood-opacity="0" result="BackgroundImageFix"/>
<feBlend mode="normal" in="SourceGraphic" in2="BackgroundImageFix" result="shape"/>
<feGaussianBlur stdDeviation="4" result="effect1_foregroundBlur_4232_291934"/>
</filter>
</defs>
</svg>
