<svg xmlns="http://www.w3.org/2000/svg" width="200" height="84" fill="none" viewBox="0 0 200 84">
  <path fill="#000" d="M114.219 29.98h-.857v23.831h.857v-23.83Zm44.233 16.146h-1.489v6.885h1.489v-6.885Zm0-2.641h-1.489v1.489h1.489v-1.49Zm-28.524 2.402c-2.023 0-3.597 1.63-3.597 3.71a3.715 3.715 0 0 0 3.71 3.709c1.152 0 2.22-.52 2.922-1.42l-1.321-.716a2.218 2.218 0 0 1-1.601.674 2.235 2.235 0 0 1-2.094-1.447l-.028-.056h5.606v-.73c0-2.094-1.574-3.724-3.597-3.724Zm-2.023 2.978.014-.056a2.078 2.078 0 0 1 1.995-1.447c.913 0 1.7.562 1.995 1.447l.014.056h-4.018Zm-5.396.029c-1.335-.211-1.587-.506-1.587-.928 0-.52.449-.829 1.208-.829.717 0 1.208.337 1.377.97h1.546c-.169-1.405-1.209-2.22-2.923-2.22-1.644 0-2.782.885-2.782 2.136 0 1.208.745 1.826 2.571 2.135 1.405.267 1.672.52 1.672.998 0 .548-.506.885-1.335.885-.618 0-1.377-.168-1.615-1.124h-1.518c.169 1.503 1.279 2.375 3.119 2.375 1.757 0 2.951-.928 2.951-2.29-.014-1.181-.801-1.827-2.684-2.108Zm25.474.97c0 1.124-.786 1.91-1.925 1.91-1.138 0-1.924-.786-1.924-1.91v-3.71h-1.546v3.71c0 .969.351 1.882 1.026 2.5.646.619 1.517.956 2.444.956.928 0 1.813-.337 2.445-.955.661-.619 1.026-1.518 1.026-2.502v-3.709h-1.546v3.71Zm-9.582-2.502c.688 0 1.335.31 1.756.857l1.335-.66a3.692 3.692 0 0 0-3.091-1.658 3.706 3.706 0 0 0-3.71 3.71 3.715 3.715 0 0 0 3.71 3.71c1.25 0 2.403-.62 3.091-1.659l-1.335-.66a2.202 2.202 0 0 1-1.756.857 2.242 2.242 0 0 1-2.234-2.248 2.225 2.225 0 0 1 2.234-2.249Zm23.704-3.021h-1.545v5.508c0 .97.351 1.883 1.025 2.501.141.14.281.267.45.352.576.38 1.265.59 1.995.59h.632v-1.546h-.632c-1.138 0-1.925-.787-1.925-1.91v-2.207h2.557v-1.475h-2.557V44.34Zm-9.147 1.799h-1.546v6.899h1.546v-2.923a2.513 2.513 0 0 1 2.515-2.515v-1.546c-.956 0-1.827.352-2.515.9v-.815Zm17.648.042-1.279 5.368h-.238c-.155 0-.31-.155-.366-.337l-1.278-5.044h-1.602l1.391 5.437c.225.83.941 1.405 1.742 1.462l-.646 2.725h1.503l.647-2.697h.014v-.057l1.644-6.857h-1.532Zm-36.884-11.606a3.715 3.715 0 0 0-3.709 3.71 3.724 3.724 0 0 0 3.709 3.71 3.715 3.715 0 0 0 3.71-3.71 3.724 3.724 0 0 0-3.71-3.71Zm0 5.888a2.18 2.18 0 0 1-2.178-2.178 2.17 2.17 0 0 1 2.178-2.178 2.18 2.18 0 0 1 2.178 2.178 2.18 2.18 0 0 1-2.178 2.178Zm53.886-4.96c-.632-.604-1.503-.942-2.445-.942a3.67 3.67 0 0 0-1.939.548v-.267h-1.545v6.899h1.545v-3.737c0-1.124.801-1.897 1.939-1.897s1.939.787 1.939 1.897v3.71h1.546v-3.71c0-.984-.365-1.869-1.04-2.501Zm-23.522-.928a3.67 3.67 0 0 0-1.939.548v-3.021h-1.545v9.639h1.545v-3.723c0-1.125.801-1.897 1.939-1.897s1.939.786 1.939 1.897v3.709h1.546v-3.71c0-.983-.365-1.868-1.04-2.5-.632-.619-1.503-.942-2.445-.942Zm-41.268 0c-.815 0-1.559.267-2.178.703v-3.176h-1.545v9.625h1.545v-.436a3.765 3.765 0 0 0 2.178.703 3.715 3.715 0 0 0 3.71-3.71 3.715 3.715 0 0 0-3.71-3.709Zm0 5.887a2.18 2.18 0 0 1-2.178-2.178 2.17 2.17 0 0 1 2.178-2.177 2.17 2.17 0 0 1 2.178 2.178 2.17 2.17 0 0 1-2.178 2.177Zm51.947-5.128-.07-.056a3.654 3.654 0 0 0-2.164-.703 3.715 3.715 0 0 0-3.71 3.71 3.724 3.724 0 0 0 3.71 3.71c.787 0 1.531-.24 2.164-.703l.07-.057v.478h1.475v-6.87h-1.475v.49Zm-2.234 5.199a2.254 2.254 0 0 1-2.248-2.248 2.254 2.254 0 0 1 2.248-2.248 2.243 2.243 0 0 1 2.234 2.248 2.252 2.252 0 0 1-2.234 2.248Zm-30.716-4.496c.688 0 1.335.309 1.756.857l1.335-.66a3.691 3.691 0 0 0-3.091-1.659 3.706 3.706 0 0 0-3.71 3.71 3.716 3.716 0 0 0 3.71 3.71c1.25 0 2.403-.62 3.091-1.659l-1.335-.66a2.202 2.202 0 0 1-1.756.857 2.254 2.254 0 0 1-2.248-2.248c.014-1.237 1.011-2.248 2.248-2.248Zm14.431 0c.688 0 1.334.309 1.756.857l1.335-.66a3.693 3.693 0 0 0-3.091-1.659 3.706 3.706 0 0 0-3.71 3.71 3.715 3.715 0 0 0 3.71 3.71c1.25 0 2.402-.62 3.091-1.659l-1.335-.66a2.204 2.204 0 0 1-1.756.857c-1.237 0-2.235-1.012-2.249-2.248a2.255 2.255 0 0 1 2.249-2.248Zm-3.766-1.181h-1.911l-2.206 2.642h-.857v-5.396h-1.476v9.625h1.476v-2.642h.857l2.206 2.642h1.911l-2.853-3.428 2.853-3.443Zm-23.424-2.754h-1.49v9.625h1.49v-9.625Zm50.766 2.74h-1.489v6.885h1.489v-6.885Zm0-2.641h-1.489v1.49h1.489v-1.49Zm-70.563 11.423c0-5.255-3.99-9.372-9.091-9.372-5.1 0-9.09 4.117-9.09 9.372 0 5.17 4.2 9.372 9.371 9.372a9.28 9.28 0 0 0 7.377-3.597l-3.33-1.827a5.597 5.597 0 0 1-4.047 1.7 5.705 5.705 0 0 1-5.297-3.653l-.056-.155h14.163v-1.84ZM95.054 41.77l.056-.155c.758-2.22 2.74-3.653 5.058-3.653 2.319 0 4.3 1.433 5.059 3.653l.056.155h-10.23Zm-6.815 1.855c0-5.255-3.99-9.372-9.091-9.372-5.1 0-9.091 4.117-9.091 9.372 0 5.17 4.2 9.372 9.372 9.372a9.279 9.279 0 0 0 7.376-3.597l-3.33-1.827a5.596 5.596 0 0 1-4.046 1.7 5.705 5.705 0 0 1-5.298-3.653l-.056-.155H88.24v-1.84ZM74.033 41.77l.056-.155c.759-2.22 2.74-3.653 5.059-3.653 2.318 0 4.3 1.433 5.058 3.653l.056.155H74.033ZM42.291 52.997c-5.17 0-9.372-4.202-9.372-9.372 0-5.171 4.201-9.372 9.372-9.372a9.366 9.366 0 0 1 7.812 4.187l-3.372 1.672a5.64 5.64 0 0 0-4.44-2.15 5.673 5.673 0 0 0-5.663 5.663 5.673 5.673 0 0 0 5.663 5.662 5.64 5.64 0 0 0 4.44-2.15l3.372 1.673a9.382 9.382 0 0 1-7.812 4.187ZM26.035 34.941v1.209l-.183-.127a9.244 9.244 0 0 0-5.48-1.77c-5.17 0-9.372 4.2-9.372 9.372 0 5.17 4.201 9.372 9.372 9.372a9.34 9.34 0 0 0 5.48-1.77l.183-.127v1.208h3.71V34.941h-3.71Zm-5.663 14.332a5.673 5.673 0 0 1-5.662-5.662 5.673 5.673 0 0 1 5.662-5.663c3.12 0 5.663 2.557 5.663 5.677 0 3.12-2.544 5.648-5.663 5.648Zm44.036 3.036-5.564-6.689h-2.192v6.689h-3.71V28h3.71v13.616h2.192l5.55-6.675h4.834l-7.223 8.684 7.237 8.684h-4.834Z"/>
</svg>
