<svg width="200" height="84" viewBox="0 0 200 84" fill="none" xmlns="http://www.w3.org/2000/svg">
<g transform="scale(1.333333)">
<path d="M39.2627 40.6934L32.5391 45L25.8169 40.6934L32.5391 36.3882L39.2627 40.6934Z" fill="black"/>
<path fill-rule="evenodd" clip-rule="evenodd" d="M74.2043 34.0898C74.71 34.0899 75.194 34.1999 75.6575 34.4194C76.1201 34.6387 76.4965 34.9442 76.7861 35.3364V34.2473H78.3022V41.2236C78.3022 41.7855 78.2022 42.2975 78.0005 42.761C77.8 43.2232 77.5247 43.6221 77.1736 43.9541C76.8236 44.2861 76.4105 44.5442 75.938 44.7268C75.4642 44.9093 74.9572 45 74.4146 45C73.4977 45 72.7415 44.8635 72.1477 44.5928C71.5526 44.322 71.0494 43.9282 70.6382 43.4136L71.8591 42.4175C72.158 42.8287 72.4993 43.1319 72.8838 43.3235C73.2668 43.5149 73.7673 43.6106 74.3853 43.6106C74.7504 43.6106 75.0799 43.5544 75.3748 43.4421C75.6697 43.3298 75.9228 43.1702 76.1335 42.9646C76.3442 42.7591 76.5082 42.5125 76.6257 42.2278C76.7419 41.9418 76.8 41.6261 76.8 41.28V40.6897C76.5102 41.0919 76.1313 41.4089 75.6641 41.6375C75.1966 41.8661 74.6852 41.981 74.1897 41.981C73.6944 41.9809 73.2169 41.8881 72.7585 41.7004C72.3001 41.5127 71.8953 41.2453 71.5442 40.8992C71.193 40.5531 70.9119 40.1369 70.7012 39.6504C70.4904 39.1638 70.3855 38.6351 70.3855 38.0361C70.3855 37.4372 70.4889 36.8966 70.6946 36.4138C70.9001 35.9326 71.1785 35.5176 71.5295 35.1716C71.8794 34.8256 72.287 34.5589 72.7505 34.3711C73.2141 34.1834 73.6986 34.0898 74.2043 34.0898ZM74.3867 35.4653C74.0304 35.4653 73.7012 35.5308 73.3972 35.6624C73.0933 35.7938 72.8288 35.9736 72.604 36.2021C72.3793 36.432 72.2038 36.7038 72.0774 37.0166C71.9509 37.3308 71.8884 37.6644 71.8884 38.0208C71.8884 38.3771 71.9509 38.712 72.0774 39.0249C72.2038 39.339 72.3793 39.6123 72.604 39.8459C72.8287 40.0808 73.0933 40.2623 73.3972 40.3938C73.7011 40.5252 74.0318 40.5901 74.3867 40.5901C74.7416 40.5901 75.0724 40.5225 75.3762 40.3872C75.6814 40.2519 75.9433 40.0692 76.1628 39.8394C76.3824 39.6096 76.5564 39.3389 76.6829 39.0249C76.8093 38.712 76.8718 38.3669 76.8718 38.0208C76.8718 37.6748 76.8093 37.3453 76.6829 37.0312C76.5564 36.7171 76.3825 36.4459 76.1628 36.2161C75.942 35.9863 75.6801 35.8035 75.3762 35.6682C75.0724 35.5329 74.7429 35.4653 74.3867 35.4653Z" fill="black"/>
<path fill-rule="evenodd" clip-rule="evenodd" d="M65.7244 41.8242H64.2368V40.7153C63.9367 41.1086 63.5563 41.4178 63.0928 41.6426C62.6292 41.8674 62.1344 41.9795 61.6389 41.9795C61.1436 41.9795 60.6661 41.8866 60.2078 41.699C59.7493 41.5112 59.3439 41.2438 58.9927 40.8977C58.6417 40.5516 58.3611 40.1353 58.1504 39.6489C57.9397 39.1623 57.8347 38.6336 57.8347 38.0347C57.8347 37.4358 57.9382 36.8957 58.1438 36.4131C58.3494 35.9316 58.6276 35.5162 58.9788 35.1702C59.3287 34.8241 59.7362 34.5574 60.1997 34.3696C60.6632 34.1819 61.1472 34.0884 61.6528 34.0884C62.1586 34.0884 62.6431 34.1968 63.1067 34.4114C63.5703 34.6272 63.9469 34.9227 64.2368 35.2969V31.4004L65.7244 30.7617V41.8242ZM61.7722 35.4653C61.4159 35.4653 61.086 35.5301 60.782 35.6616C60.4782 35.7931 60.2142 35.9736 59.9895 36.2021C59.7648 36.432 59.5893 36.7038 59.4629 37.0166C59.3364 37.3308 59.2739 37.6644 59.2739 38.0208C59.2739 38.3771 59.3364 38.712 59.4629 39.0249C59.5893 39.339 59.7648 39.6123 59.9895 39.8459C60.2142 40.0808 60.4783 40.2623 60.782 40.3938C61.086 40.5253 61.4172 40.5901 61.7722 40.5901C62.1272 40.5901 62.4578 40.5225 62.7617 40.3872C63.0669 40.2518 63.3287 40.0692 63.5483 39.8394C63.768 39.6095 63.9419 39.339 64.0684 39.0249C64.1948 38.712 64.2573 38.3669 64.2573 38.0208C64.2573 37.6747 64.1947 37.3453 64.0684 37.0312C63.9419 36.7171 63.768 36.446 63.5483 36.2161C63.3274 35.9862 63.0656 35.8035 62.7617 35.6682C62.4578 35.5329 62.1284 35.4654 61.7722 35.4653Z" fill="black"/>
<path fill-rule="evenodd" clip-rule="evenodd" d="M92.635 34.0884C93.178 34.0884 93.6621 34.1596 94.0889 34.3052C94.514 34.4508 94.8724 34.6565 95.1626 34.9233L95.1597 34.9248C95.4499 35.1917 95.6703 35.5123 95.8203 35.8865C95.9695 36.2606 96.0444 36.6769 96.0444 37.1353V41.825H94.5854V40.4919C94.2869 40.9401 93.8741 41.3015 93.3499 41.5723C92.8264 41.8442 92.2448 41.9795 91.6089 41.9795C91.1689 41.9795 90.7835 41.9233 90.4517 41.811C90.1196 41.6987 89.8407 41.5426 89.616 41.3408C89.3913 41.1391 89.2215 40.9003 89.104 40.6245C88.9878 40.3487 88.929 40.0511 88.929 39.7332C88.929 38.9466 89.2303 38.3311 89.8342 37.8867C90.4383 37.4423 91.2741 37.2195 92.3398 37.2195H94.5869V37.0935C94.5869 36.5891 94.4266 36.1766 94.1086 35.8586C93.7907 35.5407 93.2953 35.3811 92.6211 35.3811C92.1164 35.3811 91.6812 35.4903 91.3159 35.71C90.9505 35.9296 90.6609 36.2278 90.4451 36.6021L89.0974 35.8147C89.4716 35.3193 89.9518 34.9081 90.5366 34.5798C91.1202 34.2517 91.8199 34.0884 92.635 34.0884ZM92.4387 38.4243C91.736 38.4243 91.2332 38.5279 90.9292 38.7334C90.6252 38.9403 90.4729 39.2301 90.4729 39.6042C90.4729 39.9324 90.5908 40.1905 90.8245 40.377C91.0582 40.5645 91.4273 40.6575 91.9326 40.6575C92.2047 40.6575 92.4715 40.6206 92.7332 40.5454C92.9949 40.4713 93.244 40.3651 93.478 40.2297C93.7113 40.0944 93.9254 39.9283 94.1167 39.7317C94.3078 39.5351 94.4655 39.3106 94.5869 39.0579V38.4243H92.4387Z" fill="black"/>
<path d="M85.7466 34.2437H87.8662V35.6052H85.7466V39.3391C85.7466 39.7605 85.8372 40.0647 86.0198 40.2524C86.2024 40.4401 86.4427 40.533 86.7427 40.533V40.5344C87.0338 40.5344 87.2906 40.4359 87.5154 40.2393L88.2317 41.5027C88.0159 41.652 87.7757 41.767 87.5088 41.8462C87.2419 41.9254 86.9493 41.9648 86.6313 41.9648C85.8728 41.9648 85.2877 41.7629 84.8765 41.3606C84.4641 40.9583 84.259 40.2889 84.259 39.353V35.6052H82.7568V34.2437H84.259V32.2705L85.7466 31.6318V34.2437Z" fill="black"/>
<path d="M68.9551 41.8242H67.425V34.2437H68.9551V41.8242Z" fill="black"/>
<path d="M81.5322 41.8242H80.0022V34.2437H81.5322V41.8242Z" fill="black"/>
<path d="M99.2766 41.8242H97.7466V31.418L99.2766 30.7617V41.8242Z" fill="black"/>
<path d="M29.6899 34.5645L22.9678 38.8696L16.2441 34.5645L22.9678 30.2593L29.6899 34.5645Z" fill="black"/>
<path d="M48.8347 34.5645L42.1111 38.8696L35.3889 34.5645L42.1111 30.2593L48.8347 34.5645Z" fill="black"/>
<path d="M68.1853 31.0225C68.4702 31.0225 68.7025 31.1147 68.8826 31.2986C69.0613 31.4838 69.1521 31.7121 69.1521 31.9893C69.1521 32.2664 69.0626 32.496 68.8826 32.6799C68.7025 32.8638 68.4701 32.9561 68.1853 32.9561C67.9006 32.956 67.6708 32.8638 67.4946 32.6799C67.3184 32.4961 67.2302 32.2663 67.2302 31.9893C67.2302 31.7122 67.3198 31.4825 67.4998 31.2986C67.6798 31.1147 67.9095 31.0225 68.1853 31.0225Z" fill="black"/>
<path d="M80.7896 31.0225C81.0744 31.0225 81.3067 31.1147 81.4868 31.2986C81.6656 31.4838 81.7563 31.7122 81.7563 31.9893C81.7563 32.2664 81.6669 32.496 81.4868 32.6799C81.3067 32.8638 81.0744 32.9561 80.7896 32.9561C80.5048 32.956 80.2751 32.8638 80.0989 32.6799C79.9227 32.496 79.8345 32.2663 79.8345 31.9893C79.8345 31.7122 79.924 31.4825 80.104 31.2986C80.284 31.1147 80.5137 31.0225 80.7896 31.0225Z" fill="black"/>
<path fill-rule="evenodd" clip-rule="evenodd" d="M120.362 21.3281C120.868 21.3281 121.353 21.4381 121.816 21.6577C122.28 21.8774 122.656 22.1837 122.946 22.5769V21.4812H124.462V28.4634C124.462 29.0251 124.362 29.5372 124.161 30.0007C123.959 30.463 123.683 30.8617 123.332 31.1938C122.981 31.5258 122.569 31.784 122.097 31.9666C121.623 32.1492 121.116 32.2397 120.573 32.2397C119.656 32.2397 118.9 32.1033 118.306 31.8325C117.711 31.5618 117.208 31.1679 116.797 30.6533L118.018 29.6558C118.316 30.067 118.658 30.3702 119.042 30.5618C119.425 30.7533 119.926 30.8489 120.544 30.8489C120.909 30.8489 121.239 30.7928 121.533 30.6804C121.829 30.5681 122.082 30.4084 122.292 30.2029C122.503 29.9973 122.667 29.7508 122.784 29.4661C122.9 29.1801 122.959 28.8644 122.959 28.5183V27.928C122.669 28.3303 122.29 28.6459 121.822 28.8757C121.355 29.1043 120.844 29.2192 120.348 29.2192C119.853 29.2192 119.376 29.1257 118.917 28.938C118.458 28.7503 118.053 28.4835 117.702 28.1375C117.351 27.7913 117.07 27.3751 116.859 26.8887C116.648 26.4021 116.544 25.8733 116.544 25.2744C116.544 24.6755 116.648 24.1348 116.853 23.6521C117.059 23.1708 117.337 22.7559 117.688 22.4099C118.038 22.0639 118.446 21.7971 118.909 21.6094C119.373 21.4217 119.857 21.3281 120.362 21.3281ZM120.545 22.7036C120.188 22.7036 119.859 22.7684 119.555 22.8999C119.251 23.0314 118.987 23.2119 118.762 23.4404C118.538 23.6702 118.362 23.9421 118.236 24.2549C118.109 24.5691 118.047 24.9027 118.047 25.259C118.047 25.6154 118.109 25.9503 118.236 26.2632C118.362 26.5772 118.538 26.8506 118.762 27.0842C118.987 27.3191 119.252 27.5006 119.555 27.6321C119.859 27.7636 120.19 27.8284 120.545 27.8284C120.9 27.8284 121.231 27.7609 121.535 27.6255C121.84 27.4901 122.102 27.3075 122.322 27.0776C122.541 26.8478 122.716 26.5773 122.842 26.2632C122.968 25.9503 123.031 25.6052 123.031 25.259C123.031 24.9131 122.968 24.5836 122.842 24.2695C122.716 23.9554 122.541 23.6842 122.322 23.4543C122.101 23.2245 121.839 23.0419 121.535 22.9065C121.231 22.7711 120.902 22.7036 120.545 22.7036Z" fill="black"/>
<path fill-rule="evenodd" clip-rule="evenodd" d="M62.3113 21.3281C62.8539 21.3281 63.338 21.3994 63.7644 21.5449C64.1896 21.6905 64.5483 21.8963 64.8381 22.1631C65.128 22.43 65.3494 22.7506 65.4988 23.1248C65.6483 23.4989 65.7236 23.9158 65.7236 24.3743V29.0632H64.2639V27.7302C63.9651 28.1785 63.552 28.5398 63.0283 28.8105C62.5048 29.0824 61.924 29.2178 61.2881 29.2178C60.8475 29.2178 60.4614 29.1617 60.1294 29.0493C59.7975 28.9369 59.5191 28.7809 59.2944 28.5791C59.0698 28.3774 58.8999 28.1386 58.7825 27.8628C58.6663 27.587 58.6074 27.2894 58.6074 26.9714C58.6075 26.1849 58.9087 25.5694 59.5127 25.125C60.1167 24.6806 60.952 24.4585 62.0183 24.4585L62.0161 24.4592H64.2625V24.3333C64.2625 23.8289 64.1028 23.4164 63.7849 23.0984C63.4669 22.7804 62.971 22.6208 62.2966 22.6208C61.7923 22.6209 61.3566 22.7301 60.9915 22.9497C60.6262 23.1694 60.3364 23.4676 60.1206 23.8418L58.7737 23.0544C59.1479 22.5591 59.6281 22.1477 60.2129 21.8196C60.7965 21.4915 61.4966 21.3281 62.3113 21.3281ZM62.1172 25.6641C61.4148 25.6641 60.9109 25.7675 60.6069 25.9731C60.3033 26.18 60.1514 26.4699 60.1514 26.844C60.1514 27.1722 60.2692 27.4303 60.5029 27.6167C60.7366 27.8043 61.1056 27.8972 61.6111 27.8972C61.883 27.8972 62.1499 27.8605 62.4116 27.7852C62.6747 27.7111 62.9228 27.6049 63.1565 27.4695C63.3901 27.3341 63.6037 27.1681 63.7952 26.9714C63.9866 26.7749 64.1434 26.5502 64.2646 26.2976V25.6641H62.1172Z" fill="black"/>
<path fill-rule="evenodd" clip-rule="evenodd" d="M97.2266 21.3267C97.7687 21.3267 98.281 21.4302 98.7639 21.6357C99.2469 21.8426 99.6645 22.1237 100.021 22.4788C100.377 22.835 100.658 23.2542 100.864 23.7356C101.069 24.2182 101.173 24.7214 101.173 25.2729C101.173 25.8246 101.069 26.3393 100.864 26.8169C100.657 27.2932 100.376 27.7107 100.021 28.0657C99.6645 28.4219 99.2454 28.7031 98.7639 28.9087C98.281 29.1143 97.7777 29.2178 97.2266 29.2178C96.6747 29.2178 96.1603 29.1143 95.6826 28.9087C95.2064 28.7018 94.7886 28.4219 94.4338 28.0657C94.0776 27.7107 93.7963 27.2945 93.5908 26.8169C93.3853 26.3393 93.2817 25.8157 93.2817 25.2729C93.2817 24.7303 93.3854 24.2183 93.5908 23.7356C93.7978 23.2529 94.0776 22.8351 94.4338 22.4788C94.7886 22.1224 95.2049 21.8414 95.6826 21.6357C96.1603 21.4302 96.6837 21.3267 97.2266 21.3267ZM97.2266 22.7468C96.8801 22.7468 96.5596 22.8116 96.2649 22.9431C95.9695 23.0746 95.7119 23.2551 95.4922 23.4836C95.2724 23.7135 95.101 23.9817 94.9802 24.2908C94.8587 24.5985 94.7979 24.9167 94.7979 25.2729C94.7979 25.6291 94.8588 25.9586 94.9802 26.2625C95.101 26.5677 95.2724 26.8338 95.4922 27.0637C95.7118 27.2921 95.9696 27.472 96.2649 27.6035C96.5596 27.735 96.8801 27.8005 97.2266 27.8005C97.5723 27.8005 97.8935 27.735 98.1882 27.6035C98.4829 27.4733 98.7412 27.2936 98.9609 27.0637C99.1807 26.8338 99.3542 26.5664 99.4802 26.2625H99.4788C99.6055 25.9586 99.6677 25.619 99.6677 25.2729C99.6677 24.9269 99.6055 24.5998 99.4788 24.2908C99.3528 23.9818 99.1792 23.7135 98.9595 23.4836C98.7405 23.255 98.4809 23.0747 98.1809 22.9431C97.8817 22.8116 97.5723 22.7468 97.2266 22.7468Z" fill="black"/>
<path fill-rule="evenodd" clip-rule="evenodd" d="M111.699 21.3267C112.242 21.3267 112.726 21.3979 113.152 21.5435C113.578 21.689 113.937 21.8947 114.227 22.1616L114.222 22.1631C114.512 22.43 114.734 22.7506 114.883 23.1248C115.032 23.4989 115.108 23.9152 115.108 24.3735V29.0632H113.648V27.7302C113.349 28.1784 112.936 28.5398 112.413 28.8105C111.889 29.0824 111.308 29.2177 110.672 29.2178C110.232 29.2178 109.846 29.1617 109.514 29.0493C109.182 28.937 108.904 28.7809 108.679 28.5791C108.454 28.3773 108.284 28.1386 108.167 27.8628C108.05 27.5869 107.992 27.2894 107.992 26.9714C107.992 26.1848 108.293 25.5694 108.897 25.125C109.5 24.6806 110.336 24.4578 111.403 24.4578H113.649V24.3318C113.649 23.8274 113.489 23.4149 113.171 23.0969C112.853 22.7789 112.358 22.6194 111.684 22.6194C111.179 22.6194 110.743 22.7286 110.378 22.9482C110.014 23.1679 109.724 23.4662 109.509 23.8403L108.161 23.053C108.535 22.5575 109.015 22.1463 109.6 21.8181C110.184 21.4899 110.885 21.3267 111.699 21.3267ZM111.502 25.6626C110.8 25.6626 110.296 25.7661 109.993 25.9717C109.689 26.1785 109.536 26.4684 109.536 26.8425C109.536 27.1707 109.655 27.4288 109.888 27.6152C110.122 27.8028 110.491 27.8957 110.997 27.8958C111.268 27.8958 111.536 27.859 111.797 27.7837C112.059 27.7096 112.308 27.6034 112.542 27.468C112.775 27.3327 112.989 27.1665 113.18 26.97C113.372 26.7733 113.529 26.5489 113.65 26.2961V25.6626H111.502Z" fill="black"/>
<path fill-rule="evenodd" clip-rule="evenodd" d="M129.865 21.3267C130.427 21.3267 130.945 21.4222 131.417 21.6138C131.89 21.8053 132.299 22.0749 132.646 22.4209C132.992 22.767 133.264 23.1774 133.46 23.6499C133.657 24.1223 133.755 24.6394 133.755 25.2012V25.8333H127.382C127.494 26.4513 127.775 26.9459 128.225 27.3149C128.674 27.6839 129.248 27.8694 129.951 27.8694C130.485 27.8694 130.932 27.7565 131.292 27.5317C131.652 27.3083 131.945 27.0136 132.17 26.6484L133.418 27.3926C133.053 27.9456 132.591 28.3877 132.028 28.7197C131.467 29.0517 130.775 29.2178 129.951 29.2178C129.342 29.2178 128.792 29.1173 128.301 28.9167C127.809 28.715 127.385 28.4389 127.03 28.0876C126.674 27.7365 126.4 27.3223 126.209 26.8447C126.017 26.3672 125.922 25.8626 125.922 25.3008C125.922 24.739 126.021 24.2182 126.223 23.7356C126.424 23.2529 126.702 22.835 127.058 22.4788C127.413 22.1225 127.83 21.8413 128.307 21.6357C128.784 21.4301 129.304 21.3267 129.865 21.3267ZM129.866 22.6597C129.259 22.6597 128.739 22.8351 128.308 23.1863C127.877 23.5375 127.587 23.9897 127.438 24.5413H132.226C132.114 23.9423 131.848 23.4801 131.432 23.1519C131.014 22.8237 130.474 22.6597 129.866 22.6597Z" fill="black"/>
<path d="M79.8491 21.3267C80.2706 21.3267 80.6653 21.3827 81.0356 21.4951C81.4047 21.6075 81.7447 21.7671 82.0537 21.9727C82.3627 22.1782 82.636 22.4248 82.8748 22.7095C83.1136 22.9955 83.3026 23.3062 83.4431 23.6433L82.0815 24.2336C81.8849 23.7662 81.5923 23.4005 81.2041 23.1387C80.8159 22.8769 80.3638 22.7454 79.8491 22.7454C79.4929 22.7454 79.1656 22.8108 78.8655 22.9424C78.5656 23.0739 78.3065 23.2538 78.0869 23.4822C77.8673 23.712 77.6933 23.9803 77.5669 24.2893C77.4405 24.5971 77.3779 24.9242 77.3779 25.2715C77.3779 25.6188 77.4405 25.9461 77.5669 26.2551C77.6933 26.5641 77.8688 26.8324 78.0935 27.0623C78.3182 27.2907 78.5823 27.4706 78.886 27.6021C79.19 27.7335 79.5199 27.7991 79.8762 27.7991C80.4188 27.799 80.8798 27.6523 81.259 27.3574C81.6383 27.0625 81.9208 26.6957 82.1086 26.2551L82.1072 26.2522L83.4827 26.8286C83.1838 27.5309 82.7251 28.104 82.1072 28.5483C81.4891 28.9928 80.7407 29.2156 79.8608 29.2156C79.2989 29.2156 78.7749 29.1121 78.2883 28.9065C77.8019 28.6997 77.3806 28.4197 77.0256 28.0635C76.6706 27.7084 76.3918 27.2916 76.1899 26.814C75.9896 26.3365 75.8889 25.8305 75.8889 25.27C75.889 24.7095 75.9924 24.1897 76.198 23.7122C76.4048 23.2358 76.6847 22.8197 77.041 22.4634C77.3972 22.1085 77.8159 21.8302 78.2971 21.6284C78.7799 21.4279 79.2962 21.3267 79.8491 21.3267Z" fill="black"/>
<path d="M71.3398 21.3281C71.8174 21.3281 72.2503 21.4051 72.6384 21.5596C73.0266 21.7141 73.3552 21.9347 73.6221 22.2195C73.8889 22.5043 74.0947 22.8557 74.2402 23.272C74.3845 23.6882 74.457 24.1542 74.457 24.6687V29.0625H72.927V24.78C72.927 24.1352 72.7624 23.6205 72.4355 23.2361L72.4341 23.2375C72.1071 22.8531 71.6243 22.6611 70.9883 22.6611C70.6985 22.6611 70.4289 22.7122 70.1812 22.8157C69.9322 22.9178 69.7178 23.0665 69.5352 23.2581C69.3526 23.4509 69.2108 23.6846 69.1074 23.9604C69.004 24.2362 68.9529 24.5426 68.9529 24.8796V29.0632H67.4368V21.9932L68.9243 21.3552V22.5352C69.1861 22.1699 69.5211 21.8774 69.9285 21.6577C70.3359 21.4381 70.806 21.3281 71.3398 21.3281Z" fill="black"/>
<path d="M104.107 22.8018C104.266 22.3241 104.528 21.9661 104.893 21.7273C105.257 21.4886 105.683 21.3699 106.17 21.3699V21.3721C106.432 21.3721 106.673 21.3979 106.893 21.449C107.113 21.5001 107.298 21.5726 107.448 21.6658L106.857 23.1255C106.634 22.9761 106.315 22.9014 105.903 22.9014C105.361 22.9014 104.93 23.0466 104.612 23.3364C104.294 23.6263 104.135 24.113 104.135 24.7961V29.0632H102.619V21.9932L104.107 21.3545V22.8018Z" fill="black"/>
<path d="M86.3318 22.4927C86.6038 22.1377 86.9426 21.8545 87.3499 21.6438C87.7573 21.4331 88.2188 21.3281 88.7334 21.3281C89.2109 21.3282 89.6439 21.4051 90.032 21.5596C90.4202 21.7141 90.7487 21.9347 91.0156 22.2195C91.2822 22.5042 91.4876 22.8557 91.6338 23.272C91.7777 23.6882 91.8506 24.1542 91.8506 24.6687V29.0625H90.3066V24.78C90.3066 24.1351 90.1456 23.6205 89.8225 23.2361L89.821 23.2375C89.498 22.8532 89.0141 22.6611 88.3679 22.6611C88.087 22.6611 87.8224 22.7122 87.5747 22.8157C87.3256 22.9178 87.1113 23.0665 86.9287 23.2581C86.7462 23.4509 86.6044 23.6846 86.501 23.9604C86.3976 24.2362 86.3464 24.5426 86.3464 24.8796V29.0625H84.8303V18.6438L86.3318 18V22.4927Z" fill="black"/>
<path d="M39.2627 22.3052L32.5391 26.6118L25.8169 22.3052L32.5391 18L39.2627 22.3052Z" fill="black"/>
</g>
</svg>
