<svg width="200" height="84" viewBox="0 0 200 84" fill="none" xmlns="http://www.w3.org/2000/svg">
	<path d="M177.23 42.0707H171.288V41.8348C171.288 40.2776 171.665 38.5317 174.259 38.5317C176.9 38.5317 177.23 40.2776 177.23 41.8348V42.0707ZM180.438 44.1941V43.1088C180.438 38.9564 178.834 35.9836 174.259 35.9836C170.156 35.9836 168.081 38.2014 168.081 42.8257V43.6751C168.081 48.4882 169.826 50.3756 174.778 50.3756C177.042 50.3756 178.834 50.0453 179.872 49.8094V47.4029C178.079 47.5916 176.381 47.7332 174.919 47.7332C171.571 47.7332 171.288 46.4591 171.288 44.4301V44.1941H180.438ZM162.468 43.6751C162.468 47.0254 161.336 47.686 159.403 47.686C158.648 47.686 157.799 47.5916 156.856 47.4029V39.4754C158.176 38.9092 158.931 38.7676 159.827 38.7676C161.619 38.7676 162.468 39.617 162.468 42.4482V43.6751ZM165.628 43.6751V42.401C165.628 37.6823 163.742 35.9364 160.676 35.9364C159.355 35.9364 157.893 36.3139 156.667 37.1633V36.2667H153.696V54.9528H156.903V50.0453C157.61 50.2341 158.789 50.3284 159.638 50.3284C163.176 50.3756 165.628 48.7713 165.628 43.6751ZM147.187 47.2141C146.716 47.4972 145.348 48.0635 144.074 48.0635C142.942 48.0635 142.141 47.7332 142.141 46.4591V45.8929C142.141 44.0998 143.131 43.8166 145.489 43.8166H147.187V47.2141ZM150.3 49.9981V40.9854C150.3 37.4936 149.168 35.9836 144.782 35.9836C142.565 35.9836 140.537 36.5027 139.924 36.7386V38.9092C141.433 38.7205 142.848 38.6261 144.216 38.6261C146.668 38.6261 147.046 39.0036 147.046 40.9382V41.7876H145.489C141.669 41.7876 139.028 42.2595 139.028 45.9401V46.4591C139.028 49.1016 140.49 50.3756 143.037 50.3756C144.97 50.3756 146.527 49.715 147.376 49.1016V49.9981H150.3ZM136.953 49.8566V47.4029C135.208 47.5444 134.029 47.6388 133.274 47.6388C131.293 47.6388 130.161 46.9782 130.161 44.0054V42.2595C130.161 39.2867 131.293 38.6733 133.274 38.6733C134.029 38.6733 135.208 38.7676 136.953 38.9092V36.4555C136.34 36.2667 134.83 35.9364 132.708 35.9364C128.793 35.9364 126.954 38.0598 126.954 42.2595V44.0054C126.954 48.1107 128.793 50.3284 132.708 50.3284C134.783 50.3756 136.292 50.0453 136.953 49.8566ZM124.784 46.2232C124.737 43.9582 123.747 43.0145 120.776 41.8348L119.691 41.4101C117.993 40.7495 117.521 40.5136 117.521 39.617C117.521 38.6261 118.229 38.4845 119.879 38.4845C121.059 38.4845 122.568 38.5789 124.124 38.7205V36.5027C123.464 36.2667 121.389 35.9836 119.832 35.9836C116.201 35.9836 114.361 36.9745 114.361 39.7114C114.361 41.8348 115.54 43.0145 118.134 44.0054L119.172 44.4301C121.2 45.2323 121.625 45.4682 121.625 46.4119C121.625 47.4029 121.106 47.8275 119.078 47.8275C117.333 47.8275 115.257 47.5444 114.55 47.4972V49.7622C115.163 49.9509 117.333 50.2813 119.219 50.2813C123.039 50.3756 124.784 48.8185 124.784 46.2232ZM112.946 49.9981L107.523 42.8729L112.805 36.3139H109.173L104.315 42.401V31.0762H101.108V49.9509H104.315V43.5335L109.173 50.0453H112.946V49.9981ZM98.3729 49.8566V47.4029C96.6278 47.5444 95.4487 47.6388 94.6941 47.6388C92.7132 47.6388 91.5813 46.9782 91.5813 44.0054V42.2595C91.5813 39.2867 92.7132 38.6733 94.6941 38.6733C95.4487 38.6733 96.6278 38.7676 98.3729 38.9092V36.4555C97.7597 36.2667 96.2505 35.9364 94.1281 35.9364C90.2136 35.9364 88.3742 38.0598 88.3742 42.2595V44.0054C88.3742 48.1107 90.2136 50.3284 94.1281 50.3284C96.2033 50.3756 97.7126 50.0453 98.3729 49.8566ZM82.7146 44.0054C82.7146 46.6479 81.8184 47.6388 79.7432 47.6388C77.668 47.6388 76.7719 46.6479 76.7719 44.0054V42.3067C76.7719 39.6642 77.7152 38.7205 79.7432 38.7205C81.8184 38.7205 82.7146 39.7114 82.7146 42.3067V44.0054ZM85.8745 44.0054V42.3067C85.8745 38.0127 83.705 35.9836 79.6961 35.9836C75.6872 35.9836 73.5176 38.0127 73.5176 42.3067V44.0054C73.5176 48.3466 75.6872 50.3756 79.6961 50.3756C83.705 50.3756 85.8745 48.3466 85.8745 44.0054ZM70.452 31.1234H67.2449V49.9981H70.452V31.1234ZM60.925 43.9582C60.925 46.8366 59.9345 47.6388 57.7178 47.6388C56.7274 47.6388 55.8785 47.5444 55.3597 47.5444V39.1923C56.2086 38.7676 57.5764 38.6733 58.1895 38.6733C60.2175 38.6733 60.925 39.5226 60.925 42.0235V43.9582ZM64.1321 43.9582V42.0707C64.1321 37.9183 62.387 35.9836 58.614 35.9836C57.5764 35.9836 56.3973 36.1724 55.4068 36.6442V31.1234H52.1997V49.9981C54.6522 50.2813 55.8785 50.3756 57.6707 50.3756C61.9154 50.3756 64.1321 48.5353 64.1321 43.9582Z" fill="white"/>
	<path d="M32.5625 29C39.7385 29 45.5625 34.824 45.5625 42C45.5625 49.176 39.7385 55 32.5625 55C25.3865 55 19.5625 49.176 19.5625 42C19.5625 34.824 25.3865 29 32.5625 29ZM38.7505 45.068L32.5625 48.656L26.3745 45.068L25.0225 45.848V47.772L32.5625 52.14V50.216L40.1025 45.848L38.7505 45.068ZM38.7505 40.284L32.5625 43.872L26.3745 40.284L25.0745 41.064L25.0225 42.936L32.5625 47.304V45.38L40.1025 41.064L38.7505 40.284ZM32.5625 31.86L25.0745 36.228L25.0225 38.152L32.5625 42.52V40.596L40.1025 36.228L32.5625 31.86Z" fill="white"/>
</svg>
