<svg xmlns="http://www.w3.org/2000/svg" width="200" height="84" fill="none" viewBox="0 0 200 84">
  <path fill="#000" d="M118.14 50.382V27h4.645v23.382h-4.645Zm-54.18 6.944H54V33.944h9.568c4.644 0 7.354 2.562 7.354 6.567 0 2.593-1.738 4.266-2.948 4.831 1.438.659 3.28 2.133 3.28 5.25 0 4.36-3.042 6.734-7.293 6.734Zm-.764-19.304h-4.552v5.386h4.552c1.975 0 3.072-1.088 3.072-2.699 0-1.61-1.107-2.687-3.072-2.687Zm.3 9.485h-4.852v5.751h4.851c2.11 0 3.114-1.317 3.114-2.886 0-1.569-1.003-2.855-3.114-2.855v-.01Zm21.938.23v9.59h-4.613v-9.59l-7.158-13.793h5.048l4.447 9.422 4.386-9.422h5.048l-7.158 13.793Zm20.336 9.589h-9.961V33.944h9.568c4.644 0 7.354 2.562 7.354 6.567 0 2.593-1.738 4.266-2.948 4.831 1.438.659 3.279 2.133 3.279 5.25 0 4.36-3.041 6.734-7.292 6.734Zm-.766-19.304h-4.551v5.386h4.551c1.976 0 3.072-1.088 3.072-2.699 0-1.61-1.106-2.687-3.072-2.687Zm.3 9.485h-4.851v5.751h4.851c2.11 0 3.114-1.317 3.114-2.886 0-1.569-1.004-2.855-3.114-2.855v-.01Zm32.469-9.485v19.304h-4.644V38.022h-6.217v-4.068H144v4.068h-6.227Z"/>
</svg>
