<svg xmlns="http://www.w3.org/2000/svg" width="200" height="84" fill="none" viewBox="0 0 200 84">
  <g clip-path="url(#a)">
    <path fill="#000" d="M60.085 37.55c.013-.396.177-.772.46-1.055a1.87 1.87 0 0 1 .493-.319 1.96 1.96 0 0 1 .59-.128h5.744c.302.004.597.093.848.258.25.165.447.397.563.669.075.183.12.377.132.574v1.345h-1.51V37.55H61.66v7.377h5.744v-1.344h1.51v1.344a1.48 1.48 0 0 1-.265.826 1.544 1.544 0 0 1-.687.548 1.969 1.969 0 0 1-.59.128h-5.744a1.58 1.58 0 0 1-.848-.258 1.518 1.518 0 0 1-.563-.669 1.82 1.82 0 0 1-.132-.575V37.55m20.348-1.47v10.315h-1.51v-4.408h-6.072v4.408H71.31V36.08h1.542v4.439h6.072V36.08h1.51Zm7.417 0 4.103 10.315h-1.51l-.952-2.363H84.7l-.952 2.363h-1.509l4.103-10.315h1.51Zm-2.56 6.483h3.61l-1.806-4.567-1.803 4.567Zm9.98-6.483h-1.51v10.315h1.51V36.08Zm4.265 10.315h-1.51V36.08h1.51l6.367 8.016V36.08h1.51v10.315h-1.51l-6.367-8.016v8.016Zm12.145-4.407a1.579 1.579 0 0 1-.848-.258 1.512 1.512 0 0 1-.563-.668 1.838 1.838 0 0 1-.132-.575v-2.938c.013-.395.178-.77.461-1.054.145-.131.312-.239.492-.319a1.96 1.96 0 0 1 .591-.128h5.153c.302.004.597.093.848.258s.446.397.563.669c.075.183.119.377.131.574v1.345h-1.509V37.55h-5.154v2.938h5.153c.302.003.597.093.848.258.251.164.447.397.563.669.075.183.119.377.132.574v2.938a1.484 1.484 0 0 1-.265.825 1.55 1.55 0 0 1-.687.548 1.971 1.971 0 0 1-.591.128h-5.284a1.582 1.582 0 0 1-.849-.258 1.525 1.525 0 0 1-.563-.669 1.836 1.836 0 0 1-.131-.574V43.58h1.51v1.345h5.284v-2.938h-5.153Zm9.386-5.908h7.747v1.469h-6.236v2.97h5.317v1.469h-5.317v2.938h6.236v1.469h-7.747V36.08Zm10.009 1.47c.013-.396.178-.772.461-1.055.145-.131.311-.239.492-.319a1.96 1.96 0 0 1 .59-.128h5.744c.303.004.597.093.848.258s.447.397.563.669c.075.183.119.377.132.574v1.345h-1.51V37.55h-5.744v7.377h5.744v-1.344h1.51v1.344a1.469 1.469 0 0 1-.265.826 1.54 1.54 0 0 1-.687.548 1.965 1.965 0 0 1-.59.128h-5.744a1.581 1.581 0 0 1-.848-.258 1.519 1.519 0 0 1-.563-.669 1.809 1.809 0 0 1-.131-.575V37.55m11.225-1.47h1.509v8.846h6.073V36.08h1.509v8.846a1.476 1.476 0 0 1-.264.825 1.55 1.55 0 0 1-.687.548 1.968 1.968 0 0 1-.591.128h-6.072a1.58 1.58 0 0 1-.848-.258 1.52 1.52 0 0 1-.564-.668 1.864 1.864 0 0 1-.131-.575V36.08m20.282 3.673c0 1.437-.623 2.267-1.903 2.459l2.002 4.184h-1.674l-1.969-4.12h-3.316v4.12h-1.51V36.08h5.811c1.706 0 2.559.83 2.559 2.523v1.15Zm-6.892 1.054h4.201c.317.018.63-.072.886-.255.199-.244.293-.553.263-.862v-1.023a1.297 1.297 0 0 0-.263-.863 1.263 1.263 0 0 0-.886-.255h-4.201v3.258Zm10.93-4.727h-1.509v10.315h1.509V36.08Zm1.805 0h8.501v1.469h-3.479v8.846h-1.509v-8.846h-3.513V36.08Zm11.028 0 3.086 4.822 3.085-4.822h1.772l-4.102 6.227v4.088h-1.51v-4.088l-4.103-6.227h1.772Z"/>
    <path stroke="#000" stroke-miterlimit="10" stroke-width=".28" d="M42.688 49.863 27.782 24.747m-14.906 8.364 29.811 16.753m0-16.753L12.876 49.864m14.906 8.389V24.747m14.905 25.117H12.876m14.906-25.117L12.876 49.863m29.811-16.752H12.876m14.906 25.143L42.688 33.11m-29.812.001 14.906 25.143m14.905-8.391V33.11l-14.905-8.363-14.906 8.363v16.753l14.906 8.39 14.905-8.39ZM12.876 41.5h29.811M20.194 53.991l15.15-24.984m-.354 25.197L20.545 28.797"/>
    <path stroke="#000" stroke-linecap="round" stroke-linejoin="round" stroke-miterlimit="10" stroke-width="3" d="m35.125 37.32-2.42-4.103-9.792-.106-2.693 4.208 14.905 8.363-2.693 4.184h-9.737l-2.475-4.184"/>
    <path stroke="#000" stroke-linecap="round" stroke-linejoin="round" stroke-miterlimit="10" stroke-width="2" d="m35.235 29.006-7.562-4.259-14.905 8.363v16.753l14.905 8.39 7.236-4.05"/>
  </g>
  <defs>
    <clipPath id="a">
      <path fill="#fff" d="M12 24h176v35H12z"/>
    </clipPath>
  </defs>
</svg>
