<svg xmlns="http://www.w3.org/2000/svg" width="200" height="84" fill="none" viewBox="0 0 200 84">
  <path fill="#000" d="M45.364 24.273c1.123 0 2.23.116 3.302.315a17.384 17.384 0 0 1 3.219-.298c4.16 0 7.972 1.341 11.025 3.907 2.971 2.5 5.86 6.788 5.86 11.341H53.718l-.28-.778c-.446-1.242-1.09-2.335-1.932-3.245a7.993 7.993 0 0 0-2.872-2.003c-.083.033-.182.083-.265.116a8.112 8.112 0 0 0-2.69 1.92c-1.667 1.804-2.574 4.288-2.575 7.02 0 2.73.908 5.23 2.575 7.019a8.017 8.017 0 0 0 2.905 2.02c1.106-.43 2.08-1.11 2.922-2.02.841-.91 1.486-2.003 1.931-3.244l.28-.779h15.038c-.248 4.09-2.229 7.467-4.309 9.735l-.016.016a15.004 15.004 0 0 1-5.958 4.156c-2.08.778-4.143 1.175-6.223 1.176-.99 0-1.981-.083-2.972-.265-1.205.265-2.823.265-3.928.265-4.837 0-9.26-1.888-12.462-5.298C29.733 52.004 28 47.45 28 42.534s1.733-9.486 4.886-12.88c3.218-3.476 7.658-5.38 12.478-5.38Zm-.181 8.626c-1.189.034-2.294.265-3.301.712a8.112 8.112 0 0 0-2.69 1.92c-1.717 1.855-2.708 4.255-2.757 6.739v.546c0 .084 0 .497.016.86a13 13 0 0 0 1.189 5.067c1.65 3.626 5.034 6.854 8.814 8.41 3.697 1.523 7.478 1.573 11.208.165a12.977 12.977 0 0 0 5.068-3.542c1.502-1.655 2.64-3.676 3.367-5.878H61.87a11.508 11.508 0 0 1-2.113 3.279c-2.559 2.781-5.679 3.36-7.841 3.36-1.287 0-2.525-.198-3.664-.596-1.618-.563-3.037-1.506-4.226-2.78-2.063-2.22-3.202-5.266-3.202-8.594 0-3.327 1.14-6.373 3.202-8.591.363-.398.743-.746 1.156-1.077Zm.181-6.308c-4.176 0-8.022 1.64-10.795 4.636-2.74 2.963-4.258 6.986-4.259 11.307 0 4.321 1.52 8.312 4.26 11.242 2.327 2.484 5.414 4.023 8.847 4.42-3.4-1.97-6.323-5.082-7.89-8.526a15.135 15.135 0 0 1-1.386-5.977v-.116a13.557 13.557 0 0 1-.017-.827v-.563c0-.447.033-.894.099-1.341.297-2.517 1.188-4.553 2.575-6.093.214-.281.446-.546.693-.81a10.57 10.57 0 0 1 3.45-2.467c1.37-.613 2.855-.912 4.44-.912 1.287 0 2.525.2 3.664.597a10.226 10.226 0 0 1 4.177 2.765c.874.96 1.584 2.052 2.112 3.277h4.226c-1.684-5.347-5.844-9.237-11.125-10.313-.99-.199-2.03-.3-3.07-.3Zm9.953 21.274a11.507 11.507 0 0 1-2.112 3.279 8.32 8.32 0 0 1-1.122 1.043c1.684-.034 4.027-.53 5.958-2.617a8.491 8.491 0 0 0 1.238-1.705h-3.962Zm54.785-11.274c2.872 0 5.117 2.301 5.117 5.745s-2.245 5.745-5.117 5.745c-1.651-.017-2.74-.762-3.45-1.474h-.049v5.331h-2.493V36.79h2.493v1.258h.049c.71-.712 1.783-1.457 3.45-1.457Zm12.363 0c2.872 0 5.117 2.301 5.117 5.745s-2.245 5.745-5.117 5.745c-1.651-.017-2.741-.762-3.45-1.474h-.049v5.331h-2.493V36.79h2.493v1.258h.049c.709-.712 1.783-1.457 3.45-1.457Zm-37.089.016c2.327 0 4.127 1.292 4.902 3.345.132.331.231.696.297 1.06h-2.641c-.016 0-.017-.017-.017-.034a2.238 2.238 0 0 0-.132-.397c-.462-1.06-1.37-1.705-2.525-1.722-1.056.017-1.899.547-2.394 1.44a4.14 4.14 0 0 0-.263.68h-.017a4.79 4.79 0 0 0-.182 1.34c0 .497.066.944.182 1.341h.017c.066.248.164.48.263.679.495.894 1.338 1.424 2.394 1.44 1.172-.016 2.063-.645 2.525-1.705v.033h2.674c-.05.199-.115.414-.197.613-.776 2.07-2.559 3.377-4.886 3.378h-.232c-2.046 0-3.68-1.01-4.572-2.683-.478-.86-.743-1.887-.743-3.063 0-1.175.265-2.201.743-3.062.892-1.672 2.526-2.683 4.572-2.683h.232Zm68.946 0c2.327 0 4.11 1.292 4.903 3.345.132.331.23.696.296 1.06h-2.64c-.017 0-.017-.017-.017-.034a2.196 2.196 0 0 0-.133-.397c-.462-1.06-1.37-1.705-2.525-1.722-1.056.017-1.898.547-2.394 1.44-.098.216-.197.431-.263.68h-.017a4.81 4.81 0 0 0-.181 1.34c0 .497.066.944.181 1.341h.017c.066.248.165.48.263.679.496.894 1.338 1.424 2.394 1.44 1.172-.016 2.063-.645 2.525-1.705v.033h2.675a4.402 4.402 0 0 1-.198.613c-.776 2.07-2.559 3.377-4.886 3.378h-.231c-2.047 0-3.681-1.01-4.572-2.683-.479-.86-.744-1.887-.744-3.063 0-1.175.265-2.201.744-3.062.891-1.672 2.525-2.683 4.572-2.683h.231Zm-56.98.034c3.186 0 5.645 2.483 5.645 5.712 0 3.228-2.459 5.711-5.644 5.712-3.186 0-5.646-2.484-5.646-5.712 0-3.229 2.46-5.712 5.646-5.712Zm36.496-.067c3.004 0 5.513 2.087 5.513 6.557h-8.155c.182 1.771 1.436 2.715 2.856 2.715 1.139 0 2.014-.58 2.443-1.54l2.609.347c-1.04 2.533-2.856 3.411-5.084 3.412-3.186 0-5.531-2.302-5.531-5.746 0-3.443 2.345-5.745 5.349-5.745Zm32.516.067c3.186 0 5.646 2.483 5.646 5.712 0 3.228-2.46 5.712-5.646 5.712-3.185 0-5.644-2.484-5.644-5.712 0-3.229 2.459-5.712 5.644-5.712Zm-19.774 8.046c.891 0 1.667.81 1.667 1.671s-.792 1.673-1.667 1.673-1.667-.795-1.667-1.673c0-.86.776-1.671 1.667-1.671Zm-.643-7.98c.181 0 .562.05.809.132v2.5a4.983 4.983 0 0 0-1.057-.132c-1.865 0-2.641.81-2.641 2.615v6.027h-2.492V36.79h2.475v1.258h.05c.561-.712 1.37-1.34 2.856-1.341Zm-48.594 2.268c-1.75 0-3.054 1.39-3.054 3.377 0 1.987 1.304 3.378 3.054 3.378 1.733 0 3.053-1.407 3.053-3.377 0-1.987-1.304-3.378-3.053-3.378Zm12.263-.066c-1.7.017-3.037 1.39-3.037 3.41 0 2.02 1.337 3.41 3.037 3.41 1.701 0 3.038-1.373 3.038-3.41 0-2.036-1.337-3.41-3.038-3.41Zm12.364 0c-1.7 0-3.037 1.39-3.037 3.41 0 2.02 1.337 3.41 3.037 3.41s3.037-1.373 3.037-3.41c0-2.036-1.337-3.41-3.037-3.41Zm44.401.066c-1.749 0-3.054 1.39-3.054 3.377 0 1.987 1.305 3.377 3.054 3.378 1.75 0 3.054-1.407 3.054-3.377 0-1.987-1.304-3.378-3.054-3.378Zm-32.5-.165c-1.32 0-2.443 1.01-2.707 2.4h5.413c-.264-1.39-1.386-2.4-2.706-2.4Zm-79.51-12.003c3.647 2.268 6.37 5.926 7.592 10.413h4.01c-.758-2.88-2.31-5.364-4.555-7.251-1.997-1.689-4.407-2.765-7.048-3.162Z"/>
</svg>
