<svg width="200" height="84" viewBox="0 0 200 84" fill="black" xmlns="http://www.w3.org/2000/svg">
<path d="M25.979 50.8218L19.9915 40.4513C19.8422 40.1928 19.7637 39.8996 19.7637 39.601C19.7637 39.3025 19.8422 39.0093 19.9915 38.7507L25.979 28.3853C26.1282 28.1268 26.3429 27.9121 26.6014 27.7629C26.86 27.6136 27.1532 27.535 27.4517 27.535H39.4215C39.7201 27.535 40.0134 27.6136 40.2719 27.7629C40.5305 27.9121 40.7451 28.1268 40.8944 28.3853L46.9021 38.7608L43.9564 40.4615L38.4599 30.9463H28.4539L23.4483 39.6111L28.9448 49.1313L25.979 50.8218Z" fill="black"/>
<path d="M34.7555 56.4653H22.7604C22.4619 56.4653 22.1686 56.3866 21.91 56.2374C21.6515 56.0881 21.4369 55.8735 21.2876 55.6149L15.3052 45.2546L18.2458 43.5541L23.7423 53.0742H33.7433L38.7437 44.4043L33.2523 34.8892L36.1929 33.1886L42.1804 43.5541C42.3296 43.8125 42.4082 44.1058 42.4082 44.4043C42.4082 44.7028 42.3296 44.9961 42.1804 45.2546L36.1929 55.6251C36.0462 55.8772 35.8367 56.0872 35.5848 56.2344C35.333 56.3815 35.0472 56.4612 34.7555 56.4653Z" fill="black"/>
<path d="M59.0956 46.8658C58.2362 46.403 57.5202 45.7132 57.0256 44.8716C56.5344 43.9968 56.2764 43.0103 56.2764 42.007C56.2764 41.0037 56.5344 40.0171 57.0256 39.1424C57.5219 38.299 58.2395 37.6076 59.1007 37.1431C59.9152 36.7232 60.8091 36.4801 61.724 36.4295C62.6389 36.3789 63.5542 36.5221 64.41 36.8496C65.1052 37.1251 65.726 37.5603 66.2219 38.12L65.2097 39.1019C64.8177 38.6817 64.3413 38.3491 63.812 38.1259C63.2826 37.9025 62.7119 37.7936 62.1375 37.8062C61.3687 37.7947 60.61 37.9829 59.9359 38.3527C59.2988 38.7085 58.7732 39.2341 58.4174 39.8711C58.0555 40.5285 57.8657 41.2667 57.8657 42.0171C57.8657 42.7675 58.0555 43.5057 58.4174 44.1631C58.7725 44.8006 59.2984 45.3264 59.9359 45.6814C60.61 46.0513 61.3687 46.2396 62.1375 46.228C62.7133 46.2407 63.2852 46.1302 63.8151 45.9042C64.3448 45.6781 64.8203 45.3417 65.2097 44.9172L66.2219 45.9294C65.722 46.4905 65.0981 46.9271 64.3998 47.2049C63.6539 47.5057 62.8557 47.6553 62.0515 47.6452C61.0155 47.6446 59.9972 47.3761 59.0956 46.8658Z" fill="black"/>
<path d="M62.0515 47.7185C60.9919 47.7374 59.9455 47.481 59.0147 46.9745C58.1379 46.5054 57.4062 45.8052 56.8991 44.9499C56.3948 44.0565 56.1299 43.0479 56.1299 42.022C56.1299 40.9961 56.3948 39.9875 56.8991 39.0941C57.4094 38.2395 58.1424 37.5398 59.0197 37.0696C59.8502 36.6406 60.7621 36.3922 61.6955 36.3408C62.6289 36.2892 63.5626 36.4359 64.4353 36.771C65.1475 37.0537 65.7836 37.4991 66.2928 38.0717L66.3737 38.1629L65.1793 39.3218L65.1236 39.1802C64.7433 38.7721 64.2813 38.4489 63.7676 38.2318C63.2539 38.0147 62.7001 37.9084 62.1425 37.9199C61.3952 37.9112 60.6581 38.0941 60.0016 38.4513C59.3822 38.7928 58.8677 39.2968 58.5135 39.909C58.1617 40.5468 57.9773 41.2633 57.9773 41.9917C57.9773 42.72 58.1617 43.4366 58.5135 44.0744C58.866 44.6892 59.3808 45.1953 60.0016 45.5371C60.6604 45.8854 61.3974 46.0597 62.1425 46.0432C62.7008 46.0531 63.2549 45.945 63.7686 45.7262C64.2823 45.5072 64.744 45.1823 65.1236 44.7728L65.2097 44.6817L66.4041 45.8356L66.3231 45.9268C65.8123 46.5036 65.1748 46.954 64.4605 47.2426C63.696 47.5561 62.8777 47.7177 62.0515 47.7185ZM59.1563 46.7568C60.0454 47.2353 61.0419 47.4792 62.0515 47.4654C62.8397 47.4727 63.6219 47.3266 64.3543 47.0352C64.9954 46.7787 65.5724 46.3848 66.0447 45.8812L65.2097 45.0714C64.8087 45.4784 64.3291 45.7996 63.8001 46.0155C63.2711 46.2312 62.7036 46.337 62.1324 46.3266C61.3423 46.3387 60.5626 46.1451 59.87 45.7648C59.2078 45.4025 58.658 44.8649 58.2808 44.211C57.9091 43.534 57.7142 42.7742 57.7142 42.0017C57.7142 41.2294 57.9091 40.4696 58.2808 39.7926C58.6594 39.1398 59.2088 38.6026 59.87 38.2387C60.5639 37.8614 61.3427 37.6681 62.1324 37.677C62.7029 37.6652 63.2699 37.7694 63.7989 37.9835C64.3279 38.1975 64.8079 38.5168 65.2097 38.922L66.0447 38.1122C65.574 37.6126 65.0008 37.2207 64.3644 36.9633C63.6325 36.6773 62.8523 36.5347 62.0666 36.5432C61.0539 36.5308 60.0546 36.7746 59.1614 37.2518C58.3204 37.7054 57.6202 38.3812 57.1369 39.2054C56.6558 40.0598 56.403 41.0238 56.403 42.0043C56.403 42.9848 56.6558 43.9488 57.1369 44.8032C57.621 45.6268 58.3211 46.3024 59.1614 46.7568H59.1563Z" fill="black"/>
<path d="M70.184 46.8624C69.3148 46.3938 68.5929 45.6929 68.0988 44.8379C67.6012 43.9688 67.3394 42.9849 67.3394 41.9834C67.3394 40.982 67.6012 39.9979 68.0988 39.1288C68.595 38.2755 69.3164 37.5751 70.184 37.1044C71.103 36.6287 72.1227 36.3804 73.1575 36.3804C74.1923 36.3804 75.212 36.6287 76.131 37.1044C76.9922 37.5689 77.7098 38.2602 78.2061 39.1035C78.6974 39.9784 78.9554 40.9648 78.9554 41.9682C78.9554 42.9716 78.6974 43.958 78.2061 44.8328C77.7095 45.6746 76.9919 46.3643 76.131 46.827C75.213 47.306 74.1929 47.5561 73.1575 47.5561C72.1221 47.5561 71.102 47.306 70.184 46.827V46.8624ZM75.3262 45.6527C75.9614 45.2945 76.4865 44.7695 76.8447 44.1344C77.2066 43.4771 77.3964 42.7389 77.3964 41.9884C77.3964 41.238 77.2066 40.4998 76.8447 39.8425C76.486 39.2077 75.9611 38.6827 75.3262 38.3241C74.6664 37.9552 73.921 37.7667 73.1651 37.7775C72.4044 37.7666 71.6541 37.9551 70.9887 38.3241C70.3523 38.6807 69.8269 39.2061 69.4704 39.8425C69.1084 40.4998 68.9186 41.238 68.9186 41.9884C68.9186 42.7389 69.1084 43.4771 69.4704 44.1344C69.8263 44.7713 70.3519 45.2968 70.9887 45.6527C71.6541 46.0218 72.4044 46.2103 73.1651 46.1994C73.9158 46.2075 74.6557 46.0191 75.3111 45.6527H75.3262Z" fill="black"/>
<path d="M73.151 47.72C72.0919 47.7351 71.0465 47.479 70.1142 46.976C69.2323 46.5086 68.4954 45.8084 67.9835 44.9516C67.4728 44.063 67.2041 43.0561 67.2041 42.0312C67.2041 41.0064 67.4728 39.9994 67.9835 39.1109C68.4929 38.2443 69.2297 37.5337 70.1142 37.0561C71.0521 36.5681 72.0937 36.3134 73.151 36.3134C74.2082 36.3134 75.2498 36.5681 76.1877 37.0561C77.065 37.5262 77.7981 38.226 78.3084 39.0806C78.8126 39.974 79.0776 40.9825 79.0776 42.0085C79.0776 43.0345 78.8126 44.0429 78.3084 44.9364C77.8009 45.7932 77.0672 46.4936 76.1877 46.9609C75.2571 47.4697 74.2116 47.7312 73.151 47.72ZM70.2306 46.7533C71.13 47.2222 72.1292 47.467 73.1434 47.467C74.1576 47.467 75.1567 47.2222 76.0561 46.7533C76.8978 46.3031 77.5985 45.6287 78.0806 44.8047C78.5617 43.9504 78.8146 42.9865 78.8146 42.0059C78.8146 41.0254 78.5617 40.0614 78.0806 39.2071C77.5974 38.3828 76.8971 37.707 76.0561 37.2535C75.1558 36.7879 74.157 36.545 73.1434 36.545C72.1298 36.545 71.131 36.7879 70.2306 37.2535C69.3902 37.7101 68.6903 38.3873 68.2062 39.2121C67.7215 40.0598 67.4665 41.0193 67.4665 41.9958C67.4665 42.9723 67.7215 43.9319 68.2062 44.7795C68.6888 45.6055 69.3891 46.283 70.2306 46.7382V46.7533ZM73.151 46.3283C72.3675 46.3383 71.595 46.1447 70.9089 45.7664C70.252 45.4021 69.7076 44.8647 69.3348 44.2126C68.9599 43.5366 68.7632 42.7764 68.7632 42.0034C68.7632 41.2305 68.9599 40.4702 69.3348 39.7942C69.7058 39.1421 70.2509 38.6059 70.9089 38.2455C71.5946 37.8655 72.3671 37.6702 73.151 37.6786C73.9287 37.6683 74.6952 37.8638 75.3729 38.2455C76.0244 38.6112 76.5647 39.1463 76.9368 39.7942C77.3084 40.4712 77.5034 41.2311 77.5034 42.0034C77.5034 42.7757 77.3084 43.5356 76.9368 44.2126C76.5651 44.8621 76.0247 45.3989 75.3729 45.7664C74.6948 46.1463 73.9281 46.3401 73.151 46.3283ZM73.151 37.9316C72.4118 37.9241 71.6833 38.1071 71.0354 38.4631C70.4185 38.8061 69.906 39.3098 69.5525 39.9207C69.2007 40.5585 69.0162 41.275 69.0162 42.0034C69.0162 42.7318 69.2007 43.4483 69.5525 44.0861C69.9043 44.6996 70.4171 45.2054 71.0354 45.5488C71.6853 45.8966 72.414 46.0709 73.151 46.0549C73.8817 46.0723 74.6042 45.8978 75.2464 45.5488C75.858 45.2018 76.365 44.6966 76.7141 44.0861C77.0659 43.4483 77.2504 42.7318 77.2504 42.0034C77.2504 41.275 77.0659 40.5585 76.7141 39.9207C76.3635 39.3127 75.8568 38.8094 75.2464 38.4631C74.6062 38.1062 73.8838 37.923 73.151 37.9316Z" fill="black"/>
<path d="M82.1299 47.2075C81.4633 47.0042 80.8486 46.6588 80.3281 46.1953L80.9051 44.9807C81.374 45.3853 81.9172 45.6948 82.5044 45.8916C83.1528 46.129 83.8384 46.2489 84.5289 46.2459C85.234 46.2911 85.9371 46.1311 86.5534 45.7854C86.7603 45.6555 86.9303 45.4746 87.0473 45.2602C87.1642 45.0457 87.2242 44.8048 87.2215 44.5606C87.2275 44.3909 87.1982 44.2219 87.1355 44.0642C87.0728 43.9065 86.9779 43.7636 86.857 43.6445C86.596 43.4041 86.2874 43.2213 85.9511 43.1079C85.4528 42.9412 84.9459 42.801 84.4328 42.6878C83.7567 42.5351 83.092 42.3355 82.4437 42.0906C81.9439 41.8972 81.4991 41.5844 81.1481 41.1797C80.7702 40.7115 80.5791 40.1202 80.6115 39.5196C80.6043 38.9591 80.7647 38.4092 81.0721 37.9404C81.4194 37.4388 81.9046 37.0486 82.469 36.8168C83.2055 36.5159 83.9968 36.3728 84.7921 36.3967C85.4346 36.3953 86.0744 36.4787 86.6951 36.6448C87.27 36.7871 87.8149 37.0305 88.3046 37.3634L87.7985 38.6136C87.344 38.3226 86.8495 38.0993 86.3307 37.9506C85.8379 37.8032 85.3267 37.7265 84.8124 37.7228C84.1127 37.6793 83.417 37.8563 82.8232 38.2289C82.6171 38.3641 82.4483 38.549 82.3324 38.7666C82.2165 38.9842 82.1573 39.2275 82.1603 39.474C82.1536 39.6446 82.1836 39.8146 82.2482 39.9726C82.3128 40.1307 82.4105 40.273 82.5348 40.3901C82.8023 40.6346 83.1177 40.8207 83.461 40.9367C83.9593 41.1009 84.4661 41.2378 84.9794 41.3466C85.6534 41.501 86.3162 41.7005 86.9634 41.9439C87.4571 42.1383 87.8976 42.447 88.2489 42.8448C88.6258 43.3055 88.8171 43.8902 88.7854 44.4846C88.7919 45.0425 88.6295 45.5895 88.3197 46.0536C87.9681 46.5613 87.4729 46.9525 86.8976 47.1772C86.155 47.4751 85.359 47.6165 84.5593 47.5922C83.7337 47.6004 82.9126 47.4704 82.1299 47.2075Z" fill="black"/>
<path d="M84.5123 47.7181C83.6885 47.7196 82.8698 47.588 82.0879 47.3284C81.408 47.1242 80.7785 46.7794 80.2406 46.3161L80.1748 46.2503L80.8631 44.7977L80.9897 44.9091C81.446 45.3051 81.9757 45.6078 82.5486 45.7999C83.1782 46.0277 83.8427 46.1442 84.5123 46.144C85.1926 46.1921 85.872 46.0389 86.4659 45.7037C86.6574 45.5873 86.8151 45.4228 86.9234 45.2266C87.0318 45.0304 87.0869 44.8093 87.0834 44.5852C87.0903 44.4322 87.0645 44.2795 87.0078 44.1372C86.9511 43.995 86.8647 43.8664 86.7544 43.7602C86.5093 43.5315 86.2175 43.3588 85.8991 43.2541C85.4007 43.0874 84.8939 42.9472 84.3807 42.834C83.6934 42.6802 83.017 42.4807 82.3562 42.2367C81.8387 42.0327 81.3771 41.7083 81.0099 41.2903C80.6146 40.7968 80.4131 40.1758 80.4431 39.5442C80.444 38.9577 80.6202 38.3848 80.9492 37.8993C81.3088 37.377 81.8114 36.9693 82.3967 36.7251C83.1512 36.4186 83.9613 36.272 84.7754 36.2949C85.4298 36.2954 86.0814 36.3804 86.7139 36.5479C87.3006 36.6981 87.857 36.9481 88.3588 37.2869L88.4448 37.3426L87.8324 38.8255L87.7059 38.7446C87.2595 38.4625 86.7756 38.2444 86.2685 38.0967C85.7757 37.9501 85.2643 37.8751 84.7502 37.874C84.0803 37.8275 83.4123 37.9883 82.837 38.3346C82.6462 38.4575 82.4898 38.6271 82.3827 38.8272C82.2755 39.0274 82.2211 39.2515 82.2246 39.4785C82.2167 39.6313 82.2425 39.7839 82.3003 39.9256C82.358 40.0673 82.4462 40.1945 82.5586 40.2983C82.8147 40.5279 83.1166 40.7004 83.4444 40.8045C83.9325 40.968 84.4293 41.1049 84.9324 41.2144C85.6199 41.3675 86.2963 41.567 86.9569 41.8117C87.4695 42.017 87.9271 42.3394 88.293 42.753C88.6879 43.237 88.8898 43.85 88.8599 44.4738C88.8589 45.0588 88.6826 45.63 88.3538 46.1137C87.9878 46.636 87.4779 47.0404 86.886 47.2778C86.1328 47.5842 85.3252 47.7341 84.5123 47.7181ZM80.4633 46.1997C80.9598 46.6089 81.5327 46.9151 82.1487 47.1006C82.9038 47.3544 83.6954 47.4826 84.492 47.4802C85.2742 47.5023 86.0527 47.3645 86.7797 47.0753C87.3307 46.857 87.8057 46.4823 88.1463 45.9973C88.4455 45.5481 88.6008 45.0185 88.5917 44.4789C88.6234 43.9158 88.4428 43.3614 88.0855 42.9251C87.7484 42.5392 87.323 42.2406 86.8455 42.0546C86.206 41.8118 85.5497 41.6155 84.8818 41.4675C84.3683 41.3554 83.8614 41.2151 83.3634 41.0474C83.0025 40.9281 82.6712 40.7331 82.3917 40.4755C82.2537 40.3466 82.1451 40.1895 82.0735 40.0147C82.0018 39.8401 81.9688 39.6519 81.9767 39.4632C81.9747 39.1966 82.0389 38.9336 82.1634 38.6978C82.2879 38.462 82.469 38.2606 82.6902 38.1119C83.3105 37.7357 84.0313 37.5591 84.7553 37.6057C85.285 37.6077 85.8117 37.6861 86.3192 37.8386C86.8006 37.9764 87.2618 38.1773 87.6907 38.4358L88.1109 37.4236C87.6539 37.1317 87.1533 36.9147 86.6279 36.7808C86.0168 36.6193 85.3874 36.5376 84.7553 36.5379C83.9773 36.5132 83.2029 36.6528 82.4828 36.9478C81.9392 37.1695 81.4716 37.544 81.1365 38.0258C80.8445 38.4778 80.693 39.0062 80.7012 39.5442C80.6689 40.115 80.8492 40.6777 81.2073 41.1233C81.5461 41.5109 81.9731 41.8111 82.4524 41.9989C83.0957 42.2408 83.7552 42.437 84.4262 42.586C85.0842 42.7429 85.6004 42.8846 85.9446 43.0111C86.298 43.1313 86.6222 43.3244 86.8962 43.578C87.0307 43.709 87.1363 43.8668 87.2061 44.0411C87.2758 44.2155 87.3081 44.4026 87.301 44.5903C87.3065 44.8552 87.2427 45.1171 87.1158 45.3497C86.9888 45.5824 86.8032 45.7777 86.5773 45.9163C85.9425 46.2888 85.2116 46.4649 84.4768 46.4224C83.7865 46.4186 83.1018 46.297 82.4524 46.0631C81.9028 45.8744 81.3894 45.5938 80.934 45.2331L80.4633 46.1997Z" fill="black"/>
<path d="M101.15 47.4653V39.504L97.2019 46.1394H96.4832L92.5355 39.5598V47.4704H91.0171V36.5432H92.2926L96.8476 44.2212L101.342 36.5432H102.622V47.4653H101.15Z" fill="black"/>
<path d="M102.773 47.5948H101.022V39.9675L97.256 46.2687H96.3956L96.3551 46.2079L92.6453 40.013V47.6049H90.894V36.4196H92.3719L96.8561 43.9759L101.28 36.4196H102.758V36.5461L102.773 47.5948ZM101.254 47.3417H102.499V36.6726H101.416L96.8612 44.472L92.2252 36.6523H91.1471V47.3214H92.3922V39.097L96.5373 46.0156H97.1092L101.259 39.0514L101.254 47.3417Z" fill="black"/>
<path d="M107.876 46.8624C107.006 46.3938 106.284 45.6929 105.79 44.8379C105.296 43.9678 105.036 42.9841 105.036 41.9834C105.036 40.9826 105.296 39.9991 105.79 39.1288C106.286 38.2755 107.007 37.5751 107.876 37.1044C108.794 36.6287 109.814 36.3804 110.849 36.3804C111.884 36.3804 112.903 36.6287 113.822 37.1044C114.683 37.5689 115.401 38.2602 115.898 39.1035C116.389 39.9784 116.646 40.9648 116.646 41.9682C116.646 42.9716 116.389 43.958 115.898 44.8328C115.401 45.6746 114.683 46.3643 113.822 46.827C112.905 47.306 111.884 47.5561 110.849 47.5561C109.814 47.5561 108.793 47.306 107.876 46.827V46.8624ZM113.018 45.6527C113.653 45.2945 114.178 44.7695 114.536 44.1344C114.898 43.4771 115.088 42.7389 115.088 41.9884C115.088 41.238 114.898 40.4998 114.536 39.8425C114.177 39.2077 113.653 38.6827 113.018 38.3241C112.358 37.9545 111.612 37.7659 110.856 37.7775C110.096 37.7673 109.346 37.9557 108.68 38.3241C108.044 38.6807 107.518 39.2061 107.162 39.8425C106.8 40.4998 106.61 41.238 106.61 41.9884C106.61 42.7389 106.8 43.4771 107.162 44.1344C107.517 44.7713 108.043 45.2968 108.68 45.6527C109.346 46.0212 110.096 46.2096 110.856 46.1994C111.612 46.2109 112.358 46.0224 113.018 45.6527Z" fill="black"/>
<path d="M110.856 47.72C109.797 47.7351 108.752 47.479 107.82 46.976C106.938 46.5086 106.201 45.8084 105.689 44.9516C105.182 44.0618 104.915 43.0554 104.915 42.0312C104.915 41.0071 105.182 40.0006 105.689 39.1109C106.198 38.2443 106.935 37.5337 107.82 37.0561C108.758 36.5681 109.799 36.3134 110.856 36.3134C111.913 36.3134 112.955 36.5681 113.893 37.0561C114.77 37.5262 115.504 38.226 116.014 39.0806C116.518 39.974 116.783 40.9825 116.783 42.0085C116.783 43.0345 116.518 44.0429 116.014 44.9364C115.506 45.7932 114.773 46.4936 113.893 46.9609C112.963 47.4697 111.917 47.7312 110.856 47.72ZM107.936 46.7533C108.835 47.2222 109.834 47.467 110.849 47.467C111.863 47.467 112.862 47.2222 113.762 46.7533C114.603 46.3031 115.304 45.6287 115.786 44.8047C116.267 43.9504 116.52 42.9865 116.52 42.0059C116.52 41.0254 116.267 40.0614 115.786 39.2071C115.303 38.3828 114.602 37.707 113.762 37.2535C112.861 36.7879 111.863 36.545 110.849 36.545C109.835 36.545 108.836 36.7879 107.936 37.2535C107.096 37.7101 106.396 38.3873 105.912 39.2121C105.43 40.061 105.177 41.0201 105.177 41.9958C105.177 42.9716 105.43 43.9307 105.912 44.7795C106.394 45.6055 107.095 46.283 107.936 46.7382V46.7533ZM110.856 46.3283C110.072 46.3383 109.3 46.1447 108.614 45.7664C107.959 45.4006 107.414 44.8636 107.04 44.2126C106.665 43.5366 106.469 42.7764 106.469 42.0034C106.469 41.2305 106.665 40.4702 107.04 39.7942C107.415 39.1447 107.959 38.6093 108.614 38.2455C109.3 37.8655 110.072 37.6702 110.856 37.6786C111.634 37.6683 112.4 37.8638 113.078 38.2455C113.73 38.6112 114.27 39.1463 114.642 39.7942C115.014 40.4712 115.209 41.2311 115.209 42.0034C115.209 42.7757 115.014 43.5356 114.642 44.2126C114.271 44.8621 113.73 45.3989 113.078 45.7664C112.4 46.1463 111.634 46.3401 110.856 46.3283ZM110.856 37.9316C110.117 37.9241 109.389 38.1071 108.741 38.4631C108.124 38.8061 107.611 39.3098 107.258 39.9207C106.906 40.5585 106.721 41.275 106.721 42.0034C106.721 42.7318 106.906 43.4483 107.258 44.0861C107.611 44.6986 108.124 45.204 108.741 45.5488C109.39 45.8966 110.119 46.0709 110.856 46.0549C111.587 46.0723 112.309 45.8978 112.951 45.5488C113.561 45.2003 114.066 44.6954 114.414 44.0861C114.766 43.4483 114.951 42.7318 114.951 42.0034C114.951 41.275 114.766 40.5585 114.414 39.9207C114.065 39.3116 113.558 38.8081 112.947 38.4631C112.308 38.1064 111.587 37.9232 110.856 37.9316Z" fill="black"/>
<path d="M119.839 47.2075C119.171 47.0052 118.555 46.6598 118.033 46.1953L118.61 44.9807C119.079 45.3843 119.623 45.6935 120.209 45.8916C120.858 46.129 121.543 46.2489 122.233 46.2459C122.938 46.2916 123.642 46.1316 124.258 45.7854C124.465 45.6555 124.635 45.4746 124.752 45.2602C124.869 45.0457 124.929 44.8048 124.926 44.5606C124.932 44.3909 124.903 44.2219 124.84 44.0642C124.778 43.9065 124.683 43.7636 124.562 43.6445C124.301 43.4041 123.992 43.2213 123.656 43.1079C123.158 42.9412 122.65 42.801 122.138 42.6878C121.461 42.5351 120.797 42.3355 120.149 42.0906C119.649 41.8972 119.204 41.5844 118.853 41.1797C118.475 40.7115 118.284 40.1202 118.316 39.5196C118.309 38.9591 118.469 38.4092 118.777 37.9404C119.124 37.4388 119.609 37.0486 120.174 36.8168C120.91 36.5159 121.702 36.3728 122.497 36.3967C123.139 36.3953 123.779 36.4787 124.4 36.6448C124.975 36.7871 125.519 37.0305 126.01 37.3634L125.503 38.6136C125.049 38.3226 124.554 38.0993 124.036 37.9506C123.543 37.8028 123.031 37.7261 122.517 37.7228C121.818 37.6793 121.121 37.8563 120.528 38.2289C120.323 38.3648 120.154 38.5498 120.038 38.7672C119.922 38.9847 119.863 39.2277 119.865 39.474C119.86 39.6445 119.89 39.8141 119.954 39.9719C120.02 40.1297 120.117 40.2723 120.24 40.3901C120.507 40.6346 120.823 40.8207 121.166 40.9367C121.664 41.1002 122.171 41.2371 122.684 41.3466C123.358 41.501 124.021 41.7005 124.668 41.9439C125.162 42.1383 125.602 42.447 125.953 42.8448C126.331 43.3055 126.521 43.8902 126.49 44.4846C126.496 45.0425 126.334 45.5895 126.025 46.0536C125.673 46.5613 125.178 46.9525 124.602 47.1772C123.86 47.4751 123.064 47.6165 122.264 47.5922C121.44 47.6004 120.62 47.4704 119.839 47.2075Z" fill="black"/>
<path d="M122.218 47.7181C121.396 47.7201 120.579 47.5885 119.799 47.3284C119.117 47.1249 118.486 46.78 117.946 46.3161L117.88 46.2503L118.569 44.7977L118.695 44.9091C119.152 45.3051 119.681 45.6078 120.254 45.7999C120.884 46.0273 121.548 46.1438 122.218 46.144C122.9 46.1922 123.581 46.0391 124.176 45.7037C124.366 45.5859 124.523 45.421 124.63 45.225C124.737 45.029 124.792 44.8086 124.789 44.5852C124.796 44.4327 124.771 44.2804 124.715 44.1383C124.66 43.9961 124.574 43.8673 124.465 43.7602C124.217 43.5326 123.924 43.3601 123.605 43.2541C123.106 43.0871 122.599 42.9468 122.087 42.834C121.399 42.6798 120.723 42.4803 120.062 42.2367C119.545 42.0313 119.084 41.7071 118.716 41.2903C118.32 40.7968 118.118 40.1758 118.149 39.5442C118.15 38.9577 118.326 38.3848 118.655 37.8993C119.014 37.377 119.517 36.9693 120.102 36.7251C120.857 36.4186 121.667 36.272 122.482 36.2949C123.136 36.2954 123.787 36.3804 124.42 36.5479C125.006 36.6972 125.564 36.9472 126.065 37.2869L126.15 37.3426L125.539 38.8255L125.412 38.7446C124.967 38.4625 124.485 38.2444 123.979 38.0967C123.486 37.9509 122.975 37.876 122.461 37.874C121.791 37.8275 121.123 37.9883 120.548 38.3346C120.357 38.4575 120.201 38.6271 120.093 38.8272C119.986 39.0274 119.932 39.2515 119.935 39.4785C119.929 39.6311 119.955 39.7833 120.013 39.9249C120.071 40.0663 120.158 40.1937 120.27 40.2983C120.526 40.5267 120.828 40.6991 121.155 40.8045C121.653 40.9695 122.16 41.1065 122.673 41.2144C123.361 41.3672 124.037 41.5668 124.698 41.8117C125.211 42.0155 125.67 42.3381 126.034 42.753C126.432 43.2356 126.634 43.8496 126.601 44.4738C126.6 45.0588 126.424 45.63 126.095 46.1137C125.728 46.6404 125.214 47.0471 124.617 47.2829C123.855 47.591 123.039 47.7391 122.218 47.7181ZM118.169 46.1997C118.666 46.6089 119.238 46.9151 119.854 47.1006C120.609 47.3544 121.401 47.4826 122.198 47.4802C122.98 47.5023 123.758 47.3645 124.486 47.0753C125.037 46.857 125.511 46.4823 125.852 45.9973C126.151 45.5481 126.306 45.0185 126.297 44.4789C126.329 43.9158 126.148 43.3614 125.791 42.9251C125.454 42.5392 125.029 42.2406 124.552 42.0546C123.912 41.8118 123.255 41.6155 122.588 41.4675C122.074 41.354 121.568 41.2138 121.069 41.0474C120.709 40.9268 120.378 40.7319 120.098 40.4755C119.96 40.3458 119.852 40.1885 119.781 40.014C119.71 39.8394 119.676 39.6517 119.682 39.4632C119.681 39.1967 119.745 38.9341 119.87 38.6984C119.995 38.4628 120.175 38.2614 120.396 38.1119C121.016 37.7357 121.737 37.5591 122.461 37.6057C122.991 37.6077 123.517 37.6861 124.025 37.8386C124.506 37.9764 124.967 38.1773 125.397 38.4358L125.817 37.4236C125.359 37.1317 124.859 36.9147 124.333 36.7808C123.723 36.6189 123.093 36.5372 122.461 36.5379C121.683 36.5142 120.909 36.6539 120.189 36.9478C119.646 37.1703 119.181 37.5447 118.847 38.0258C118.552 38.4764 118.398 39.0053 118.407 39.5442C118.377 40.1147 118.557 40.6765 118.913 41.1233C119.252 41.5109 119.679 41.8111 120.158 41.9989C120.802 42.2401 121.461 42.4363 122.132 42.586C122.79 42.7429 123.306 42.8846 123.65 43.0111C124.003 43.1313 124.328 43.3244 124.602 43.578C124.736 43.709 124.842 43.8668 124.912 44.0411C124.981 44.2155 125.013 44.4026 125.006 44.5903C125.013 44.8552 124.948 45.1171 124.822 45.3497C124.694 45.5824 124.509 45.7777 124.283 45.9163C123.649 46.2888 122.917 46.4649 122.183 46.4224C121.492 46.4186 120.807 46.297 120.158 46.0631C119.608 45.8744 119.096 45.5938 118.64 45.2331L118.169 46.1997Z" fill="black"/>
<path d="M130.738 37.8997H126.993V36.5432H136.032V37.8997H132.287V47.4653H130.738V37.8997Z" fill="black"/>
<path d="M132.437 47.5948H130.635V38.029H126.87V36.4196H136.162V38.029H132.437V47.5948ZM130.888 47.3417H132.184V37.7759H135.93V36.6523H127.143V37.7557H130.888V47.3417Z" fill="black"/>
<path d="M144.145 44.7488H138.34L137.14 47.4768H135.531L140.481 36.5547H141.999L146.965 47.4768H145.325L144.145 44.7488ZM143.599 43.4987L141.245 38.1439L138.887 43.4987H143.599Z" fill="black"/>
<path d="M147.179 47.5948H145.262L144.062 44.8616H138.424L137.219 47.5948H135.331L140.392 36.4196H142.099L147.179 47.5948ZM145.428 47.3417H146.79L141.942 36.6523H140.56L135.726 47.3214H137.053L138.257 44.5884H144.229L145.428 47.3417ZM143.793 43.6166H138.692L141.222 37.8215L143.793 43.6166ZM139.076 43.3635H143.404L141.243 38.4491L139.076 43.3635Z" fill="black"/>
<path d="M150.232 37.8997H146.487V36.5432H155.522V37.8997H151.776V47.4653H150.257L150.232 37.8997Z" fill="black"/>
<path d="M151.902 47.5948H150.106V38.029H146.36V36.4196H155.647V38.029H151.902V47.5948ZM150.384 47.3417H151.669V37.7759H155.415V36.6523H146.608V37.7557H150.353L150.384 47.3417Z" fill="black"/>
<path d="M157.236 36.5432H158.8V47.4653H157.236V36.5432Z" fill="black"/>
<path d="M158.913 47.5948H157.096V36.4196H158.913V47.5948ZM157.349 47.3417H158.659V36.6523H157.349V47.3417Z" fill="black"/>
<path d="M164.013 46.8624C163.144 46.3938 162.423 45.6929 161.928 44.8379C161.434 43.9678 161.175 42.9841 161.175 41.9834C161.175 40.9826 161.434 39.9991 161.928 39.1288C162.425 38.2755 163.146 37.5751 164.013 37.1044C164.933 36.6287 165.952 36.3804 166.988 36.3804C168.022 36.3804 169.042 36.6287 169.961 37.1044C170.823 37.5676 171.541 38.2593 172.036 39.1035C172.527 39.9784 172.785 40.9648 172.785 41.9682C172.785 42.9716 172.527 43.958 172.036 44.8328C171.541 45.6757 170.823 46.3658 169.961 46.827C169.042 47.306 168.023 47.5561 166.988 47.5561C165.952 47.5561 164.932 47.306 164.013 46.827V46.8624ZM169.156 45.6527C169.791 45.2945 170.316 44.7695 170.674 44.1344C171.039 43.4781 171.231 42.7395 171.231 41.9884C171.231 41.2374 171.039 40.4988 170.674 39.8425C170.316 39.2077 169.79 38.6827 169.156 38.3241C168.496 37.9545 167.751 37.7659 166.995 37.7775C166.234 37.7673 165.484 37.9557 164.818 38.3241C164.181 38.6787 163.655 39.2046 163.3 39.8425C162.935 40.4988 162.743 41.2374 162.743 41.9884C162.743 42.7395 162.935 43.4781 163.3 44.1344C163.654 44.7727 164.18 45.2988 164.818 45.6527C165.484 46.0212 166.234 46.2096 166.995 46.1994C167.751 46.2109 168.496 46.0224 169.156 45.6527Z" fill="black"/>
<path d="M166.995 47.72C165.936 47.7351 164.891 47.479 163.959 46.976C163.077 46.5086 162.34 45.8084 161.828 44.9516C161.321 44.0618 161.054 43.0554 161.054 42.0312C161.054 41.0071 161.321 40.0006 161.828 39.1109C162.337 38.2443 163.074 37.5337 163.959 37.0561C164.897 36.5681 165.939 36.3134 166.995 36.3134C168.053 36.3134 169.095 36.5681 170.033 37.0561C170.909 37.5286 171.644 38.2277 172.158 39.0806C172.659 39.9751 172.922 40.9832 172.922 42.0085C172.922 43.0337 172.659 44.0419 172.158 44.9364C171.647 45.7923 170.912 46.4923 170.033 46.9609C169.102 47.4697 168.056 47.7312 166.995 47.72ZM164.076 46.7533C164.974 47.2222 165.974 47.467 166.988 47.467C168.002 47.467 169.001 47.2222 169.901 46.7533C170.743 46.3046 171.445 45.6299 171.925 44.8047C172.407 43.9504 172.659 42.9865 172.659 42.0059C172.659 41.0254 172.407 40.0614 171.925 39.2071C171.443 38.3818 170.742 37.7057 169.901 37.2535C169 36.7879 168.002 36.545 166.988 36.545C165.975 36.545 164.976 36.7879 164.076 37.2535C163.235 37.7101 162.535 38.3873 162.051 39.2121C161.569 40.061 161.316 41.0201 161.316 41.9958C161.316 42.9716 161.569 43.9307 162.051 44.7795C162.533 45.6055 163.234 46.283 164.076 46.7382V46.7533ZM166.995 46.3283C166.213 46.339 165.442 46.1453 164.758 45.7664C164.101 45.4024 163.554 44.865 163.18 44.2126C162.804 43.5366 162.608 42.7764 162.608 42.0034C162.608 41.2305 162.804 40.4702 163.18 39.7942C163.554 39.1433 164.101 38.6077 164.758 38.2455C165.442 37.865 166.213 37.6696 166.995 37.6786C167.774 37.6683 168.54 37.8638 169.218 38.2455C169.869 38.6112 170.41 39.1463 170.782 39.7942C171.153 40.4712 171.348 41.2311 171.348 42.0034C171.348 42.7757 171.153 43.5356 170.782 44.2126C170.41 44.8621 169.87 45.3989 169.218 45.7664C168.539 46.1463 167.773 46.3401 166.995 46.3283ZM166.995 37.9316C166.256 37.9241 165.528 38.1071 164.88 38.4631C164.263 38.8061 163.751 39.3098 163.397 39.9207C163.045 40.5585 162.86 41.275 162.86 42.0034C162.86 42.7318 163.045 43.4483 163.397 44.0861C163.75 44.6986 164.263 45.204 164.88 45.5488C165.531 45.896 166.259 46.0703 166.995 46.0549C167.728 46.0715 168.452 45.8971 169.096 45.5488C169.706 45.2017 170.212 44.6963 170.559 44.0861C170.911 43.4483 171.095 42.7318 171.095 42.0034C171.095 41.275 170.911 40.5585 170.559 39.9207C170.21 39.3131 169.705 38.8098 169.096 38.4631C168.454 38.1062 167.73 37.9231 166.995 37.9316Z" fill="black"/>
<path d="M184.568 36.5432V47.4653H183.288L176.708 39.3168V47.4653H175.149V36.5432H176.471L183.05 44.6867V36.5432H184.568Z" fill="black"/>
<path d="M184.695 47.5948H183.226L183.191 47.5492L176.86 39.6891V47.6049H175.047V36.4196H176.516L176.55 36.4651L182.882 44.3302V36.4196H184.695V47.5948ZM183.348 47.3417H184.441V36.6523H183.135V45.0287L176.394 36.6523H175.301V47.3214H176.607V38.9603L183.348 47.3417Z" fill="black"/>
<path d="M79.8681 34.5905L65.9858 48.4728L66.9199 49.4068L80.8022 35.5246L79.8681 34.5905Z" fill="black"/>
<path d="M66.9182 49.5931L65.8047 48.4796L79.8648 34.4196L80.9782 35.533L66.9182 49.5931ZM66.1641 48.4796L66.9182 49.2338L80.6189 35.533L79.8648 34.7738L66.1641 48.4796Z" fill="black"/>
</svg>
