<svg xmlns="http://www.w3.org/2000/svg" width="200" height="84" fill="none" viewBox="0 0 200 84">
  <path fill="#000" d="M44.247 36.321v-6.39h11.877V26H40v23.831h4.247v-9.578h10.596V36.32H44.248Zm15.005-3.967v17.478h4.18V32.354h-4.18Z"/>
  <path fill="#000" fill-rule="evenodd" d="M83.005 52.152c0 1.144-.25 2.094-.756 2.857a5.492 5.492 0 0 1-1.94 1.798 8.615 8.615 0 0 1-2.664.923c-.988.181-1.953.27-2.896.27a20.87 20.87 0 0 1-3.14-.237 6.598 6.598 0 0 1-2.913-1.21c-.656-.47-1.168-1.018-1.528-1.646-.36-.628-.544-1.354-.544-2.186 0-.763.177-1.463.528-2.1a3.531 3.531 0 0 1 1.512-1.463 3.24 3.24 0 0 1-1.268-1.295 3.534 3.534 0 0 1-.444-1.7c0-1.502.68-2.675 2.04-3.53a6.022 6.022 0 0 1-1.248-1.884c-.31-.716-.46-1.522-.46-2.419 0-1.032.186-1.95.56-2.758a5.762 5.762 0 0 1 1.515-2.018 6.618 6.618 0 0 1 2.22-1.226 8.57 8.57 0 0 1 2.713-.42 7.29 7.29 0 0 1 2.04.285 8.12 8.12 0 0 1 1.844.79c.373-.764.865-1.316 1.48-1.664a3.999 3.999 0 0 1 2.008-.52h.56c.24 0 .427.024.56.066v3.261l-.329-.033a3.39 3.39 0 0 0-1.3.237c-.383.158-.643.45-.772.874a6.03 6.03 0 0 1 .888 3.16c0 1.008-.193 1.906-.576 2.688a6.01 6.01 0 0 1-1.528 1.982 6.834 6.834 0 0 1-2.22 1.242 8.043 8.043 0 0 1-2.649.438 8.184 8.184 0 0 1-2.764-.47 2.33 2.33 0 0 0-.576.486c-.186.214-.28.467-.28.756 0 .516.203.858.608 1.026.406.167.827.253 1.268.253h2.829c.415 0 .865.006 1.348.016.483.013.972.056 1.464.135.492.079.975.197 1.448.352a4.7 4.7 0 0 1 1.3.67c.746.516 1.277 1.134 1.596 1.848.309.73.466 1.515.466 2.366Zm-3.88.102c0-.539-.142-.953-.428-1.242a2.544 2.544 0 0 0-1.036-.638 4.8 4.8 0 0 0-1.316-.233 26.74 26.74 0 0 0-1.3-.033H71.82a2.222 2.222 0 0 0-1.104.756c-.296.371-.444.835-.444 1.394 0 .558.148.995.444 1.311a2.94 2.94 0 0 0 1.104.723c.437.168.91.273 1.415.319.505.046.956.066 1.349.066.415 0 .888-.017 1.415-.05a5.611 5.611 0 0 0 1.48-.286 2.93 2.93 0 0 0 1.169-.723c.315-.328.476-.782.476-1.364Zm-1.812-13.917c0-.94-.27-1.72-.807-2.337-.538-.618-1.278-.924-2.22-.924-.943 0-1.684.309-2.22.924-.538.614-.809 1.393-.809 2.337 0 .94.267 1.716.808 2.32.537.605 1.278.908 2.22.908.943 0 1.683-.303 2.22-.908.541-.604.808-1.377.808-2.32Z" clip-rule="evenodd"/>
  <path fill="#000" d="M105.578 38.974v10.864h4.086V38.04c0-1.817-.466-3.287-1.399-4.42-.934-1.135-2.32-1.7-4.164-1.7-1.162 0-2.188.246-3.076.74a5.275 5.275 0 0 0-2.089 2.116 5.005 5.005 0 0 0-1.876-2.1c-.81-.503-1.821-.756-3.028-.756-1.139 0-2.117.256-2.928.772a5.952 5.952 0 0 0-1.94 1.982l-.328-2.32h-3.42v17.474h4.08v-9.546c0-.539.064-1.085.196-1.647a5.07 5.07 0 0 1 .624-1.528 3.611 3.611 0 0 1 1.052-1.108c.415-.28.92-.42 1.512-.42 1.03 0 1.728.298 2.089.89.363.595.544 1.43.544 2.505v10.854h4.08v-9.546c0-.539.064-1.085.196-1.647a5.411 5.411 0 0 1 .608-1.528 3.46 3.46 0 0 1 1.036-1.108c.415-.28.921-.42 1.513-.42 1.029 0 1.728.298 2.088.89.364.595.544 1.43.544 2.505Z"/>
  <path fill="#000" fill-rule="evenodd" d="M128.347 41.229a3.012 3.012 0 0 0-.032.437v.74h-11.449c0 .674.103 1.311.312 1.916.209.605.524 1.108.936 1.512.309.293.666.542 1.072.756.405.214.891.319 1.464.319.592 0 1.081-.063 1.464-.184a2.51 2.51 0 0 0 1.036-.654c.393-.405.669-.898.824-1.48h3.948c-.045.517-.216 1.082-.512 1.7-.296.618-.608 1.124-.936 1.529-.724.874-1.589 1.502-2.6 1.883a8.863 8.863 0 0 1-3.157.572c-1.187 0-2.21-.197-3.076-.588a8.239 8.239 0 0 1-2.32-1.562 8.504 8.504 0 0 1-1.959-3.057c-.451-1.186-.676-2.498-.676-3.931 0-1.41.203-2.718.608-3.915a8.051 8.051 0 0 1 1.857-3.077 7.164 7.164 0 0 1 2.32-1.614c.91-.404 1.956-.604 3.143-.604 1.275 0 2.456.263 3.556.788 1.094.526 1.995 1.338 2.7 2.436.634.963 1.039 1.946 1.216 2.942.171.99.261 2.038.261 3.136Zm-4.113-1.883c-.025-1.276-.376-2.298-1.055-3.057a2.986 2.986 0 0 0-1.068-.74c-.428-.178-.937-.27-1.532-.27-.634 0-1.194.125-1.68.372a3.428 3.428 0 0 0-1.184.976 3.628 3.628 0 0 0-.659 1.21c-.129.424-.209.93-.229 1.512h7.407v-.003Z" clip-rule="evenodd"/>
  <path fill="#000" d="M142.003 39.11v10.718h4.115V38.166c0-.897-.131-1.732-.395-2.505a5.684 5.684 0 0 0-1.136-1.982 5.3 5.3 0 0 0-1.812-1.295c-.71-.312-1.528-.47-2.451-.47-.985 0-1.944.22-2.877.657a4.682 4.682 0 0 0-2.156 2.035l-.297-2.252h-3.455v17.478h4.113v-7.127c0-.74.022-1.538.067-2.402.042-.862.206-1.618.493-2.268.286-.651.668-1.184 1.151-1.598.483-.414 1.088-.621 1.812-.621 1.097 0 1.841.292 2.236.874.392.582.592 1.39.592 2.42ZM160 49.598c-1.184.312-2.359.47-3.521.47-1.734 0-3.028-.477-3.883-1.43-.856-.953-1.284-2.268-1.284-3.947v-8.876h-3.128v-3.46h3.128v-4.438l4.113-1.042v5.48h4.311v3.46h-4.311v8.504c0 .674.15 1.16.46 1.463.308.302.791.453 1.447.453.437 0 .85-.01 1.233-.032.382-.024.859-.066 1.431-.135v3.53H160ZM61.334 26.02c1.403 0 2.44 1.15 2.44 2.46 0 1.37-1.037 2.395-2.44 2.395-1.431 0-2.439-1.025-2.439-2.396 0-1.308 1.008-2.459 2.44-2.459Z"/>
</svg>
