<svg width="200" height="84" viewBox="0 0 200 84" fill="none" xmlns="http://www.w3.org/2000/svg">
	<path fill-rule="evenodd" clip-rule="evenodd" d="M36.6751 22.7598C33.1141 22.7598 30.2275 25.6465 30.2275 29.2074V54.7223C30.2275 58.2831 33.1141 61.1699 36.6751 61.1699H62.1898C65.7508 61.1699 68.6375 58.2831 68.6375 54.7223V29.2074C68.6375 25.6465 65.7508 22.7598 62.1898 22.7598H36.6751ZM45.7685 47.1693C45.7685 49.1739 47.402 50.8074 49.4094 50.8074C51.416 50.8074 53.0483 49.1739 53.0483 47.1693C53.0483 46.2473 52.7041 45.3705 52.0801 44.6963L49.4094 42.0267L49.4086 42.0275L47.2284 39.848L47.2298 39.8466L43.2475 35.8646C44.3495 34.7609 45.4528 33.6585 46.5565 32.5564L49.7648 29.3489L51.8337 31.4169L47.4955 35.7528L49.4094 37.664L52.9442 34.1918L54.094 35.3376L55.1287 36.3688L51.5888 39.8446L54.3023 42.5588C55.5001 43.8465 56.1345 45.4687 56.1345 47.1699C56.1345 50.8765 53.1166 53.8913 49.4094 53.8913C45.7001 53.8913 42.684 50.8765 42.684 47.1699C42.684 45.4712 43.3185 43.8518 44.4719 42.6047L45.9715 41.105L48.1518 43.2846L46.696 44.7409C46.1125 45.3719 45.7685 46.2493 45.7685 47.1693Z" fill="black"/>
	<path d="M152.117 42.1882C152.117 47.0979 155.788 50.7995 160.667 50.7995C162.664 50.7995 164.492 50.118 165.948 48.8325L166.118 48.6777L166.552 50.2884H169.773V34.0725H166.66L166.165 35.7297L166.01 35.5903C164.523 34.3048 162.664 33.6079 160.651 33.6079C155.788 33.6079 152.117 37.294 152.117 42.1882ZM165.808 42.1882C165.808 44.976 163.795 46.9895 161.038 46.9895C158.312 46.9895 156.268 44.9141 156.268 42.1882C156.268 39.4004 158.281 37.3869 161.038 37.3869C163.795 37.3869 165.808 39.4004 165.808 42.1882Z" fill="black"/>
	<path d="M105.667 33.9175H101.532V50.3812H105.667V33.9175Z" fill="black"/>
	<path d="M139.433 33.6514C134.446 33.6514 130.667 37.3375 130.667 42.2163C130.667 47.1105 134.43 50.7966 139.433 50.7966C144.404 50.7966 148.168 47.1105 148.168 42.2163C148.152 37.3375 144.404 33.6514 139.433 33.6514ZM144.141 42.2163C144.141 44.9577 142.128 47.033 139.433 47.033C136.722 47.033 134.693 44.9731 134.693 42.2163C134.693 39.4904 136.738 37.4305 139.433 37.4305C142.097 37.415 144.141 39.4594 144.141 42.2163Z" fill="black"/>
	<path d="M139.42 33.5332C134.433 33.5332 130.654 37.2193 130.654 42.0979C130.654 46.9921 134.417 50.6782 139.42 50.6782C144.392 50.6782 148.155 46.9921 148.155 42.0979C148.14 37.2193 144.392 33.5332 139.42 33.5332ZM144.128 42.0979C144.128 44.8393 142.115 46.9147 139.42 46.9147C136.71 46.9147 134.681 44.8548 134.681 42.0979C134.681 39.3721 136.725 37.3122 139.42 37.3122C142.084 37.2968 144.128 39.3411 144.128 42.0979Z" fill="black"/>
	<path d="M121.745 42.7429L115.395 33.9302H111.786V50.3784H115.844V41.3335L122.287 50.239L122.395 50.3784H125.803V33.9457H121.729V42.7429H121.745Z" fill="black"/>
	<path d="M83.9775 50.3713H88.0697V45.4254H94.6566V41.6058H88.0697V37.8188H96.1668V33.9175H83.9775V50.3713Z" fill="black"/>
</svg>
