<svg xmlns="http://www.w3.org/2000/svg" width="200" height="84" fill="none" viewBox="0 0 200 84">
  <path fill="#000" d="M38.606 55.288c-.881-.868-1.716-1.824-2.613-2.676 4.869-5.032 6.621-6.648 9.619-10.62a10.546 10.546 0 0 0 2.304-5.047c.05-.354.063-.713.112-1.287a10.46 10.46 0 0 1 1.39 5.546c-.101 3.273-1.788 5.78-3.755 8.17-1.186 1.44-4.816 5.056-6.402 6.626-.334-.367-.301-.364-.655-.712Zm-5.678-5.984c-.17-.17-.532-.572-.694-.746A96.914 96.914 0 0 0 41.84 37.91c1.057-1.333 1.962-2.823 1.74-4.68a8.354 8.354 0 0 0-.295-1.133c.024 2.416-1.29 4.154-2.616 5.885-.351.46-.748.884-1.12 1.328a2.64 2.64 0 0 1-1.159.88c-.46.178-.959.223-1.442.128a2.924 2.924 0 0 0-2.012.176 2.975 2.975 0 0 0-1.431 1.441 3.772 3.772 0 0 0-.352 1.488c-.033 1.167-.695 1.859-1.822 1.655a20.884 20.884 0 0 1-2.59-.716.866.866 0 0 1-.664-.513.893.893 0 0 1 .066-.843c.655-1.487 1.283-2.986 1.988-4.448.553-1.145 1.231-2.22.726-3.596-.075-.206.177-.595.363-.832.853-1.086 1.735-2.155 2.61-3.229a2.716 2.716 0 0 1-.379-.382c-.386-.517-.748-1.055-1.275-1.802l2.647.257-.495-.933c1.595-.228 2.374.526 3.329 1.62a1.068 1.068 0 0 1 .628-.612c2.747-.635 6.238 1.238 8.446 4.145a4.089 4.089 0 0 1 .165 4.63 31.248 31.248 0 0 1-3.042 4.398c-2.098 2.613-2.678 3.017-8.614 9.435-.861-.823-1.47-1.505-2.311-2.354v.001Zm95.496 1.29a8.578 8.578 0 0 1-2.957-2.016 9.232 9.232 0 0 1-1.889-3.044 10.365 10.365 0 0 1-.683-3.782c-.01-1.292.222-2.575.683-3.78a9.171 9.171 0 0 1 1.889-3.038 8.625 8.625 0 0 1 2.957-2.01 9.67 9.67 0 0 1 3.792-.738 9.582 9.582 0 0 1 3.649.698 8.511 8.511 0 0 1 2.966 1.956 8.636 8.636 0 0 1 1.924 3.008c.485 1.242.728 2.568.715 3.904a10.456 10.456 0 0 1-.715 3.903 8.65 8.65 0 0 1-1.924 3.014 8.528 8.528 0 0 1-2.966 1.964c-2.397.944-5.058.93-7.445-.04l.004.002Zm1.487-15.835c-.7.235-1.355.591-1.935 1.053a7.173 7.173 0 0 0-2.397 3.613 8.246 8.246 0 0 0-.326 2.327 8.063 8.063 0 0 0 .511 2.876c.32.865.798 1.662 1.411 2.347a6.489 6.489 0 0 0 2.213 1.577c.892.392 1.856.59 2.828.581a6.735 6.735 0 0 0 2.701-.55 6.706 6.706 0 0 0 2.197-1.512 6.99 6.99 0 0 0 1.462-2.346 8.51 8.51 0 0 0 0-5.947 6.991 6.991 0 0 0-1.462-2.346 6.63 6.63 0 0 0-2.197-1.506 6.802 6.802 0 0 0-2.701-.543 7.043 7.043 0 0 0-2.305.375ZM73.533 50.594a8.578 8.578 0 0 1-2.956-2.017 9.25 9.25 0 0 1-1.89-3.044 10.38 10.38 0 0 1-.683-3.781 10.38 10.38 0 0 1 .683-3.782 9.18 9.18 0 0 1 1.89-3.038 8.625 8.625 0 0 1 2.956-2.01 9.673 9.673 0 0 1 3.792-.737 9.576 9.576 0 0 1 3.653.698 8.506 8.506 0 0 1 2.966 1.956 8.632 8.632 0 0 1 1.924 3.008c.485 1.242.728 2.568.715 3.904a10.463 10.463 0 0 1-.715 3.903 8.654 8.654 0 0 1-1.924 3.014 8.528 8.528 0 0 1-2.966 1.963c-2.397.944-5.058.93-7.445-.039v.002Zm1.491-15.836c-.7.235-1.356.591-1.936 1.054a7.177 7.177 0 0 0-2.396 3.612 8.237 8.237 0 0 0-.326 2.327 8.065 8.065 0 0 0 .511 2.876 7.32 7.32 0 0 0 1.411 2.347 6.49 6.49 0 0 0 2.213 1.577c.892.392 1.855.59 2.828.581a6.734 6.734 0 0 0 2.7-.55 6.701 6.701 0 0 0 2.198-1.512 6.974 6.974 0 0 0 1.462-2.346 8.51 8.51 0 0 0 0-5.947 6.973 6.973 0 0 0-1.462-2.346 6.616 6.616 0 0 0-2.197-1.506 6.799 6.799 0 0 0-2.701-.543 7.05 7.05 0 0 0-2.305.376Zm85.062 16.405V32.354h11.361v2.12h-9.079v6.295h7.457v2.12h-7.457v6.154H172v2.12h-11.914Zm-14.699 0V32.354h2.273v16.689h9.194v2.12h-11.467Zm-38.057 0V32.354h6.065c.832-.01 1.662.081 2.472.272a5.68 5.68 0 0 1 1.883.82c.521.361.938.857 1.208 1.435a4.75 4.75 0 0 1 .422 2.062 4.727 4.727 0 0 1-.753 2.629 4.153 4.153 0 0 1-2.213 1.667v.04a5.175 5.175 0 0 1 1.507.56c.458.256.872.586 1.226.976.371.413.657.896.843 1.422a5.718 5.718 0 0 1-.077 3.903 4.397 4.397 0 0 1-1.136 1.604 5.192 5.192 0 0 1-1.948 1.053 9.151 9.151 0 0 1-2.739.374l-6.76-.008Zm2.272-2.12h3.853a5.757 5.757 0 0 0 3.257-.808 2.66 2.66 0 0 0 .913-1.024 2.7 2.7 0 0 0 .285-1.349 3.004 3.004 0 0 0-.498-1.807 2.946 2.946 0 0 0-1.468-1.146 6.237 6.237 0 0 0-2.388-.408h-3.958l.004 6.542Zm0-8.61h3.767a5.86 5.86 0 0 0 1.066-.093c.345-.065.68-.176.996-.33a3.34 3.34 0 0 0 .837-.568 2.36 2.36 0 0 0 .568-.866c.145-.375.216-.775.211-1.177a2.92 2.92 0 0 0-.236-1.213 2.46 2.46 0 0 0-.722-.912 3.413 3.413 0 0 0-1.283-.594 7.57 7.57 0 0 0-1.884-.208h-3.318l-.002 5.96Zm-8.621 10.732-4.737-7.175h-3.477v7.175h-2.274V32.354h6.59a7.93 7.93 0 0 1 2.758.44 4.89 4.89 0 0 1 1.922 1.228 5.121 5.121 0 0 1 1.1 1.835c.251.75.374 1.536.364 2.327a5.663 5.663 0 0 1-1.168 3.742 5.638 5.638 0 0 1-3.263 1.855l-.013.026 4.942 7.355-2.744.003Zm-8.21-9.295h3.702a4.7 4.7 0 0 0 3.301-1.015 3.51 3.51 0 0 0 .84-1.24c.189-.47.274-.975.252-1.482a3.43 3.43 0 0 0-1.072-2.714 4.388 4.388 0 0 0-3.005-.946h-4.022l.003 7.397Zm-38.518 9.295V32.354h11.846v2.12h-9.577v6.606h8.135v2.12h-8.134v7.963l-2.27.002Z"/>
</svg>
