<svg xmlns="http://www.w3.org/2000/svg" width="200" height="84" fill="none" viewBox="0 0 200 84">
  <path fill="#000" d="M72.96 43.24v3.93c0 1-.294 1.977-.846 2.811a5.127 5.127 0 0 1-2.262 1.883 5.153 5.153 0 0 1-5.56-.992l1.892-1.982a2.393 2.393 0 0 0 2.279.569 2.392 2.392 0 0 0 1.666-1.648 5.162 5.162 0 0 1-6.096-1.114 5.096 5.096 0 0 1-.586-6.141 5.134 5.134 0 0 1 2.511-2.082 5.162 5.162 0 0 1 3.265-.154 5.14 5.14 0 0 1 2.698 1.836 5.1 5.1 0 0 1 1.04 3.085Zm-2.741 0a2.386 2.386 0 0 0-1.473-2.198 2.399 2.399 0 0 0-2.604.515 2.374 2.374 0 0 0-.519 2.591 2.397 2.397 0 0 0 3.895.772c.448-.445.7-1.05.7-1.68Zm14.534-5.091v10.256h-2.746l.015-.422a5.251 5.251 0 0 1-4.39.15 5.217 5.217 0 0 1-2.775-2.762 5.172 5.172 0 0 1 1.117-5.694 5.245 5.245 0 0 1 1.658-1.111 5.25 5.25 0 0 1 4.391.153l-.016-.57h2.746Zm-2.951 6.432a2.452 2.452 0 0 0-.902-3.36 2.482 2.482 0 0 0-3.378.898 2.45 2.45 0 0 0 .903 3.361 2.481 2.481 0 0 0 3.377-.899Zm7.028-3.772v2.158c0 .768.308 1.505.853 2.048a2.92 2.92 0 0 0 2.057.849v2.733a5.675 5.675 0 0 1-4-1.648 5.622 5.622 0 0 1-1.656-3.982v-7.06l2.746-.912v3.263h2.91v2.55h-2.91Zm4.666 6.153a5.11 5.11 0 0 1-.34-6.885 5.178 5.178 0 0 1 6.851-1.011 5.132 5.132 0 0 1 2.291 4.267v1.321h-7.276a2.497 2.497 0 0 0 1.875 1.158 2.514 2.514 0 0 0 2.066-.768l1.929 1.815a5.181 5.181 0 0 1-7.396.104Zm5.767-4.95a2.495 2.495 0 0 0-2.12-1.169 2.51 2.51 0 0 0-2.12 1.17h4.24Zm10.187 1.352-1.589 5.041h-2.282l-3.516-10.147h2.879l1.781 5.276 1.621-5.276h2.228l1.653 5.283 1.77-5.283h2.879l-3.516 10.147h-2.319l-1.589-5.04Zm17.609-5.215v10.256h-2.746l.015-.422a5.25 5.25 0 0 1-4.389.15 5.213 5.213 0 0 1-2.775-2.762 5.173 5.173 0 0 1 1.117-5.694 5.246 5.246 0 0 1 1.658-1.111 5.249 5.249 0 0 1 4.391.153l-.017-.57h2.746Zm-2.951 6.432a2.45 2.45 0 0 0-.902-3.36 2.48 2.48 0 0 0-3.377.898 2.44 2.44 0 0 0-.332 1.23c-.001.432.113.856.33 1.23a2.472 2.472 0 0 0 2.14 1.232 2.48 2.48 0 0 0 2.141-1.23Zm7.775 2.853-4.078-9.176h3.018l2.467 5.75 2.294-5.75h2.939l-5.568 13.754h-2.916l1.844-4.578Zm5.778-.69a1.653 1.653 0 0 1 .5-1.178 1.67 1.67 0 0 1 1.193-.479c.441 0 .864.176 1.176.486a1.652 1.652 0 0 1 0 2.343 1.67 1.67 0 0 1-1.176.486 1.676 1.676 0 0 1-1.561-1.018 1.653 1.653 0 0 1-.132-.64Zm11.464-8.46v2.55h-2.91v7.571h-2.745v-10.13a5.594 5.594 0 0 1 1.655-3.982 5.652 5.652 0 0 1 4-1.648v2.733c-.771 0-1.511.306-2.057.849a2.896 2.896 0 0 0-.853 2.048v.009h2.91Zm15.852 4.4v5.721h-2.746v-5.72c0-.437-.174-.857-.485-1.166a1.66 1.66 0 0 0-2.343 0 1.65 1.65 0 0 0-.485 1.166v5.72h-2.745v-5.72a1.65 1.65 0 0 0-1.657-1.65 1.66 1.66 0 0 0-1.531 1.019 1.63 1.63 0 0 0-.125.63v5.721h-2.746V38.15h2.746v.475a4.427 4.427 0 0 1 4.685.882 4.411 4.411 0 0 1 4.768-.848c.791.339 1.465.9 1.938 1.616.474.716.726 1.554.726 2.41ZM36 44.46l20.887-12.002.03 3.836L36 48.314V44.46Zm15.073-11.525L51.043 29 36 37.644v3.953l15.073-8.662Zm.166 9.485-3.353 1.927 11.381 6.54v-3.854L51.24 42.42Zm8.029 1.75v-6.363l-5.537 3.181 5.536 3.182Zm-2.38 8.212L45.394 45.78l-3.353 1.926 8.138 4.677-2.492 1.431-8.138-4.676-3.409 1.959L47.634 57.7l9.253-5.318Z"/>
</svg>
