<svg xmlns="http://www.w3.org/2000/svg" width="200" height="84" fill="none" viewBox="0 0 200 84">
  
  <g mask="url(#a)">
    <path fill="#000" fill-rule="evenodd" d="M24.296 46.257h2.415l-1.237 6.43h4.546l4.079-21.204c-2.51 0-4.93 1.998-5.405 4.464l-.453 2.354H25.76l-.418 2.273h2.463l-.656 3.41h-2.434l-.418 2.273Zm15.991-14.774h-4.545l-3.906 21.236c2.51 0 4.914-2.002 5.368-4.47l.366-1.992h2.63l.418-2.273h-2.629l.627-3.41h2.629l.418-2.273h-2.629l1.254-6.818Z" clip-rule="evenodd"/>
    <path fill="#000" fill-rule="evenodd" d="M33 57.775c8.712 0 15.775-7.063 15.775-15.775S41.712 26.225 33 26.225 17.225 33.288 17.225 42 24.288 57.775 33 57.775ZM33 60c9.941 0 18-8.059 18-18s-8.059-18-18-18-18 8.059-18 18 8.059 18 18 18Z" clip-rule="evenodd"/>
    <path fill="#000" d="M60.182 52.667v-20.86h4.34v9.016h8.12v-9.016h4.34v20.86h-4.34v-8.064h-8.12v8.064h-4.34Zm24.091.336c-1.101 0-2.053-.178-2.856-.532-.803-.355-1.419-.859-1.848-1.512-.43-.672-.644-1.466-.644-2.38 0-.859.196-1.615.588-2.268.392-.672.99-1.232 1.792-1.68.821-.448 1.839-.766 3.052-.952l4.676-.756v3.08l-3.92.7c-.597.112-1.055.308-1.372.588-.317.261-.476.644-.476 1.148 0 .466.177.83.532 1.092.355.261.793.392 1.316.392.69 0 1.297-.15 1.82-.448a3.11 3.11 0 0 0 1.204-1.204 3.383 3.383 0 0 0 .448-1.708v-3.976c0-.579-.233-1.064-.7-1.456-.448-.392-1.064-.588-1.848-.588a3.35 3.35 0 0 0-1.988.616c-.56.41-.97.952-1.232 1.624l-3.36-1.596a5.46 5.46 0 0 1 1.428-2.212c.653-.616 1.437-1.092 2.352-1.428.915-.336 1.913-.504 2.996-.504 1.288 0 2.427.233 3.416.7.99.466 1.755 1.12 2.296 1.96.56.821.84 1.782.84 2.884v6.72h1.68v3.36h-5.6v-2.464l.952-.168a7.707 7.707 0 0 1-1.484 1.68 5.475 5.475 0 0 1-1.82.952c-.672.224-1.419.336-2.24.336Zm17.674 0c-1.68 0-3.145-.392-4.396-1.176-1.232-.803-2.072-1.876-2.52-3.22l3.08-1.456c.392.821.924 1.465 1.596 1.932.672.466 1.419.7 2.24.7.598 0 1.055-.122 1.372-.364.318-.243.476-.579.476-1.008a.907.907 0 0 0-.168-.56 1.495 1.495 0 0 0-.504-.448 3.578 3.578 0 0 0-.84-.336l-2.604-.728c-1.25-.355-2.212-.924-2.884-1.708-.672-.803-1.008-1.746-1.008-2.828 0-.952.243-1.783.728-2.492.486-.71 1.167-1.26 2.044-1.652.878-.41 1.886-.616 3.024-.616 1.494 0 2.8.354 3.92 1.064 1.139.69 1.942 1.67 2.408 2.94l-3.108 1.456a2.87 2.87 0 0 0-1.232-1.512c-.578-.392-1.241-.588-1.988-.588-.541 0-.97.112-1.288.336-.298.224-.448.532-.448.924 0 .205.056.392.168.56.112.168.29.317.532.448.262.13.579.252.952.364l2.436.728c1.27.373 2.24.942 2.912 1.708.672.746 1.008 1.67 1.008 2.772 0 .952-.252 1.782-.756 2.492-.485.71-1.166 1.27-2.044 1.68-.877.392-1.913.588-3.108.588Zm7.578-.336V31.47h4.2v8.932l-.504-.672c.355-.915.924-1.587 1.708-2.016.803-.448 1.736-.672 2.8-.672 1.158 0 2.166.242 3.024.728a5.122 5.122 0 0 1 2.044 2.044c.486.858.728 1.866.728 3.024v9.828h-4.2v-8.932c0-.598-.121-1.111-.364-1.54a2.424 2.424 0 0 0-.98-1.008c-.41-.243-.896-.364-1.456-.364a2.91 2.91 0 0 0-1.456.364 2.62 2.62 0 0 0-1.008 1.008c-.224.429-.336.942-.336 1.54v8.932h-4.2Zm15.922 0V37.379h3.92v3.024l-.224-.672c.354-.915.924-1.587 1.708-2.016.802-.448 1.736-.672 2.8-.672 1.157 0 2.165.242 3.024.728a5.135 5.135 0 0 1 2.044 2.044c.485.858.728 1.866.728 3.024v9.828h-4.2v-8.932c0-.598-.122-1.11-.364-1.54a2.43 2.43 0 0 0-.98-1.008c-.411-.243-.896-.364-1.456-.364a2.9 2.9 0 0 0-1.456.364c-.43.242-.766.578-1.008 1.008-.224.43-.336.942-.336 1.54v8.932h-4.2Zm23.51.336c-1.512 0-2.894-.346-4.144-1.036a8.132 8.132 0 0 1-2.968-2.828c-.728-1.214-1.092-2.586-1.092-4.116 0-1.55.364-2.922 1.092-4.116a8.134 8.134 0 0 1 2.968-2.828c1.25-.69 2.632-1.036 4.144-1.036s2.884.345 4.116 1.036a7.918 7.918 0 0 1 2.94 2.828c.746 1.194 1.12 2.566 1.12 4.116 0 1.53-.374 2.902-1.12 4.116a7.917 7.917 0 0 1-2.94 2.828c-1.232.69-2.604 1.036-4.116 1.036Zm0-3.78c.765 0 1.428-.178 1.988-.532a3.58 3.58 0 0 0 1.344-1.484c.336-.635.504-1.363.504-2.184 0-.822-.168-1.54-.504-2.156a3.582 3.582 0 0 0-1.344-1.484c-.56-.374-1.223-.56-1.988-.56-.766 0-1.438.186-2.016.56a3.764 3.764 0 0 0-1.372 1.484c-.318.616-.476 1.334-.476 2.156 0 .821.158 1.55.476 2.184.336.634.793 1.13 1.372 1.484.578.354 1.25.532 2.016.532Zm16.9 3.612c-1.848 0-3.285-.495-4.312-1.484-1.008-1.008-1.512-2.408-1.512-4.2v-6.132h-2.576v-3.64h.14c.784 0 1.382-.196 1.792-.588.43-.392.644-.98.644-1.764v-1.12h4.2v3.472h3.584v3.64h-3.584v5.852c0 .522.094.961.28 1.316.187.336.476.588.868.756.392.168.878.252 1.456.252.131 0 .28-.01.448-.028.168-.019.346-.038.532-.056v3.556c-.28.037-.597.074-.952.112a9.61 9.61 0 0 1-1.008.056Zm10.946.168c-1.624 0-3.034-.355-4.228-1.064a7.545 7.545 0 0 1-2.772-2.912c-.654-1.214-.98-2.558-.98-4.032 0-1.53.336-2.894 1.008-4.088a7.738 7.738 0 0 1 2.772-2.828c1.157-.69 2.464-1.036 3.92-1.036 1.213 0 2.286.196 3.22.588.933.373 1.717.905 2.352 1.596a6.958 6.958 0 0 1 1.484 2.408c.336.896.504 1.876.504 2.94 0 .298-.019.597-.056.896-.019.28-.066.522-.14.728h-11.452v-3.08h9.072l-1.988 1.456c.186-.803.177-1.512-.028-2.128-.206-.635-.57-1.13-1.092-1.484-.504-.374-1.13-.56-1.876-.56-.728 0-1.354.177-1.876.532-.523.354-.915.877-1.176 1.568-.262.69-.364 1.53-.308 2.52-.075.858.028 1.614.308 2.268a3.36 3.36 0 0 0 1.288 1.54c.578.354 1.278.532 2.1.532.746 0 1.381-.15 1.904-.448.541-.299.961-.71 1.26-1.232l3.36 1.596a5.022 5.022 0 0 1-1.428 1.96c-.635.56-1.391.998-2.268 1.316-.878.298-1.839.448-2.884.448Z"/>
  </g>
</svg>
