<svg xmlns="http://www.w3.org/2000/svg" width="200" height="84" fill="none" viewBox="0 0 200 84">
  <g clip-path="url(#a)">
    <mask id="b" width="145" height="45" x="28" y="20" maskUnits="userSpaceOnUse" style="mask-type:luminance">
      <path fill="#fff" d="M172.797 20H28v44.797h144.797V20Z"/>
    </mask>
    <g mask="url(#b)">
      <mask id="c" width="145" height="45" x="28" y="20" maskUnits="userSpaceOnUse" style="mask-type:luminance">
        <path fill="#fff" d="M172.797 20H28v44.797h144.797V20Z"/>
      </mask>
      <g mask="url(#c)">
        <path fill="#000" d="m34.081 21.337-5.889-1.333a.158.158 0 0 0-.192.154V43.39c0 .1.092.175.19.155l5.888-1.212a.158.158 0 0 0 .126-.155V21.491a.158.158 0 0 0-.123-.154Zm10.069 0 5.888-1.333a.158.158 0 0 1 .192.154V43.39c0 .1-.091.175-.19.155l-5.888-1.212a.158.158 0 0 1-.126-.155V21.491c0-.074.051-.137.123-.154Z"/>
        <mask id="d" width="7" height="7" x="36" y="28" maskUnits="userSpaceOnUse" style="mask-type:alpha">
          <path fill="#0072E5" d="M42.217 34.665c0 .075-.06.136-.135.136h-5.933a.136.136 0 0 1-.135-.136v-5.932c0-.075.06-.136.135-.136h5.933c.075 0 .135.061.135.136v5.932Z"/>
        </mask>
        <g mask="url(#d)">
          <path fill="#000" d="M36.014 28.597h6.203l-6.203 6.204v-6.204Z"/>
          <path fill="#000" d="M42.217 34.801h-6.203l6.203-6.204v6.204Z"/>
        </g>
        <path fill="#000" d="M111.184 20.552a.158.158 0 0 0-.158.157v8.537c0 .087-.07.158-.157.158h-8.761a.158.158 0 0 1-.158-.158v-8.537a.158.158 0 0 0-.157-.157h-4.607a.158.158 0 0 0-.158.157v22.055c0 .087.07.158.158.158h4.607c.086 0 .157-.07.157-.158V34.1c0-.087.071-.158.158-.158h8.761c.087 0 .157.07.157.158v8.664c0 .087.071.158.158.158h4.606c.086 0 .157-.07.157-.158V20.71a.158.158 0 0 0-.157-.157h-4.606Zm-47.05 5.966a.095.095 0 0 1 .175 0l2.83 6.91a.095.095 0 0 1-.087.13H61.39a.095.095 0 0 1-.087-.13l2.83-6.91Zm-2.013-6.125a.158.158 0 0 0-.145.095l-9.453 22.215a.158.158 0 0 0 .144.219h4.674a.158.158 0 0 0 .146-.098l1.965-4.821a.158.158 0 0 1 .146-.098h9.247c.064 0 .122.039.146.098l1.965 4.82c.025.06.082.099.146.099h4.802a.159.159 0 0 0 .145-.22l-9.454-22.214a.158.158 0 0 0-.145-.095h-4.33Zm14.455 19.371a.156.156 0 0 1-.017-.218l2.71-3.247a.159.159 0 0 1 .222-.02c1.976 1.604 4.052 2.617 6.558 2.617 2.013 0 3.227-.799 3.227-2.11v-.063c0-1.247-.766-1.885-4.506-2.844-4.506-1.15-7.414-2.397-7.414-6.839v-.064c0-4.06 3.26-6.743 7.83-6.743 3.204 0 5.947.989 8.194 2.753a.156.156 0 0 1 .031.212l-2.383 3.456a.159.159 0 0 1-.22.04c-1.937-1.32-3.842-2.115-5.686-2.115-1.886 0-2.876.862-2.876 1.95v.063c0 1.47.959 1.95 4.826 2.94 4.537 1.183 7.094 2.813 7.094 6.71v.064c0 4.443-3.387 6.936-8.213 6.936-3.339 0-6.711-1.15-9.377-3.478Zm56.562-19.212a.158.158 0 0 0-.158.157v22.055c0 .087.071.158.158.158h16.718c.087 0 .158-.07.158-.158v-4.063a.158.158 0 0 0-.158-.157h-11.83a.157.157 0 0 1-.157-.158v-4.383c0-.087.07-.157.157-.157h10.233c.087 0 .158-.07.158-.158v-4.063a.158.158 0 0 0-.158-.157h-10.233a.157.157 0 0 1-.157-.158v-4.223c0-.087.07-.157.157-.157h11.671c.087 0 .157-.07.157-.158V20.71a.157.157 0 0 0-.157-.157h-16.559Zm34.286 0a.157.157 0 0 0-.135.076l-5.25 8.679a.158.158 0 0 1-.271-.002l-5.158-8.676a.155.155 0 0 0-.134-.078h-5.377a.158.158 0 0 0-.133.243l8.418 13.269a.157.157 0 0 1 .024.084v8.617c0 .087.071.158.158.158h4.607c.087 0 .158-.07.158-.158v-8.712c0-.03.008-.06.025-.085l8.417-13.173a.158.158 0 0 0-.134-.242h-5.215Zm-43.184 0a.159.159 0 0 0-.111.047l-3.432 3.43-3.367 3.367a.159.159 0 0 0 0 .223l3.256 3.255a.158.158 0 0 0 .223 0l3.366-3.366 3.478-3.478 3.316-3.316a.094.094 0 0 0-.067-.162h-6.662Z"/>
        <mask id="e" width="14" height="11" x="117" y="32" maskUnits="userSpaceOnUse" style="mask-type:alpha">
          <path fill="#66B3FF" d="M120.853 32.732a.157.157 0 0 0-.222 0l-3.211 3.21a.159.159 0 0 0 0 .223l6.71 6.71c.03.03.07.046.112.046h6.572a.094.094 0 0 0 .067-.16l-10.028-10.03Z"/>
        </mask>
        <g mask="url(#e)">
          <path fill="#000" d="m124.176 36.054-3.434-3.433-3.433 3.433h6.867Zm-6.867.001 3.433 3.434 3.434-3.434h-6.867Zm10.301 3.434-3.434-3.434-3.434 3.434h6.868Z"/>
          <path fill="#000" d="m120.742 39.488 3.434 3.434 3.434-3.434h-6.868Z"/>
          <path fill="#000" d="M124.176 42.922h6.867l-3.434-3.434-3.433 3.434Z"/>
        </g>
        <path fill="#000" d="M96.778 52.98c0-.121.146-.182.231-.097l5.42 5.384a.135.135 0 0 1 .001.192l-5.42 5.456a.136.136 0 0 1-.232-.096V52.98Zm57.676 11.333c-.129 0-.209-.08-.209-.209V52.753c0-.129.08-.209.209-.209h3.911c3.913 0 5.949 2.18 5.949 5.884 0 3.688-2.036 5.885-5.949 5.885h-3.911Zm3.671-9.733h-1.715v7.696h1.715c2.613 0 3.944-1.379 3.944-3.848s-1.331-3.848-3.944-3.848Zm-11.334 9.957c-2.31 0-4.763-1.283-4.763-5.018v-6.766c0-.129.08-.209.209-.209h1.747c.128 0 .208.08.208.209v6.38c0 2.31 1.123 3.288 2.599 3.288 1.458 0 2.612-.978 2.612-3.287v-6.381c0-.129.08-.209.209-.209h1.748c.127 0 .209.08.209.209v6.766c0 3.735-2.47 5.018-4.778 5.018Zm-13.311 0c-3.431 0-5.932-2.421-5.932-6.109 0-3.687 2.501-6.108 5.932-6.108 3.431 0 5.932 2.42 5.932 6.108 0 3.688-2.501 6.109-5.932 6.109Zm0-2.117c2.261 0 3.688-1.667 3.688-3.992s-1.427-3.992-3.688-3.992-3.687 1.667-3.687 3.992 1.426 3.992 3.687 3.992Zm-14.864 1.893c-.128 0-.208-.08-.208-.209V52.753c0-.129.08-.209.208-.209h1.748c.128 0 .208.08.208.209v9.491h5.677c.128 0 .208.08.208.209v1.651c0 .129-.08.209-.208.209h-7.633Z"/>
        <path fill="#000" fill-rule="evenodd" d="M114.913 55.892a.139.139 0 0 0 .209-.008l1.216-1.527a.133.133 0 0 0-.01-.179 6.664 6.664 0 0 0-4.587-1.87c-3.593 0-6.365 2.632-6.365 6.075 0 3.476 2.737 6.142 6.279 6.142 1.748 0 3.448-.79 4.686-2.003a.134.134 0 0 0 .005-.185l-1.229-1.37a.138.138 0 0 0-.197-.007c-.848.789-1.974 1.323-3.145 1.323-2.23 0-3.969-1.722-3.969-3.934 0-2.195 1.739-3.918 3.969-3.918 1.201 0 2.325.604 3.138 1.461Z" clip-rule="evenodd"/>
      </g>
    </g>
  </g>
  <defs>
    <clipPath id="a">
      <path fill="#fff" d="M28 20h145v44.797H28z"/>
    </clipPath>
  </defs>
</svg>
