<svg width="200" height="84" viewBox="0 0 200 84" fill="black" xmlns="http://www.w3.org/2000/svg">
<path d="M174.118 36.2825H175.876L179.073 41.6314L182.27 36.2825H184.036L179.831 42.9269V47.4121H178.323V42.9269L174.118 36.2825Z" fill="black"/>
<path d="M174.317 36.2825V37.6083H170.566V47.4121H169.036V37.6083H165.286V36.2825H174.317Z" fill="black"/>
<path d="M162.959 36.2825H164.482V47.4121H162.959V36.2825Z" fill="black"/>
<path d="M157.301 41.3814C158.009 41.3814 158.567 41.2399 158.976 40.9571C159.39 40.6742 159.597 40.1641 159.597 39.4267C159.597 38.6337 159.309 38.0932 158.733 37.8053C158.425 37.6538 158.014 37.578 157.498 37.578H153.816V41.3814H157.301ZM152.309 36.2825H157.461C158.309 36.2825 159.009 36.4062 159.559 36.6537C160.605 37.1285 161.127 38.0048 161.127 39.2827C161.127 39.9494 160.989 40.4949 160.711 40.9192C160.438 41.3435 160.054 41.6844 159.559 41.942C159.994 42.1188 160.319 42.3511 160.537 42.639C160.759 42.9269 160.882 43.3941 160.908 44.0407L160.961 45.5332C160.976 45.9575 161.011 46.2732 161.067 46.4802C161.158 46.8338 161.319 47.0611 161.552 47.1621V47.4121H159.703C159.653 47.3162 159.612 47.1924 159.582 47.0409C159.552 46.8894 159.526 46.5964 159.506 46.162L159.415 44.3058C159.38 43.5785 159.11 43.0911 158.605 42.8436C158.317 42.7072 157.865 42.639 157.248 42.639H153.816V47.4121H152.309V36.2825Z" fill="black"/>
<path d="M148.21 42.8512L146.521 37.9341L144.725 42.8512H148.21ZM145.733 36.2825H147.437L151.476 47.4121H149.824L148.695 44.0785H144.293L143.089 47.4121H141.543L145.733 36.2825Z" fill="black"/>
<path d="M134.582 36.2825H136.089V46.0863H141.726V47.4121H134.582V36.2825Z" fill="black"/>
<path d="M125.725 36.2825V43.1618C125.725 43.9699 125.877 44.6417 126.18 45.1771C126.629 45.9853 127.387 46.3893 128.453 46.3893C129.731 46.3893 130.599 45.9524 131.059 45.0786C131.306 44.6038 131.43 43.9649 131.43 43.1618V36.2825H132.961V42.533C132.961 43.9018 132.776 44.9549 132.408 45.6923C131.731 47.0358 130.453 47.7076 128.574 47.7076C126.695 47.7076 125.42 47.0358 124.748 45.6923C124.379 44.9549 124.195 43.9018 124.195 42.533V36.2825H125.725Z" fill="black"/>
<path d="M117.544 35.9941C118.59 35.9941 119.494 36.1962 120.256 36.6002C121.363 37.1811 122.039 38.1989 122.287 39.6535H120.794C120.613 38.8403 120.236 38.2494 119.665 37.8807C119.095 37.5069 118.375 37.32 117.506 37.32C116.476 37.32 115.607 37.7064 114.9 38.4792C114.198 39.252 113.847 40.4036 113.847 41.934C113.847 43.2573 114.137 44.3357 114.718 45.1691C115.299 45.9975 116.246 46.4116 117.559 46.4116C118.564 46.4116 119.395 46.1212 120.052 45.5403C120.714 44.9544 121.052 44.0099 121.067 42.7068H117.582V41.4567H122.469V47.4117H121.499L121.135 45.9798C120.625 46.5404 120.173 46.9293 119.779 47.1465C119.117 47.5203 118.276 47.7072 117.256 47.7072C115.938 47.7072 114.804 47.2804 113.854 46.4268C112.819 45.356 112.301 43.8862 112.301 42.0173C112.301 40.1536 112.806 38.6711 113.817 37.57C114.776 36.5194 116.019 35.9941 117.544 35.9941Z" fill="black"/>
<path d="M102.24 36.2825H104.02L109.642 45.2983V36.2825H111.074V47.4121H109.384L103.679 38.4038V47.4121H102.24V36.2825Z" fill="black"/>
<path d="M98.9829 36.2825H100.506V47.4121H98.9829V36.2825Z" fill="black"/>
<path d="M89.9988 43.821C90.0341 44.4524 90.1831 44.965 90.4458 45.359C90.9458 46.0964 91.8272 46.4651 93.0899 46.4651C93.6556 46.4651 94.1708 46.3843 94.6355 46.2227C95.5345 45.9095 95.9841 45.3489 95.9841 44.5407C95.9841 43.9346 95.7947 43.5028 95.4158 43.2452C95.032 42.9926 94.4309 42.7729 93.6127 42.586L92.105 42.2451C91.1201 42.0229 90.423 41.7779 90.0139 41.5102C89.3068 41.0455 88.9532 40.351 88.9532 39.4267C88.9532 38.4266 89.2992 37.6059 89.9912 36.9644C90.6832 36.3229 91.663 36.0022 92.9308 36.0022C94.0976 36.0022 95.0875 36.285 95.9007 36.8507C96.719 37.4114 97.1281 38.3105 97.1281 39.5479H95.7113C95.6356 38.9519 95.4739 38.4948 95.2264 38.1766C94.7668 37.5958 93.9864 37.3053 92.8853 37.3053C91.9964 37.3053 91.3574 37.4922 90.9685 37.866C90.5796 38.2397 90.3851 38.6741 90.3851 39.1691C90.3851 39.7146 90.6124 40.1136 91.067 40.3662C91.365 40.5278 92.0393 40.7298 93.0899 40.9723L94.6506 41.3284C95.4032 41.5001 95.9841 41.735 96.3932 42.033C97.1003 42.5532 97.4539 43.3083 97.4539 44.2983C97.4539 45.5307 97.0044 46.4121 96.1053 46.9425C95.2113 47.4728 94.1708 47.738 92.9838 47.738C91.5999 47.738 90.5165 47.3844 89.7336 46.6773C88.9507 45.9752 88.5668 45.0231 88.582 43.821H89.9988Z" fill="black"/>
<path d="M85.0979 42.8512L83.4083 37.9341L81.6127 42.8512H85.0979ZM82.6204 36.2825H84.3251L88.3633 47.4121H86.7116L85.5827 44.0785H81.1809L79.9762 47.4121H78.4307L82.6204 36.2825Z" fill="black"/>
<path d="M74.0665 41.3814C74.7737 41.3814 75.3318 41.2399 75.7409 40.9571C76.1551 40.6742 76.3622 40.1641 76.3622 39.4267C76.3622 38.6337 76.0743 38.0932 75.4985 37.8053C75.1904 37.6538 74.7787 37.578 74.2635 37.578H70.5814V41.3814H74.0665ZM69.0737 36.2825H74.2257C75.0742 36.2825 75.7738 36.4062 76.3243 36.6537C77.3698 37.1285 77.8926 38.0048 77.8926 39.2827C77.8926 39.9494 77.7537 40.4949 77.4759 40.9192C77.2032 41.3435 76.8193 41.6844 76.3243 41.942C76.7587 42.1188 77.0845 42.3511 77.3017 42.639C77.5239 42.9269 77.6476 43.3941 77.6729 44.0407L77.7259 45.5332C77.7411 45.9575 77.7764 46.2732 77.832 46.4802C77.9229 46.8338 78.0845 47.0611 78.3169 47.1621V47.4121H76.4683C76.4177 47.3162 76.3773 47.1924 76.347 47.0409C76.3167 46.8894 76.2915 46.5964 76.2713 46.162L76.1804 44.3058C76.145 43.5785 75.8748 43.0911 75.3697 42.8436C75.0818 42.7072 74.6297 42.639 74.0135 42.639H70.5814V47.4121H69.0737V36.2825Z" fill="black"/>
<path d="M60.272 36.2825H67.9923V37.6462H61.7797V41.0253H67.2422V42.3511H61.7797V47.4121H60.272V36.2825Z" fill="black"/>
<path d="M49.6348 36.2825H51.4152L57.0369 45.2983V36.2825H58.4688V47.4121H56.7793L51.0743 38.4038V47.4121H49.6348V36.2825Z" fill="black"/>
<path d="M46.3784 36.2825H47.9013V47.4121H46.3784V36.2825Z" fill="black"/>
<circle cx="27.6185" cy="44.473" r="0.706361" fill="black"/>
<circle cx="27.6185" cy="47.2996" r="0.706361" fill="black"/>
<circle cx="27.6185" cy="50.1241" r="0.706361" fill="black"/>
<circle cx="27.6185" cy="52.9487" r="0.706361" fill="black"/>
<circle cx="27.6185" cy="31.0511" r="0.706361" fill="black"/>
<circle cx="27.6185" cy="33.8777" r="0.706361" fill="black"/>
<circle cx="27.6185" cy="36.6999" r="0.706361" fill="black"/>
<circle cx="27.6185" cy="39.5268" r="0.706361" fill="black"/>
<circle cx="25.1467" cy="41.9979" r="0.706361" transform="rotate(90 25.1467 41.9979)" fill="black"/>
<circle cx="22.3205" cy="41.9979" r="0.706361" transform="rotate(90 22.3205 41.9979)" fill="black"/>
<circle cx="19.4958" cy="41.9979" r="0.706361" transform="rotate(90 19.4958 41.9979)" fill="black"/>
<circle cx="16.6701" cy="41.9979" r="0.706361" transform="rotate(90 16.6701 41.9979)" fill="black"/>
<circle cx="38.5681" cy="41.9979" r="0.706361" transform="rotate(90 38.5681 41.9979)" fill="black"/>
<circle cx="35.7419" cy="41.9979" r="0.706361" transform="rotate(90 35.7419 41.9979)" fill="black"/>
<circle cx="32.9172" cy="41.9979" r="0.706361" transform="rotate(90 32.9172 41.9979)" fill="black"/>
<circle cx="30.0915" cy="41.9979" r="0.706361" transform="rotate(90 30.0915 41.9979)" fill="black"/>
<circle cx="25.8721" cy="40.2502" r="0.706361" transform="rotate(135 25.8721 40.2502)" fill="black"/>
<circle cx="23.8746" cy="38.2526" r="0.706361" transform="rotate(135 23.8746 38.2526)" fill="black"/>
<circle cx="21.877" cy="36.255" r="0.706361" transform="rotate(135 21.877 36.255)" fill="black"/>
<circle cx="19.878" cy="34.2562" r="0.706361" transform="rotate(135 19.878 34.2562)" fill="black"/>
<circle cx="35.3619" cy="49.7406" r="0.706361" transform="rotate(135 35.3619 49.7406)" fill="black"/>
<circle cx="33.3629" cy="47.7429" r="0.706361" transform="rotate(135 33.3629 47.7429)" fill="black"/>
<circle cx="31.3658" cy="45.7441" r="0.706361" transform="rotate(135 31.3658 45.7441)" fill="black"/>
<circle cx="29.3678" cy="43.7466" r="0.706361" transform="rotate(135 29.3678 43.7466)" fill="black"/>
<circle cx="25.8711" cy="43.7467" r="0.706361" transform="rotate(45 25.8711 43.7467)" fill="black"/>
<circle cx="23.874" cy="45.7444" r="0.706361" transform="rotate(45 23.874 45.7444)" fill="black"/>
<circle cx="21.875" cy="47.7432" r="0.706361" transform="rotate(45 21.875 47.7432)" fill="black"/>
<circle cx="19.8779" cy="49.7409" r="0.706361" transform="rotate(45 19.8779 49.7409)" fill="black"/>
<circle cx="35.3613" cy="34.2568" r="0.706361" transform="rotate(45 35.3613 34.2568)" fill="black"/>
<circle cx="33.3643" cy="36.2544" r="0.706361" transform="rotate(45 33.3643 36.2544)" fill="black"/>
<circle cx="31.3657" cy="38.2532" r="0.706361" transform="rotate(45 31.3657 38.2532)" fill="black"/>
<circle cx="29.3682" cy="40.2509" r="0.706361" transform="rotate(45 29.3682 40.2509)" fill="black"/>
</svg>
