<svg width="200" height="84" viewBox="0 0 200 84" fill="none" xmlns="http://www.w3.org/2000/svg">
	<path d="M45.5635 37.1649H43.9478L43.4335 39.5823H48.0029C48.2431 39.5823 48.4802 39.636 48.6969 39.7393C48.9136 39.8427 49.1045 39.9932 49.2556 40.1799C49.4067 40.3665 49.5141 40.5846 49.5701 40.8181C49.6261 41.0516 49.6292 41.2946 49.5791 41.5295L47.6953 50.3924C47.6185 50.7536 47.4199 51.0776 47.1328 51.3099C46.8457 51.5423 46.4875 51.669 46.1182 51.6688H35.9209L36.9494 46.8339H40.173L40.6864 44.4164H37.4637L40.0323 32.33H49.544C49.7841 32.3299 50.0212 32.3836 50.2379 32.4869C50.4546 32.5903 50.6455 32.7408 50.7966 32.9275C50.9477 33.1141 51.0552 33.3322 51.1111 33.5657C51.1671 33.7992 51.1702 34.0423 51.1202 34.2771L50.1646 38.7771H45.2215L45.5635 37.1649Z" fill="white"/>
	<path d="M35.5377 46.8347H33.5246L32.4961 51.6696H34.5109L35.5386 46.8347H35.5377Z" fill="white"/>
	<path d="M32.1138 46.8347H30.0989L29.0713 51.6696H31.0861L32.1138 46.8347Z" fill="white"/>
	<path d="M21.1919 32.33C20.4306 32.33 19.7739 32.8627 19.6157 33.6064L15.7759 51.6697H20.7189L24.8295 32.33H21.1919ZM28.0416 32.33C27.2804 32.33 26.6228 32.8627 26.4646 33.6064L22.6257 51.6697H27.5687L29.1097 44.4173H32.6357L33.6642 39.5823H30.1374L30.6516 37.1649H37.192L38.2187 32.33H28.0416ZM61.2251 47.5055V36.4792H64.2139V47.5055H61.2251ZM78.1473 47.5055L70.6769 39.9296V47.5055H67.688V36.4792H70.9345L78.4128 44.0867V36.4792H81.3867V47.5055H78.1473ZM87.8409 38.8299V40.7489H95.037V43.1004H87.8409V47.5063H84.852V36.4792H95.4317V38.8299H87.8409Z" fill="white"/>
	<path d="M108.187 39.5842C107.916 39.4565 107.639 39.3413 107.358 39.2388C106.975 39.0984 106.585 38.9781 106.189 38.8783C105.722 38.7537 105.249 38.6569 104.77 38.5882C104.251 38.5075 103.725 38.4675 103.199 38.4687C102.769 38.4687 102.401 38.4819 102.095 38.5082C101.795 38.5346 101.539 38.5698 101.331 38.6128C101.161 38.6444 100.996 38.6954 100.838 38.7649C100.72 38.8186 100.629 38.8748 100.564 38.9337C100.508 38.9812 100.464 39.0415 100.436 39.1095C100.42 39.1621 100.412 39.2165 100.411 39.2713C100.411 39.4313 100.492 39.5728 100.653 39.6959C100.814 39.8137 101.034 39.9209 101.314 40.0167C101.593 40.1082 101.918 40.1961 102.289 40.2822C102.66 40.3622 103.052 40.4475 103.465 40.5389C103.884 40.6242 104.314 40.7209 104.755 40.8272C105.2 40.9292 105.63 41.0497 106.044 41.1885C106.45 41.3226 106.846 41.4863 107.228 41.6782C107.599 41.8602 107.924 42.0738 108.203 42.3199C108.483 42.5661 108.703 42.85 108.864 43.1709C109.025 43.4917 109.106 43.8583 109.106 44.2697C109.106 44.7998 109.012 45.2543 108.824 45.6349C108.643 46.006 108.384 46.3342 108.066 46.5975C107.741 46.8675 107.374 47.0816 106.979 47.2313C106.555 47.389 106.118 47.5096 105.673 47.5917C105.218 47.6783 104.757 47.7349 104.295 47.7614C103.833 47.7878 103.393 47.801 102.974 47.801C101.877 47.801 100.862 47.7104 99.9276 47.5285C98.9984 47.3518 98.1764 47.1294 97.4617 46.8621V44.2302C98.1975 44.6372 99.0353 44.9554 99.9759 45.1848C100.922 45.4151 101.932 45.5303 103.006 45.5303C103.64 45.5303 104.155 45.4978 104.553 45.4336C104.956 45.3642 105.271 45.2789 105.496 45.1769C105.722 45.0706 105.875 44.9554 105.955 44.8323C106.029 44.7288 106.071 44.6059 106.076 44.4789C106.076 44.3031 105.996 44.1502 105.834 44.0218C105.673 43.8882 105.453 43.773 105.174 43.6763C104.855 43.5638 104.529 43.4727 104.198 43.4038C103.828 43.3177 103.433 43.235 103.014 43.155C102.601 43.0689 102.174 42.9783 101.732 42.8825C101.293 42.7858 100.862 42.6733 100.444 42.545C100.03 42.4113 99.6375 42.2584 99.2665 42.0878C98.9165 41.9243 98.5888 41.7167 98.2916 41.4699C98.0206 41.2393 97.7964 40.9587 97.6314 40.6435C97.4648 40.3041 97.3819 39.9297 97.3897 39.5517C97.3897 39.0647 97.4749 38.6445 97.6472 38.292C97.8187 37.9386 98.0499 37.6388 98.3399 37.3927C98.6436 37.1366 98.9864 36.9309 99.3553 36.7835C99.749 36.6262 100.156 36.5053 100.572 36.4222C100.997 36.336 101.426 36.278 101.862 36.2455C102.297 36.213 102.711 36.1971 103.103 36.1971C103.533 36.1971 103.973 36.2191 104.424 36.2613C104.88 36.3044 105.329 36.3659 105.77 36.4459C106.21 36.5206 106.635 36.6094 107.043 36.7105C107.457 36.8125 107.838 36.9197 108.187 37.0323V39.5842ZM118.147 38.8775V47.5047H115.158V38.8775H110.46V36.4776H122.853V38.8775H118.147ZM139.002 41.9991C139.002 42.9458 138.828 43.7836 138.478 44.5106C138.133 45.2282 137.619 45.851 136.979 46.325C136.329 46.8111 135.54 47.1803 134.61 47.4326C133.686 47.6788 132.647 47.8018 131.492 47.8018C130.337 47.8018 129.291 47.6788 128.357 47.4326C127.428 47.1803 126.635 46.8111 125.98 46.325C125.336 45.8519 124.816 45.2296 124.465 44.5115C124.11 43.7836 123.933 42.9467 123.933 41.9991C123.933 41.0523 124.11 40.218 124.465 39.4954C124.814 38.774 125.334 38.1488 125.98 37.674C126.635 37.187 127.428 36.8213 128.357 36.5751C129.291 36.3229 130.337 36.1971 131.492 36.1971C132.647 36.1971 133.686 36.3229 134.61 36.5751C135.54 36.8213 136.329 37.187 136.979 37.674C137.62 38.1495 138.135 38.7749 138.478 39.4954C138.828 40.218 139.002 41.0523 139.002 41.9991ZM135.98 41.9991C135.979 41.5819 135.911 41.1676 135.779 40.7719C135.643 40.3491 135.402 39.9679 135.077 39.6642C134.744 39.3381 134.288 39.0726 133.708 38.8695C133.128 38.6665 132.388 38.5645 131.492 38.5645C130.89 38.5645 130.36 38.6128 129.904 38.7095C129.448 38.8001 129.052 38.9284 128.72 39.0946C128.387 39.2598 128.107 39.455 127.881 39.68C127.656 39.8998 127.476 40.1372 127.342 40.3947C127.208 40.6443 127.11 40.9115 127.051 41.1885C126.944 41.7292 126.944 42.2857 127.051 42.8263C127.11 43.1041 127.207 43.3713 127.342 43.628C127.476 43.8794 127.656 44.115 127.881 44.3348C128.107 44.5545 128.387 44.7462 128.72 44.9123C129.052 45.0723 129.448 45.2015 129.904 45.2974C130.428 45.3943 130.959 45.4399 131.492 45.4336C132.388 45.4336 133.128 45.3325 133.708 45.1286C134.288 44.9264 134.744 44.6609 135.077 44.3348C135.416 44.0077 135.65 43.6421 135.779 43.235C135.913 42.8228 135.98 42.4113 135.98 41.9991ZM152.185 47.5047L144.715 39.9288V47.5047H141.725V36.4784H144.973L152.451 44.086V36.4784H155.425V47.5047H152.185ZM158.889 47.5047V36.4784H170.098V38.8291H161.96V40.6514H169.68V43.0021H161.96V45.1532H170.212V47.5047H158.889ZM183.305 39.5842C183.034 39.4565 182.757 39.3413 182.476 39.2388C182.093 39.0984 181.703 38.9781 181.307 38.8783C180.841 38.7538 180.367 38.657 179.889 38.5882C179.369 38.5075 178.844 38.4676 178.318 38.4687C177.888 38.4687 177.52 38.4819 177.213 38.5082C176.957 38.529 176.701 38.5639 176.449 38.6128C176.279 38.6444 176.114 38.6954 175.956 38.7649C175.839 38.8186 175.747 38.8748 175.683 38.9337C175.626 38.9812 175.582 39.0415 175.554 39.1095C175.539 39.1622 175.531 39.2166 175.53 39.2713C175.53 39.4313 175.61 39.5728 175.772 39.6959C175.933 39.8137 176.153 39.9209 176.432 40.0167C176.711 40.1082 177.037 40.1961 177.407 40.2822C177.778 40.3622 178.17 40.4475 178.584 40.5389C179.002 40.6242 179.432 40.7209 179.873 40.8272C180.319 40.9292 180.749 41.0497 181.162 41.1885C181.569 41.3225 181.965 41.4861 182.347 41.6782C182.717 41.8602 183.043 42.0738 183.322 42.3199C183.602 42.5661 183.821 42.85 183.982 43.1709C184.144 43.4917 184.224 43.8583 184.224 44.2697C184.224 44.7998 184.13 45.2543 183.943 45.6349C183.761 46.0059 183.503 46.334 183.185 46.5975C182.86 46.8675 182.492 47.0817 182.097 47.2313C181.673 47.3892 181.236 47.5098 180.791 47.5917C180.34 47.6779 179.881 47.7342 179.414 47.7614C178.951 47.7878 178.511 47.801 178.092 47.801C176.996 47.801 175.981 47.7104 175.046 47.5285C174.116 47.3518 173.294 47.1294 172.581 46.8621V44.2302C173.316 44.6372 174.154 44.9554 175.095 45.1848C176.04 45.4151 177.05 45.5303 178.124 45.5303C178.758 45.5303 179.274 45.4978 179.671 45.4336C180.075 45.3642 180.389 45.2789 180.615 45.1769C180.84 45.0706 180.993 44.9554 181.073 44.8323C181.148 44.729 181.19 44.6061 181.195 44.4789C181.195 44.3031 181.114 44.1502 180.953 44.0218C180.791 43.8882 180.571 43.773 180.292 43.6763C179.973 43.5637 179.648 43.4727 179.317 43.4038C178.924 43.3135 178.529 43.2305 178.132 43.155C177.719 43.0689 177.292 42.9783 176.851 42.8825C176.417 42.7876 175.987 42.675 175.562 42.545C175.148 42.4113 174.756 42.2584 174.385 42.0878C174.035 41.9244 173.708 41.7167 173.411 41.4699C173.139 41.2395 172.915 40.9589 172.749 40.6435C172.583 40.3041 172.5 39.9297 172.508 39.5517C172.508 39.0647 172.594 38.6445 172.765 38.292C172.938 37.9386 173.169 37.6388 173.459 37.3927C173.763 37.1365 174.105 36.9309 174.474 36.7835C174.861 36.6279 175.266 36.5075 175.691 36.4222C176.115 36.336 176.545 36.278 176.98 36.2455C177.416 36.213 177.829 36.1971 178.221 36.1971C178.651 36.1971 179.091 36.2191 179.543 36.2613C179.999 36.3044 180.448 36.3659 180.888 36.4459C181.329 36.5206 181.753 36.6094 182.162 36.7105C182.575 36.8125 182.956 36.9197 183.305 37.0323V39.5842Z" fill="white"/>
</svg>
