<svg width="200" height="84" viewBox="0 0 200 84" fill="none" xmlns="http://www.w3.org/2000/svg">
<path d="M83.5547 34.8506L77.9808 41.2622H74.7909V34.8506H73.2793V49.1502H74.7909V42.7379H77.9814L83.5553 49.1496H85.3523L79.295 41.9998L85.3523 34.8506H83.5547Z" fill="black"/>
<path d="M97.8857 35.6677C96.6997 35.0487 95.3813 34.7262 94.0435 34.728C92.7056 34.7298 91.3881 35.0559 90.2038 35.6782C89.0826 36.2823 88.1496 37.1837 87.5072 38.2834C86.8535 39.4121 86.5181 40.697 86.5369 42.0012C86.518 43.3055 86.8533 44.5904 87.5072 45.7191C88.1498 46.8186 89.0828 47.72 90.2038 48.3243C91.3881 48.9466 92.7056 49.2726 94.0435 49.2745C95.3813 49.2763 96.6997 48.9538 97.8857 48.3347C99.0023 47.7283 99.9312 46.8272 100.571 45.7296C101.231 44.5988 101.57 43.3097 101.553 42.0007C101.57 40.6918 101.231 39.4029 100.571 38.2724C99.9312 37.1747 99.0023 36.2736 97.8857 35.6672M99.2641 45.0337C98.7593 45.9266 98.0168 46.6621 97.1192 47.1584C96.1745 47.661 95.1209 47.9239 94.0508 47.9239C92.9808 47.9239 91.9271 47.661 90.9825 47.1584C90.0788 46.6629 89.3294 45.9277 88.8167 45.0337C88.301 44.1059 88.0304 43.0619 88.0304 42.0004C88.0304 40.9389 88.301 39.8949 88.8167 38.9671C89.3292 38.0729 90.0787 37.3377 90.9825 36.8424C91.9271 36.3398 92.9808 36.0769 94.0508 36.0769C95.1209 36.0769 96.1745 36.3398 97.1192 36.8424C98.0169 37.3385 98.7595 38.074 99.2641 38.9671C99.7733 39.897 100.04 40.9402 100.04 42.0004C100.04 43.0606 99.7733 44.1038 99.2641 45.0337Z" fill="black"/>
<path d="M112.91 45.4526L106.7 34.8501H105.453V49.1497H106.905V37.7708L112.521 47.3324H113.236L118.852 37.7094V49.1497H120.303V34.8501H119.056L112.91 45.4526Z" fill="black"/>
<path d="M129.724 34.8501L123.187 49.1497H124.759L126.476 45.3287H134.443L136.159 49.1497H137.753L131.215 34.8501H129.724ZM127.027 44.1031L130.46 36.4225L133.891 44.1031H127.027Z" fill="black"/>
<path d="M142.144 34.8491H140.633V49.1493H142.144V34.8491Z" fill="black"/>
<path d="M157.772 46.4536L148.558 34.8501H147.312V49.1497H148.824V37.5468L158.017 49.1497H159.263V34.8501H157.772L157.772 46.4536Z" fill="black"/>
<path d="M174.584 34.8501V42.9812C174.584 44.6427 174.209 45.8818 173.46 46.6985C172.558 47.4887 171.4 47.9244 170.202 47.9244C169.003 47.9244 167.845 47.4887 166.943 46.6985C166.194 45.8814 165.819 44.6423 165.82 42.9812V34.8501H164.308V43.042C164.308 45.0713 164.825 46.6172 165.86 47.6798C167.067 48.7081 168.601 49.2729 170.186 49.2729C171.772 49.2729 173.305 48.7081 174.512 47.6798C175.54 46.6161 176.054 45.0701 176.054 43.042V34.8501H174.584Z" fill="black"/>
<path d="M53.7631 23.5L50.8343 26.4294L49.4622 25.0579H35.4272L34.0563 26.43L31.124 23.5H26.9193L23.9453 26.4745V30.6787L26.8759 33.6081L25.5038 34.9796V49.0181L26.8759 50.389L23.9453 53.319V57.5255L26.9199 60.5H31.124L34.0546 57.5695L35.4255 58.9415H49.4622L50.8343 57.5695L53.7631 60.5H57.9696L60.9447 57.5255V53.319L58.0153 50.3884L59.388 49.0175V42.8548H49.2307V44.8104L45.2563 48.7865H44.3433V49.45H45.5307L49.8959 45.086V43.5182H53.9767V46.777L47.2229 53.532H37.666L30.9133 46.777V42.3326H34.9948V45.0866L39.3593 49.4505H40.5473V48.7865H39.6343L35.6588 44.8104V39.189L39.6343 35.2135H45.2563L46.4425 36.3997H47.3816L45.529 34.5471H39.3593L34.9948 38.9117V41.6668H30.9133V37.2206L37.666 30.4686H40.545V29.804H37.3927L34.0563 33.1403L28.9241 28.0075L28.454 28.4765L33.5874 33.6104L30.2504 36.9474V47.052L33.5874 50.3884L28.4529 55.5224L28.923 55.9925L34.0563 50.8591L37.3927 54.196H47.4968L50.8349 50.8591L55.9688 55.9925L56.4378 55.5224L51.305 50.389L54.6419 47.0526V43.5211H58.7234V48.7414L57.0769 50.3878L60.2807 53.5928V57.2516L57.6969 59.8348H54.0387L50.8343 56.6304L49.1867 58.2769H35.7028L34.0563 56.6304L30.8514 59.8348H27.1948L24.6099 57.2516V53.5939L27.8143 50.389L26.1684 48.7414V35.2575L27.8149 33.6104L24.6099 30.4066V26.7501L27.1948 24.1646H30.8514L34.0563 27.3696L35.7028 25.7225H49.1867L50.8337 27.3696L54.0381 24.1646H57.6969L60.2824 26.7501V30.4066L57.0786 33.611L58.7251 35.2581V40.4818H54.6437V36.9503L51.3067 33.6133L56.4372 28.4788L55.9683 28.0099L50.8343 33.1427L47.4962 29.8063H44.3433V30.4709H47.2229L53.9767 37.2206V40.4794H46.8559V43.8257L44.2721 46.4117H40.6185L38.0324 43.8257V40.1732L40.6185 37.5871H44.275L45.4601 38.7733H52.2683V37.931L46.5137 32.1764H42.7768V28.0955H48.2054L50.8343 30.725L55.0211 26.5382H56.7128L57.9082 27.7337V29.4242L53.7208 33.6116L56.3498 36.2417V38.9163H57.015V35.9638L54.6599 33.6093L58.574 29.6969V27.4576L56.9866 25.8736H54.7444L50.8314 29.7866L48.4798 27.4304H36.4097L34.0563 29.7854L30.1433 25.8736H27.9029L26.3189 27.4576V29.6986L30.2313 33.611L27.8762 35.9655V48.0345L30.2302 50.3884L26.3189 54.2991V56.5401L27.9035 58.1235H30.1445L34.0575 54.2122L36.4097 56.5685H48.4798L50.8343 54.2146L54.7444 58.1264H56.9843L58.5705 56.543V54.2991L54.6564 50.3861L57.0115 48.0322V45.0796H56.3492V47.7572L53.7203 50.3867L57.9077 54.5746V56.2674L56.7128 57.4624H55.0211L50.8343 53.2744L48.2054 55.905H36.6847L34.0563 53.2744L29.8683 57.4624H28.1779L26.9818 56.2674V54.577L31.1704 50.389L28.5403 47.7572V36.2365L31.1709 33.6064L26.9818 29.4236V27.7331L28.1779 26.5376H29.8683L34.0563 30.7245L36.6858 28.095H42.1127V32.1764H38.3763L32.6217 37.931V40.102H33.2869V38.2048L38.6501 32.8405H46.2399L51.5082 38.1087H45.7362L44.5506 36.9231H40.3418L37.3678 39.897V44.1041L40.3418 47.0781H42.1127V51.1595H38.6501L33.2852 45.7946V43.898H32.6217V46.0696L38.3763 51.8242H46.5137L52.2683 46.0696V45.0854H51.6043V45.7969L46.2399 51.1584H42.7768V47.0769H44.5489L47.5228 44.103V41.1458H59.3909V34.9825L58.0153 33.611L60.9447 30.6816V26.4745L57.9702 23.5H53.7631Z" fill="black"/>
</svg>
