<svg xmlns="http://www.w3.org/2000/svg" width="200" height="84" fill="none" viewBox="0 0 200 84">
  <path fill="#000" d="M40.635 31.032a14.31 14.31 0 0 1 7.376 1.487c3.36 1.657 6.038 4.63 7.28 8.138.559 1.56.851 3.193.851 4.85v6.115c0 .244 0 .512-.048.756a2.166 2.166 0 0 1-1.17 1.438c-.413.195-.876.22-1.29.146-.925-.17-1.655-1.048-1.655-1.998v-5.702c.025-.536.025-1.12-.268-1.583-.462-.878-1.631-1.292-2.532-.926-.78.268-1.34 1.072-1.363 1.9v5.775c0 .366.024.731-.098 1.072a2.093 2.093 0 0 1-1.437 1.413c-.9.245-1.923-.146-2.361-.974-.317-.487-.293-1.097-.269-1.657v-5.75c-.024-.975-.827-1.852-1.777-1.974a2.112 2.112 0 0 0-1.752.56 2.08 2.08 0 0 0-.633 1.51v5.58c0 .464.049.951-.122 1.39-.267.803-1.07 1.389-1.923 1.365-.876.048-1.728-.56-1.997-1.365-.146-.414-.121-.829-.121-1.268v-5.775c0-.95-.755-1.827-1.68-1.998a2.11 2.11 0 0 0-2.216 1.024c-.17.317-.267.682-.267 1.048v6.262c0 .61-.268 1.219-.73 1.608-.706.61-1.85.658-2.581.098-.536-.366-.852-.999-.852-1.657v-6.335c0-2.388.609-4.776 1.753-6.896a14.46 14.46 0 0 1 3.75-4.483c2.264-1.903 5.162-3.024 8.132-3.194Zm56.895 7.334h-3.165c.122-2.217.584-4.215 2.605-5.482 2.02-1.243 4.236-1.535 6.549-1.34 1.241.097 2.482.365 3.626.901 2.021.926 3.019 2.51 3.019 4.727v11.77c0 1.437.293 1.705 1.729 1.559.146-.025.317-.049.462-.074.025.074.025.147.025.195v2.389c-1.144.39-2.313.511-3.457.194-.852-.243-1.388-.852-1.68-1.656-.146-.415-.243-.853-.365-1.316-.122.146-.22.268-.341.39-2.507 2.534-5.478 3.606-8.984 2.705-2.483-.634-4.187-2.9-4.26-5.483a9.255 9.255 0 0 1 .243-2.46c.463-1.853 1.777-2.973 3.433-3.728 1.168-.536 2.434-.683 3.7-.853 1.485-.196 2.946-.366 4.431-.585.998-.146 1.509-.682 1.655-1.681.317-2.022-.584-3.363-2.532-3.85a8.32 8.32 0 0 0-3.554-.122c-1.753.317-2.726 1.316-3.068 3.046.024.244-.024.488-.073.755l.002-.001Zm9.324 3.899c-1.461.78-2.873.975-4.31 1.194-1.192.195-2.41.365-3.578.73-1.534.512-2.24 1.78-2.094 3.485.122 1.413 1.071 2.558 2.605 2.802 2.362.39 4.455-.268 6.111-2.023.487-.511.876-1.242.974-1.924.219-1.365.195-2.754.292-4.265Zm45.112 4.093c-.074.342-.122.634-.195.902-1.364 4.167-4.139 5.945-7.499 6.335-5.818.633-9.153-3.168-10.006-7.213-.681-3.216-.584-6.408.828-9.43 1.339-2.85 3.481-4.726 6.671-5.287 3.822-.682 9.226 1.219 10.127 7.188.244 1.535.293 3.12.439 4.727h-14.802c.122 2.194.462 4.24 2.069 5.824.657.658 1.509.975 2.435 1.145 2.994.536 5.477-.901 6.451-3.8.098-.318.243-.415.56-.391h2.922Zm-14.315-5.604h11.077c-.122-1.291-.341-2.485-.949-3.606-.584-1.072-1.437-1.852-2.605-2.242-3.822-1.315-7.766 1.73-7.523 5.848Zm22.276 12.135h-3.36V31.982h3.189v2.924c.244-.268.39-.439.536-.608 2.288-2.608 5.161-3.29 8.423-2.486 2.264.56 3.53 2.169 3.969 4.41.17.926.291 1.877.291 2.802.025 4.484.025 8.968.025 13.45 0 .123-.025.245-.025.39h-3.432v-.56c0-4.19.025-8.381-.024-12.573a9.87 9.87 0 0 0-.414-2.777c-.439-1.462-1.607-2.242-3.141-2.315-2.799-.098-5.015 1.389-5.697 3.874-.244.902-.317 1.852-.317 2.802-.024 3.68-.024 7.335-.024 10.965v.61l.001-.001Zm-44.284-20.907h3.238v8.87c.194-.195.317-.293.438-.415 2.654-2.705 5.308-5.434 7.962-8.139.219-.244.438-.341.779-.341 1.241.024 2.507 0 3.87 0-.194.195-.292.317-.414.439-2.337 2.34-4.65 4.702-7.012 7.017-.267.269-.267.44-.097.732 2.556 4.069 5.089 8.138 7.62 12.207.097.146.171.292.293.511-.171.025-.293.025-.439.025H128.4c-.317 0-.463-.122-.633-.366-1.948-3.266-3.895-6.53-5.843-9.82-.098-.146-.171-.293-.292-.463-.901.901-1.777 1.754-2.654 2.656-.122.121-.146.34-.146.511v7.456h-1.874c-.439 0-1.048.122-1.291-.122-.219-.195-.098-.829-.098-1.267v-18.93c.074-.122.074-.317.074-.56Zm-37.37-.024c-2.63 2.607-5.186 5.166-7.767 7.724a3881.39 3881.39 0 0 1 8.229 13.207c-.22 0-.366.024-.511.024H74.84c-.316 0-.511-.122-.681-.39-1.948-3.266-3.896-6.53-5.843-9.82-.073-.146-.17-.268-.293-.463-.487.512-.924 1.072-1.46 1.462-1.096.828-1.412 1.852-1.34 3.216.123 1.779.025 3.582.025 5.361v.585h-3.214V31.982h3.214v8.724c.073.048.146.097.195.146.097-.146.146-.317.243-.439 2.63-2.705 5.283-5.384 7.913-8.114.244-.244.462-.366.828-.342 1.095.025 2.19 0 3.286 0h.56Zm6.427 3.484c1.63-2.388 3.36-4.385 6.573-3.8v3.58c-.852.05-1.705.025-2.507.196-1.973.414-3.506 2.217-3.823 4.41-.049.439-.097.877-.097 1.316v11.769h-3.312V32.03H84.7v3.411Z"/>
</svg>
