<svg xmlns="http://www.w3.org/2000/svg" width="200" height="84" fill="none" viewBox="0 0 200 84">
  <path fill="#000" d="M75.491 25.52c4.71-1.561 8.095-2.085 10.305-1.565 1.375.295 2.314.976 2.839 2.053.984 2.012.137 4.57-2.654 7.873.049.213.09.431.11.66.205 2.292-1.3 4.3-3.357 4.481a3.406 3.406 0 0 1-1.65-.27 92.915 92.915 0 0 1-5.246 4.272l-.488.367a123.878 123.878 0 0 1-3.033 2.206l-.685.48a158.019 158.019 0 0 1-11.185 7.086c-.734.424-1.472.847-2.214 1.263l-.98.544c-.258.149-.516.29-.779.431a127.137 127.137 0 0 1-3.185 1.702 38.8 38.8 0 0 1-.638.331l-.37.19c-.448.225-.872.44-1.28.642a86.531 86.531 0 0 1-1.165.568c-.391.19-.787.375-1.182.56-3.125 1.46-6.315 2.772-9.546 3.844-7.505 2.493-11.647 2.343-13.03-.464-.682-1.383-.505-3.02.567-4.981 1.114-2.024 3.178-4.388 6.24-7.175a74.017 74.017 0 0 1 2.109-1.844l-.012 1.598a4.1 4.1 0 0 0 .798 2.49c.029.04.062.079.094.12-4.328 3.81-6.522 6.67-6.623 7.893 1.198.714 5.961-.057 13.398-3.07 1.844-.742 3.856-1.63 6.018-2.666a132.223 132.223 0 0 0 4.63-2.326c.584-.307 1.177-.626 1.778-.953l.613-.335a154.44 154.44 0 0 0 3.15-1.778l.803-.468c.048-.024.092-.053.141-.08 4.553-2.675 8.49-5.263 11.825-7.68.15-.104.29-.21.436-.314l.084-.06c.202-.146.4-.29.594-.436l-.013-.013c0-.003-.004-.008-.008-.011.29-.218.581-.432.86-.646l.665-.512a94.615 94.615 0 0 0 1.609-1.266c.266-.21.524-.42.774-.63.258-.21.508-.419.754-.624l.569-.48v-.005c.278-.233.549-.471.811-.7a4.415 4.415 0 0 1-.105-.618c-.202-2.295 1.302-4.3 3.359-4.481a3.354 3.354 0 0 1 1.598.246c1.201-1.444 1.826-2.537 1.875-3.183a1.587 1.587 0 0 0-.444-.161l-.1-.02a.984.984 0 0 0-.117-.016c-1.533-.178-4.667.399-9.124 1.96-.29-.174-.584-.342-.874-.512l-.275-.157c-.617-.367-1.27-.76-1.843-1.19a24.73 24.73 0 0 0-1.069-.758 73.742 73.742 0 0 1 3.868-1.412Zm.827 19.162c.004 1.899.012 3.8.029 5.703.007 1.08-.367 1.738-1.267 2.33-4.557 2.985-9.074 6.03-13.603 9.05-1.206.807-2.445 1.57-3.61 2.424-.957.694-1.771.699-2.76.025a840.088 840.088 0 0 0-5.306-3.573c1.044-.492 2.112-1.02 3.21-1.578.362.238.725.48 1.088.722.214.137.42.44.694.278.201-.124.11-.435.11-.665V58.08a148.69 148.69 0 0 0 3.137-1.698v3.062c0 .218-.093.472.165.698.17-.093.36-.174.524-.283 4.679-3.121 9.345-6.25 14.032-9.348.427-.283.488-.598.488-1.037-.004-.851-.004-1.706-.004-2.557a122.097 122.097 0 0 0 3.073-2.234Zm47.937 3.149c4.017.017 5.984 2.975 5.984 6.152 0 3.178-1.933 6.086-6.017 6.086-4.085 0-6.019-2.976-6.019-6.07 0-3.58 2.505-6.168 6.052-6.168Zm-27.986-.067a6.19 6.19 0 0 1 4.354 1.782l-1.177 1.21c-.84-.824-2.085-1.261-3.177-1.261-2.757 0-4.354 2.068-4.338 4.556 0 2.151 1.278 4.236 4.338 4.236 1.008 0 1.933-.253 2.874-1.043v-2.387h-3.278v-1.68h5.027V58c-1.177 1.294-2.64 2.05-4.623 2.05-4.32 0-6.187-2.873-6.187-6 0-3.396 2.169-6.287 6.187-6.287Zm11.933 10.304h6.203v1.748h-8.086V48.05h1.883v10.02Zm32.692-10.02c2.236 0 4.002 1.026 4.002 3.363 0 .992-.521 1.883-1.63 2.337 1.411.42 1.999 1.815 2 2.706 0 2.572-2.051 3.362-4.372 3.362h-5.395V48.05h5.395Zm20.692 11.768h-2l-1.127-2.47h-6.371l-1.11 2.47h-2l5.279-11.767h2.051l5.278 11.767Zm6.537-1.748h6.202v1.748h-8.085V48.05h1.883v10.02Zm-43.868-8.522c-2.723 0-4.186 1.899-4.186 4.47.034 2.085 1.244 4.322 4.153 4.322 2.924 0 4.151-2.069 4.151-4.322 0-2.168-1.244-4.42-4.118-4.47Zm13.109 8.522h3.53c1.043 0 2.489-.337 2.489-1.63-.001-1.261-1.396-1.833-2.472-1.833h-3.547v3.463ZM54.717 19.793c1.681-1.081 1.818-1.06 3.516.085 2.219 1.496 4.482 2.94 6.712 4.424.415.27.91.456 1.177.92.694.218 1.263.66 1.815 1.1.11.085.218.17.33.254.505.383 1.03.74 1.558 1.09.641.432 1.287.859 1.903 1.318.621.464 1.299.875 1.989 1.282.56.327 1.129.654 1.677.993.037.024.073.045.106.069.604.42.83.972.83 1.718-.004.907-.004 1.815-.008 2.726a90 90 0 0 1-3.082 2.477c.004-.605 0-1.21 0-1.816 0-.253.101-.532-.133-.774-1.044.702-2.072 1.416-3.113 2.11-3.759 2.512-7.514 5.025-11.293 7.513-.512.34-.682.702-.682 1.299.005.593.008 1.182.008 1.77a153.315 153.315 0 0 1-3.117 1.76c0-1.247.004-2.493.008-3.739 0-.48-.181-.73-.572-.988-.948-.63-1.884-1.275-2.82-1.925-.48-.334-.955-.67-1.435-1-.02-.016-.044-.028-.065-.044-.08-.049-.153-.11-.234-.166-.137-.064-.278-.109-.398-.186-.924-.617-1.848-1.23-2.772-1.846-.488-.323-.972-.65-1.46-.972-1.553-1.036-3.11-2.069-4.666-3.101-.21-.137-.404-.452-.69-.279-.258.157-.125.492-.125.742-.005 2.15 0 4.3 0 6.453 0 .67 0 1.339-.004 2.004 0 1.408-.004 2.816-.012 4.223 0 .17.012.323.04.468.06.327.206.601.48.844l.02.015c.154.138.331.278.533.423 1.117.815 2.83 1.72 3.775 2.36.556.376 1.113.746 1.67 1.113a106.129 106.129 0 0 1-3.356 1.472l-.952-.636c-1.117-.75-2.275-1.445-3.396-2.18-.064-.044-.133-.087-.198-.132-.455-.315-.879-.678-1.185-1.11a2.512 2.512 0 0 1-.5-1.532l.024-2.952a1528.155 1528.155 0 0 0 0-14.298c-.008-.947.35-1.524 1.133-2.032 3.097-2.012 6.11-4.138 9.236-6.102 2.158-1.355 4.17-2.932 6.4-4.183.477-.266.848-.73 1.328-1.032Zm98.077 35.838h4.975l-2.487-5.598-2.488 5.598Zm-15.43-2.707h3.547c1.413 0 2.118-.555 2.118-1.48 0-.823-.723-1.697-2.135-1.697h-3.53v3.177Zm29.89-27.317c3.016 0 5.075.946 6.297 2.892l.268.426-2.752 1.845-.291-.422c-.632-.92-1.959-1.505-3.462-1.526-1.43 0-3.11.488-3.11 1.86 0 .915.914 1.384 3.369 1.731 3.338.463 6.753 1.466 6.753 5.384-.025 3.958-3.647 5.367-7.027 5.367-3.5 0-5.791-1.221-7.212-3.84l-.226-.417 2.737-1.824.278.474c1.189 2.022 3.296 2.324 4.445 2.324.811 0 3.453-.15 3.453-2.084 0-1.117-1.067-1.735-3.567-2.067-2.285-.312-6.532-.893-6.532-5.092-.009-1.253.415-2.321 1.26-3.172 1.173-1.181 3.112-1.859 5.319-1.859Zm-52.597 10.17c0 2.401 1.307 3.886 3.496 3.97 1.09.056 2.02-.247 2.689-.88.736-.699 1.126-1.768 1.126-3.09v-9.699h3.529v9.698c0 2.275-.713 4.167-2.063 5.469-1.248 1.203-3.012 1.857-4.995 1.857a8.46 8.46 0 0 1-.325-.006c-4.242-.109-6.987-2.982-6.987-7.32v-9.698h3.53v9.698Zm-18.356-9.72v5.99l5.653-5.99h3.862v.817l-7 7.283 7.629 7.759v.889h-3.88l-6.264-6.406v6.406h-3.552V26.057H96.3Zm39.494 5.99 5.654-5.99h3.862v.817l-7 7.283 7.629 7.759v.889h-3.88l-6.265-6.407v6.407h-3.551V26.057h3.551v5.99Zm18.558 10.758h-3.529V26.057h3.529v16.748Z"/>
</svg>
