<svg width="200" height="84" viewBox="0 0 200 84" fill="none" xmlns="http://www.w3.org/2000/svg">
<path d="M25.3091 51.5345V32.3965H28.1674L38.1568 46.4829V32.3965H41.3616V51.5345H38.5033L28.5427 37.4768V51.5345H25.3091Z" fill="white"/>
<path d="M51.8715 51.8517C49.3307 51.8517 47.4833 51.2166 46.2998 49.9466C45.1156 48.6765 44.5386 46.858 44.5386 44.5199C44.5386 42.1529 45.1445 40.3344 46.3287 39.0931C47.5123 37.8231 49.3597 37.188 51.9005 37.188C54.4412 37.188 56.2893 37.8231 57.5018 39.0931C58.6853 40.3632 59.2919 42.1818 59.2919 44.5199C59.2919 46.8868 58.7143 48.7054 57.5307 49.9466C56.3176 51.2166 54.4412 51.8517 51.8715 51.8517ZM51.8715 49.1094C53.3439 49.1094 54.4123 48.7342 55.0478 48.0126C55.6827 47.291 55.9715 46.1075 55.9715 44.491C55.9715 42.8745 55.6538 41.691 55.0478 40.9694C54.4123 40.2478 53.3728 39.9014 51.8715 39.9014C50.3991 39.9014 49.3597 40.2478 48.7248 40.9694C48.0893 41.691 47.8011 42.8456 47.8011 44.491C47.8011 46.1075 48.1182 47.291 48.7248 48.0126C49.3597 48.7342 50.4281 49.1094 51.8715 49.1094Z" fill="white"/>
<path d="M68.2403 51.8517C66.9699 51.8517 65.8442 51.6207 64.891 51.1878C63.9094 50.7548 63.1587 50.0332 62.639 49.0229C62.0909 48.0126 61.8311 46.6559 61.8311 44.9528C61.8311 43.2786 62.1199 41.8353 62.6969 40.6807C63.2745 39.5261 64.083 38.6313 65.0936 38.0539C66.1041 37.4477 67.2587 37.1591 68.5581 37.1591C69.4239 37.1591 70.1745 37.2457 70.839 37.4477C71.5028 37.6498 72.1377 37.9674 72.7443 38.3714V31.5015H75.9778V51.5342H73.2061L73.0041 50.1486C72.3686 50.7259 71.6758 51.1589 70.9252 51.4187C70.1456 51.7074 69.2798 51.8517 68.2403 51.8517ZM69.1067 49.3981C70.5502 49.3981 71.7627 48.9074 72.7443 47.9259V40.8827C71.8206 40.0457 70.6364 39.6415 69.2219 39.6415C67.8653 39.6415 66.8258 40.1034 66.1324 40.9982C65.4396 41.9219 65.0936 43.2498 65.0936 44.9817C65.0936 46.6559 65.4107 47.8394 66.0462 48.4744C66.6811 49.0806 67.7206 49.3981 69.1067 49.3981Z" fill="white"/>
<path d="M86.5447 51.8526C84.0907 51.8526 82.1854 51.2465 80.8282 50.0341C79.471 48.8217 78.8071 46.9742 78.8071 44.4629C78.8071 42.2114 79.3848 40.4217 80.5394 39.1228C81.6946 37.8239 83.4269 37.1599 85.765 37.1599C87.9019 37.1599 89.5183 37.7084 90.5868 38.8341C91.6552 39.9599 92.2032 41.4032 92.2032 43.164V45.7908H81.8966C82.0407 47.1474 82.5604 48.1001 83.3979 48.6197C84.2348 49.1393 85.5052 49.3991 87.2085 49.3991C87.9308 49.3991 88.6525 49.3414 89.4032 49.197C90.1539 49.0527 90.8177 48.8795 91.3664 48.6486V51.0155C90.7309 51.3042 90.0091 51.5063 89.1723 51.6506C88.3637 51.7661 87.4973 51.8526 86.5447 51.8526ZM81.9255 43.6547H89.4032V42.6733C89.4032 41.6918 89.1433 40.9414 88.5946 40.3929C88.046 39.8444 87.1512 39.5846 85.8808 39.5846C84.3795 39.5846 83.34 39.9022 82.7624 40.5661C82.1854 41.23 81.9255 42.2691 81.9255 43.6547Z" fill="white"/>
<path d="M99.9424 51.8516C98.9608 51.8516 98.0371 51.7939 97.1707 51.6495C96.2759 51.5052 95.5542 51.332 94.9766 51.13V48.3877C95.6404 48.6475 96.3911 48.8495 97.1996 48.9939C98.0082 49.1382 98.7878 49.1959 99.5095 49.1959C100.606 49.1959 101.415 49.1093 101.877 48.9073C102.339 48.7053 102.599 48.33 102.599 47.7527C102.599 47.3485 102.454 47.0021 102.165 46.7712C101.877 46.5403 101.444 46.3094 100.895 46.1073C100.318 45.9053 99.6246 45.6743 98.7299 45.3857C97.8924 45.097 97.1707 44.8083 96.5647 44.4908C95.9582 44.1733 95.4674 43.7404 95.1496 43.2208C94.8035 42.7012 94.6299 42.0373 94.6299 41.2002C94.6299 39.9012 95.0924 38.9198 96.0161 38.1982C96.9398 37.5054 98.4411 37.1301 100.52 37.1301C101.329 37.1301 102.108 37.1878 102.83 37.3033C103.552 37.4188 104.186 37.5631 104.706 37.7363V40.4497C104.158 40.2187 103.552 40.0744 102.887 39.9301C102.223 39.8146 101.617 39.7569 101.04 39.7569C100 39.7569 99.2207 39.8435 98.7009 40.0167C98.1812 40.1898 97.9213 40.5651 97.9213 41.0847C97.9213 41.6332 98.1812 42.0372 98.7299 42.2682C99.2786 42.4991 100.144 42.8167 101.357 43.1919C102.454 43.5383 103.349 43.8846 104.013 44.2599C104.677 44.6352 105.139 45.097 105.428 45.6166C105.717 46.1362 105.861 46.829 105.861 47.6661C105.861 49.0516 105.342 50.0908 104.331 50.7836C103.321 51.4764 101.848 51.8516 99.9424 51.8516Z" fill="white"/>
<path d="M108.43 52.5009V48.9932H111.936V52.5009H108.43Z" fill="white"/>
<path d="M123.269 51.8536C120.122 51.8536 117.755 50.9876 116.138 49.2845C114.55 47.5815 113.742 45.2721 113.742 42.3567C113.742 40.2495 114.088 38.4309 114.781 36.9011C115.474 35.3712 116.542 34.1877 117.957 33.3506C119.372 32.5135 121.162 32.1094 123.356 32.1094C124.482 32.1094 125.521 32.196 126.446 32.3403C127.369 32.4846 128.235 32.7156 129.044 32.9754V35.7753C127.427 35.1692 125.608 34.8805 123.645 34.8805C121.22 34.8805 119.488 35.5155 118.505 36.8145C117.524 38.1134 117.033 39.9608 117.033 42.3855C117.033 44.5793 117.553 46.2536 118.592 47.4082C119.632 48.5629 121.22 49.1402 123.385 49.1402C125.088 49.1402 126.474 48.9381 127.513 48.534V43.1649H122.721V41.0577H130.285V50.266C129.679 50.6701 128.784 51.0165 127.658 51.3628C126.503 51.6804 125.03 51.8536 123.269 51.8536Z" fill="white"/>
<path d="M138.514 51.853C136.84 51.853 135.541 51.3912 134.645 50.4675C133.75 49.5438 133.289 48.1582 133.289 46.3685V37.449H136.522V46.3396C136.522 47.3787 136.782 48.1582 137.302 48.649C137.821 49.1397 138.6 49.3994 139.669 49.3994C140.448 49.3994 141.199 49.2551 141.863 48.9665C142.527 48.6778 143.133 48.2737 143.624 47.783V37.449H146.829V51.5355H143.884L143.74 50.0922C143.104 50.5829 142.354 51.0159 141.488 51.3335C140.593 51.6799 139.611 51.853 138.514 51.853Z" fill="white"/>
<path d="M150.61 51.5351V37.4486H153.584L153.757 39.094C154.42 38.6609 155.229 38.2568 156.153 37.9104C157.077 37.5641 158.001 37.3043 158.924 37.1599V39.6135C158.376 39.7001 157.77 39.8444 157.135 40.0465C156.499 40.2486 155.893 40.4506 155.316 40.6815C154.738 40.9125 154.247 41.1434 153.872 41.3743V51.5351H150.61Z" fill="white"/>
<path d="M166.375 51.853C164.701 51.853 163.401 51.3912 162.507 50.4675C161.611 49.5438 161.149 48.1582 161.149 46.3685V37.449H164.383V46.3396C164.383 47.3787 164.643 48.1582 165.163 48.649C165.682 49.1397 166.462 49.3994 167.53 49.3994C168.309 49.3994 169.06 49.2551 169.724 48.9665C170.388 48.6778 170.994 48.2737 171.486 47.783V37.449H174.69V51.5355H171.745L171.601 50.0922C170.966 50.5829 170.215 51.0159 169.349 51.3335C168.483 51.6799 167.472 51.853 166.375 51.853Z" fill="white"/>
</svg>
