<svg width="200" height="84" viewBox="0 0 200 84" fill="black" xmlns="http://www.w3.org/2000/svg">
<path d="M96.2853 50.7732V43.214H94.6699V39.9743H97.9761V41.7765H98.7329C99.1383 41.1436 99.6533 40.6484 100.272 40.2976C100.891 39.9537 101.661 39.7749 102.582 39.7749C103.455 39.7749 104.204 39.9193 104.823 40.215C105.442 40.5108 105.943 40.9373 106.321 41.5013H106.39C107.242 40.3526 108.466 39.7749 110.061 39.7749C111.484 39.7749 112.618 40.1876 113.45 41.0198C114.282 41.8521 114.702 42.9595 114.702 44.3489V50.7732H111.395V44.9955C111.395 43.4823 110.687 42.7256 109.271 42.7256C107.854 42.7256 107.146 43.4823 107.146 44.9955V50.7732H103.84V44.9955C103.84 43.4823 103.118 42.7256 101.682 42.7256C100.987 42.7256 100.465 42.9113 100.114 43.2828C99.7636 43.6542 99.5914 44.2251 99.5914 44.9886V50.7663H96.2853V50.7732Z" fill="black"/>
<path d="M121.671 50.9863C120.481 50.9863 119.45 50.7594 118.564 50.2916C117.677 49.8308 116.989 49.1774 116.502 48.3314C116.013 47.4854 115.773 46.4949 115.773 45.3531C115.773 44.2113 116.013 43.2208 116.502 42.3816C116.989 41.5425 117.67 40.896 118.564 40.442C119.45 39.9881 120.495 39.7611 121.691 39.7611C122.888 39.7611 123.926 39.9881 124.792 40.442C125.657 40.896 126.331 41.5425 126.813 42.3816C127.294 43.2208 127.534 44.2181 127.534 45.3668C127.534 46.5155 127.294 47.4991 126.813 48.3451C126.331 49.1911 125.657 49.8446 124.778 50.2985C123.905 50.7525 122.867 50.9795 121.664 50.9795L121.671 50.9863ZM121.671 48.1112C122.496 48.1112 123.128 47.8636 123.568 47.3615C124.008 46.8663 124.228 46.1922 124.228 45.3531C124.228 44.5139 124.008 43.8536 123.568 43.3652C123.128 42.8769 122.496 42.6362 121.671 42.6362C120.846 42.6362 120.193 42.8769 119.746 43.3652C119.306 43.8536 119.08 44.5139 119.08 45.3531C119.08 46.1922 119.299 46.8594 119.746 47.3615C120.193 47.8567 120.832 48.1112 121.671 48.1112Z" fill="black"/>
<path d="M129.583 50.7733V43.2141H127.968V39.9745H131.274V41.7766H132.03C132.464 41.1507 132.993 40.6623 133.625 40.3115C134.258 39.9608 135.062 39.7819 136.045 39.7819C137.578 39.7819 138.76 40.1946 139.579 41.0269C140.397 41.8591 140.809 42.9665 140.809 44.3559V50.7802H137.502V45.0025C137.502 44.2596 137.31 43.6956 136.918 43.3104C136.527 42.9253 135.956 42.7327 135.2 42.7327C134.443 42.7327 133.873 42.9253 133.481 43.3104C133.089 43.6956 132.897 44.2596 132.897 45.0025V50.7802H129.59L129.583 50.7733Z" fill="black"/>
<path d="M147.38 50.9863C145.765 50.9863 144.486 50.6425 143.558 49.9615C142.631 49.2805 142.129 48.3245 142.06 47.1002H145.242C145.338 47.5816 145.565 47.9324 145.937 48.1594C146.301 48.3864 146.83 48.5033 147.525 48.5033C148.604 48.5033 149.14 48.2213 149.14 47.6573C149.14 47.4303 149.057 47.2445 148.899 47.107C148.734 46.9695 148.474 46.8663 148.102 46.7906L145.689 46.3229C143.483 45.8896 142.383 44.8579 142.383 43.2277C142.383 42.1753 142.809 41.3293 143.661 40.7034C144.514 40.0706 145.689 39.7611 147.188 39.7611C148.687 39.7611 149.869 40.0843 150.728 40.7309C151.588 41.3775 152.062 42.2923 152.13 43.4685H148.948C148.831 43.0007 148.618 42.6637 148.309 42.4504C147.999 42.2441 147.559 42.1341 146.968 42.1341C146.487 42.1341 146.123 42.2028 145.861 42.3335C145.6 42.4642 145.476 42.6637 145.476 42.9251C145.476 43.1176 145.552 43.2759 145.71 43.4135C145.868 43.5441 146.102 43.6404 146.411 43.7023L148.892 44.1907C150.04 44.4176 150.886 44.7891 151.43 45.3049C151.966 45.8208 152.24 46.5155 152.24 47.389C152.24 48.5171 151.821 49.3975 150.989 50.0372C150.158 50.6768 148.955 50.9932 147.387 50.9932L147.38 50.9863Z" fill="black"/>
<path d="M157.038 50.7735C156.199 50.7735 155.547 50.5604 155.086 50.1339C154.626 49.7074 154.392 49.0608 154.392 48.1805V42.5678H152.591V39.9748H154.426V36.7351H157.664V39.9748H160.035V42.5678H157.698V48.1805H160.289V50.7735H157.038Z" fill="black"/>
<path d="M166.62 50.9863C165.431 50.9863 164.4 50.7593 163.527 50.2915C162.654 49.8307 161.98 49.1773 161.506 48.3313C161.032 47.4853 160.798 46.4879 160.798 45.3324C160.798 44.1768 161.032 43.1863 161.493 42.3541C161.953 41.5219 162.612 40.8821 163.472 40.4282C164.331 39.9811 165.341 39.7542 166.504 39.7542C167.665 39.7542 168.641 39.9742 169.473 40.4076C170.298 40.8478 170.93 41.4737 171.371 42.2853C171.811 43.1039 172.031 44.0806 172.031 45.2154V46.2746H163.995C164.125 46.9694 164.414 47.4921 164.861 47.8498C165.301 48.2006 165.892 48.3794 166.62 48.3794C167.205 48.3794 167.665 48.29 167.995 48.0974C168.325 47.9117 168.559 47.6159 168.704 47.2101H172.009C171.783 48.3863 171.192 49.308 170.25 49.9752C169.302 50.6424 168.099 50.9725 166.634 50.9725L166.62 50.9863ZM164.036 44.1287H168.855C168.744 43.5303 168.497 43.0832 168.105 42.7874C167.714 42.4917 167.184 42.3472 166.517 42.3472C165.85 42.3472 165.321 42.4986 164.902 42.7943C164.482 43.097 164.194 43.5371 164.036 44.1287Z" fill="black"/>
<path d="M174.21 50.7735V43.2144H172.595V39.9747H175.901V42.1345H176.657C176.932 41.3572 177.386 40.7795 178.004 40.4012C178.63 40.0229 179.325 39.8372 180.088 39.8372H181.002V42.7123H179.943C179.056 42.7123 178.417 42.9599 178.025 43.4483C177.633 43.9366 177.441 44.5831 177.441 45.3741V50.7735H174.203H174.21Z" fill="black"/>
<path d="M43.7525 50.7731V41.7764H42.8521V39.9742H44.7218V41.5907H45.478C45.8354 40.9923 46.3441 40.5383 46.9971 40.2288C47.6502 39.9261 48.3995 39.7679 49.2382 39.7679C50.5923 39.7679 51.6716 40.1668 52.4759 40.9578C53.2801 41.7488 53.6789 42.8081 53.6789 44.1218V50.7593H51.9878V44.3695C51.9878 43.3515 51.7059 42.5743 51.1492 42.0377C50.5923 41.5012 49.7812 41.2398 48.7157 41.2398C47.6502 41.2398 46.8528 41.5081 46.2892 42.0377C45.7254 42.5743 45.4436 43.3515 45.4436 44.3695V50.7593H43.7525V50.7731Z" fill="black"/>
<path d="M61.3228 50.9862C60.223 50.9862 59.2606 50.7592 58.4426 50.2915C57.6245 49.8307 56.9921 49.1772 56.5453 48.3381C56.0985 47.499 55.8716 46.5085 55.8716 45.3667C55.8716 44.2249 56.0916 43.2345 56.5384 42.3953C56.9784 41.5561 57.6108 40.9027 58.4357 40.4419C59.2537 39.981 60.2161 39.7472 61.3228 39.7472C62.4296 39.7472 63.4194 39.9742 64.2237 40.4282C65.0348 40.8821 65.6604 41.5287 66.1003 42.3678C66.5472 43.2069 66.7671 44.2043 66.7671 45.353C66.7671 46.5016 66.5472 47.4852 66.1003 48.3312C65.6604 49.1772 65.028 49.8307 64.21 50.2847C63.392 50.7386 62.4296 50.9655 61.316 50.9655L61.3228 50.9862ZM61.3228 49.5142C62.5121 49.5142 63.4332 49.1497 64.0931 48.4275C64.753 47.6984 65.083 46.6873 65.083 45.3804C65.083 44.0736 64.753 43.0419 64.0931 42.3197C63.4332 41.5975 62.5121 41.2397 61.3228 41.2397C60.1336 41.2397 59.2262 41.6043 58.5594 42.3266C57.8926 43.0488 57.5627 44.0667 57.5627 45.3735C57.5627 46.6804 57.8926 47.6984 58.5594 48.4206C59.2262 49.1428 60.1474 49.5074 61.3228 49.5074V49.5142Z" fill="black"/>
<path d="M73.4974 50.9853C72.4457 50.9853 71.5314 50.7583 70.7753 50.3112C70.0191 49.8642 69.4348 49.2176 69.0293 48.3785C68.6236 47.5393 68.4243 46.5351 68.4243 45.3727C68.4243 44.2103 68.6236 43.206 69.0155 42.3669C69.4142 41.5278 69.9779 40.8812 70.7134 40.4341C71.4489 39.987 72.3288 39.7601 73.3462 39.7601C74.2329 39.7601 75.0029 39.932 75.649 40.2828C76.2952 40.6336 76.7902 41.1426 77.127 41.8097H77.1957V35.6606H78.8868V48.9769H79.7873V50.779H77.9175V49.1626H77.1614C76.8039 49.761 76.3158 50.2218 75.704 50.5314C75.0923 50.8409 74.3567 50.9991 73.4905 50.9991L73.4974 50.9853ZM73.7312 49.5478C74.776 49.5478 75.6147 49.2451 76.2471 48.6467C76.8795 48.0483 77.2026 47.2505 77.2026 46.2531V44.4923C77.2026 43.495 76.8864 42.6971 76.2471 42.0987C75.6078 41.5002 74.776 41.1976 73.7312 41.1976C72.5901 41.1976 71.7033 41.5621 71.0709 42.2981C70.4385 43.0272 70.1154 44.052 70.1154 45.3727C70.1154 46.6933 70.4316 47.7182 71.0709 48.4473C71.7102 49.1763 72.5901 49.5478 73.7312 49.5478Z" fill="black"/>
<path d="M86.9433 50.9863C85.8434 50.9863 84.881 50.7593 84.063 50.2916C83.245 49.8307 82.6195 49.1704 82.1727 48.3244C81.7258 47.4715 81.5059 46.481 81.5059 45.3393C81.5059 44.1975 81.7258 43.2139 82.1727 42.3817C82.6126 41.5493 83.2381 40.9028 84.0424 40.4489C84.8466 39.9949 85.7884 39.7679 86.8677 39.7679C87.885 39.7679 88.7649 39.9742 89.5073 40.387C90.2497 40.7997 90.8271 41.3843 91.2396 42.1409C91.6521 42.8975 91.8583 43.7917 91.8583 44.8235V45.58H83.1213C83.1694 46.8181 83.5337 47.7811 84.2074 48.4757C84.8879 49.1704 85.7884 49.5212 86.9158 49.5212C87.6926 49.5212 88.3594 49.3562 88.9024 49.0191C89.4455 48.6821 89.8236 48.2006 90.0229 47.5609H91.7483C91.4733 48.6546 90.9096 49.5006 90.0641 50.099C89.2186 50.6974 88.1737 51.0001 86.9295 51.0001L86.9433 50.9863ZM83.2243 44.28H90.236C90.1535 43.3102 89.8098 42.5536 89.2117 42.0102C88.6137 41.4669 87.8301 41.1986 86.8539 41.1986C85.8777 41.1986 85.0735 41.4669 84.4342 42.0102C83.795 42.5467 83.3893 43.3034 83.2175 44.28H83.2243Z" fill="black"/>
<path d="M18.9985 32.9999V37.9384H21.4664V35.4692H23.9342V32.9999H18.9985Z" fill="black"/>
<path d="M23.9346 35.4703H21.4668V37.9396H23.9346V35.4703Z" fill="black"/>
<path fill-rule="evenodd" clip-rule="evenodd" d="M21.4673 50.7589H36.8379V35.4686H21.4673V50.7589ZM31.1396 44.196L31.1392 44.1996L31.1258 44.196H31.1396ZM31.1392 44.1996C31.0907 44.6176 30.9465 44.9672 30.7066 45.2346C30.4041 45.5854 29.9573 45.7574 29.3798 45.7574C28.8024 45.7574 28.3487 45.5854 28.0394 45.2346C27.73 44.8907 27.572 44.423 27.572 43.8315C27.572 43.6252 27.5994 43.4394 27.6338 43.2675L27.3726 43.1918L27.2832 43.1712H27.2626H26.1284C26.0253 43.5219 25.9634 43.8934 25.9634 44.306C25.9634 45.0283 26.1146 45.6542 26.424 46.1907C26.7333 46.7272 27.1664 47.1399 27.7232 47.4288C28.2869 47.7245 28.9399 47.869 29.6892 47.869C30.4385 47.869 31.1053 47.7245 31.6552 47.4357C32.2052 47.1468 32.6382 46.7341 32.9407 46.1976C33.1469 45.8399 33.2637 45.4272 33.3324 44.9801C33.3357 44.9507 33.3421 44.9228 33.3486 44.8943L33.3487 44.8942C33.3559 44.8628 33.3633 44.8305 33.3669 44.7944L31.1392 44.1996ZM27.3175 39.1295L33.1674 41.9221L33.1811 41.9152C33.3324 42.3347 33.4149 43.3183 33.4149 43.3183L27.3175 41.4956H27.2762H24.9184V39.1157H27.2625C27.2831 39.1157 27.3175 39.1295 27.3175 39.1295Z" fill="black"/>
</svg>
