<svg width="200" height="84" viewBox="0 0 200 84" fill="none" xmlns="http://www.w3.org/2000/svg">
	<path d="M107.836 53.68C105.526 53.68 103.506 53.1816 101.777 52.185C100.061 51.2013 98.6531 49.7626 97.7171 48.0379C96.7377 46.2699 96.248 44.2289 96.248 41.9061C96.248 39.5834 96.7377 37.5424 97.7171 35.7744C98.6531 34.0497 100.057 32.6154 101.773 31.6273C103.502 30.6307 105.522 30.1323 107.831 30.1323C110.119 30.1323 112.134 30.6307 113.872 31.6273C115.593 32.6066 117.001 34.0453 117.933 35.7744C118.899 37.5424 119.384 39.5834 119.384 41.9061C119.384 44.2245 118.899 46.2699 117.933 48.0379C117.001 49.767 115.593 51.2056 113.872 52.185C112.134 53.1816 110.123 53.68 107.836 53.68ZM107.836 49.9403C110.037 49.9403 111.792 49.2252 113.101 47.7953C114.409 46.3652 115.064 44.4022 115.064 41.9105C115.064 39.4188 114.409 37.4557 113.101 36.0258C111.792 34.5957 110.037 33.8807 107.836 33.8807C105.635 33.8807 103.875 34.5957 102.553 36.0258C101.231 37.4557 100.572 39.4188 100.572 41.9105C100.572 44.4022 101.231 46.3652 102.553 47.7953C103.875 49.2252 105.635 49.9403 107.836 49.9403Z" fill="black"/>
	<path d="M131.789 53.6794C130.558 53.6794 129.479 53.4497 128.551 52.9946C127.646 52.557 126.875 51.894 126.307 51.075L125.843 53.285H122.082V29.876H126.307V39.4701C126.879 38.716 127.589 38.0747 128.404 37.5851C129.275 37.0434 130.402 36.7704 131.789 36.7704C133.326 36.7704 134.705 37.1387 135.913 37.8754C137.127 38.6164 138.116 39.6564 138.786 40.9002C139.489 42.1785 139.844 43.6302 139.844 45.2595C139.844 46.8846 139.493 48.3319 138.786 49.6016C138.12 50.8322 137.127 51.8679 135.918 52.5916C134.705 53.3197 133.331 53.6794 131.793 53.6794H131.789ZM130.896 50.0393C132.239 50.0393 133.349 49.593 134.229 48.7045C135.108 47.8162 135.55 46.6679 135.546 45.2595C135.546 43.8512 135.108 42.6898 134.229 41.7798C133.349 40.8698 132.234 40.4147 130.896 40.4147C129.531 40.4147 128.412 40.8654 127.546 41.7625C126.679 42.6638 126.242 43.8165 126.242 45.2248C126.242 46.6332 126.675 47.7902 127.546 48.6873C128.417 49.5886 129.531 50.0349 130.896 50.0349V50.0393Z" fill="black"/>
	<path d="M150.258 53.6784C148.672 53.6784 147.246 53.3187 145.986 52.6036C144.728 51.8974 143.689 50.8703 142.983 49.6266C142.246 48.357 141.878 46.8879 141.878 45.2196C141.878 43.5512 142.25 42.0822 143 40.8125C143.72 39.5731 144.764 38.5461 146.02 37.8354C147.286 37.1204 148.712 36.7607 150.293 36.7607C151.875 36.7607 153.27 37.1204 154.539 37.8354C155.797 38.5418 156.832 39.5688 157.543 40.8125C158.279 42.0822 158.647 43.5512 158.647 45.2196C158.647 46.8879 158.279 48.357 157.543 49.6266C156.828 50.8703 155.779 51.9016 154.514 52.6036C153.24 53.3187 151.818 53.6784 150.254 53.6784H150.258ZM150.258 50.0686C151.359 50.0686 152.317 49.6613 153.132 48.8466C153.947 48.0319 154.353 46.8229 154.353 45.2196C154.353 43.6162 153.947 42.4072 153.132 41.5925C152.317 40.7778 151.372 40.3748 150.293 40.3705C149.171 40.3705 148.208 40.7778 147.407 41.5925C146.605 42.4072 146.202 43.6162 146.202 45.2196C146.202 46.8229 146.605 48.0319 147.407 48.8466C148.208 49.6613 149.162 50.0643 150.263 50.0686H150.258Z" fill="black"/>
	<path d="M161.227 53.2893V29.876H165.452V53.2893H161.227Z" fill="black"/>
	<path d="M71.628 58.0353C67.585 58.0353 63.4553 56.523 59.3125 53.5156C56.2012 51.2622 53.6835 49.2342 51.4561 47.4445L51.2481 47.2755L50.0651 48.3719C46.5421 51.6349 43.682 53.6587 40.3063 53.6587C35.4052 53.6587 31.1064 49.7109 31.1064 45.2085C31.1064 40.4374 35.7302 36.7324 39.7083 36.7324C43.6863 36.7324 47.0621 38.6304 51.0271 41.6941C56.5869 36.5547 62.1163 31.5756 66.3024 28.8369C71.6757 25.3182 79.9352 24.4471 85.326 29.5909C91.4404 35.4237 89.187 46.6515 85.0183 51.5179C83.4626 53.3336 80.1085 56.549 75.1252 57.6453C73.9768 57.9011 72.8025 58.0311 71.6238 58.0311L71.628 58.0353ZM54.3985 44.3722C56.5262 46.0838 58.9312 48.0122 61.8476 50.1269C65.5917 52.8396 68.885 53.8147 71.6887 53.8147C76.7111 53.8147 80.1475 50.6815 81.7553 48.8052C86.262 43.5444 85.2263 35.363 82.3576 32.6243C78.1498 28.6072 71.8708 30.2626 68.6771 32.3513C64.868 34.843 59.6766 39.4971 54.3985 44.3722ZM39.7126 40.953C37.8059 40.953 35.3879 42.9595 35.3879 45.2128C35.3879 47.4662 37.7799 49.4509 40.3063 49.4509C42.005 49.4509 43.916 48.2896 47.1314 45.3082L47.8724 44.6192C44.787 42.2878 42.421 40.953 39.7083 40.953H39.7126Z" fill="black"/>
</svg>
