<svg width="200" height="84" viewBox="0 0 200 84" fill="none" xmlns="http://www.w3.org/2000/svg">
<path d="M155.792 35.0206V26H160.337V35.0206H155.792ZM147.821 35.0206V26H152.367V35.0206H147.821ZM125.228 57.605H130.827V46.1481C130.827 41.2874 133.535 39.1029 135.965 39.1029C138.395 39.1029 139.983 40.6139 139.983 44.3045V57.605H145.582V43.1851C145.582 37.9193 142.688 34.5926 138.007 34.5926C134.722 34.5926 132.222 36.2891 130.827 40.0247V26H125.228V57.605ZM39.6631 57.6145L61.0708 57.605V53.0618H53.1664V26H48.4896C48.3096 29.7806 47.2097 30.7408 42.0344 30.7408H39.6631V35.0206H47.5674V53.0618H39.6631V57.6145ZM110.869 39.1029C113.659 39.1029 115.901 41.2857 116.171 44.4362H121.968C121.158 38.4503 116.719 34.5926 110.869 34.5926C104.523 34.5926 99.5389 39.4838 99.5389 46.2799C99.5389 53.0759 104.523 58 110.869 58C116.719 58 121.158 54.1753 121.968 48.1892H116.171C115.901 51.3398 113.659 53.5226 110.869 53.5226C108.078 53.5226 105.27 51.0055 105.27 46.2799C105.27 41.5541 107.988 39.1029 110.869 39.1029ZM75.6939 57.605H81.2929L81.2908 46.1631C81.2908 41.3024 84.0006 39.1029 86.4308 39.1029C88.861 39.1029 90.4488 40.6139 90.4488 44.3045V57.605H96.0518V43.1851C96.0518 37.9193 93.1531 34.5926 88.4728 34.5926C85.1876 34.5926 82.6881 36.2891 81.2929 40.0247V35.0206H75.6939V57.605ZM64.4302 26V31.5967H70.0292V26H64.4302ZM64.4302 35.0206V57.5391H70.0292V35.0206H64.4302Z" fill="black"/>
</svg>
