<svg xmlns="http://www.w3.org/2000/svg" width="200" height="84" fill="none" viewBox="0 0 200 84">
  <path fill="#000" d="M46.434 50.747h-2.737l-1.737-3.743H31.796l-1.74 3.743H27.32l7.984-16.736h3.148l7.981 16.736Zm-5.688-6.242-3.845-8.109-3.892 8.11h7.737Zm36.4 6.242h-3.111L62.513 37.022v13.725h-2.5V34.01h3.105l11.529 13.73V34.013h2.5v16.735Zm30.547-14.242v-2.493H90.769v2.493h7.213v2.513h-4.713v2.497h4.713v9.232h2.5v-9.232h4.711v-2.497h-4.711v-2.513h7.211Zm29.422.003h-13.3v4.616h8.838v2.499h-8.838v4.633h13.312v2.493h-15.812V34.011h15.8v2.497ZM200 50.747h-2.739l-1.738-3.743h-10.167l-1.737 3.743h-2.737l7.984-16.736h3.147L200 50.747Zm-5.688-6.242-3.847-8.109-3.893 8.11h7.74ZM12.31 34H0v16.746h2.5v-6.391h9.81c2.578 0 4.668-2.33 4.668-5.19 0-2.858-2.09-5.165-4.669-5.165Zm0 7.852H2.5v-5.35h9.81a2.18 2.18 0 0 1 .92.201 2.4 2.4 0 0 1 .78.577c.224.248.401.542.522.865.12.324.183.67.183 1.02.002 1.476-1.076 2.687-2.405 2.687Zm155.56 8.894-3.996-6.485c2.19-.426 3.862-2.543 3.862-5.095 0-2.86-2.089-5.166-4.668-5.166h-12.31v16.746h2.5v-6.391h7.622l4.081 6.39h2.909Zm-14.614-14.244h9.81c.315 0 .628.068.92.202.291.134.556.33.78.577.223.248.4.541.521.865.121.323.183.67.183 1.02 0 1.475-1.077 2.686-2.404 2.686h-9.81v-5.35Z"/>
</svg>
