<svg xmlns="http://www.w3.org/2000/svg" width="200" height="84" fill="none" viewBox="0 0 200 84">
  <g clip-path="url(#a)">
    <path fill="#000" d="m40.372 37.987-8.879-8.879A3.771 3.771 0 0 0 28.816 28c-.968 0-1.936.368-2.677 1.108l-8.879 8.88a.897.897 0 0 0-.26.672c.007.148.005 3.963 0 6.187v.075h.002a.88.88 0 0 0 .256.576l8.879 8.879a3.763 3.763 0 0 0 2.677 1.108c.97 0 1.936-.367 2.674-1.108l8.88-8.88c.172-.172.26-.4.26-.627v-6.255a.876.876 0 0 0-.26-.628h.004ZM30.095 52.898a1.82 1.82 0 0 1-1.174.55 1.75 1.75 0 0 1-1.34-.507l-2.177-2.177h6.825l-2.137 2.137.003-.003Zm4.17-4.17H23.367l-2.84-2.837h16.575l-2.84 2.837h.003Zm-13.738-4.874 2.752-2.752h11.074l2.752 2.752H20.527Zm-1.468-4.786 8.521-8.521a1.73 1.73 0 0 1 1.339-.508c.447.025.865.243 1.183.56l8.466 8.467h-19.51v.002Zm9.757-6.14a2.353 2.353 0 1 1 0 4.71 2.353 2.353 0 1 1 0-4.71Zm22.517-1.886H61.1c4.273 0 7.035 2.91 7.035 6.945 0 3.65-2.762 6.976-7.035 6.976h-4.6v7.48h-5.167v-21.4Zm11.519 6.945c0-1.336-.951-2.404-2.672-2.404H56.5v4.839h3.68c1.72 0 2.672-1.099 2.672-2.435Zm7.03-6.945h5.166v21.401h-5.166v-21.4Zm7.167 0H91.95v4.511h-9.737v3.355h7.689v4.51h-7.689v4.512h10.063v4.51H77.047V31.043h.002Zm16.73 0h9.768c4.273 0 7.065 2.612 7.065 6.68 0 2.107-1.159 4.246-2.91 5.432 1.246.713 1.959 1.811 2.314 3.385l.713 3.177c.238 1.038.623 2.167.951 2.732h-5.699c-.238-.415-.506-1.216-.623-1.959l-.475-2.97c-.356-2.196-1.604-3.147-4.216-3.147h-1.721v8.074h-5.167V31.042Zm11.546 6.68c0-1.366-.98-2.136-2.672-2.136h-3.71v4.275h3.71c1.692 0 2.672-.8 2.672-2.136v-.003Zm15.137-2.166h-6.233v-4.514h17.633v4.511h-6.232v16.89h-5.166V35.556h-.002Zm33.214 5.581 2.167-10.092h5.431l-5.877 21.4h-5.847l-2.434-9.854c-.683-2.82-1.098-5.106-1.098-5.106s-.505 2.286-1.219 5.106l-2.491 9.855h-5.73l-5.936-21.401h5.609l2.226 10.092c.623 2.82.979 5.136.979 5.136s.415-2.314 1.038-5.136l2.226-10.092h6.68l2.227 10.092c.623 2.82 1.008 5.136 1.008 5.136s.446-2.314 1.039-5.136h.002Zm7.18.593c0-6.262 4.719-10.923 11.131-10.923S183 35.438 183 41.73s-4.691 10.953-11.013 10.953-11.131-4.66-11.131-10.953Zm16.86 0c0-3.65-2.404-6.412-5.759-6.412-3.355 0-5.817 2.76-5.817 6.412 0 3.653 2.405 6.442 5.817 6.442 3.413 0 5.759-2.76 5.759-6.442Z"/>
  </g>
  <defs>
    <clipPath id="a">
      <path fill="#fff" d="M17 28h166v27.488H17z"/>
    </clipPath>
  </defs>
</svg>
