<svg width="200" height="84" viewBox="0 0 200 84" fill="black" xmlns="http://www.w3.org/2000/svg">
<g clip-path="url(#clip0_2102_73066)">
<path d="M64.3975 44.9712C64.3975 48.3701 67.1295 50.9387 71.8131 50.9387C76.4965 50.9387 78.8383 48.6036 78.8383 45.4901C78.8383 42.4804 77.1733 40.9496 73.5044 40.3009L70.6422 39.782C68.6907 39.4447 68.1703 38.7442 68.1703 37.7063C68.1703 36.3831 69.1851 35.3712 71.5529 35.3712C73.9207 35.3712 75.1955 36.6685 75.1955 38.2252H78.5782C78.5782 34.8263 76.2364 32.2577 71.5529 32.2577C67.2596 32.2577 64.7878 34.6966 64.7878 37.7063C64.7878 40.3009 66.1928 42.1171 69.3412 42.636L72.4636 43.155C74.8055 43.5701 75.456 44.4263 75.456 45.4901C75.456 46.8134 74.4151 47.8252 71.8131 47.8252C69.3412 47.8252 67.78 46.5539 67.78 44.9712H64.3975Z" fill="black"/>
<path d="M81.8113 47.5666C81.8113 49.5385 82.982 50.6801 85.194 50.6801H88.0561V47.826H85.9743C85.376 47.826 85.0637 47.5147 85.0637 46.9179V40.5612H88.0561V37.4477H85.0637V33.6855H81.8113V37.4477H79.7295V40.5612H81.8113V47.5666Z" fill="black"/>
<path d="M98.3116 50.6786H101.044V42.2462C101.044 39.4181 98.8323 37.1868 95.4495 37.1868C91.9111 37.1868 90.1416 39.2884 89.8552 41.4678H93.1076C93.2379 40.7154 93.9924 39.7814 95.4495 39.7814C96.9067 39.7814 97.7914 40.7933 97.7914 42.2462V42.5057H94.799C91.1562 42.5057 89.335 44.3219 89.335 46.9165C89.335 49.0959 91.1303 50.9381 94.1485 50.9381C95.4758 50.9381 96.3864 50.5489 97.0106 50.1597C97.3751 49.9262 97.6874 49.6668 97.9217 49.3813H98.0515L98.3116 50.6786ZM97.7914 45.3597C97.7914 47.2019 96.6466 48.3435 94.6692 48.3435C93.3419 48.3435 92.5874 47.6948 92.5874 46.657C92.5874 45.6192 93.3682 44.9705 95.0591 44.9705H97.7914V45.3597Z" fill="black"/>
<path d="M104.004 50.6796H107.256V44.4525L112.46 50.6796H116.233L110.509 43.9336L115.973 37.4472H112.2L107.256 43.4147V32.5175H104.004V50.6796Z" fill="black"/>
<path d="M119.223 42.8949C119.613 41.2084 120.758 39.9111 122.735 39.9111C124.583 39.9111 125.701 41.2084 125.988 42.8949H119.223ZM125.468 46.7867C125.207 47.3316 124.27 48.2138 122.735 48.2138C120.888 48.2138 119.509 46.9424 119.223 45.1003H129.11L129.162 44.7371C129.188 44.5035 129.24 44.1922 129.24 43.803C129.24 40.0408 126.378 37.1868 122.735 37.1868C118.832 37.1868 115.97 40.0408 115.97 44.0624C115.97 48.084 118.832 50.9381 122.735 50.9381C126.924 50.9381 128.564 47.8246 128.85 46.7867H125.468Z" fill="black"/>
<path d="M131.812 50.6796H143.781V47.4363H135.194V32.5175H131.812V50.6796Z" fill="black"/>
<path d="M153.386 50.6786H156.118V42.2462C156.118 39.4181 153.906 37.1868 150.524 37.1868C146.985 37.1868 145.215 39.2884 144.929 41.4678H148.182C148.312 40.7154 149.067 39.7814 150.524 39.7814C151.981 39.7814 152.866 40.7933 152.866 42.2462V42.5057H149.873C146.23 42.5057 144.409 44.3219 144.409 46.9165C144.409 49.0959 146.205 50.9381 149.223 50.9381C150.55 50.9381 151.46 50.5489 152.085 50.1597C152.449 49.9262 152.761 49.6668 152.995 49.3813H153.126L153.386 50.6786ZM152.866 45.3597C152.866 47.2019 151.72 48.3435 149.743 48.3435C148.416 48.3435 147.662 47.6948 147.662 46.657C147.662 45.6192 148.442 44.9705 150.133 44.9705H152.866V45.3597Z" fill="black"/>
<path d="M165.715 47.9552C163.737 47.9552 162.332 46.5542 162.332 44.0634C162.332 41.5726 163.737 40.1715 165.715 40.1715C167.692 40.1715 169.097 41.5726 169.097 44.0634C169.097 46.5542 167.692 47.9552 165.715 47.9552ZM159.08 50.6796H161.942L162.202 49.2525H162.332C162.592 49.5898 162.904 49.8752 163.269 50.1088C163.893 50.5239 164.856 50.939 166.235 50.939C169.618 50.939 172.35 48.2147 172.35 44.0634C172.35 39.912 169.618 37.1877 166.235 37.1877C164.908 37.1877 163.997 37.6288 163.373 38.0439C163.008 38.2775 162.696 38.5629 162.462 38.8742H162.332V32.5175H159.08V50.6796Z" fill="black"/>
<mask id="mask0_2102_73066" style="mask-type:luminance" maskUnits="userSpaceOnUse" x="28" y="26" width="31" height="31">
<path d="M58.0777 41.5973C58.0777 33.4555 51.4587 26.8553 43.2937 26.8553C35.1288 26.8553 28.5098 33.4555 28.5098 41.5973C28.5098 49.7391 35.1288 56.3393 43.2937 56.3393C51.4587 56.3393 58.0777 49.7391 58.0777 41.5973Z" fill="black"/>
</mask>
<g mask="url(#mask0_2102_73066)">
<path fill-rule="evenodd" clip-rule="evenodd" d="M43.2937 56.3393C51.4587 56.3393 58.0777 49.7391 58.0777 41.5973C58.0777 33.4556 51.4587 26.8553 43.2937 26.8553C35.1288 26.8553 28.5098 33.4556 28.5098 41.5973C28.5098 49.7391 35.1288 56.3393 43.2937 56.3393ZM43.139 33.1985C43.1986 33.1985 43.2586 33.1986 43.319 33.1989C43.3794 33.1986 43.4394 33.1985 43.499 33.1985V33.2C44.1494 33.2056 44.8363 33.2259 45.5051 33.2612C46.0512 33.2901 46.5419 33.5607 46.8569 33.9652C47.1698 34.3666 47.3098 34.9001 47.1597 35.4601H47.159C47.1504 35.4919 47.141 35.5238 47.1305 35.5558C46.9443 36.1261 46.7231 36.6364 46.4793 37.1322C46.7472 37.3606 47.0115 37.6 47.2711 37.85C48.1004 38.6486 48.823 39.4987 49.4241 40.3645C49.5086 40.155 49.5832 39.9482 49.6477 39.7449C50.178 38.0734 49.9818 36.8333 49.3212 36.1511C49.1282 35.9518 48.8861 35.7904 48.5977 35.6734C48.0965 35.4336 48.0838 34.9372 48.2195 34.6495C48.3553 34.3618 48.7755 34.1061 49.1971 34.2802C49.649 34.4669 50.0599 34.7363 50.4124 35.1004C51.6433 36.3713 51.6938 38.3108 51.094 40.2012C50.9142 40.7679 50.6717 41.3479 50.3708 41.9305C50.6717 42.5132 50.9142 43.0932 51.094 43.6599C51.6938 45.5502 51.6433 47.4898 50.4124 48.7607C49.1816 50.0317 47.2395 50.1497 45.324 49.618C44.6706 49.4366 43.9971 49.1748 43.3194 48.8388C42.6418 49.1749 41.9682 49.4366 41.3149 49.618C39.3994 50.1497 37.4572 50.0317 36.2264 48.7607C34.9956 47.4898 34.945 45.5502 35.5448 43.6599C35.7246 43.0932 35.9672 42.5132 36.268 41.9305C35.9672 41.3479 35.7246 40.7679 35.5448 40.2012C34.945 38.3108 34.9956 36.3713 36.2264 35.1004C36.583 34.7321 36.9994 34.4606 37.4575 34.2737C37.8046 34.1321 38.1773 34.2768 38.3822 34.5831C38.587 34.8894 38.5397 35.4678 38.0283 35.6786C37.7456 35.7952 37.5078 35.9548 37.3176 36.1511C36.657 36.8333 36.4608 38.0734 36.9912 39.7449C37.0557 39.9482 37.1302 40.155 37.2147 40.3645C37.8158 39.4987 38.5384 38.6486 39.3677 37.8501C39.6271 37.6002 39.8913 37.361 40.159 37.1327C39.9151 36.6367 39.6937 36.1263 39.5075 35.5558C39.1284 34.3945 40.0139 33.3204 41.1329 33.2612C41.8017 33.2259 42.4886 33.2056 43.139 33.2V33.1985ZM45.688 35.0876C45.563 35.4704 45.4184 35.8257 45.2538 36.1805L45.2379 36.1693C45.095 36.4781 44.937 36.7864 44.7636 37.112C44.7204 37.1949 44.6383 37.3416 44.533 37.5262C45.1031 37.9387 45.6691 38.4103 46.2173 38.9382C47.2137 39.8976 48.0253 40.9219 48.6343 41.9305C48.0253 42.9392 47.2137 43.9635 46.2173 44.9229C45.2806 45.8249 44.2921 46.5622 43.3194 47.1223C42.3467 46.5622 41.3582 45.8249 40.4215 44.9229C39.4252 43.9635 38.6136 42.9392 38.0046 41.9305C38.6136 40.9219 39.4252 39.8976 40.4215 38.9382C40.9649 38.415 41.5256 37.9472 42.0907 37.5372C41.9823 37.3474 41.8979 37.1965 41.8537 37.112C41.6825 36.7904 41.5262 36.4857 41.3847 36.1807L41.3844 36.181C41.3243 36.0515 41.2669 35.922 41.2122 35.7911L41.2126 35.7912C41.1172 35.5633 41.0299 35.3312 40.9505 35.088C40.9483 35.0813 40.9464 35.0746 40.9448 35.068C40.9288 35.0018 40.9432 34.9427 40.982 34.89C41.0265 34.8294 41.104 34.7796 41.2066 34.7722C41.2088 34.772 41.211 34.7719 41.2132 34.7718L41.2138 34.7718H41.2223C41.7002 34.7466 42.188 34.7292 42.6637 34.7197L42.6627 34.7193C42.8849 34.7149 43.1044 34.7121 43.319 34.7112C43.5338 34.7121 43.7537 34.7149 43.9761 34.7193L43.9752 34.7197C44.4537 34.7293 44.9447 34.7468 45.4254 34.7722C45.5004 34.7762 45.5624 34.8028 45.6084 34.8398C45.6272 34.8551 45.6432 34.8721 45.6565 34.89C45.699 34.9479 45.7122 35.0134 45.688 35.0876ZM47.2711 46.0111C48.1004 45.2125 48.823 44.3624 49.4241 43.4966C49.5086 43.7061 49.5832 43.9129 49.6477 44.1162C50.178 45.7877 49.9818 47.0278 49.3212 47.7099C48.6606 48.3921 47.4246 48.6309 45.7308 48.1607C45.4718 48.0888 45.2065 48.0011 44.9368 47.8982C45.7361 47.3637 46.5231 46.7314 47.2711 46.0111ZM39.3677 46.011C40.1158 46.7314 40.9028 47.3637 41.7021 47.8982C41.4323 48.0012 41.1671 48.0888 40.908 48.1607C39.2143 48.6309 37.9783 48.3921 37.3176 47.7099C36.657 47.0278 36.4608 45.7877 36.9912 44.1162C37.0557 43.9129 37.1302 43.7061 37.2147 43.4966C37.8158 44.3624 38.5384 45.2125 39.3677 46.011ZM45.0256 42.4637C45.0256 43.4035 44.2616 44.1655 43.319 44.1655C42.3765 44.1655 41.6124 43.4035 41.6124 42.4637C41.6124 41.5238 42.3765 40.7619 43.319 40.7619C44.2616 40.7619 45.0256 41.5238 45.0256 42.4637Z" fill="black"/>
</g>
</g>
<defs>
<clipPath id="clip0_2102_73066">
<rect width="143.959" height="29.53" fill="black" transform="translate(28.4902 26.8477)"/>
</clipPath>
</defs>
</svg>
