<svg width="200" height="84" viewBox="0 0 200 84" fill="black" xmlns="http://www.w3.org/2000/svg">
<path fill-rule="evenodd" clip-rule="evenodd" d="M40.1345 34.3447H53.3739V36.4872H42.275V39.13H53.3247V49.6546H40.1299V47.5121H51.1842V45.0926H40.1345V34.3447ZM51.1842 42.9501V41.2725H42.275V42.9501H51.1842ZM56.1739 34.3447H58.3143V41.5927H68.0355V34.3447H70.1759V43.7352H64.2451V49.6546H62.1047V43.7352H56.1739V34.3447ZM73.1096 34.3447H87.1118V49.6546H84.9713V36.4872H81.2821V43.3611H79.1416V36.4872H75.2501V49.6546H73.1096V34.3447ZM89.9562 34.3447H103.512V49.6546H89.9562V34.3447ZM92.0967 36.4872V40.9991H101.372V36.4872H92.0967ZM101.372 43.1416H92.0967V47.5121H101.372V43.1416ZM106.923 49.6546V34.3447H109.063V49.6546H106.923ZM112.473 34.3447H126.029V49.6546H112.473V34.3447ZM114.613 36.4872V47.5121H123.889V36.4872H114.613ZM133.131 36.4872H128.17V34.3447H140.031V36.4872H135.272V49.6546H133.131V36.4872ZM142.718 49.6546V34.3447H144.858V49.6546H142.718ZM147.464 34.3447H159.95V36.4872H149.605V47.5121H159.95V49.6546H147.464V34.3447Z" fill="black"/>
</svg>
