<svg width="200" height="84" viewBox="0 0 200 84" fill="none" xmlns="http://www.w3.org/2000/svg">
<path d="M89.7788 53.9797C89.8851 52.1361 89.9383 47.4055 89.9383 39.7903C89.9383 35.7177 89.8851 32.9312 89.7788 31.4316C85.0689 31.6309 82.4087 31.7298 81.798 31.7298C81.1874 31.7298 80.8094 31.6376 80.5842 31.4515C80.3591 31.2654 80.2461 30.914 80.2461 30.3964C80.2461 29.6536 80.4322 28.8444 80.8036 27.9687C83.0592 28.5661 86.3293 28.8644 90.6146 28.8644H103.053C103.637 28.8644 104.045 28.9607 104.276 29.1526C104.508 29.3454 104.624 29.6935 104.624 30.1978C104.624 31.1266 104.353 32.009 103.809 32.8448C101.593 31.9026 98.7141 31.4316 95.1715 31.4316H94.4953C94.3889 32.9312 94.3357 35.7966 94.3357 40.0287C94.3357 47.4852 94.3889 52.1353 94.4953 53.9797H97.3408C97.5003 54.3776 97.5792 54.7631 97.5792 55.1337C97.5792 55.4652 97.5127 55.6978 97.3798 55.8299C97.2469 55.9628 97.0151 56.0293 96.6836 56.0293H86.9324C86.7596 55.5781 86.674 55.1603 86.674 54.7756C86.674 54.4973 86.7438 54.2954 86.8834 54.1683C87.023 54.042 87.2514 53.9788 87.5696 53.9788H89.7788V53.9797ZM111.203 55.9196C110.029 56.2577 108.877 56.4272 107.75 56.4272C105.959 56.4272 104.625 56.006 103.75 55.1636C102.874 54.3211 102.436 53.0708 102.436 51.4125C102.436 49.3828 103.159 47.83 104.605 46.7558C106.052 45.6807 108.287 45.144 111.312 45.144H114.237C114.157 42.8086 113.822 41.1836 113.232 40.268C112.641 39.3525 111.597 38.8947 110.097 38.8947C109.301 38.8947 108.538 38.9745 107.808 39.1331C107.423 39.9025 107.194 40.3145 107.122 40.3669C107.049 40.4201 106.667 40.5364 105.978 40.715C105.288 40.8944 104.807 40.8612 104.535 40.6153C104.263 40.3702 103.984 39.9224 103.699 39.2719C103.414 38.6222 103.271 38.098 103.271 37.7C103.271 37.435 103.381 37.2289 103.599 37.0827C103.818 36.9365 104.71 36.7579 106.276 36.5452C107.841 36.3333 109.507 36.227 111.271 36.227C113.62 36.227 115.354 36.6316 116.475 37.4408C117.596 38.25 118.157 39.7363 118.157 41.8989V48.0286C118.157 50.8675 118.28 52.5989 118.525 53.2228C118.77 53.8467 119.178 54.0985 119.748 53.9788C119.908 54.2705 119.987 54.5563 119.987 54.8346C119.987 55.2857 119.705 55.6305 119.141 55.8698C118.577 56.1082 117.818 56.2278 116.862 56.2278C116.398 56.2278 116.043 56.1713 115.797 56.0583C115.552 55.9462 115.163 55.4053 114.633 54.4366C113.519 55.0863 112.374 55.5806 111.2 55.9196H111.203ZM114.238 47.7104C113.097 47.511 111.916 47.4121 110.695 47.4121C109.183 47.4121 108.125 47.6639 107.521 48.1682C106.917 48.6725 106.615 49.4684 106.615 50.5559C106.615 51.6434 106.883 52.4169 107.421 52.9536C107.958 53.4912 108.791 53.7595 109.918 53.7595C110.794 53.7595 111.61 53.5875 112.366 53.2419C113.122 52.8971 113.623 52.4161 113.869 51.7988C114.114 51.1815 114.237 50.2103 114.237 48.8835V47.7096L114.238 47.7104ZM133.014 36.7446C134.294 36.3333 135.438 36.1273 136.447 36.1273C138.212 36.1273 139.542 36.5352 140.437 37.3511C141.333 38.1669 141.781 39.723 141.781 42.0177C141.781 49.1552 141.884 52.937 142.089 53.3615C142.295 53.7861 142.769 53.9921 143.512 53.9788C143.658 54.3643 143.731 54.7482 143.731 55.1328C143.731 55.4909 143.618 55.7302 143.392 55.849C143.167 55.9686 142.749 56.0284 142.139 56.0284C140.294 56.0284 139.167 56.0052 138.756 55.9587C138.344 55.9121 138.066 55.7726 137.92 55.5408C137.774 55.309 137.701 54.921 137.701 54.3768V45.7995C137.701 43.0662 137.413 41.2492 136.836 40.3469C136.258 39.4447 135.326 38.9936 134.039 38.9936C132.938 38.9936 131.986 39.3051 131.184 39.9291C130.381 40.553 129.98 41.6737 129.98 43.2922V47.4911C129.98 49.8398 130.026 52.0023 130.119 53.9788H132.329C132.488 54.3245 132.567 54.695 132.567 55.093C132.567 55.451 132.494 55.6969 132.349 55.829C132.202 55.962 131.924 56.0284 131.513 56.0284H123.691C123.519 55.6039 123.433 55.2059 123.433 54.8346C123.433 54.543 123.506 54.327 123.652 54.1874C123.797 54.0478 124.036 53.978 124.368 53.978H125.741C125.847 51.8686 125.901 49.2815 125.901 46.2166C125.901 42.3027 125.748 40.0346 125.443 39.4106C125.138 38.7867 124.554 38.4751 123.691 38.4751C123.519 38.1038 123.433 37.7191 123.433 37.3211C123.433 36.9631 123.573 36.7338 123.851 36.6349C124.129 36.536 125.887 36.433 129.125 36.3267C129.205 36.9373 129.205 37.7199 129.125 38.6754C130.438 37.7997 131.735 37.1566 133.016 36.7446H133.014ZM157.582 53.6606C155.446 53.6606 153.956 53.0434 153.114 51.8096C152.271 50.5759 151.837 48.8777 151.81 46.7151H160.607C162.04 46.7151 162.969 46.4833 163.393 46.0189C163.818 45.5544 164.031 44.732 164.031 43.5514C164.031 40.872 163.433 38.9479 162.239 37.7798C161.045 36.6125 159.214 36.0284 156.747 36.0284C153.775 36.0284 151.456 37.0005 149.791 38.9437C148.126 40.887 147.294 43.5381 147.294 46.8945C147.294 50.251 148.033 52.7285 149.513 54.1683C150.993 55.6081 153.43 56.3275 156.827 56.3275C158.671 56.3275 160.326 56.1481 161.791 55.79C163.258 55.4319 163.991 54.808 163.991 53.919C163.991 53.2818 163.706 52.6786 163.135 52.1079C161.423 53.143 159.572 53.6598 157.583 53.6598L157.582 53.6606ZM152.965 40.1176C153.655 39.1697 154.663 38.6945 155.99 38.6945C157.317 38.6945 158.232 39.0658 158.895 39.8086C159.558 40.5522 159.891 41.5799 159.891 42.8934C159.891 43.4376 159.827 43.8089 159.701 44.0075C159.575 44.2069 159.117 44.3489 158.328 44.4354C157.539 44.5218 156.056 44.565 153.88 44.565H151.83C151.897 42.5486 152.275 41.0656 152.964 40.1168L152.965 40.1176ZM158.506 31.8744C160.058 30.4886 160.891 27.9704 160.891 27.9704C160.891 27.9704 157.415 27.8574 155.451 29.4451C153.969 30.6431 152.664 32.1544 152.241 35.1353C154.607 31.4856 156.758 33.4346 158.506 31.8744ZM75.7016 44.2401L71.7245 41.7543L75.7016 39.2686C75.9666 39.1032 75.8494 38.6945 75.5371 38.6945H70.5605C70.2174 38.6945 69.9391 38.9728 69.9391 39.3159V43.5771H66.7812V38.9728L74.3149 34.6227C74.585 34.4665 74.4828 34.0544 74.1704 34.0428L69.483 33.8783L71.6846 29.7367C71.8308 29.4609 71.5251 29.1659 71.2551 29.3221L66.9448 31.8104C66.8021 31.8929 66.698 32.0286 66.6553 32.1878C66.6126 32.347 66.6349 32.5167 66.7172 32.6595L68.8482 36.3499L66.1132 37.9285L63.811 33.9406L68.1612 26.4068C68.3173 26.1368 68.0216 25.8302 67.7466 25.9773L63.605 28.1789L63.4413 23.4915C63.4305 23.18 63.0176 23.0769 62.8614 23.347L60.3732 27.6572C60.2012 27.9546 60.3034 28.3343 60.6008 28.5063L64.2912 30.6373L62.7127 33.3715L58.7248 31.0693V22.3699C58.7248 22.0575 58.3161 21.9404 58.1508 22.2054L55.665 26.1825L53.1792 22.2054C53.0139 21.9404 52.6051 22.0575 52.6051 22.3699V27.3465C52.6051 27.6896 52.8834 27.9679 53.2266 27.9679H57.4878V31.1258H52.8834L48.5333 23.592C48.3771 23.322 47.9651 23.4242 47.9534 23.7366L47.7898 28.424L43.6482 26.2224C43.3723 26.0762 43.0774 26.3819 43.2336 26.6519L45.7219 30.9621C45.8043 31.1049 45.9401 31.209 46.0993 31.2517C46.2585 31.2944 46.4282 31.2721 46.571 31.1898L50.2614 29.0588L51.8399 31.7938L47.8521 34.096L40.3183 29.7458C40.0483 29.5896 39.7426 29.8854 39.8888 30.1604L42.0904 34.302L37.403 34.4665C37.0914 34.4773 36.9884 34.8902 37.2584 35.0464L41.5687 37.5347C41.8661 37.7066 42.2458 37.6045 42.4178 37.307L44.5488 33.6166L47.2838 35.1951L44.9816 39.183H36.2806C35.9682 39.183 35.851 39.5917 36.1161 39.7571L40.0932 42.2429L36.1161 44.7286C35.851 44.894 35.9682 45.3027 36.2806 45.3027H41.2571C41.6002 45.3027 41.8786 45.0244 41.8786 44.6813V40.4201H45.0365V45.0244L37.5027 49.3745C37.2327 49.5307 37.3349 49.9428 37.6473 49.9544L42.3347 50.1189L40.133 54.2605C39.9868 54.5363 40.2925 54.8312 40.5626 54.6751L44.8728 52.1868C45.0155 52.1043 45.1196 51.9686 45.1623 51.8094C45.205 51.6501 45.1827 51.4805 45.1004 51.3377L42.9694 47.6473L45.7044 46.0687L48.0066 50.0566L43.6565 57.5904C43.5003 57.8604 43.7961 58.1669 44.0711 58.0199L48.2126 55.8182L48.3763 60.5057C48.3871 60.8172 48.8 60.9202 48.9562 60.6502L51.4445 56.34C51.6165 56.0426 51.5143 55.6629 51.2168 55.4909L47.5264 53.3599L49.1049 50.6257L53.0928 52.9279V61.6273C53.0928 61.9396 53.5016 62.0568 53.6669 61.7918L56.1527 57.8147L58.6384 61.7918C58.8038 62.0568 59.2125 61.9396 59.2125 61.6273V56.6507C59.2125 56.3076 58.9342 56.0293 58.5911 56.0293H54.3299V52.8714H58.9342L63.2843 60.4051C63.4405 60.6752 63.8526 60.573 63.8642 60.2606L64.0279 55.5732L68.1695 57.7748C68.4453 57.921 68.7402 57.6153 68.584 57.3453L66.0958 53.035C66.0133 52.8923 65.8775 52.7882 65.7183 52.7455C65.5591 52.7028 65.3895 52.7251 65.2467 52.8074L61.5562 54.9384L59.9777 52.2034L63.9656 49.9012L71.4993 54.2513C71.7693 54.4075 72.0751 54.1118 71.9289 53.8368L69.7272 49.6952L74.4146 49.5307C74.7262 49.5199 74.8292 49.107 74.5592 48.9508L70.249 46.4625C69.9515 46.2905 69.5719 46.3927 69.3999 46.6902L67.2689 50.3806L64.5338 48.8021L66.836 44.8142H75.5354C75.8478 44.8142 75.9649 44.4054 75.6999 44.2401H75.7016ZM71.0524 39.8078H72.7381L71.0515 40.8612V39.8078H71.0524ZM71.0524 42.6466L72.7389 43.7009H71.0524V42.6466ZM71.3348 35.058L69.8743 35.9013L69.3475 34.9882L71.3348 35.058ZM68.4544 33.4421L67.9277 32.529L69.3883 31.6858L68.4553 33.4413L68.4544 33.4421ZM61.5828 27.7885L62.4261 26.3279L62.4959 28.3152L61.5828 27.7885ZM64.042 29.2083L65.7975 28.2753L64.9542 29.7359L64.0412 29.2091L64.042 29.2083ZM53.7184 26.8555V25.1689L54.7719 26.8555H53.7184ZM46.4397 29.9801L45.5964 28.5196L47.3519 29.4526L46.4389 29.9793L46.4397 29.9801ZM48.8989 28.5603L48.9687 26.573L49.8119 28.0335L48.8997 28.5603H48.8989ZM41.6991 36.325L40.2385 35.4817L42.2258 35.412L41.6991 36.325ZM43.119 33.8658L42.186 32.1103L43.6465 32.9536L43.1198 33.8666L43.119 33.8658ZM40.7661 44.1903H39.0804L40.7669 43.1368V44.1903H40.7661ZM40.7661 41.3514L39.0796 40.2971H40.7661V41.3514ZM40.4836 48.94L41.9442 48.0967L42.4709 49.0098L40.4836 48.94ZM43.364 50.5559L43.8908 51.469L42.4302 52.3122L43.3632 50.5567L43.364 50.5559ZM50.2356 56.2096L49.3924 57.6701L49.3226 55.6828L50.2356 56.2096ZM47.7765 54.7897L46.021 55.7227L46.8642 54.2621L47.7773 54.7889L47.7765 54.7897ZM58.1001 57.1426V58.8291L57.0466 57.1426H58.1001ZM65.3788 54.0179L66.222 55.4785L64.4666 54.5455L65.3796 54.0187L65.3788 54.0179ZM62.9196 55.4377L62.8498 57.425L62.0065 55.9645L62.9188 55.4377H62.9196ZM70.1194 47.673L71.5799 48.5163L69.5926 48.5861L70.1194 47.673ZM68.6995 50.1322L69.6325 51.8877L68.172 51.0444L68.6987 50.1314L68.6995 50.1322ZM52.2371 41.9986L52.0601 42.306L50.5912 41.4577L51.2584 40.3029L52.2371 41.9986ZM51.5741 38.8706L52.7289 38.2035V40.1617L52.4215 40.3386L51.5732 38.8698L51.5741 38.8706ZM51.0332 42.8552L52.7289 43.8347V44.1894H51.0332V42.856V42.8552ZM54.0731 45.1789L54.2501 45.4863L52.7812 46.3346L52.1141 45.1798H54.0723L54.0731 45.1789ZM55.9092 45.6708L56.2158 45.8477L55.3675 47.3166L54.2127 46.6495L55.9084 45.6699L55.9092 45.6708ZM55.3551 44.0656L54.3955 43.5115L53.8414 42.5519V41.4444L54.3955 40.4849L55.3551 39.9307H56.4626L57.4221 40.4849L57.9763 41.4444V42.5519L57.4221 43.5115L56.4626 44.0656H55.3551ZM53.7184 38.8183V37.1226H55.0518L54.0723 38.8183H53.7176H53.7184ZM55.6018 38.1495L56.4501 36.6806L57.6049 37.3477L55.9092 38.3273L55.6027 38.1503L55.6018 38.1495ZM57.7453 45.1798H58.1001V46.8754H56.7666L57.7461 45.1798H57.7453ZM57.7453 38.8191L57.5684 38.5117L59.0372 37.6634L59.7044 38.8183H57.7461L57.7453 38.8191ZM60.7852 39.8086V41.142L59.0896 40.1625V39.8078H60.7852V39.8086ZM59.0896 43.8355L59.397 43.6585L60.2452 45.1274L59.0904 45.7946V43.8363L59.0896 43.8355ZM59.5814 41.9994L59.7584 41.692L61.2272 42.5403L60.5601 43.6951L59.5814 41.9994ZM60.8467 38.8191L60.2444 37.7756L65.6687 39.2287V43.0022L61.7589 39.0924C61.5845 38.918 61.3469 38.8191 61.1001 38.8191H60.8476H60.8467ZM62.9761 34.7207L64.8628 37.9883L59.5216 36.5568C59.4034 36.5251 59.2801 36.5169 59.1588 36.5329C59.0375 36.5489 58.9205 36.5886 58.8146 36.6499L58.5961 36.7761L57.5526 36.1738L62.9769 34.7207H62.9761ZM56.5581 26.8563L57.6124 25.1698V26.8563H56.5581ZM58.39 32.1627L61.6576 34.0494L56.3163 35.4809C56.0779 35.5449 55.8743 35.7011 55.7505 35.9154L55.6243 36.1348H54.4188L58.39 32.1635V32.1627ZM53.1393 32.2408H56.9128L53.0031 36.1505C52.8286 36.325 52.7297 36.5626 52.7297 36.8094V37.0619L51.6854 37.6643L53.1393 32.2399V32.2408ZM51.8989 33.0466L50.4674 38.3879C50.4357 38.5061 50.4276 38.6294 50.4436 38.7507C50.4595 38.872 50.4993 38.989 50.5605 39.0949L50.6868 39.3143L50.0836 40.3577L48.6305 34.9334L51.8981 33.0466H51.8989ZM47.9601 36.2519L49.3915 41.5932C49.4555 41.8316 49.6117 42.0351 49.8261 42.1589L50.0454 42.2852V43.4907L46.0741 39.5195L47.9609 36.2519H47.9601ZM46.1514 40.9975L50.0612 44.9073C50.2356 45.0817 50.4733 45.1806 50.72 45.1806H50.9726L51.5749 46.2241L46.1506 44.771V40.9975H46.1514ZM48.844 49.279L46.9573 46.0114L52.2985 47.4429C52.537 47.5068 52.792 47.4736 53.0056 47.3498L53.2241 47.2235L54.2676 47.8259L48.8432 49.279H48.844ZM55.262 57.1434L54.2077 58.8299V57.1434H55.262ZM53.4301 51.837L50.1625 49.9503L55.5038 48.5188C55.7422 48.4548 55.9458 48.2986 56.0696 48.0843L56.1959 47.8649H57.4014L53.4301 51.8362V51.837ZM58.6808 51.7589H54.9073L58.8171 47.8491C58.9915 47.6747 59.0904 47.4371 59.0904 47.1903V46.9377L60.1347 46.3354L58.6808 51.7598V51.7589ZM59.9212 50.953L61.3527 45.6118C61.3844 45.4936 61.3925 45.3703 61.3766 45.249C61.3606 45.1277 61.3209 45.0107 61.2596 44.9048L61.1334 44.6854L61.7365 43.6419L63.1896 49.0663L59.922 50.953H59.9212ZM63.8601 47.7478L62.4286 42.4065C62.3646 42.1681 62.2084 41.9645 61.9941 41.8407L61.7747 41.7145V40.509L65.746 44.4802L63.8592 47.7478H63.8601Z" fill="white"/>
</svg>
