<svg xmlns="http://www.w3.org/2000/svg" width="200" height="84" fill="none" viewBox="0 0 200 84">
  <mask id="a" width="141" height="25" x="30" y="30" maskUnits="userSpaceOnUse" style="mask-type:luminance">
    <path fill="#fff" d="M171 30H30v24.88h141V30Z"/>
  </mask>
  <g mask="url(#a)">
    <path fill="#000" d="M42.427 34.072H30v4.073h8.266v16.318h4.161v-20.39ZM50.693 30h-8.266v4.072h8.266V30Zm18.314 24.463L67.31 50.39H56.382l-1.698 4.073h-4.388l8.492-20.39h6.2l8.492 20.39h-4.473Zm-6.964-16.709h-.424l-3.708 8.954h7.87l-3.738-8.954Zm18.232 6.918c0 1.841.537 3.375 1.641 4.547 1.076 1.171 2.463 1.785 4.162 1.785 1.698 0 3.057-.586 4.16-1.785 1.076-1.172 1.643-2.706 1.643-4.547v-10.6h4.132v10.6c0 1.478-.254 2.817-.736 4.073-.509 1.255-1.188 2.315-2.066 3.207a9.417 9.417 0 0 1-3.142 2.12 10.34 10.34 0 0 1-3.963.781c-1.415 0-2.746-.25-3.963-.78s-2.265-1.228-3.142-2.12a9.53 9.53 0 0 1-2.067-3.209c-.481-1.227-.736-2.621-.736-4.072v-10.6h4.133v10.6h-.056Zm36.629 1.395c.34.39.566.697.736.976l4.671 7.42h-4.671l-5.265-8.368h-6.482v8.368h-4.133v-20.39h14.323c1.869 0 3.369.557 4.501 1.673 1.133 1.116 1.699 2.594 1.699 4.435 0 1.618-.482 2.985-1.472 4.045-.934 1.06-2.265 1.673-3.907 1.84Zm-.792-8.313h-10.191v4.687h10.191c.622 0 1.132-.196 1.5-.558.368-.363.566-.865.566-1.479v-.613c0-.614-.198-1.116-.566-1.479-.368-.362-.878-.558-1.5-.558Zm15.002 6.918c0 1.841.538 3.375 1.642 4.547 1.076 1.171 2.463 1.785 4.161 1.785 1.699 0 3.058-.586 4.162-1.785 1.075-1.172 1.641-2.706 1.641-4.547v-10.6h4.133v10.6c0 1.478-.254 2.817-.736 4.073-.509 1.255-1.189 2.315-2.066 3.207a9.424 9.424 0 0 1-3.142 2.12 10.34 10.34 0 0 1-3.963.781c-1.416 0-2.746-.25-3.963-.78-1.218-.53-2.265-1.228-3.143-2.12a9.533 9.533 0 0 1-2.066-3.209c-.481-1.227-.736-2.621-.736-4.072v-10.6h4.133v10.6h-.057Zm20.297 3.682h4.076c0 .865.538 1.562 1.586 2.092 1.047.53 2.434.78 4.133.78 1.868 0 3.283-.25 4.274-.78.962-.53 1.444-1.255 1.444-2.204 0-.809-.482-1.394-1.416-1.785-.934-.363-2.434-.558-4.472-.558-3.227 0-5.577-.446-7.049-1.367-1.444-.92-2.18-2.398-2.18-4.462 0-2.093.793-3.682 2.378-4.77 1.586-1.088 3.935-1.618 6.992-1.618 1.416 0 2.689.167 3.85.474 1.161.307 2.151.753 2.944 1.339a6.023 6.023 0 0 1 1.897 2.064c.453.809.679 1.702.679 2.678h-4.076c0-.865-.481-1.562-1.444-2.092-.962-.502-2.265-.781-3.85-.781-3.538 0-5.293.92-5.293 2.733 0 .781.424 1.34 1.274 1.674.849.335 2.264.502 4.217.502 3.369 0 5.803.474 7.332 1.423 1.5.948 2.265 2.482 2.265 4.574 0 2.176-.821 3.822-2.491 4.965-1.671 1.116-4.105 1.702-7.304 1.702-1.472 0-2.802-.168-3.991-.474-1.189-.307-2.236-.754-3.086-1.34-.849-.557-1.528-1.255-2.009-2.063a5.57 5.57 0 0 1-.68-2.706Z"/>
  </g>
</svg>
