<svg xmlns="http://www.w3.org/2000/svg" width="80" height="80" fill="none" viewBox="0 0 80 80">
  <g filter="url(#a)" opacity=".62">
    <path fill="url(#b)" d="M63.933 30.316 46.674 19v6.327l11.072 7.195-1.303 4.121h-9.769v5.242h9.77l1.302 4.122L46.674 53.2v6.327l17.26-11.28-2.823-8.966 2.822-8.966Z"/>
    <path fill="url(#c)" d="M31.659 41.885h9.733v-5.242h-9.77l-1.266-4.121 11.036-7.195V19l-17.26 11.316 2.823 8.966-2.822 8.966 17.295 11.28v-6.327l-11.072-7.194 1.303-4.122Z"/>
    <path fill="url(#d)" d="M41.392 41.885h-9.733l-1.303 4.122L41.428 53.2v6.327L24.154 48.262v-.081l2.801-8.899-2.8-8.898v-.082L41.391 19v6.327l-11.036 7.195 1.266 4.121h9.77v5.242Z"/>
    <path fill="url(#e)" d="M46.674 19v6.327l11.072 7.195-1.303 4.121h-9.769v5.242h9.77l1.302 4.122L46.674 53.2v6.327L63.67 48.421V47.41l-2.558-8.128 2.558-8.127v-1.012L46.674 19Z"/>
  </g>
  <path fill="url(#f)" d="M59.933 31.316 42.674 20v6.327l11.072 7.195-1.303 4.121h-9.769v5.242h9.77l1.302 4.122L42.674 54.2v6.327l17.26-11.28-2.823-8.966 2.822-8.966Z"/>
  <path fill="url(#g)" d="M27.659 42.885h9.733v-5.242h-9.77l-1.266-4.121 11.036-7.195V20l-17.26 11.316 2.823 8.966-2.822 8.966 17.295 11.28v-6.327l-11.072-7.194 1.303-4.122Z"/>
  <path fill="url(#h)" d="M37.392 42.885h-9.733l-1.303 4.122L37.428 54.2v6.327L20.154 49.262v-.081l2.801-8.899-2.8-8.898v-.082L37.391 20v6.327l-11.036 7.195 1.266 4.121h9.77v5.242Z"/>
  <path fill="url(#i)" d="M42.674 20v6.327l11.072 7.195-1.303 4.121h-9.769v5.242h9.77l1.302 4.122L42.674 54.2v6.327L59.67 49.421V48.41l-2.558-8.128 2.558-8.127v-1.012L42.674 20Z"/>
  <defs>
    <linearGradient id="b" x1="51.058" x2="45.809" y1="62.315" y2="12.302" gradientUnits="userSpaceOnUse">
      <stop stop-color="#0B46F9"/>
      <stop offset="1" stop-color="#BBFBE0"/>
    </linearGradient>
    <linearGradient id="c" x1="58.35" x2="46.789" y1="62.315" y2="14.549" gradientUnits="userSpaceOnUse">
      <stop stop-color="#0B46F9"/>
      <stop offset="1" stop-color="#BBFBE0"/>
    </linearGradient>
    <linearGradient id="d" x1="26.687" x2="46.698" y1="28.119" y2="43.064" gradientUnits="userSpaceOnUse">
      <stop offset=".12" stop-color="#8952FF" stop-opacity=".87"/>
      <stop offset="1" stop-color="#DABDFF" stop-opacity="0"/>
    </linearGradient>
    <linearGradient id="e" x1="26.687" x2="46.698" y1="28.119" y2="43.064" gradientUnits="userSpaceOnUse">
      <stop offset=".12" stop-color="#8952FF" stop-opacity=".87"/>
      <stop offset="1" stop-color="#DABDFF" stop-opacity="0"/>
    </linearGradient>
    <linearGradient id="f" x1="47.058" x2="41.809" y1="63.315" y2="13.302" gradientUnits="userSpaceOnUse">
      <stop stop-color="#0B46F9"/>
      <stop offset="1" stop-color="#BBFBE0"/>
    </linearGradient>
    <linearGradient id="g" x1="54.35" x2="42.789" y1="63.315" y2="15.549" gradientUnits="userSpaceOnUse">
      <stop stop-color="#0B46F9"/>
      <stop offset="1" stop-color="#BBFBE0"/>
    </linearGradient>
    <linearGradient id="h" x1="22.687" x2="42.698" y1="29.119" y2="44.064" gradientUnits="userSpaceOnUse">
      <stop offset=".12" stop-color="#8952FF" stop-opacity=".87"/>
      <stop offset="1" stop-color="#DABDFF" stop-opacity="0"/>
    </linearGradient>
    <linearGradient id="i" x1="22.687" x2="42.698" y1="29.119" y2="44.064" gradientUnits="userSpaceOnUse">
      <stop offset=".12" stop-color="#8952FF" stop-opacity=".87"/>
      <stop offset="1" stop-color="#DABDFF" stop-opacity="0"/>
    </linearGradient>
    <filter id="a" width="63.8" height="64.528" x="12.133" y="7" color-interpolation-filters="sRGB" filterUnits="userSpaceOnUse">
      <feFlood flood-opacity="0" result="BackgroundImageFix"/>
      <feBlend in="SourceGraphic" in2="BackgroundImageFix" result="shape"/>
      <feGaussianBlur result="effect1_foregroundBlur_52_21469" stdDeviation="6"/>
    </filter>
  </defs>
</svg>
