<svg width="81" height="80" viewBox="0 0 81 80" fill="none" xmlns="http://www.w3.org/2000/svg">
	<path d="M32.855 45.8765C33.3014 45.8766 33.6636 46.2388 33.6636 46.6851V57.1938C33.6635 57.6401 33.3014 58.0023 32.855 58.0024H22.3462C21.8997 58.0024 21.5376 57.6402 21.5376 57.1938V46.6851C21.5376 46.2387 21.8997 45.8765 22.3462 45.8765H32.855ZM57.106 45.8765C57.5523 45.8765 57.9136 46.2387 57.9136 46.6851V57.1938C57.9135 57.6402 57.5523 58.0024 57.106 58.0024H46.5972C46.1507 58.0024 45.7886 57.6402 45.7886 57.1938V46.6851C45.7886 46.2387 46.1506 45.8765 46.5972 45.8765H57.106ZM44.9849 33.7515C45.4312 33.7515 45.7935 34.1137 45.7935 34.5601V45.0688C45.7935 45.5152 45.4312 45.8774 44.9849 45.8774H34.4771C34.0305 45.8774 33.6685 45.5152 33.6685 45.0688V34.5601C33.6685 34.1137 34.0305 33.7515 34.4771 33.7515H44.9849ZM32.855 21.6255C33.3014 21.6256 33.6636 21.9875 33.6636 22.4341V32.9429C33.6635 33.3891 33.3014 33.7514 32.855 33.7515H22.3462C21.8997 33.7515 21.5377 33.3892 21.5376 32.9429V22.4341C21.5376 21.9874 21.8997 21.6255 22.3462 21.6255H32.855ZM57.106 21.6255C57.5523 21.6256 57.9136 21.9874 57.9136 22.4341V32.9429C57.9135 33.3891 57.5522 33.7514 57.106 33.7515H46.5972C46.1507 33.7515 45.7887 33.3892 45.7886 32.9429V22.4341C45.7886 21.9874 46.1506 21.6255 46.5972 21.6255H57.106Z"
	      fill="white"/>
	<g opacity="0.3" filter="url(#filter0_f_1055_26922)">
		<path d="M34.9541 42.7529C35.4005 42.753 35.7627 43.1152 35.7627 43.5615V54.0703C35.7627 54.5166 35.4005 54.8788 34.9541 54.8789H24.4453C23.9988 54.8789 23.6367 54.5167 23.6367 54.0703V43.5615C23.6367 43.1152 23.9988 42.7529 24.4453 42.7529H34.9541Z" fill="white"/>
		<path d="M59.2051 42.7529C59.6514 42.753 60.0127 43.1152 60.0127 43.5615V54.0703C60.0127 54.5166 59.6514 54.8788 59.2051 54.8789H48.6963C48.2498 54.8789 47.8877 54.5167 47.8877 54.0703V43.5615C47.8877 43.1152 48.2498 42.7529 48.6963 42.7529H59.2051Z" fill="white"/>
		<path d="M47.084 30.6279C47.5304 30.6279 47.8926 30.9902 47.8926 31.4365V41.9453C47.8926 42.3917 47.5304 42.7539 47.084 42.7539H36.5762C36.1297 42.7539 35.7676 42.3917 35.7676 41.9453V31.4365C35.7676 30.9902 36.1297 30.6279 36.5762 30.6279H47.084Z" fill="white"/>
		<path d="M34.9541 18.502C35.4005 18.5021 35.7627 18.8639 35.7627 19.3105V29.8193C35.7626 30.2656 35.4005 30.6278 34.9541 30.6279H24.4453C23.9989 30.6279 23.6368 30.2656 23.6367 29.8193V19.3105C23.6367 18.8639 23.9988 18.502 24.4453 18.502H34.9541Z" fill="white"/>
		<path d="M59.2051 18.502C59.6514 18.502 60.0127 18.8639 60.0127 19.3105V29.8193C60.0126 30.2656 59.6513 30.6279 59.2051 30.6279H48.6963C48.2498 30.6279 47.8878 30.2656 47.8877 29.8193V19.3105C47.8877 18.8639 48.2498 18.502 48.6963 18.502H59.2051Z" fill="white"/>
	</g>
	<defs>
		<filter id="filter0_f_1055_26922" x="11.6367" y="6.50195" width="60.376" height="60.377" filterUnits="userSpaceOnUse" color-interpolation-filters="sRGB">
			<feFlood flood-opacity="0" result="BackgroundImageFix"/>
			<feBlend mode="normal" in="SourceGraphic" in2="BackgroundImageFix" result="shape"/>
			<feGaussianBlur stdDeviation="6" result="effect1_foregroundBlur_1055_26922"/>
		</filter>
	</defs>
</svg>
