<svg xmlns="http://www.w3.org/2000/svg" width="80" height="80" fill="none" viewBox="0 0 80 80">
  <path fill="#E87AF3" fill-rule="evenodd" d="M17.004 40.825a7.345 7.345 0 0 0 .459 2.57c1.896 5.137 9.298 8.38 21.012 8.38s21.349-2.325 24.04-9.635c.336-.918.489-1.896.489-2.967 0-.887-.153-1.743-.458-2.57-1.897-5.138-9.299-8.38-21.013-8.38-11.714 0-21.349 2.326-24.04 9.635-.336.918-.49 1.896-.49 2.967Zm22.388 4.22c-3.64 0-6.24-1.376-6.851-3.027-.306-.734-.306-1.132-.306-1.59 0-.52.03-.978.336-1.744.949-2.539 4.038-3.732 8.044-3.732 3.64 0 6.24 1.377 6.852 3.028.305.734.305 1.132.305 1.59 0 .52-.03.98-.336 1.744-.948 2.539-4.037 3.732-8.044 3.732Zm.277-2.884c-1.55 0-2.657-.587-2.917-1.29-.13-.312-.13-.48-.13-.676 0-.223.013-.417.143-.743.404-1.081 1.718-1.589 3.424-1.589 1.55 0 2.657.586 2.917 1.289.13.313.13.482.13.677.007.255-.042.508-.143.743-.403 1.08-1.719 1.589-3.424 1.589Z" clip-rule="evenodd"/>
  <g filter="url(#a)" opacity=".5">
    <path fill="#E87AF3" fill-rule="evenodd" d="M19.004 35.602a7.345 7.345 0 0 0 .459 2.569c1.896 5.138 9.298 8.38 21.012 8.38s21.349-2.325 24.04-9.635c.336-.917.489-1.896.489-2.966 0-.887-.153-1.743-.458-2.57C62.649 26.242 55.247 23 43.533 23c-11.714 0-21.349 2.325-24.04 9.635-.336.918-.49 1.896-.49 2.967Zm22.388 4.22c-3.64 0-6.24-1.376-6.851-3.027-.306-.735-.306-1.133-.306-1.59 0-.52.03-.979.336-1.744.949-2.54 4.038-3.732 8.044-3.732 3.64 0 6.24 1.376 6.852 3.028.305.734.305 1.132.305 1.59 0 .52-.03.979-.336 1.743-.948 2.54-4.037 3.732-8.044 3.732Zm.277-2.885c-1.55 0-2.657-.586-2.917-1.29-.13-.311-.13-.48-.13-.676 0-.222.013-.416.143-.742.404-1.082 1.718-1.589 3.424-1.589 1.55 0 2.657.586 2.917 1.289.13.313.13.481.13.677a1.75 1.75 0 0 1-.143.742c-.403 1.081-1.719 1.59-3.424 1.59Z" clip-rule="evenodd"/>
  </g>
  <defs>
    <filter id="a" width="68" height="45.551" x="8.004" y="12" color-interpolation-filters="sRGB" filterUnits="userSpaceOnUse">
      <feFlood flood-opacity="0" result="BackgroundImageFix"/>
      <feBlend in="SourceGraphic" in2="BackgroundImageFix" result="shape"/>
      <feGaussianBlur result="effect1_foregroundBlur_52_23986" stdDeviation="5.5"/>
    </filter>
  </defs>
</svg>
