<svg xmlns="http://www.w3.org/2000/svg" width="80" height="80" fill="none" viewBox="0 0 80 80">
  <path fill="url(#a)" fill-rule="evenodd" d="M59.116 18H20.86v3.924h38.257V18ZM44.268 35.56 36.368 64l-1.522-.423 7.9-28.44 1.522.422Zm-10.174 7.205-3.352-3.352L20.376 49.78l10.366 10.366 3.352-3.352-7.014-7.014 7.014-7.015Zm10.852.164 3.43-3.405 10.61 10.53-10.61 10.53-3.43-3.405 7.18-7.125-7.18-7.125ZM20.859 24.867h38.257v3.924H20.86v-3.924Zm17.657 6.866H20.86v3.924h17.657v-3.924Z" clip-rule="evenodd"/>
  <g filter="url(#b)" opacity=".66">
    <path fill="#06E1FF" fill-rule="evenodd" d="m39.494 66.104 8.053-28.993-1.552-.431-8.053 28.993 1.552.43ZM33.759 41.04l3.416 3.417-7.15 7.15 7.15 7.15-3.416 3.418L23.19 51.607 33.76 41.04Zm18.719 0-3.417 3.417 7.15 7.15-7.15 7.15 3.417 3.418 10.567-10.568L52.478 41.04Z" clip-rule="evenodd"/>
    <path fill="#06E1FF" d="M23.191 17h34.887v3.578H23.191zm0 7.156h34.887v3.578H23.191zm0 6.262h16.996v3.578H23.191z"/>
  </g>
  <defs>
    <linearGradient id="a" x1="61.5" x2="39.746" y1="9" y2="64" gradientUnits="userSpaceOnUse">
      <stop stop-color="#0085FF"/>
      <stop offset="1" stop-color="#46E9FF"/>
    </linearGradient>
    <filter id="b" width="65.853" height="75.104" x="10.191" y="4" color-interpolation-filters="sRGB" filterUnits="userSpaceOnUse">
      <feFlood flood-opacity="0" result="BackgroundImageFix"/>
      <feBlend in="SourceGraphic" in2="BackgroundImageFix" result="shape"/>
      <feGaussianBlur result="effect1_foregroundBlur_55_2130" stdDeviation="6.5"/>
    </filter>
  </defs>
</svg>
