<svg xmlns="http://www.w3.org/2000/svg" width="80" height="80" fill="none" viewBox="0 0 80 80">
  <g class="github">
    <path fill="#24292F" fill-rule="evenodd" d="M40.518 19C28.619 19 19 28.625 19 40.532c0 9.519 6.163 17.576 14.713 20.427 1.07.214 1.46-.463 1.46-1.033 0-.5-.034-2.21-.034-3.993-5.986 1.283-7.233-2.567-7.233-2.567-.962-2.496-2.387-3.137-2.387-3.137-1.959-1.319.143-1.319.143-1.319 2.173.143 3.313 2.21 3.313 2.21 1.924 3.28 5.023 2.353 6.27 1.783.178-1.39.748-2.353 1.354-2.888-4.774-.5-9.797-2.353-9.797-10.624 0-2.352.855-4.277 2.209-5.775-.214-.534-.962-2.745.214-5.704 0 0 1.816-.57 5.913 2.21a20.82 20.82 0 0 1 5.38-.713c1.817 0 3.669.25 5.379.713 4.097-2.78 5.914-2.21 5.914-2.21 1.176 2.96.427 5.17.214 5.704 1.39 1.498 2.208 3.422 2.208 5.775 0 8.271-5.022 10.09-9.832 10.624.784.677 1.46 1.96 1.46 3.993 0 2.887-.035 5.205-.035 5.917 0 .57.392 1.248 1.46 1.035C55.837 58.107 62 50.05 62 40.532 62.035 28.625 52.38 19 40.518 19Z" class="Vector" clip-rule="evenodd"/>
    <g class="Vector" filter="url(#a)">
      <path fill="#24292F" fill-opacity=".4" fill-rule="evenodd" d="M44.516 17C33.724 17 25 25.708 25 36.482c0 8.611 5.59 15.901 13.345 18.481.97.194 1.324-.42 1.324-.935 0-.452-.032-2-.032-3.613-5.429 1.162-6.56-2.322-6.56-2.322-.872-2.258-2.164-2.838-2.164-2.838-1.777-1.194.13-1.194.13-1.194 1.97.13 3.004 2 3.004 2 1.745 2.967 4.556 2.129 5.687 1.613.161-1.258.679-2.129 1.228-2.613-4.33-.451-8.886-2.129-8.886-9.612 0-2.128.775-3.87 2.003-5.225-.193-.483-.872-2.483.194-5.16 0 0 1.648-.517 5.364 2a18.931 18.931 0 0 1 4.88-.646c1.647 0 3.327.226 4.878.645 3.716-2.516 5.364-2 5.364-2 1.066 2.678.387 4.678.194 5.161 1.26 1.355 2.003 3.097 2.003 5.225 0 7.483-4.556 9.128-8.918 9.612.711.613 1.325 1.774 1.325 3.613 0 2.612-.032 4.709-.032 5.354 0 .516.355 1.129 1.324.935C58.41 52.383 64 45.093 64 36.482 64.032 25.708 55.276 17 44.516 17Z" clip-rule="evenodd"/>
    </g>
  </g>
  <defs>
    <filter id="a" width="67" height="66" x="11" y="3" class="a" color-interpolation-filters="sRGB" filterUnits="userSpaceOnUse">
      <feFlood flood-opacity="0" result="BackgroundImageFix"/>
      <feBlend in="SourceGraphic" in2="BackgroundImageFix" result="shape"/>
      <feGaussianBlur result="effect1_foregroundBlur_55_2132" stdDeviation="7"/>
    </filter>
  </defs>
</svg>
