<svg width="80" height="80" viewBox="0 0 80 80" fill="none" xmlns="http://www.w3.org/2000/svg">
<g opacity="0.4" filter="url(#filter0_f_1533_25801)">
<path d="M33.0801 23.4004L22.9004 33.5947L27.6993 38.3926L39.8018 26.2764V20.3428H44.5118V26.6797L56.3722 38.5508L61.1095 33.8056L50.7677 23.4619L54.2628 20.0615L68.0002 33.8144L59.712 42.1064L68.0089 50.414L54.4239 64.0087L50.9288 60.6074L61.1095 50.414L56.3097 45.6162L44.5118 57.4267V63.666H39.8018V57.6318L27.6368 45.4492L22.9004 50.1943L33.2413 60.538L29.7461 63.9384L16 50.1943L24.2949 41.8935L16 33.5947L29.585 20L33.0801 23.4004ZM31.0391 41.956L42.0538 52.9804L52.9728 42.0556L41.9552 31.0283L31.0391 41.956Z" fill="white"/>
</g>
<path fill-rule="evenodd" clip-rule="evenodd" d="M31.0801 21.4004L20.9004 31.5947L25.6992 36.3926L37.8008 24.2773V18.3428H42.5107V24.6787L54.3721 36.5508L59.1094 31.8057L48.7676 21.4619L52.2627 18.0615L66 31.8145L57.7119 40.1064L66.0088 48.4141L52.4238 62.0088L48.9287 58.6074L59.1094 48.4141L54.3096 43.6162L42.5107 55.4277V61.666H37.8008V55.6309L25.6367 43.4492L20.9004 48.1943L31.2412 58.5381L27.7461 61.9385L14 48.1943L22.2949 39.8936L14 31.5947L27.585 18L31.0801 21.4004ZM29.0391 39.9561L40.0537 50.9805L50.9727 40.0557L39.9551 29.0283L29.0391 39.9561Z" fill="white"/>
<defs>
<filter id="filter0_f_1533_25801" x="8" y="12" width="68.0088" height="60.0088" filterUnits="userSpaceOnUse" color-interpolation-filters="sRGB">
<feFlood flood-opacity="0" result="BackgroundImageFix"/>
<feBlend mode="normal" in="SourceGraphic" in2="BackgroundImageFix" result="shape"/>
<feGaussianBlur stdDeviation="4" result="effect1_foregroundBlur_1533_25801"/>
</filter>
</defs>
</svg>
