<svg xmlns="http://www.w3.org/2000/svg" width="80" height="80" fill="none" viewBox="0 0 80 80">
  <g filter="url(#a)" opacity=".8">
    <path fill="#CDBEFF" d="m24.706 26.264 13.517-7.885 13.517 7.885-13.517 7.885-13.517-7.885Z"/>
    <path fill="#936DFF" d="m38.224 47.103 13.517-7.885V26.264L38.224 34.15v12.954Z"/>
    <path fill="#A080FF" d="M24.706 26.264v12.954l13.517 7.885V34.15l-13.517-7.885Z"/>
    <path fill="#9573FD" fill-rule="evenodd" d="M42.165 23.167H34.28v3.379c0 1.244 1.765 2.253 3.943 2.253 2.177 0 3.942-1.009 3.942-2.253v-3.38Z" clip-rule="evenodd"/>
    <ellipse cx="38.223" cy="23.167" fill="#F7EEFF" rx="3.943" ry="2.253"/>
    <path fill="#CDBEFF" d="m38.224 34.15 13.517-7.886 13.517 7.885-13.517 7.885-13.517-7.885Z"/>
    <path fill="url(#b)" d="m51.741 54.988 13.517-7.885V34.15l-13.517 7.885v12.954Z"/>
    <path fill="#A080FF" d="M38.224 34.15v12.953l13.517 7.885V42.034L38.224 34.15Z"/>
    <path fill="#9573FD" fill-rule="evenodd" d="M55.684 31.052h-7.885v3.379c0 1.244 1.765 2.253 3.942 2.253 2.178 0 3.943-1.009 3.943-2.253v-3.38Z" clip-rule="evenodd"/>
    <ellipse cx="51.741" cy="31.052" fill="#F7EEFF" rx="3.943" ry="2.253"/>
    <path fill="#FFB8B4" d="m11.19 34.15 13.517-7.886 13.517 7.885-13.517 7.885-13.518-7.885Z"/>
    <path fill="#EA6463" d="m24.707 54.989 13.517-7.885V34.15l-13.517 7.885v12.954Z"/>
    <path fill="#F88887" fill-rule="evenodd" d="M28.65 31.052h-7.885v3.379c0 1.244 1.765 2.253 3.942 2.253 2.178 0 3.943-1.009 3.943-2.253v-3.38Z" clip-rule="evenodd"/>
    <ellipse cx="24.707" cy="31.052" fill="#FFEDEF" rx="3.943" ry="2.253"/>
    <path fill="#FFB8B4" d="m24.707 42.034 13.517-7.885 13.518 7.885-13.518 7.885-13.517-7.885Z"/>
    
    <path fill="url(#d)" d="m38.224 62.874 13.517-7.885V42.035L38.224 49.92v12.954Z" data-figma-bg-blur-radius="54"/>
    <path fill="url(#e)" fill-rule="evenodd" d="M11.19 47.104V34.15l13.517 7.885 13.517 7.885v12.954l-13.517-7.885-13.518-7.885Z" clip-rule="evenodd"/>
    <path fill="#F88887" fill-rule="evenodd" d="M42.166 38.937h-7.885v3.379c0 1.244 1.765 2.253 3.943 2.253 2.177 0 3.942-1.009 3.942-2.253v-3.38Z" clip-rule="evenodd"/>
    <ellipse cx="38.224" cy="38.937" fill="#FFEDEF" rx="3.943" ry="2.253"/>
  </g>
  <path fill="#CDBEFF" d="m26.758 26.264 13.517-7.885 13.517 7.885-13.517 7.885-13.517-7.885Z"/>
  <path fill="#936DFF" d="m40.275 47.103 13.518-7.885V26.264L40.275 34.15v12.954Z"/>
  <path fill="#A080FF" d="M26.758 26.264v12.954l13.517 7.885V34.15l-13.517-7.885Z"/>
  <path fill="#9573FD" fill-rule="evenodd" d="M44.218 23.167h-7.885v3.38c0 1.243 1.765 2.252 3.943 2.252 2.177 0 3.942-1.009 3.942-2.253v-3.379Z" clip-rule="evenodd"/>
  <ellipse cx="40.276" cy="23.167" fill="#F7EEFF" rx="3.943" ry="2.253"/>
  <path fill="#CDBEFF" d="m40.275 34.15 13.518-7.886L67.31 34.15l-13.517 7.885-13.518-7.885Z"/>
  <path fill="url(#f)" d="m53.793 54.988 13.517-7.885V34.15l-13.517 7.885v12.954Z"/>
  <path fill="#A080FF" d="M40.275 34.15v12.953l13.518 7.885V42.034L40.275 34.15Z"/>
  <path fill="#9573FD" fill-rule="evenodd" d="M57.736 31.052H49.85v3.379c0 1.244 1.765 2.253 3.942 2.253 2.178 0 3.943-1.009 3.943-2.253v-3.379Z" clip-rule="evenodd"/>
  <ellipse cx="53.793" cy="31.052" fill="#F7EEFF" rx="3.943" ry="2.253"/>
  <path fill="#FFB8B4" d="m13.241 34.15 13.518-7.886 13.517 7.885-13.518 7.885-13.517-7.885Z"/>
  <path fill="#EA6463" d="m26.759 54.989 13.517-7.885V34.15l-13.517 7.885v12.954Z"/>
  <path fill="#F88887" fill-rule="evenodd" d="M30.7 31.052h-7.885v3.379h.001c0 1.244 1.765 2.253 3.943 2.253 2.177 0 3.942-1.009 3.942-2.253v-3.379Z" clip-rule="evenodd"/>
  <ellipse cx="26.758" cy="31.052" fill="#FFEDEF" rx="3.943" ry="2.253"/>
  <path fill="#FFB8B4" d="m26.759 42.034 13.517-7.885 13.517 7.885-13.517 7.885-13.517-7.885Z"/>
  
  <path fill="url(#h)" d="m40.275 62.874 13.518-7.885V42.035L40.275 49.92v12.954Z" data-figma-bg-blur-radius="54"/>
  <path fill="url(#i)" fill-rule="evenodd" d="M13.241 47.104V34.15l13.517 7.885 13.517 7.885v12.954L26.76 54.989l-13.52-7.885Z" clip-rule="evenodd"/>
  <path fill="#F88887" fill-rule="evenodd" d="M44.218 38.937h-7.885v3.379c0 1.244 1.765 2.253 3.943 2.253 2.177 0 3.942-1.009 3.942-2.253v-3.379Z" clip-rule="evenodd"/>
  <ellipse cx="40.276" cy="38.937" fill="#FFEDEF" rx="3.943" ry="2.253"/>
  <defs>
    <linearGradient id="b" x1="58.5" x2="58.5" y1="34.149" y2="54.988" gradientUnits="userSpaceOnUse">
      <stop stop-color="#632DFF"/>
      <stop offset="1" stop-color="#AF93FF" stop-opacity=".78"/>
    </linearGradient>
    <linearGradient id="d" x1="39.196" x2="57.377" y1="48.569" y2="79.055" gradientUnits="userSpaceOnUse">
      <stop stop-color="#D24544"/>
      <stop offset="1" stop-color="#FB9190" stop-opacity=".24"/>
    </linearGradient>
    <linearGradient id="e" x1="24.706" x2="23.733" y1="34.15" y2="55.071" gradientUnits="userSpaceOnUse">
      <stop stop-color="#F79998"/>
      <stop offset="1" stop-color="#F88887"/>
    </linearGradient>
    <linearGradient id="f" x1="60.552" x2="60.552" y1="34.149" y2="54.988" gradientUnits="userSpaceOnUse">
      <stop stop-color="#632DFF"/>
      <stop offset="1" stop-color="#AF93FF" stop-opacity=".78"/>
    </linearGradient>
    <linearGradient id="h" x1="41.248" x2="59.429" y1="48.569" y2="79.055" gradientUnits="userSpaceOnUse">
      <stop stop-color="#D24544"/>
      <stop offset="1" stop-color="#FB9190" stop-opacity=".24"/>
    </linearGradient>
    <linearGradient id="i" x1="26.758" x2="25.785" y1="34.15" y2="55.071" gradientUnits="userSpaceOnUse">
      <stop stop-color="#F79998"/>
      <stop offset="1" stop-color="#F88887"/>
    </linearGradient>
    <clipPath id="c" transform="translate(15.776 11.965)">
      <path d="m38.224 62.874 13.517-7.885V42.035L38.224 49.92v12.954Z"/>
    </clipPath>
    <clipPath id="g" transform="translate(13.725 11.965)">
      <path d="m40.275 62.874 13.518-7.885V42.035L40.275 49.92v12.954Z"/>
    </clipPath>
    <filter id="a" width="76.069" height="66.494" x=".189" y="7.379" color-interpolation-filters="sRGB" filterUnits="userSpaceOnUse">
      <feFlood flood-opacity="0" result="BackgroundImageFix"/>
      <feBlend in="SourceGraphic" in2="BackgroundImageFix" result="shape"/>
      <feGaussianBlur result="effect1_foregroundBlur_55_2135" stdDeviation="5.5"/>
    </filter>
  </defs>
</svg>
