<svg xmlns="http://www.w3.org/2000/svg" width="80" height="80" fill="none" viewBox="0 0 80 80">
  <g clip-path="url(#a)">
    <path fill="#00A3FF" d="m54.12 34.025.358.546c4.051 6.167 3.147 14.244-2.175 19.418-3.13 3.044-7.233 4.566-11.336 4.567l13.152-24.531Z" opacity=".6"/>
    <path fill="#00A3FF" d="m40.966 41.48 13.152-7.455-13.152 24.53V41.48Z" opacity=".2"/>
    <path fill="#00A3FF" d="m27.8 34.025-.358.546c-4.051 6.167-3.147 14.244 2.175 19.418 3.13 3.044 7.233 4.566 11.336 4.567L27.8 34.025Z"/>
    <path fill="#00A3FF" d="m40.95 41.48-13.153-7.455 13.152 24.53V41.48Z" opacity=".6"/>
    <path fill="#00A3FF" d="M40.97 24.825v12.859l11.33-6.426-11.33-6.433Z" opacity=".2"/>
    <path fill="#00A3FF" d="M40.966 24.825 29.63 31.258l11.337 6.426v-12.86Z" opacity=".6"/>
    <path fill="#00A3FF" d="M40.966 14.01 29.63 31.262l11.337-6.452v-10.8Z"/>
    <path fill="#00A3FF" d="m40.97 24.809 11.34 6.451L40.97 14v10.809Z" opacity=".6"/>
    <g filter="url(#b)" opacity=".7">
      <path fill="#00A3FF" d="m54.12 34.303.358.546c4.051 6.167 3.147 14.244-2.175 19.418-3.13 3.044-7.233 4.566-11.336 4.567l13.152-24.531Z" opacity=".6"/>
      <path fill="#00A3FF" d="m40.966 41.758 13.152-7.455-13.152 24.53V41.759Z" opacity=".2"/>
      <path fill="#00A3FF" d="m27.8 34.303-.358.546c-4.051 6.167-3.147 14.244 2.175 19.418 3.13 3.044 7.233 4.566 11.336 4.567L27.8 34.303Z"/>
      <path fill="#00A3FF" d="m40.95 41.758-13.153-7.455 13.152 24.53V41.759Z" opacity=".6"/>
      <path fill="#00A3FF" d="M40.97 25.102v12.86l11.33-6.426-11.33-6.434Z" opacity=".2"/>
      <path fill="#00A3FF" d="M40.966 25.102 29.63 31.536l11.337 6.425V25.102Z" opacity=".6"/>
      <path fill="#00A3FF" d="M40.966 14.288 29.63 31.54l11.337-6.452v-10.8Z"/>
      <path fill="#00A3FF" d="m40.97 25.086 11.339 6.452-11.338-17.26v10.808Z" opacity=".6"/>
    </g>
    <path fill="url(#c)" fill-opacity=".5" d="M68.663 39.924c1.774 1.024 1.784 2.684.021 3.707L44.79 57.511c-1.762 1.023-4.63 1.023-6.404 0l-24.05-13.88c-1.773-1.023-1.783-2.683-.02-3.706l23.894-13.88c1.762-1.023 4.63-1.023 6.404 0l24.05 13.88Z"/>
    <path fill="url(#d)" fill-opacity=".9" d="M68.616 47.005c1.837 1.1 1.847 2.882.022 3.981L43.906 65.89c-1.825 1.1-4.793 1.1-6.629 0L12.384 50.987c-1.837-1.1-1.847-2.882-.022-3.98l24.732-14.904c1.825-1.1 4.793-1.1 6.629 0l24.893 14.902Z"/>
  </g>
  <defs>
    <radialGradient id="c" cx="0" cy="0" r="1" gradientTransform="matrix(-35.49038 -40.45192 32.05805 -28.12603 39.887 67.326)" gradientUnits="userSpaceOnUse">
      <stop offset=".118" stop-color="#00A3FF"/>
      <stop offset="1" stop-color="#00A3FF" stop-opacity="0"/>
    </radialGradient>
    <radialGradient id="d" cx="0" cy="0" r="1" gradientTransform="matrix(-1.99999 -36.00009 59.50115 -3.30559 39.5 75.278)" gradientUnits="userSpaceOnUse">
      <stop offset=".118" stop-color="#00A3FF"/>
      <stop offset="1" stop-color="#00A3FF" stop-opacity="0"/>
    </radialGradient>
    <clipPath id="a">
      <path fill="#fff" d="M0 0h80v80H0z"/>
    </clipPath>
    <filter id="b" width="62.08" height="74.556" x="9.92" y="-.722" color-interpolation-filters="sRGB" filterUnits="userSpaceOnUse">
      <feFlood flood-opacity="0" result="BackgroundImageFix"/>
      <feBlend in="SourceGraphic" in2="BackgroundImageFix" result="shape"/>
      <feGaussianBlur result="effect1_foregroundBlur_55_2103" stdDeviation="7.5"/>
    </filter>
  </defs>
</svg>
