<svg xmlns="http://www.w3.org/2000/svg" width="80" height="80" fill="none" viewBox="0 0 80 80">
  <path fill="url(#a)" d="m24.992 58.26-2.495-2.467 33.51-33.053 2.496 2.442-33.51 33.078Zm26.025.74c-1.647 0-3.152-.395-4.516-1.184a9.406 9.406 0 0 1-3.244-3.207c-.815-1.348-1.222-2.845-1.222-4.489a8.29 8.29 0 0 1 1.247-4.44 9.479 9.479 0 0 1 3.294-3.231 8.578 8.578 0 0 1 4.441-1.209c1.647 0 3.152.403 4.517 1.209a8.87 8.87 0 0 1 3.243 3.206C59.593 46.987 60 48.475 60 50.12c0 1.644-.407 3.14-1.223 4.49a9.13 9.13 0 0 1-3.243 3.206c-1.364.79-2.87 1.184-4.517 1.184Zm0-3.28a5.456 5.456 0 0 0 2.82-.765 5.917 5.917 0 0 0 2.07-2.023 5.344 5.344 0 0 0 .774-2.812c0-1.02-.258-1.949-.773-2.787a5.848 5.848 0 0 0-2.071-2.048 5.456 5.456 0 0 0-2.82-.764c-1.031 0-1.98.255-2.844.764a6.132 6.132 0 0 0-2.071 2.048 5.217 5.217 0 0 0-.774 2.787c0 1.02.258 1.957.774 2.812a6.21 6.21 0 0 0 2.07 2.023c.866.51 1.814.764 2.845.764ZM29.983 39.76c-1.647 0-3.152-.395-4.517-1.184a9.338 9.338 0 0 1-3.268-3.207C21.399 34.021 21 32.524 21 30.88a8.29 8.29 0 0 1 1.248-4.44 9.477 9.477 0 0 1 3.293-3.231A8.578 8.578 0 0 1 29.983 22c1.647 0 3.144.403 4.491 1.209a9.067 9.067 0 0 1 3.269 3.206c.815 1.332 1.222 2.82 1.222 4.465 0 1.644-.407 3.14-1.222 4.49a9.338 9.338 0 0 1-3.269 3.206c-1.347.79-2.844 1.184-4.491 1.184Zm0-3.28a5.37 5.37 0 0 0 2.82-.765 5.917 5.917 0 0 0 2.07-2.023 5.343 5.343 0 0 0 .774-2.812 5.21 5.21 0 0 0-.774-2.787 5.848 5.848 0 0 0-2.07-2.048 5.37 5.37 0 0 0-2.82-.764c-1.032 0-1.98.255-2.845.764a5.915 5.915 0 0 0-2.046 2.048 5.217 5.217 0 0 0-.773 2.787c0 1.02.258 1.957.773 2.812a5.986 5.986 0 0 0 2.046 2.023c.865.51 1.813.764 2.845.764Z"/>
  <path fill="url(#b)" d="m24.992 58.26-2.495-2.467 33.51-33.053 2.496 2.442-33.51 33.078Zm26.025.74c-1.647 0-3.152-.395-4.516-1.184a9.406 9.406 0 0 1-3.244-3.207c-.815-1.348-1.222-2.845-1.222-4.489a8.29 8.29 0 0 1 1.247-4.44 9.479 9.479 0 0 1 3.294-3.231 8.578 8.578 0 0 1 4.441-1.209c1.647 0 3.152.403 4.517 1.209a8.87 8.87 0 0 1 3.243 3.206C59.593 46.987 60 48.475 60 50.12c0 1.644-.407 3.14-1.223 4.49a9.13 9.13 0 0 1-3.243 3.206c-1.364.79-2.87 1.184-4.517 1.184Zm0-3.28a5.456 5.456 0 0 0 2.82-.765 5.917 5.917 0 0 0 2.07-2.023 5.344 5.344 0 0 0 .774-2.812c0-1.02-.258-1.949-.773-2.787a5.848 5.848 0 0 0-2.071-2.048 5.456 5.456 0 0 0-2.82-.764c-1.031 0-1.98.255-2.844.764a6.132 6.132 0 0 0-2.071 2.048 5.217 5.217 0 0 0-.774 2.787c0 1.02.258 1.957.774 2.812a6.21 6.21 0 0 0 2.07 2.023c.866.51 1.814.764 2.845.764ZM29.983 39.76c-1.647 0-3.152-.395-4.517-1.184a9.338 9.338 0 0 1-3.268-3.207C21.399 34.021 21 32.524 21 30.88a8.29 8.29 0 0 1 1.248-4.44 9.477 9.477 0 0 1 3.293-3.231A8.578 8.578 0 0 1 29.983 22c1.647 0 3.144.403 4.491 1.209a9.067 9.067 0 0 1 3.269 3.206c.815 1.332 1.222 2.82 1.222 4.465 0 1.644-.407 3.14-1.222 4.49a9.338 9.338 0 0 1-3.269 3.206c-1.347.79-2.844 1.184-4.491 1.184Zm0-3.28a5.37 5.37 0 0 0 2.82-.765 5.917 5.917 0 0 0 2.07-2.023 5.343 5.343 0 0 0 .774-2.812 5.21 5.21 0 0 0-.774-2.787 5.848 5.848 0 0 0-2.07-2.048 5.37 5.37 0 0 0-2.82-.764c-1.032 0-1.98.255-2.845.764a5.915 5.915 0 0 0-2.046 2.048 5.217 5.217 0 0 0-.773 2.787c0 1.02.258 1.957.773 2.812a5.986 5.986 0 0 0 2.046 2.023c.865.51 1.813.764 2.845.764Z"/>
  <g filter="url(#c)">
    <path fill="url(#d)" d="m24.992 55.26-2.495-2.467 33.51-33.053 2.496 2.442-33.51 33.078Zm26.025.74c-1.647 0-3.152-.395-4.516-1.184a9.406 9.406 0 0 1-3.244-3.207c-.815-1.348-1.222-2.845-1.222-4.489a8.29 8.29 0 0 1 1.247-4.44 9.479 9.479 0 0 1 3.294-3.231 8.578 8.578 0 0 1 4.441-1.209c1.647 0 3.152.403 4.517 1.209a8.87 8.87 0 0 1 3.243 3.206C59.593 43.987 60 45.475 60 47.12c0 1.644-.407 3.14-1.223 4.49a9.13 9.13 0 0 1-3.243 3.206c-1.364.79-2.87 1.184-4.517 1.184Zm0-3.28a5.456 5.456 0 0 0 2.82-.765 5.917 5.917 0 0 0 2.07-2.023 5.344 5.344 0 0 0 .774-2.812c0-1.02-.258-1.949-.773-2.787a5.848 5.848 0 0 0-2.071-2.048 5.456 5.456 0 0 0-2.82-.764c-1.031 0-1.98.255-2.844.764a6.132 6.132 0 0 0-2.071 2.048 5.217 5.217 0 0 0-.774 2.787c0 1.02.258 1.957.774 2.812a6.21 6.21 0 0 0 2.07 2.023c.866.51 1.814.764 2.845.764ZM29.983 36.76c-1.647 0-3.152-.395-4.517-1.184a9.338 9.338 0 0 1-3.268-3.207C21.399 31.021 21 29.524 21 27.88a8.29 8.29 0 0 1 1.248-4.44 9.477 9.477 0 0 1 3.293-3.231A8.578 8.578 0 0 1 29.983 19c1.647 0 3.144.403 4.491 1.209a9.067 9.067 0 0 1 3.269 3.206c.815 1.332 1.222 2.82 1.222 4.465 0 1.644-.407 3.14-1.222 4.49a9.338 9.338 0 0 1-3.269 3.206c-1.347.79-2.844 1.184-4.491 1.184Zm0-3.28a5.37 5.37 0 0 0 2.82-.765 5.917 5.917 0 0 0 2.07-2.023 5.343 5.343 0 0 0 .774-2.812 5.21 5.21 0 0 0-.774-2.787 5.848 5.848 0 0 0-2.07-2.048 5.37 5.37 0 0 0-2.82-.764c-1.032 0-1.98.255-2.845.764a5.915 5.915 0 0 0-2.046 2.048 5.217 5.217 0 0 0-.773 2.787c0 1.02.258 1.957.773 2.812a5.986 5.986 0 0 0 2.046 2.023c.865.51 1.813.764 2.845.764Z"/>
    <path fill="url(#e)" d="m24.992 55.26-2.495-2.467 33.51-33.053 2.496 2.442-33.51 33.078Zm26.025.74c-1.647 0-3.152-.395-4.516-1.184a9.406 9.406 0 0 1-3.244-3.207c-.815-1.348-1.222-2.845-1.222-4.489a8.29 8.29 0 0 1 1.247-4.44 9.479 9.479 0 0 1 3.294-3.231 8.578 8.578 0 0 1 4.441-1.209c1.647 0 3.152.403 4.517 1.209a8.87 8.87 0 0 1 3.243 3.206C59.593 43.987 60 45.475 60 47.12c0 1.644-.407 3.14-1.223 4.49a9.13 9.13 0 0 1-3.243 3.206c-1.364.79-2.87 1.184-4.517 1.184Zm0-3.28a5.456 5.456 0 0 0 2.82-.765 5.917 5.917 0 0 0 2.07-2.023 5.344 5.344 0 0 0 .774-2.812c0-1.02-.258-1.949-.773-2.787a5.848 5.848 0 0 0-2.071-2.048 5.456 5.456 0 0 0-2.82-.764c-1.031 0-1.98.255-2.844.764a6.132 6.132 0 0 0-2.071 2.048 5.217 5.217 0 0 0-.774 2.787c0 1.02.258 1.957.774 2.812a6.21 6.21 0 0 0 2.07 2.023c.866.51 1.814.764 2.845.764ZM29.983 36.76c-1.647 0-3.152-.395-4.517-1.184a9.338 9.338 0 0 1-3.268-3.207C21.399 31.021 21 29.524 21 27.88a8.29 8.29 0 0 1 1.248-4.44 9.477 9.477 0 0 1 3.293-3.231A8.578 8.578 0 0 1 29.983 19c1.647 0 3.144.403 4.491 1.209a9.067 9.067 0 0 1 3.269 3.206c.815 1.332 1.222 2.82 1.222 4.465 0 1.644-.407 3.14-1.222 4.49a9.338 9.338 0 0 1-3.269 3.206c-1.347.79-2.844 1.184-4.491 1.184Zm0-3.28a5.37 5.37 0 0 0 2.82-.765 5.917 5.917 0 0 0 2.07-2.023 5.343 5.343 0 0 0 .774-2.812 5.21 5.21 0 0 0-.774-2.787 5.848 5.848 0 0 0-2.07-2.048 5.37 5.37 0 0 0-2.82-.764c-1.032 0-1.98.255-2.845.764a5.915 5.915 0 0 0-2.046 2.048 5.217 5.217 0 0 0-.773 2.787c0 1.02.258 1.957.773 2.812a5.986 5.986 0 0 0 2.046 2.023c.865.51 1.813.764 2.845.764Z"/>
  </g>
  <defs>
    <radialGradient id="a" cx="0" cy="0" r="1" gradientTransform="rotate(127.03 7.144 50.262) scale(23.7829 81.6918)" gradientUnits="userSpaceOnUse">
      <stop stop-color="#00A3FF"/>
      <stop offset=".944" stop-color="#00A3FF" stop-opacity=".29"/>
    </radialGradient>
    <radialGradient id="b" cx="0" cy="0" r="1" gradientTransform="matrix(26.99997 43.37928 -113.75265 70.80148 19.8 14.345)" gradientUnits="userSpaceOnUse">
      <stop stop-color="#5200FF"/>
      <stop offset="1" stop-color="#6100FF" stop-opacity="0"/>
    </radialGradient>
    <radialGradient id="d" cx="0" cy="0" r="1" gradientTransform="rotate(127.03 7.891 48.762) scale(23.7829 81.6918)" gradientUnits="userSpaceOnUse">
      <stop stop-color="#00A3FF"/>
      <stop offset=".944" stop-color="#00A3FF" stop-opacity=".29"/>
    </radialGradient>
    <radialGradient id="e" cx="0" cy="0" r="1" gradientTransform="matrix(26.99997 43.37928 -113.75265 70.80148 19.8 11.345)" gradientUnits="userSpaceOnUse">
      <stop stop-color="#5200FF"/>
      <stop offset="1" stop-color="#6100FF" stop-opacity="0"/>
    </radialGradient>
    <filter id="c" width="61" height="59" x="10" y="8" color-interpolation-filters="sRGB" filterUnits="userSpaceOnUse">
      <feFlood flood-opacity="0" result="BackgroundImageFix"/>
      <feBlend in="SourceGraphic" in2="BackgroundImageFix" result="shape"/>
      <feGaussianBlur result="effect1_foregroundBlur_55_2121" stdDeviation="5.5"/>
    </filter>
  </defs>
</svg>
