<svg xmlns="http://www.w3.org/2000/svg" width="80" height="80" fill="none" viewBox="0 0 80 80">
  <g filter="url(#a)" opacity=".6">
    <path fill="url(#b)" fill-rule="evenodd" d="M43.395 21.662c-1.565-2.513-5.224-2.513-6.79 0L22.827 43.78c-1.66 2.664.256 6.115 3.395 6.115h27.556c3.14 0 5.055-3.45 3.395-6.115L43.395 21.662Zm-5.163 5.53a1 1 0 0 1 .999-1.04h1.538a1 1 0 0 1 1 1.04l-.52 12.495a1 1 0 0 1-1 .959h-.497a1 1 0 0 1-1-.959l-.52-12.494Zm-.043 16.473a1.812 1.812 0 1 1 3.623 0 1.812 1.812 0 0 1-3.623 0Z" clip-rule="evenodd"/>
  </g>
  <path fill="url(#c)" fill-rule="evenodd" d="M43.395 24.735c-1.565-2.513-5.224-2.513-6.79 0L22.827 46.852c-1.66 2.665.256 6.116 3.395 6.116h27.556c3.14 0 5.055-3.451 3.395-6.116L43.395 24.735Zm-5.163 5.53a1 1 0 0 1 .999-1.04h1.538a1 1 0 0 1 1 1.04l-.52 12.495a1 1 0 0 1-1 .959h-.497a1 1 0 0 1-1-.959l-.52-12.494Zm-.043 16.473a1.812 1.812 0 1 1 3.623 0 1.812 1.812 0 0 1-3.623 0Z" clip-rule="evenodd"/>
  <defs>
    <radialGradient id="b" cx="0" cy="0" r="1" gradientTransform="matrix(1.27751 24.49751 -28.93588 1.50897 40 34.836)" gradientUnits="userSpaceOnUse">
      <stop stop-color="#E7456C"/>
      <stop offset="1" stop-color="#E7456C" stop-opacity=".5"/>
    </radialGradient>
    <radialGradient id="c" cx="0" cy="0" r="1" gradientTransform="matrix(1.27751 24.49751 -28.93588 1.50897 40 37.909)" gradientUnits="userSpaceOnUse">
      <stop stop-color="#E7456C"/>
      <stop offset="1" stop-color="#E7456C" stop-opacity=".5"/>
    </radialGradient>
    <filter id="a" width="67.569" height="62.117" x="6.216" y="3.777" color-interpolation-filters="sRGB" filterUnits="userSpaceOnUse">
      <feFlood flood-opacity="0" result="BackgroundImageFix"/>
      <feBlend in="SourceGraphic" in2="BackgroundImageFix" result="shape"/>
      <feGaussianBlur result="effect1_foregroundBlur_55_2136" stdDeviation="8"/>
    </filter>
  </defs>
</svg>
