<svg xmlns="http://www.w3.org/2000/svg" width="500" height="500" fill="none" viewBox="0 0 500 500">
  <g clip-path="url(#a)">
    <g filter="url(#b)" opacity=".7">
      <path fill="url(#c)" d="M271.898 414.714c73.397 0 132.898-59.151 132.898-132.118 0-28.001-8.763-53.967-23.71-75.337l-110.078 65.878-110.078-63.268C147.069 230.728 139 255.725 139 282.596c0 72.967 59.5 132.118 132.898 132.118Z"/>
      <path fill="url(#d)" fill-opacity=".5" d="M271.898 414.714c73.397 0 132.898-59.151 132.898-132.118 0-28.001-8.763-53.967-23.71-75.337l-110.078 65.878-110.078-63.268C147.069 230.728 139 255.725 139 282.596c0 72.967 59.5 132.118 132.898 132.118Z"/>
      <path fill="url(#e)" d="M271.898 414.714c73.397 0 132.898-59.151 132.898-132.118 0-28.001-8.763-53.967-23.71-75.337l-110.078 65.878-110.078-63.268C147.069 230.728 139 255.725 139 282.596c0 72.967 59.5 132.118 132.898 132.118Z"/>
      <path fill="url(#f)" d="M271.898 414.714c73.397 0 132.898-59.151 132.898-132.118 0-28.001-8.763-53.967-23.71-75.337l-110.078 65.878-110.078-63.268C147.069 230.728 139 255.725 139 282.596c0 72.967 59.5 132.118 132.898 132.118Z"/>
      <path fill="url(#g)" d="m178.308 186.128 93.59 53.499V43l-93.59 143.128Z"/>
      <path fill="url(#h)" d="m178.308 186.128 93.59 53.499V43l-93.59 143.128Z"/>
      <path fill="url(#i)" d="m365.332 186.128-93.434 53.499V43l93.434 143.128Z"/>
      <path fill="url(#j)" d="m365.332 186.128-93.434 53.499V43l93.434 143.128Z"/>
      <path fill="url(#k)" fill-opacity=".6" d="m365.332 186.128-93.434 53.499V43l93.434 143.128Z"/>
      <path fill="url(#l)" d="m381.086 207.233-109.189 65.749v141.112l109.189-206.861Z"/>
      <path fill="url(#m)" d="m381.086 207.233-109.189 65.749v141.112l109.189-206.861Z"/>
      <path fill="url(#n)" d="m381.086 207.233-109.189 65.749v141.112l109.189-206.861Z"/>
      <path fill="url(#o)" d="m160.837 209.714 111.06 63.268v141.112l-111.06-204.38Z"/>
      <path fill="url(#p)" d="m160.837 209.714 111.06 63.268v141.112l-111.06-204.38Z"/>
      <path fill="url(#q)" d="m160.837 209.714 111.06 63.268v141.112l-111.06-204.38Z"/>
    </g>
    <path fill="url(#r)" d="M250.102 436.323c73.397 0 132.898-59.151 132.898-132.118 0-28.001-8.762-53.967-23.71-75.337l-110.078 65.878-110.078-63.268c-13.861 20.859-21.93 45.856-21.93 72.727 0 72.967 59.5 132.118 132.898 132.118Z"/>
    <path fill="url(#s)" fill-opacity=".5" d="M250.102 436.323c73.397 0 132.898-59.151 132.898-132.118 0-28.001-8.762-53.967-23.71-75.337l-110.078 65.878-110.078-63.268c-13.861 20.859-21.93 45.856-21.93 72.727 0 72.967 59.5 132.118 132.898 132.118Z"/>
    <path fill="url(#t)" d="M250.102 436.323c73.397 0 132.898-59.151 132.898-132.118 0-28.001-8.762-53.967-23.71-75.337l-110.078 65.878-110.078-63.268c-13.861 20.859-21.93 45.856-21.93 72.727 0 72.967 59.5 132.118 132.898 132.118Z"/>
    <path fill="url(#u)" d="M250.102 436.323c73.397 0 132.898-59.151 132.898-132.118 0-28.001-8.762-53.967-23.71-75.337l-110.078 65.878-110.078-63.268c-13.861 20.859-21.93 45.856-21.93 72.727 0 72.967 59.5 132.118 132.898 132.118Z"/>
    <path fill="url(#v)" d="m156.512 207.737 93.59 53.498V64.609l-93.59 143.128Z"/>
    <path fill="url(#w)" d="m156.512 207.737 93.59 53.498V64.609l-93.59 143.128Z"/>
    <path fill="url(#x)" d="m343.536 207.737-93.434 53.498V64.609l93.434 143.128Z"/>
    <path fill="url(#y)" d="m343.536 207.737-93.434 53.498V64.609l93.434 143.128Z"/>
    <path fill="url(#z)" fill-opacity=".6" d="m343.536 207.737-93.434 53.498V64.609l93.434 143.128Z"/>
    <path fill="url(#A)" d="m359.29 228.842-109.188 65.749v141.112L359.29 228.842Z"/>
    <path fill="url(#B)" d="m359.29 228.842-109.188 65.749v141.112L359.29 228.842Z"/>
    <path fill="url(#C)" d="m359.29 228.842-109.188 65.749v141.112L359.29 228.842Z"/>
    <path fill="url(#D)" d="m139.041 231.323 111.061 63.268v141.112l-111.061-204.38Z"/>
    <path fill="url(#E)" d="m139.041 231.323 111.061 63.268v141.112l-111.061-204.38Z"/>
    <path fill="url(#F)" d="m139.041 231.323 111.061 63.268v141.112l-111.061-204.38Z"/>
  </g>
  <defs>
    <radialGradient id="c" cx="0" cy="0" r="1" gradientTransform="matrix(-198.37606 -138.22955 184.87015 -265.31094 370.566 375.695)" gradientUnits="userSpaceOnUse">
      <stop stop-color="#8AFBED" stop-opacity="0"/>
      <stop offset=".671" stop-color="#00A3FF" stop-opacity=".457"/>
      <stop offset="1" stop-color="#198CF6"/>
    </radialGradient>
    <radialGradient id="d" cx="0" cy="0" r="1" gradientTransform="matrix(140.70246 185.43988 -150.86563 114.46926 239.112 191.303)" gradientUnits="userSpaceOnUse">
      <stop stop-color="#35C2FF"/>
      <stop offset="1" stop-color="#00A3FF" stop-opacity="0"/>
    </radialGradient>
    <radialGradient id="e" cx="0" cy="0" r="1" gradientTransform="matrix(51.95997 87.43269 -112.02047 66.57214 145.995 201.378)" gradientUnits="userSpaceOnUse">
      <stop stop-color="#3B52FC"/>
      <stop offset="1" stop-color="#3B52FC" stop-opacity="0"/>
    </radialGradient>
    <radialGradient id="f" cx="0" cy="0" r="1" gradientTransform="matrix(-.49963 151.38318 -193.95494 -.64013 387.809 176.897)" gradientUnits="userSpaceOnUse">
      <stop stop-color="#2A6BFF"/>
      <stop offset="1" stop-color="#2A6BFF" stop-opacity="0"/>
    </radialGradient>
    <radialGradient id="g" cx="0" cy="0" r="1" gradientTransform="matrix(-106.38818 43.67202 -109.6105 -267.01904 271.686 141.039)" gradientUnits="userSpaceOnUse">
      <stop stop-color="#00A3FF"/>
      <stop offset=".944" stop-color="#00A3FF" stop-opacity=".29"/>
    </radialGradient>
    <radialGradient id="h" cx="0" cy="0" r="1" gradientTransform="matrix(25.9801 131.39925 -243.07924 48.06133 230.429 65.483)" gradientUnits="userSpaceOnUse">
      <stop stop-color="#FF7272"/>
      <stop offset=".18" stop-color="#FF72A7"/>
      <stop offset="1" stop-color="#7A51FF" stop-opacity="0"/>
    </radialGradient>
    <radialGradient id="i" cx="0" cy="0" r="1" gradientTransform="rotate(84.193 103.035 169.666) scale(325.923 134.229)" gradientUnits="userSpaceOnUse">
      <stop stop-color="#FFBFAB"/>
      <stop offset=".365" stop-color="#FF67A8" stop-opacity=".87"/>
      <stop offset=".724" stop-color="#6BAFFF" stop-opacity="0"/>
    </radialGradient>
    <radialGradient id="j" cx="0" cy="0" r="1" gradientTransform="matrix(63.45134 -76.44107 115.93229 96.23175 271.897 208.872)" gradientUnits="userSpaceOnUse">
      <stop stop-color="#2238FF"/>
      <stop offset="1" stop-color="#0047FF" stop-opacity="0"/>
    </radialGradient>
    <radialGradient id="l" cx="0" cy="0" r="1" gradientTransform="rotate(-65.238 439.386 -18.455) scale(130.47 293.736)" gradientUnits="userSpaceOnUse">
      <stop stop-color="#4DEAFF"/>
      <stop offset=".944" stop-color="#00A3FF" stop-opacity=".1"/>
    </radialGradient>
    <radialGradient id="m" cx="0" cy="0" r="1" gradientTransform="matrix(116.97322 19.81703 -18.96482 111.9429 255.847 296.473)" gradientUnits="userSpaceOnUse">
      <stop stop-color="#35AAFF"/>
      <stop offset="0" stop-color="#0057FF"/>
      <stop offset="1" stop-color="#00A3FF" stop-opacity="0"/>
    </radialGradient>
    <radialGradient id="n" cx="0" cy="0" r="1" gradientTransform="rotate(125.701 138.772 198.333) scale(122.431 64.6234)" gradientUnits="userSpaceOnUse">
      <stop stop-color="#2241FF"/>
      <stop offset="1" stop-color="#1EA0FF" stop-opacity="0"/>
    </radialGradient>
    <radialGradient id="o" cx="0" cy="0" r="1" gradientTransform="rotate(-115.402 258.66 108.413) scale(129.58 297.215)" gradientUnits="userSpaceOnUse">
      <stop stop-color="#64E3FF"/>
      <stop offset="1" stop-color="#00A3FF" stop-opacity=".29"/>
    </radialGradient>
    <radialGradient id="p" cx="0" cy="0" r="1" gradientTransform="matrix(79.83338 97.55123 -94.57255 77.3957 170.977 248.344)" gradientUnits="userSpaceOnUse">
      <stop stop-color="#3687FF"/>
      <stop offset="1" stop-color="#354BFF" stop-opacity="0"/>
    </radialGradient>
    <radialGradient id="q" cx="0" cy="0" r="1" gradientTransform="matrix(54.95776 57.45578 -31.2215 29.86408 160.983 215.867)" gradientUnits="userSpaceOnUse">
      <stop stop-color="#1858FF"/>
      <stop offset="1" stop-color="#3A70FF" stop-opacity="0"/>
    </radialGradient>
    <radialGradient id="r" cx="0" cy="0" r="1" gradientTransform="matrix(-198.37606 -138.22955 184.87015 -265.31094 348.77 397.304)" gradientUnits="userSpaceOnUse">
      <stop stop-color="#8AFBED" stop-opacity="0"/>
      <stop offset=".671" stop-color="#00A3FF" stop-opacity=".457"/>
      <stop offset="1" stop-color="#198CF6"/>
    </radialGradient>
    <radialGradient id="s" cx="0" cy="0" r="1" gradientTransform="matrix(140.70246 185.43988 -150.86563 114.46926 217.316 212.912)" gradientUnits="userSpaceOnUse">
      <stop stop-color="#35C2FF"/>
      <stop offset="1" stop-color="#00A3FF" stop-opacity="0"/>
    </radialGradient>
    <radialGradient id="t" cx="0" cy="0" r="1" gradientTransform="matrix(51.95997 87.43269 -112.02047 66.57214 124.199 222.987)" gradientUnits="userSpaceOnUse">
      <stop stop-color="#3B52FC"/>
      <stop offset="1" stop-color="#3B52FC" stop-opacity="0"/>
    </radialGradient>
    <radialGradient id="u" cx="0" cy="0" r="1" gradientTransform="matrix(-.49963 151.38318 -193.95494 -.64013 366.013 198.506)" gradientUnits="userSpaceOnUse">
      <stop stop-color="#2A6BFF"/>
      <stop offset="1" stop-color="#2A6BFF" stop-opacity="0"/>
    </radialGradient>
    <radialGradient id="v" cx="0" cy="0" r="1" gradientTransform="matrix(-106.38818 43.67202 -109.6105 -267.01904 249.89 162.648)" gradientUnits="userSpaceOnUse">
      <stop stop-color="#00A3FF"/>
      <stop offset=".944" stop-color="#00A3FF" stop-opacity=".29"/>
    </radialGradient>
    <radialGradient id="w" cx="0" cy="0" r="1" gradientTransform="matrix(25.9801 131.39925 -243.07924 48.06133 208.634 87.092)" gradientUnits="userSpaceOnUse">
      <stop stop-color="#FF7272"/>
      <stop offset=".18" stop-color="#FF72A7"/>
      <stop offset="1" stop-color="#7A51FF" stop-opacity="0"/>
    </radialGradient>
    <radialGradient id="x" cx="0" cy="0" r="1" gradientTransform="rotate(84.193 80.178 168.408) scale(325.923 134.229)" gradientUnits="userSpaceOnUse">
      <stop stop-color="#FFBFAB"/>
      <stop offset=".365" stop-color="#FF67A8" stop-opacity=".87"/>
      <stop offset=".724" stop-color="#6BAFFF" stop-opacity="0"/>
    </radialGradient>
    <radialGradient id="y" cx="0" cy="0" r="1" gradientTransform="matrix(63.45134 -76.44107 115.93229 96.23175 250.102 230.48)" gradientUnits="userSpaceOnUse">
      <stop stop-color="#2238FF"/>
      <stop offset="1" stop-color="#0047FF" stop-opacity="0"/>
    </radialGradient>
    <radialGradient id="A" cx="0" cy="0" r="1" gradientTransform="rotate(-65.238 445.37 9.378) scale(130.47 293.736)" gradientUnits="userSpaceOnUse">
      <stop stop-color="#4DEAFF"/>
      <stop offset=".944" stop-color="#00A3FF" stop-opacity=".1"/>
    </radialGradient>
    <radialGradient id="B" cx="0" cy="0" r="1" gradientTransform="matrix(116.97322 19.81703 -18.96482 111.9429 234.051 318.082)" gradientUnits="userSpaceOnUse">
      <stop stop-color="#35AAFF"/>
      <stop offset="0" stop-color="#0057FF"/>
      <stop offset="1" stop-color="#00A3FF" stop-opacity="0"/>
    </radialGradient>
    <radialGradient id="C" cx="0" cy="0" r="1" gradientTransform="rotate(125.701 122.333 203.549) scale(122.431 64.6234)" gradientUnits="userSpaceOnUse">
      <stop stop-color="#2241FF"/>
      <stop offset="1" stop-color="#1EA0FF" stop-opacity="0"/>
    </radialGradient>
    <radialGradient id="D" cx="0" cy="0" r="1" gradientTransform="rotate(-115.402 254.592 126.106) scale(129.58 297.215)" gradientUnits="userSpaceOnUse">
      <stop stop-color="#64E3FF"/>
      <stop offset="1" stop-color="#00A3FF" stop-opacity=".29"/>
    </radialGradient>
    <radialGradient id="E" cx="0" cy="0" r="1" gradientTransform="matrix(79.83338 97.55123 -94.57255 77.3957 149.18 269.953)" gradientUnits="userSpaceOnUse">
      <stop stop-color="#3687FF"/>
      <stop offset="1" stop-color="#354BFF" stop-opacity="0"/>
    </radialGradient>
    <radialGradient id="F" cx="0" cy="0" r="1" gradientTransform="matrix(54.95776 57.45578 -31.2215 29.86408 139.187 237.476)" gradientUnits="userSpaceOnUse">
      <stop stop-color="#1858FF"/>
      <stop offset="1" stop-color="#3A70FF" stop-opacity="0"/>
    </radialGradient>
    <linearGradient id="k" x1="365.826" x2="304.373" y1="215.867" y2="187.889" gradientUnits="userSpaceOnUse">
      <stop stop-color="#29EDFE"/>
      <stop offset="1" stop-color="#29EDFE" stop-opacity="0"/>
    </linearGradient>
    <linearGradient id="z" x1="344.03" x2="282.577" y1="237.476" y2="209.497" gradientUnits="userSpaceOnUse">
      <stop stop-color="#29EDFE"/>
      <stop offset="1" stop-color="#29EDFE" stop-opacity="0"/>
    </linearGradient>
    <clipPath id="a">
      <rect width="500" height="500" fill="#fff" rx="20"/>
    </clipPath>
    <filter id="b" width="411.796" height="517.714" x="66" y="-30" color-interpolation-filters="sRGB" filterUnits="userSpaceOnUse">
      <feFlood flood-opacity="0" result="BackgroundImageFix"/>
      <feBlend in="SourceGraphic" in2="BackgroundImageFix" result="shape"/>
      <feGaussianBlur result="effect1_foregroundBlur_369_4893" stdDeviation="36.5"/>
    </filter>
  </defs>
</svg>
