<svg width="59" height="12" viewBox="0 0 59 12" fill="none" xmlns="http://www.w3.org/2000/svg">
<path d="M0 0.589843H2.15625V9.84375H7.45703V11.9102H0V0.589843Z" fill="#fff"/>
<path d="M16.8827 0.589843H19.039V11.9102H16.8827V0.589843Z" fill="#fff"/>
<path d="M29.361 0.589843H32.9548C33.6975 0.589843 34.4043 0.745573 35.0751 1.05703C35.7459 1.35651 36.3389 1.7638 36.854 2.27891C37.3691 2.79401 37.7764 3.39297 38.0759 4.07578C38.3754 4.75859 38.5251 5.48333 38.5251 6.25C38.5251 7.01667 38.3754 7.74141 38.0759 8.42422C37.7764 9.10703 37.3691 9.70599 36.854 10.2211C36.3389 10.7362 35.7459 11.1495 35.0751 11.4609C34.4043 11.7604 33.6975 11.9102 32.9548 11.9102H29.361V0.589843ZM32.9548 9.84375C33.398 9.84375 33.8233 9.74792 34.2306 9.55625C34.6498 9.36458 35.0152 9.10703 35.3267 8.78359C35.6501 8.46016 35.9017 8.08281 36.0814 7.65156C36.273 7.20833 36.3689 6.74115 36.3689 6.25C36.3689 5.75885 36.273 5.29766 36.0814 4.86641C35.9017 4.42318 35.6501 4.03984 35.3267 3.71641C35.0152 3.39297 34.6498 3.13542 34.2306 2.94375C33.8233 2.75208 33.398 2.65625 32.9548 2.65625H31.5173V9.84375H32.9548Z" fill="#fff"/>
<path d="M53.0782 12C52.3355 12 51.6288 11.8563 50.9579 11.5688C50.2991 11.2693 49.7181 10.862 49.215 10.3469C48.7238 9.81979 48.3285 9.20885 48.029 8.51406C47.7415 7.81927 47.5978 7.06458 47.5978 6.25C47.5978 5.4474 47.7415 4.6987 48.029 4.00391C48.3285 3.29714 48.7238 2.6862 49.215 2.17109C49.7181 1.64401 50.2991 1.23672 50.9579 0.949219C51.6288 0.649739 52.3355 0.5 53.0782 0.5C53.8209 0.5 54.5217 0.649739 55.1806 0.949219C55.8514 1.23672 56.4324 1.64401 56.9235 2.17109C57.4267 2.6862 57.822 3.29714 58.1095 4.00391C58.409 4.6987 58.5587 5.4474 58.5587 6.25C58.5587 7.06458 58.409 7.81927 58.1095 8.51406C57.822 9.20885 57.4267 9.81979 56.9235 10.3469C56.4324 10.862 55.8514 11.2693 55.1806 11.5688C54.5217 11.8563 53.8209 12 53.0782 12ZM53.0782 9.93359C53.5215 9.93359 53.9467 9.84375 54.354 9.66406C54.7613 9.48438 55.1147 9.23281 55.4142 8.90937C55.7136 8.57396 55.9532 8.18464 56.1329 7.74141C56.3126 7.2862 56.4025 6.78906 56.4025 6.25C56.4025 5.71094 56.3126 5.21979 56.1329 4.77656C55.9532 4.32135 55.7136 3.93203 55.4142 3.60859C55.1147 3.27318 54.7613 3.01563 54.354 2.83594C53.9467 2.65625 53.5215 2.56641 53.0782 2.56641C52.623 2.56641 52.1918 2.65625 51.7845 2.83594C51.3892 3.01563 51.0418 3.27318 50.7423 3.60859C50.4428 3.93203 50.2032 4.32135 50.0235 4.77656C49.8439 5.21979 49.754 5.71094 49.754 6.25C49.754 6.78906 49.8439 7.2862 50.0235 7.74141C50.2032 8.18464 50.4428 8.57396 50.7423 8.90937C51.0418 9.23281 51.3892 9.48438 51.7845 9.66406C52.1918 9.84375 52.623 9.93359 53.0782 9.93359Z" fill="#fff"/>
</svg>
