<svg xmlns="http://www.w3.org/2000/svg" width="81" height="80" fill="none" viewBox="0 0 81 80">
  <g filter="url(#a)" opacity=".6">
    <path fill="#001405" d="M35.688 50.676v7.972a2.348 2.348 0 0 0 2.349 2.348h7.97a2.348 2.348 0 0 0 2.348-2.348v-3.986c0-1.75.708-3.334 1.855-4.479a6.313 6.313 0 0 1 4.478-1.855h3.986a2.348 2.348 0 0 0 2.348-2.348v-7.97a2.347 2.347 0 0 0-2.348-2.348h-7.968a2.348 2.348 0 0 0-2.348 2.348v4.179a6.138 6.138 0 0 1-6.137 6.138h-4.178a2.348 2.348 0 0 0-2.348 2.348h-.007ZM23.021 38.01v7.971a2.347 2.347 0 0 0 2.349 2.348h7.97a2.347 2.347 0 0 0 2.348-2.348v-3.985c0-1.75.708-3.334 1.855-4.478a6.313 6.313 0 0 1 4.479-1.855h3.985a2.348 2.348 0 0 0 2.348-2.348v-7.97a2.347 2.347 0 0 0-2.348-2.349h-7.968a2.348 2.348 0 0 0-2.348 2.348v4.178a6.138 6.138 0 0 1-6.137 6.138H25.37a2.347 2.347 0 0 0-2.349 2.348v.003Z"/>
  </g>
  <path fill="#001405" d="M33.688 48.676v7.972a2.348 2.348 0 0 0 2.349 2.348h7.97a2.348 2.348 0 0 0 2.348-2.348v-3.986c0-1.75.708-3.334 1.855-4.479a6.313 6.313 0 0 1 4.478-1.855h3.986a2.348 2.348 0 0 0 2.348-2.348v-7.97a2.347 2.347 0 0 0-2.348-2.348h-7.968a2.348 2.348 0 0 0-2.348 2.348v4.179a6.138 6.138 0 0 1-6.137 6.138h-4.178a2.348 2.348 0 0 0-2.348 2.348h-.007ZM21.021 36.01v7.971a2.347 2.347 0 0 0 2.349 2.348h7.97a2.347 2.347 0 0 0 2.348-2.348v-3.985c0-1.75.708-3.334 1.855-4.478a6.313 6.313 0 0 1 4.479-1.855h3.985a2.348 2.348 0 0 0 2.348-2.348v-7.97a2.347 2.347 0 0 0-2.348-2.349h-7.968a2.348 2.348 0 0 0-2.348 2.348v4.178a6.138 6.138 0 0 1-6.137 6.138H23.37a2.347 2.347 0 0 0-2.349 2.348v.003Z"/>
  <defs>
    <filter id="a" width="68" height="68" x="8.021" y="7.996" color-interpolation-filters="sRGB" filterUnits="userSpaceOnUse">
      <feFlood flood-opacity="0" result="BackgroundImageFix"/>
      <feBlend in="SourceGraphic" in2="BackgroundImageFix" result="shape"/>
      <feGaussianBlur result="effect1_foregroundBlur_52_21054" stdDeviation="7.5"/>
    </filter>
  </defs>
</svg>
