<svg xmlns="http://www.w3.org/2000/svg" width="80" height="80" fill="none" viewBox="0 0 80 80">
  <g clip-path="url(#a)">
    <g filter="url(#b)" opacity=".35">
      <path fill="#0500FF" d="M26.222 17.423 47.61 10.47v48.124C32.333 52.178 26.222 39.88 26.222 32.93V17.423Z"/>
      <path fill="url(#c)" d="M69 17.423 47.612 10.47v48.124C62.889 52.178 69 39.88 69 32.93V17.423Z"/>
      <path fill="url(#d)" d="M69 17.423 47.612 10.47v48.124C62.889 52.178 69 39.88 69 32.93V17.423Z"/>
    </g>
    <path fill="#0500FF" d="M18.222 22.423 39.61 15.47v48.124C24.333 57.178 18.222 44.88 18.222 37.93V22.423Z"/>
    <path fill="url(#e)" d="M61 22.423 39.612 15.47v48.124C54.889 57.178 61 44.88 61 37.93V22.423Z"/>
    <path fill="url(#f)" d="M61 22.423 39.612 15.47v48.124C54.889 57.178 61 44.88 61 37.93V22.423Z"/>
  </g>
  <defs>
    <linearGradient id="c" x1="46.709" x2="64.216" y1="64.644" y2="1.324" gradientUnits="userSpaceOnUse">
      <stop offset=".26" stop-color="#48FF91"/>
      <stop offset=".66" stop-color="#0094FF"/>
      <stop offset=".8" stop-color="#0038FF"/>
      <stop offset=".89" stop-color="#0500FF"/>
    </linearGradient>
    <linearGradient id="d" x1="62.919" x2="46.764" y1="7.69" y2="58.526" gradientUnits="userSpaceOnUse">
      <stop offset=".02" stop-color="#00F"/>
      <stop offset=".08" stop-color="#0094FF"/>
      <stop offset=".16" stop-color="#48FF91"/>
      <stop offset=".42" stop-color="#0094FF"/>
      <stop offset=".68" stop-color="#0038FF"/>
      <stop offset=".9" stop-color="#0500FF"/>
    </linearGradient>
    <linearGradient id="e" x1="38.709" x2="56.216" y1="69.644" y2="6.324" gradientUnits="userSpaceOnUse">
      <stop offset=".26" stop-color="#48FF91"/>
      <stop offset=".66" stop-color="#0094FF"/>
      <stop offset=".8" stop-color="#0038FF"/>
      <stop offset=".89" stop-color="#0500FF"/>
    </linearGradient>
    <linearGradient id="f" x1="54.919" x2="38.764" y1="12.69" y2="63.526" gradientUnits="userSpaceOnUse">
      <stop offset=".02" stop-color="#00F"/>
      <stop offset=".08" stop-color="#0094FF"/>
      <stop offset=".16" stop-color="#48FF91"/>
      <stop offset=".42" stop-color="#0094FF"/>
      <stop offset=".68" stop-color="#0038FF"/>
      <stop offset=".9" stop-color="#0500FF"/>
    </linearGradient>
    <clipPath id="a">
      <path fill="#fff" d="M0 0h80v80H0z"/>
    </clipPath>
    <filter id="b" width="66.777" height="72.124" x="14.222" y="-1.529" color-interpolation-filters="sRGB" filterUnits="userSpaceOnUse">
      <feFlood flood-opacity="0" result="BackgroundImageFix"/>
      <feBlend in="SourceGraphic" in2="BackgroundImageFix" result="shape"/>
      <feGaussianBlur result="effect1_foregroundBlur_52_25295" stdDeviation="6"/>
    </filter>
  </defs>
</svg>
