<svg xmlns="http://www.w3.org/2000/svg" width="501" height="500" fill="none" viewBox="0 0 501 500">
  <g clip-path="url(#a)">
    <g filter="url(#b)" opacity=".4">
      <path fill="url(#c)" d="m212.335 458 27.724-16.173v-26.569l-27.724 16.173V458Z"/>
      <path fill="url(#d)" d="m156.887 458 27.724-16.173v-26.569l-27.724 16.173V458Z"/>
      <path fill="#2FA9FF" d="M73.713 271.093v26.569l27.724 16.172v-26.569l-27.724-16.172Zm0-26.615v26.569l27.724 16.172V260.65l-27.724-16.172Z"/>
      <path fill="#23CFCF" d="m156.887 431.385 27.724-16.172v-26.569l-27.724 16.172v26.569Z"/>
      <path fill="url(#e)" d="m323.231 345.994 27.725-16.173v-26.569l-27.725 16.173v26.569Z"/>
      <path fill="#2F83FF" d="m323.231 319.379 27.725-16.173v-26.569l-27.725 16.173v26.569Z"/>
      <path fill="url(#f)" d="m323.231 399.132-27.724 16.173v-26.569l27.724-16.173v26.569Zm0-26.615-27.724 16.172v-26.568l27.724-16.173v26.569Z"/>
      <path fill="url(#g)" d="m295.508 441.827-27.725 16.172v-26.568l27.725-16.173v26.569Zm0-26.615-27.725 16.172v-26.569l27.725-16.172v26.569Z"/>
      <path fill="url(#h)" d="M156.885 431.431V458l-27.724-16.173v-26.568l27.724 16.172Zm55.448 0V458l-27.725-16.173v-26.568l27.725 16.172Zm55.448.001V458l-27.724-16.172v-26.569l27.724 16.173Zm-138.483-43.004v.295l27.587 16.092v26.57l-27.724-16.173v-.295l-27.587-16.093v-26.569l27.724 16.173Zm138.483 16.388v26.569l-27.724-16.172v-26.569l27.724 16.172Zm-138.483-43.004v26.569l-27.724-16.172V345.64l27.724 16.172Zm-27.86-42.386v26.568l-27.725-16.172v-26.569l27.725 16.173Z"/>
      <path fill="#2F83FF" d="m323.231 313.834 27.725-16.173v-26.569l-27.725 16.173v26.569Zm0-26.615 27.725-16.172v-26.569l-27.725 16.172v26.569Z"/>
      <path fill="url(#i)" d="m184.611 388.598-27.724 16.172v-26.569l27.724-16.173v26.57Zm0-26.616-27.724 16.172v-26.568l27.724-16.173v26.569Zm0-26.615-27.724 16.172v-26.568l27.724-16.173v26.569Z"/>
      <path fill="url(#j)" d="M101.437 292.81v-.092l27.724 16.172v-.092l27.724 16.172v26.569l-27.724-16.172v.046l27.724 16.172v26.569l-27.724-16.173v.047l27.724 16.172v26.57l-27.724-16.173v-26.523l-27.724-16.172v-26.524l-27.724-16.171v-26.569l27.724 16.172Zm.001 26.523 27.723 16.172v-.046l-27.723-16.173v.047Z"/>
      <path fill="url(#k)" d="m240.061 415.211-27.725 16.173v-26.569l27.725-16.172v26.568Zm0-26.614-27.725 16.172v-26.568l27.725-16.173v26.569Zm0-26.615-27.725 16.172v-26.569l27.725-16.172v26.569Zm0-26.615-27.725 16.172V324.97l27.725-16.173v26.57Z"/>
      <path fill="url(#l)" d="M212.333 404.815v26.57l-27.724-16.173v-26.568l27.724 16.171Zm0-26.614v26.569l-27.724-16.172v-26.57l27.724 16.173Zm0-26.615v26.568l-27.724-16.172v-26.569l27.724 16.173Zm.001-26.615v26.568l-27.725-16.172v-26.569l27.725 16.173Z"/>
      
      <path fill="url(#n)" d="M350.955 244.478 323.23 260.65l-.079-.047-.227.132 27.219 15.877-27.049 15.777.542.317-27.724 16.171-27.724-16.171 27.047-15.779-.114-.066-27.183 15.856 27.568 16.08-27.725 16.173-27.644-16.127-.079.047-.08-.047-27.645 16.127-27.645-16.127-.079.047-.08-.047-27.644 16.127-27.645-16.127-.079.047-27.645-16.127-.079.047-27.724-16.173 27.565-16.08-27.565-16.079 27.725-16.173 27.643 16.126.08-.046 27.645 16.126.079-.046 27.645 16.125.079-.045.078.045 27.646-16.125 27.645 16.126.08-.046.078.045 27.645-16.125.079.046 27.647-16.126.079.046 27.644-16.126 27.725 16.173Z" data-figma-bg-blur-radius="24"/>
      <path fill="url(#o)" d="m323.229 228.398-27.723 16.172-.08-.047-27.645 16.127-.08-.046-27.643 16.126-27.646-16.126-.079.046-.08-.046-27.644 16.126-27.645-16.126-.079.046-27.645-16.127-.078.047-27.724-16.172 27.724-16.172 27.644 16.126.079-.046 27.645 16.126.079-.046.079.046 27.645-16.126 27.646 16.126.079-.046.078.046 27.645-16.126.079.046 27.646-16.126 27.723 16.172Z"/>
      <path fill="url(#p)" d="m323.23 319.287-27.723 16.171v.047l27.723-16.172v26.569l-27.723 16.172v26.523l-27.725 16.172v-26.568l27.725-16.173v-.046l-27.725 16.172v-26.569l27.725-16.172v-.046l-27.725 16.172V324.97l27.725-16.173v.093l27.723-16.173v26.57Z"/>
      <path fill="url(#q)" d="M267.783 378.201v26.568l-27.724-16.172v-26.569l27.724 16.173Zm0-26.616v26.569l-27.724-16.172v-26.569l27.724 16.172Zm0-26.615v26.569l-27.724-16.172v-26.57l27.724 16.173Z"/>
      <path fill="url(#r)" d="M137.247 222.044h-16.173v6.931c0 2.552 3.621 4.621 8.087 4.621 4.465 0 8.086-2.069 8.086-4.621v-6.931Z"/>
      <path fill="url(#s)" d="M164.971 238.124h-16.173v6.931c0 2.552 3.62 4.621 8.086 4.621s8.087-2.069 8.087-4.621v-6.931Z"/>
      <path fill="url(#t)" d="M220.42 238.124h-16.173v6.931c0 2.552 3.62 4.621 8.086 4.621s8.086-2.069 8.086-4.621l.001-6.931Z"/>
      <path fill="url(#u)" d="M192.695 254.204h-16.172v6.932c0 2.551 3.62 4.62 8.086 4.62s8.086-2.069 8.086-4.62v-6.932Z"/>
      <path fill="url(#v)" d="M303.592 222.044h-16.173v6.931c0 2.552 3.621 4.621 8.086 4.621 4.466 0 8.087-2.069 8.087-4.621v-6.931Z"/>
      <path fill="url(#w)" d="M275.867 238.124h-16.172v6.931c0 2.552 3.62 4.621 8.086 4.621s8.087-2.069 8.087-4.621l-.001-.023v-6.908Z"/>
      <path fill="url(#x)" d="M248.143 254.204h-16.172v6.932c0 2.551 3.62 4.62 8.086 4.62s8.086-2.069 8.086-4.62v-6.932Z"/>
      <path fill="url(#y)" d="M220.42 270.285h-16.173v6.931c0 2.552 3.62 4.62 8.086 4.62s8.086-2.068 8.086-4.62l.001-6.931Z"/>
      <path fill="url(#z)" d="M109.523 238.124H93.351v6.932c0 2.551 3.62 4.62 8.086 4.62s8.086-2.069 8.086-4.62v-6.932Z"/>
      <path fill="url(#A)" d="M331.316 238.124h-16.172v6.932c0 2.551 3.62 4.62 8.086 4.62s8.086-2.069 8.086-4.62v-6.932Z"/>
      <path fill="url(#B)" d="M137.247 254.204h-16.173v6.932c0 2.551 3.621 4.62 8.087 4.62 4.465 0 8.086-2.069 8.086-4.62v-6.932Z"/>
      <path fill="url(#C)" d="M109.523 270.285H93.351v6.931c0 2.551 3.62 4.62 8.086 4.62s8.086-2.069 8.086-4.621v-6.93Z"/>
      <path fill="url(#D)" d="M164.972 270.285h-16.173v6.93c0 2.552 3.62 4.621 8.086 4.621s8.086-2.069 8.086-4.62l.001-6.931Z"/>
      <path fill="url(#E)" d="M137.247 286.364h-16.173v6.932c0 2.552 3.621 4.62 8.087 4.62 4.465 0 8.086-2.068 8.086-4.62v-6.932Z"/>
      <path fill="url(#F)" d="M192.695 286.364h-16.172v6.932c0 2.552 3.62 4.62 8.086 4.62s8.086-2.068 8.086-4.62v-6.932Z"/>
      <path fill="url(#G)" d="M164.972 302.444h-16.173v6.931c0 2.552 3.62 4.621 8.086 4.621s8.086-2.069 8.086-4.621l.001-6.931Z"/>
      <path fill="url(#H)" d="M303.592 254.204H287.42v6.932c0 2.551 3.62 4.62 8.086 4.62s8.086-2.069 8.086-4.62v-6.932Z"/>
      <path fill="url(#I)" d="M275.867 270.285h-16.172v6.931c0 2.551 3.62 4.62 8.086 4.62s8.087-2.069 8.087-4.621l-.001-.023v-6.907Z"/>
      <path fill="url(#J)" d="M248.144 286.364h-16.172v6.931c0 2.552 3.62 4.621 8.086 4.621s8.086-2.068 8.086-4.62v-6.932Z"/>
      <path fill="url(#K)" d="M220.42 302.444h-16.173v6.931c0 2.552 3.62 4.621 8.086 4.621s8.086-2.069 8.086-4.621l.001-6.931Z"/>
      <path fill="url(#L)" d="M331.316 270.285h-16.172v6.931c0 2.551 3.62 4.62 8.086 4.62s8.086-2.069 8.086-4.621v-6.93Z"/>
      <path fill="url(#M)" d="M303.592 286.364H287.42v6.931c0 2.552 3.62 4.621 8.086 4.621s8.086-2.068 8.086-4.62v-6.932Z"/>
      <path fill="url(#N)" d="M275.867 302.444h-16.172v6.931c0 2.552 3.62 4.621 8.086 4.621s8.087-2.069 8.087-4.621l-.001-.023v-6.908Z"/>
      <path fill="#1884CF" d="M137.248 222.044h-16.173v6.931c0 2.552 3.621 4.621 8.086 4.621 4.466 0 8.087-2.069 8.087-4.621v-6.931Zm27.723 16.08h-16.172v6.931c0 2.552 3.62 4.621 8.086 4.621s8.086-2.069 8.086-4.621v-6.931Zm55.45 0h-16.173v6.931c0 2.552 3.62 4.621 8.086 4.621s8.086-2.069 8.086-4.621l.001-6.931Zm-27.725 16.08h-16.172v6.932c0 2.551 3.62 4.62 8.086 4.62s8.086-2.069 8.086-4.62v-6.932Zm110.896-32.16H287.42v6.931c0 2.552 3.62 4.621 8.086 4.621s8.087-2.069 8.087-4.621l-.001-.014v-6.917Zm-27.724 16.08h-16.172v6.931c0 2.552 3.62 4.621 8.086 4.621s8.086-2.069 8.086-4.621v-6.931Zm-27.724 16.08h-16.172v6.932c0 2.551 3.62 4.62 8.086 4.62s8.086-2.069 8.086-4.62v-6.932Z"/>
      
      <path fill="#EFF8FF" fill-opacity=".6" d="M137.247 222.044c0 2.552-3.621 4.621-8.086 4.621-4.466 0-8.087-2.069-8.087-4.621 0-2.552 3.621-4.621 8.087-4.621 4.465 0 8.086 2.069 8.086 4.621Zm27.724 16.08c0 2.552-3.621 4.621-8.087 4.621-4.466 0-8.086-2.069-8.086-4.621 0-2.552 3.62-4.621 8.086-4.621s8.087 2.069 8.087 4.621Zm55.448 0c0 2.552-3.62 4.621-8.086 4.621s-8.086-2.069-8.086-4.621c0-2.552 3.62-4.621 8.086-4.621s8.086 2.069 8.086 4.621Zm-27.724 16.08c0 2.552-3.62 4.621-8.086 4.621s-8.086-2.069-8.086-4.621c0-2.552 3.62-4.62 8.086-4.62s8.086 2.068 8.086 4.62Zm110.897-32.16c0 2.552-3.621 4.621-8.087 4.621-4.465 0-8.086-2.069-8.086-4.621 0-2.552 3.621-4.621 8.086-4.621 4.466 0 8.087 2.069 8.087 4.621Zm-27.725 16.08c0 2.552-3.62 4.621-8.086 4.621s-8.086-2.069-8.086-4.621c0-2.552 3.62-4.621 8.086-4.621s8.086 2.069 8.086 4.621Zm-27.724 16.08c0 2.552-3.62 4.621-8.086 4.621s-8.086-2.069-8.086-4.621c0-2.552 3.62-4.62 8.086-4.62s8.086 2.068 8.086 4.62Zm-27.724 16.08c0 2.552-3.62 4.621-8.086 4.621s-8.086-2.069-8.086-4.621c0-2.552 3.62-4.62 8.086-4.62s8.086 2.068 8.086 4.62Zm-110.896-32.16c0 2.552-3.62 4.621-8.086 4.621s-8.086-2.069-8.086-4.621c0-2.552 3.62-4.621 8.086-4.621s8.086 2.069 8.086 4.621Zm221.793 0c0 2.552-3.62 4.621-8.086 4.621s-8.086-2.069-8.086-4.621c0-2.552 3.62-4.621 8.086-4.621s8.086 2.069 8.086 4.621Zm-194.069 16.08c0 2.552-3.621 4.621-8.086 4.621-4.466 0-8.087-2.069-8.087-4.621 0-2.552 3.621-4.62 8.087-4.62 4.465 0 8.086 2.068 8.086 4.62Zm-27.724 16.08c0 2.552-3.62 4.621-8.086 4.621s-8.086-2.069-8.086-4.621c0-2.552 3.62-4.621 8.086-4.621s8.086 2.069 8.086 4.621Zm55.448 0c0 2.552-3.62 4.621-8.086 4.621s-8.086-2.069-8.086-4.621c0-2.552 3.62-4.621 8.086-4.621s8.086 2.069 8.086 4.621Zm-27.724 16.08c0 2.552-3.621 4.621-8.086 4.621-4.466 0-8.087-2.069-8.087-4.621 0-2.552 3.621-4.621 8.087-4.621 4.465 0 8.086 2.069 8.086 4.621Zm55.448 0c0 2.552-3.62 4.621-8.086 4.621s-8.086-2.069-8.086-4.621c0-2.552 3.62-4.621 8.086-4.621s8.086 2.069 8.086 4.621Zm-27.724 16.08c0 2.552-3.62 4.621-8.086 4.621s-8.086-2.069-8.086-4.621c0-2.552 3.62-4.621 8.086-4.621s8.086 2.069 8.086 4.621Zm138.621-48.24c0 2.552-3.62 4.621-8.086 4.621s-8.086-2.069-8.086-4.621c0-2.552 3.62-4.62 8.086-4.62s8.086 2.068 8.086 4.62Zm-27.725 16.08c0 2.552-3.62 4.621-8.086 4.621s-8.086-2.069-8.086-4.621c0-2.552 3.62-4.621 8.086-4.621s8.086 2.069 8.086 4.621Zm-27.723 16.08c0 2.552-3.62 4.621-8.086 4.621s-8.086-2.069-8.086-4.621c0-2.552 3.62-4.621 8.086-4.621s8.086 2.069 8.086 4.621Zm-27.725 16.08c0 2.552-3.62 4.621-8.086 4.621s-8.086-2.069-8.086-4.621c0-2.552 3.62-4.621 8.086-4.621s8.086 2.069 8.086 4.621Zm110.897-32.16c0 2.552-3.62 4.621-8.086 4.621s-8.086-2.069-8.086-4.621c0-2.552 3.62-4.621 8.086-4.621s8.086 2.069 8.086 4.621Zm-27.724 16.08c0 2.552-3.62 4.621-8.086 4.621s-8.086-2.069-8.086-4.621c0-2.552 3.62-4.621 8.086-4.621s8.086 2.069 8.086 4.621Zm-27.725 16.08c0 2.552-3.62 4.621-8.086 4.621s-8.086-2.069-8.086-4.621c0-2.552 3.62-4.621 8.086-4.621s8.086 2.069 8.086 4.621Z" data-figma-bg-blur-radius="4"/>
      <path fill="#79C2F7" d="M137.248 222.044c0 2.552-3.621 4.621-8.087 4.621-4.465 0-8.086-2.069-8.086-4.621 0-2.552 3.621-4.621 8.086-4.621 4.466 0 8.087 2.069 8.087 4.621Zm27.723 16.08c0 2.552-3.62 4.621-8.086 4.621s-8.086-2.069-8.086-4.621c0-2.552 3.62-4.621 8.086-4.621s8.086 2.069 8.086 4.621Zm55.449 0c0 2.552-3.62 4.621-8.086 4.621s-8.086-2.069-8.086-4.621c0-2.552 3.62-4.621 8.086-4.621s8.086 2.069 8.086 4.621Zm-27.724 16.08c0 2.552-3.62 4.621-8.086 4.621s-8.086-2.069-8.086-4.621c0-2.552 3.62-4.62 8.086-4.62s8.086 2.068 8.086 4.62Zm110.897-32.16c0 2.552-3.621 4.621-8.087 4.621-4.466 0-8.086-2.069-8.086-4.621 0-2.552 3.62-4.621 8.086-4.621s8.087 2.069 8.087 4.621Zm-27.725 16.08c0 2.552-3.62 4.621-8.086 4.621s-8.086-2.069-8.086-4.621c0-2.552 3.62-4.621 8.086-4.621s8.086 2.069 8.086 4.621Zm-27.724 16.08c0 2.552-3.62 4.621-8.086 4.621s-8.086-2.069-8.086-4.621c0-2.552 3.62-4.62 8.086-4.62s8.086 2.068 8.086 4.62Z"/>
      <path fill="url(#P)" d="M74.121 276.533v26.569l27.724 16.173v-26.569l-27.724-16.173Z"/>
      <g filter="url(#Q)">
        <ellipse cx="207.602" cy="231.093" fill="#0029FF" rx="95.613" ry="43.547"/>
      </g>
      <path fill="#71C3FF" d="m267.783 145.78 27.724-16.173 27.725 16.173-27.725 16.172-27.724-16.172Z"/>
      <path fill="#2FA9FF" d="m303.595 146.357-.011.238c-.217 2.441-3.749 4.383-8.075 4.383-4.326 0-7.86-1.941-8.076-4.383l-.011-.238v-6.931h16.173v6.931Z"/>
      <ellipse cx="295.507" cy="139.426" fill="#EFF8FF" rx="8.086" ry="4.621"/>
      <path fill="url(#R)" d="m295.507 161.814-27.724 16.172v.047l27.724-16.173v.093l27.724-16.173v26.569l-27.724 16.172v.047l27.724-16.173v26.569l-27.724 16.172v-.092l-27.724 16.172v-.091l-27.723 16.171v-26.568l27.723-16.173v-.046l-27.723 16.172v-26.568l27.723-16.173v-26.523l27.724-16.172v26.569Zm-27.724 42.787v.047l27.724-16.173v-.046l-27.724 16.172Z"/>
      <path fill="url(#S)" d="M240.061 220.729v26.568l-27.725-16.172v-26.569l27.725 16.173Zm0-26.616v26.569l-27.725-16.172v-26.57l27.725 16.173Z"/>
      <path fill="#F88887" d="M275.87 109.207h-.001l-.01.238c-.216 2.442-3.749 4.383-8.076 4.383-4.326 0-7.858-1.941-8.075-4.383l-.011-.238v-6.931h16.173v6.931Z"/>
      <ellipse cx="267.783" cy="102.276" fill="#FFEDEF" rx="8.086" ry="4.621"/>
      <path fill="url(#T)" d="m295.508 108.63-27.725 16.172-27.723-16.172 27.723-16.173 27.725 16.173Zm-27.724-37.15-27.723 16.17-27.725-16.17 27.725-16.173 27.723 16.172Z"/>

      <path fill="url(#V)" d="m295.507 135.199-27.724 16.172v26.523l-27.723 16.172v-26.568l27.723-16.173v-.046l-27.723 16.172v-26.569l27.723-16.173v.093l27.724-16.173v26.57Zm-27.724-10.535-27.723 16.171v-26.568l27.723-16.173v26.57Zm.001-26.616L240.06 114.22V87.652l27.724-16.173v26.57Z" data-figma-bg-blur-radius="54"/>
      <path fill="url(#W)" d="M240.061 167.498v26.568l-27.725-16.172v-26.569l27.725 16.173Zm0-26.616v26.569l-27.725-16.172v-26.57l27.725 16.173Zm0-26.615v26.568l-27.725-16.171v-26.57l27.725 16.173Zm0-26.615v26.568l-27.725-16.172V71.48l27.725 16.173Z"/>
      <path fill="#F88887" d="m248.146 72.056-.01.238c-.217 2.442-3.75 4.383-8.076 4.383-4.327 0-7.859-1.941-8.076-4.383l-.01-.238v-6.93h16.172v6.93Z"/>
      <ellipse cx="240.059" cy="65.126" fill="#FFEDEF" rx="8.086" ry="4.621"/>
      <path fill="#6EFAA6" d="m101.438 145.78 27.725-16.173 27.724 16.173-27.724 16.172-27.725-16.172Z"/>
      <path fill="#35C16D" d="m137.249 146.357-.011.238c-.217 2.442-3.75 4.383-8.076 4.383-4.326 0-7.858-1.942-8.075-4.383l-.011-.238v-6.931h16.173v6.931Z"/>
      <ellipse cx="129.162" cy="139.426" fill="#E7FFF0" rx="8.086" ry="4.621"/>
      <path fill="url(#X)" d="m212.335 231.125-27.724 16.172v-26.568l27.724-16.173v26.569Zm.001-26.615-27.725 16.172v-26.569l27.725-16.173v26.57Z"/>
     
      <path fill="url(#Z)" d="M156.887 151.417v26.523l27.724 16.173v26.568l-27.724-16.172v.046l27.724 16.173v26.568l-27.724-16.171v.091l-27.724-16.172v.092l-27.725-16.172v-26.569l27.725 16.173v-.047l-27.725-16.172V145.78l27.725 16.173v-.093l27.724 16.173v-.047l-27.724-16.172v-26.569l27.724 16.172Zm-27.724 37.058 27.724 16.173v-.047l-27.724-16.172v.046Z" data-figma-bg-blur-radius="4"/>
      <path fill="#FFEE92" d="m129.163 108.63 27.724-16.172 27.724 16.172-27.724 16.172-27.724-16.172Z"/>
      <path fill="#FFDE2E" d="m164.973 109.207-.011.238c-.217 2.442-3.75 4.383-8.076 4.383-4.326 0-7.859-1.941-8.075-4.383l-.011-.238v-6.931h16.173v6.931Z"/>
      <ellipse cx="156.887" cy="102.276" fill="#FFF6DF" rx="8.086" ry="4.621"/>
      <path fill="#FFEE92" d="m156.887 71.48 27.724-16.173 27.724 16.172-27.724 16.172-27.724-16.172Z"/>
      <path fill="url(#aa)" d="m212.335 177.894-27.724 16.172v-26.568l27.724-16.173v26.569Zm0-26.615-27.724 16.172v-26.569l27.724-16.173v26.57Zm0-26.615-27.724 16.171v-26.568l27.724-16.173v26.57Zm.001-26.616-27.725 16.172V87.652l27.725-16.173v26.57Z"/>

      <path fill="url(#ac)" d="M156.887 124.802v-.093l27.723 16.173v26.569l-27.723-16.172v.046l27.723 16.173v26.568l-27.723-16.172v-26.523l-27.725-16.172v-26.57l27.725 16.173Zm27.723-10.535v26.568l-27.723-16.171v-26.57l27.723 16.173Zm0-26.615v26.568l-27.723-16.172V71.48l27.723 16.173Z" data-figma-bg-blur-radius="34"/>
      <path fill="#FFDE2E" d="m192.697 72.056-.01.238c-.217 2.442-3.75 4.383-8.077 4.383-4.326 0-7.858-1.941-8.075-4.383l-.011-.238v-6.93h16.173v6.93Z"/>
      <ellipse cx="184.611" cy="65.126" fill="#FFF6DF" rx="8.086" ry="4.621"/>
    </g>
    <path fill="url(#ad)" d="m250.336 445.693 27.724-16.172v-26.569l-27.724 16.172v26.569Z"/>
    <path fill="url(#ae)" d="m194.888 445.693 27.724-16.172v-26.569l-27.724 16.172v26.569Z"/>
    <path fill="#2FA9FF" d="M111.714 258.786v26.569l27.724 16.173v-26.569l-27.724-16.173Zm0-26.615v26.569l27.724 16.172v-26.569l-27.724-16.172Z"/>
    <path fill="#23CFCF" d="m194.888 419.078 27.724-16.172v-26.569l-27.724 16.172v26.569Z"/>
    <path fill="url(#af)" d="m361.232 333.688 27.725-16.173v-26.569l-27.725 16.173v26.569Z"/>
    <path fill="#2F83FF" d="m361.232 307.072 27.725-16.172v-26.569l-27.725 16.172v26.569Z"/>
    <path fill="url(#ag)" d="m361.232 386.826-27.724 16.172v-26.569l27.724-16.173v26.57Zm0-26.616-27.724 16.172v-26.568l27.724-16.173v26.569Z"/>
    <path fill="url(#ah)" d="m333.507 429.521-27.724 16.172v-26.568l27.724-16.173v26.569Zm.001-26.615-27.725 16.172v-26.569l27.725-16.173v26.57Z"/>
    <path fill="url(#ai)" d="M194.887 419.125v26.569l-27.725-16.173v-26.568l27.725 16.172Zm55.447 0v26.569l-27.725-16.173v-26.568l27.725 16.172Zm55.449 0v26.569l-27.724-16.172v-26.569l27.724 16.172ZM167.3 376.122v.295l27.587 16.092v26.57l-27.725-16.173v-.296l-27.587-16.092v-26.569l27.725 16.173Zm138.483 16.388v26.569l-27.724-16.172v-26.57l27.724 16.173ZM167.3 349.506v26.569l-27.725-16.172v-26.57l27.725 16.173Zm-27.862-42.386v26.568l-27.724-16.172v-26.569l27.724 16.173Z"/>
    <path fill="#2F83FF" d="m361.232 301.528 27.725-16.173v-26.569l-27.725 16.173v26.569Zm0-26.616 27.725-16.172v-26.569l-27.725 16.172v26.569Z"/>
    <path fill="url(#aj)" d="m222.611 376.29-27.724 16.173v-26.569l27.724-16.172v26.568Zm0-26.615-27.724 16.173v-26.57l27.724-16.172v26.569Zm0-26.614-27.724 16.171v-26.568l27.724-16.173v26.57Z"/>
    <path fill="url(#ak)" d="M139.438 280.504v-.093l27.724 16.172v-.092l27.725 16.173v26.568l-27.725-16.171v.045l27.725 16.172v26.57l-27.725-16.173v.047l27.725 16.172v26.569l-27.725-16.172v-26.523l-27.724-16.172v-26.524L111.714 290.9v-26.569l27.724 16.173Zm0 26.522 27.724 16.173v-.047l-27.724-16.173v.047Z"/>
    <path fill="url(#al)" d="m278.06 402.905-27.725 16.173v-26.569l27.725-16.172v26.568Zm0-26.615-27.725 16.173v-26.569l27.725-16.172v26.568Zm0-26.615-27.725 16.173v-26.57l27.725-16.172v26.569Zm0-26.614-27.725 16.171v-26.568l27.725-16.173v26.57Z"/>
    <path fill="url(#am)" d="M250.335 392.509v26.569l-27.725-16.173v-26.568l27.725 16.172Zm0-26.615v26.569l-27.725-16.172v-26.569l27.725 16.172Zm0-26.616v26.57l-27.725-16.172v-26.57l27.725 16.172Zm0-26.614v26.568l-27.725-16.171v-26.57l27.725 16.173Z"/>

    <path fill="url(#ao)" d="m388.955 232.172-27.724 16.172-.079-.047-.227.132 27.219 15.877-27.049 15.777.542.316-27.725 16.172-27.724-16.172 27.047-15.779-.114-.066-27.182 15.857 27.567 16.08-27.724 16.173-27.645-16.127-.078.047-.08-.047-27.645 16.127-27.646-16.127-.078.047-.08-.047-27.643 16.127-27.646-16.127-.079.047-27.644-16.127-.08.047-27.724-16.173 27.565-16.08-27.565-16.079 27.724-16.173 27.644 16.126.08-.046 27.646 16.126.079-.046 27.644 16.125.079-.045.078.045 27.646-16.125 27.645 16.126.08-.046.078.045 27.645-16.125.079.046 27.647-16.126.078.046 27.645-16.126 27.724 16.173Z" data-figma-bg-blur-radius="24"/>
    <path fill="url(#ap)" d="m361.229 216.092-27.723 16.172-.08-.047-27.645 16.127-.079-.047-27.644 16.127-27.647-16.127-.078.047-.079-.047-27.645 16.127-27.646-16.127-.078.047-27.645-16.127-.078.047-27.724-16.172 27.724-16.173 27.644 16.126.079-.046 27.645 16.126.079-.046.079.046 27.645-16.126 27.646 16.126.079-.046.078.046 27.645-16.126.079.046 27.646-16.126 27.723 16.173Z"/>
    <path fill="url(#aq)" d="m361.231 306.98-27.724 16.172v.047l27.724-16.173v26.57l-27.724 16.173v26.522l-27.724 16.172v-26.568l27.724-16.173v-.046l-27.724 16.172v-26.569l27.724-16.173v-.045l-27.724 16.172v-26.569l27.724-16.173v.093l27.724-16.173v26.569Z"/>
    <path fill="url(#ar)" d="M305.784 365.894v26.569L278.06 376.29v-26.568l27.724 16.172Zm0-26.616v26.57l-27.724-16.173v-26.569l27.724 16.172Zm0-26.614v26.568l-27.724-16.171v-26.57l27.724 16.173Z"/>
    <path fill="url(#as)" d="M175.249 209.738h-16.173v6.931c0 2.552 3.621 4.62 8.087 4.62 4.465 0 8.086-2.068 8.086-4.62v-6.931Z"/>
    <path fill="url(#at)" d="M202.973 225.818H186.8v6.931c0 2.552 3.62 4.621 8.086 4.621s8.086-2.069 8.086-4.621l.001-6.931Z"/>
    <path fill="url(#au)" d="M258.422 225.818h-16.173v6.931c0 2.552 3.62 4.621 8.086 4.621s8.086-2.069 8.086-4.621l.001-6.931Z"/>
    <path fill="url(#av)" d="M230.697 241.898h-16.172v6.931c0 2.552 3.62 4.621 8.086 4.621s8.086-2.069 8.086-4.621v-6.931Z"/>
    <path fill="url(#aw)" d="M341.594 209.738h-16.173v6.931c0 2.552 3.621 4.62 8.086 4.62 4.466 0 8.087-2.068 8.087-4.62v-6.931Z"/>
    <path fill="url(#ax)" d="M313.869 225.818h-16.172v6.931c0 2.552 3.62 4.621 8.086 4.621s8.086-2.069 8.086-4.621v-6.931Z"/>
    <path fill="url(#ay)" d="M286.145 241.898h-16.172v6.931c0 2.552 3.62 4.621 8.086 4.621s8.086-2.069 8.086-4.621v-6.931Z"/>
    <path fill="url(#az)" d="M258.422 257.978h-16.173v6.931c0 2.552 3.62 4.621 8.086 4.621s8.086-2.069 8.086-4.621l.001-6.931Z"/>
    <path fill="url(#aA)" d="M147.525 225.818h-16.172v6.931c0 2.552 3.62 4.621 8.086 4.621s8.086-2.069 8.086-4.621v-6.931Z"/>
    <path fill="url(#aB)" d="M369.318 225.818h-16.172v6.931c0 2.552 3.62 4.621 8.086 4.621s8.086-2.069 8.086-4.621v-6.931Z"/>
    <path fill="url(#aC)" d="M175.249 241.898h-16.173v6.931c0 2.552 3.621 4.621 8.087 4.621 4.465 0 8.086-2.069 8.086-4.621v-6.931Z"/>
    <path fill="url(#aD)" d="M147.525 257.978h-16.172v6.931c0 2.552 3.62 4.621 8.086 4.621s8.086-2.069 8.086-4.621v-6.931Z"/>
    <path fill="url(#aE)" d="M202.973 257.978h-16.172v6.931c0 2.552 3.62 4.621 8.086 4.621s8.086-2.069 8.086-4.621v-6.931Z"/>
    <path fill="url(#aF)" d="M175.249 274.058h-16.173v6.931c0 2.552 3.621 4.621 8.087 4.621 4.465 0 8.086-2.069 8.086-4.621v-6.931Z"/>
    <path fill="url(#aG)" d="M230.697 274.058h-16.172v6.931c0 2.552 3.62 4.621 8.086 4.621s8.086-2.069 8.086-4.621v-6.931Z"/>
    <path fill="url(#aH)" d="M202.973 290.138h-16.172v6.931c0 2.552 3.62 4.62 8.086 4.62s8.086-2.068 8.086-4.62v-6.931Z"/>
    <path fill="url(#aI)" d="M341.594 241.898h-16.172v6.931c0 2.552 3.62 4.621 8.086 4.621s8.086-2.069 8.086-4.621v-6.931Z"/>
    <path fill="url(#aJ)" d="M313.869 257.978h-16.172v6.931c0 2.552 3.62 4.621 8.086 4.621s8.086-2.069 8.086-4.621v-6.931Z"/>
    <path fill="url(#aK)" d="M286.146 274.058h-16.172v6.931c0 2.552 3.62 4.621 8.086 4.621s8.086-2.069 8.086-4.621v-6.931Z"/>
    <path fill="url(#aL)" d="M258.422 290.138h-16.173v6.931c0 2.552 3.62 4.62 8.086 4.62s8.086-2.068 8.086-4.62l.001-6.931Z"/>
    <path fill="url(#aM)" d="M369.318 257.978h-16.172v6.931c0 2.552 3.62 4.621 8.086 4.621s8.086-2.069 8.086-4.621v-6.931Z"/>
    <path fill="url(#aN)" d="M341.594 274.058h-16.172v6.931c0 2.552 3.62 4.621 8.086 4.621s8.086-2.069 8.086-4.621v-6.931Z"/>
    <path fill="url(#aO)" d="M313.869 290.138h-16.172v6.931c0 2.552 3.62 4.62 8.086 4.62s8.086-2.068 8.086-4.62v-6.931Z"/>
    <path fill="#1884CF" d="M175.249 209.738h-16.173v6.931c0 2.552 3.62 4.62 8.086 4.62s8.087-2.068 8.087-4.62v-6.931Zm27.723 16.08H186.8v6.931c0 2.552 3.62 4.621 8.086 4.621s8.086-2.069 8.086-4.621v-6.931Zm55.449 0h-16.172v6.931c0 2.552 3.62 4.621 8.086 4.621s8.086-2.069 8.086-4.621v-6.931Zm-27.724 16.08h-16.172v6.931c0 2.552 3.62 4.621 8.086 4.621s8.086-2.069 8.086-4.621v-6.931Zm110.896-32.16h-16.172v6.931c0 2.552 3.62 4.62 8.086 4.62s8.087-2.068 8.087-4.62l-.001-.014v-6.917Zm-27.724 16.08h-16.172v6.931c0 2.552 3.62 4.621 8.086 4.621s8.086-2.069 8.086-4.621v-6.931Zm-27.724 16.08h-16.172v6.931c0 2.552 3.62 4.621 8.086 4.621s8.086-2.069 8.086-4.621v-6.931Z"/>
    <path fill="#EFF8FF" fill-opacity=".6" d="M175.249 209.737c0 2.552-3.621 4.621-8.086 4.621-4.466 0-8.087-2.069-8.087-4.621 0-2.552 3.621-4.62 8.087-4.62 4.465 0 8.086 2.068 8.086 4.62Zm27.723 16.08c0 2.552-3.62 4.621-8.086 4.621s-8.086-2.069-8.086-4.621c0-2.551 3.62-4.62 8.086-4.62s8.086 2.069 8.086 4.62Zm55.449 0c0 2.552-3.62 4.621-8.086 4.621s-8.086-2.069-8.086-4.621c0-2.551 3.62-4.62 8.086-4.62s8.086 2.069 8.086 4.62Zm-27.724 16.081c0 2.551-3.62 4.62-8.086 4.62s-8.086-2.069-8.086-4.62c0-2.552 3.62-4.621 8.086-4.621s8.086 2.069 8.086 4.621Zm110.897-32.161c0 2.552-3.621 4.621-8.087 4.621-4.465 0-8.086-2.069-8.086-4.621 0-2.552 3.621-4.62 8.086-4.62 4.466 0 8.087 2.068 8.087 4.62Zm-27.725 16.08c0 2.552-3.62 4.621-8.086 4.621s-8.086-2.069-8.086-4.621c0-2.551 3.62-4.62 8.086-4.62s8.086 2.069 8.086 4.62Zm-27.724 16.081c0 2.551-3.62 4.62-8.086 4.62s-8.086-2.069-8.086-4.62c0-2.552 3.62-4.621 8.086-4.621s8.086 2.069 8.086 4.621Zm-27.724 16.08c0 2.552-3.62 4.62-8.086 4.62s-8.086-2.068-8.086-4.62 3.62-4.621 8.086-4.621 8.086 2.069 8.086 4.621Zm-110.896-32.16c0 2.551-3.62 4.62-8.086 4.62s-8.086-2.069-8.086-4.62c0-2.552 3.62-4.621 8.086-4.621s8.086 2.069 8.086 4.621Zm221.793 0c0 2.551-3.62 4.62-8.086 4.62s-8.086-2.069-8.086-4.62c0-2.552 3.62-4.621 8.086-4.621s8.086 2.069 8.086 4.621Zm-194.069 16.08c0 2.551-3.621 4.62-8.086 4.62-4.466 0-8.087-2.069-8.087-4.62 0-2.552 3.621-4.621 8.087-4.621 4.465 0 8.086 2.069 8.086 4.621Zm-27.724 16.079c0 2.552-3.62 4.621-8.086 4.621s-8.086-2.069-8.086-4.621c0-2.551 3.62-4.62 8.086-4.62s8.086 2.069 8.086 4.62Zm55.448 0c0 2.552-3.62 4.621-8.086 4.621s-8.086-2.069-8.086-4.621c0-2.551 3.62-4.62 8.086-4.62s8.086 2.069 8.086 4.62Zm-27.724 16.08c0 2.552-3.621 4.621-8.086 4.621-4.466 0-8.087-2.069-8.087-4.621 0-2.551 3.621-4.62 8.087-4.62 4.465 0 8.086 2.069 8.086 4.62Zm55.448 0c0 2.552-3.62 4.621-8.086 4.621s-8.086-2.069-8.086-4.621c0-2.551 3.62-4.62 8.086-4.62s8.086 2.069 8.086 4.62Zm-27.724 16.08c0 2.552-3.62 4.621-8.086 4.621s-8.086-2.069-8.086-4.621c0-2.551 3.62-4.62 8.086-4.62s8.086 2.069 8.086 4.62Zm138.621-48.239c0 2.551-3.62 4.62-8.086 4.62s-8.086-2.069-8.086-4.62c0-2.552 3.62-4.621 8.086-4.621s8.086 2.069 8.086 4.621Zm-27.725 16.079c0 2.552-3.62 4.621-8.086 4.621s-8.086-2.069-8.086-4.621c0-2.551 3.62-4.62 8.086-4.62s8.086 2.069 8.086 4.62Zm-27.723 16.08c0 2.552-3.62 4.621-8.086 4.621s-8.086-2.069-8.086-4.621c0-2.551 3.62-4.62 8.086-4.62s8.086 2.069 8.086 4.62Zm-27.725 16.08c0 2.552-3.62 4.621-8.086 4.621s-8.086-2.069-8.086-4.621c0-2.551 3.62-4.62 8.086-4.62s8.086 2.069 8.086 4.62Zm110.897-32.16c0 2.552-3.62 4.621-8.086 4.621s-8.086-2.069-8.086-4.621c0-2.551 3.62-4.62 8.086-4.62s8.086 2.069 8.086 4.62Zm-27.724 16.08c0 2.552-3.62 4.621-8.086 4.621s-8.086-2.069-8.086-4.621c0-2.551 3.62-4.62 8.086-4.62s8.086 2.069 8.086 4.62Zm-27.725 16.08c0 2.552-3.62 4.621-8.086 4.621s-8.086-2.069-8.086-4.621c0-2.551 3.62-4.62 8.086-4.62s8.086 2.069 8.086 4.62Z" data-figma-bg-blur-radius="4"/>
    <path fill="#79C2F7" d="M175.249 209.737c0 2.552-3.621 4.621-8.087 4.621-4.466 0-8.086-2.069-8.086-4.621 0-2.552 3.62-4.62 8.086-4.62s8.087 2.068 8.087 4.62Zm27.723 16.08c0 2.552-3.62 4.621-8.086 4.621s-8.086-2.069-8.086-4.621c0-2.551 3.62-4.62 8.086-4.62s8.086 2.069 8.086 4.62Zm55.449 0c0 2.552-3.62 4.621-8.086 4.621s-8.086-2.069-8.086-4.621c0-2.551 3.62-4.62 8.086-4.62s8.086 2.069 8.086 4.62Zm-27.724 16.081c0 2.552-3.62 4.62-8.086 4.62s-8.086-2.068-8.086-4.62 3.62-4.621 8.086-4.621 8.086 2.069 8.086 4.621Zm110.896-32.161c0 2.552-3.62 4.621-8.086 4.621s-8.086-2.069-8.086-4.621c0-2.552 3.62-4.62 8.086-4.62s8.086 2.068 8.086 4.62Zm-27.724 16.08c0 2.552-3.62 4.621-8.086 4.621s-8.086-2.069-8.086-4.621c0-2.551 3.62-4.62 8.086-4.62s8.086 2.069 8.086 4.62Zm-27.724 16.081c0 2.552-3.62 4.62-8.086 4.62s-8.086-2.068-8.086-4.62 3.62-4.621 8.086-4.621 8.086 2.069 8.086 4.621Z"/>
    <path fill="url(#aQ)" d="M112.122 264.227v26.569l27.724 16.172v-26.569l-27.724-16.172Z"/>
    <g filter="url(#aR)">
      <ellipse cx="245.562" cy="219" fill="#0029FF" rx="74.5" ry="34"/>
    </g>
    <path fill="#71C3FF" d="m305.784 133.473 27.724-16.172 27.724 16.172-27.724 16.173-27.724-16.173Z"/>
    <path fill="#2FA9FF" d="m341.594 134.051-.011.238c-.217 2.441-3.75 4.383-8.076 4.383-4.326 0-7.859-1.942-8.075-4.383l-.011-.238v-6.931h16.173v6.931Z"/>
    <ellipse cx="333.507" cy="127.12" fill="#EFF8FF" rx="8.086" ry="4.621"/>
    <path fill="url(#aS)" d="m333.507 149.507-27.723 16.171v.047l27.723-16.172v.093l27.724-16.173v26.569l-27.724 16.173v.046l27.724-16.172v26.569l-27.724 16.173v-.093l-27.724 16.173v-.093l-27.723 16.173v-26.57l27.723-16.172v-.046l-27.723 16.172v-26.569l27.723-16.173v-26.522l27.724-16.173v26.569Zm-27.723 42.787v.046l27.723-16.172v-.045l-27.723 16.171Z"/>
    <path fill="url(#aT)" d="M278.06 208.422v26.568l-27.725-16.172v-26.569l27.725 16.173Zm0-26.615v26.568l-27.725-16.172v-26.569l27.725 16.173Z"/>
    <path fill="#F88887" d="m313.869 96.9-.011.238c-.216 2.441-3.749 4.383-8.075 4.383-4.326 0-7.859-1.942-8.076-4.383l-.011-.238v-6.93h16.173v6.93Z"/>
    <ellipse cx="305.783" cy="89.969" fill="#FFEDEF" rx="8.086" ry="4.621"/>
    <path fill="url(#aU)" d="m333.507 96.323-27.725 16.172-27.723-16.172 27.723-16.173 27.725 16.173Zm-27.724-37.15L278.06 75.345l-27.725-16.172L278.06 43l27.723 16.173Z"/>

    <path fill="url(#aW)" d="m333.507 122.892-27.723 16.171v26.524l-27.724 16.172v-26.568l27.723-16.173v-.046l-27.723 16.172v-26.568l27.724-16.173v.092l27.723-16.172v26.569Zm-27.723-10.535-27.724 16.172V101.96l27.724-16.172v26.569Zm0-26.615-27.724 16.172V75.345l27.724-16.173v26.57Z" data-figma-bg-blur-radius="54"/>
    <path fill="url(#aX)" d="M278.06 155.191v26.568l-27.725-16.172v-26.569l27.725 16.173Zm0-26.615v26.568l-27.725-16.172v-26.569l27.725 16.173Zm0-26.616v26.569l-27.725-16.172v-26.57l27.725 16.173Zm0-26.615v26.569l-27.725-16.172v-26.57l27.725 16.173Z"/>
    <path fill="#F88887" d="m286.146 59.75-.011.238c-.217 2.441-3.75 4.383-8.076 4.383-4.326 0-7.859-1.942-8.076-4.383l-.01-.239v-6.93h16.173v6.93Z"/>
    <ellipse cx="278.059" cy="52.819" fill="#FFEDEF" rx="8.086" ry="4.621"/>
    <path fill="#6EFAA6" d="m139.438 133.473 27.724-16.172 27.724 16.172-27.724 16.173-27.724-16.173Z"/>
    <path fill="#35C16D" d="m175.25 134.051-.011.238c-.216 2.441-3.75 4.383-8.076 4.383-4.326 0-7.858-1.942-8.075-4.383l-.011-.238v-6.931h16.173v6.931Z"/>
    <ellipse cx="167.162" cy="127.12" fill="#E7FFF0" rx="8.086" ry="4.621"/>
    <path fill="url(#aY)" d="m250.336 218.818-27.725 16.172v-26.568l27.725-16.173v26.569Zm0-26.615-27.725 16.172v-26.568l27.725-16.173v26.569Z"/>

    <path fill="url(#ba)" d="M194.886 139.111v26.522l27.724 16.173v26.569l-27.724-16.172v.046l27.724 16.172v26.569l-27.724-16.172v.092l-27.724-16.172v.092l-27.724-16.172v-26.57l27.724 16.173v-.047l-27.724-16.172v-26.569l27.724 16.173v-.093l27.724 16.173v-.047l-27.724-16.172v-26.569l27.724 16.173Zm-27.724 37.057 27.724 16.173v-.047l-27.724-16.171v.045Z" data-figma-bg-blur-radius="4"/>
    <path fill="#FFEE92" d="m167.162 96.323 27.724-16.172 27.724 16.172-27.724 16.173-27.724-16.173Z"/>
    <path fill="#FFDE2E" d="m202.974 96.9-.011.238c-.217 2.441-3.75 4.383-8.076 4.383-4.326 0-7.859-1.942-8.075-4.383l-.011-.238v-6.93h16.173v6.93Z"/>
    <ellipse cx="194.887" cy="89.969" fill="#FFF6DF" rx="8.086" ry="4.621"/>
    <path fill="#FFEE92" d="M194.887 59.172 222.611 43l27.724 16.172-27.724 16.173-27.724-16.173Z"/>
    <path fill="url(#bb)" d="m250.336 165.587-27.725 16.172v-26.568l27.725-16.173v26.569Zm0-26.615-27.725 16.172v-26.568l27.725-16.173v26.569Zm0-26.615-27.725 16.172V101.96l27.725-16.172v26.569Zm0-26.615-27.725 16.172V75.345l27.725-16.173v26.57Z"/>

    <path fill="url(#bd)" d="M194.887 112.496v-.093l27.723 16.173v26.568l-27.723-16.172v.046l27.723 16.173v26.568l-27.723-16.172v-26.523l-27.725-16.172v-26.57l27.725 16.174Zm27.723-10.536v26.569l-27.723-16.172v-26.57l27.723 16.173Zm0-26.615v26.569l-27.723-16.172v-26.57l27.723 16.173Z" data-figma-bg-blur-radius="34"/>
    <path fill="#FFDE2E" d="m230.696 59.75-.01.238c-.217 2.441-3.75 4.383-8.077 4.383-4.326 0-7.858-1.942-8.075-4.383l-.011-.239v-6.93h16.173v6.93Z"/>
    <ellipse cx="222.611" cy="52.819" fill="#FFF6DF" rx="8.086" ry="4.621"/>
  </g>
  <defs>
    <linearGradient id="c" x1="222.252" x2="224.971" y1="428.927" y2="458.114" gradientUnits="userSpaceOnUse">
      <stop stop-color="#23CFCF"/>
      <stop offset="1" stop-color="#29E9E9" stop-opacity="0"/>
    </linearGradient>
    <linearGradient id="d" x1="166.804" x2="169.523" y1="428.927" y2="458.114" gradientUnits="userSpaceOnUse">
      <stop stop-color="#23CFCF"/>
      <stop offset="1" stop-color="#29E9E9" stop-opacity="0"/>
    </linearGradient>
    <linearGradient id="e" x1="333.149" x2="335.868" y1="316.921" y2="346.108" gradientUnits="userSpaceOnUse">
      <stop stop-color="#23CFCF"/>
      <stop offset="1" stop-color="#29E9E9" stop-opacity="0"/>
    </linearGradient>
    <linearGradient id="f" x1="307.949" x2="314.461" y1="338.54" y2="414.871" gradientUnits="userSpaceOnUse">
      <stop stop-color="#23CFCF"/>
      <stop offset="1" stop-color="#29E9E9" stop-opacity="0"/>
    </linearGradient>
    <linearGradient id="g" x1="277.701" x2="284.761" y1="410.822" y2="457.528" gradientUnits="userSpaceOnUse">
      <stop stop-color="#23CFCF"/>
      <stop offset="1" stop-color="#29E9E9" stop-opacity="0"/>
    </linearGradient>
    <linearGradient id="h" x1="143.134" x2="148.258" y1="352.74" y2="459.084" gradientUnits="userSpaceOnUse">
      <stop stop-color="#23CFCF"/>
      <stop offset="1" stop-color="#29E9E9" stop-opacity="0"/>
    </linearGradient>
    <linearGradient id="i" x1="167.21" x2="243.928" y1="332.918" y2="350.817" gradientUnits="userSpaceOnUse">
      <stop stop-color="#0067FF"/>
      <stop offset="1" stop-color="#2F83FF" stop-opacity="0"/>
    </linearGradient>
    <linearGradient id="j" x1="180.212" x2="152.856" y1="313.623" y2="414.913" gradientUnits="userSpaceOnUse">
      <stop stop-color="#2F76FF"/>
      <stop offset="1" stop-color="#9BBDFF" stop-opacity=".75"/>
    </linearGradient>
    <linearGradient id="k" x1="222.659" x2="283.336" y1="339.607" y2="439.834" gradientUnits="userSpaceOnUse">
      <stop stop-color="#0067FF"/>
      <stop offset="1" stop-color="#2F83FF" stop-opacity="0"/>
    </linearGradient>
    <linearGradient id="l" x1="220.11" x2="169.764" y1="344.183" y2="409.132" gradientUnits="userSpaceOnUse">
      <stop stop-color="#2F76FF"/>
      <stop offset="1" stop-color="#9BBDFF" stop-opacity=".75"/>
    </linearGradient>
    <linearGradient id="p" x1="288.429" x2="349.062" y1="320.879" y2="349.201" gradientUnits="userSpaceOnUse">
      <stop stop-color="#0067FF"/>
      <stop offset="1" stop-color="#2F83FF" stop-opacity="0"/>
    </linearGradient>
    <linearGradient id="q" x1="275.559" x2="239.456" y1="336.5" y2="395.991" gradientUnits="userSpaceOnUse">
      <stop stop-color="#2F76FF"/>
      <stop offset="1" stop-color="#9BBDFF" stop-opacity=".75"/>
    </linearGradient>
    <linearGradient id="r" x1="212.333" x2="214.701" y1="222.044" y2="357.474" gradientUnits="userSpaceOnUse">
      <stop stop-color="#2FA9FF"/>
      <stop offset="1" stop-color="#2FA9FF" stop-opacity="0"/>
    </linearGradient>
    <linearGradient id="s" x1="212.333" x2="214.701" y1="222.044" y2="357.474" gradientUnits="userSpaceOnUse">
      <stop stop-color="#2FA9FF"/>
      <stop offset="1" stop-color="#2FA9FF" stop-opacity="0"/>
    </linearGradient>
    <linearGradient id="t" x1="212.333" x2="214.701" y1="222.044" y2="357.474" gradientUnits="userSpaceOnUse">
      <stop stop-color="#2FA9FF"/>
      <stop offset="1" stop-color="#2FA9FF" stop-opacity="0"/>
    </linearGradient>
    <linearGradient id="u" x1="212.333" x2="214.701" y1="222.044" y2="357.474" gradientUnits="userSpaceOnUse">
      <stop stop-color="#2FA9FF"/>
      <stop offset="1" stop-color="#2FA9FF" stop-opacity="0"/>
    </linearGradient>
    <linearGradient id="v" x1="212.333" x2="214.701" y1="222.044" y2="357.474" gradientUnits="userSpaceOnUse">
      <stop stop-color="#2FA9FF"/>
      <stop offset="1" stop-color="#2FA9FF" stop-opacity="0"/>
    </linearGradient>
    <linearGradient id="w" x1="212.333" x2="214.701" y1="222.044" y2="357.474" gradientUnits="userSpaceOnUse">
      <stop stop-color="#2FA9FF"/>
      <stop offset="1" stop-color="#2FA9FF" stop-opacity="0"/>
    </linearGradient>
    <linearGradient id="x" x1="212.333" x2="214.701" y1="222.044" y2="357.474" gradientUnits="userSpaceOnUse">
      <stop stop-color="#2FA9FF"/>
      <stop offset="1" stop-color="#2FA9FF" stop-opacity="0"/>
    </linearGradient>
    <linearGradient id="y" x1="212.333" x2="214.701" y1="222.044" y2="357.474" gradientUnits="userSpaceOnUse">
      <stop stop-color="#2FA9FF"/>
      <stop offset="1" stop-color="#2FA9FF" stop-opacity="0"/>
    </linearGradient>
    <linearGradient id="z" x1="212.333" x2="214.701" y1="222.044" y2="357.474" gradientUnits="userSpaceOnUse">
      <stop stop-color="#2FA9FF"/>
      <stop offset="1" stop-color="#2FA9FF" stop-opacity="0"/>
    </linearGradient>
    <linearGradient id="A" x1="212.333" x2="214.701" y1="222.044" y2="357.474" gradientUnits="userSpaceOnUse">
      <stop stop-color="#2FA9FF"/>
      <stop offset="1" stop-color="#2FA9FF" stop-opacity="0"/>
    </linearGradient>
    <linearGradient id="B" x1="212.333" x2="214.701" y1="222.044" y2="357.474" gradientUnits="userSpaceOnUse">
      <stop stop-color="#2FA9FF"/>
      <stop offset="1" stop-color="#2FA9FF" stop-opacity="0"/>
    </linearGradient>
    <linearGradient id="C" x1="212.333" x2="214.701" y1="222.044" y2="357.474" gradientUnits="userSpaceOnUse">
      <stop stop-color="#2FA9FF"/>
      <stop offset="1" stop-color="#2FA9FF" stop-opacity="0"/>
    </linearGradient>
    <linearGradient id="D" x1="212.333" x2="214.701" y1="222.044" y2="357.474" gradientUnits="userSpaceOnUse">
      <stop stop-color="#2FA9FF"/>
      <stop offset="1" stop-color="#2FA9FF" stop-opacity="0"/>
    </linearGradient>
    <linearGradient id="E" x1="212.333" x2="214.701" y1="222.044" y2="357.474" gradientUnits="userSpaceOnUse">
      <stop stop-color="#2FA9FF"/>
      <stop offset="1" stop-color="#2FA9FF" stop-opacity="0"/>
    </linearGradient>
    <linearGradient id="F" x1="212.333" x2="214.701" y1="222.044" y2="357.474" gradientUnits="userSpaceOnUse">
      <stop stop-color="#2FA9FF"/>
      <stop offset="1" stop-color="#2FA9FF" stop-opacity="0"/>
    </linearGradient>
    <linearGradient id="G" x1="212.333" x2="214.701" y1="222.044" y2="357.474" gradientUnits="userSpaceOnUse">
      <stop stop-color="#2FA9FF"/>
      <stop offset="1" stop-color="#2FA9FF" stop-opacity="0"/>
    </linearGradient>
    <linearGradient id="H" x1="212.333" x2="214.701" y1="222.044" y2="357.474" gradientUnits="userSpaceOnUse">
      <stop stop-color="#2FA9FF"/>
      <stop offset="1" stop-color="#2FA9FF" stop-opacity="0"/>
    </linearGradient>
    <linearGradient id="I" x1="212.333" x2="214.701" y1="222.044" y2="357.474" gradientUnits="userSpaceOnUse">
      <stop stop-color="#2FA9FF"/>
      <stop offset="1" stop-color="#2FA9FF" stop-opacity="0"/>
    </linearGradient>
    <linearGradient id="J" x1="212.333" x2="214.701" y1="222.044" y2="357.474" gradientUnits="userSpaceOnUse">
      <stop stop-color="#2FA9FF"/>
      <stop offset="1" stop-color="#2FA9FF" stop-opacity="0"/>
    </linearGradient>
    <linearGradient id="K" x1="212.333" x2="214.701" y1="222.044" y2="357.474" gradientUnits="userSpaceOnUse">
      <stop stop-color="#2FA9FF"/>
      <stop offset="1" stop-color="#2FA9FF" stop-opacity="0"/>
    </linearGradient>
    <linearGradient id="L" x1="212.333" x2="214.701" y1="222.044" y2="357.474" gradientUnits="userSpaceOnUse">
      <stop stop-color="#2FA9FF"/>
      <stop offset="1" stop-color="#2FA9FF" stop-opacity="0"/>
    </linearGradient>
    <linearGradient id="M" x1="212.333" x2="214.701" y1="222.044" y2="357.474" gradientUnits="userSpaceOnUse">
      <stop stop-color="#2FA9FF"/>
      <stop offset="1" stop-color="#2FA9FF" stop-opacity="0"/>
    </linearGradient>
    <linearGradient id="N" x1="212.333" x2="214.701" y1="222.044" y2="357.474" gradientUnits="userSpaceOnUse">
      <stop stop-color="#2FA9FF"/>
      <stop offset="1" stop-color="#2FA9FF" stop-opacity="0"/>
    </linearGradient>
    <linearGradient id="P" x1="84.444" x2="111.306" y1="287.275" y2="303.722" gradientUnits="userSpaceOnUse">
      <stop stop-color="#0067FF"/>
      <stop offset="1" stop-color="#2F83FF" stop-opacity="0"/>
    </linearGradient>
    <linearGradient id="R" x1="271.029" x2="345.342" y1="163.406" y2="215.473" gradientUnits="userSpaceOnUse">
      <stop stop-color="#0067FF"/>
      <stop offset="1" stop-color="#C8DEFF"/>
    </linearGradient>
    <linearGradient id="S" x1="247.837" x2="226.199" y1="197.96" y2="247.297" gradientUnits="userSpaceOnUse">
      <stop stop-color="#2F76FF"/>
      <stop offset="1" stop-color="#A8C5FF"/>
    </linearGradient>
    <linearGradient id="T" x1="244.996" x2="320.256" y1="88.146" y2="116.547" gradientUnits="userSpaceOnUse">
      <stop offset=".068" stop-color="#FFB8B4"/>
      <stop offset="1" stop-color="#FFB8B4" stop-opacity="0"/>
    </linearGradient>
    <linearGradient id="V" x1="244.049" x2="303.689" y1="109.92" y2="152.046" gradientUnits="userSpaceOnUse">
      <stop stop-color="#D24544"/>
      <stop offset="1" stop-color="#FB9190" stop-opacity=".24"/>
    </linearGradient>
    <linearGradient id="W" x1="226.198" x2="209.496" y1="71.479" y2="157.726" gradientUnits="userSpaceOnUse">
      <stop stop-color="#F79998"/>
      <stop offset="1" stop-color="#F88887"/>
    </linearGradient>
    <linearGradient id="X" x1="194.822" x2="170.21" y1="190.387" y2="294.047" gradientUnits="userSpaceOnUse">
      <stop stop-color="#1DAC56"/>
      <stop offset="1" stop-color="#0E9F48" stop-opacity="0"/>
    </linearGradient>
    <linearGradient id="Z" x1="168.789" x2="52.349" y1="215.473" y2="179.973" gradientUnits="userSpaceOnUse">
      <stop stop-color="#20C375"/>
      <stop offset="1" stop-color="#A4FFC8" stop-opacity=".37"/>
    </linearGradient>
    <linearGradient id="aa" x1="198.474" x2="198.474" y1="71.479" y2="194.066" gradientUnits="userSpaceOnUse">
      <stop stop-color="#DBA10E"/>
      <stop offset="1" stop-color="#F9C594"/>
    </linearGradient>
    <linearGradient id="ac" x1="179.201" x2="106.308" y1="119.86" y2="116.546" gradientUnits="userSpaceOnUse">
      <stop stop-color="#FFDE2E"/>
      <stop offset="1" stop-color="#fff" stop-opacity="0"/>
    </linearGradient>
    <linearGradient id="ad" x1="260.253" x2="262.972" y1="416.62" y2="445.807" gradientUnits="userSpaceOnUse">
      <stop stop-color="#23CFCF"/>
      <stop offset="1" stop-color="#29E9E9" stop-opacity="0"/>
    </linearGradient>
    <linearGradient id="ae" x1="204.805" x2="207.524" y1="416.62" y2="445.807" gradientUnits="userSpaceOnUse">
      <stop stop-color="#23CFCF"/>
      <stop offset="1" stop-color="#29E9E9" stop-opacity="0"/>
    </linearGradient>
    <linearGradient id="af" x1="371.15" x2="373.869" y1="304.615" y2="333.802" gradientUnits="userSpaceOnUse">
      <stop stop-color="#23CFCF"/>
      <stop offset="1" stop-color="#29E9E9" stop-opacity="0"/>
    </linearGradient>
    <linearGradient id="ag" x1="345.95" x2="352.462" y1="326.233" y2="402.563" gradientUnits="userSpaceOnUse">
      <stop stop-color="#23CFCF"/>
      <stop offset="1" stop-color="#29E9E9" stop-opacity="0"/>
    </linearGradient>
    <linearGradient id="ah" x1="315.701" x2="322.761" y1="398.516" y2="445.222" gradientUnits="userSpaceOnUse">
      <stop stop-color="#23CFCF"/>
      <stop offset="1" stop-color="#29E9E9" stop-opacity="0"/>
    </linearGradient>
    <linearGradient id="ai" x1="181.136" x2="186.26" y1="340.434" y2="446.777" gradientUnits="userSpaceOnUse">
      <stop stop-color="#23CFCF"/>
      <stop offset="1" stop-color="#29E9E9" stop-opacity="0"/>
    </linearGradient>
    <linearGradient id="aj" x1="205.21" x2="281.928" y1="320.612" y2="338.51" gradientUnits="userSpaceOnUse">
      <stop stop-color="#0067FF"/>
      <stop offset="1" stop-color="#2F83FF" stop-opacity="0"/>
    </linearGradient>
    <linearGradient id="ak" x1="218.214" x2="190.858" y1="301.316" y2="402.606" gradientUnits="userSpaceOnUse">
      <stop stop-color="#2F76FF"/>
      <stop offset="1" stop-color="#9BBDFF" stop-opacity=".75"/>
    </linearGradient>
    <linearGradient id="al" x1="260.658" x2="321.335" y1="327.301" y2="427.528" gradientUnits="userSpaceOnUse">
      <stop stop-color="#0067FF"/>
      <stop offset="1" stop-color="#2F83FF" stop-opacity="0"/>
    </linearGradient>
    <linearGradient id="am" x1="258.111" x2="207.765" y1="331.876" y2="396.825" gradientUnits="userSpaceOnUse">
      <stop stop-color="#2F76FF"/>
      <stop offset="1" stop-color="#9BBDFF" stop-opacity=".75"/>
    </linearGradient>
    <linearGradient id="aq" x1="326.43" x2="387.063" y1="308.573" y2="336.895" gradientUnits="userSpaceOnUse">
      <stop stop-color="#0067FF"/>
      <stop offset="1" stop-color="#2F83FF" stop-opacity="0"/>
    </linearGradient>
    <linearGradient id="ar" x1="313.56" x2="277.457" y1="324.193" y2="383.685" gradientUnits="userSpaceOnUse">
      <stop stop-color="#2F76FF"/>
      <stop offset="1" stop-color="#9BBDFF" stop-opacity=".75"/>
    </linearGradient>
    <linearGradient id="as" x1="250.335" x2="252.703" y1="209.738" y2="345.167" gradientUnits="userSpaceOnUse">
      <stop stop-color="#2FA9FF"/>
      <stop offset="1" stop-color="#2FA9FF" stop-opacity="0"/>
    </linearGradient>
    <linearGradient id="at" x1="250.335" x2="252.703" y1="209.738" y2="345.167" gradientUnits="userSpaceOnUse">
      <stop stop-color="#2FA9FF"/>
      <stop offset="1" stop-color="#2FA9FF" stop-opacity="0"/>
    </linearGradient>
    <linearGradient id="au" x1="250.335" x2="252.703" y1="209.738" y2="345.167" gradientUnits="userSpaceOnUse">
      <stop stop-color="#2FA9FF"/>
      <stop offset="1" stop-color="#2FA9FF" stop-opacity="0"/>
    </linearGradient>
    <linearGradient id="av" x1="250.335" x2="252.703" y1="209.738" y2="345.167" gradientUnits="userSpaceOnUse">
      <stop stop-color="#2FA9FF"/>
      <stop offset="1" stop-color="#2FA9FF" stop-opacity="0"/>
    </linearGradient>
    <linearGradient id="aw" x1="250.335" x2="252.703" y1="209.738" y2="345.167" gradientUnits="userSpaceOnUse">
      <stop stop-color="#2FA9FF"/>
      <stop offset="1" stop-color="#2FA9FF" stop-opacity="0"/>
    </linearGradient>
    <linearGradient id="ax" x1="250.335" x2="252.703" y1="209.738" y2="345.167" gradientUnits="userSpaceOnUse">
      <stop stop-color="#2FA9FF"/>
      <stop offset="1" stop-color="#2FA9FF" stop-opacity="0"/>
    </linearGradient>
    <linearGradient id="ay" x1="250.335" x2="252.703" y1="209.738" y2="345.167" gradientUnits="userSpaceOnUse">
      <stop stop-color="#2FA9FF"/>
      <stop offset="1" stop-color="#2FA9FF" stop-opacity="0"/>
    </linearGradient>
    <linearGradient id="az" x1="250.335" x2="252.703" y1="209.738" y2="345.167" gradientUnits="userSpaceOnUse">
      <stop stop-color="#2FA9FF"/>
      <stop offset="1" stop-color="#2FA9FF" stop-opacity="0"/>
    </linearGradient>
    <linearGradient id="aA" x1="250.335" x2="252.703" y1="209.738" y2="345.167" gradientUnits="userSpaceOnUse">
      <stop stop-color="#2FA9FF"/>
      <stop offset="1" stop-color="#2FA9FF" stop-opacity="0"/>
    </linearGradient>
    <linearGradient id="aB" x1="250.335" x2="252.703" y1="209.738" y2="345.167" gradientUnits="userSpaceOnUse">
      <stop stop-color="#2FA9FF"/>
      <stop offset="1" stop-color="#2FA9FF" stop-opacity="0"/>
    </linearGradient>
    <linearGradient id="aC" x1="250.335" x2="252.703" y1="209.738" y2="345.167" gradientUnits="userSpaceOnUse">
      <stop stop-color="#2FA9FF"/>
      <stop offset="1" stop-color="#2FA9FF" stop-opacity="0"/>
    </linearGradient>
    <linearGradient id="aD" x1="250.335" x2="252.703" y1="209.738" y2="345.167" gradientUnits="userSpaceOnUse">
      <stop stop-color="#2FA9FF"/>
      <stop offset="1" stop-color="#2FA9FF" stop-opacity="0"/>
    </linearGradient>
    <linearGradient id="aE" x1="250.335" x2="252.703" y1="209.738" y2="345.167" gradientUnits="userSpaceOnUse">
      <stop stop-color="#2FA9FF"/>
      <stop offset="1" stop-color="#2FA9FF" stop-opacity="0"/>
    </linearGradient>
    <linearGradient id="aF" x1="250.335" x2="252.703" y1="209.738" y2="345.167" gradientUnits="userSpaceOnUse">
      <stop stop-color="#2FA9FF"/>
      <stop offset="1" stop-color="#2FA9FF" stop-opacity="0"/>
    </linearGradient>
    <linearGradient id="aG" x1="250.335" x2="252.703" y1="209.738" y2="345.167" gradientUnits="userSpaceOnUse">
      <stop stop-color="#2FA9FF"/>
      <stop offset="1" stop-color="#2FA9FF" stop-opacity="0"/>
    </linearGradient>
    <linearGradient id="aH" x1="250.335" x2="252.703" y1="209.738" y2="345.167" gradientUnits="userSpaceOnUse">
      <stop stop-color="#2FA9FF"/>
      <stop offset="1" stop-color="#2FA9FF" stop-opacity="0"/>
    </linearGradient>
    <linearGradient id="aI" x1="250.335" x2="252.703" y1="209.738" y2="345.167" gradientUnits="userSpaceOnUse">
      <stop stop-color="#2FA9FF"/>
      <stop offset="1" stop-color="#2FA9FF" stop-opacity="0"/>
    </linearGradient>
    <linearGradient id="aJ" x1="250.335" x2="252.703" y1="209.738" y2="345.167" gradientUnits="userSpaceOnUse">
      <stop stop-color="#2FA9FF"/>
      <stop offset="1" stop-color="#2FA9FF" stop-opacity="0"/>
    </linearGradient>
    <linearGradient id="aK" x1="250.335" x2="252.703" y1="209.738" y2="345.167" gradientUnits="userSpaceOnUse">
      <stop stop-color="#2FA9FF"/>
      <stop offset="1" stop-color="#2FA9FF" stop-opacity="0"/>
    </linearGradient>
    <linearGradient id="aL" x1="250.335" x2="252.703" y1="209.738" y2="345.167" gradientUnits="userSpaceOnUse">
      <stop stop-color="#2FA9FF"/>
      <stop offset="1" stop-color="#2FA9FF" stop-opacity="0"/>
    </linearGradient>
    <linearGradient id="aM" x1="250.335" x2="252.703" y1="209.738" y2="345.167" gradientUnits="userSpaceOnUse">
      <stop stop-color="#2FA9FF"/>
      <stop offset="1" stop-color="#2FA9FF" stop-opacity="0"/>
    </linearGradient>
    <linearGradient id="aN" x1="250.335" x2="252.703" y1="209.738" y2="345.167" gradientUnits="userSpaceOnUse">
      <stop stop-color="#2FA9FF"/>
      <stop offset="1" stop-color="#2FA9FF" stop-opacity="0"/>
    </linearGradient>
    <linearGradient id="aO" x1="250.335" x2="252.703" y1="209.738" y2="345.167" gradientUnits="userSpaceOnUse">
      <stop stop-color="#2FA9FF"/>
      <stop offset="1" stop-color="#2FA9FF" stop-opacity="0"/>
    </linearGradient>
    <linearGradient id="aQ" x1="122.445" x2="149.307" y1="274.969" y2="291.415" gradientUnits="userSpaceOnUse">
      <stop stop-color="#0067FF"/>
      <stop offset="1" stop-color="#2F83FF" stop-opacity="0"/>
    </linearGradient>
    <linearGradient id="aS" x1="309.029" x2="383.342" y1="151.1" y2="203.167" gradientUnits="userSpaceOnUse">
      <stop stop-color="#0067FF"/>
      <stop offset="1" stop-color="#C8DEFF"/>
    </linearGradient>
    <linearGradient id="aT" x1="285.836" x2="264.198" y1="185.654" y2="234.991" gradientUnits="userSpaceOnUse">
      <stop stop-color="#2F76FF"/>
      <stop offset="1" stop-color="#A8C5FF"/>
    </linearGradient>
    <linearGradient id="aU" x1="282.995" x2="358.255" y1="75.84" y2="104.24" gradientUnits="userSpaceOnUse">
      <stop offset=".068" stop-color="#FFB8B4"/>
      <stop offset="1" stop-color="#FFB8B4" stop-opacity="0"/>
    </linearGradient>
    <linearGradient id="aW" x1="282.049" x2="341.689" y1="97.613" y2="139.74" gradientUnits="userSpaceOnUse">
      <stop stop-color="#D24544"/>
      <stop offset="1" stop-color="#FB9190" stop-opacity=".24"/>
    </linearGradient>
    <linearGradient id="aX" x1="264.197" x2="247.495" y1="59.172" y2="145.42" gradientUnits="userSpaceOnUse">
      <stop stop-color="#F79998"/>
      <stop offset="1" stop-color="#F88887"/>
    </linearGradient>
    <linearGradient id="aY" x1="232.822" x2="208.21" y1="178.08" y2="281.74" gradientUnits="userSpaceOnUse">
      <stop stop-color="#1DAC56"/>
      <stop offset="1" stop-color="#0E9F48" stop-opacity="0"/>
    </linearGradient>
    <linearGradient id="ba" x1="206.788" x2="90.348" y1="203.166" y2="167.666" gradientUnits="userSpaceOnUse">
      <stop stop-color="#20C375"/>
      <stop offset="1" stop-color="#A4FFC8" stop-opacity=".37"/>
    </linearGradient>
    <linearGradient id="bb" x1="236.474" x2="236.474" y1="59.172" y2="181.759" gradientUnits="userSpaceOnUse">
      <stop stop-color="#DBA10E"/>
      <stop offset="1" stop-color="#F9C594"/>
    </linearGradient>
    <linearGradient id="bd" x1="217.201" x2="144.308" y1="107.553" y2="104.24" gradientUnits="userSpaceOnUse">
      <stop stop-color="#FFDE2E"/>
      <stop offset="1" stop-color="#fff" stop-opacity="0"/>
    </linearGradient>
    <clipPath id="m" transform="translate(-49.713 -204.305)">
      <path d="M350.955 244.478 323.23 260.65l-.079-.047-.227.132 27.219 15.877-27.049 15.777.542.317-27.724 16.171-27.724-16.171 27.047-15.779-.114-.066-27.183 15.856 27.568 16.08-27.725 16.173-27.644-16.127-.079.047-.08-.047-27.645 16.127-27.645-16.127-.079.047-.08-.047-27.644 16.127-27.645-16.127-.079.047-27.645-16.127-.079.047-27.724-16.173 27.565-16.08-27.565-16.079 27.725-16.173 27.643 16.126.08-.046 27.645 16.126.079-.046 27.645 16.125.079-.045.078.045 27.646-16.125 27.645 16.126.08-.046.078.045 27.645-16.125.079.046 27.647-16.126.079.046 27.644-16.126 27.725 16.173Z"/>
    </clipPath>
    <clipPath id="O" transform="translate(-89.35 -213.423)">
      <path d="M137.247 222.044c0 2.552-3.621 4.621-8.086 4.621-4.466 0-8.087-2.069-8.087-4.621 0-2.552 3.621-4.621 8.087-4.621 4.465 0 8.086 2.069 8.086 4.621Zm27.724 16.08c0 2.552-3.621 4.621-8.087 4.621-4.466 0-8.086-2.069-8.086-4.621 0-2.552 3.62-4.621 8.086-4.621s8.087 2.069 8.087 4.621Zm55.448 0c0 2.552-3.62 4.621-8.086 4.621s-8.086-2.069-8.086-4.621c0-2.552 3.62-4.621 8.086-4.621s8.086 2.069 8.086 4.621Zm-27.724 16.08c0 2.552-3.62 4.621-8.086 4.621s-8.086-2.069-8.086-4.621c0-2.552 3.62-4.62 8.086-4.62s8.086 2.068 8.086 4.62Zm110.897-32.16c0 2.552-3.621 4.621-8.087 4.621-4.465 0-8.086-2.069-8.086-4.621 0-2.552 3.621-4.621 8.086-4.621 4.466 0 8.087 2.069 8.087 4.621Zm-27.725 16.08c0 2.552-3.62 4.621-8.086 4.621s-8.086-2.069-8.086-4.621c0-2.552 3.62-4.621 8.086-4.621s8.086 2.069 8.086 4.621Zm-27.724 16.08c0 2.552-3.62 4.621-8.086 4.621s-8.086-2.069-8.086-4.621c0-2.552 3.62-4.62 8.086-4.62s8.086 2.068 8.086 4.62Zm-27.724 16.08c0 2.552-3.62 4.621-8.086 4.621s-8.086-2.069-8.086-4.621c0-2.552 3.62-4.62 8.086-4.62s8.086 2.068 8.086 4.62Zm-110.896-32.16c0 2.552-3.62 4.621-8.086 4.621s-8.086-2.069-8.086-4.621c0-2.552 3.62-4.621 8.086-4.621s8.086 2.069 8.086 4.621Zm221.793 0c0 2.552-3.62 4.621-8.086 4.621s-8.086-2.069-8.086-4.621c0-2.552 3.62-4.621 8.086-4.621s8.086 2.069 8.086 4.621Zm-194.069 16.08c0 2.552-3.621 4.621-8.086 4.621-4.466 0-8.087-2.069-8.087-4.621 0-2.552 3.621-4.62 8.087-4.62 4.465 0 8.086 2.068 8.086 4.62Zm-27.724 16.08c0 2.552-3.62 4.621-8.086 4.621s-8.086-2.069-8.086-4.621c0-2.552 3.62-4.621 8.086-4.621s8.086 2.069 8.086 4.621Zm55.448 0c0 2.552-3.62 4.621-8.086 4.621s-8.086-2.069-8.086-4.621c0-2.552 3.62-4.621 8.086-4.621s8.086 2.069 8.086 4.621Zm-27.724 16.08c0 2.552-3.621 4.621-8.086 4.621-4.466 0-8.087-2.069-8.087-4.621 0-2.552 3.621-4.621 8.087-4.621 4.465 0 8.086 2.069 8.086 4.621Zm55.448 0c0 2.552-3.62 4.621-8.086 4.621s-8.086-2.069-8.086-4.621c0-2.552 3.62-4.621 8.086-4.621s8.086 2.069 8.086 4.621Zm-27.724 16.08c0 2.552-3.62 4.621-8.086 4.621s-8.086-2.069-8.086-4.621c0-2.552 3.62-4.621 8.086-4.621s8.086 2.069 8.086 4.621Zm138.621-48.24c0 2.552-3.62 4.621-8.086 4.621s-8.086-2.069-8.086-4.621c0-2.552 3.62-4.62 8.086-4.62s8.086 2.068 8.086 4.62Zm-27.725 16.08c0 2.552-3.62 4.621-8.086 4.621s-8.086-2.069-8.086-4.621c0-2.552 3.62-4.621 8.086-4.621s8.086 2.069 8.086 4.621Zm-27.723 16.08c0 2.552-3.62 4.621-8.086 4.621s-8.086-2.069-8.086-4.621c0-2.552 3.62-4.621 8.086-4.621s8.086 2.069 8.086 4.621Zm-27.725 16.08c0 2.552-3.62 4.621-8.086 4.621s-8.086-2.069-8.086-4.621c0-2.552 3.62-4.621 8.086-4.621s8.086 2.069 8.086 4.621Zm110.897-32.16c0 2.552-3.62 4.621-8.086 4.621s-8.086-2.069-8.086-4.621c0-2.552 3.62-4.621 8.086-4.621s8.086 2.069 8.086 4.621Zm-27.724 16.08c0 2.552-3.62 4.621-8.086 4.621s-8.086-2.069-8.086-4.621c0-2.552 3.62-4.621 8.086-4.621s8.086 2.069 8.086 4.621Zm-27.725 16.08c0 2.552-3.62 4.621-8.086 4.621s-8.086-2.069-8.086-4.621c0-2.552 3.62-4.621 8.086-4.621s8.086 2.069 8.086 4.621Z"/>
    </clipPath>
    <clipPath id="U" transform="translate(-186.06 -17.479)">
      <path d="m295.507 135.199-27.724 16.172v26.523l-27.723 16.172v-26.568l27.723-16.173v-.046l-27.723 16.172v-26.569l27.723-16.173v.093l27.724-16.173v26.57Zm-27.724-10.535-27.723 16.171v-26.568l27.723-16.173v26.57Zm.001-26.616L240.06 114.22V87.652l27.724-16.173v26.57Z"/>
    </clipPath>
    <clipPath id="Y" transform="translate(-97.439 -131.245)">
      <path d="M156.887 151.417v26.523l27.724 16.173v26.568l-27.724-16.172v.046l27.724 16.173v26.568l-27.724-16.171v.091l-27.724-16.172v.092l-27.725-16.172v-26.569l27.725 16.173v-.047l-27.725-16.172V145.78l27.725 16.173v-.093l27.724 16.173v-.047l-27.724-16.172v-26.569l27.724 16.172Zm-27.724 37.058 27.724 16.173v-.047l-27.724-16.172v.046Z"/>
    </clipPath>
    <clipPath id="ab" transform="translate(-95.162 -37.479)">
      <path d="M156.887 124.802v-.093l27.723 16.173v26.569l-27.723-16.172v.046l27.723 16.173v26.568l-27.723-16.172v-26.523l-27.725-16.172v-26.57l27.725 16.173Zm27.723-10.535v26.568l-27.723-16.171v-26.57l27.723 16.173Zm0-26.615v26.568l-27.723-16.172V71.48l27.723 16.173Z"/>
    </clipPath>
    <clipPath id="an" transform="translate(-87.714 -191.999)">
      <path d="m388.955 232.172-27.724 16.172-.079-.047-.227.132 27.219 15.877-27.049 15.777.542.316-27.725 16.172-27.724-16.172 27.047-15.779-.114-.066-27.182 15.857 27.567 16.08-27.724 16.173-27.645-16.127-.078.047-.08-.047-27.645 16.127-27.646-16.127-.078.047-.08-.047-27.643 16.127-27.646-16.127-.079.047-27.644-16.127-.08.047-27.724-16.173 27.565-16.08-27.565-16.079 27.724-16.173 27.644 16.126.08-.046 27.646 16.126.079-.046 27.644 16.125.079-.045.078.045 27.646-16.125 27.645 16.126.08-.046.078.045 27.645-16.125.079.046 27.647-16.126.078.046 27.645-16.126 27.724 16.173Z"/>
    </clipPath>
    <clipPath id="aP" transform="translate(-127.353 -201.117)">
      <path d="M175.249 209.737c0 2.552-3.621 4.621-8.086 4.621-4.466 0-8.087-2.069-8.087-4.621 0-2.552 3.621-4.62 8.087-4.62 4.465 0 8.086 2.068 8.086 4.62Zm27.723 16.08c0 2.552-3.62 4.621-8.086 4.621s-8.086-2.069-8.086-4.621c0-2.551 3.62-4.62 8.086-4.62s8.086 2.069 8.086 4.62Zm55.449 0c0 2.552-3.62 4.621-8.086 4.621s-8.086-2.069-8.086-4.621c0-2.551 3.62-4.62 8.086-4.62s8.086 2.069 8.086 4.62Zm-27.724 16.081c0 2.551-3.62 4.62-8.086 4.62s-8.086-2.069-8.086-4.62c0-2.552 3.62-4.621 8.086-4.621s8.086 2.069 8.086 4.621Zm110.897-32.161c0 2.552-3.621 4.621-8.087 4.621-4.465 0-8.086-2.069-8.086-4.621 0-2.552 3.621-4.62 8.086-4.62 4.466 0 8.087 2.068 8.087 4.62Zm-27.725 16.08c0 2.552-3.62 4.621-8.086 4.621s-8.086-2.069-8.086-4.621c0-2.551 3.62-4.62 8.086-4.62s8.086 2.069 8.086 4.62Zm-27.724 16.081c0 2.551-3.62 4.62-8.086 4.62s-8.086-2.069-8.086-4.62c0-2.552 3.62-4.621 8.086-4.621s8.086 2.069 8.086 4.621Zm-27.724 16.08c0 2.552-3.62 4.62-8.086 4.62s-8.086-2.068-8.086-4.62 3.62-4.621 8.086-4.621 8.086 2.069 8.086 4.621Zm-110.896-32.16c0 2.551-3.62 4.62-8.086 4.62s-8.086-2.069-8.086-4.62c0-2.552 3.62-4.621 8.086-4.621s8.086 2.069 8.086 4.621Zm221.793 0c0 2.551-3.62 4.62-8.086 4.62s-8.086-2.069-8.086-4.62c0-2.552 3.62-4.621 8.086-4.621s8.086 2.069 8.086 4.621Zm-194.069 16.08c0 2.551-3.621 4.62-8.086 4.62-4.466 0-8.087-2.069-8.087-4.62 0-2.552 3.621-4.621 8.087-4.621 4.465 0 8.086 2.069 8.086 4.621Zm-27.724 16.079c0 2.552-3.62 4.621-8.086 4.621s-8.086-2.069-8.086-4.621c0-2.551 3.62-4.62 8.086-4.62s8.086 2.069 8.086 4.62Zm55.448 0c0 2.552-3.62 4.621-8.086 4.621s-8.086-2.069-8.086-4.621c0-2.551 3.62-4.62 8.086-4.62s8.086 2.069 8.086 4.62Zm-27.724 16.08c0 2.552-3.621 4.621-8.086 4.621-4.466 0-8.087-2.069-8.087-4.621 0-2.551 3.621-4.62 8.087-4.62 4.465 0 8.086 2.069 8.086 4.62Zm55.448 0c0 2.552-3.62 4.621-8.086 4.621s-8.086-2.069-8.086-4.621c0-2.551 3.62-4.62 8.086-4.62s8.086 2.069 8.086 4.62Zm-27.724 16.08c0 2.552-3.62 4.621-8.086 4.621s-8.086-2.069-8.086-4.621c0-2.551 3.62-4.62 8.086-4.62s8.086 2.069 8.086 4.62Zm138.621-48.239c0 2.551-3.62 4.62-8.086 4.62s-8.086-2.069-8.086-4.62c0-2.552 3.62-4.621 8.086-4.621s8.086 2.069 8.086 4.621Zm-27.725 16.079c0 2.552-3.62 4.621-8.086 4.621s-8.086-2.069-8.086-4.621c0-2.551 3.62-4.62 8.086-4.62s8.086 2.069 8.086 4.62Zm-27.723 16.08c0 2.552-3.62 4.621-8.086 4.621s-8.086-2.069-8.086-4.621c0-2.551 3.62-4.62 8.086-4.62s8.086 2.069 8.086 4.62Zm-27.725 16.08c0 2.552-3.62 4.621-8.086 4.621s-8.086-2.069-8.086-4.621c0-2.551 3.62-4.62 8.086-4.62s8.086 2.069 8.086 4.62Zm110.897-32.16c0 2.552-3.62 4.621-8.086 4.621s-8.086-2.069-8.086-4.621c0-2.551 3.62-4.62 8.086-4.62s8.086 2.069 8.086 4.62Zm-27.724 16.08c0 2.552-3.62 4.621-8.086 4.621s-8.086-2.069-8.086-4.621c0-2.551 3.62-4.62 8.086-4.62s8.086 2.069 8.086 4.62Zm-27.725 16.08c0 2.552-3.62 4.621-8.086 4.621s-8.086-2.069-8.086-4.621c0-2.551 3.62-4.62 8.086-4.62s8.086 2.069 8.086 4.62Z"/>
    </clipPath>
    <clipPath id="aV" transform="translate(-224.06 -5.172)">
      <path d="m333.507 122.892-27.723 16.171v26.524l-27.724 16.172v-26.568l27.723-16.173v-.046l-27.723 16.172v-26.568l27.724-16.173v.092l27.723-16.172v26.569Zm-27.723-10.535-27.724 16.172V101.96l27.724-16.172v26.569Zm0-26.615-27.724 16.172V75.345l27.724-16.173v26.57Z"/>
    </clipPath>
    <clipPath id="aZ" transform="translate(-135.438 -118.938)">
      <path d="M194.886 139.111v26.522l27.724 16.173v26.569l-27.724-16.172v.046l27.724 16.172v26.569l-27.724-16.172v.092l-27.724-16.172v.092l-27.724-16.172v-26.57l27.724 16.173v-.047l-27.724-16.172v-26.569l27.724 16.173v-.093l27.724 16.173v-.047l-27.724-16.172v-26.569l27.724 16.173Zm-27.724 37.057 27.724 16.173v-.047l-27.724-16.171v.045Z"/>
    </clipPath>
    <clipPath id="bc" transform="translate(-133.162 -25.172)">
      <path d="M194.887 112.496v-.093l27.723 16.173v26.568l-27.723-16.172v.046l27.723 16.173v26.568l-27.723-16.172v-26.523l-27.725-16.172v-26.57l27.725 16.174Zm27.723-10.536v26.569l-27.723-16.172v-26.57l27.723 16.173Zm0-26.615v26.569l-27.723-16.172v-26.57l27.723 16.173Z"/>
    </clipPath>
    <clipPath id="a">
      <rect width="500" height="500" x=".714" fill="#fff" rx="20"/>
    </clipPath>
    <radialGradient id="n" cx="0" cy="0" r="1" gradientTransform="matrix(0 105.922 -303.793 0 212.334 276.638)" gradientUnits="userSpaceOnUse">
      <stop stop-color="#71C3FF"/>
      <stop offset="1" stop-color="#71C3FF" stop-opacity="0"/>
    </radialGradient>
    <radialGradient id="o" cx="0" cy="0" r="1" gradientTransform="matrix(.00056 53.3554 -183.456 .00192 212.333 244.478)" gradientUnits="userSpaceOnUse">
      <stop stop-color="#5BA7DF"/>
      <stop offset="1" stop-color="#83CAFE"/>
    </radialGradient>
    <radialGradient id="ao" cx="0" cy="0" r="1" gradientTransform="scale(303.792 105.922) rotate(90 -.836 1.66)" gradientUnits="userSpaceOnUse">
      <stop stop-color="#71C3FF"/>
      <stop offset="1" stop-color="#71C3FF" stop-opacity="0"/>
    </radialGradient>
    <radialGradient id="ap" cx="0" cy="0" r="1" gradientTransform="matrix(.00056 53.3554 -183.456 .00192 250.333 232.171)" gradientUnits="userSpaceOnUse">
      <stop stop-color="#5BA7DF"/>
      <stop offset="1" stop-color="#83CAFE"/>
    </radialGradient>
    <filter id="b" width="465.243" height="590.693" x="-20.287" y="-38.693" color-interpolation-filters="sRGB" filterUnits="userSpaceOnUse">
      <feFlood flood-opacity="0" result="BackgroundImageFix"/>
      <feBlend in="SourceGraphic" in2="BackgroundImageFix" result="shape"/>
      <feGaussianBlur result="effect1_foregroundBlur_369_5374" stdDeviation="47"/>
    </filter>
    <filter id="Q" width="319.227" height="215.093" x="47.988" y="123.546" color-interpolation-filters="sRGB" filterUnits="userSpaceOnUse">
      <feFlood flood-opacity="0" result="BackgroundImageFix"/>
      <feBlend in="SourceGraphic" in2="BackgroundImageFix" result="shape"/>
      <feGaussianBlur result="effect1_foregroundBlur_369_5374" stdDeviation="32"/>
    </filter>
    <filter id="aR" width="277" height="196" x="107.062" y="121" color-interpolation-filters="sRGB" filterUnits="userSpaceOnUse">
      <feFlood flood-opacity="0" result="BackgroundImageFix"/>
      <feBlend in="SourceGraphic" in2="BackgroundImageFix" result="shape"/>
      <feGaussianBlur result="effect1_foregroundBlur_369_5374" stdDeviation="32"/>
    </filter>
  </defs>
</svg>
