<svg xmlns="http://www.w3.org/2000/svg" width="501" height="500" fill="none" viewBox="0 0 501 500">
  <g clip-path="url(#a)">
    <g clip-path="url(#b)" filter="url(#c)" opacity=".5">
      <path fill="#5555F9" d="M90 250.521h.604l-.293.183-.311-.183Zm232.552 0-.311.183-.293-.183h.604Zm-232.241.184.293.182H90l.311-.182Zm232.241.182h-.604l.293-.182.311.182Z"/>
      <path fill="url(#d)" d="M206.276 181.075 90 250.54l116.276 69.96V181.075Z"/>
      <path fill="url(#e)" d="M206.276 181.075 90 250.54l116.276 69.96V181.075Z"/>
      <path fill="url(#f)" d="m206.275 181.075 116.276 69.465-1.317 3.96L206.275 321V181.075Z"/>
      <path fill="url(#g)" d="m206.275 181.075 116.276 69.465-1.317 3.96L206.275 321V181.075Z"/>
      <path fill="url(#h)" d="m206.275 320.352 116.276-69.812V384l-116.276 74.165V320.352Z"/>
      <path fill="url(#i)" d="m206.275 320.352 116.276-69.812V384l-116.276 74.165V320.352Z"/>
      <path fill="url(#j)" d="m206.275 320.352 14.201 26.373 114.958-69.887-12.883-26.298-116.276 69.812Z"/>
      <path fill="url(#k)" d="M206.276 320.352 90 250.54V384l116.276 74.165V320.352Z"/>
      <path fill="url(#l)" d="M206.276 320.352 90 250.54V384l116.276 74.165V320.352Z"/>
      <path fill="url(#m)" d="m206.276 320.352-14.201 26.373-114.958-69.887L90 250.54l116.276 69.812Z"/>
      <path fill="url(#n)" d="m112.285 223.128 93.59 53.499V80l-93.59 143.128Z"/>
      <path fill="url(#o)" d="m112.285 223.128 93.59 53.499V80l-93.59 143.128Z"/>
      <path fill="url(#p)" d="m299.309 223.128-93.434 53.499V80l93.434 143.128Z"/>
      <path fill="url(#q)" d="m299.309 223.128-93.434 53.499V80l93.434 143.128Z"/>
      <path fill="url(#r)" fill-opacity=".6" d="m299.309 223.128-93.434 53.499V80l93.434 143.128Z"/>
      <path fill="url(#s)" fill-opacity=".4" d="M343.285 325.902c0 75.709-61.34 137.098-136.991 137.098-75.65 0-137.009-61.389-137.009-137.098 0-26.006 8.447-54.671 21-75.402l5.5 3.5 110.491 65.931 114.427-69.391c14.256 21.628 22.564 47.524 22.564 75.38l.018-.018Z"/>
    </g>
    <g clip-path="url(#t)">
      <path fill="#5555F9" d="M134 223.521h.604l-.293.183-.311-.183Zm232.552 0-.311.183-.293-.183h.604Zm-232.241.184.293.182H134l.311-.182Zm232.241.182h-.604l.293-.182.311.182Z"/>
      <path fill="url(#u)" d="M250.276 154.075 134 223.54l116.276 69.96V154.075Z"/>
      <path fill="url(#v)" d="M250.276 154.075 134 223.54l116.276 69.96V154.075Z"/>
      <path fill="url(#w)" d="m250.275 154.075 116.276 69.465-1.317 3.96L250.275 294V154.075Z"/>
      <path fill="url(#x)" d="m250.275 154.075 116.276 69.465-1.317 3.96L250.275 294V154.075Z"/>
      <path fill="url(#y)" d="m250.275 293.352 116.276-69.812V357l-116.276 74.165V293.352Z"/>
      <path fill="url(#z)" d="m250.275 293.352 116.276-69.812V357l-116.276 74.165V293.352Z"/>
      <path fill="url(#A)" d="m250.275 293.352 14.201 26.373 114.958-69.887-12.883-26.298-116.276 69.812Z"/>
      <path fill="url(#B)" d="M250.276 293.352 134 223.54V357l116.276 74.165V293.352Z"/>
      <path fill="url(#C)" d="M250.276 293.352 134 223.54V357l116.276 74.165V293.352Z"/>
      <path fill="url(#D)" d="m250.276 293.352-14.201 26.373-114.958-69.887L134 223.54l116.276 69.812Z"/>
      <path fill="url(#E)" d="m156.285 196.128 93.59 53.499V53l-93.59 143.128Z"/>
      <path fill="url(#F)" d="m156.285 196.128 93.59 53.499V53l-93.59 143.128Z"/>
      <path fill="url(#G)" d="m343.309 196.128-93.434 53.499V53l93.434 143.128Z"/>
      <path fill="url(#H)" d="m343.309 196.128-93.434 53.499V53l93.434 143.128Z"/>
      <path fill="url(#I)" fill-opacity=".6" d="m343.309 196.128-93.434 53.499V53l93.434 143.128Z"/>
      <path fill="url(#J)" fill-opacity=".3" d="M387.285 298.902c0 75.709-61.34 137.098-136.991 137.098-75.65 0-137.009-61.389-137.009-137.098 0-26.006 8.447-54.671 21-75.402l5.5 3.5 110.491 65.931 114.427-69.391c14.256 21.628 22.564 47.524 22.564 75.38l.018-.018Z"/>
    </g>
  </g>
  <defs>
    <radialGradient id="e" cx="0" cy="0" r="1" gradientTransform="matrix(-123.0009 -120.9993 213.21236 -216.73935 185.285 328)" gradientUnits="userSpaceOnUse">
      <stop stop-color="#0029FF"/>
      <stop offset="1" stop-color="#012AFF" stop-opacity="0"/>
    </radialGradient>
    <radialGradient id="g" cx="0" cy="0" r="1" gradientTransform="matrix(65.50017 -164.50023 361.94398 144.1177 241.784 331.5)" gradientUnits="userSpaceOnUse">
      <stop stop-color="#1E47FF"/>
      <stop offset="1" stop-color="#012AFF" stop-opacity="0"/>
    </radialGradient>
    <radialGradient id="h" cx="0" cy="0" r="1" gradientTransform="rotate(46.943 -262.99 369.827) scale(177.232 295.643)" gradientUnits="userSpaceOnUse">
      <stop stop-color="#0797FF"/>
      <stop offset=".474" stop-color="#51DEFD"/>
      <stop offset=".953" stop-color="#51DEFD" stop-opacity="0"/>
    </radialGradient>
    <radialGradient id="i" cx="0" cy="0" r="1" gradientTransform="matrix(120.00049 119.49888 -93.35127 93.74312 178.284 313.997)" gradientUnits="userSpaceOnUse">
      <stop stop-color="#0029FF"/>
      <stop offset="1" stop-color="#012AFF" stop-opacity="0"/>
    </radialGradient>
    <radialGradient id="l" cx="0" cy="0" r="1" gradientTransform="rotate(124.919 24.48 170.485) scale(129.275 100.988)" gradientUnits="userSpaceOnUse">
      <stop stop-color="#0029FF"/>
      <stop offset="1" stop-color="#012AFF" stop-opacity="0"/>
    </radialGradient>
    <radialGradient id="n" cx="0" cy="0" r="1" gradientTransform="matrix(-106.38818 43.67202 -109.6105 -267.01904 205.663 178.039)" gradientUnits="userSpaceOnUse">
      <stop stop-color="#00A3FF"/>
      <stop offset=".944" stop-color="#00A3FF" stop-opacity=".29"/>
    </radialGradient>
    <radialGradient id="o" cx="0" cy="0" r="1" gradientTransform="matrix(25.9801 131.39925 -243.07924 48.06133 164.407 102.483)" gradientUnits="userSpaceOnUse">
      <stop stop-color="#FF7272"/>
      <stop offset=".18" stop-color="#FF72A7"/>
      <stop offset="1" stop-color="#7A51FF" stop-opacity="0"/>
    </radialGradient>
    <radialGradient id="p" cx="0" cy="0" r="1" gradientTransform="rotate(84.193 49.546 151.627) scale(325.923 134.229)" gradientUnits="userSpaceOnUse">
      <stop stop-color="#FFBFAB"/>
      <stop offset=".365" stop-color="#FF67A8" stop-opacity=".87"/>
      <stop offset=".724" stop-color="#6BAFFF" stop-opacity="0"/>
    </radialGradient>
    <radialGradient id="q" cx="0" cy="0" r="1" gradientTransform="matrix(63.45134 -76.44107 115.93229 96.23175 205.874 245.872)" gradientUnits="userSpaceOnUse">
      <stop stop-color="#2238FF"/>
      <stop offset="1" stop-color="#0047FF" stop-opacity="0"/>
    </radialGradient>
    <radialGradient id="s" cx="0" cy="0" r="1" gradientTransform="matrix(-239.49899 -180.50165 188.41685 -250.00129 343.285 595)" gradientUnits="userSpaceOnUse">
      <stop offset=".119" stop-color="#0386FF" stop-opacity="0"/>
      <stop offset=".74" stop-color="#0085FF" stop-opacity=".56"/>
      <stop offset="1" stop-color="#0085FF"/>
    </radialGradient>
    <radialGradient id="v" cx="0" cy="0" r="1" gradientTransform="matrix(-123.0009 -120.9993 213.21236 -216.73935 229.285 301)" gradientUnits="userSpaceOnUse">
      <stop stop-color="#0029FF"/>
      <stop offset="1" stop-color="#012AFF" stop-opacity="0"/>
    </radialGradient>
    <radialGradient id="x" cx="0" cy="0" r="1" gradientTransform="matrix(65.50017 -164.50023 361.94398 144.1177 285.784 304.5)" gradientUnits="userSpaceOnUse">
      <stop stop-color="#1E47FF"/>
      <stop offset="1" stop-color="#012AFF" stop-opacity="0"/>
    </radialGradient>
    <radialGradient id="y" cx="0" cy="0" r="1" gradientTransform="rotate(46.943 -209.9 406.992) scale(177.232 295.643)" gradientUnits="userSpaceOnUse">
      <stop stop-color="#0797FF"/>
      <stop offset=".474" stop-color="#33DAFF"/>
      <stop offset=".953" stop-color="#51DEFD" stop-opacity="0"/>
    </radialGradient>
    <radialGradient id="z" cx="0" cy="0" r="1" gradientTransform="matrix(120.00049 119.49888 -93.35127 93.74312 222.283 286.997)" gradientUnits="userSpaceOnUse">
      <stop stop-color="#0029FF"/>
      <stop offset="1" stop-color="#012AFF" stop-opacity="0"/>
    </radialGradient>
    <radialGradient id="C" cx="0" cy="0" r="1" gradientTransform="rotate(124.919 53.52 168.457) scale(129.275 100.988)" gradientUnits="userSpaceOnUse">
      <stop stop-color="#0029FF"/>
      <stop offset="1" stop-color="#012AFF" stop-opacity="0"/>
    </radialGradient>
    <radialGradient id="E" cx="0" cy="0" r="1" gradientTransform="matrix(-106.38818 43.67202 -109.6105 -267.01904 249.663 151.039)" gradientUnits="userSpaceOnUse">
      <stop stop-color="#00A3FF"/>
      <stop offset=".944" stop-color="#00A3FF" stop-opacity=".29"/>
    </radialGradient>
    <radialGradient id="F" cx="0" cy="0" r="1" gradientTransform="matrix(25.9801 131.39925 -243.07924 48.06133 208.407 75.483)" gradientUnits="userSpaceOnUse">
      <stop stop-color="#FF7272"/>
      <stop offset=".18" stop-color="#FF72A7"/>
      <stop offset="1" stop-color="#7A51FF" stop-opacity="0"/>
    </radialGradient>
    <radialGradient id="G" cx="0" cy="0" r="1" gradientTransform="rotate(84.193 86.489 162.478) scale(325.923 134.229)" gradientUnits="userSpaceOnUse">
      <stop stop-color="#FFBFAB"/>
      <stop offset=".365" stop-color="#FF67A8" stop-opacity=".87"/>
      <stop offset=".724" stop-color="#6BAFFF" stop-opacity="0"/>
    </radialGradient>
    <radialGradient id="H" cx="0" cy="0" r="1" gradientTransform="matrix(63.45134 -76.44107 115.93229 96.23175 249.874 218.872)" gradientUnits="userSpaceOnUse">
      <stop stop-color="#2238FF"/>
      <stop offset="1" stop-color="#0047FF" stop-opacity="0"/>
    </radialGradient>
    <radialGradient id="J" cx="0" cy="0" r="1" gradientTransform="matrix(-239.49899 -180.50165 188.41685 -250.00129 387.285 568)" gradientUnits="userSpaceOnUse">
      <stop offset=".119" stop-color="#0386FF" stop-opacity="0"/>
      <stop offset=".74" stop-color="#0085FF" stop-opacity=".56"/>
      <stop offset="1" stop-color="#0085FF"/>
    </radialGradient>
    <linearGradient id="d" x1="81.009" x2="213.102" y1="270.853" y2="315.02" gradientUnits="userSpaceOnUse">
      <stop stop-color="#5BBAFF"/>
      <stop offset="1" stop-color="#51DEFD"/>
    </linearGradient>
    <linearGradient id="f" x1="197.284" x2="329.377" y1="270.853" y2="315.02" gradientUnits="userSpaceOnUse">
      <stop stop-color="#5BBAFF"/>
      <stop offset="1" stop-color="#51DEFD"/>
    </linearGradient>
    <linearGradient id="j" x1="227.784" x2="329.476" y1="370" y2="372.774" gradientUnits="userSpaceOnUse">
      <stop offset=".193" stop-color="#2DB3FF"/>
      <stop offset="1" stop-color="#B7F2FF"/>
    </linearGradient>
    <linearGradient id="k" x1="81.009" x2="213.156" y1="340.5" y2="384.596" gradientUnits="userSpaceOnUse">
      <stop stop-color="#5BBAFF"/>
      <stop offset="1" stop-color="#51DEFD"/>
    </linearGradient>
    <linearGradient id="m" x1="98.626" x2="200.318" y1="370" y2="372.774" gradientUnits="userSpaceOnUse">
      <stop offset=".193" stop-color="#2DB3FF"/>
      <stop offset="1" stop-color="#B7F2FF"/>
    </linearGradient>
    <linearGradient id="r" x1="299.802" x2="238.35" y1="252.867" y2="224.889" gradientUnits="userSpaceOnUse">
      <stop stop-color="#29EDFE"/>
      <stop offset="1" stop-color="#29EDFE" stop-opacity="0"/>
    </linearGradient>
    <linearGradient id="u" x1="125.009" x2="257.102" y1="243.853" y2="288.02" gradientUnits="userSpaceOnUse">
      <stop stop-color="#5BBAFF"/>
      <stop offset="1" stop-color="#51DEFD"/>
    </linearGradient>
    <linearGradient id="w" x1="241.284" x2="373.377" y1="243.853" y2="288.02" gradientUnits="userSpaceOnUse">
      <stop stop-color="#5BBAFF"/>
      <stop offset="1" stop-color="#51DEFD"/>
    </linearGradient>
    <linearGradient id="A" x1="271.784" x2="373.476" y1="343" y2="345.774" gradientUnits="userSpaceOnUse">
      <stop offset=".193" stop-color="#2DB3FF"/>
      <stop offset="1" stop-color="#B7F2FF"/>
    </linearGradient>
    <linearGradient id="B" x1="125.009" x2="257.156" y1="313.5" y2="357.596" gradientUnits="userSpaceOnUse">
      <stop stop-color="#0094FF"/>
      <stop offset="1" stop-color="#00D1FF"/>
    </linearGradient>
    <linearGradient id="D" x1="142.626" x2="244.318" y1="343" y2="345.774" gradientUnits="userSpaceOnUse">
      <stop offset=".193" stop-color="#2DB3FF"/>
      <stop offset="1" stop-color="#B7F2FF"/>
    </linearGradient>
    <linearGradient id="I" x1="343.802" x2="282.35" y1="225.867" y2="197.889" gradientUnits="userSpaceOnUse">
      <stop stop-color="#29EDFE"/>
      <stop offset="1" stop-color="#29EDFE" stop-opacity="0"/>
    </linearGradient>
    <clipPath id="a">
      <rect width="500" height="500" x=".285" fill="#fff" rx="20"/>
    </clipPath>
    <clipPath id="b">
      <path fill="#fff" d="M69.285 80h274v383h-274z"/>
    </clipPath>
    <clipPath id="t">
      <path fill="#fff" d="M113.285 53h274v383h-274z"/>
    </clipPath>
    <filter id="c" width="382" height="491" x="15.285" y="26" color-interpolation-filters="sRGB" filterUnits="userSpaceOnUse">
      <feFlood flood-opacity="0" result="BackgroundImageFix"/>
      <feBlend in="SourceGraphic" in2="BackgroundImageFix" result="shape"/>
      <feGaussianBlur result="effect1_foregroundBlur_369_5578" stdDeviation="27"/>
    </filter>
  </defs>
</svg>
