<svg width="501" height="500" viewBox="0 0 501 500" fill="none" xmlns="http://www.w3.org/2000/svg">
<g clip-path="url(#clip0_369_5578)">
<g opacity="0.5" filter="url(#filter0_f_369_5578)">
<path d="M90 250.521H90.6039L90.3111 250.704L90 250.521Z" fill="#5555F9"/>
<path d="M322.552 250.521L322.241 250.704L321.948 250.521H322.552Z" fill="#5555F9"/>
<path d="M90.3111 250.705L90.6039 250.887H90L90.3111 250.705Z" fill="#5555F9"/>
<path d="M322.552 250.887H321.948L322.241 250.705L322.552 250.887Z" fill="#5555F9"/>
<path d="M206.276 181.075L90 250.54L206.276 320.5V181.075Z" fill="url(#paint0_linear_369_5578)"/>
<path d="M206.276 181.075L90 250.54L206.276 320.5V181.075Z" fill="url(#paint1_radial_369_5578)"/>
<path d="M206.275 181.075L322.551 250.54L321.234 254.5L206.275 321L206.275 181.075Z" fill="url(#paint2_linear_369_5578)"/>
<path d="M206.275 181.075L322.551 250.54L321.234 254.5L206.275 321L206.275 181.075Z" fill="url(#paint3_radial_369_5578)"/>
<path d="M206.275 320.352L322.551 250.54V384L206.275 458.165V320.352Z" fill="url(#paint4_radial_369_5578)"/>
<path d="M206.275 320.352L322.551 250.54V384L206.275 458.165V320.352Z" fill="url(#paint5_radial_369_5578)"/>
<path d="M206.275 320.352L220.476 346.725L335.434 276.838L322.551 250.54L206.275 320.352Z" fill="url(#paint6_linear_369_5578)"/>
<path d="M206.276 320.352L90 250.54V384L206.276 458.165V320.352Z" fill="url(#paint7_linear_369_5578)"/>
<path d="M206.276 320.352L90 250.54V384L206.276 458.165V320.352Z" fill="url(#paint8_radial_369_5578)"/>
<path d="M206.276 320.352L192.075 346.725L77.1172 276.838L90.0001 250.54L206.276 320.352Z" fill="url(#paint9_linear_369_5578)"/>
<path d="M112.285 223.128L205.875 276.627V80L112.285 223.128Z" fill="url(#paint10_radial_369_5578)"/>
<path d="M112.285 223.128L205.875 276.627V80L112.285 223.128Z" fill="url(#paint11_radial_369_5578)"/>
<path d="M299.309 223.128L205.875 276.627V80L299.309 223.128Z" fill="url(#paint12_radial_369_5578)"/>
<path d="M299.309 223.128L205.875 276.627V80L299.309 223.128Z" fill="url(#paint13_radial_369_5578)"/>
<path d="M299.309 223.128L205.875 276.627V80L299.309 223.128Z" fill="url(#paint14_linear_369_5578)" fill-opacity="0.6"/>
<path d="M343.285 325.902C343.285 401.611 281.945 463 206.294 463C130.644 463 69.2852 401.611 69.2852 325.902C69.2852 299.896 77.7316 271.231 90.2852 250.5L95.7852 254L206.276 319.931L320.703 250.54C334.959 272.168 343.267 298.064 343.267 325.92L343.285 325.902Z" fill="url(#paint15_radial_369_5578)" fill-opacity="0.4"/>
</g>
<path d="M134 223.521H134.604L134.311 223.704L134 223.521Z" fill="#5555F9"/>
<path d="M366.552 223.521L366.241 223.704L365.948 223.521H366.552Z" fill="#5555F9"/>
<path d="M134.311 223.705L134.604 223.887H134L134.311 223.705Z" fill="#5555F9"/>
<path d="M366.552 223.887H365.948L366.241 223.705L366.552 223.887Z" fill="#5555F9"/>
<path d="M250.276 154.075L134 223.54L250.276 293.5V154.075Z" fill="url(#paint16_linear_369_5578)"/>
<path d="M250.276 154.075L134 223.54L250.276 293.5V154.075Z" fill="url(#paint17_radial_369_5578)"/>
<path d="M250.275 154.075L366.551 223.54L365.234 227.5L250.275 294L250.275 154.075Z" fill="url(#paint18_linear_369_5578)"/>
<path d="M250.275 154.075L366.551 223.54L365.234 227.5L250.275 294L250.275 154.075Z" fill="url(#paint19_radial_369_5578)"/>
<path d="M250.275 293.352L366.551 223.54V357L250.275 431.165V293.352Z" fill="url(#paint20_radial_369_5578)"/>
<path d="M250.275 293.352L366.551 223.54V357L250.275 431.165V293.352Z" fill="url(#paint21_radial_369_5578)"/>
<path d="M250.275 293.352L264.476 319.725L379.434 249.838L366.551 223.54L250.275 293.352Z" fill="url(#paint22_linear_369_5578)"/>
<path d="M250.276 293.352L134 223.54V357L250.276 431.165V293.352Z" fill="url(#paint23_linear_369_5578)"/>
<path d="M250.276 293.352L134 223.54V357L250.276 431.165V293.352Z" fill="url(#paint24_radial_369_5578)"/>
<path d="M250.276 293.352L236.075 319.725L121.117 249.838L134 223.54L250.276 293.352Z" fill="url(#paint25_linear_369_5578)"/>
<path d="M156.285 196.128L249.875 249.627V53L156.285 196.128Z" fill="url(#paint26_radial_369_5578)"/>
<path d="M156.285 196.128L249.875 249.627V53L156.285 196.128Z" fill="url(#paint27_radial_369_5578)"/>
<path d="M343.309 196.128L249.875 249.627V53L343.309 196.128Z" fill="url(#paint28_radial_369_5578)"/>
<path d="M343.309 196.128L249.875 249.627V53L343.309 196.128Z" fill="url(#paint29_radial_369_5578)"/>
<path d="M343.309 196.128L249.875 249.627V53L343.309 196.128Z" fill="url(#paint30_linear_369_5578)" fill-opacity="0.6"/>
<path d="M387.285 298.902C387.285 374.611 325.945 436 250.294 436C174.644 436 113.285 374.611 113.285 298.902C113.285 272.896 121.732 244.231 134.285 223.5L139.785 227L250.276 292.931L364.703 223.54C378.959 245.168 387.267 271.064 387.267 298.92L387.285 298.902Z" fill="url(#paint31_radial_369_5578)" fill-opacity="0.3"/>
</g>
<defs>
<filter id="filter0_f_369_5578" x="5.28516" y="16" width="402" height="511" filterUnits="userSpaceOnUse" color-interpolation-filters="sRGB">
<feFlood flood-opacity="0" result="BackgroundImageFix"/>
<feBlend mode="normal" in="SourceGraphic" in2="BackgroundImageFix" result="shape"/>
<feGaussianBlur stdDeviation="32" result="effect1_foregroundBlur_369_5578"/>
</filter>
<linearGradient id="paint0_linear_369_5578" x1="81.009" y1="270.853" x2="213.102" y2="315.02" gradientUnits="userSpaceOnUse">
<stop stop-color="#5BBAFF"/>
<stop offset="1" stop-color="#51DEFD"/>
</linearGradient>
<radialGradient id="paint1_radial_369_5578" cx="0" cy="0" r="1" gradientUnits="userSpaceOnUse" gradientTransform="translate(185.285 328) rotate(-135.47) scale(172.54 304.032)">
<stop stop-color="#0029FF"/>
<stop offset="1" stop-color="#012AFF" stop-opacity="0"/>
</radialGradient>
<linearGradient id="paint2_linear_369_5578" x1="197.284" y1="270.853" x2="329.377" y2="315.02" gradientUnits="userSpaceOnUse">
<stop stop-color="#5BBAFF"/>
<stop offset="1" stop-color="#51DEFD"/>
</linearGradient>
<radialGradient id="paint3_radial_369_5578" cx="0" cy="0" r="1" gradientUnits="userSpaceOnUse" gradientTransform="translate(241.784 331.5) rotate(-68.2887) scale(177.061 389.581)">
<stop stop-color="#1E47FF"/>
<stop offset="1" stop-color="#012AFF" stop-opacity="0"/>
</radialGradient>
<radialGradient id="paint4_radial_369_5578" cx="0" cy="0" r="1" gradientUnits="userSpaceOnUse" gradientTransform="translate(186.784 309.5) rotate(46.9434) scale(177.232 295.643)">
<stop stop-color="#0797FF"/>
<stop offset="0.474164" stop-color="#51DEFD"/>
<stop offset="0.952923" stop-color="#51DEFD" stop-opacity="0"/>
</radialGradient>
<radialGradient id="paint5_radial_369_5578" cx="0" cy="0" r="1" gradientUnits="userSpaceOnUse" gradientTransform="translate(178.284 314) rotate(44.8804) scale(169.352 132.296)">
<stop stop-color="#0029FF"/>
<stop offset="1" stop-color="#012AFF" stop-opacity="0"/>
</radialGradient>
<linearGradient id="paint6_linear_369_5578" x1="227.784" y1="370" x2="329.476" y2="372.774" gradientUnits="userSpaceOnUse">
<stop offset="0.192696" stop-color="#2DB3FF"/>
<stop offset="1" stop-color="#B7F2FF"/>
</linearGradient>
<linearGradient id="paint7_linear_369_5578" x1="81.009" y1="340.5" x2="213.156" y2="384.596" gradientUnits="userSpaceOnUse">
<stop stop-color="#5BBAFF"/>
<stop offset="1" stop-color="#51DEFD"/>
</linearGradient>
<radialGradient id="paint8_radial_369_5578" cx="0" cy="0" r="1" gradientUnits="userSpaceOnUse" gradientTransform="translate(178.285 248) rotate(124.919) scale(129.275 100.988)">
<stop stop-color="#0029FF"/>
<stop offset="1" stop-color="#012AFF" stop-opacity="0"/>
</radialGradient>
<linearGradient id="paint9_linear_369_5578" x1="98.6262" y1="370" x2="200.318" y2="372.774" gradientUnits="userSpaceOnUse">
<stop offset="0.192696" stop-color="#2DB3FF"/>
<stop offset="1" stop-color="#B7F2FF"/>
</linearGradient>
<radialGradient id="paint10_radial_369_5578" cx="0" cy="0" r="1" gradientUnits="userSpaceOnUse" gradientTransform="translate(205.663 178.039) rotate(157.682) scale(115.003 288.641)">
<stop stop-color="#00A3FF"/>
<stop offset="0.943718" stop-color="#00A3FF" stop-opacity="0.29"/>
</radialGradient>
<radialGradient id="paint11_radial_369_5578" cx="0" cy="0" r="1" gradientUnits="userSpaceOnUse" gradientTransform="translate(164.407 102.483) rotate(78.8158) scale(133.943 247.785)">
<stop stop-color="#FF7272"/>
<stop offset="0.179674" stop-color="#FF72A7"/>
<stop offset="1" stop-color="#7A51FF" stop-opacity="0"/>
</radialGradient>
<radialGradient id="paint12_radial_369_5578" cx="0" cy="0" r="1" gradientUnits="userSpaceOnUse" gradientTransform="translate(195.383 86.9946) rotate(84.1933) scale(325.923 134.229)">
<stop stop-color="#FFBFAB"/>
<stop offset="0.364808" stop-color="#FF67A8" stop-opacity="0.87"/>
<stop offset="0.723967" stop-color="#6BAFFF" stop-opacity="0"/>
</radialGradient>
<radialGradient id="paint13_radial_369_5578" cx="0" cy="0" r="1" gradientUnits="userSpaceOnUse" gradientTransform="translate(205.875 245.872) rotate(-50.3051) scale(99.3444 150.668)">
<stop stop-color="#2238FF"/>
<stop offset="1" stop-color="#0047FF" stop-opacity="0"/>
</radialGradient>
<linearGradient id="paint14_linear_369_5578" x1="299.802" y1="252.867" x2="238.35" y2="224.889" gradientUnits="userSpaceOnUse">
<stop stop-color="#29EDFE"/>
<stop offset="1" stop-color="#29EDFE" stop-opacity="0"/>
</linearGradient>
<radialGradient id="paint15_radial_369_5578" cx="0" cy="0" r="1" gradientUnits="userSpaceOnUse" gradientTransform="translate(343.285 595) rotate(-142.996) scale(299.901 313.052)">
<stop offset="0.118725" stop-color="#0386FF" stop-opacity="0"/>
<stop offset="0.740474" stop-color="#0085FF" stop-opacity="0.56"/>
<stop offset="1" stop-color="#0085FF"/>
</radialGradient>
<linearGradient id="paint16_linear_369_5578" x1="125.009" y1="243.853" x2="257.102" y2="288.02" gradientUnits="userSpaceOnUse">
<stop stop-color="#5BBAFF"/>
<stop offset="1" stop-color="#51DEFD"/>
</linearGradient>
<radialGradient id="paint17_radial_369_5578" cx="0" cy="0" r="1" gradientUnits="userSpaceOnUse" gradientTransform="translate(229.285 301) rotate(-135.47) scale(172.54 304.032)">
<stop stop-color="#0029FF"/>
<stop offset="1" stop-color="#012AFF" stop-opacity="0"/>
</radialGradient>
<linearGradient id="paint18_linear_369_5578" x1="241.284" y1="243.853" x2="373.377" y2="288.02" gradientUnits="userSpaceOnUse">
<stop stop-color="#5BBAFF"/>
<stop offset="1" stop-color="#51DEFD"/>
</linearGradient>
<radialGradient id="paint19_radial_369_5578" cx="0" cy="0" r="1" gradientUnits="userSpaceOnUse" gradientTransform="translate(285.784 304.5) rotate(-68.2887) scale(177.061 389.581)">
<stop stop-color="#1E47FF"/>
<stop offset="1" stop-color="#012AFF" stop-opacity="0"/>
</radialGradient>
<radialGradient id="paint20_radial_369_5578" cx="0" cy="0" r="1" gradientUnits="userSpaceOnUse" gradientTransform="translate(230.784 282.5) rotate(46.9434) scale(177.232 295.643)">
<stop stop-color="#0797FF"/>
<stop offset="0.474164" stop-color="#33DAFF"/>
<stop offset="0.952923" stop-color="#51DEFD" stop-opacity="0"/>
</radialGradient>
<radialGradient id="paint21_radial_369_5578" cx="0" cy="0" r="1" gradientUnits="userSpaceOnUse" gradientTransform="translate(222.284 287) rotate(44.8804) scale(169.352 132.296)">
<stop stop-color="#0029FF"/>
<stop offset="1" stop-color="#012AFF" stop-opacity="0"/>
</radialGradient>
<linearGradient id="paint22_linear_369_5578" x1="271.784" y1="343" x2="373.476" y2="345.774" gradientUnits="userSpaceOnUse">
<stop offset="0.192696" stop-color="#2DB3FF"/>
<stop offset="1" stop-color="#B7F2FF"/>
</linearGradient>
<linearGradient id="paint23_linear_369_5578" x1="125.009" y1="313.5" x2="257.156" y2="357.596" gradientUnits="userSpaceOnUse">
<stop stop-color="#0094FF"/>
<stop offset="1" stop-color="#00D1FF"/>
</linearGradient>
<radialGradient id="paint24_radial_369_5578" cx="0" cy="0" r="1" gradientUnits="userSpaceOnUse" gradientTransform="translate(222.285 221) rotate(124.919) scale(129.275 100.988)">
<stop stop-color="#0029FF"/>
<stop offset="1" stop-color="#012AFF" stop-opacity="0"/>
</radialGradient>
<linearGradient id="paint25_linear_369_5578" x1="142.626" y1="343" x2="244.318" y2="345.774" gradientUnits="userSpaceOnUse">
<stop offset="0.192696" stop-color="#2DB3FF"/>
<stop offset="1" stop-color="#B7F2FF"/>
</linearGradient>
<radialGradient id="paint26_radial_369_5578" cx="0" cy="0" r="1" gradientUnits="userSpaceOnUse" gradientTransform="translate(249.663 151.039) rotate(157.682) scale(115.003 288.641)">
<stop stop-color="#00A3FF"/>
<stop offset="0.943718" stop-color="#00A3FF" stop-opacity="0.29"/>
</radialGradient>
<radialGradient id="paint27_radial_369_5578" cx="0" cy="0" r="1" gradientUnits="userSpaceOnUse" gradientTransform="translate(208.407 75.4827) rotate(78.8158) scale(133.943 247.785)">
<stop stop-color="#FF7272"/>
<stop offset="0.179674" stop-color="#FF72A7"/>
<stop offset="1" stop-color="#7A51FF" stop-opacity="0"/>
</radialGradient>
<radialGradient id="paint28_radial_369_5578" cx="0" cy="0" r="1" gradientUnits="userSpaceOnUse" gradientTransform="translate(239.383 59.9946) rotate(84.1933) scale(325.923 134.229)">
<stop stop-color="#FFBFAB"/>
<stop offset="0.364808" stop-color="#FF67A8" stop-opacity="0.87"/>
<stop offset="0.723967" stop-color="#6BAFFF" stop-opacity="0"/>
</radialGradient>
<radialGradient id="paint29_radial_369_5578" cx="0" cy="0" r="1" gradientUnits="userSpaceOnUse" gradientTransform="translate(249.875 218.872) rotate(-50.3051) scale(99.3444 150.668)">
<stop stop-color="#2238FF"/>
<stop offset="1" stop-color="#0047FF" stop-opacity="0"/>
</radialGradient>
<linearGradient id="paint30_linear_369_5578" x1="343.802" y1="225.867" x2="282.35" y2="197.889" gradientUnits="userSpaceOnUse">
<stop stop-color="#29EDFE"/>
<stop offset="1" stop-color="#29EDFE" stop-opacity="0"/>
</linearGradient>
<radialGradient id="paint31_radial_369_5578" cx="0" cy="0" r="1" gradientUnits="userSpaceOnUse" gradientTransform="translate(387.285 568) rotate(-142.996) scale(299.901 313.052)">
<stop offset="0.118725" stop-color="#0386FF" stop-opacity="0"/>
<stop offset="0.740474" stop-color="#0085FF" stop-opacity="0.56"/>
<stop offset="1" stop-color="#0085FF"/>
</radialGradient>
<clipPath id="clip0_369_5578">
<rect x="0.285156" width="500" height="500" rx="20" fill="white"/>
</clipPath>
</defs>
</svg>
