<svg xmlns="http://www.w3.org/2000/svg" width="24" height="24" fill="none" viewBox="0 0 24 24">
  <path fill="#000" d="M17.038 15.756a.2.2 0 0 1 0 .284l-4.928 4.928a.3.3 0 0 1-.424 0l-4.93-4.928a.2.2 0 0 1 0-.284l.709-.707a.2.2 0 0 1 .282 0l3.432 3.432V3.585c0-.11.09-.2.2-.2h1c.11 0 .2.09.2.2v14.933l3.469-3.469a.2.2 0 0 1 .282 0l.708.707Z"/>
  <path fill="#000" d="M6.757 16.04a.2.2 0 0 1 0-.283l.707-.707a.2.2 0 0 1 .283 0l4.15 4.15 4.15-4.15a.2.2 0 0 1 .284 0l.707.707a.2.2 0 0 1 0 .283l-4.928 4.928a.3.3 0 0 1-.425 0L6.757 16.04Z"/>
</svg>
