<svg xmlns="http://www.w3.org/2000/svg" width="24" height="24" fill="none" viewBox="0 0 24 24">
  <path fill="#000" d="M12.883 9.664a.25.25 0 0 1 .25.242l-.004.058-.173.844-.001.002-.867 4.529a.25.25 0 0 0 .416.231l2.077-1.907.002-.002.017-.016a.05.05 0 0 1 .068-.001l.02.017.86.777.02.019.002.001a.05.05 0 0 1 .003.072l-.02.02-.003.002-1.1 1.1c-.292.292-.557.544-.793.752l.095.109-.096-.11-.006.005a7.574 7.574 0 0 1-.651.495l-.014.01c-.197.12-.392.21-.583.268l-.054.015a1.97 1.97 0 0 1-.536.073c-.406 0-.734-.092-.974-.287l-.098-.088c-.242-.252-.36-.58-.36-.972l.007-.19a2.35 2.35 0 0 1 .022-.188l.071-.44.001-.006v-.001l.75-3.87.034-.178H8.873a.051.051 0 0 1-.05-.059l.203-1.26.004-.025a.05.05 0 0 1 .049-.04h3.804Zm-.288-2.976a1.135 1.135 0 0 1 1.019 1.128l-.006.117a1.135 1.135 0 0 1-2.264-.117l.006-.116a1.135 1.135 0 0 1 1.13-1.018l.115.005Z"/>
  <path fill="#000" d="M19.945 12A7.946 7.946 0 1 0 12 19.946v1.4l-.481-.013a9.347 9.347 0 0 1-8.853-8.852L2.654 12A9.346 9.346 0 0 1 12 2.654l.48.011A9.346 9.346 0 0 1 21.346 12l-.012.48A9.346 9.346 0 0 1 12 21.346v-1.4A7.946 7.946 0 0 0 19.945 12Z"/>
</svg>
