<svg xmlns="http://www.w3.org/2000/svg" width="24" height="24" fill="none" viewBox="0 0 24 24">
  <path fill="#000" d="M7.462 15.413a2.3 2.3 0 0 0 2.3 2.3h7.242l-2.161-2.16.99-.99 3.85 3.85-.495.494-3.355 3.356-.99-.99 2.16-2.16h-7.24a3.7 3.7 0 0 1-3.7-3.7v-2.637h1.4v2.637Zm-.019-4.875h3.966v1.309H6.04v-8.88h1.403v7.571Zm7.984-7.758c.566 0 1.073.127 1.522.38.45.25.802.597 1.06 1.042l.09.17c.197.4.296.852.296 1.358 0 .423-.058.777-.171 1.06a2.409 2.409 0 0 1-.353.604l-.161.184a9.518 9.518 0 0 1-.383.387l-.468.428-2.288 2.026-.085.073 3.909.027v1.315h-6.08v-1.237l3.825-3.408.21-.2a2.26 2.26 0 0 0 .425-.57l.079-.18a1.5 1.5 0 0 0 .101-.528c0-.307-.067-.581-.2-.822a1.505 1.505 0 0 0-.387-.464l-.167-.116a1.518 1.518 0 0 0-.806-.213c-.28 0-.533.057-.76.173l-.094.052c-.183.11-.337.247-.46.411l-.113.175c-.13.23-.191.478-.192.742H12.33c.007-.57.137-1.066.39-1.49L12.825 4c.254-.36.583-.647.986-.857v-.001c.465-.241 1.004-.362 1.617-.362Z"/>
</svg>
