<svg xmlns="http://www.w3.org/2000/svg" width="24" height="24" fill="none" viewBox="0 0 24 24">
  <path fill="#000" d="M14.674 17.2c.11 0 .2.09.2.2v1a.2.2 0 0 1-.2.2H7.333a.2.2 0 0 1-.2-.2v-1c0-.11.09-.2.2-.2h7.34Zm5.46-5.9c.11 0 .2.09.2.2v1a.2.2 0 0 1-.2.2H7.333a.2.2 0 0 1-.2-.2v-1c0-.11.09-.2.2-.2h12.8Zm0-5.9c.11 0 .2.09.2.2v1a.2.2 0 0 1-.2.2H7.333a.2.2 0 0 1-.2-.2v-1c0-.11.09-.2.2-.2h12.8ZM5.92 18.4a.2.2 0 0 1-.2.2H4.682a.2.2 0 0 1-.2-.2v-1c0-.11.09-.2.2-.2h1.04c.11 0 .2.09.2.2v1Zm0-5.9a.2.2 0 0 1-.2.2H4.682a.2.2 0 0 1-.2-.2v-1c0-.11.09-.2.2-.2h1.04c.11 0 .2.09.2.2v1Zm0-5.9a.2.2 0 0 1-.2.2H4.682a.2.2 0 0 1-.2-.2v-1a.2.2 0 0 1 .2-.2h1.04a.2.2 0 0 1 .2.2v1Z"/>
</svg>
