<svg xmlns="http://www.w3.org/2000/svg" width="80" height="80" fill="none" viewBox="0 0 80 80">
  <path fill="#000" d="M40.008 62.601v-7.697c-.772 0-1.561-.067-2.333-.185l-1.208 7.596a20.92 20.92 0 0 0 3.54.286Zm3.523-.27a21.982 21.982 0 0 0 3.457-.824l-2.366-7.327c-.738.236-1.51.421-2.282.539l1.191 7.613Zm-10.504-.824 2.366-7.31a15.027 15.027 0 0 1-2.165-.893l-3.49 6.855c1.057.522 2.165.977 3.289 1.348Zm17.233-1.348a23.041 23.041 0 0 0 3.02-1.853l-4.53-6.215c-.62.455-1.292.876-1.997 1.213l3.507 6.855Zm-23.543-1.87 4.531-6.214c-.62-.455-1.225-.96-1.779-1.516l-5.437 5.44c.84.825 1.746 1.6 2.685 2.29Zm29.232-2.256.05-.05a21.733 21.733 0 0 0 2.3-2.679l-6.21-4.53a15.22 15.22 0 0 1-1.51 1.768l-.084.084 2.618 2.476 2.836 2.93Zm-34.215-2.746 6.208-4.53a15.028 15.028 0 0 1-1.225-1.988l-6.846 3.486a21.589 21.589 0 0 0 1.863 3.032Zm38.41-3.015c.537-1.044.99-2.155 1.36-3.284l-7.317-2.358a14.201 14.201 0 0 1-.89 2.156l6.847 3.486Zm-41.632-3.284 7.316-2.375a14.923 14.923 0 0 1-.537-2.274l-7.601 1.196a24.57 24.57 0 0 0 .822 3.453Zm43.813-3.436a22.63 22.63 0 0 0 .286-3.537h-7.686c0 .775-.067 1.566-.184 2.341l7.584 1.196Zm-37.219-3.554c0-.775.068-1.566.185-2.341l-7.601-1.196a24.924 24.924 0 0 0-.286 3.537h7.703Zm29.635-2.324 7.601-1.196a22.448 22.448 0 0 0-.822-3.453l-7.316 2.358c.235.758.42 1.516.537 2.29Zm-28.913-2.29c.235-.742.537-1.466.89-2.157l-6.847-3.486a22.526 22.526 0 0 0-1.36 3.284l7.317 2.358Zm27.486-2.14 6.864-3.486a21.589 21.589 0 0 0-1.863-3.032l-6.226 4.53c.453.624.873 1.298 1.225 1.988ZM27.942 31.24a15.31 15.31 0 0 1 1.527-1.785l.017-.017-5.437-5.44-.017.016a21.887 21.887 0 0 0-2.298 2.695l6.208 4.53Zm22.637-1.752 1.645-1.667 3.775-3.773-.017-.017a24.585 24.585 0 0 0-2.668-2.29l-4.53 6.215c.62.454 1.225.96 1.761 1.515l.034.017Zm-19.314-1.566c.62-.455 1.292-.86 1.997-1.213l-3.49-6.855a23.051 23.051 0 0 0-3.021 1.853l4.514 6.215Zm15.538-1.196 3.508-6.855a23.147 23.147 0 0 0-3.273-1.364l-2.382 7.31a18.12 18.12 0 0 1 2.148.909Zm-11.377-.91c.739-.235 1.51-.42 2.283-.538l-1.192-7.597a22.426 22.426 0 0 0-3.457.826l2.366 7.31Zm6.93-.538 1.209-7.597a22.44 22.44 0 0 0-3.524-.286v7.697c.772 0 1.56.068 2.316.186Z"/>
  <path fill="#000" d="M40.009 55.259v-7.731a7.497 7.497 0 0 1-1.93-.253l-2.014 7.462c1.292.337 2.618.522 3.944.522Zm3.943-.522a14.598 14.598 0 0 0 3.675-1.516l-3.893-6.687a7.5 7.5 0 0 1-1.779.741l1.997 7.462ZM32.407 53.22l3.893-6.687a7.998 7.998 0 0 1-1.544-1.179l-.067-.067-2.45 2.577-3.02 2.914.05.05c.94.927 1.997 1.735 3.138 2.392Zm18.358-2.392a15.005 15.005 0 0 0 2.416-3.133l-6.729-3.873a7.383 7.383 0 0 1-1.191 1.532l5.504 5.474Zm-23.929-3.15 6.729-3.856a7.44 7.44 0 0 1-.738-1.769l-7.501 1.987a15.292 15.292 0 0 0 1.51 3.639Zm27.872-3.62c.336-1.28.52-2.594.52-3.908H47.46c0 .64-.084 1.297-.252 1.92l7.501 1.987Zm-22.116-3.925c0-.64.084-1.297.252-1.92l-7.518-1.988a15.424 15.424 0 0 0-.52 3.908h7.786Zm14.599-1.903 7.517-1.988a15.129 15.129 0 0 0-1.51-3.655l-6.729 3.857c.302.573.554 1.163.722 1.786Zm-13.61-1.786a7.203 7.203 0 0 1 1.175-1.516l.017-.016-2.785-2.763-2.668-2.745-.05.05a15.483 15.483 0 0 0-2.417 3.117l6.729 3.873Zm11.68-1.516 2.752-2.745 2.819-2.661-.067-.067a15.57 15.57 0 0 0-3.138-2.409l-3.893 6.687c.554.32 1.057.707 1.527 1.162v.033Zm-8.96-1.195a7.496 7.496 0 0 1 1.778-.741l-1.98-7.462a14.593 14.593 0 0 0-3.675 1.516l3.876 6.687Zm5.637-.725 2.014-7.461a15.425 15.425 0 0 0-3.926-.522v7.73c.637 0 1.292.085 1.912.253Z"/>
  <g filter="url(#a)" opacity=".5">
    <path fill="#000" d="M41.61 60.205v-7.698c-.771 0-1.56-.067-2.332-.185l-1.208 7.596a20.93 20.93 0 0 0 3.54.287Zm3.524-.27a21.959 21.959 0 0 0 3.457-.825l-2.366-7.327c-.738.236-1.51.421-2.282.54l1.191 7.612ZM34.63 59.11l2.366-7.31a15.031 15.031 0 0 1-2.165-.893l-3.49 6.855c1.057.523 2.165.977 3.289 1.348Zm17.233-1.348a23.046 23.046 0 0 0 3.02-1.852l-4.53-6.215a12.64 12.64 0 0 1-1.997 1.212l3.507 6.855Zm-23.543-1.87 4.531-6.214c-.62-.455-1.225-.96-1.779-1.516l-5.436 5.44a24.77 24.77 0 0 0 2.684 2.29Zm29.232-2.256.05-.05a21.733 21.733 0 0 0 2.3-2.679l-6.21-4.53c-.453.623-.973 1.23-1.51 1.768l-.084.084 2.618 2.476 2.836 2.93ZM23.337 50.89l6.208-4.531a15.028 15.028 0 0 1-1.225-1.988l-6.846 3.487a21.58 21.58 0 0 0 1.863 3.032Zm38.41-3.015c.537-1.045.99-2.156 1.36-3.285l-7.317-2.358a14.215 14.215 0 0 1-.89 2.156l6.847 3.487ZM20.115 44.59l7.316-2.375a14.925 14.925 0 0 1-.537-2.273l-7.601 1.196c.184 1.162.47 2.324.822 3.452Zm43.813-3.436a22.63 22.63 0 0 0 .286-3.537h-7.686c0 .775-.067 1.567-.184 2.341l7.584 1.196ZM26.71 37.602c0-.775.067-1.567.184-2.342l-7.601-1.195a24.924 24.924 0 0 0-.286 3.537h7.702Zm29.634-2.325 7.601-1.196a22.445 22.445 0 0 0-.822-3.453l-7.316 2.358c.235.758.42 1.516.537 2.291Zm-28.913-2.29a14.2 14.2 0 0 1 .89-2.156l-6.847-3.487a22.538 22.538 0 0 0-1.36 3.284l7.317 2.358Zm27.486-2.14 6.864-3.486a21.58 21.58 0 0 0-1.863-3.032l-6.226 4.531c.453.623.873 1.297 1.225 1.988Zm-25.372-2.004a15.32 15.32 0 0 1 1.527-1.785l.017-.017-5.437-5.44-.016.017a21.887 21.887 0 0 0-2.3 2.694l6.21 4.531Zm22.637-1.752 1.645-1.667 3.775-3.773-.017-.017a24.585 24.585 0 0 0-2.668-2.29l-4.53 6.215c.62.454 1.225.96 1.762 1.516l.033.017Zm-19.314-1.566c.62-.455 1.292-.859 1.997-1.213l-3.49-6.855a23.035 23.035 0 0 0-3.021 1.853l4.514 6.215Zm15.539-1.196 3.507-6.855a23.148 23.148 0 0 0-3.273-1.364l-2.382 7.31c.721.252 1.443.556 2.148.91Zm-11.377-.91c.738-.235 1.51-.42 2.282-.538l-1.192-7.596a22.437 22.437 0 0 0-3.457.825l2.367 7.31Zm6.93-.538 1.208-7.596a22.429 22.429 0 0 0-3.524-.287v7.697c.772 0 1.56.068 2.316.186Z"/>
    <path fill="#000" d="M41.612 52.862v-7.73a7.491 7.491 0 0 1-1.93-.253l-2.014 7.461a15.65 15.65 0 0 0 3.944.522Zm3.943-.522a14.593 14.593 0 0 0 3.675-1.516l-3.893-6.686a7.495 7.495 0 0 1-1.779.74l1.997 7.462ZM34.01 50.824l3.893-6.686a7.984 7.984 0 0 1-1.544-1.18l-.067-.067-2.45 2.577-3.02 2.914.05.05a15.49 15.49 0 0 0 3.138 2.392Zm18.358-2.392a15.002 15.002 0 0 0 2.416-3.132l-6.729-3.874a7.382 7.382 0 0 1-1.191 1.532l5.504 5.474Zm-23.929-3.15 6.729-3.856a7.437 7.437 0 0 1-.738-1.769l-7.501 1.988a15.294 15.294 0 0 0 1.51 3.638Zm27.872-3.62c.336-1.28.52-2.594.52-3.908h-7.769c0 .64-.084 1.297-.252 1.92l7.501 1.988Zm-22.116-3.925c0-.64.084-1.297.252-1.92l-7.518-1.987a15.428 15.428 0 0 0-.52 3.907h7.786Zm14.599-1.903 7.517-1.988a15.128 15.128 0 0 0-1.51-3.654l-6.729 3.857a8.65 8.65 0 0 1 .722 1.785Zm-13.61-1.785a7.203 7.203 0 0 1 1.175-1.516l.017-.017-2.785-2.762-2.668-2.746-.05.05a15.487 15.487 0 0 0-2.417 3.117l6.729 3.874Zm11.68-1.516 2.752-2.746 2.82-2.66-.068-.068a15.567 15.567 0 0 0-3.138-2.409l-3.893 6.687c.554.32 1.057.707 1.527 1.162v.034Zm-8.96-1.196a7.5 7.5 0 0 1 1.778-.741l-1.98-7.462a14.597 14.597 0 0 0-3.675 1.516l3.876 6.687Zm5.637-.724 2.014-7.462a15.42 15.42 0 0 0-3.926-.522v7.731a7.37 7.37 0 0 1 1.913.253Z"/>
  </g>
  <defs>
    <filter id="a" width="73.207" height="73.206" x="5.007" y=".998" color-interpolation-filters="sRGB" filterUnits="userSpaceOnUse">
      <feFlood flood-opacity="0" result="BackgroundImageFix"/>
      <feBlend in="SourceGraphic" in2="BackgroundImageFix" result="shape"/>
      <feGaussianBlur result="effect1_foregroundBlur_52_23777" stdDeviation="7"/>
    </filter>
  </defs>
</svg>
