<svg xmlns="http://www.w3.org/2000/svg" width="80" height="80" fill="none" viewBox="0 0 80 80">
  <path fill="#FFEEDA" d="M56.362 46.433V25.206A3.247 3.247 0 0 0 53.107 22h-22.39c-4.83.072-8.713 3.986-8.713 8.78 0 1.617.438 3.003 1.11 4.216.568 1.011 1.459 1.964 2.334 2.672.249.202.132.115.89.578 1.052.635 2.249.953 2.249.953l-.015 12.693c.03.606.088 1.184.248 1.718a5.673 5.673 0 0 0 3.46 3.827 6.969 6.969 0 0 0 2.378.476l17.88.058c3.561 0 6.451-2.86 6.451-6.397.015-2.094-1.036-3.971-2.627-5.14Z"/>
  <path fill="#EBC28E" d="M56.8 51.733c-.073 2.267-1.956 4.087-4.262 4.087l-12.304-.044a6.354 6.354 0 0 0 1.576-4.173c0-2.498-1.503-4.217-1.503-4.217h12.246c2.35 0 4.262 1.892 4.262 4.217l-.015.13Z"/>
  <path fill="#190602" d="M26.616 35.877c-1.416-1.328-2.408-3.047-2.408-5.083v-.216c.117-3.48 3.007-6.282 6.524-6.383h22.39c.584.029 1.05.433 1.05 1.025v18.744c.512.087.76.159 1.256.332.394.144.934.448.934.448V25.22a3.247 3.247 0 0 0-3.255-3.206h-22.39c-4.83.073-8.713 3.986-8.713 8.78 0 2.787 1.284 5.17 3.386 6.845.146.115.277.26.657.26.657 0 1.124-.52 1.095-1.083-.015-.477-.22-.65-.526-.939Z"/>
  <path fill="#190602" d="M52.538 45.191H34.98c-1.183.015-2.131.953-2.131 2.123v2.498c.029 1.156 1.021 2.138 2.203 2.138h1.3v-2.138h-1.3v-2.44h.716c2.218 0 3.853 2.036 3.853 4.217 0 1.934-1.78 4.404-4.758 4.202-2.642-.174-4.072-2.499-4.072-4.202v-21.17c0-.953-.789-1.733-1.752-1.733h-1.752v2.166h1.3v20.75c-.073 4.218 3.035 6.34 6.276 6.34l17.69.058c3.561 0 6.45-2.86 6.45-6.397 0-3.538-2.904-6.412-6.465-6.412Zm4.262 6.542c-.073 2.267-1.956 4.087-4.262 4.087l-12.304-.044a6.354 6.354 0 0 0 1.576-4.173c0-2.498-1.503-4.217-1.503-4.217h12.246c2.35 0 4.262 1.892 4.262 4.217l-.015.13Zm-8.99-20.491H34.57v-2.166h13.24c.597 0 1.094.476 1.094 1.083 0 .592-.482 1.083-1.095 1.083Z"/>
  <path fill="#190602" d="M47.81 41.437H34.57V39.27h13.24c.597 0 1.094.476 1.094 1.083 0 .592-.482 1.083-1.095 1.083Zm2.334-5.097H34.571v-2.167H50.13c.598 0 1.094.477 1.094 1.083.015.592-.481 1.083-1.08 1.083Z"/>
</svg>
