<svg width="200" height="84" viewBox="0 0 200 84" fill="none" xmlns="http://www.w3.org/2000/svg">
<path d="M153.083 42.7722C153.083 47.3574 150.149 50.4516 146.014 50.4516C141.879 50.4516 138.945 47.3574 138.945 42.7722C138.945 38.1871 141.879 35.0928 146.014 35.0928C150.149 35.0928 153.083 38.1871 153.083 42.7722ZM142.326 42.7722C142.326 45.7822 143.751 47.6106 146.014 47.6106C148.277 47.6106 149.702 45.7822 149.702 42.7722C149.702 39.7623 148.277 37.9339 146.014 37.9339C143.751 37.9339 142.326 39.7623 142.326 42.7722Z" fill="black"/>
<path d="M134.194 50.1423V48.0607C133.383 49.411 131.428 50.4517 128.801 50.4517C123.605 50.4517 119.749 46.2323 119.749 40.1282C119.749 33.9959 123.633 29.6357 129.025 29.6357C133.132 29.6357 135.898 31.858 137.127 35.4305L133.719 36.5838C133.132 34.1928 131.456 32.8144 129.053 32.8144C125.672 32.8144 123.325 35.7118 123.325 40.0719C123.325 44.432 125.672 47.3575 129.109 47.3575C132.014 47.3575 133.914 45.276 134.026 42.4067H128.746V39.2561H137.463V50.1423H134.194Z" fill="black"/>
<path d="M112.348 46.4289V38.2432H110.309V35.374H112.348V31.042H115.645V35.374H118.718V38.2432H115.645V45.8945C115.645 47.2166 116.399 47.3572 117.601 47.3572C118.16 47.3572 118.467 47.3292 118.97 47.2729V50.1139C118.355 50.2265 117.517 50.3108 116.651 50.3108C113.857 50.3108 112.348 49.4388 112.348 46.4289Z" fill="black"/>
<path d="M105.75 33.4057V29.9458H109.214V33.4057H105.75ZM109.159 35.3748V50.1429H105.806V35.3748H109.159Z" fill="black"/>
<path d="M89.1768 50.1429V29.9458H97.1394C101.442 29.9458 103.733 31.8305 103.733 35.2623C103.733 37.7659 102.281 39.0598 100.884 39.6224C102.979 40.2976 104.376 42.0416 104.376 44.5169C104.376 48.0614 101.778 50.1429 97.6424 50.1429H89.1768ZM92.6133 38.3003H96.8043C99.0953 38.3003 100.353 37.4002 100.353 35.628C100.353 33.8558 99.0953 32.9838 96.8043 32.9838H92.6133V38.3003ZM92.6133 41.3384V47.105H97.4469C99.7101 47.105 100.939 45.9235 100.939 44.2075C100.939 42.5198 99.7101 41.3384 97.4469 41.3384H92.6133Z" fill="black"/>
<path fill-rule="evenodd" clip-rule="evenodd" d="M77.4663 44.4345C77.4663 52.7558 62.1927 60 62.1927 60C62.1927 60 46.9189 52.7558 46.9189 44.4345C46.9189 42.2737 46.9198 40.3661 46.9206 38.5423C46.9223 34.9164 46.9238 31.6215 46.918 27.3255C56.6165 22.8876 67.7701 22.8922 77.4663 27.3352V44.4345ZM61.0003 29.944H59.0295V31.8986H57.0587V48.1895H59.0295V50.1446H61.0003V48.1895H62.9711V50.1446H64.9419V48.0016C67.4459 47.4736 68.8835 45.8567 68.8835 43.4562C68.8835 41.7788 67.7997 40.2623 65.9454 39.7798C67.583 39.2973 68.5223 37.8956 68.5223 36.3332C68.5223 34.11 67.1783 32.5511 64.9419 32.0619V29.944H62.9711V31.8986H61.0003V29.944ZM62.7423 34.4491C64.4041 34.4491 65.3674 35.2073 65.3674 36.494C65.3674 37.7808 64.4522 38.539 62.9109 38.539H60.1414V34.4491H62.7423ZM62.935 41.0206C64.7894 41.0206 65.7286 41.7788 65.7286 43.2953C65.7286 44.6739 64.5967 45.5242 62.7664 45.5242H60.1414V41.0206H62.935Z" fill="black"/>
</svg>
