<svg viewBox="0 0 140 64" fill="none" xmlns="http://www.w3.org/2000/svg">
<g clip-path="url(#clip0_3579_454)">
<path d="M58.3841 30.6739C60.9454 30.6739 62.939 29.4075 63.166 26.5662H60.7992C60.4589 27.995 59.5512 28.5795 58.3841 28.5795C56.3902 28.5795 55.5959 26.9558 55.5959 24.8289C55.5959 22.7019 56.4065 21.0945 58.3841 21.0945C59.5674 21.0945 60.4589 21.679 60.7992 23.0916H63.166C62.939 20.2664 60.9454 19 58.3841 19C55.1744 19 53.0996 21.1594 53.0996 24.8289C53.0996 28.5145 55.1744 30.6739 58.3841 30.6739Z" fill="black"/>
<path d="M80.6596 30.6739C83.934 30.6739 86.0736 28.3034 86.0736 24.8289C86.0736 21.338 83.934 19 80.6596 19C77.3852 19 75.2454 21.338 75.2454 24.8289C75.2454 28.3034 77.3852 30.6739 80.6596 30.6739ZM80.6596 28.5795C78.7954 28.5795 77.7416 27.0857 77.7416 24.8289C77.7416 22.5558 78.7954 21.0945 80.6596 21.0945C82.5235 21.0945 83.5773 22.5558 83.5773 24.8289C83.5773 27.0857 82.5235 28.5795 80.6596 28.5795Z" fill="black"/>
<path d="M102.51 30.674C105.266 30.674 107.178 29.229 107.178 26.1928V19.1462H104.731V26.0141C104.731 27.7027 103.904 28.5633 102.51 28.5633C101.116 28.5633 100.273 27.7027 100.273 26.0141V19.1462H97.8254V26.1928C97.8254 29.229 99.7219 30.674 102.51 30.674Z" fill="black"/>
<path d="M113.365 30.6739C115.943 30.6739 117.969 29.6186 117.969 27.1669C117.969 25.4458 116.947 24.4229 114.289 23.9196L112.765 23.6274C111.744 23.4488 111.468 22.8967 111.468 22.3772C111.468 21.679 111.955 21.0133 113.252 21.0133C114.354 21.0133 115.197 21.4679 115.164 22.4908H117.661C117.661 20.169 115.813 19 113.219 19C110.674 19 108.924 20.1041 108.924 22.2797C108.924 24.3418 110.431 25.1536 112.214 25.5108L113.851 25.8193C114.873 26.0141 115.391 26.4038 115.391 27.1831C115.391 28.1086 114.694 28.6606 113.381 28.6606C111.825 28.6606 111.177 27.8163 111.128 26.7934H108.615C108.615 29.2939 110.464 30.6739 113.365 30.6739Z" fill="black"/>
<path d="M71.7137 19.2601V23.8598H69.3264V25.8403H71.7137V30.4401H74.1598V19.2601H71.7137Z" fill="black"/>
<path d="M67.2459 23.8598H67.2464V25.8403H67.2459V30.4401H64.7998V19.2601H67.2459V23.8598Z" fill="black"/>
<path fill-rule="evenodd" clip-rule="evenodd" d="M83.3346 44.74H75.4241V33.56H83.1726V35.6363H77.8556V38.1438H82.6861V40.0124H77.8556V42.6637H83.3346V44.74Z" fill="black"/>
<path d="M58.5139 44.9739C61.7883 44.9739 63.9278 42.6034 63.9278 39.1288C63.9278 35.638 61.7883 33.2999 58.5139 33.2999C55.2394 33.2999 53.0996 35.638 53.0996 39.1288C53.0996 42.6034 55.2394 44.9739 58.5139 44.9739ZM58.5139 42.8794C56.6497 42.8794 55.5959 41.3856 55.5959 39.1288C55.5959 36.8557 56.6497 35.3944 58.5139 35.3944C60.3778 35.3944 61.4316 36.8557 61.4316 39.1288C61.4316 41.3856 60.3778 42.8794 58.5139 42.8794Z" fill="black"/>
<path fill-rule="evenodd" clip-rule="evenodd" d="M21.9065 42.1066L24.808 44.9949L27.7094 42.1066L24.808 39.2183L21.9065 42.1066Z" fill="black"/>
<path fill-rule="evenodd" clip-rule="evenodd" d="M48.0198 21.8883L45.1182 19L42.2168 21.8883L45.1182 24.7767L48.0198 21.8883Z" fill="black"/>
<path fill-rule="evenodd" clip-rule="evenodd" d="M37.8643 34.8855L34.9628 37.7739L32.0614 34.8855L29.1599 31.9972L32.0614 29.1089L34.9628 26.2205L37.8643 29.1089L40.7657 31.9972L37.8643 34.8855ZM46.5687 31.9971L43.6672 29.1088L40.7657 26.2205L37.8642 23.3321L34.9628 20.4438L32.0613 23.3321L29.1599 26.2205L26.2584 29.1088L23.3569 31.9971L26.2584 34.8854L29.1599 37.7738L32.0613 40.6622L34.9628 43.5505L37.8642 40.6622L40.7657 37.7738L43.6672 34.8854L46.5687 31.9971Z" fill="black"/>
<path fill-rule="evenodd" clip-rule="evenodd" d="M42.2139 42.1116L45.1153 44.9999L48.0167 42.1116L45.1153 39.2233L42.2139 42.1116Z" fill="black"/>
<path fill-rule="evenodd" clip-rule="evenodd" d="M27.7026 21.8904L24.8011 19.0021L21.8997 21.8904L24.8011 24.7787L27.7026 21.8904Z" fill="black"/>
<path d="M67.1757 33.56H64.7998V44.74H67.1754V37.5369H67.1757V33.56Z" fill="black"/>
<path d="M69.2556 40.8866L71.5941 44.74H74.1597V33.56H71.7841V40.9068H71.7365L69.2556 36.8257V40.8866Z" fill="black"/>
<path d="M94.1659 26.4038L96.5485 30.5116H94.1495L92.0308 26.7935V24.6178C93.3565 24.6163 93.9389 23.951 93.9389 22.9455C93.9389 21.9226 93.3552 21.2569 92.0261 21.2569H89.9513V23.7933H89.9508V27.0091H89.9513V30.5116H87.5198V19.1462H92.1072C95.1222 19.1462 96.4352 20.7211 96.4352 22.9455C96.4352 24.5691 95.7381 25.8356 94.1659 26.4038Z" fill="black"/>
</g>
<defs>
<clipPath id="clip0_3579_454">
<rect width="96.2" height="26" fill="white" transform="translate(21.8999 19)"/>
</clipPath>
</defs>
</svg>
