<svg width="200" height="84" viewBox="0 0 200 84" fill="none" xmlns="http://www.w3.org/2000/svg">
<path d="M34.2334 31.9805C34.5045 32.0067 34.7758 32.0538 35.0469 32.1221C35.4953 32.2375 35.9279 32.411 36.3242 32.6367C36.7257 32.8624 37.1064 33.1613 37.4609 33.5234C37.8155 33.8856 38.1179 34.3006 38.3682 34.752L38.6289 35.2295H36.8613L36.7676 35.0977C36.5174 34.7567 36.2203 34.4682 35.8867 34.2373C35.5531 34.0064 35.2034 33.8335 34.8438 33.7285C33.9886 33.4713 33.1021 33.5237 32.3252 33.8281C31.8768 34.0013 31.4756 34.2586 31.1211 34.584C30.7718 34.9093 30.4898 35.3129 30.2812 35.7852C30.0727 36.2522 29.9688 36.7668 29.9688 37.3125C29.9688 37.8477 30.078 38.3466 30.2812 38.7979C30.4846 39.2492 30.7764 39.6485 31.1309 39.9844C31.4906 40.3255 31.9026 40.5881 32.3457 40.7666C32.7889 40.9451 33.2534 41.0397 33.7227 41.0449C34.2962 41.0344 34.8699 40.8872 35.4121 40.6143C35.9542 40.3414 36.418 39.9322 36.8037 39.4023L36.8984 39.2705H38.6865L38.4102 39.7539C38.1338 40.2314 37.8206 40.651 37.4766 41.0078C37.1324 41.3647 36.7413 41.6638 36.3242 41.9053C35.9071 42.1467 35.4796 42.325 35.0469 42.4404C34.7862 42.5087 34.5094 42.5509 34.2383 42.5771L34.2285 46.3877H36.7881V48.0781H34.2285V49.4746H37.915V51.1748H34.2285V54.1562H32.5439V42.4668C32.2677 42.4038 31.9966 42.3256 31.7256 42.2207C31.0791 41.9688 30.495 41.596 29.9893 41.1289C29.4783 40.6566 29.0713 40.0792 28.7793 39.418C28.4873 38.7567 28.3359 38.0268 28.3359 37.25C28.3359 37.0296 28.3519 36.7986 28.3779 36.5625C28.4561 35.875 28.6543 35.2345 28.9775 34.6572C29.2956 34.0851 29.7078 33.5864 30.2031 33.1875C30.6932 32.7886 31.2461 32.4785 31.8457 32.2686C32.075 32.1899 32.3153 32.1277 32.5498 32.0752V29.8281H34.2334V31.9805Z" fill="black"/>
<path fill-rule="evenodd" clip-rule="evenodd" d="M48.8955 28.332L50.2461 28.9775V54.875L48.9111 55.5254L33.5039 63L18.0957 55.5254L16.7607 54.875V28.9775L18.1113 28.332L33.5039 21L48.8955 28.332ZM18.5078 29.9854V53.8672L33.5039 61.1416L48.5 53.8672V29.9912L33.5039 22.8477L18.5078 29.9854Z" fill="black"/>
<path d="M63.2031 36.7822C65.2315 36.7822 66.4777 37.8426 67.2285 39.0498L65.7266 39.8213C65.2468 38.992 64.2824 38.3564 63.2031 38.3564C61.2219 38.3565 59.7463 39.884 59.7461 41.999C59.7461 44.1142 61.2165 45.6416 63.2031 45.6416C64.2824 45.6416 65.2468 45.0227 65.7266 44.1777L67.2285 44.9492C66.462 46.1564 65.2314 47.2168 63.2031 47.2168C60.2467 47.2168 57.9473 45.101 57.9473 41.999C57.9475 38.9025 60.2468 36.7823 63.2031 36.7822Z" fill="black"/>
<path fill-rule="evenodd" clip-rule="evenodd" d="M110.215 36.7822C113.218 36.7824 115.335 38.9866 115.335 41.999C115.335 45.0116 113.218 47.2166 110.215 47.2168C107.211 47.2168 105.094 45.0118 105.094 41.999C105.094 38.9917 107.212 36.7822 110.215 36.7822ZM110.209 38.3564C108.197 38.3566 106.893 39.9156 106.893 41.999C106.893 44.0827 108.186 45.6415 110.209 45.6416C112.232 45.6416 113.53 44.067 113.53 41.999C113.53 39.9155 112.222 38.3564 110.209 38.3564Z" fill="black"/>
<path d="M170.793 36.7822C172.821 36.7822 174.068 37.8426 174.818 39.0498L173.316 39.8213C172.837 38.9921 171.872 38.3564 170.793 38.3564C168.812 38.3565 167.342 39.8841 167.342 41.999C167.342 44.1142 168.812 45.6415 170.793 45.6416C171.872 45.6416 172.837 45.0226 173.316 44.1777L174.818 44.9492C174.052 46.1564 172.821 47.2168 170.793 47.2168C167.837 47.2167 165.537 45.1009 165.537 41.999C165.537 38.9026 167.837 36.7823 170.793 36.7822Z" fill="black"/>
<path d="M183.239 38.5088H178.135V41.123H183.135V42.6816H178.135V45.4795H183.239V47.0381H176.378V36.9502H183.239V38.5088Z" fill="black"/>
<path fill-rule="evenodd" clip-rule="evenodd" d="M73.1934 36.9502C75.1748 36.9502 76.4678 38.2523 76.4678 40.1104C76.4676 41.968 75.2948 42.8757 74.0957 43.0752L76.541 47.0332H74.5127L72.292 43.2695H70.5498V47.0332H68.793V36.9502H73.1934ZM70.5449 41.7158H72.9482C73.9389 41.7158 74.6591 41.0809 74.6592 40.1152L74.6504 39.9326C74.5676 39.0672 73.877 38.5088 72.9482 38.5088H70.5449V41.7158Z" fill="black"/>
<path d="M81.8389 41.2754L84.5713 36.9502H86.584L82.71 42.8447V47.0332H80.9521V42.8447L77.0625 36.9502H79.0752L81.8389 41.2754Z" fill="black"/>
<path fill-rule="evenodd" clip-rule="evenodd" d="M92.2256 36.9502C94.3268 36.9503 95.5 38.4046 95.5 40.1104C95.4998 41.8159 94.3162 43.2695 92.2256 43.2695H89.582V47.0332H87.8242V36.9502H92.2256ZM89.5869 41.7158H91.9912C92.9817 41.7157 93.7011 41.0808 93.7012 40.1152L93.6924 39.9326C93.6096 39.0673 92.9197 38.5089 91.9912 38.5088H89.5869V41.7158Z" fill="black"/>
<path d="M128.047 38.5088H122.942V41.123H127.942V42.6816H122.942V47.0332H121.186V36.9502H128.047V38.5088Z" fill="black"/>
<path d="M131.53 47.0332H129.773V36.9502H131.53V47.0332Z" fill="black"/>
<path d="M140.738 43.9521V36.9502H142.496V47.0332H140.796L135.571 39.8369V47.0332H133.814V36.9502H135.618L140.738 43.9521Z" fill="black"/>
<path fill-rule="evenodd" clip-rule="evenodd" d="M153.79 47.0332H151.787L151.052 45.0957H146.458L145.724 47.0332H143.727L147.657 36.9502H149.853L153.79 47.0332ZM146.948 43.543H150.552L148.75 38.7412L146.948 43.543Z" fill="black"/>
<path d="M161.955 43.9521V36.9502H163.712V47.0332H162.013L156.788 39.8369V47.0332H155.03V36.9502H156.835L161.955 43.9521Z" fill="black"/>
<path d="M104.28 38.5088H101.246V47.0332H99.4941V38.5088H96.459V36.9502H104.28V38.5088Z" fill="black"/>
</svg>
