<svg xmlns="http://www.w3.org/2000/svg" width="200" height="84" fill="none" viewBox="0 0 200 84">
  <path stroke="#000" stroke-miterlimit="10" stroke-width=".2" d="m37.543 46.688-3.137.705m3.137-.705-.192-1.41m.192 1.41.192 1.09m-.192-1.09L41 46.239m-6.594 1.154-.384-1.474m.384 1.474-2.753.897m2.753-.897.384 1.153m-.768-2.627 3.329-.64m-3.33.64-2.945.833m2.946-.833-.385-1.73m3.714 1.09-.192-1.603m.192 1.602 3.65-.32m-9.348 3.332-.576-1.538m.576 1.538.64 1.282m-.64-1.282-2.241 1.153m1.665-2.69-.513-1.795m.512 1.794-2.433 1.154m4.994-3.717 3.522-.513m-3.522.513-3.073.769m3.073-.77-.256-1.922m3.778 1.41-.128-1.858m.128 1.858 3.777-.256m-10.372 1.538-.512-1.987m.512 1.987-2.625 1.09m9.796 1.73-2.945.768m2.945-.769.256.833m-.256-.833L41 47.265m-6.21 1.281-2.497 1.026m2.497-1.026.448.897m-2.945.129.64.897m-.64-.897-2.049 1.153m3.137-8.459 3.65-.448m-3.65.449-3.329.704m3.33-.704-.257-2.115m3.906 1.666-.128-1.987m.128 1.987 3.905-.128m-10.884 1.28-.384-2.178m.384 2.178-2.753.962M41 46.238v-1.281m0 1.281v1.026m0-1.026 3.586-.256M41 44.958l-.064-1.538M41 44.958l3.714-.128m-6.723 3.78-2.753.833m2.753-.833 3.01-.576m-3.01.576.192.513m-2.945.32-2.305 1.026m2.305-1.026.448.577m-6.274-.577-.769-1.537m.769 1.537.832 1.282m-.832-1.282-1.729 1.346m.96-2.883-.704-1.859m.704 1.859-1.92 1.281m6.21 1.282-1.793 1.217m1.793-1.217.704.576m7.3-7.625v-1.73m0 1.73L41 44.894l3.714-.128m-3.778-1.346h3.906m-16.903 2.627-.64-2.114m.64 2.114L25.89 47.33l.833 1.858m1.216-3.14-2.113 1.282M41 47.265v.769m0-.77 3.394-.32m-14.15 3.781.896.961m-.896-.961-1.473 1.346m4.354-11.92 3.778-.32m-3.778.32-3.457.642m3.457-.641-.192-2.179m3.97 1.858h4.033m-4.033 0-.064-2.05m-7.171 3.012-2.881.897m2.88-.897-.255-2.307m11.524 3.204v-1.86m0 1.859 4.034.128m-17.671 2.114-.512-2.242m.512 2.242-2.177 1.282M41 48.034l.064.448M41 48.034l3.266-.385m-6.083 1.474-2.497.897m2.497-.897 2.881-.64m-2.88.64.255.192m-2.753.705-2.049 1.025m2.05-1.025.448.192m-4.995 1.474.897.577m-.897-.577-1.28 1.346m3.777-1.987-1.6 1.218m1.6-1.218.64.193m6.66-11.407V37.91m0 1.922 4.161.257M26.787 41.69l-.384-2.371m.384 2.37-2.305 1.218m16.582 5.575v.128m0-.128 3.01-.448m-3.01.448-2.433.705m2.433-.705 2.69-.512m-2.69.512.064-.512m-8.195-9.997 3.906-.192m-3.906.192-3.521.513m3.521-.513-.128-2.243m4.034 2.05 4.097.129m-4.097-.128-.064-2.115m7.81 10.317.129-1.153m-.128 1.153-.192.961m.192-.96h3.521m-3.393-1.154 3.65.064m-18.952-6.408-3.01.833m3.01-.833-.192-2.371m15.174 10.83-.128.704m.128-.705 3.393-.128m-3.073-2.05.128-1.346m-.128 1.346 3.65.128m-3.522-1.474.128-1.602m-.128 1.602 3.841.192m-21 7.177-.96-1.602m.96 1.602 1.088 1.282m-1.088-1.282-1.152 1.538m.192-3.14-1.345 1.474m1.345-1.474-.897-1.858m6.21 4.934.897.192m-.896-.192-1.089 1.346m-2.177-1.538 1.089.96m-1.089-.96-1.024 1.538m10.692-4.294-2.304.897m2.304-.897 2.625-.705m-2.625.705.192-.128m-2.496 1.025-1.857 1.026m1.857-1.026.448-.192m7.683-2.37-.192.384m.192-.385 3.201-.192m-2.497-5.64.128-1.73m-.128 1.73 3.906.321m-14.598 9.1-1.345 1.217m1.345-1.217.704-.129m5.954-13.2v-2.05m0 2.05 4.226.32m-19.336 9.1-.704-2.115m.704 2.115-1.472 1.474m.768-3.589-.64-2.307m.64 2.307-1.665 1.41m1.665-1.41-1.665 1.474m17.607 1.922 2.882-.448m-14.086 4.87 1.088.577m-1.088-.577-.832 1.474m-2.625-15.187-.256-2.435m.256 2.435-2.433 1.153m20.104 7.562-.128.128m.128-.128 3.073-.257M32.805 35.73l3.97-.064m-3.97.064-3.585.385m3.585-.385-.064-2.242m.064 2.242-3.585.449-.064-2.371m7.619 1.858 4.161.192m-4.161-.192-.064-2.178m8.387 6.6.064-1.859m-.064 1.859 3.97.448M29.22 36.115l-3.073.769m3.073-.77-.064-2.306m3.777 18.647.897-.192m-.897.192-.896 1.346m-7.555-10.894-.512-2.435m.512 2.435-1.729 1.41m15.878 4.87-2.048.833m2.048-.833.257-.512m-2.305 1.345-1.601 1.09m1.6-1.09.385-.513m-6.019 4.102 1.089.192m-1.089-.192-.64 1.474m10.628-19.225L41 33.872m-.064 1.986 4.29.513m-1.28 11.79-.192-.191m.192.192 2.88-.32m1.281-1.859.256-1.09m-.256 1.09-.32.833m.32-.833 3.33.128m-3.074-1.217.32-1.282m-.32 1.282 3.458.256m-4.034 1.666-.32.64m.32-.64 3.201.064m-16.006 4.23-1.152 1.153m1.152-1.154.576-.576m9.604-12.304.064-1.858m-.064 1.858 4.098.641m-.577 4.742.193-1.474m-.193 1.474 3.458.385m-25.994-7.113-.129-2.435m.128 2.435-2.497 1.09m23.818 9.483-.32.32m.32-.32 3.073-.064m-24.01 4.934-1.152-1.666m1.153 1.666 1.216 1.282m-1.216-1.282-.705 1.538m-.448-3.204-1.024-1.858m1.024 1.858-.832 1.666m3.201 1.282 1.28.897m-1.28-.897-.576 1.538m5.57-21.66h3.97m-3.97 0-3.585.32m3.585-.32V31.31m3.97 2.178 4.29.385m-4.29-.385.064-2.05m12.1 10.701.193-1.602m-.192 1.602 3.585.513m-28.107 6.152-.897-2.18m.897 2.18-.96 1.602m.96-1.602-.897-2.115m.513-6.216-.32-2.499m.32 2.5-1.793 1.409m6.979-8.074-3.138.64m3.138-.64V31.5m17.99 16.276-.32.064m.32-.064 2.946-.128M33.83 52.263l-.705 1.346m.705-1.346.832-.513m-2.625 2.05 1.088-.191m-1.088.192-.448 1.41m-2.561-.705 1.28.577m-1.28-.577-.449 1.538m15.175-8.074-.128-.513m.128.513 2.817-.32m-23.114-1.026-1.024 1.666m1.024-1.666-.704-2.307M41 33.872l4.226.64M41 33.873v-1.986m4.226 4.485v-1.858m0 1.858 4.098.77m-.256 3.395.192-1.666m-.192 1.666 3.713.705m-13.893 7.434-1.921.833m1.92-.834 2.241-.704m-2.24.705.192-.834m-2.113 1.666-1.409 1.026m1.409-1.026.384-.832m3.777-.705 2.498-.513m-2.498.513v-.77m5.699.641-.256-.192m.256.192 2.817-.128m-14.086 2.82-.896 1.217m.896-1.217.576-.897M26.018 34.449l.064-2.371m-.064 2.37-2.497 1.026m6.787 19.609 1.28.128m-1.28-.128-.256 1.473m-6.595-9.868-.704-2.371m.704 2.371-1.024 1.602m.32-3.973-.576-2.435m.576 2.435-1.152 1.666m2.048-8.01-.128-2.499m.128 2.5-1.856 1.345m27.467-.449.064-1.73m-.064 1.73 3.713.77m-20.232-8.331 4.034.128m-4.034-.128-3.585.192m3.585-.192.128-2.115m3.906 2.243 4.225.448m-4.225-.448.064-1.987-3.97-.256m3.906 2.243V29.45m6.85 18.007 2.626-.32m-2.625.32-.129-.769m-10.372 6.92 1.025-.64m-1.025.64-.32 1.346m18.183-8.074.449-.769m-.449.77-.448.512m.448-.513 2.753.192m-2.304-.96.384-.962m-.384.961 2.817.32m-2.433-1.28.32-1.154m-.32 1.153 2.945.385m-9.54-11.022.064-1.858m-.064 1.858 4.162.833M29.156 31.5l-3.074.577m3.074-.577.128-2.179M46.57 47.65l-.32-.513m.32.513 2.689-.192M34.662 51.75l-.512 1.218m.512-1.218.704-.96m15.174-3.397-.448.256m.448-.256 2.69.128m-1.09-3.524.321-1.346m-.32 1.346 3.073.512M41 31.886l4.29.768M41 31.886v-1.858m-9.41 25.183 1.216-.257m-1.216.257-.128 1.41m7.619-8.78-1.73.834m1.73-.834 2.049-.64m-2.05.64.129-1.153m-1.857 1.986-1.217.962m1.217-.962.32-1.217m12.421.192-.448.064m.448-.064 2.625.064m-11.588-.512 2.368-.513m-2.368.513v-1.09m11.332-3.46.32-1.41m-.32 1.41 3.137.64m-6.274-6.15.064-1.795m-.064 1.794 3.777.897m-30.924 3.845-.384-2.563m.384 2.563-1.153 1.602m4.802 10.381-1.28-1.538m1.28 1.538 1.345 1.282m-1.345-1.282-.192 1.538m-1.088-3.076-1.153-1.922m1.153 1.922-.192 1.538m2.817 1.282 1.408.897m-1.408-.897-.128 1.538m9.091-7.05-.768 1.154m.768-1.153.513-1.218m-13.254 1.987-.96-2.115m.96 2.115-.256 1.602m2.945-19.93-2.497.898m2.497-.897.192-2.307m23.37 17.942-.384-.256m.384.256h2.56m-2.56 0h.448l2.625.064-.512-.064m-5.954-.577-.257-.704m.257.704 2.625-.128M23.52 35.474l.064-2.5m-.064 2.5-1.856 1.282m6.914 19.288 1.473.512m-1.473-.512-.064 1.474m14.982-10.83 2.497-.256m-2.497.256-.128-1.025m.128 1.025 2.561-.256-.256-1.026m6.98-4.165.191-1.602m-.192 1.602 3.137.77M45.29 32.653l-.064-1.73L41 30.027m4.29 2.627 4.098 1.026m-4.098-1.026-.064-1.794m-12.357-1.666-3.585.128m3.585-.128 3.906.256m-3.906-.256.128-1.922m1.153 25.696.896-.961m-.896.96.448-1.217.768-.96m-1.216 2.178-.128 1.345m-11.59-6.023-.831-2.307m.832 2.307-.32 1.602m7.17-20.57-3.009.449m3.01-.449.256-2.05m7.235 2.178 4.225.577m-4.225-.577.128-1.858M41 30.027v-1.73m0 1.73 4.226.833m-12.42 24.094 1.216-.64m-1.217.64.064 1.41m16.519-21.018V33.68m0 1.666 3.777 1.09m-3.905 11.02-.384-.449m.384.449h2.433m-16.327 3.332-.32 1.218m.32-1.218.704-1.282m-6.018 7.05 1.409.063m-1.409-.064v1.41m-8.26-18.647-.127-2.563m.128 2.563-1.217 1.602m32.397-1.282.128-1.602m-.128 1.602 3.137.961-.192 1.41m-2.945-2.37 3.201.96M41.13 46.111l-1.921.577m1.92-.577 2.241-.448m-2.24.448.063-1.345m-1.984 1.922-1.537.769m1.537-.769.192-1.41m-1.729 2.179-1.024.961m1.024-.961.32-1.474m8.003.449 2.497-.129m-2.497.129-.192-1.026m-24.201.577-.577-2.499m.577 2.5-.32 1.537m32.46-.449.513-.64m-.513.64-.512.449m.512-.449 2.241.32m-1.728-.96.512-.898m-.512.898 2.305.384m-3.33.705-.512.192m.512-.192 2.177.256m-.64-2.242.448-1.026m-.448 1.026 2.305.512m-13.702-.384 2.433-.257m-2.433.257-.064-1.282m-6.658 4.037-.577 1.09m.577-1.09.384-1.538m11.845.128-.385-.705m.385.705h2.304M31.46 56.62l1.41-.256m-1.41.256.065 1.474m-.064-1.474-1.473-.064v1.41l1.537.128m-7.94-25.12.192-2.306m-.192 2.307-1.856 1.282m30.988 13.456 2.113.193m-2.113-.193h-.512m-25.93-17.942-2.497.897m2.496-.897.256-2.05m-.256 2.05.32-2.05-2.432.768m31.052 16.02.384-1.217m-.384 1.217 2.369.641M53.1 38.037l.064-1.602m-.064 1.602 3.201 1.09m-6.914-5.447-.064-1.666m.064 1.666 3.777 1.153m-20.168-7.561 3.906.32m-3.906-.32H29.54m3.457 0 .256-1.73m3.65 2.05 4.097.705m-4.097-.705.128-1.602m-1.985 26.017v1.281l-1.024 1.026m1.024-2.307.832-1.346m-.832 1.346.064 1.281m17.095-5.575-.512-.256m.512.256 1.985.128m-20.168 6.472.128 1.346m-.128-1.346 1.088-1.025m20.488-9.996.32-1.282m-.32 1.282 2.37.769M41 28.297l4.226.961M41 28.297l.064-1.538m4.738 18.647 2.433-.064m-2.433.064-.192-1.217M29.54 27.272l-3.01.448m3.01-.448.32-1.73h3.393m-3.713 1.73.32-1.794m-8.195 11.278.064-2.5m-.064 2.5-1.28 1.538m.64 5.19-.449-2.563m.448 2.563-.384 1.538m15.43 4.486-.192 1.153m.192-1.154.513-1.601m11.908-1.602-.256-.962m.256.962h2.305m-23.753 10.38-1.409-1.281m1.409 1.282 1.472.832m-1.472-.833.192 1.346m-1.6-2.627-1.281-1.538m1.28 1.538.192 1.41m-1.472-2.948-1.217-1.858m1.217 1.858.128 1.41m16.71-10.51-1.792.513m1.792-.512 2.113-.385m-2.113.385v-1.602M39.4 45.278l-1.409.705m1.409-.705.064-1.666m12.229 3.845-.513-.449m.513.449 1.984.128m-15.686-1.602-.96.897m.96-.897.192-1.73m17.735-2.243 2.433.897m-2.433-.897.256-1.41M28.515 57.517l1.537.45m-1.537-.45.192 1.41m4.162-2.563 1.28-.705m-1.28.705.064 1.346m20.232-21.275v-1.602m0 1.602 3.202 1.218m-33.23 14.354-1.024-2.115m1.024 2.115.192 1.345m19.976-8.97 2.305-.193m-2.305.192-.064-1.474m1.985-12.047v-1.602m0 1.602 4.098 1.154m-4.098-2.756 4.034 1.218m-4.034-1.218-.064-1.41m4.162 4.166-.064-1.538m.064 1.538 3.777 1.345M37.031 46.88l-.448 1.026m.448-1.026.32-1.858m-7.299 12.944.128 1.41m-.128-1.41 1.473.128M51.18 47.008l-.384-.705m.384.705 1.921.129M23.778 30.668l.384-2.179m-.384 2.179-1.857 1.153m4.61-4.1.512-1.859m-.512 1.858-2.37.77m2.37-.77.448-1.858-2.241.705m-2.625 23.325-.832-2.371m.832 2.371.192 1.346m25.93-5.896-.256-1.153m.256 1.153 2.177.064m-2.177-.064.256.897 2.305.065m-5.186-2.115h2.37m-2.37 0-.128-1.41M33.253 25.542l3.778.448m-3.778-.448.256-1.41m-.256 1.41-3.393-.065m7.17.513 4.034.77m-4.033-.77.128-1.41M20.576 40.92l-.192-2.627m.192 2.628-.384 1.538m20.872-15.7 4.098 1.09m-4.098-1.09v-1.346m-5.186 25.248.128 1.218m-.128-1.218.705-1.666m16.582-14.162-.064-1.474m.064 1.474 3.202 1.346m-.96 11.598.575-.384m-.576.384-.576.129m.576-.129 1.473.32m-.897-.704.577-.577m-.577.577 1.473.384m-.896-.96.512-.77m-.512.77 1.536.512m-1.536-.513 1.536.449M21.73 34.257l.192-2.436m-.192 2.436-1.28 1.473m1.28-1.473-1.28 1.537.255-2.499m34.126 14.61-.64-.064m.64.065 1.409.256m.832-2.115.512-.897m-.512.897 1.536.577m-17.415-3.46-1.728.448m1.728-.448 2.05-.257m-2.05.257v-1.795m-1.728 2.243-1.28.64m1.28-.64.128-1.858m-8.067 16.34 1.408-.384m-1.408.384.128 1.346m2.497-3.78 1.216-1.09m-1.216 1.09.192 1.345m16.454-10.702-.384-.897m.384.898 1.857.128m-16.07 1.474v1.089m0-1.09.448-1.922M56.174 40.6l.128-1.474m-.128 1.474 2.433 1.026m-2.305-2.5.065-1.473m-.065 1.474L58.8 40.28m-2.497-1.154.129-1.473 2.497 1.281M43.24 42.907l2.241-.128m-2.24.128v-1.666m-21.961 6.28-.64-2.5m.64 2.5.192 1.41m32.717-1.09-.513-.256m.513.256 1.408.257m-17.415-3.845-.832.769m.832-.77.192-1.986m19.208 2.884.384-1.09m-.384 1.09 1.537.705m-9.86-15.38-.128-1.345m.128 1.346 3.713 1.41m-7.811-4.038 3.97 1.282m-3.97-1.282-.128-1.281m2.945 17.622-.192-1.346m.192 1.346 2.113.128m3.585 3.268-.576-.448m.576.448 1.345.256m2.945-3.78.384-1.154m-.384 1.154 1.6.833m-14.085-2.115 2.305.064m-2.305-.064-.064-1.538m-8.067 3.78-.32.962m.32-.961.256-2.05M53.1 33.359l-.128-1.474m.128 1.474 3.202 1.41m-5.89 10.637-.321-1.089m.32 1.09 1.857.192m4.098-7.946v-1.474m0 1.474 2.496 1.281V37.59m-25.93 20.12 1.409-.704m-1.409.705.192 1.41m-12.74-20.826.063-2.564m-.064 2.564-.383 1.6m4.162-11.407.576-1.922m-.576 1.922-1.729 1.09m11.076-5.447 3.65.448m-3.65-.448-3.2-.128m3.2.128.385-1.154m3.265 1.602 3.905.833m-3.905-.833.192-1.025m-10.308 2.307 2.817-.384m-2.817.384.576-1.602m-.576 1.602-2.305.705m5.122-1.09.448-1.473m10.756 1.41 3.97 1.153m-3.97-1.154v-1.025m12.037 22.749-.448-.705m.448.705 1.345.192M27.235 58.03l-1.409-1.217m1.409 1.217 1.472.897m-1.472-.897.256 1.218m-1.665-2.435-1.344-1.538m1.344 1.538.256 1.217m-.256-1.217-1.344-1.602m33.87-12.304.255-1.281m-.256 1.281 1.6.897m-35.47 11.47-1.152-1.922m12.677-1.473-.896 1.41m.896-1.41.833-1.73m-.833 1.73.385 1.217m-1.281.192.256 1.282M20.64 45.022l-.448-2.563m.448 2.563.192 1.41m7.875 12.495 1.473.449m-1.473-.449.256 1.218m7.62-11.15.256 1.153m-.256-1.153.512-1.987m4.098-5.639-1.601.385m1.6-.385 2.05-.128m-2.05.128.064-1.922m-1.664 2.307-1.217.513m1.217-.513v-2.05M35.366 54.57l1.025-1.474m-1.025 1.474.192 1.346M49.132 29.13l-.192-1.153m.192 1.153 3.649 1.474m-9.54 10.637h2.177m-2.177 0-.064-1.858M21.921 31.82l.512-2.242m-.512 2.242-1.217 1.474m2.625 20.057-1.024-2.114m1.024 2.114.32 1.346m-.32-1.346 1.153 1.859m23.305-12.368-.128-1.41m.128 1.41 2.113.256M30.308 24.005l-2.689.256m2.69-.256.511-1.218m14.214 3.78 3.906 1.41m-3.906-1.41-.128-.96m-6.53 16.66-.769.705m.768-.704.064-2.18m14.214 6.345-.384-.833m.384.833 1.28.256m-16.902-.705.064 1.025m-.064-1.025.32-2.179m12.741.513L49.9 43.1m.192 1.218 1.793.256m6.722-2.947.192-1.346m-.192 1.346-.256 1.217 1.6.961m-1.344-2.178 1.665 1.025M30.18 59.376l1.473.064m-1.473-.064.256 1.217m25.93-24.414-.063-1.41m.064 1.41 2.496 1.41m-5.89-5.703-.192-1.282m.192 1.282 3.137 1.537m-10.692 7.818 2.241.192m-2.24-.192-.065-1.666M22.305 51.238l-.832-2.307m.832 2.307.32 1.345m34.254-4.485.576-.32m-.576.32-.64.064m.64-.064.64.384m-.064-.705.64-.448m-.64.448.704.449m-23.817 8.779 1.216-1.09m-1.216 1.09.128 1.41m21.769-10.253-.64-.064m.64.064.64.384m1.216-1.217.64.512m-3.137.257-.576-.257m.576.257.64.32m1.857-1.153.512-.641m-.512.64.64.577m-.128-1.217.513-.77m-.513.77.705.64m-21.705-4.293-.256.833m.256-.833.128-2.242m-17.543 1.73L20 39.895m.192 2.564.192 1.474m31.885 1.666-.384-1.026m.384 1.026 1.28.32M37.351 23.555l3.713.833m-3.713-.833-3.457-.577m3.457.577.192-.769m3.521 1.602 3.842 1.218m-3.842-1.218.064-.705M58.8 40.28l.129-1.346M58.8 40.28l1.665 1.153M20.448 35.73l-.384 1.602m.384-1.602.32-2.435-.384 1.538-.32 2.5M31.653 59.44l1.472-.32m-1.472.32.256 1.218m1.985-37.68-3.074-.192m3.074.192.384-.769m14.662 5.768-.257-.962m.257.962 3.52 1.538m2.562 18.326-.576-.512m.576.512.64.32m-8.003-6.728 2.113.32m-2.113-.32-.064-1.602m11.525 6.024.448-.961m-.448.96.704.706M24.738 26.567l.704-1.666m-.704 1.666-1.665 1.025m4.546-3.332.64-1.218 2.561-.256m-3.2 1.474-2.177.64m2.177-.64.64-1.282M49.9 43.1l-.127-1.345M49.9 43.1l1.729.32m-8.452-4.037-1.92.064m1.92-.064 2.177.192m-2.177-.192.064-1.858m-.064 1.858 2.177.128.064-1.73m-4.162 1.666-1.664.256m1.664-.256v-2.05m-1.664 2.306-1.153.385m1.153-.385v-2.178m16.71-2.756-.192-1.346m.193 1.346 2.497 1.474M36.839 50.148l.576-2.05m-.576 2.05.448 1.154m-.448-1.154.64-2.05.512 1.09m6.915-23.582 3.777 1.41m-3.777-1.41-.128-.705M21.473 48.93l-.64-2.5m.64 2.5.32 1.346M52.78 30.604l-.32-1.09m.32 1.09 3.073 1.666M36.391 53.096l.896-1.794m-.896 1.794.256 1.282m.448-7.37.32 1.09m-.32-1.09.384-2.242m16.967 2.563-.512-.641m.512.64.64.321m-9.732-8.074 2.241.256m-2.24-.256.063-1.794m14.15 7.113.384-1.09m-.384 1.09.704.833M30.82 22.787l.576-.834m-.576.833-2.56.192m-5.827 6.6.64-1.986m-.64 1.987-1.217 1.473m17.223 9.036-.704.64m.704-.64v-2.243m13.446 6.728-.256-1.153m.256 1.153 1.28.385m5.763-6.024 1.6 1.282m-1.6-1.282V37.59l1.6 1.345m-23.177 4.87.128.962m-.128-.962.128-2.306M33.125 59.12l1.345-.705m-1.345.705.192 1.217m2.241-4.422 1.089-1.537m-1.089 1.538.192 1.345m18.184-10.573-.385-.769m.385.769.64.384m5.378-3.268.32-1.153m-.32 1.153.704.962m-10.884-3.012-.064-1.474m.064 1.474 1.729.448m-3.906-2.37 2.113.448m-2.113-.449.064-1.602M37.543 22.786l3.585.897m-3.585-.897-3.265-.577m3.265.577.192-.448m3.393 1.345 3.65 1.218m-3.65-1.218V23.3M27.491 59.248l-1.409-1.218m1.409 1.218 1.473.897m-1.473-.897.256 1.09m-1.665-2.308-1.28-1.538m1.28 1.538.32 1.09m-.32-1.09.833 1.026m-.833-1.026-.384.64m.384-.64-.832-1.217m.832 1.217.705-.833M56.11 33.423l-.256-1.153m.256 1.153 2.497 1.602m-9.924-8.01-.256-.64m.256.64 3.458 1.666M24.8 56.492l-.32-1.281m.32 1.281-1.151-1.794m1.152 1.794.32 1.09M20 39.895l.064-2.563M20 39.895l.192 1.41m17.543-.577-.256.77m.256-.77v-2.37m-3.457-16.149-2.881-.256m2.88.256.449-.448M20.832 46.43l-.448-2.498m.448 2.499.32 1.41m22.09-10.317-1.985-.129m1.984.129 2.177.256m-2.177-.256v-1.923m-1.984 1.794-1.665.129m1.665-.129v-2.05m-12.293 24.8 1.472.448m-1.473-.448.193 1.025M52.46 29.515l-.32-.834m.32.834 3.073 1.73m-15.942 6.28-1.153.32m1.153-.32v-2.18m12.037 8.075-.128-1.218m.128 1.218 1.28.448m-8.131-18.967 3.65 1.474m-3.65-1.474-.128-.385M58.863 37.59l-.063-1.346m.063 1.346 1.665 1.345m-39.824-5.639.512-2.243m-.512 2.243-.384 1.538m3.33 19.865-1.025-2.115m1.024 2.115.32 1.09m29.58-9.869-.384-.961m.384.961.577.385m-.577-.385.449.769.576.384m-9.156-9.291 2.241.448m-2.24-.448.063-1.794m14.79 6.664.192-1.218m-.192 1.218.704 1.025M25.442 24.901l.832-1.282m-.832 1.282-1.537 1.025m32.974 22.62.64-.064m-.64.064-.64-.128m.64.128-.192.449m.832-.513.64-.256m-.64.256-.192.449m.832-.705.577-.385m-.577.385-.192.577m-27.53 11.79 1.472.064m-1.473-.064.192 1.026m25.61-13.2-.576-.257m.577.256-.129.385M38.44 37.845l-.705.513m.704-.513-.064-2.371m20.36 12.367.577-.576m-.576.576-.193.577m-21.128-.32.448-2.243m-.448 2.243.576 1.09m-3.521 9.227 1.28-1.154m-1.28 1.154.192 1.217m2.625-8.33.704-2.115m-.704 2.115.32 1.281m-6.21-30.63-2.305.192m2.305-.192.64-.448m17.67 18.775v-1.474m0 1.474 1.73.577m4.225 7.305-.576-.513m.576.513-.192.384m-32.845 4.037-.832-2.306m.832 2.306.32 1.154m14.534-8.971.384 1.089m-.384-1.09.128-2.37m-.128 2.37.192-2.37M55.854 32.27l-.32-1.025m.32 1.025 2.433 1.666M47.66 38.23l2.049.577m-2.049-.577.064-1.666m11.589 10.702.512-.705m-.512.705-.192.64m-5.955-2.947-.256-1.09m.256 1.09.64.448m-.64-.448.576.448-.256-1.025m-5.058-18.006-.32-.449m.32.449 3.394 1.602m-28.748-.385.832-1.666m-.832 1.666-1.088 1.41m38.48 12.431.063-1.217m-.064 1.217.704 1.154m-9.667-.385-.064-1.345m.064 1.345 1.216.513M37.735 22.338l3.393.96m-3.393-.96-3.01-.577m3.01.577.256-.065m3.137 1.026 3.522 1.217M41.128 23.3v-.128M58.8 36.243l-.193-1.218m.193 1.218 1.6 1.538m-22.92 3.717.128.897m-.128-.898v-2.499m17.607 8.651-.512-.577m.512.577-.128.449M52.14 28.682l-.32-.705m.32.704 3.009 1.73M36.647 54.379l.96-1.795m-.96 1.795.192 1.41m6.402-20.186-1.984-.256m1.984.256 2.241.385m-2.24-.385.063-1.922m-2.048 1.666h-1.665m1.665 0v-2.05M59.824 46.56l.448-.833m-.448.833-.192.705M31.909 60.657l1.408-.32m-1.408.32.128 1.026M44.65 24.516l3.457 1.41m-3.457-1.41-.192-.128M20.384 43.933l-.192-2.628m.192 2.628.32 1.345m24.778-9.291 2.241.576m-2.24-.576.127-1.73m-.128 1.73 2.241.64.192-1.666m-8.323.385-1.217.128m1.217-.128-.064-2.243m-4.802-11.342-2.69-.256m2.69.256.448-.064m2.561 16.66-.256.641m.256-.64-.128-2.435m-17.543 1.41.192 1.41m-.192-1.41.256-2.5m34.254 12.24-.448-.77m.448.77-.128.384m-32.653 2.82-.64-2.436m.64 2.435.32 1.218m30.796-7.626-.192-1.153m.192 1.153.576.513m6.787 1.346.384-.961m-.384.96-.192.834m-10.372-7.754.128-1.474m-.128 1.474 1.729.705m9.091.705v-1.282m0 1.282.704 1.217m-5.698-10.188-.384-.833m.384.833 2.433 1.73m-10.244 3.588 2.113.77m-2.113-.77.192-1.602m-9.54.513-.768.449m.768-.449-.192-2.307m13.254 7.69V39.51m0 1.346 1.216.64m-4.546-15.571-.32-.064m.32.064 3.266 1.666m-30.157 3.46.769-2.05m-.769 2.05-.32 1.474m37.711 2.5-.32-1.09m.32 1.09 1.601 1.601M28.26 22.978l.833-.833m-.833.833-1.985.641m2.818-1.474.832-.512m-.832.512-1.793.513m26.827 23.645-.32-.897m.32.898-.128.448M35.75 57.262l1.089-1.475m-1.089 1.474.128 1.282m15.943-30.566-.448-.385m.448.385 2.88 1.794m-22.664-8.267.704-.064m-.704.064-2.113.129M43.305 33.68l-2.048-.385m2.048.385 2.305.577m-2.305-.577.128-1.859m-2.176 1.474-1.73-.192m1.73.192V31.31m-3.266-9.036 3.137.898m-3.137-.898-2.817-.576m2.817.576.256.32m2.881.578 3.33 1.217m-3.33-1.217.064.32m-14.918.128 1.025-.961m-1.024.961-1.409.897m35.79 20.25.32-1.09m-.32 1.09-.192.897M33.317 60.337l1.345-.705m-1.345.705.128 1.025m11.013-36.974 3.33 1.474m-3.33-1.474-.128.256m1.28 9.613 2.305.704m-2.305-.704.192-1.73m-6.274.576-1.345.064m1.345-.064-.128-2.115m-1.537 14.867.256-2.5m-.256 2.5.576 1.025m14.278-4.165-.064-1.218m.064 1.218.64.64m-15.366 5.832.448-2.307m-.448 2.307.32 1.282m-.704-8.074V39.83l-.128-.833m-2.305-17.301-2.433-.257m2.433.257.448.32m-7.875 38.32-1.345-1.218m1.345 1.218 1.409.833m-1.409-.833.192.769m-1.537-1.986-1.28-1.538m1.28 1.538.193.833m33.933-21.019L60.4 37.78m.128 1.153.704 1.41m-36.11 17.238-1.152-1.795m1.152 1.795.256.897m24.458-21.147.192-1.474m-.192 1.474 1.729.833m-14.086.833-.128-2.499m.128 2.5.192.832m16.134 5.575-.192.513m.192-.513-.32-1.025m3.202 4.614.64-.064m-.64.064-.577-.192m.577.192-.96.448-.641-.128m1.6-.32-1.024.448m1.665-.512.64-.128m-.64.128-1.024.577M55.15 30.412l-.448-.641m.448.64 2.369 1.73m-36.367 15.7-.448-2.563m.448 2.563.385 1.282m26.378-14.162 2.113.898m-2.113-.898.192-1.538m8.003 15.38-.64-.257m.64.257-1.024.512m-31.18-23.389.96-1.41m-.96 1.41-1.025 1.282m-2.689 14.097.064-2.563m-.064 2.563.32 1.41m8.644 18.455 1.472.449m-1.472-.449.128.769m18.503-36.077-.32.192m.32-.192 3.137 1.602m7.043 21.339.576-.385m-.576.385-1.088.512M37.607 35.923l-.256-2.436m.256 2.435-.256.577m.256 16.084.704-2.114m-.704 2.114.128 1.41m13.702-14.482.128-1.346m-.128 1.346 1.28.769m8.26 3.396.191-1.09m-.192 1.09-.256 1.026m-2.433-10.766-.32-.961m.32.961 1.6 1.666M55.47 48.546l-.512-.448m.512.448-.96.449m-30.54 6.792-1.025-2.05m1.024 2.05.257.898m27.147-29.093-.449-.128m.449.128 2.817 1.794m4.353 19.032.577-.512m-.577.512-1.024.641M43.433 31.821l-2.176-.512m2.176.512 2.37.705m-2.37-.705.128-1.73m-2.304 1.218-1.857-.32m1.857.32v-1.923m-3.074 3.781-.192-2.243m.192 2.243-.832.32m.896-10.893 2.945.897m-2.945-.897-2.625-.577m2.625.577.192.64m2.753.257 3.138 1.153m-3.138-1.153v.577m3.138.576 3.137 1.41m-3.137-1.41-.192.513m1.664 7.37 2.305.896m-2.305-.897.192-1.602m8.964 17.174-.512-.641m.512.64-.96.45m-23.37 13.072 1.409.064m-1.409-.064.128.769-1.472-.449m1.344-.32.064.769m8.708-31.4-1.409-.064m1.409.064-.128-1.986M59.12 47.906l.512-.641m-.512.64-1.089.705m-5.378-7.112.064-1.218m-.064 1.218.576.704m.256 2.18-.128-1.026m.128 1.025-.128.577M60.4 37.78l-.192-1.154m.192 1.154.704 1.41M32.741 21.44l.704.32m-.704-.32-1.92.128m3.84 38.063 1.217-1.09m-1.216 1.09.128 1.09m19.656-13.265-.448-.705m.448.705-.96.449M29.923 21.633l.896-.064m-.896.064-1.6.512m21.704 13.713.256-1.41m-.256 1.41 1.793.962m-4.354-10.766-.32.449m.32-.449 3.01 1.538m-2.37 5.831.32-1.473m-.32 1.473 2.177 1.026m10.884 8.138.064-1.154m-.064 1.154-.256 1.153m-37.967 9.997-.832-2.243m.832 2.243.32.961m12.357-32.68.448.704m-.448-.705-2.177-.256m21.257 8.01-.512-.385m.512.385 2.305 1.794M36.839 55.787l.896-1.794m-.896 1.794.128 1.346m6.594-27.042-2.304-.705m2.304.705 2.433.833m-2.433-.833.129-1.602m-2.433.897-1.985-.384m1.985.384V27.72m18.375 19.545.448-.705m-.448.705-1.089.769m-6.978-9.869.256-1.345m-.256 1.345 1.28.898m-1.92-11.599-.449.128m.448-.128 2.753 1.73m4.29 3.78-.448-.832m.448.833 1.537 1.73m-1.537-1.73-1.536-1.794m1.536 1.794.576.384m-.576-.384-.64-.192m.64.192.64 1.666M41.192 24.068l2.946 1.09m-2.946-1.09-2.753-.833m2.753.833v.897m2.946.192 3.009 1.346m-3.01-1.346-.127.833m-22.025 3.012.896-1.794m-.896 1.794-.32 1.474m24.33.448 2.432 1.026m-2.433-1.026.256-1.41m-7.81-6.28.255 1.026m-.256-1.025-2.369-.513m-8.771-.064 1.024-.513m-1.024.513-1.28.897m27.979 23.197-.385-.833m.385.833-.96.513m.96-.513-.96.449M37.99 30.924l-.256-2.114m.256 2.114-.96.192m2.24-2.114-.191-1.858m.192 1.858-1.537-.192m-5.698 32.873 1.408-.32m-1.408.32.064.769m5.25-28.965-.32-2.37m.32 2.37-.32.449m16.326 9.42-.128-1.154m.128 1.154-.192.64m-32.46 1.282-.193-2.563m.192 2.563.384 1.346m26.059-20.121-.32.769m.32-.77 2.88 1.475M37.35 36.499l-.32-2.563m.32 2.563.128.77m15.238 3.011.128-1.218m-.128 1.218.576.833M43.69 28.489l-2.433-.769m2.433.77 2.56 1.025m-2.56-1.026.128-1.345m-2.561.576v-1.538m0 1.538-2.177-.576m21 19.416.384-.897m-.384.897-1.088.769m-10.565-15.38.32-1.281m-.32 1.282 2.241 1.217m-2.24-1.217 2.24 1.153m-9.476-8.138 2.818 1.025m-2.818-1.025-2.497-.705m2.497.705.065 1.217m2.753-.192-.192 1.154m.192-1.154 2.817 1.282M37.67 42.395l.448.96m-.448-.96V39.83m.448 3.525v-2.563m0 2.563.577 1.025m7.554-14.866.257-1.282m-.257 1.282 2.497 1.153m11.461 5.96-.32-1.026m.32 1.025.704 1.538m.32 3.268v-1.089m0 1.09-.256 1.217m-10.692-8.202.384-1.282m-.384 1.282 1.857 1.09M38.439 46.88l.257-2.499m-.257 2.5.385 1.28M54.19 29.387l-.513-.192m.513.192 2.24 1.795m-5.954-3.589-.448.385m.448-.385 2.69 1.73m-14.47-5.062.192 1.282m-.193-1.282-2.176-.449m-.449-1.089.449 1.09m-.449-1.09-1.92-.192m9.668 4.614-2.561-.962m2.56.962 2.69 1.089m-5.25-2.05-2.37-.641m-18.63 13.2.255-2.435m-.256 2.435.32 1.474m1.537 11.278-.576-2.371m.576 2.371.384 1.025m31.116-6.6-.256-.961m.256.961-.896.513m-5.89-19.16-.32.96m.32-.96 2.753 1.41m-10.5-1.538-.192-1.602m.192 1.602-1.73-.257m9.157 1.346 2.689 1.346m2.625 7.24.32-1.28m-.32 1.28 1.216 1.026m-28.171-13.33 1.152-.96m-1.152.96-.832 1.282m9.411-4.037.705.769m-.705-.77-1.664.129m25.738 10.253-.512-.577m.512.577 1.537 1.794M38.31 50.47l.513-2.307m-.513 2.307.128 1.474m.449-26.401-1.921-.385m11.78 5.511.449-1.09m-.449 1.09 2.305 1.282m-13.317-3.14-.384-1.923m.384 1.923-1.152.064m23.881 16.789.256-.961m-.256.96-1.152.898m-9.284-18.583-.448.704m.448-.704 2.561 1.666m.64 12.56.064-1.09m-.064 1.09-.128.704m1.985 6.408-.576-.32m.576.32-1.729.513m1.729-.513.576.128M30.82 21.57l.96.32m-.96-.32-1.344.448m26.186 27.426.64.065m-.64-.065-1.728.577m2.369-.513.576-.192m-.576.193-1.793.576m-18.632 8.459 1.089-1.41m-1.089 1.41.128 1.09m18.504-10.64-.512-.449m.512.449-1.729.513m1.729-.513 2.56-.833m-2.56.833-.384.577m.384-.577.32-.705m-.32.705-3.073.833m-.769-16.66 1.857 1.217m.32 4.678.192-1.218m-.192 1.218.576.897m.256-10.766-.512.128m.512-.128 2.177 1.794M36.52 23.811l.448 1.346m-.448-1.346-1.665-.192m14.342 5.96.384-.898m-.384.898 2.369 1.41M20.32 34.832l.576-2.307m-.576 2.307.192 1.474m.384-3.78.769-2.051m-.769 2.05L21.088 34m12.357 27.362 1.345-.64m-1.345.64.064.77m3.522-31.015-.448-2.243m.448 2.242-.448.385m16.774 13.457-.192-.961m.192.96-.896.578m4.418 3.78.64-.256m-.64.256-1.793.641m6.146-9.612-.128-1.153m.128 1.153-.256 1.282M49.58 28.682l2.497 1.537m7.81 5.383-.383-.897m.384.897.704 1.602m-6.594 11.342-.513-.64m.513.64-1.73.513M37.352 26.887l-.384-1.73m.384 1.73-1.28-.064m1.28.064h-1.28l-.577-1.794M27.94 61.106l-1.344-1.153m1.344 1.153 1.345.833m-1.345-.833.064.513m-1.408-1.666-1.217-1.474m1.217 1.474.128.512M52.14 35.538l.384-1.153m-.384 1.153 1.216 1.154m4.162 12.367.512-.449m-.512.449-1.857.64m1.345-18.134-.576-.384m.576.384 1.536 1.794m-21.576-8.202-1.473-.064M25.378 58.479l-1.152-1.794m1.152 1.794.128.576M60.72 44.702l.192-.962m-.192.962-1.152.96m-6.083 2.244-.448-.641m.448.64-1.664.577M37.03 33.936l-.448-2.435m.448 2.435.064.705m.64 19.352.704-2.05m-.704 2.05.192 1.346m-9.604-33.194 1.153-.128m-1.153.128-1.088.833m6.915-.448.704 1.09m-.704-1.09-1.409.128m18.311 9.292-.384 1.153m.384-1.153.513-.962m-.513.962 1.921 1.41m-2.305-.257 1.857 1.282m.64-5.063-.576.32m.576-.32 2.113 1.73M29.284 61.94l.064.449m-.064-.449 1.408.449m-9.155-13.265-.449-2.5m.449 2.5.32 1.09m-1.345-7.498.064-2.5m-.064 2.5.448 1.41m32.333-3.012.128-1.153m-.128 1.153-.192.769m-30.22-14.674 1.153-1.41m-1.153 1.41-.256 1.474M58.031 48.61l.512-.576m-.512.576-1.857.705m-31.948 7.37-.96-1.987m.96 1.986.192.705m28.747-13.392-.064-1.09m.064 1.09-.896.64m-14.79-7.369.192 2.563m-.192-2.563-.384-2.627m.384 2.627.384.833m-.192 1.73.448.962m14.918 6.472-1.664.512m1.664-9.932.32-1.154m-.32 1.154.576 1.025m-2.048-7.882.512-.769m-.512.77 1.92 1.473m-16.902-3.588-.513-2.05m.513 2.05-.577.32m16.583.449-.512.576m.512-.576 2.049 1.666m6.466 7.882-.192-1.026m.192 1.026-.256 1.41m-1.344-5.896-.448-.769m.448.769.704 1.666m-7.683-1.986.448-1.026m-.448 1.026 1.28 1.281m2.626-4.485-.577-.193M38.12 40.793l-.256-2.692m.256 2.692.577.96m13.38-11.534 1.986 1.538M31.78 21.89l.96.769m-.96-.769-1.153.449M60.912 43.74l.064-1.09m-.064 1.09-1.152 1.026m-1.217 3.268.449-.705m-.449.705-1.92.769m-21.77-25.184.641 1.474m-.64-1.474-1.217.192m5.059 20.57v-2.627m0 2.627.384 1.282m13.637.769.32.769m-.32-.77-.256-.896m.256.897-1.665.576m1.985.193-1.664.576m-30.86-11.47L21.087 34m-.576 2.307.384 1.474m5.122-14.226 1.217-.577m-1.217.577-.704 1.218M34.79 60.72l1.216-1.089m-1.216 1.09v.768m-11.525-6.792-.768-2.179m.768 2.179.256.769m12.55-28.644-.769.32m.768-.32-.576-1.73M53.421 39.96l.192-1.09m-.192 1.09-.192.897m-.128 2.05v-1.025m0 1.025-.896.77m-16.71-18.584-.961.192m18.44 8.074.511-.897m-.512.897 1.28 1.41m-17.67-3.268-.577-2.307m.577 2.307-.064.64m19.335-1.153-.576.064m.576-.064 1.473 1.795m-3.97 3.908.448-1.025m-.448 1.026.64 1.153m-.64-1.154.577 1.154.448-.961M38.824 48.162l.256-2.5m-.256 2.5.128 1.41m-1.985 7.561.96-1.794m-.96 1.794.128 1.09m21.96-24.287-.512-.577m.513.577.64 1.73m-.704 11.663.32-.77m-.32.77-1.921.833m3.841-9.997-.32-.96m.32.96-.256 1.474m-8.195 5.896-.192-.898m.192.898-1.665.64M32.101 62.452l-1.409-.064m1.409.064 1.408-.32m-1.408.32-.064.448m-1.345-.512v.448m30.284-20.185v-1.025m0 1.025-1.152 1.153M29.476 22.017l1.152.32m-1.152-.32-.897.833m24.778 26.978.577.192m-.577-.192-.576-.32m.576.32-2.369.577m2.946-.385.576.064m-.576-.064-2.433.577m1.984-18.135.577-.705m-.577.705L54.83 34m-1.345-1.538 1.345 1.474.576-.577m-2.625 16.148-.512-.448m.512.449-2.369.576m4.866-19.032-.64.257m.64-.257 1.409 1.73M21.088 46.625l-.128-2.5m.128 2.5.384 1.153m.193-17.301.96-1.794m-.96 1.794.192 1.474M54.51 50.084l.576-.128m-.576.128-2.433.577m.192-1.602-.448-.577m.448.577-2.305.513M32.74 22.658l.896 1.153m-.896-1.153-.96.448m5.314 11.535-.576-2.5m.576 2.5.32.833m16.647-3.717.576-.448m-.576.448 1.344 1.602m-.768-2.05 1.408 1.666M53.1 41.882l.128-1.025m-.128 1.025-.896.769m1.408-3.78.385-1.026m-.385 1.025-.128.961m.32-4.165.449-.897m-.449.897.577 1.218m-.577-1.218.449-.961.64 1.41m.192 13.841.576-.256m-.576.256-2.433.64m6.659-4.036.256-.897m-.256.897-1.921.897m-5.57 1.025-.448-.705m.448.705-2.305.513m-27.019 3.524-.64-2.307m.64 2.307.256.833m35.79-19.993.64 1.73M38.44 51.944l.513-2.371m-.513 2.37.192 1.346M20.576 40.216l.32-2.435m-.32 2.435.384 1.41m15.046-12.432-.704-2.05m.704 2.05-.192.577M52.27 44.637l-.064-.96m.064.96-1.6.641m9.923-8.074-.384-.833m.384.833-.256 1.474m-36.302-12.88 1.28-1.025m-1.28 1.025-.256 1.41M55.662 49.7l.512-.385m-.512.385-2.497.705m-1.792-2.628-.32-.769m.32.77-2.241.576m11.844-6.728-.128-1.026m.128 1.026-1.152 1.217m-21.96-4.742-.449-2.627m.448 2.627.576 1.026M33.637 23.81l.897 1.474m-.897-1.474-.704.449m21.32 10.51.577-.77m-.576.77.64 1.345M36.006 59.632l1.089-1.41m-1.089 1.41-.064.833m.064-.833-1.216 1.025v.834m1.216-1.859 1.025-1.41m-3.522 3.91 1.28-.642m-1.28.641-.192.513m26.25-16.981.193-.897m-.192.897-1.92.96m-1.474 2.692.449-.512m-.449.512-2.497.77-.512.32m3.01-1.09-2.498.705m.32-12.175-.191 1.09m.192-1.09.384-.961m-19.08-9.74-.768-1.859m.768 1.859-.32.512m18.247 13.2.256-1.025m-.256 1.026-.896.833M27.235 22.978l1.344-.128m-1.344.128-.576 1.154m1.344 37.487-1.28-1.154m1.28 1.154 1.345.769m-1.345-.77-.064.193m-1.216-1.346-1.217-1.41m1.217 1.41v.256m24.33-13.713-.257-.833m.256.833-2.24.577m-23.306 11.47-1.088-1.666m1.088 1.666.064.32m26.635-15.699v-1.025m0 1.025-1.665.641m-11.844-2.563-.257-2.627m.257 2.627.384 1.281m-4.546-17.75-.576.513m-3.33-3.46 1.153.768m-1.153-.768-.704.833m30.284 13.2-.512-.705m.512.705-.256 1.538M29.348 62.388l1.344.448m-1.344-.448-.128.192M54.83 34l.576 1.41M54.83 34l.576-.64M21.09 34l.768-2.05M21.089 34l.32 1.538m35.918-2.755h-.64m.64 0 .64 1.666m2.881 6.151-.192-.96m.192.96-1.152 1.282m-23.177-9.74-.705-2.371m.705 2.37.256.834M24.418 57.389l-.897-1.922m.897 1.922.128.385m32.077-8.971.448-.641m-.448.64-2.497.77m-32.27.64-.384-2.435m.385 2.435.32.897m15.75 4.23.704-2.05m-.704 2.05v1.153m12.87-10.317-.129-.897m.128.897-2.24.577m6.85-13.393.64-.384m-.64.384.64 1.538M39.08 45.663v-2.628m0 2.628.128 1.41m17.479-14.29-.64.192m.64-.192.64 1.666M20.96 44.125v-2.5m0 2.5.32 1.281m38.48-.64.064-.962m-.064.962-1.92.96m-3.458-8.842.512-.77m-.512.77L54.19 38.1m1.856-5.126.64 1.602m-3.2 5.254.32-.897m-.32.897-.961.962m.96-.962-.896.962M30.692 62.836l1.345.064m-1.345-.064-.192.128m19.912-12.88.576.32m-.576-.32-.448-.512m.448.512-2.817.641m3.393-.32.513.192m-.513-.192-2.88.64m11.588-15.379-.512-.576m.512.576-.192 1.538m-7.3 5.447.129-.961m-.128.96-1.6.77m.896 7.177.576.064m-.576-.064-2.882.705m1.345-1.73-.448-.577m.448.577-2.817.64m4.93.449.576-.064m-.576.064-2.881.705-.577-.064m3.458-.641-2.881.769.512-.064M22.625 28.682l1.152-1.474m-1.152 1.474.192 1.473m-.192-1.474 1.152-1.41.193 1.475m25.546 20.249-.384-.64m.384.64-2.817.64m10.372-1.473.32-.705m-33.87 8.01-.768-2.115m.768 2.115.128.449m27.02-10.638-.129-.961m.128.961-2.305.577m12.293-6.216-.32-.961m.32.961-1.152 1.282M31.78 23.107l1.152 1.153m-1.152-1.154-.512.77m23.625 12.239.512-.705m-.512.705-.192 1.281M34.79 61.49l1.152-1.025M34.79 61.49l-.192.449m18.055-11.342.512-.192m-.512.192-2.945.769M37.415 35.474l-.64-2.5m.64 2.5.576.961m11.14 11.92-.32-.77m.32.77-2.752.576M35.814 29.77l-.832-2.115m.832 2.115.192.769m-15.11 7.24.512-2.242m-.512 2.243.384 1.474m38.544 4.55v-.962m0 .961-1.92 1.026m-32.59-20.057 1.345-.641m-1.345.64-.192 1.41m34.062 8.908-.577-.45m.577.45-.256 1.601.576.513m-.32-2.114-.256 1.537M38.952 49.572l.256-2.5m-.256 2.5.128 1.41m14.726-12.048.384-.833m-.384.833-.961 1.026M28.579 22.85l1.345.32m-1.345-.32-.448 1.09m24.202 17.75.192-.897m-.192.897-1.665.833M32.037 62.9l1.28-.256m-1.28.256-.256.128m21.384-12.623-2.945.769m2.945-.77.512-.384m-16.582 8.202.832-1.73m19.464-9.035.256-.833m-.256.833-2.561.833m-6.018-.705-.257-.833m.257.833-2.754.577m9.348-12.752.64-.513m-.64.513-.192 1.41m-4.674 7.497.064-.897m-.064.897-2.24.64m12.036-6.279-.384-.769m.384.769-1.152 1.41m-.577-5.447-.64-.192m.64.192-.256 1.602M32.933 24.26l1.025 1.538m-1.025-1.538-.32.769m-11.14 22.748-.192-2.37m.192 2.37.32 1.026m16.646-9.676-.448-2.692m.448 2.691.384 1.218m-3.841-12.688-1.024-1.858m1.024 1.858v.77M22.753 53.351l-.576-2.242m.576 2.242.192.577m33.101-19.032.64-.32m-.64.32-.192 1.474m3.97 6.472-.128-.961m.128.961-1.92 1.09m-9.349 2.82-.192-.898m.192.897-2.753.577M54.19 38.1l.512-.705m-.512.705-.96 1.09m4.737-4.742h-.64m.64 0-.256 1.602M33.958 25.798l-.128.769m18.695 14.226-1.6.897m5.762-7.113.64-.128m-.64.128-.256 1.474M21.857 31.95l.96-1.795m-.96 1.795.32 1.537m35.47 13.137.192-.897m-.192.897-2.561.897m2.24-13.072-.255 1.538m-6.467 7.433.064-.897m-.064.897-2.305.64m-.704 6.665.512.32m-.512-.32-.448-.513m.96.833.512.257m-1.472-1.09-.448-.576m-25.739-8.01.32-2.371m-.32 2.37.385 1.346m38.607-5.062-.448-.705m.448.705-1.152 1.41M27.94 61.81l-1.217-1.09m1.216 1.09 1.28.769m-1.28-.77-.128-.127m-1.088-.962-1.153-1.345m1.153 1.346h-.064m11.972-7.434.449-2.307m-.449 2.307v1.154m.449-11.407-.257-2.69m.257 2.69.128 1.41M25.57 59.375l-1.024-1.601m1.024 1.602v.064m11.205-26.465-.769-2.435m.769 2.435.512.961m9.412 15.7-.32-.705m7.298 1.09.449-.45m-.449.45-3.009.832m3.458-1.281-3.01.833M33.317 62.644l1.28-.705m-1.28.705-.256.128m15.302-16.917-.064-.897m.064.897-2.689.64M29.22 62.58l1.28.384m-1.28-.384-.192-.192m25.674-24.992.512-.576m-.512.576-.96 1.154m.96-1.154.512-.64-.96 1.281m-24.33-14.866 1.345.704m-1.345-.704-.256 1.025m16.71 24.735-.32-.77M35.942 60.466l1.025-1.41m-1.025 1.41-.256.513m24.01-19.096-.192-.961m.192.961-1.921 1.09m-33.23 14.802-.896-1.858m.897 1.858.064.128m-.832-30.694 1.344-1.026m-1.345 1.026.193 1.538M52.845 39.96l-.256.833m.256-.833.384-.77m-.384.77-1.665.897m1.409-.064-1.665.897m8.58-4.486-1.153 1.41m1.153-1.41-.576-.577m-1.089 9.1.064-.897m-.064.897-2.625.961M26.659 24.132l1.472-.192m-1.472.192-.128 1.41m23.177 25.824.512-.192m.448-8.651.256-.833m-.256.833-2.24.705m2.24-.705.256-.897-2.304.769m-2.562 5.767-.256-.833m-23.625 3.78-.384-2.306m.384 2.306.192.705m8.131 11.15 1.28.064m-1.28-.064-.256-.128M48.3 44.958v-.897m0 .897-2.689.64m9.604-8.778.64-.449m-.64.449-.96 1.217m-32.846-2.499.769-2.05m-.768 2.05.384 1.538m17.415 9.996v-2.627m0 2.627.128 1.41m-.128-1.41-.256 2.564.128 1.345m11.14.193.448-.32m8.836-9.933-.32-.833m.32.833-1.921 1.153m-19.592-5.639-.704-2.499m.704 2.5.32 1.28m-14.662 18.2-.704-1.987m.704 1.986.128.257M21.28 45.406l.065-2.435m-.064 2.435.32 1.09m24.201.833-.128-.833m-7.747 9.996.704-2.05m-.704 2.05-.064.897m.064-.897-.896 1.73M36.006 30.54l-1.024-2.115m1.024 2.115.385.961m19.463 4.87.577-.32m-.577.32-1.024 1.282m-1.6 1.538.512-.641m-.513.64-1.664.962M31.269 23.875l1.344 1.154m-1.345-1.154-.128 1.026M57.903 44.83v-.897m0 .897-2.625.96m3.65-9.163-.577-.384m.577.384-1.089 1.474m.512-1.858-.64-.192m.64.192-1.088 1.474m-6.339 3.973.256-.833m-.256.833-2.304.705m6.21 5.895.256-.769m-.256.769-3.073.833m-3.458-5.062.128-.833m-.128.833-2.689.64m-.896 6.985 3.137-.769m-3.137.77-.512-.45m.512.45.512.32m-.512-.32-3.265.832m6.402-1.602-.448-.448m.448.448.512.32m-.96-.768-3.201.769m3.2-.77-.447-.512m-2.753 1.282-.449-.513m.449.513-3.266.833m6.019-2.115-3.202.769m3.202-.769-.448-.64m-2.754 1.409-.448-.705m.448.705-3.329.769m16.007-15.443.64-.064m-.64.064-1.025 1.345M34.598 61.94l1.088-.961m-1.088.961-.384.192m16.454-11.278.448-.448m-5.89 1.602 3.137-.77m-3.137.77.512.128m-.512-.128-3.265.833m6.402-1.602.577.128M31.78 63.028l1.281-.256m-1.28.256-.32-.128m26.25-26.85-.64-.063m.64.064-1.024 1.41m-11.013 9.035-.064-.897m.897 3.716-3.202.705m3.202-.705-.32-.769m-2.882 1.474-.32-.705m.32.705-3.33.77m17.096-14.803-1.025 1.345m3.138 2.756-.384-.77m.384.77-1.921 1.153M45.738 52.135l3.202-.77m-3.202.77.512.064m-.512-.064-3.201.897m6.403-1.666h.512m4.29-12.816.512-.513m-.512.513-1.73 1.025m-17.03-11.15-1.152-1.858m1.152 1.858.256.961m10.948 19.16-3.2.77m3.2-.77-.256-.769m-2.945 1.538-.256-.833m.256.833-3.33.705M22.818 30.155l1.153-1.41m-1.153 1.41.32 1.602m15.686 8.587-.512-2.627m.512 2.627.129 1.474m-6.339-16.79 1.217 1.539m-1.217-1.538v.961M21.281 39.255l.512-2.179m-.512 2.179.384 1.41m1.28 13.264-.576-2.115m.576 2.115.128.32m34.83-10.316-.128-.962m.128.962-2.625.96M46.25 52.2l3.202-.833m-3.202.833.577-.128m-.577.128-3.2.833m6.402-1.666.512-.064M28.131 23.94l1.537.256m-1.537-.256-.064 1.345m.064-1.345 1.473.256v1.346M51.18 40.857l.385-.705m-.385.705-2.304.833m6.21 5.831.128-.833m-.128.833-3.073.833m-.897 2.05.32-.576m-14.405 8.394-.064.833m0 0 .896-1.666m-.896 1.666-.256.577m2.369-8.65.256-2.5m-.256 2.5.064 1.217m9.283-8.971.193-.833m-.193.833-2.753.64m-23.881 4.935-.192-2.307m.192 2.307.192.833m5.826 12.047-1.152-.962m1.152.962 1.217.705m-1.217-.705-.128-.385m-1.024-.577L25.57 59.44m1.089 1.282-.064-.32M45.61 45.598v-.897M25.57 59.44l-.96-1.538m.96 1.538v-.256m20.36-11.407-3.2.705m3.2-.705-.192-.897m-3.009 1.602-.256-.897m.256.897-3.393.705m3.393-.705-.192-.897-3.393.705M58.8 39.319l-.449-.705m.449.705-1.921 1.217m-23.05-13.97.193.962m-8.9-1.346 1.409-.64m-1.409.64.128 1.474m29.004 10.381.576-.384m-.576.384-1.729 1.09m-23.497 23.26 1.216.45m-1.216-.45-.257-.384m8.516-28.067-.896-2.435m.896 2.435.32 1.218m9.22 16.917 3.137-.77m-3.137.77.448-.32m-.448.32-3.201.833m3.2-.833-.575.064-3.202.897m6.915-1.73.448-.32m-25.802 6.92-.832-1.73m.832 1.73.064-.128m8.387 4.998 1.153-.64m-1.153.64-.448-.128M57.775 42.97l-.192-.897m.192.897-2.625 1.026m-9.412 2.883-3.265.705m3.265-.705-.128-.833m-3.137 1.538-.064-.897m.064.897-3.33.705m19.208-9.676-.512-.513m.512.513-1.92 1.282m-4.994 9.932.32-.705m-.192-8.971.448-.577m-.448.577-2.305.833m-7.811 11.534-.513-.448m.513.448.512.32m-.512-.32-3.202.962m2.69-1.41-.513-.577m.512.577-3.2.897m17.478-6.28.064-.897m-.064.897-3.073.897m-11.717 3.909-.448-.705m.448.705-3.201.897M54.83 37.653l.576-.257m-.576.257-1.793 1.153m-7.427 5.896.064-.834m2.946-1.473.256-.705m-.256.705-2.754.64M30.244 62.836l1.216.064m-1.216-.064-.32-.512m12.037-9.484.576.192m-.576-.192-3.138.96M21.345 42.972l.32-2.306m-.32 2.306.32 1.218m18.31 6.6-.32-.769m.32.77-3.2.832m10.5.128 3.137-.769m-3.137.77.448-.385m-.448.384-3.137.897m6.274-1.666.448-.384m-11.652-6.152-.256-2.627m.256 2.627.128 1.474m-17.16-12.431.961-1.73m-.96 1.73.384 1.602m13.125 25.888 1.025-1.346m-1.025 1.346-.384.256M57.84 38.101l-.576-.384m.576.384-1.92 1.218M42.536 53.032h.512m-.512 0-3.137.961m-.769.449.513-2.243m-.513 2.243-.128.96M22.37 51.815l-.384-2.178m.384 2.178.192.449m32.845-14.867.64-.064m-.64.064-1.793 1.218M23.778 56.172l-.705-1.923m.704 1.923.129-.064m15.75-6.088-.32-.833m.32.833-3.33.77m9.284-4.743-3.201.641m3.201-.64-.064-.898m-3.137 1.538-.064-.897m.064.897-3.393.64.128.962m3.265-1.602-3.393.705m-9.348-23.197 1.472.705m-1.472-.705v1.346l1.536.64m26.379 15.892-.32-.833m.32.833-2.625 1.09m2.305-5.447-.576-.256m.576.256-1.857 1.217m-3.393.641.512-.449m-.512.45-2.37.896m6.403-3.14.64.129m-.64-.129L54.19 38.55M43.05 53.032l.576-.128m-.577.128-3.073.961m11.78-4.87.257-.769m4.674-10.893-1.857 1.217m.448 7.113v-.897m0 .897-3.073.897m-6.53-2.82.191-.833m3.01-1.345.384-.705m-.384.705-2.754.64m1.601 9.036 3.137-.77m-3.137.77.384-.513m-.384.513-3.137.833m3.137-.833-.448.448-3.137.833m6.722-2.05.384-.513m-11.908-.897-.192-.897m.192.897-3.266.705m.32-18.391-1.152-2.115m1.153 2.115.256 1.282m1.664 4.934-.704-2.563m.704 2.563.192 1.474M31.46 62.9l1.153-.257m-1.152.256-.385-.512m-9.475-15.892.064-2.307m-.064 2.307.256.897m23.69-2.243-3.202.64m3.201-.64.064-.897m-3.265 1.538.064-.833m-.064.833-3.393.64m4.674 6.473.512-.257m-.512.257-3.074.961M23.97 28.745l1.28-1.089m-1.28 1.09.32 1.602M57.263 41.24l-.384-.705m.384.705-2.625 1.09M27.683 61.297l-1.088-.897m1.088.897 1.088.705m-1.088-.705-.064-.64m-1.024-.257-1.025-1.217m1.025 1.217.064-.577m7.555 2.307 1.088-.897m-1.088.897-.448-.128m4.481-8.523-.512-.512m.512.512.576.32m-.576-.32-2.88.962m2.368-1.474-.512-.577m.512.577-2.945.961m2.433-1.538-.448-.769m.448.77-3.01.896m-8.643 5.896-.896-1.41m.896 1.41.128-.513m26.827-19.544.512-.32m-.512.32-2.369.897M26.531 25.542l1.536-.257m-1.536.257.192 1.473m12.1 26.786.577.192m-.577-.192-2.817 1.025m1.857 2.563.64-1.986m-.64 1.986-.32.641m-15.75-20.954.768-1.986m-.768 1.986.384 1.474m.896 15.7-.512-1.987m.512 1.986.192.129m15.879-6.088-3.33.705.256.897m3.074-1.602-3.33.64m3.33-.64-.128-.897m-2.241 4.23-.448-.834m.448.833-3.073.897m-4.93 9.484 1.152.32m-1.153-.32-.064-.705m23.306-12.944.128-.769m3.137-2.691-.128-.897m.128.897-3.137.897m-21-20.89 1.472 1.09M31.14 24.9l.064 1.281m16.903 24.671 3.137-.769m-3.137.77.384-.642m-.384.641-3.137.833m6.274-1.602.385-.577m-12.293-1.025V45.92m0 2.563.064 1.282m-.064-1.282.064-2.563v1.346m0 6.728h.576m-.576 0-2.817 1.025M49.26 40.985l.384-.513m-.384.513-2.817.705m-.577 1.345.256-.704M24.674 57.774l-.768-1.666m.768 1.666.192-.385m19.272-4.742.448-.448m-.448.448-3.01.962m3.01-.962-3.01.898m-4.801-2.756-.257-.897m.257.897-3.01.833M56.88 40.536l-.448-.64m.448.64-2.561 1.026m-19.08-12.176-1.216-1.858m1.216 1.858.256 1.218m17.543 8.202.576-.192m-.576.192-2.369.897m-5.058 4.55-3.201.705m3.201-.705.128-.833m-3.33 1.538.129-.833m-.128.833-3.393.577m-17.031 4.1-.128-2.242m.128 2.243.192.512m7.747 12.175 1.152.065m-1.152-.064-.192-.705m10.244-7.626.576-.128m-.576.128-2.753 1.09m-4.61 7.56 1.153-.64m-1.153.64-.448-.448m3.905-12.303-3.137.769m3.137-.769-.256-.961m20.617-9.035-.513-.577m.513.576-2.561 1.026M32.612 25.99l1.409 1.537m-1.409-1.538.128 1.282m3.97 32.36.832-1.602m-.832 1.602-.448.32m17.35-21.338.577-.064m-.577.064-2.433.961m3.97 4.422-.192-.833m.192.833-3.073.897m-28.17 11.215-.64-1.73m.64 1.73.192-.257m28.043-8.266.064-.897m-16.839 7.754-.576-.513m.576.513.64.384m-.64-.384L32.87 55.53m1.92-1.602-.575-.64m.576.64-2.561 1.025m1.985-1.666-.512-.769m.512.77-2.561.96m-9.988-13.585.512-2.114m-.512 2.114.256 1.282m27.723-1.474.512-.448m-.512.448-2.817.705M34.022 27.528l.128 1.282m14.34 21.402 3.138-.705m-3.138.705.257-.705m-.257.705-3.137.833m6.275-1.538.256-.768-3.137.769m-9.796-7.69-.449-2.627m.449 2.627.192 1.474m-3.138 11.534.577.192m-.577-.192-2.432 1.09m11.012-3.717.384-.513m-.384.513-3.01.961m4.546-10.83.32-.64m-5.89 12.175.576-.256m-.576.256-2.689 1.025m-4.161-2.37-.385-.898m.385.897-2.625.897M55.918 39.32l-.512-.385m.512.385-2.497 1.09m-30.284-8.652 1.153-1.41m-1.153 1.41.32 1.602m30.733 5.19.64.129m-.64-.128-2.433 1.025m-14.15-4.421-.96-2.371m.96 2.37.128 1.474M22.561 52.263l-.384-2.115m.384 2.115.192.192m4.866 8.203-.96-.834m.96.834 1.088.64m-1.088-.64.256-.834m-1.216 0-.96-1.153m.96 1.153.256-.768m9.668-4.038.64.065m-.64-.065-2.37 1.154M45.739 43.42l-3.201.705m3.201-.705.256-.77m-3.457 1.475.192-.833m-.192.833-3.393.512m0 7.562.256-2.435m-.256 2.435-.128 1.025m-13.318 5.447-.832-1.282m14.15-9.996-.064-.961m.064.96-3.33.578m3.266-1.538.064-.897m-.064.897-3.33.576m19.784-8.074-.576-.256m.576.256L52.91 39.96m1.92-1.282-2.496 1.025M31.076 62.388l1.089-.193m-1.089.193-.256-.705m2.497-10.06-.384-.962m.384.961-2.689.833m-1.92 8.843 1.024.32m-1.025-.32.128-.897m-.768-35.116 1.537.257m-1.537-.257.192 1.538m7.043 34.411.96-1.281m-.96 1.281-.576-.128m.576.128-.576-.064.896-1.217m19.336-16.79-.32-.832m.32.833-3.073.897m3.073-.897-.256-.834-3.073.898.256.833m-1.729-4.037.512-.32m-.512.32-2.881.704M24.865 57.39l-.767-1.538m.768 1.538.384-.576m-.384.576.448-.576-.704-1.41m27.595-8.715-.064-.897m-14.918 9.292.64-.193m-.64.193-2.305 1.089M21.665 44.189l.256-2.243m-.256 2.243.256 1.025m19.207 8.395-2.689.96m-5.57.962-.64-.577m.64.577.705.385m-.705-.385-1.985 1.154m1.345-1.73-.576-.706m.576.705-2.049 1.09m18.568-6.536 3.137-.705.192-.833m-3.33 1.538.193-.834m-.192.834-3.138.768m-.64 1.41.384-.64m-.384.64-2.945.897M31.653 54.25l-.576-.833m.576.833-2.177 1.026m-6.21-.897-.513-1.923m.512 1.923.256-.193M46.443 41.69l.384-.513M25.25 27.657l1.473-.642m-1.473.641.32 1.666m8.004 26.594.64.256m-.64-.256-1.985 1.153m1.344-6.408-.192-1.025m.192 1.025-2.689.705m2.69-.705-.257-1.025-2.689.64m-.256 11.343 1.088.064m-1.088-.064.064-.898m1.28-7.305-.448-.96m.448.96-2.176.898m6.914-5.383-.128-.961m.128.96-3.073.706m2.945-1.666-.064-.962m.064.962-3.137.576m1.217 13.457.96-.897m-.96.897-.513-.384m5.763-16.084.128-.898m-.128.898-3.33.448m10.308-3.332-3.265.64m3.265-.64.257-.64m-3.522 1.28.32-.64m-.32.64-3.393.513m15.302-1.474-.32-.768m.32.769-3.073.897-.32-.77M34.214 56.173h.704m-.704 0-1.857 1.153m18.311-17.622.512-.128m-.512.128-2.88.77m-9.285 14.93.513-2.179m-.513 2.179-.32.769m-.32-1.282.576-.32m-.576.32-2.305 1.154m-7.683 3.78-.96-.768m.96.768.96.577m-.96-.577.512-.96m-1.472.192.64-.962m-3.457-2.243-.577-1.666m.577 1.666.512-.448m-2.753-8.01.064-2.179m-.064 2.179.192.705m.512-13.008.896-1.73m-.896 1.73.32 1.537m7.747 15.828-.384-1.09m.384 1.09-2.24.833m2.496 3.397-.704-.641m.704.64.705.385m-.705-.385-1.472 1.09m.768-1.73-.704-.77m.704.77-1.6 1.089m12.997-3.973-.449.385m.449-.385.448-.577m-.448.577-2.625.961m2.176-.577L38.44 54.57m-8.963.705-.576-.962m.576.962-1.6.96m11.46-10.316-.192-2.627m.192 2.627.064 1.346M28.836 60.4l.96.32m-.96-.32.448-1.025M52.14 45.79l-.064-.897M32.165 62.195l-.32-.705m.32.705 1.088-.576m-.512-11.983-.192-1.09m.192 1.09-2.753.64m6.659-17.493-1.153-2.18m1.153 2.18.128 1.473M31.589 57.07l.768.256m-.768-.256-1.409 1.217m16.647-17.109.448-.449m-1.92 10.317.255-.769m-.256.77-2.945.833m6.53-3.204 3.138-.705m-3.137.705.064-.834m-.064.834-3.138.768m6.275-1.473.064-.834M25.25 56.813l.768-.77m-.768.77-.64-1.41m10.308.769.64-.128m-.64.128-1.793 1.217m21.193-15.827-.448-.641m.448.64-3.073.898M28.9 54.313l-.513-1.025m.513 1.026-1.665.897M51.18 39.575h.577m-.577 0-2.88.77m-26.123 9.803.256.385m-.256-.385-.128-2.05m8.771 13.585-.064-.897m.064.897 1.025-.193m3.777-14.482.064-1.025m-.064 1.025-3.137.449m3.137-.449.064-.96-3.137.384m-2.945-20.89.192 1.537m-.192-1.537 1.6.64m-2.817 32.681-.832-.769m.832.77 1.025-1.09m-1.025 1.09.897.512m-1.729-1.282-.768-.897m.768.897 1.024-.961m.833.64-.833-.64m.833.64.768.513m-1.6-1.153-.705-.897m-1.088.961 1.088-.961m-1.088.961-.769-1.153m4.226-4.678-.256-1.09m.256 1.09-2.24.705m-.129 4.165-.64-1.025m5.122 2.114-1.345 1.218m1.345-1.218.768.064m-3.33 3.332.385-1.025m-.384 1.026.96.064m7.747-21.595-.768-2.564m.768 2.564.128 1.473M38.44 54.57l.513-.449m-.513.449-2.24 1.153m1.344 2.307.64-1.858m-.64 1.858-.512.385m2.113-13.778.192-.833m-.192.833-3.33.449m10.437-3.076-3.202.641m3.202-.64.384-.578m-3.586 1.218.384-.64m-.384.64-3.393.448M30.18 58.288l-.896 1.089m.896-1.09.832.257m-1.728.833.896.32m-7.427-7.24h.32m-.32 0-.32-1.923M53.87 40.92l-.449-.513m.449.513-3.01.897m.897-2.243.576.128m-.576-.128-2.945.77M28.387 53.287l-1.728.77m1.728-.77-.384-1.217m-.768 3.14-1.217.833m1.217-.833-.576-1.154m-.64 1.987-.577-1.282m-1.92-.577.512-.32m-.513.32-.448-1.73m29.004-7.561-.192-.833M24.61 55.403l.832-.64m-.832.64-.576-1.538m17.99-1.282.385-.704m-.384.704-2.625.962m-3.842 2.499.64-.32m-.64.32-1.728 1.153M22.177 38.55l.704-1.923m-.704 1.923.256 1.346m10.116 8.65-.064-1.089m.064 1.09-2.753.576m17.479-8.395.512-.256m5.634-.064-.512-.448m.512.448-3.009.833m1.92-1.538.577.257m-.576-.257-2.945.833M31.012 58.543l-.832 1.153m.832-1.153h.833m1.28-1.154-1.28 1.154m1.28-1.154.705-.192m2.433 2.756.768-1.538m-.768 1.538h-.64M24.29 30.348l1.28-1.026m-1.28 1.026.32 1.666M49.004 47.84l3.137-.705m-3.137.705.064-.897m-.064.897-3.074.705m3.074-.705-3.138.705m6.275-1.41.064-.897M30.18 59.696h.896M52.91 39.96l-3.01.833m-4.289 9.483.192-.833m-.192.834-2.945.768m-12.677-.769-.192-1.153m.192 1.154-2.305.576m-1.024 3.204-1.217.705m1.217-.705-.448-1.281m9.283-22.172L34.15 28.81m1.344 1.794.128 1.538m.064 13.841.128-.897m-.128.897-3.137.449m-1.793 14.354.32-1.09m-.32 1.09.96-.193m-3.713-8.522-1.793.705m1.793-.705-.32-1.218m11.717-1.09v-2.498m0 2.499-.192 1.153m-13.766 3.845-.512-1.41m9.796 7.754-.576-.32m.576.32.896-1.153m-8.9-32.938 1.537-.192m-1.536.192.256 1.666m11.973 25.44.448-.577m-.448.577-2.177 1.09m-5.57-29.029 1.536 1.09m-1.537-1.09.192 1.538m.449 33.77-.128-.897m.128.897.96-.512m13.83-19.545-3.202.577m3.202-.577.448-.512m-3.65 1.09.385-.45m-.385.45-3.393.448m-6.787 19.16-.448-.641m.448.64.897-.832m5.186-16.982.32-.705m-.32.705-3.33.449m-14.085-2.307.512-2.05m-.512 2.05.256 1.154m9.668 15.443-.769 1.153m.769-1.153.768-.193m15.174-17.878.512-.128m-12.1 15.38.576-.513m-.576.512-1.73 1.09-.64.384m2.37-1.474-1.665 1.09m-10.5-2.948.896-.513m-.896.513-.385-1.602m10.18 4.934-1.216 1.153m1.217-1.153.704-.384m-2.049-9.356.064-1.025m-.064 1.025-2.753.449m1.344 11.79.897-.192m10.436-7.625.256-.834m-.256.834-2.625.897m-13.573 0-1.281.576m1.28-.576-.32-1.346m8.26-22.62-1.409-1.538m1.409 1.538.192 1.474m14.726 16.66 3.137-.705m-3.137.705-.128-.897m.128.897-3.138.641m6.275-1.346-.064-.897m-29.068 7.113.576-.192m-.576.192-.32-1.794m-.832-5.447.192.77m-.192-.77.256-2.114M32.74 27.271l.128 1.538m12.933 20.633.128-.897m-.128.897-2.945.705m-13.061-1.025-.064-1.217m.064 1.217-2.305.449m.192 1.281-1.793.577m1.793-.577-.192-1.281m-5.058.96.32.129m-.32-.128-.128-1.987m2.625 4.806-.384-1.473m-2.497-3.781.256.448m-.256-.448.064-2.115m26.186-5.639h.513m-12.998 4.742.192-.833m-.192.833-3.137.32m14.406-4.485-3.265.64m3.265-.64.448-.32m-3.713.96.512-.384m-.512.385-3.33.448M39.4 53.545l.384-.77m-.384.77-2.113.96m1.729-1.28.192-2.308m-.192 2.307-.385.833m-6.914 6.536.256-1.089m-.256 1.09.896-.513m0-1.73-.64 1.153m.64-1.154.768-.384m5.763-14.674-.513-2.628m.513 2.628v1.41m-1.409-8.075-.96-2.37m.96 2.37.192 1.538m1.729 4.934.384-.64m-.384.64-3.33.385M23.458 33.359l1.153-1.345m-1.153 1.345.32 1.602m12.998 20.25.512-.705m-.512.705L35.11 56.3m16.135-13.841-.385-.641m-2.048-1.474.576.192M31.973 59.504l.768-.448m-.192-12.624.128-1.026m-.128 1.026-2.817.384m19.208-.769 3.2-.705m-3.2.705-.128-.897m.128.897-3.138.641m6.339-1.346-.192-.897M25.89 51.43l-1.344.449m1.344-.45-.256-1.409m17.031 1.025.192-.897m-.192.897-2.561.834m-7.299 9.099-.192-.897m.192.897.896-.77M23.65 52.264l.897-.384m-.897.384-.256-1.666m22.537-2.05-2.945.704m-4.802 6.92.448-2.114m-.448 2.115-.512.448m13.19-14.802-.449-.577m-20.68 6.665v-1.09m0 1.09-2.37.384m22.026-7.754.512.257M27.49 49.572l-1.857.448m1.857-.448-.128-1.282M47.53 40.6l-3.201.577m3.2-.577.513-.192m-3.713.77.512-.193m-.512.192-3.394.449M28.26 26.823l1.537.256m-1.537-.256.256 1.666m5.635 32.297-.449-.577m.449.577.832-1.154M24.546 51.88l-.256-1.474m26.122-9.164-.512-.448m-13.894 3.46.32-.769m-.32.769-3.073.256m4.098 13.906-.64.064m.64-.064.64-1.795m2.113-3.844.32-.898m-.32.898-2.113.897m-2.049 6.28-.64-.32m.64.32.769-1.474M25.57 29.322l1.408-.64m-1.409.64.32 1.666m7.491 26.978 1.153-1.153m-1.153 1.153-.64 1.09m.64-1.09.64-.577m.513-.576.576-.513m4.93-13.841.448-.449m-.448.449-3.33.32M22.88 36.627l.896-1.666m-.896 1.666.256 1.474m-.384 12.56.64-.064m-.64.064-.128-1.858m26.187-3.653 3.137-.705m-3.137.705-.257-.897m.257.897-3.138.577m6.275-1.282-.192-.833M32.613 60.081l.128-1.026m-.128 1.026.832-.705m3.842-4.87.384-.833m-.384.833-1.6 1.025m-.577.769-1.088 1.09m1.088-1.09.576-.769m12.357-15.123-3.201.577m3.201-.577.512-.064m-3.713.64.512-.063m-.512.064-3.33.448m-8.835 3.973.256-.897m-.256.897-2.753.257m12.933 4.485.128-.897m-.128.897-2.56.77m-7.556 8.138.768-.641m-7.875-8.395-1.344.385m1.344-.385-.064-1.41m13.83-1.345-.256-2.563m.256 2.563-.128 1.153m6.658-.833-.064.961m.064-.96-.128-.898m.128.897-2.945.64m2.881.321-2.88.705m-20.681-.705.32.257m-.32-.257v-1.922m14.47-12.368-1.153-2.114m1.153 2.114.192 1.602m-14.534 4.038.704-1.795m-.704 1.794.192 1.218m7.107 5.703.192-1.153m-.192 1.153-2.305.256m-.064 1.218-1.793.32m1.793-.32.064-1.218m21.128-2.82 3.202-.64m-3.202.64-.32-.768m.32.769-3.137.577m6.339-1.218-.32-.769m-28.044 7.754.897-.192m-.897.192-.128-1.666m.128 1.666.897-.256-.128-1.538m12.165-5.319.384-.705m-.384.705-3.074.192m7.235-1.666.448-.384m-.448.384-3.265.257m-15.11 3.716.192.64m-.192-.64.256-1.922m-.192-.962.192.962m-.192-.962.448-1.986m1.665 9.292-.128-1.602m24.393-8.459-3.2.577m3.2-.577.577.064m-3.778.513.512.128m-.512-.128-3.33.448m-8.323 18.84-.256-.833m.256.833.769-1.09m5.634-7.24.192-.962m-.192.962-2.113.897m-3.97 4.613-.512 1.026m.513-1.026.64-.833M29.796 27.08l1.6.64m-1.6-.64.256 1.602m8.58 11.982-.705-2.499m.704 2.5.064 1.473m9.54 1.346 3.202-.64m-3.202.64-.384-.705m.384.705-3.137.513m6.339-1.154-.385-.705m-5.25 4.55-.128-.961m.128.961-2.945.577m-5.186 6.408.32-.897m-.32.897-1.536.96m-.449.898-1.024 1.025m1.024-1.025.449-.897m6.85-5.383v-1.025m0 1.025-2.56.641m8.707-9.484-3.266.64m3.266-.64.512.256m-3.778.385.577.192m-.577-.192-3.265.384m-9.668 3.076.32-.833m-.32.833-2.753.193m9.028 6.215.064-2.499m-.064 2.5-.32.896m.32-.897.064-2.435-.384.961M24.61 32.013l1.28-1.025m-1.28 1.026.256 1.602m.704 14.994-1.408.193m1.408-.193v-1.345m7.94 11.15-.065.96m.064-.96.64-.898m.833 2.115-.512-.512m.512.512.704-1.346M47.851 42.78l3.201-.64m-3.2.64-.385-.64m.384.64-3.201.449m6.402-1.09-.448-.64m-9.668.128.577-.193m-.577.193-3.201.256m-4.29 17.494.705-.961m1.472-26.273-1.28-1.859m1.28 1.859.192 1.602M22.625 48.803l.64.128m-.64-.128.064-1.795m26.955-6.344-3.201.577m3.2-.577.513.32m-3.713.257.512.385m-.512-.385-3.266.449m-6.466 1.09.512-.514m-.512.513-3.074.192-.384.705m3.458-.897-3.01.192m-3.777 2.692.256-.961m-.256.96-2.305.193m-.192 1.218-1.857.192m1.857-.193.192-1.217m19.848-3.717 3.137-.64m-3.137.64-.512-.512m.512.512-3.265.449m6.402-1.09-.448-.512m0 0-3.201.64m0 0-3.266.45M26.98 28.68l1.536-.192m-1.536.192.32 1.667m11.332 23.71.257-2.244m-.257 2.243-.576.577m7.62-8.907-.257-.897m.256.897-2.945.512m-2.433 4.678.128-1.025m-.128 1.025-2.049.77m-1.856 6.792-.705-.193m.705.193.576-1.666m-5.57-29.093 1.472 1.09m-1.473-1.09.193 1.666m-7.427 19.417-.897.128m.897-.128.064-1.474M37.67 56.62l-.704.193m.704-.193.384-1.986m-3.393 1.922-.512.962m.512-.962.448-.96m7.875-7.37-.128-.961m.128.96-2.56.642m-17.16.064v-1.666m18.248-5.832.512-.064m-.512.064-3.266.257m-3.905-11.406-1.473-1.474m1.473 1.474.192 1.602m-12.23 14.738.385.384m-.384-.384.256-1.858m15.43 8.01.256-1.09m-.256 1.09-1.536.833m-3.202-9.933-2.689.128-.384.898m3.073-1.026-2.753.128m2.753-.128.449-.705m-9.924-8.01 1.088-1.345m-1.088 1.345.256 1.538m12.1 18.135-1.024.961m1.025-.961.32-1.025m-3.586-24.8.256 1.603m4.098 11.855.512-.385m-.512.385-3.073.128m11.268 2.435-.32-.833m.32.833-3.01.448M34.47 59.12l-.32-.705m.32.705.64-1.218m4.034-13.2-.449-2.564m.449 2.564-.128 1.281M25.57 47.265l-1.344.064m1.344-.064.192-1.346m16.263-4.55.576.064m-.576-.064-3.202.257m-8.643 3.076-.256 1.025-2.305.128m2.561-1.153-2.305.064m2.305-.064.32-.898m3.65 13.713v.898m0-.898.576-1.025m3.201-18.327-.96-2.306m.96 2.306.064 1.538M22.37 44.061l.192.705m-.192-.705.448-1.859m4.802 3.653-1.857.064m1.857-.064.256-1.09m-4.738-6.664.897-1.602m-.897 1.602.128 1.282m17.16 10.509v-1.025m0 1.025-2.114.705m4.546-3.332-.128-1.026m.128 1.026-2.56.512m-17.672-6.664.192 1.09m-.192-1.09.64-1.73m21.833 4.614-.448-.77m.448.77-3.01.384M34.15 58.415l.576-1.154M42.6 41.433l.576.257m-.576-.257-3.137.257m-16.775 5.318.576.257m-.576-.257.192-1.666m14.854-3.46.512-.192m-.512.192-3.01.128m-10.5 5.319-.96-.064m.96.064.193-1.474m10.692 9.74-.384.897m.384-.897.384-1.153m.192 3.844-.576-.384m.576.384.577-1.537m1.984-5.063.064-1.09m-.064 1.09-1.536.77m7.939-9.228-.448-.641m.448.64-3.01.385M28.516 28.49l1.537.192m-1.537-.192.256 1.666m-2.88.833 1.408-.64m-1.409.64.256 1.666m17.031 9.036.512.384m-.512-.384-3.137.256M36.455 53.61l-.96.833m.96-.833.256-1.154m2.56-4.037-.255-2.435m.256 2.435-.384 1.025m5.314-6.856-.513-.513m.513.513-3.01.32m2.497-.833-3.073.32m-17.35 4.87.255-1.601m19.208.576-.32-.96m.32.96-2.625.449m2.625-.449.128.962-2.56.576m.127 1.09-.128-1.09m.128 1.09-2.113.576M25.762 45.92l-1.344-.064m1.344.064.32-1.217m10.885 12.11-.704-.063m.704.064.384-1.923m.896-13.2.576-.064m-.576.064-2.945.064m-7.427 3.012-1.793-.064m1.793.064.384-1.026m6.467 12.752v.77m0-.77.384-1.281m3.778-3.397v-2.37m0 2.37-.577.641m-15.75-7.69.32.577m-.32-.576.448-1.73m13.958-7.178-1.153-2.114m1.153 2.114.064 1.538m-3.33 5.575.449-.576m-.448.576-2.69.064m3.138-.64.576-.385m-.576.385h-2.625m3.585 15.507-.384-.64m.384.64.512-1.474m2.433-1.794-.704.256m.704-.256.256-2.179m4.098-7.177-.32-.897m.32.897-2.561.385m-1.537 4.934v-1.154m0 1.154-1.472.64m1.856-9.099-.704-2.435m.704 2.435-.128 1.346m-13.701-9.868 1.28-.962m-1.28.962.192 1.602m9.668 22.043.448-1.346m3.65-14.29.64.065m-.64-.064-2.882.064m-.448 12.752-.384.769m.384-.77.32-1.28m-11.396-7.306-.897-.192m.897.192.32-1.346m5.314-15.828 1.537.705m-1.537-.704.192 1.73m10.052 17.365-.192-1.089m.192 1.09-2.049.448m-1.536 4.23.128-1.218m-.128 1.217-.897.705M22.817 42.202l.192.833m-.192-.833.576-1.666m18.696 3.845-.448-.769m.448.77-2.69.32m2.69-.32-2.625.32-.512-.834m-8.452-.064.512-.769m-.512.77-2.24-.065m2.752-.705.513-.64m-.513.64-2.24-.128m-5.89 2.435.64.32m-.64-.32.383-1.602m11.46-1.73.577-.256m-.576.256-2.625-.064m7.363-.256.576.256m-.576-.256-.576-.064-2.946.064m3.522 0-2.881.064m-12.55-5.255 1.025-1.281m-1.024 1.281.128 1.41m1.92 6.793-1.344-.193m1.344.193.384-1.09m-2.945 2.05.32-1.473m-.576-4.806.128 1.153m-.128-1.153.897-1.474m4.097 5.831.512-.833m-.512.833-1.793-.128m9.348-9.868-1.28-1.858m1.28 1.858.128 1.602m5.699 8.266-.449-.705m.449.705-2.69.256m-2.688 12.88-.64-.32m.64.32.384-1.794m-9.348-24.606 1.473-.193m-1.473.193.192 1.73m12.549 9.868.576.449m-.576-.449-2.817.128m1.088 7.37-.064-1.218m.064 1.217-1.472.513m3.265-3.268-.256-1.025m.256 1.025-2.113.384m-2.881 8.139.064.705m-.064-.705.32-1.346m5.762-10.958-.576-.512m.576.512-2.753.193m2.177-.705-2.753.128M31.59 29.386l1.536 1.026m-1.536-1.026.192 1.666m7.235 14.931-.449-2.499m.449 2.5-.385 1.088m-3.329-5.318.64-.064m-.64.064-2.56-.064m-1.217.705.576-.449m-.576.449-2.177-.193m7.49 9.036v-1.282m0 1.282-.896.576m-.128 1.346-.384.705m.384-.705.128-1.346m-1.408-19.928-1.409-1.474m1.409 1.474.128 1.666m.96 22.876-.448-.512m.448.512.32-1.666m-.32 1.666.64.257.385-1.73m.704-.065-.704.064m.704-.064.256-1.986m-2.433 3.011.32-1.537m-10.756-9.869-.896-.32m.896.32.448-1.153m7.94-12.944.127 1.73M23.01 43.035l.256.705m-.256-.705.576-1.537m16.263 4.165-.448-.961m.448.96-2.177.257m.32-6.216-.96-2.307m.96 2.307-.128 1.41m1.025 8.33-.257-2.37m.257 2.37-.577.77m-9.54-7.306.577-.705m-.577.705-1.728-.256m11.204 5.575-.256-1.154m.256 1.154-1.536.449m1.6 3.78-.704.449m.704-.449v-2.243m-2.369-8.522.64.064m-.64-.064-2.497-.128m-6.979 2.05-1.28-.256m1.28.256.577-.961m-.897-9.997 1.345-.576m-1.345.576.128 1.602m-2.432 9.933-.577-.449m.577.449.512-1.282M39.4 44.702l-2.113.192m2.113-.192.384.96-2.113.257m1.729-1.217-.448-.834m.448.834-2.177.192M32.1 41.946l.64-.256m-.64.256-2.113-.192m-6.723 1.986.576-1.474m4.93-12.11 1.473.256m-1.473-.257.129 1.73m6.53 21.98.064.513m-.064-.513.384-.64.128-1.41m-.512 2.05.128-1.474M23.393 40.536l.192.962m-.192-.962.833-1.41m12.357 2.628.64.32m-.64-.32-2.433-.064m2.689 8.266-.128-1.282m.128 1.282-.897.449m3.01-6.537-.513-.769m.513.77-2.177.128m-.833 7.817-.384.577m.384-.577v-1.41M25.058 35.219l1.216-.962m-1.216.962.064 1.473m11.525 18.263-.705-.192m.705.192.192-1.858m1.152-6.023-.32-1.154m.32 1.154-1.536.32m.768-5.319.64.449m-.64-.449-2.37-.064m-10.69-4.101.064 1.218m-.064-1.218.96-1.218M38.439 43.1l-.576-.576m.576.576-2.24.065m-6.851-.962.64-.448m-.64.448-1.665-.256m10.18.577h-2.305m-10.372.833-.832-.449m.832.449.64-1.026m6.915-.64.704-.128m-.704.128-2.049-.257m6.339-4.037-1.089-2.05m1.089 2.05-.064 1.474m1.6 4.614-.704-2.371m.704 2.371-.384 1.218m-2.689 9.676.448.384m-.448-.384.192-1.602M27.043 42.65l-1.217-.32m1.217.32.64-.705m8.26 12.816.192-1.73m1.536-7.113-.384-1.025m.384 1.025-1.537.256m.577 2.5-.256-1.282m.256 1.282-.96.32m-12.166-7.497.256.769m-.256-.77.705-1.281m13.317 12.688-.768.192m.768-.192v-2.115m-7.363-20.377 1.537.64m-1.537-.64.128 1.73m3.073 9.42.705.128m-.705-.128-1.984-.193m-7.107 1.538-.512-.64m.512.64.64-1.153M35.558 52.39l.128.385m-.128-.385v-1.6m-8.067-18.711 1.409-.193m-1.41.193.065 1.666m11.076 13.328-.448-2.37m.448 2.37-.576.898m-2.113 2.435-.192-1.41m.192 1.41-.384.384m-5.57-9.035.704-.32m-.704.32-1.6-.385m9.923 8.843-.704.577m.704-.577-.256-2.242m-.768-3.076-1.665.128m-11.78-2.755.704-1.218m11.396-5.703-1.28-1.794m1.28 1.794-.064 1.538M34.15 41.69l.704.32m-.704-.32-1.921-.192m-6.403.833-.832-.577m.832.577.64-.834m1.217.45.704-.578m-.704.577-1.216-.448m-2.241-2.371.064 1.089m-.064-1.09.96-1.153m11.269 9.42-.32-1.218m.32 1.218-.96.192m.96-.192-.385-1.218-.96.064m-3.33-15.186 1.473 1.089m-1.472-1.09.064 1.666m4.93 11.279.448.897m-.448-.897-.577-.833m.577.833h-1.73m2.178.897-1.6.128m.063 7.754.449.256m-.449-.256v-1.667m1.153 1.987-.704-.064m.704.064V51.11m0 1.986.704-.192.064-2.115M26.275 34.257l1.28-.513m-1.28.513v1.537m8.579 6.216.704.513m-.704-.513-1.857-.192m4.866-.705-.896-2.243m.896 2.243-.32 1.282m-2.881-8.843-1.409-1.41m1.409 1.41v1.602m-3.97 6.28.769-.065m-.769.064-1.536-.384m7.042 2.115-.64-.641m.64.64-1.792-.063m-9.284-6.409.064 1.282m-.064-1.282 1.152-.897m9.284 6.729-1.792-.193m1.792.193-.896-1.666m.896 1.666.64-1.026m-2.945-9.355.064 1.666m2.433 15.187-.256-1.41m.256 1.41-.384.256m.769 3.78v-1.857m-.577-.385.128.32m-.128-.32-.192-1.538m.768-3.076-.512-1.153m.512 1.153-1.024.064m-10.116-4.485-.448-.705m.448.705.768-.897m3.138-8.971 1.472.256m-1.472-.257.064 1.667m-4.674 6.664.256.833m-.256-.833.896-1.09m3.201 2.243.769-.32m-.769.32-1.088-.512m10.308 9.932-.768.32m.768-.32-.256-2.179m-5.89-7.24.768.128m-.768-.129-1.473-.384m-3.521.513-.705-.641m.705.64.832-.64m10.884 3.845-.64-2.307m.64 2.306-.512 1.026m-13.125-4.678.832-.961m12.677 7.882-.704.64m.704-.64-.384-2.243m-2.049-.705-.576-1.025m.576 1.025-1.024-.064m.896 2.627-.384-1.346m.384 1.346-.384.128m.576 3.396.449.065m-.449-.065-.192-1.73m1.473-10.509-1.089-1.986m1.089 1.986-.32 1.41m-4.418 1.218.768.32m-.768-.32-1.409-.385m-5.634-3.14v1.154m0-1.154 1.024-.833m9.156 12.111.128.128m-.128-.128-.256-1.538m-7.555-13.97 1.409-.191m-1.409.192-.064 1.538m7.555 8.715-.64-.898m.64.898-1.088-.129m-4.802-2.82.832-.063m-.832.064-1.025-.513M36.84 51.11l-.704.065m.704-.065-.256-2.05m-6.21-16.917 1.472.576m-1.473-.576v1.602m2.625 8.074.769.513m-.769-.513-1.344-.32m-5.89-.641-.385-.77m.384.77.833-.641m9.54 10.958-.193-1.859m-9.668-13.52-.064 1.345m.064-1.346 1.217-.512m6.915 7.818 1.728.064-.64-.641-1.728-.193m.64.77-.64-.77m.64.77-1.153-.257m.513-.513-1.281-.256M27.3 40.858l.832-.32m-.832.32-.704-.641m8.515 6.023-.512-1.281m.512 1.281h-.448m1.216-9.355-1.216-1.73m1.216 1.73-.256 1.474m-10.436.769.192.96m-.192-.96 1.024-.77m11.333 4.038-.896-2.115m.896 2.115-.512 1.153m-7.043-2.563.832.128m-.832-.128-.96-.577m-3.65-.32.896-.705m11.077 9.227-.768.449m.768-.449-.384-2.114m-5.122-13.778 1.472 1.09m-1.472-1.09-.064 1.667m3.713 14.994.448-.064m-.448.064-.32-1.73m-.064.064-.448-1.474m.448 1.474.064-.064m2.497-1.922-.704.769m.704-.77-.64-2.178m-2.433 1.41-.64-1.09m.64 1.09-.512-.128m.576-9.676-1.345-1.346m1.345 1.346-.192 1.537m-5.506-3.14 1.408.193m-1.408-.192-.128 1.538m4.481-1.282-.192 1.538m-2.305 5.767.833.385m-.833-.385-.832-.577m.832.577-.832-.513m-1.857-.064.897-.128m-.897.128-.576-.705m-.96.385-.32-.833m.32.833.96-.385m-1.345-2.69v1.217m0-1.218 1.217-.513m8.515 12.688.64-.256m-.64.256-.384-1.858m.384 1.858.705-.256-.384-1.986m.32 1.986-.32-1.986m-2.305-3.205-.705-1.025m.705 1.025-.577-.32m-5.89-8.266-.064 1.345m.064-1.345 1.345-.192m2.817 6.407.832.577m-.832-.576-.769-.513m3.778 5.254-.576-1.41m.576 1.41v-.192m1.985-5.767-1.025-1.922m1.025 1.922-.449 1.218m-2.945 1.345-.768-.769m.768.77-.64-.321m-.128-.449-.704-.448m3.393 6.023.384-.192m-.384.192-.512-1.602m-8.387-6.664-.064-1.025m.064 1.025 1.024-.449m1.729 1.474.96.128m-.96-.128-.513-.705m.513.705.96.192m-3.777-2.242 1.088-.449m3.073-4.165 1.409.64m-1.409-.64-.192 1.538m6.787 11.214-.704.576m.704-.576-.576-2.05m-8.836-4.615-.256-.897m.256.897.96-.128m8.516 3.845-.833-2.05m.833 2.05-.64.897m-2.305.385-.705-1.282m.705 1.282v-.32m1.472 2.947.705-.385m-.705.385-.512-1.73m.576-7.37-1.152-1.666m1.152 1.667-.384 1.345m-5.25.833-.448-.64m.448.64.896.449m-3.457-4.358L27.3 37.91m.128-1.282 1.216-.128m.193-1.41 1.344.193m-1.344-.192-.193 1.41m6.019 9.547-.576-1.538m.576 1.538.384-.32m1.217 1.346-.577-1.859m-3.905-10.83 1.344.962m-1.344-.961-.256 1.474m1.856 7.69-.768-1.026m.768 1.025-.064-.384m-6.018-4.23V37.91m0 1.025 1.088-.128m1.601 1.794.896.385m-.896-.385-.448-.705m1.344 1.09.897.64m-.897-.64-.32-.641m-2.049-.64 1.025.191m-1.025-.192-.128-.897m6.083-2.114-1.345-1.346m1.345 1.346-.384 1.41m-1.473 4.42-.832-.896m.832.897-.128-.513m.64-6.664-.256 1.474m-1.088 4.806-.256-.577M27.3 37.91l1.152-.192m7.747 3.78-.96-1.794m.96 1.794-.576 1.09.769 1.858m0 0-.705.77m.705-.77-.769-1.922m-1.536 1.986-.769-1.345m.769 1.345.32-.448m.64 1.666.64-.513m-.64.513-.64-1.666m-4.226-8.78 1.345.578m-1.345-.577-.256 1.41m-.384 3.203 1.024.449m-1.024-.449-.064-.897m-.833-2.499-.192 1.218m.192-1.218 1.28.192m5.763 8.523-.768-1.794m-6.53-4.614.063-1.09m-.064 1.09 1.089.192m3.841 4.166-.832-1.154m.832 1.154.256-.577m1.665-2.884-1.152-1.602m1.152 1.602-.576 1.154m-4.098-.513.96.705m-.96-.705v-.897m-2.113-1.73 1.217.192m4.738 6.152.512-.641m-.512.64-.833-1.473m-2.048-6.729 1.344.962m-1.344-.962-.32 1.41m1.28 4.742-.96-.961m.96.961.192-.705m-1.152-.256-.96-.769v-.833m.96 1.602.128-.833m2.433-2.115-1.217-1.281m1.217 1.281-.513 1.218M29.477 39l.192-1.09M29.477 39l1.088.448m-.64-2.756-.256 1.218m.256-1.218 1.28.577m1.665-.448-.448 1.345m2.497 5.255.704-.897m-.704.897-.832-1.602m1.536.705-.96-1.666m-1.089 1.73-.896-1.282m.896 1.282.513-.77m.576-.96-.576.96m.576-.96-1.089-1.538m-3.905-1.41 1.152.577m-.256.96 1.089.77m-1.089-.77.256-.96m1.857 2.82-1.024-1.09m1.024 1.09.384-.898m-1.857-3.14 1.217.897m-1.216-.897-.385 1.218m.384-1.218-.384 1.154 1.153.833.448-1.09m-.768 2.05.32-.896m2.113 2.499-1.025-1.41m.512-1.09-1.152-1.153m1.152 1.154-.512 1.09m-2.24-1.923 1.152.833m.448-1.154-.448 1.154m.448-1.154 1.152 1.218-.512 1.025m0 0-1.088-1.09"/>
  <path fill="#000" stroke="#000" d="M88.7 29.246c1.957 0 3.54.484 4.743 1.463l.236.202c1.12 1.014 1.82 2.377 2.124 4.128H93.68c-.207-1.182-.738-2.113-1.505-2.817l-.016-.014-.177-.142C91.088 31.372 90.004 31 88.7 31c-1.431 0-2.593.432-3.504 1.258l-.18.17c-.953.955-1.362 2.253-1.362 3.814v10.83c0 1.463.36 2.696 1.19 3.63l.173.183c.936.937 2.157 1.428 3.683 1.428 1.304 0 2.388-.37 3.283-1.065l.177-.142c.846-.717 1.329-1.66 1.523-2.83h2.12c-.285 1.645-.912 2.974-1.89 3.916l-.224.203-.01.009c-1.231 1.114-2.83 1.665-4.979 1.665a9.379 9.379 0 0 1-2.698-.38l-.345-.107a6.79 6.79 0 0 1-2.245-1.36c-.573-.576-1-1.187-1.294-1.877L82 50.044l-.003-.007-.127-.364a6.859 6.859 0 0 1-.353-2.57v-10.86c0-.9.138-1.758.38-2.62l.11-.37c.26-.722.65-1.387 1.165-1.926l.23-.225a6.793 6.793 0 0 1 2.255-1.37 9.364 9.364 0 0 1 3.043-.486Zm16.082 6.215v11.932c0 1.545.369 2.783 1.189 3.632.823.852 2.016 1.226 3.472 1.226 1.463 0 2.668-.393 3.503-1.249.834-.853 1.223-2.087 1.223-3.609V35.461h2.138v11.932c0 2.073-.537 3.594-1.556 4.68l-.21.213c-1.164 1.106-2.821 1.72-5.098 1.72-2.138 0-3.72-.541-4.812-1.512l-.212-.2-.009-.008-.21-.213c-1.017-1.093-1.555-2.665-1.555-4.68V35.461h2.137Zm27.775-.321c1.815 0 3.207.529 4.23 1.548l.2.21c1.049 1.166 1.601 2.764 1.601 4.92v.59h-2.138v-.206c0-1.52-.357-2.748-1.126-3.68l-.159-.183c-.889-.963-2.127-1.379-3.568-1.379-1.364 0-2.589.428-3.463 1.27l-.17.173c-.944.953-1.349 2.246-1.349 3.8v11.546h-2.137V35.526h1.88v3.267h1.153l.091-.386c.21-.894.77-1.705 1.551-2.278l.16-.111c.864-.576 1.915-.877 3.244-.877Zm13.089.321 4.557 13.248.006.017.008.018c.173.404.287.862.42 1.328.035.2.085.402.12.555.041.183.059.291.059.355v.049l.01.049c.053.265.054.476.054.798v.5h1.32v-.5c0-.242.001-.42.024-.607l.031-.191c.068-.28.134-.676.195-1.041l.001-.011.002-.01c.058-.463.173-.866.348-1.274l.009-.022.006-.021 4.306-13.24h2.383l-6.555 18.224h-2.885l-6.676-18.224h2.257Zm26.671-.385c2.27 0 4.057.674 5.289 1.849 1.227 1.169 1.894 2.821 1.894 5.02v3.025h-12.229v2.038c.001 1.561.409 2.859 1.363 3.813.883.949 2.177 1.43 3.683 1.43 1.006 0 1.869-.157 2.627-.428l.319-.124c.749-.313 1.361-.75 1.804-1.372h2.179c-.386.967-1.045 1.762-1.97 2.388l-.228.147c-1.254.777-2.825 1.208-4.667 1.208-2.127 0-3.831-.593-5.051-1.634l-.238-.215c-1.226-1.169-1.894-2.822-1.894-5.02v-5.255c0-2.2.668-3.852 1.894-5.021l.567-.542c1.176-.869 2.738-1.307 4.658-1.307Zm.064 1.82c-1.419 0-2.641.425-3.513 1.204l-.17.16c-.956.892-1.362 2.131-1.362 3.686v1.397h10.091v-1.397c0-1.515-.483-2.805-1.363-3.686h-.001c-.894-.96-2.196-1.364-3.682-1.364Z"/>
</svg>
