<svg xmlns="http://www.w3.org/2000/svg" width="200" height="84" fill="none" viewBox="0 0 200 84">
  <g clip-path="url(#a)">
    <path fill="#000" d="m138.293 9-2.208 8.742-1.603-.436 1.223-5.256c-1.169.768-2.061 1.34-2.939 1.932-8.774 5.923-17.544 11.851-26.319 17.773-.517.348-.865.675-.92 1.43-.107 1.466-1.137 2.283-2.533 2.265-1.34-.016-2.131-.827-2.432-2.272-.103-.492-.438-1.074-.84-1.34a2524.95 2524.95 0 0 0-20.42-13.378c-.403-.261-1.013-.224-1.532-.26-.41-.028-.894.196-1.232.045-1.153-.513-1.935.15-2.789.718a23205.31 23205.31 0 0 1-21.955 14.595c-.6.4-1.144.721-1.176 1.654-.051 1.493-1.37 2.348-2.95 2.104-1.344-.208-2.23-1.623-1.913-3.057.298-1.352 1.798-2.342 3.07-1.828.857.347 1.392.095 2.06-.35 7.53-5.029 15.083-10.026 22.603-15.072.43-.288.818-.892.907-1.406.236-1.354 1.1-2.301 2.391-2.348 1.308-.048 2.477.913 2.548 2.288.038.75.382 1.081.919 1.432a8892.87 8892.87 0 0 1 20.231 13.249c.589.387 1.103.763 1.863.302.312-.19.9-.21 1.217-.035 1.019.564 1.707-.026 2.46-.535 8.926-6.038 17.856-12.072 26.783-18.108.343-.231.676-.477.977-.97h-4.26l-.128-1.877h8.897V9ZM157 60.374c-2.462 4.496-6.588 4.561-10.808 4.062-3.102-.367-3.087-.501-3.087-3.65v-2.954h2.226c.155 1 .263 2.03.495 3.03.089.384.386.848.716 1.02 1.386.727 2.879.98 4.414.585 1.387-.356 2.385-1.171 2.658-2.686.272-1.513-.126-2.785-1.472-3.585-1.144-.68-2.347-1.258-3.517-1.893-.869-.473-1.747-.934-2.587-1.456-1.996-1.24-2.763-3.075-2.494-5.424.247-2.16 1.346-3.705 3.263-4.543 3.039-1.328 6.148-1.12 9.231-.104.239.08.528.476.536.734.051 1.505.026 3.013.026 4.614h-2.225c-.102-.739-.299-1.46-.275-2.174.03-.893-.409-1.298-1.145-1.436-.995-.186-2.009-.425-3.007-.39-1.258.044-2.231.727-2.657 2.014-.438 1.32-.132 2.737 1.023 3.534 1.308.905 2.751 1.616 4.164 2.356 1.76.922 3.541 1.796 4.522 3.698v4.649Z"/>
    <path fill="#000" d="M91.465 62.328v1.932H82.43c-1.16 0-1.637-.648-1.427-1.943.571-.048 1.166-.132 1.762-.142 1.086-.017 1.501-.494 1.487-1.647-.054-4.609-.022-9.218-.022-13.827v-9.74l-.195-.054c-.617 1.63-1.24 3.26-1.85 4.894-2.65 7.11-5.307 14.218-7.934 21.338-.263.713-.487 1.16-1.393 1.163-.897.003-1.15-.427-1.409-1.14-3.021-8.33-6.064-16.65-9.103-24.973-.091-.25-.19-.498-.402-1.054-.047.593-.094.897-.094 1.202-.003 7.242-.003 14.485-.002 21.728 0 1.451.32 1.798 1.75 1.977.526.066 1.046.174 1.66.278v1.859H56.01v-1.865c.609-.093 1.266-.21 1.928-.292.937-.118 1.427-.632 1.427-1.603 0-7.708-.004-15.416.005-23.123 0-.87-.422-1.27-1.233-1.33-.713-.053-1.426-.113-2.194-.174V33.94h9.015l8.667 23.727c2.9-8.052 6.036-15.715 8.724-23.722h9.094v1.824c-.619.062-1.28.152-1.943.186-.828.044-1.238.415-1.237 1.301.011 7.863.01 15.725 0 23.588-.002.799.268 1.232 1.105 1.262.675.024 1.347.139 2.1.222h-.002Zm33.122 1.993c0 2.139-.046 4.456.047 6.766.014.367.604.793 1.016 1.035.297.174.741.1 1.12.117 1.563.072 1.582.093 1.272 1.76h-10.263v-1.571c.164-.06.269-.129.374-.131 3.181-.065 2.589-.865 2.592-2.974.01-7.511.003-15.022.003-22.532v-1.436h-2.88c-.417-1.14-.083-1.647.913-1.89 1.856-.453 3.691-.993 5.727-1.55l.124 2.523c1.109-.611 2.096-1.263 3.162-1.724 3.917-1.693 7.853-.41 10.106 3.227 2.627 4.24 2.196 11.024-.96 14.816-1.928 2.316-4.433 3.448-7.381 3.554-1.617.058-3.238.01-4.973.01h.001Zm-.004-10.457c0 2.28-.021 4.563.022 6.843.007.334.253.877.503.96 2.993.988 6.207 1.035 8.439-1.989.938-1.27 1.572-2.928 1.862-4.502.503-2.74.262-5.49-1.455-7.857-2.353-3.244-6.341-2.758-9.087-.984-.22.143-.269.678-.273 1.032-.024 2.166-.012 4.33-.012 6.496h.001Zm-9.403 8.672v1.717c-1.964 0-3.891.022-5.817-.03-.215-.006-.512-.395-.607-.666-.191-.54-.268-1.12-.413-1.782-1.058.584-2.055 1.185-3.095 1.696-1.848.909-3.77 1.397-5.838.865-2.237-.577-3.53-2.082-3.913-4.329-.381-2.232-.02-4.45 2.031-5.62 2.09-1.192 4.426-1.953 6.686-2.813 1.095-.417 2.281-.582 3.39-.966.311-.108.692-.583.706-.904.038-.92-.022-1.862-.176-2.77-.301-1.782-1.301-2.649-3.11-2.826-.302-.03-.608-.023-.911-.018-2.793.047-3.164.42-3.172 3.175-.002.38 0 .761 0 1.257-1.25 0-2.418.074-3.567-.047-.322-.034-.772-.602-.843-.987-.207-1.132.195-2.118 1.009-2.939 1.6-1.616 3.637-2.25 5.772-2.43 1.609-.134 3.278-.08 4.866.205 2.367.426 3.79 2.278 3.852 4.924.101 4.218.07 8.44.087 12.66.009 2.185.129 2.33 2.262 2.552.225.024.451.043.801.077v-.001Zm-6.839-10.649c-2.574 1.107-4.96 1.954-7.17 3.143-1.78.958-2.268 3.246-1.447 5.08.709 1.58 2.35 2.305 4.344 1.717 1.297-.382 2.529-1.004 3.767-1.57.224-.101.481-.445.484-.682.035-2.42.022-4.839.022-7.687v-.001Zm-65.198-6.672c-.341-.953-.07-1.365.795-1.588 1.851-.477 3.677-1.054 5.774-1.667v18.244c0 1.957.196 2.189 2.112 2.311.553.035 1.052.115.942.807-.043.276-.396.713-.613.717-2.995.048-5.992.032-8.966.032-.327-1.428-.294-1.478.962-1.553 1.586-.095 1.989-.524 1.99-2.148.003-4.57-.04-9.139.028-13.707.019-1.21-.354-1.613-1.489-1.459-.515.07-1.047.012-1.535.012v-.001Zm62.149 28.697c-.245-.302-.584-.566-.72-.913-.57-1.458-1.228-1.891-2.731-1.411-.392.125-.599.844-.899 1.286-.241.353-.493.7-.74 1.048l-.377-.238c.749-2.242 1.486-4.488 2.266-6.718.074-.21.446-.467.644-.44.257.036.609.289.694.53.766 2.167 1.482 4.35 2.213 6.53l-.35.326Zm-1.436-3.07-1.016-3.127-.272.02-.958 3.106h2.246Zm-36.209 2.795c.714-2.15 1.411-4.306 2.162-6.442.101-.287.445-.56.738-.67.151-.057.572.205.642.405.787 2.236 1.529 4.488 2.283 6.736l-.344.253c-.25-.3-.596-.56-.732-.906-.59-1.507-1.159-1.896-2.727-1.429-.393.117-.615.832-.916 1.272l-.737 1.074-.369-.293Zm4.04-2.795c-.38-1.142-.713-2.149-1.046-3.155l-.273.053-.96 3.102h2.279Zm6.996.153c0 .768.033 1.456-.02 2.138-.017.23-.252.443-.388.663-.129-.19-.366-.38-.368-.574a269.65 269.65 0 0 1-.007-6.02c.002-.202.164-.582.232-.578 1.103.074 2.28-.013 3.282.368.986.374.954 1.511.682 2.433-.388 1.315-1.548 1.432-2.653 1.565-.213.026-.433.004-.761.004Zm0-.69c.719-.09 1.34-.05 1.861-.264.836-.342 1.017-1.131.749-1.937-.31-.929-1.132-1.048-1.957-.993-1.012.067-.578.89-.639 1.418-.06.52-.013 1.054-.013 1.777ZM64.05 66.938c-1.092.21-2.27.214-3.23.68-1.177.573-1.435 1.877-1.242 3.122.415 2.677 2.4 2.752 4.704 2.37-1.098 1.204-3.257 1.11-4.43.093-1.425-1.235-1.552-3.902-.368-5.509.851-1.154 3.602-1.792 4.566-.756Zm29.367.405-2.09-.33.034-.353h5.088l.043.325c-.362.068-.727.212-1.083.19-.87-.054-1.215.266-1.175 1.193.065 1.502.04 3.009-.002 4.512-.01.31-.254.612-.39.918-.141-.294-.4-.585-.405-.881-.038-1.847-.02-3.694-.02-5.574Zm20.584 6.362h-3.942c0-2.244-.009-4.472.02-6.7.002-.168.282-.332.434-.498.117.202.333.402.336.606.029 1.659.056 3.32.003 4.978-.027.85.228 1.207 1.091 1.13.682-.061 1.373-.012 2.061-.012l-.003.496ZM87.63 70.22c0 .964.027 1.93-.017 2.893-.011.234-.253.457-.388.685-.141-.217-.4-.432-.404-.651-.031-2.006-.031-4.013.002-6.02.003-.21.277-.414.426-.621.127.195.356.388.363.588.036 1.04.017 2.083.018 3.125Z"/>
  </g>
  <defs>
    <clipPath id="a">
      <path fill="#fff" d="M43 9h114v65H43z"/>
    </clipPath>
  </defs>
</svg>
