<svg width="200" height="84" viewBox="0 0 200 84" fill="black" xmlns="http://www.w3.org/2000/svg">
<path d="M163.354 46.6266V33.4255H164.592L169.781 44.5273L174.942 33.4255H176.198V46.6174H174.915V36.4324L170.212 46.6266H169.341L164.647 36.4324V46.6266H163.354Z" fill="black"/>
<path d="M151.519 46.6266L156.066 33.4255H157.853L162.4 46.6266H160.998L156.68 34.1773H157.212L152.921 46.6266H151.519ZM153.545 43.4272V42.1621H160.365V43.4272H153.545Z" fill="black"/>
<path d="M142.682 46.6266V33.4255H150.932V34.7181H144.029V39.2835H149.832V40.5761H144.029V45.334H150.932V46.6266H142.682Z" fill="black"/>
<path d="M135.955 46.6266V34.7181H131.344V33.4255H141.914V34.7181H137.303V46.6266H135.955Z" fill="black"/>
<path d="M123.008 46.9017C122.043 46.9017 121.172 46.7336 120.395 46.3975C119.625 46.0613 118.99 45.5816 118.489 44.9582C117.994 44.3287 117.679 43.5831 117.544 42.7213L119.836 42.373C120.032 43.1552 120.432 43.7603 121.037 44.1881C121.648 44.6159 122.351 44.8298 123.146 44.8298C123.616 44.8298 124.059 44.7565 124.475 44.6098C124.891 44.4631 125.227 44.2492 125.483 43.9681C125.746 43.687 125.878 43.3417 125.878 42.9322C125.878 42.7488 125.847 42.5808 125.786 42.428C125.725 42.2691 125.633 42.1285 125.511 42.0063C125.395 41.884 125.242 41.774 125.053 41.6762C124.869 41.5723 124.655 41.4837 124.411 41.4104L121.001 40.402C120.707 40.3164 120.389 40.2033 120.047 40.0628C119.711 39.9161 119.39 39.7175 119.085 39.4669C118.785 39.2102 118.538 38.8863 118.342 38.4952C118.153 38.0979 118.058 37.609 118.058 37.0284C118.058 36.1789 118.272 35.4669 118.7 34.8924C119.133 34.3118 119.714 33.8778 120.441 33.5906C121.175 33.3033 121.988 33.1628 122.88 33.1689C123.784 33.175 124.591 33.3308 125.3 33.6364C126.009 33.9359 126.602 34.3729 127.079 34.9474C127.555 35.5219 127.891 36.2155 128.087 37.0284L125.713 37.4409C125.615 36.9764 125.425 36.5822 125.144 36.2583C124.869 35.9283 124.53 35.6777 124.127 35.5066C123.729 35.3355 123.305 35.2438 122.852 35.2316C122.412 35.2254 122.003 35.2927 121.624 35.4332C121.251 35.5677 120.949 35.7633 120.716 36.02C120.49 36.2766 120.377 36.5761 120.377 36.9184C120.377 37.2423 120.475 37.5081 120.671 37.7159C120.866 37.9176 121.107 38.0796 121.395 38.2018C121.688 38.3179 121.985 38.4157 122.284 38.4952L124.649 39.1552C124.973 39.2408 125.337 39.3569 125.74 39.5036C126.143 39.6502 126.532 39.855 126.904 40.1178C127.277 40.3806 127.583 40.7259 127.821 41.1537C128.066 41.5815 128.188 42.1254 128.188 42.7855C128.188 43.47 128.044 44.072 127.757 44.5915C127.476 45.1048 127.094 45.5327 126.611 45.8749C126.128 46.2172 125.575 46.4738 124.952 46.645C124.334 46.8161 123.687 46.9017 123.008 46.9017Z" fill="black"/>
<path d="M107.116 46.6266V33.4255H112.57C112.699 33.4255 112.864 33.4316 113.065 33.4439C113.267 33.45 113.453 33.4683 113.625 33.4989C114.389 33.615 115.018 33.8686 115.513 34.2598C116.014 34.6509 116.384 35.146 116.622 35.7449C116.867 36.3377 116.989 36.9978 116.989 37.725C116.989 38.4462 116.867 39.1063 116.622 39.7052C116.378 40.298 116.005 40.79 115.504 41.1812C115.009 41.5723 114.382 41.8259 113.625 41.942C113.453 41.9665 113.264 41.9848 113.056 41.9971C112.855 42.0093 112.693 42.0154 112.57 42.0154H109.325V46.6266H107.116ZM109.325 39.9527H112.479C112.601 39.9527 112.738 39.9466 112.891 39.9344C113.044 39.9222 113.185 39.8977 113.313 39.8611C113.68 39.7694 113.967 39.6074 114.175 39.3752C114.389 39.1429 114.538 38.8801 114.624 38.5868C114.715 38.2934 114.761 38.0062 114.761 37.725C114.761 37.4439 114.715 37.1567 114.624 36.8633C114.538 36.5638 114.389 36.298 114.175 36.0657C113.967 35.8335 113.68 35.6716 113.313 35.5799C113.185 35.5432 113.044 35.5218 112.891 35.5157C112.738 35.5035 112.601 35.4974 112.479 35.4974H109.325V39.9527Z" fill="black"/>
<path d="M99.6669 46.9015C98.3468 46.9015 97.2162 46.6142 96.275 46.0398C95.3338 45.4592 94.6096 44.6524 94.1023 43.6196C93.6012 42.5867 93.3506 41.3888 93.3506 40.0259C93.3506 38.6631 93.6012 37.4652 94.1023 36.4323C94.6096 35.3995 95.3338 34.5958 96.275 34.0213C97.2162 33.4407 98.3468 33.1504 99.6669 33.1504C100.987 33.1504 102.118 33.4407 103.059 34.0213C104.006 34.5958 104.73 35.3995 105.232 36.4323C105.739 37.4652 105.992 38.6631 105.992 40.0259C105.992 41.3888 105.739 42.5867 105.232 43.6196C104.73 44.6524 104.006 45.4592 103.059 46.0398C102.118 46.6142 100.987 46.9015 99.6669 46.9015ZM99.6669 44.8205C100.553 44.8266 101.29 44.631 101.876 44.2338C102.469 43.8365 102.912 43.2773 103.206 42.5561C103.505 41.835 103.655 40.9916 103.655 40.0259C103.655 39.0603 103.505 38.223 103.206 37.5141C102.912 36.799 102.469 36.2429 101.876 35.8456C101.29 35.4484 100.553 35.2436 99.6669 35.2314C98.7807 35.2253 98.0443 35.4208 97.4576 35.8181C96.8709 36.2154 96.4278 36.7746 96.1283 37.4957C95.835 38.2169 95.6883 39.0603 95.6883 40.0259C95.6883 40.9916 95.835 41.8319 96.1283 42.547C96.4217 43.2559 96.8617 43.809 97.4484 44.2063C98.0412 44.6035 98.7807 44.8083 99.6669 44.8205Z" fill="black"/>
<path d="M86.9014 40.8879V39.1553H92.4018V40.8879H86.9014Z" fill="black"/>
<path d="M76.0771 46.6266V33.4255H81.5318C81.6601 33.4255 81.8251 33.4316 82.0268 33.4439C82.2285 33.45 82.4149 33.4683 82.586 33.4989C83.35 33.615 83.9794 33.8686 84.4745 34.2598C84.9756 34.6509 85.3454 35.146 85.5837 35.7449C85.8282 36.3377 85.9504 36.9978 85.9504 37.725C85.9504 38.4462 85.8282 39.1063 85.5837 39.7052C85.3393 40.298 84.9665 40.79 84.4653 41.1812C83.9703 41.5723 83.3438 41.8259 82.586 41.942C82.4149 41.9665 82.2254 41.9848 82.0176 41.9971C81.8159 42.0093 81.654 42.0154 81.5318 42.0154H78.2865V46.6266H76.0771ZM78.2865 39.9527H81.4401C81.5623 39.9527 81.6998 39.9466 81.8526 39.9344C82.0054 39.9222 82.146 39.8977 82.2743 39.8611C82.641 39.7694 82.9283 39.6074 83.136 39.3752C83.35 39.1429 83.4997 38.8801 83.5852 38.5868C83.6769 38.2934 83.7228 38.0062 83.7228 37.725C83.7228 37.4439 83.6769 37.1567 83.5852 36.8633C83.4997 36.5638 83.35 36.298 83.136 36.0657C82.9283 35.8335 82.641 35.6716 82.2743 35.5799C82.146 35.5432 82.0054 35.5218 81.8526 35.5157C81.6998 35.5035 81.5623 35.4974 81.4401 35.4974H78.2865V39.9527Z" fill="black"/>
<path d="M62.5673 28.4823C62.5673 25.876 60.4556 23.7632 57.8508 23.7632C55.246 23.7632 53.1344 25.876 53.1344 28.4823C53.1344 30.631 53.7199 33.0492 52.6431 34.9082L45.9917 46.3906C45.6846 46.9207 45.0684 47.1699 44.4561 47.1699C43.9984 47.1699 43.5486 46.964 43.3264 46.5638L41.2437 42.8129C40.4406 41.3665 40.6829 39.5751 40.6829 37.9205C40.6829 35.3142 38.5713 33.2014 35.9665 33.2014C33.3616 33.2014 31.25 35.3142 31.25 37.9205C31.25 40.1886 32.6514 41.7923 34.7544 42.3284C36.1879 42.6938 37.6416 43.3217 38.36 44.6156L39.2258 46.175C40.1579 47.8537 39.7396 49.9686 39.7396 51.889C39.7396 54.4953 41.8512 56.6081 44.4561 56.6081C47.0609 56.6081 49.1725 54.4953 49.1725 51.889C49.1725 50.1205 48.8771 48.1853 49.7634 46.6551L55.7109 36.3879C56.8455 34.4292 59.2621 33.5037 60.9574 32.0044C61.9374 31.1378 62.5673 29.8772 62.5673 28.4823Z" fill="black"/>
<path d="M61.8036 41.9998C61.8036 51.4388 54.1517 59.0907 44.7127 59.0907C35.2737 59.0907 27.6219 51.4388 27.6219 41.9998C27.6219 32.5608 35.2737 24.909 44.7127 24.909C47.1641 24.909 49.495 25.4251 51.6026 26.3546C51.9995 25.0816 52.7667 23.972 53.7783 23.1519C51.0358 21.8304 47.9608 21.0898 44.7127 21.0898C33.1645 21.0898 23.8027 30.4516 23.8027 41.9998C23.8027 53.5481 33.1645 62.9098 44.7127 62.9098C56.261 62.9098 65.6227 53.5481 65.6227 41.9998C65.6227 38.5329 64.779 35.2631 63.2857 32.3845C63.0186 32.7322 62.7192 33.0523 62.3935 33.3402C61.7427 33.9154 60.9574 34.4495 60.2671 34.9076C61.2538 37.068 61.8036 39.4697 61.8036 41.9998Z" fill="black"/>
</svg>
