<svg xmlns="http://www.w3.org/2000/svg" width="200" height="84" fill="none" viewBox="0 0 200 84">
  <path fill="#000" d="M91.658 33.434c1.746 0 3.162-1.44 3.162-3.217 0-1.777-1.416-3.217-3.162-3.217s-3.161 1.44-3.161 3.217c0 1.777 1.415 3.217 3.161 3.217Zm-51.368-.061a2.31 2.31 0 0 1 .628-.304c.753-.193 3.652-.097 4.268.14.348.135 1.396.303 2.33.374 2.136.163 2.2.214 2.142 1.685l-.046 1.142-1.543.046c-1.046.03-1.805-.034-2.36-.201-1.026-.31-3.526-.33-4.088-.032a3.759 3.759 0 0 1-.954.306c-.696.115-1.492.86-1.638 1.532-.061.284-.177.558-.257.608-.19.12-.19 1.152 0 1.272.08.05.192.305.248.567.108.496 1.193 1.45 1.653 1.452.134 0 .458.145.72.32.26.176.646.32.856.321.21.001.504.113.652.25.148.136.622.304 1.052.373.431.07.954.248 1.162.396.208.148.611.27.896.27.285 0 .518.074.518.166 0 .092.32.306.712.477.96.419 2.608 2.056 2.608 2.59 0 .223.104.545.232.717.327.44.327 3.4 0 3.841-.128.172-.232.541-.232.82 0 .28-.142.675-.316.879-.174.204-.316.422-.316.484s-.178.308-.396.546c-.217.239-.395.503-.395.587 0 .083-.078.152-.172.152-.095 0-.354.145-.575.322-.221.177-.531.322-.689.322a.535.535 0 0 0-.424.249c-.085.154-.513.304-1.125.392-.543.078-1.1.237-1.239.353-.34.287-3.072.283-3.413-.005-.14-.117-.984-.264-1.955-.34-1.03-.08-1.898-.235-2.184-.39-.26-.142-.602-.258-.758-.259-.25 0-.278-.135-.237-1.167l.047-1.166 2.055.054c1.13.029 2.456.156 2.947.281 1.144.292 1.9.289 2.61-.013.311-.133.713-.241.892-.241 1.032 0 2.64-2.03 2.64-3.333 0-1.051-1.225-2.78-1.97-2.78-.182 0-.453-.145-.602-.322-.18-.213-.466-.321-.853-.321-.32 0-.709-.117-.864-.26-.156-.144-.623-.299-1.04-.346-.416-.046-.927-.219-1.134-.383-.208-.164-.516-.298-.686-.298-.17 0-.49-.145-.712-.322-.22-.177-.526-.322-.677-.322a.694.694 0 0 1-.467-.235 1.252 1.252 0 0 0-.499-.334c-.701-.226-1.64-1.528-1.797-2.494-.065-.394-.216-.912-.336-1.151-.28-.557-.279-1.39.004-2.08.122-.298.273-.904.336-1.346.064-.443.207-.913.319-1.046.958-1.136 1.773-1.928 1.983-1.93.139 0 .417-.145.617-.322.22-.194.592-.322.937-.322.316 0 .714-.1.885-.221Zm22.296 22.965c-.336-.13-.388-22.499-.052-22.637.283-.116 2.66-.12 3.082-.005l.356.097v4.962c0 4.567.022 4.973.276 5.098.5.247 3.042-.007 3.27-.326.112-.154.274-.281.362-.281.24 0 .992-1.179.992-1.558 0-.183.102-.42.226-.525.125-.105.276-.416.335-.69.059-.274.241-.72.405-.994.163-.273.297-.671.298-.886 0-.213.11-.512.244-.663.134-.15.287-.554.34-.897.053-.343.228-.796.389-1.007.16-.211.292-.546.292-.745 0-.198.102-.447.227-.552.124-.105.273-.406.33-.668l.102-.476 2.002.045c2.143.048 2.352.166 1.671.942a1.03 1.03 0 0 0-.223.582c0 .18-.142.512-.316.736-.174.225-.316.55-.316.721 0 .172-.142.48-.316.683-.174.204-.317.523-.317.708 0 .186-.143.555-.315.82-.173.266-.315.636-.315.823-.001.187-.144.524-.317.75-.174.224-.317.549-.317.72 0 .172-.142.48-.316.683-.174.204-.316.508-.316.675 0 .167-.16.522-.354.79-.295.407-.353.694-.353 1.752s.058 1.346.353 1.752c.195.268.354.59.354.713 0 .125.142.41.316.635.174.226.316.551.316.724 0 .174.143.5.317.724.173.225.316.567.316.76 0 .194.142.536.316.761.174.225.316.526.317.669 0 .142.142.477.315.742.173.266.314.598.315.74 0 .14.143.423.317.627.174.204.316.53.316.724 0 .194.146.524.323.732.73.857.444 1.033-1.766 1.083l-1.997.044-.106-.576c-.059-.316-.201-.613-.316-.658-.116-.045-.254-.359-.307-.698-.053-.338-.204-.657-.335-.709-.13-.05-.238-.26-.238-.466 0-.205-.138-.648-.307-.985-.168-.337-.353-.828-.41-1.09-.056-.264-.203-.518-.325-.566-.122-.047-.222-.25-.222-.45s-.142-.547-.316-.772c-.174-.225-.316-.52-.316-.655 0-1.306-3.342-2.455-4.484-1.541l-.416.333v8.626l-.356.097c-.465.126-2.708.13-3.03.003Zm44.205-11.162c-.023-6.149-.006-11.272.036-11.386.058-.154.507-.195 1.78-.16l1.702.045.079 9.587c.064 7.75.12 9.636.294 9.85.187.228.741.268 4.268.305l4.053.043v2.896h-12.171l-.041-11.18Zm22.723 11.264V33.584l3.399.091.04 9.56c.037 8.578.067 9.589.299 9.85.234.262.638.294 4.306.332l4.048.043v2.896l-12.092.084Zm21.339-19.95v-2.9l14.147.084-.037 1.592c-.026 1.158-.102 1.667-.276 1.863-.132.148-.24.454-.24.678 0 .225-.142.592-.316.817-.174.225-.316.514-.316.642s-.178.428-.396.666c-.217.239-.395.539-.395.667s-.073.233-.163.233c-.089 0-.208.127-.264.282-.055.154-.267.486-.469.736-.203.25-.368.558-.368.684 0 .125-.06.228-.132.228-.154 0-1.133 1.499-1.133 1.735 0 .089-.107.203-.237.254-.13.05-.237.192-.237.314 0 .121-.14.35-.312.509-.172.158-.358.44-.415.628-.056.187-.327.63-.602.984-.459.59-.863 1.184-1.277 1.876-.088.147-.391.603-.674 1.013-.282.41-.514.804-.514.874 0 .07-.142.259-.316.42-.367.338-.452 1.74-.118 1.96.108.072 2.224.166 4.702.21l4.505.081v2.735l-14.147.083v-.65c0-.358.101-.812.225-1.007.124-.196.276-.719.339-1.16.062-.443.245-1.057.407-1.366.162-.308.294-.659.294-.779s.142-.402.316-.627c.174-.225.316-.497.316-.604 0-.107.142-.325.316-.486.174-.16.316-.388.316-.507s.075-.216.166-.216c.091 0 .254-.2.362-.443.325-.732.917-1.648 1.065-1.648.077 0 .183-.176.236-.39.053-.215.232-.516.398-.67.166-.152.302-.375.302-.494s.065-.216.143-.216c.079 0 .373-.416.654-.925.281-.508.568-.963.64-1.01.223-.147 1.086-1.514 1.09-1.724.001-.11.062-.201.134-.201.161 0 1.133-1.504 1.133-1.752 0-.098.058-.179.13-.179.303 0 .976-1.336.976-1.939 0-.944-.067-.956-5.285-.956h-4.673Zm-60.551 5.85c.214-.862 1.322-2.058 2.134-2.302.36-.109.603-.224.77-.152.39.167.358 1.35.397 6.014.052 6.367-.088 7.87-.808 8.685-.759.86-1.16 1.207-1.395 1.208-.141 0-.346.108-.454.24-.108.134-.401.242-.652.242h-.454V49.77c0-3.578.062-6.544.138-6.593.077-.047.222-.424.324-.837Z"/>
</svg>
