<svg xmlns="http://www.w3.org/2000/svg" width="200" height="84" fill="none" viewBox="0 0 200 84">
  <path fill="#000" d="M44.06 29.436a3.62 3.62 0 0 1 5.118 0l7.446 7.446 5.077-5.078a3.62 3.62 0 0 1 5.118 5.118L61.742 42l7.445 7.447a3.62 3.62 0 0 1-5.118 5.118l-7.45-7.442-5.059 5.059a3.619 3.619 0 1 1-5.118-5.117l5.06-5.062-7.442-7.448a3.62 3.62 0 0 1 0-5.118Zm41.163 2.86c1.408.202 4.222 1.57 4.222 5.429 0 3.86-2.814 5.227-4.222 5.429l7.238 8.746h-5.429l-7.237-8.445V51.9H75.27V32.296h9.953Zm13.27 5.127a7.238 7.238 0 0 1 7.237 7.238 7.238 7.238 0 1 1-7.237-7.238Zm15.682 0a7.24 7.24 0 0 1 7.138 6.032h-3.725a3.62 3.62 0 1 0-.278 3.016h3.875a7.238 7.238 0 1 1-7.01-9.048Zm13.571 5.127 4.223-4.825h4.825l-5.429 6.635 6.147 6.984 6.822-9.096-7.238-10.253h5.428l4.222 6.333 4.223-6.334h5.427l-6.935 10.254L157 51.9h-5.73l-4.524-6.635-4.825 6.635h-9.048l-5.127-5.73v5.73h-4.222V31.09h4.222v11.46Zm-29.253-1.508a3.62 3.62 0 1 0 0 7.239 3.62 3.62 0 0 0 0-7.239Zm-44.002-2.028a4.223 4.223 0 0 0-.001 5.972l2.133 2.133 2.133-2.133a4.223 4.223 0 0 0 0-5.972l-2.132-2.132-2.133 2.132Zm25.304.822h3.317a2.112 2.112 0 0 0 0-4.222h-3.317v4.222Z"/>
</svg>
