<svg width="40" height="40" viewBox="0 0 40 40" fill="none" xmlns="http://www.w3.org/2000/svg">
<path d="M26.179 30.1734V30.4675C20.423 33.3776 15.5424 31.484 13.8217 30.1734L20.0001 26.8299L26.179 30.1734Z" fill="white"/>
<path d="M19.6792 26.1345L15.3997 28.4347L18.4222 16.6662H19.6792V26.1345Z" fill="white"/>
<path d="M24.6269 28.4347L20.4545 26.1345V16.6662H21.7383L24.6269 28.4347Z" fill="white"/>
<path fill-rule="evenodd" clip-rule="evenodd" d="M20.0269 8C20.3519 8 20.6152 8.26339 20.6152 8.58833C20.6152 8.85685 20.4354 9.08262 20.1895 9.15322L20.2967 9.41773L22.1396 10.514V11.1564H21.6317V13.1089H23.664V15.1418L22.6208 16.1046H17.3785L16.362 15.1418V13.1089H18.4217V11.1564H17.8597V10.514L19.75 9.41773L19.7504 9.41726L19.8619 9.15275C19.6174 9.08131 19.4386 8.85593 19.4386 8.58833C19.4386 8.26343 19.702 8.00006 20.0269 8ZM19.1975 13.1089H20.8558V11.1564H19.1975V13.1089Z" fill="white"/>
<path d="M17.8333 12.5923L11.8955 13.5633L13.0559 12.2259H17.8333V12.5923Z" fill="white"/>
<path d="M28.1047 13.5633L22.1669 12.5923V12.2259L26.9439 12.1604L28.1047 13.5633Z" fill="white"/>
<path d="M17.8333 11.4769V11.8251H13.0559L11.8955 10.4609L17.8333 11.4769Z" fill="white"/>
<path d="M26.9439 11.8251H22.1669V11.4769L28.1047 10.4609L26.9439 11.8251Z" fill="white"/>
</svg>
