<svg xmlns="http://www.w3.org/2000/svg" width="81" height="80" fill="none" viewBox="0 0 81 80">
  <g filter="url(#a)" opacity=".6">
    <path fill="#D37E00" fill-rule="evenodd" d="M32.995 13h-.374v.003c-3.852.03-5.226.294-5.538.492-.077.049-.05.145-.007.225l1.83 3.445-.003-.002c.056.105.107.314-.145.314h-1.9c-.417 0-1.196.312-1.196 1.181v6.493c-2.122 1.908-2.63 5.308-2.59 7.009 0 5.915 3.567 12.994 5.916 17.654C30.14 52.101 31 53.806 31 54.505c0 2.124-1.455 4.986-3.097 6.048-1.313.85-1.641 1.985-1.641 2.447h13.443c0-.462-.329-1.597-1.642-2.447-1.642-1.062-3.096-3.924-3.096-6.048 0-.7.859-2.404 2.012-4.691 2.348-4.66 5.916-11.74 5.916-17.654.04-1.701-.469-5.101-2.59-7.01v-6.49c0-.87-.78-1.182-1.196-1.182h-1.901c-.251 0-.201-.21-.145-.314l-.002.002 1.83-3.445c.042-.08.069-.177-.008-.225-.311-.198-1.686-.463-5.538-.492V13h-.35Zm3.992 5.47a.597.597 0 0 0-.533.386c-.318 1.686-.112 4.023 2.177 5.25.238-.136.478-.376.478-.748v-4.425c-.008-.154-.107-.463-.446-.463h-1.676Zm-8.008 0c.143 0 .41.083.534.386.317 1.686.112 4.023-2.178 5.25-.238-.136-.477-.376-.477-.748v-4.425c.007-.154.106-.463.445-.463h1.676Z" clip-rule="evenodd"/>
  </g>
  <path fill="#000" fill-rule="evenodd" d="M39.995 15h-.374v.003c-3.852.03-5.226.294-5.538.492-.077.049-.05.145-.007.225l1.83 3.445-.003-.002c.056.105.107.314-.145.314h-1.9c-.417 0-1.196.312-1.196 1.181v6.493c-2.122 1.908-2.63 5.308-2.59 7.009 0 5.915 3.567 12.994 5.916 17.654C37.14 54.101 38 55.806 38 56.505c0 2.124-1.455 4.986-3.097 6.048-1.313.85-1.642 1.985-1.642 2.447h13.445c0-.462-.329-1.597-1.642-2.447-1.642-1.062-3.096-3.924-3.096-6.048 0-.7.859-2.404 2.012-4.691 2.348-4.66 5.916-11.74 5.916-17.654.04-1.701-.469-5.101-2.59-7.01v-6.49c0-.87-.78-1.182-1.196-1.182h-1.901c-.251 0-.201-.21-.145-.314l-.002.002 1.83-3.445c.042-.08.069-.177-.008-.225-.311-.198-1.686-.463-5.538-.492V15h-.35Zm3.992 5.47a.597.597 0 0 0-.533.386c-.318 1.686-.112 4.023 2.177 5.25.238-.136.478-.376.478-.748v-4.425c-.008-.154-.107-.463-.446-.463h-1.676Zm-8.008 0c.143 0 .41.083.534.386.317 1.686.112 4.023-2.178 5.25-.238-.136-.477-.376-.477-.748v-4.425c.007-.154.106-.463.445-.463h1.676Z" clip-rule="evenodd"/>
  <defs>
    <filter id="a" width="45.827" height="76" x="10.069" y="0" color-interpolation-filters="sRGB" filterUnits="userSpaceOnUse">
      <feFlood flood-opacity="0" result="BackgroundImageFix"/>
      <feBlend in="SourceGraphic" in2="BackgroundImageFix" result="shape"/>
      <feGaussianBlur result="effect1_foregroundBlur_52_17202" stdDeviation="6.5"/>
    </filter>
  </defs>
</svg>
