<svg xmlns="http://www.w3.org/2000/svg" width="81" height="80" fill="none" viewBox="0 0 81 80">
  <g filter="url(#a)" opacity=".2">
    <path fill="#000" d="M49.433 46.333h-1.965c-.246 0-.445.2-.445.445v1.355a.932.932 0 0 1-.273.658l-.125.125a.93.93 0 0 1-.658.273h-8.324a.93.93 0 0 1-.659-.273l-.125-.125a.932.932 0 0 1-.272-.658v-1.355c0-.246-.2-.445-.446-.445h-1.965c-.246 0-.446.2-.446.445v1.965c0 .246.2.446.446.446h1.48a.931.931 0 0 1 .93.931v1.437c0 .269.22.488.488.488h9.461a.49.49 0 0 0 .488-.488V50.12a.93.93 0 0 1 .93-.931h1.48c.246 0 .446-.2.446-.446v-1.965c0-.246-.2-.445-.446-.445Z"/>
  </g>
  <g clip-path="url(#b)" filter="url(#c)">
    <path fill="url(#d)" d="m42.72 36.368 14.043-14.041L51.435 17 40.058 28.378 28.68 17l-5.327 5.327 14.041 14.041a3.755 3.755 0 0 0 2.664 1.103c.964 0 1.927-.367 2.663-1.103Zm20.328 15L51.67 39.99l11.378-11.378-5.327-5.326L43.68 37.327a3.767 3.767 0 0 0 0 5.327l14.04 14.041 5.327-5.327Zm-23.01.254L51.416 63l5.327-5.327L42.7 43.632a3.767 3.767 0 0 0-5.327 0l-14.04 14.041L28.66 63l11.378-11.378Zm-3.622-8.949a3.766 3.766 0 0 0 0-5.327L22.375 23.305l-5.327 5.327L28.426 40.01 17.048 51.388l5.327 5.327 14.04-14.042Z"/>
  </g>
  <g clip-path="url(#e)" filter="url(#f)" opacity=".5">
    <g filter="url(#g)">
      <path fill="url(#h)" d="m42.72 33.368 14.043-14.041L51.435 14 40.058 25.378 28.68 14l-5.327 5.327 14.041 14.041a3.755 3.755 0 0 0 2.664 1.103c.964 0 1.927-.367 2.663-1.103Zm20.328 15L51.67 36.99l11.378-11.378-5.327-5.326L43.68 34.327a3.767 3.767 0 0 0 0 5.327l14.04 14.041 5.327-5.327Zm-23.01.254L51.416 60l5.327-5.327L42.7 40.632a3.767 3.767 0 0 0-5.327 0l-14.04 14.041L28.66 60l11.378-11.378Zm-3.622-8.949a3.766 3.766 0 0 0 0-5.327L22.375 20.305l-5.327 5.327L28.426 37.01 17.048 48.388l5.327 5.327 14.04-14.042Z"/>
    </g>
  </g>
  <defs>
    <filter id="a" width="28.148" height="17.712" x="27.73" y="40.333" color-interpolation-filters="sRGB" filterUnits="userSpaceOnUse">
      <feFlood flood-opacity="0" result="BackgroundImageFix"/>
      <feBlend in="SourceGraphic" in2="BackgroundImageFix" result="shape"/>
      <feGaussianBlur result="effect1_foregroundBlur_52_17189" stdDeviation="3"/>
    </filter>
    <filter id="c" width="51.964" height="51.964" x="14.066" y="14.018" color-interpolation-filters="sRGB" filterUnits="userSpaceOnUse">
      <feFlood flood-opacity="0" result="BackgroundImageFix"/>
      <feColorMatrix in="SourceAlpha" result="hardAlpha" values="0 0 0 0 0 0 0 0 0 0 0 0 0 0 0 0 0 0 127 0"/>
      <feOffset/>
      <feGaussianBlur stdDeviation="1.491"/>
      <feColorMatrix values="0 0 0 0 0 0 0 0 0 0 0 0 0 0 0 0 0 0 0.13 0"/>
      <feBlend in2="BackgroundImageFix" result="effect1_dropShadow_52_17189"/>
      <feBlend in="SourceGraphic" in2="effect1_dropShadow_52_17189" result="shape"/>
    </filter>
    <filter id="f" width="74" height="74" x="3.048" y="0" color-interpolation-filters="sRGB" filterUnits="userSpaceOnUse">
      <feFlood flood-opacity="0" result="BackgroundImageFix"/>
      <feBlend in="SourceGraphic" in2="BackgroundImageFix" result="shape"/>
      <feGaussianBlur result="effect1_foregroundBlur_52_17189" stdDeviation="7"/>
    </filter>
    <filter id="g" width="51.964" height="51.964" x="14.066" y="11.018" color-interpolation-filters="sRGB" filterUnits="userSpaceOnUse">
      <feFlood flood-opacity="0" result="BackgroundImageFix"/>
      <feColorMatrix in="SourceAlpha" result="hardAlpha" values="0 0 0 0 0 0 0 0 0 0 0 0 0 0 0 0 0 0 127 0"/>
      <feOffset/>
      <feGaussianBlur stdDeviation="1.491"/>
      <feColorMatrix values="0 0 0 0 0 0 0 0 0 0 0 0 0 0 0 0 0 0 0.13 0"/>
      <feBlend in2="BackgroundImageFix" result="effect1_dropShadow_52_17189"/>
      <feBlend in="SourceGraphic" in2="effect1_dropShadow_52_17189" result="shape"/>
    </filter>
    <linearGradient id="d" x1="17.048" x2="63.048" y1="40" y2="40" gradientUnits="userSpaceOnUse">
      <stop stop-color="#009DFF"/>
      <stop offset="1" stop-color="#00B2FD"/>
    </linearGradient>
    <linearGradient id="h" x1="17.048" x2="63.048" y1="37" y2="37" gradientUnits="userSpaceOnUse">
      <stop stop-color="#009DFF"/>
      <stop offset="1" stop-color="#00B2FD"/>
    </linearGradient>
    <clipPath id="b">
      <path fill="#fff" d="M17.048 17h46v46h-46z"/>
    </clipPath>
    <clipPath id="e">
      <path fill="#fff" d="M17.048 14h46v46h-46z"/>
    </clipPath>
  </defs>
</svg>
