<svg xmlns="http://www.w3.org/2000/svg" width="81" height="80" fill="none" viewBox="0 0 81 80">
  <g filter="url(#a)">
    <path fill="#F6EEE4" fill-rule="evenodd" d="M32.21 19.67v-2.854c.036-2.088 1.137-3.73 2.947-4.428a5.082 5.082 0 0 1 5.66 1.223 4.365 4.365 0 0 1 1.223 3.013v2.981c.61.124 1.206.108 1.796.093.282-.008.563-.015.842-.008.573.017 1.126.011 1.693.006.29-.003.583-.006.884-.006a12.54 12.54 0 0 0 .073-2.348 7.63 7.63 0 0 1 .168-1.745 4.75 4.75 0 0 1 4.599-3.552c2.381-.036 4.334 1.318 4.893 3.41a7.56 7.56 0 0 1 .2 1.842v2.222c.177.22.39.202.593.185.053-.005.106-.01.157-.01h5.574c.358-.015.716.012 1.068.082a2.105 2.105 0 0 1 1.696 1.79 5.411 5.411 0 0 1-.118 2.23 10.877 10.877 0 0 1-2.3 4.486 37.334 37.334 0 0 1-3.482 3.429c-.359.326-.722.66-1.052 1.019a2.598 2.598 0 0 0-.705 1.86c.024 4.04.032 8.085 0 12.13-.035 5.066-3.579 9.48-8.518 10.609-.856.2-1.734.3-2.614.298-.75 0-1.498.003-2.247.006-1.496.006-2.992.013-4.5-.006-5.363-.021-9.964-3.97-10.797-9.268a12.515 12.515 0 0 1-.135-2.145c0-1.24-.007-2.48-.014-3.719-.015-2.479-.03-4.957.014-7.433a3.552 3.552 0 0 0-1.223-2.854c-1.027-.95-2.053-1.902-3.079-2.854a12.07 12.07 0 0 1-2.968-4.42 6.82 6.82 0 0 1-.522-2.76c.05-1.68.852-2.488 2.569-2.504h7.625Zm7.645 4.84-.003-.002a.776.776 0 0 0-.642-.165h-7.425c-1.198.004-1.671.55-1.476 1.729a4.827 4.827 0 0 0 1.326 2.67l.014.015.137.139c.499.507 1 1.017 1.533 1.485a3.263 3.263 0 0 1 1.13 2.67 232.038 232.038 0 0 0-.008 4.5c.003.749.007 1.496.007 2.245v7c.153 3.505 3.159 6.264 6.662 6.117 1.298-.048 2.595-.038 3.893-.028.917.006 1.835.013 2.754 0a6.33 6.33 0 0 0 1.143-.127 6.31 6.31 0 0 0 4.626-3.87c.526-1.318.478-2.687.431-3.997-.01-.274-.019-.546-.023-.814-8.684-3.253-13.531-9.118-14.035-17.996a27.544 27.544 0 0 1-.044-1.457v-.114Zm9.573 12.224a2.099 2.099 0 0 0 2.088 2.088 2.1 2.1 0 0 0 2.088-2.088c0-.474-.162-.914-.432-1.266a2.09 2.09 0 0 0-1.656-.822 2.1 2.1 0 0 0-2.088 2.088Zm4.47-18.124c.01-.675.018-1.336-.01-2.014a1.477 1.477 0 0 0-.07-.393c-.178-.55-.682-.855-1.389-.896-.986-.073-1.675.335-1.761 1.15a15.45 15.45 0 0 0 0 3.189h.003v.012h3.218c0-.356.005-.704.01-1.048Zm-15.212.963c.03-.047.051-.082.051-.119l.003-.378c.01-.3.016-.6.018-.901.009-.35.016-.7.016-1.05a3.15 3.15 0 0 0-.09-.778c-.185-.688-.752-1.064-1.552-1.057-.066 0-.135.004-.205.01-.832.064-1.378.53-1.41 1.312-.022.663-.015 1.326-.008 2.001.004.342.007.687.007 1.037h.013l3.106.008a1.36 1.36 0 0 1 .051-.085Zm-.107 19.245c1.13 0 2.066-.92 2.083-2.051v-.11a2.048 2.048 0 0 0-2.038-2.007h-.045a2.094 2.094 0 0 0-2.084 2.084c0 1.143.94 2.084 2.084 2.084Z" clip-rule="evenodd"/>
  </g>
  <path fill="#030202" fill-rule="evenodd" d="M29.497 26.845v-2.547c.033-1.863 1.015-3.33 2.63-3.952a4.535 4.535 0 0 1 5.051 1.092 3.895 3.895 0 0 1 1.092 2.689v2.66c.544.11 1.076.097 1.603.083.252-.007.502-.014.751-.007.511.015 1.005.01 1.511.005.259-.002.52-.005.79-.005.087-.695.108-1.396.065-2.096-.01-.523.04-1.045.149-1.557a4.24 4.24 0 0 1 4.104-3.17c2.125-.032 3.869 1.176 4.367 3.043a6.75 6.75 0 0 1 .178 1.645v1.983c.159.195.349.18.53.164.047-.004.094-.008.14-.008h4.974c.32-.014.64.01.954.073a1.878 1.878 0 0 1 1.513 1.597 4.83 4.83 0 0 1-.105 1.99 9.708 9.708 0 0 1-2.052 4.003 33.309 33.309 0 0 1-3.108 3.06c-.32.292-.644.59-.939.91a2.32 2.32 0 0 0-.63 1.66c.023 3.606.03 7.216 0 10.825a9.808 9.808 0 0 1-7.6 9.468c-.765.18-1.548.27-2.334.266-.67 0-1.337.003-2.005.006-1.335.005-2.67.011-4.017-.006-4.786-.018-8.892-3.543-9.635-8.27a11.225 11.225 0 0 1-.12-1.915c0-1.106-.007-2.212-.013-3.319-.013-2.212-.026-4.423.013-6.633a3.17 3.17 0 0 0-1.092-2.547 3020.06 3020.06 0 0 1-2.747-2.547 10.771 10.771 0 0 1-2.65-3.945 6.086 6.086 0 0 1-.465-2.464c.044-1.499.76-2.22 2.292-2.234h6.805Zm6.823 4.32-.004-.003a.693.693 0 0 0-.571-.147h-6.627c-1.07.004-1.492.492-1.317 1.543.133.9.547 1.734 1.183 2.384l.016.016.119.12c.445.453.893.908 1.368 1.326a2.915 2.915 0 0 1 1.008 2.383c-.02 1.345-.013 2.681-.007 4.017.003.667.006 1.334.006 2.003v6.247c.137 3.127 2.82 5.59 5.946 5.459 1.158-.043 2.316-.034 3.474-.026.819.006 1.638.012 2.458 0a5.63 5.63 0 0 0 1.02-.112 5.63 5.63 0 0 0 4.129-3.454c.47-1.177.426-2.398.385-3.568a36.309 36.309 0 0 1-.021-.726c-8.199-3.07-12.565-8.751-12.565-17.463Zm10.407 9.046a1.839 1.839 0 0 1 1.216.456 1.846 1.846 0 0 1 .327 2.445c-.15.22-.345.408-.572.548a1.845 1.845 0 0 1-.971.277 1.872 1.872 0 0 1-1.863-1.863c0-1.022.84-1.863 1.863-1.863Zm2.117-13.377c0-.317.005-.628.009-.934.008-.604.016-1.193-.009-1.798a1.314 1.314 0 0 0-.065-.356c-.16-.488-.608-.758-1.237-.794-.88-.066-1.496.298-1.572 1.026a13.78 13.78 0 0 0 0 2.845h.002l.002.011h2.87Zm-13.567-.076c.026-.041.046-.073.046-.106 0-.113 0-.226.002-.34.009-.265.014-.532.016-.798.008-.313.014-.627.014-.94a2.814 2.814 0 0 0-.08-.694c-.165-.615-.671-.95-1.386-.944-.059 0-.12.003-.182.008-.742.059-1.23.473-1.26 1.172-.018.592-.012 1.183-.006 1.786.004.305.007.613.007.925h.01l2.774.007a.728.728 0 0 1 .045-.076Zm-.096 17.175a1.868 1.868 0 0 0 1.86-1.83v-.098a1.828 1.828 0 0 0-1.82-1.79h-.04c-1.02 0-1.86.839-1.86 1.859s.84 1.86 1.86 1.86Z" clip-rule="evenodd"/>
  <defs>
    <filter id="a" width="68.326" height="69.639" x="10.015" y="0" color-interpolation-filters="sRGB" filterUnits="userSpaceOnUse">
      <feFlood flood-opacity="0" result="BackgroundImageFix"/>
      <feBlend in="SourceGraphic" in2="BackgroundImageFix" result="shape"/>
      <feGaussianBlur result="effect1_foregroundBlur_52_17421" stdDeviation="6"/>
    </filter>
  </defs>
</svg>
