<svg xmlns="http://www.w3.org/2000/svg" width="80" height="80" fill="none" viewBox="0 0 80 80">
  <path fill="#446FE1" fill-rule="evenodd" d="M53.603 24.102 35.874 41.606l-.003-.003a1.366 1.366 0 0 1-1.927 0l-9.547-9.43a1.344 1.344 0 0 1-.397-.95 1.335 1.335 0 0 1 .397-.95l3.865-3.805a1.365 1.365 0 0 1 1.925 0l4.721 4.664 12.917-12.736a1.365 1.365 0 0 1 1.925 0l3.853 3.807a1.338 1.338 0 0 1 0 1.9Zm7.804 11.62L36.55 60.412h-.004a2.018 2.018 0 0 1-2.846 0L19.592 46.4a1.993 1.993 0 0 1 0-2.834l3.334-3.309a2.015 2.015 0 0 1 2.846 0l9.359 9.294 20.113-19.963a2.018 2.018 0 0 1 2.848 0l3.324 3.3a2 2 0 0 1-.01 2.834Z" clip-rule="evenodd"/>
  <g filter="url(#a)" opacity=".6">
    <path fill="#446FE1" fill-rule="evenodd" d="M59.603 21.102 41.874 38.606l-.003-.003a1.366 1.366 0 0 1-1.927 0l-9.547-9.43a1.344 1.344 0 0 1-.397-.95 1.335 1.335 0 0 1 .397-.95l3.865-3.805a1.365 1.365 0 0 1 1.925 0l4.721 4.664 12.917-12.736a1.365 1.365 0 0 1 1.925 0l3.853 3.807a1.338 1.338 0 0 1 0 1.9Zm7.804 11.62L42.55 57.412h-.004a2.018 2.018 0 0 1-2.846 0L25.592 43.4a1.993 1.993 0 0 1 0-2.834l3.334-3.309a2.015 2.015 0 0 1 2.846 0l9.359 9.294 20.113-19.963a2.018 2.018 0 0 1 2.848 0l3.323 3.3a2 2 0 0 1-.008 2.834Z" clip-rule="evenodd"/>
  </g>
  <defs>
    <filter id="a" width="67" height="67" x="13" y="3" color-interpolation-filters="sRGB" filterUnits="userSpaceOnUse">
      <feFlood flood-opacity="0" result="BackgroundImageFix"/>
      <feBlend in="SourceGraphic" in2="BackgroundImageFix" result="shape"/>
      <feGaussianBlur result="effect1_foregroundBlur_52_21033" stdDeviation="6"/>
    </filter>
  </defs>
</svg>
