<svg xmlns="http://www.w3.org/2000/svg" width="81" height="80" fill="none" viewBox="0 0 81 80">
  <g clip-path="url(#a)">
    <g filter="url(#b)" opacity=".8">
      <path fill="#0021DB" d="m8.651 24.949-.05.121 21.059 8.766.05-.12-21.059-8.767Z" opacity=".8"/>
      <path fill="#0021DB" d="m8.651 24.949-.05.121 21.059 8.766.05-.12-21.059-8.767ZM41.075 51.37l-.41 22.39.162.004.41-22.39-.162-.003ZM18.46 13.032l-.16.145 14.587 16.178.16-.145L18.46 13.032Zm17.218 36.903-9.573 19.284.214.106 9.573-19.284-.214-.106ZM31.638 6.46l.263-.078 6.038 20.201-.262.077-6.039-20.2ZM15.206 59.487l-.178-.232 16.41-12.904.177.224-16.41 12.912ZM46.25 6l-3.086 20.26.32.05L46.57 6.049 46.25 6ZM9.414 46.15l-.077-.331 19.815-4.51.07.324-19.808 4.518ZM60.01 65.549l-.294.2L48.34 49.124l.294-.201 11.374 16.626Zm-.55-53.885.31.209L48.573 28.42l-.301-.209L59.46 11.664ZM9.816 31.865l.085-.37 19.344 4.293-.078.37-19.351-4.293Zm33.74 19.127-.389.063 3.106 19.413.389-.062-3.106-19.414Zm-27.4-31.683.262-.332L31.7 30.86l-.262.332L16.156 19.31ZM32.72 69.147l-.418-.124 5.406-18.44.409.124-5.398 18.44Zm-5.638-58.371.402-.2 8.525 16.903-.401.2-8.525-16.903ZM20.82 62.158l-.348-.309 12.502-14.03.348.308L20.82 62.158ZM40.403 7.764l.486-.015.464 18.525-.495.008-.455-18.518ZM13.152 50.93l-.193-.455 16.934-7.181.201.463-16.942 7.174Zm40.409-40.247.479.209-7.367 16.58-.47-.21 7.358-16.579ZM11.036 37.687l.023-.532 18 .749-.023.532-18-.749ZM51.6 67.178l-.51.185-5.876-16.903.517-.178L51.6 67.178ZM14.727 24.97l.263-.495 15.62 8.215-.262.494-15.622-8.216Zm23.745 43.451-.563-.062L39.8 50.923l.563.062-1.892 17.436ZM23.383 15.17l.48-.355 10.385 13.838-.47.355L23.382 15.17Zm2.85 48.819-.51-.317 8.989-14.649.517.317-8.996 14.649Zm9.019-53.908.603-.123 3.398 16.61-.603.13-3.398-16.617Zm-18.077 44.78-.347-.525 14.116-9.197.347.525-14.116 9.197Zm30.819-44.324.633.154-3.97 16.147-.625-.155 3.962-16.146ZM12.928 42.892l-.093-.649 16.379-2.231.085.656-16.37 2.224Zm42.811 20.641-.587.324-8.03-14.316.578-.325 8.039 14.317ZM59.19 16.32l.526.433-10.301 12.64-.525-.424 10.3-12.649ZM14.194 30.405l.201-.648 15.444 4.896-.2.656-15.445-4.904Zm29.514 36.533-.695.047-1.104-16.062.687-.046 1.112 16.061Z" opacity=".8"/>
      <path fill="#0022DB" d="m20.596 19.78.479-.518 11.629 10.834-.479.518-11.63-10.834Zm10.926 45.112-.671-.263 5.768-14.695.664.255-5.76 14.703Zm-.718-51.9.68-.27 5.76 14.487-.68.27-5.76-14.487ZM21.492 57.92l-.51-.541 11.29-10.61.51.54-11.29 10.61Z" opacity=".8"/>
      <path fill="#0023DB" d="m42.797 11.24.756.046-.98 15.266-.757-.046.98-15.267Z" opacity=".8"/>
      <path fill="#0023DC" d="m15.484 47.456-.24-.734 14.464-4.664.24.734-14.464 4.664Zm43.545 12.046-.595.494-9.59-11.66.594-.494 9.59 11.66Z" opacity=".8"/>
      <path fill="#0024DC" d="m54.248 14.745.688.379-7.275 13.12-.687-.38 7.274-13.119ZM14.526 35.556l.108-.78 14.78 1.938-.1.78-14.788-1.938Z" opacity=".8"/>
      <path fill="#0025DC" d="m48.356 64.738-.772.2-3.606-14.37.78-.193 3.598 14.363ZM18.704 24.521l.448-.687 12.286 7.93-.44.688-12.294-7.93Z" opacity=".8"/>
      <path fill="#0026DC" d="m36.604 64.908-.811-.155 2.842-14.255.81.162-2.841 14.248Z" opacity=".8"/>
      <path fill="#0027DC" d="m27.105 16.42.719-.44 7.56 12.186-.71.448-7.569-12.193Z" opacity=".8"/>
      <path fill="#0027DD" d="m26.024 60.097-.68-.51 8.503-11.436.68.502-8.503 11.444Z" opacity=".8"/>
      <path fill="#0028DD" d="m38.04 12.73.857-.093 1.583 13.977-.857.1L38.04 12.73Z" opacity=".8"/>
      <path fill="#0029DD" d="m18.604 51.317-.41-.773 12.34-6.563.41.764-12.34 6.572Zm30.772-37.259.834.286-4.471 13.058-.834-.286 4.47-13.058Z" opacity=".8"/>
      <path fill="#002ADD" d="m15.677 40.328-.039-.896 13.7-.633.038.888-13.7.641Z" opacity=".8"/>
      <path fill="#002BDE" d="m52.357 61.935-.819.37-5.59-12.432.818-.37 5.59 12.432Z" opacity=".8"/>
      <path fill="#002CDE" d="m17.708 29.27.355-.85 12.41 5.19-.356.85-12.409-5.19Z" opacity=".8"/>
      <path fill="#002DDE" d="m41.368 64.097-.927-.016.27-13.359.92.016-.263 13.359Z" opacity=".8"/>
      <path fill="#002EDE" d="m24.202 20.243.703-.625 8.81 9.807-.694.625-8.819-9.807Z" opacity=".8"/>
      <path fill="#002FDE" d="m30.619 61.386-.842-.417 5.846-11.73.85.418-5.854 11.73Z" opacity=".8"/>
      <path fill="#0030DF" d="m33.831 14.915.92-.278 3.69 12.394-.918.278-3.692-12.394Z" opacity=".8"/>
      <path fill="#0031DF" d="m22.163 54.421-.594-.764 10.1-7.931.595.757-10.1 7.938Z" opacity=".8"/>
      <path fill="#0032DF" d="m44.689 14.22.965.154-1.93 12.526-.966-.147 1.93-12.533Z" opacity=".8"/>
      <path fill="#0033DF" d="m17.546 44.606-.216-.957 12.278-2.788.224.958-12.286 2.787Z" opacity=".8"/>
      <path fill="#0034E0" d="m55.639 58.637-.819.556-7.058-10.332.819-.556 7.058 10.332Z" opacity=".8"/>
      <path fill="#0035E0" d="m54.689 18.197.826.556-6.965 10.293-.834-.556 6.973-10.293Z" opacity=".8"/>
      <path fill="#0036E0" d="m17.569 33.888.216-.988 12.054 2.687-.224.988-12.046-2.687Z" opacity=".8"/>
      <path fill="#0037E1" d="m45.7 62.544-1.004.155-1.915-12.116 1.004-.154L45.7 62.544Z" opacity=".8"/>
      <path fill="#0039E1" d="m22.117 24.305.633-.81 9.545 7.435-.626.811-9.552-7.436Z" opacity=".8"/>
      <path fill="#003AE1" d="m35.152 61.834-.988-.293 3.382-11.537.996.294-3.39 11.536Z" opacity=".8"/>
      <path fill="#003BE1" d="m30.24 17.664.935-.47 5.336 10.594-.934.47-5.336-10.594Z" opacity=".8"/>
      <path fill="#003CE2" d="m26.024 56.738-.787-.703 7.838-8.795.787.702-7.838 8.796Z" opacity=".8"/>
      <path fill="#003EE2" d="m40.318 15.162 1.066-.023.277 11.614-1.065.03-.278-11.62Z" opacity=".8"/>
      <path fill="#003FE2" d="m20.017 48.313-.417-.989 10.625-4.494.425.989-10.633 4.494Z" opacity=".8"/>
      <path fill="#0040E3" d="m50.38 17.185.996.44-4.625 10.402-.997-.44 4.626-10.402Z" opacity=".8"/>
      <path fill="#0042E3" d="m18.21 38.251.039-1.096 11.297.478-.046 1.097-11.29-.479Z" opacity=".8"/>
      <path fill="#0043E3" d="m49.507 60.352-1.042.362-3.676-10.61 1.042-.363 3.676 10.61Z" opacity=".8"/>
      <path fill="#0045E4" d="m20.85 28.475.518-.98 9.792 5.158-.518.988-9.791-5.166Z" opacity=".8"/>
      <path fill="#0046E4" d="m39.484 61.479-1.112-.116 1.197-10.927 1.112.116-1.197 10.927Z" opacity=".8"/>
      <path fill="#0047E5" d="m27.337 20.861.912-.687 6.502 8.68-.912.679-6.502-8.672Z" opacity=".8"/>
      <path fill="#0049E5" d="m30.048 58.259-.973-.595 5.637-9.174.973.595-5.637 9.174Z" opacity=".8"/>
      <path fill="#004AE5" d="m36.364 16.791 1.135-.231 2.116 10.394-1.127.24-2.124-10.402Z" opacity=".8"/>
      <path fill="#004CE6" d="m22.974 51.379-.633-.973 8.826-5.746.633.973-8.826 5.745Z" opacity=".8"/>
      <path fill="#004DE6" d="m46.164 16.97 1.135.277-2.487 10.085-1.135-.278 2.487-10.085Z" opacity=".8"/>
      <path fill="#004FE6" d="m19.553 42.236-.162-1.166 10.216-1.383.163 1.166-10.217 1.383Z" opacity=".8"/>
      <path fill="#0051E7" d="m52.712 57.649-1.035.579-5.004-8.934 1.035-.58 5.004 8.935Z" opacity=".8"/>
      <path fill="#0052E7" d="m54.843 21.278.927.749-6.425 7.877-.926-.75 6.424-7.876Z" opacity=".8"/>
      <path fill="#0054E8" d="m20.364 32.614.355-1.143 9.614 3.058-.355 1.143-9.614-3.058Z" opacity=".8"/>
      <path fill="#0055E8" d="m43.5 60.421-1.205.077-.68-9.992 1.197-.085.687 10Z" opacity=".8"/>
      <path fill="#0057E8" d="m25.152 24.351.834-.888 7.212 6.734-.826.888-7.22-6.734Z" opacity=".8"/>
      <path fill="#0058E9" d="m34.086 59-1.143-.448 3.591-9.112 1.135.44L34.086 59Z" opacity=".8"/>
      <path fill="#005AE9" d="m32.935 18.992 1.143-.455 3.56 8.973-1.143.455-3.56-8.973Z" opacity=".8"/>
      <path fill="#005CEA" d="m26.264 53.75-.85-.897 6.989-6.556.85.896-6.989 6.556Z" opacity=".8"/>
      <path fill="#0096FF" d="m42.164 17.486 1.25.078-.617 9.42-1.243-.077.61-9.42Z" opacity=".8"/>
      <path fill="#005FEA" d="m21.5 45.757-.395-1.197 8.92-2.873.386 1.197-8.912 2.873Z" opacity=".8"/>
      <path fill="#0061EB" d="m55.253 54.552-.973.803-5.892-7.181.973-.803 5.892 7.181Z" opacity=".8"/>
      <path fill="#0062EB" d="m51.051 20.05 1.105.61-4.48 8.062-1.111-.618 4.486-8.054Z" opacity=".8"/>
      <path fill="#0064EC" d="m20.611 36.583.17-1.266 9.066 1.197-.162 1.266-9.074-1.197Z" opacity=".8"/>
      <path fill="#0066EC" d="m47.083 58.73-1.243.317-2.201-8.811 1.243-.317 2.2 8.81Z" opacity=".8"/>
      <path fill="#0067EC" d="m23.7 28.012.703-1.09 7.506 4.85-.695 1.09-7.514-4.85Z" opacity=".8"/>
      <path fill="#0069ED" d="m38.009 59.008-1.282-.255 1.745-8.695 1.274.255-1.737 8.695Z" opacity=".8"/>
      <path fill="#006BED" d="m30.086 21.649 1.12-.695 4.595 7.428-1.112.688-4.603-7.421Z" opacity=".8"/>
      <path fill="#006CEE" d="m29.77 55.417-1.058-.78 5.174-6.95 1.058.78-5.174 6.95Z" opacity=".8"/>
      <path fill="#006EEE" d="m38.496 18.66 1.312-.146.958 8.47-1.32.147-.95-8.47Z" opacity=".8"/>
      <path fill="#0070EE" d="m23.924 48.722-.626-1.174 7.468-3.969.633 1.182-7.475 3.961Z" opacity=".8"/>
      <path fill="#0071EF" d="m47.268 19.548 1.274.433-2.703 7.868-1.266-.432 2.695-7.869Z" opacity=".8"/>
      <path fill="#0073EF" d="m21.53 40.266-.062-1.343 8.24-.379.07 1.352-8.248.37Z" opacity=".8"/>
      <path fill="#0074F0" d="m50.163 56.53-1.235.555-3.351-7.467 1.235-.556 3.352 7.467Z" opacity=".8"/>
      <path fill="#0076F0" d="m22.966 31.695.525-1.266 7.421 3.112-.525 1.266-7.42-3.112Z" opacity=".8"/>
      <path fill="#0078F1" d="m41.692 58.344-1.374-.031.162-7.977 1.375.023-.163 7.985Z" opacity=".8"/>
      <path fill="#0079F1" d="m27.87 24.63 1.035-.927 5.243 5.845-1.035.927-5.243-5.846Z" opacity=".8"/>
      <path fill="#007BF1" d="m33.352 56.382-1.25-.617 3.482-6.966 1.243.618-3.474 6.965Z" opacity=".8"/>
      <path fill="#007DF2" d="m35.245 20.39 1.343-.402 2.178 7.336-1.336.402-2.185-7.336Z" opacity=".8"/>
      <path fill="#007EF2" d="m26.72 51.1-.865-1.104 5.969-4.687.872 1.104-5.977 4.688Z" opacity=".8"/>
      <path fill="#0080F3" d="m43.63 19.718 1.406.216-1.143 7.367-1.397-.208 1.135-7.375Z" opacity=".8"/>
      <path fill="#0081F3" d="m23.029 43.572-.317-1.383 7.212-1.629.317 1.382-7.212 1.63Z" opacity=".8"/>
      <path fill="#0083F3" d="m52.673 53.934-1.174.804-4.13-6.054 1.18-.804 4.124 6.054Z" opacity=".8"/>
      <path fill="#0084F4" d="m51.415 22.668 1.189.803-4.077 6.008-1.19-.803 4.078-6.008Z" opacity=".8"/>
      <path fill="#0086F4" d="m22.905 35.286.309-1.406 7.027 1.568-.31 1.405-7.026-1.567Z" opacity=".8"/>
      <path fill="#0087F4" d="m45.036 57.085-1.42.224-1.113-7.05 1.429-.224 1.104 7.05Z" opacity=".8"/>
      <path fill="#0089F5" d="m26.302 27.819.896-1.151 5.521 4.309-.896 1.15-5.52-4.308Z" opacity=".8"/>
      <path fill="#008AF5" d="m36.874 56.668-1.398-.41 1.962-6.663 1.405.409-1.97 6.664Z" opacity=".8"/>
      <path fill="#008CF6" d="m32.496 22.583 1.312-.664 3.058 6.085-1.305.664-3.065-6.085Z" opacity=".8"/>
      <path fill="#008DF6" d="m29.754 52.846-1.104-.981 4.502-5.035 1.104.981-4.502 5.035Z" opacity=".8"/>
      <path fill="#008FF6" d="m40.248 20.514 1.49-.039.148 6.625-1.483.04-.154-6.626Z" opacity=".8"/>
      <path fill="#0090F7" d="m24.998 46.42-.58-1.374 6.055-2.548.579 1.367-6.054 2.556Z" opacity=".8"/>
      <path fill="#0092F7" d="m48.055 21.942 1.375.61-2.626 5.884-1.374-.61 2.625-5.884Z" opacity=".8"/>
      <path fill="#0093F7" d="m23.468 38.66.062-1.505 6.378.277-.061 1.506-6.379-.278Z" opacity=".8"/>
      <path fill="#0094F8" d="m47.962 55.325-1.428.494-2.062-5.977 1.429-.494 2.061 5.977Z" opacity=".8"/>
      <path fill="#0096F8" d="m25.376 31.077.71-1.343 5.483 2.895-.71 1.344-5.483-2.896Z" opacity=".8"/>
      <path fill="#0097F8" d="m40.241 56.336-1.521-.17.672-6.1 1.52.162-.671 6.108Z" opacity=".8"/>
      <path fill="#0098F9" d="m30.287 25.108 1.228-.927L35.12 29l-1.228.927-3.606-4.819Z" opacity=".8"/>
      <path fill="#0099F9" d="m32.904 53.973-1.312-.81 3.12-5.074 1.32.803-3.127 5.081Z" opacity=".8"/>
      <path fill="#009BF9" d="m37.206 21.842 1.521-.317 1.159 5.722-1.522.317-1.158-5.722Z" opacity=".8"/>
      <path fill="#009CFA" d="m27.345 48.753-.857-1.305 4.85-3.143.856 1.305-4.85 3.143Z" opacity=".8"/>
      <path fill="#009DFA" d="m44.774 21.842 1.52.37-1.358 5.498-1.521-.37 1.359-5.498Z" opacity=".8"/>
      <path fill="#009EFA" d="m24.573 41.741-.209-1.56 5.552-.74.217 1.56-5.56.74Z" opacity=".8"/>
      <path fill="#009FFA" d="m50.41 53.17-1.374.772-2.703-4.842 1.375-.772 2.703 4.842Z" opacity=".8"/>
      <path fill="#00A0FB" d="m51.538 25.046 1.228.997-3.475 4.247-1.228-.997 3.475-4.247Z" opacity=".8"/>
      <path fill="#00A2FB" d="m25.067 34.305.479-1.513 5.173 1.644-.478 1.514-5.174-1.645Z" opacity=".8"/>
      <path fill="#00A3FB" d="m43.337 55.44-1.59.108-.356-5.359 1.59-.108.356 5.36Z" opacity=".8"/>
      <path fill="#00A4FB" d="m28.642 27.857 1.097-1.174 3.838 3.583-1.09 1.174-3.845-3.583Z" opacity=".8"/>
      <path fill="#00A5FC" d="m36.055 54.483-1.498-.587 1.907-4.834 1.498.579-1.907 4.842Z" opacity=".8"/>
      <path fill="#00A6FC" d="M34.573 23.602 36.079 23l1.868 4.734-1.498.602-1.876-4.734ZM29.94 50.544l-1.112-1.173 3.675-3.444 1.112 1.181-3.675 3.437Z" opacity=".8"/>
      <path fill="#00A7FC" d="m41.677 22.305 1.621.1-.324 4.912-1.621-.1.324-4.912Z" opacity=".8"/>
      <path fill="#00A8FD" d="m26.14 44.444-.502-1.552 4.633-1.49.502 1.56-4.633 1.482Z" opacity=".8"/>
      <path fill="#00A9FD" d="m52.341 50.73-1.259 1.042-3.05-3.722 1.267-1.042 3.042 3.722Z" opacity=".8"/>
      <path fill="#00AAFD" d="m48.573 24.143 1.436.803-2.316 4.147-1.437-.796 2.317-4.154Z" opacity=".8"/>
      <path fill="#00ABFD" d="m25.322 37.378.208-1.637 4.664.626-.216 1.63-4.656-.619Zm20.772 16.703-1.598.402-1.128-4.51 1.606-.401 1.12 4.51Z" opacity=".8"/>
      <path fill="#00ACFD" d="m27.569 30.714.903-1.397 3.807 2.463-.896 1.398-3.814-2.464Z" opacity=".8"/>
      <path fill="#00ADFE" d="m39.098 54.437-1.637-.325.888-4.401 1.63.324-.881 4.402Zm-6.695-28.734 1.42-.88 2.302 3.721-1.421.88-2.301-3.721Z" opacity=".8"/>
      <path fill="#00AEFE" d="m32.681 51.788-1.344-.996 2.587-3.468 1.344.997-2.587 3.467Zm6.162-28.525 1.676-.194.471 4.201-1.676.186-.47-4.193Z" opacity=".8"/>
      <path fill="#00AFFE" d="m28.063 46.714-.795-1.49 3.683-1.954.795 1.498-3.683 1.946ZM45.63 23.803l1.614.548-1.32 3.846-1.614-.548 1.32-3.846Z" opacity=".8"/>
      <path fill="#00B0FE" d="m26.079 40.228-.085-1.707L30 38.344l.085 1.706-4.007.178Z" opacity=".8"/>
      <path fill="#00B0FF" d="m48.457 52.336-1.552.703-1.622-3.622 1.56-.703 1.614 3.622ZM27.036 33.58l.664-1.584 3.56 1.49-.656 1.591-3.568-1.498Z" opacity=".8"/>
      <path fill="#00B1FF" d="m41.947 53.88-1.722-.03.077-3.815 1.73.03-.085 3.815ZM30.712 28.043l1.29-1.166 2.478 2.772-1.29 1.158-2.478-2.764Zm4.756 24.463-1.56-.772 1.645-3.282 1.553.772-1.638 3.282Z" opacity=".8"/>
      <path fill="#00B2FF" d="m36.341 24.63 1.668-.503 1.02 3.429-1.676.502-1.012-3.429Zm-6.092 23.907-1.081-1.375 2.772-2.17 1.08 1.375-2.771 2.17ZM42.82 23.965l1.73.263-.525 3.39-1.738-.263.533-3.39ZM27.252 42.776l-.394-1.714 3.305-.741.386 1.714-3.297.741Zm23.143 7.537-1.452.996-1.884-2.757 1.46-.996 1.876 2.757Zm-1.498-24.209 1.468.989-1.854 2.718-1.46-.989 1.846-2.718ZM27.005 36.36l.379-1.73 3.174.71-.387 1.73-3.166-.71Zm17.529 16.532-1.753.286-.494-3.166 1.753-.278.494 3.158ZM29.5 30.506l1.088-1.406 2.456 1.915-1.089 1.406-2.455-1.915Zm8.694 22.224-1.714-.502.873-2.942 1.714.494-.873 2.95ZM34.21 26.313l1.598-.803 1.336 2.664-1.598.81-1.336-2.671Zm-1.622 23.591-1.343-1.197 1.961-2.193 1.344 1.189-1.962 2.2Zm7.606-25.352 1.8-.046.07 2.865-1.808.046-.062-2.865ZM28.75 44.992l-.702-1.66 2.602-1.096.71 1.66-2.61 1.096Zm17.56-19.49 1.653.734-1.12 2.51-1.653-.734 1.12-2.51ZM27.399 38.977l.07-1.815 2.71.124-.077 1.814-2.703-.123ZM46.82 51.58l-1.715.594-.872-2.525 1.714-.595.873 2.525Zm-18.1-18.572.849-1.622 2.3 1.22-.849 1.614-2.3-1.212Zm12.077 19.529-1.815-.193.278-2.549 1.822.194-.285 2.548Zm-8.356-24.325 1.468-1.104 1.49 2-1.467 1.104-1.49-2Zm2.541 22.641-1.567-.957 1.297-2.1 1.567.957-1.297 2.1Z" opacity=".8"/>
      <path fill="#00B2FF" d="m37.808 25.479 1.8-.37.478 2.354-1.807.371-.47-2.355ZM30.48 46.877l-1.012-1.545 1.992-1.29 1.004 1.545-1.984 1.29Zm13.305-21.583 1.792.44-.556 2.24-1.792-.441.556-2.24Zm-15.668 16.1-.247-1.83 2.255-.301.247 1.83-2.255.3Zm20.688 8.641-1.614.903-1.097-1.961 1.622-.903 1.089 1.96Zm.43-22.385-1.407 1.723 1.44 1.177 1.408-1.722-1.441-1.178ZM28.871 33.7l-.566 1.772 2.096.67.567-1.773-2.097-.67ZM43.09 49.867l-1.856.124.145 2.18 1.857-.124-.145-2.18ZM32.252 28.836 30.975 30.2l1.573 1.472 1.277-1.364-1.573-1.472Zm4.158 19.986-.79 1.996 1.739.687.788-1.997-1.738-.686Z" opacity=".8"/>
    </g>
    <path fill="#0021DB" d="m8.651 24.949-.05.121 21.059 8.766.05-.12-21.059-8.767Z" opacity=".8"/>
    <path fill="#0021DB" d="m8.651 24.949-.05.121 21.059 8.766.05-.12-21.059-8.767ZM41.075 51.37l-.41 22.39.162.004.41-22.39-.162-.003ZM18.46 13.032l-.16.145 14.587 16.178.16-.145L18.46 13.032Zm17.218 36.903-9.573 19.284.214.106 9.573-19.284-.214-.106ZM31.638 6.46l.263-.078 6.038 20.201-.262.077-6.039-20.2ZM15.206 59.487l-.178-.232 16.41-12.904.177.224-16.41 12.912ZM46.25 6l-3.086 20.26.32.05L46.57 6.049 46.25 6ZM9.414 46.15l-.077-.331 19.815-4.51.07.324-19.808 4.518ZM60.01 65.549l-.294.2L48.34 49.124l.294-.201 11.374 16.626Zm-.55-53.885.31.209L48.573 28.42l-.301-.209L59.46 11.664ZM9.816 31.865l.085-.37 19.344 4.293-.078.37-19.351-4.293Zm33.74 19.127-.389.063 3.106 19.413.389-.062-3.106-19.414Zm-27.4-31.683.262-.332L31.7 30.86l-.262.332L16.156 19.31ZM32.72 69.147l-.418-.124 5.406-18.44.409.124-5.398 18.44Zm-5.638-58.371.402-.2 8.525 16.903-.401.2-8.525-16.903ZM20.82 62.158l-.348-.309 12.502-14.03.348.308L20.82 62.158ZM40.403 7.764l.486-.015.464 18.525-.495.008-.455-18.518ZM13.152 50.93l-.193-.455 16.934-7.181.201.463-16.942 7.174Zm40.409-40.247.479.209-7.367 16.58-.47-.21 7.358-16.579ZM11.036 37.687l.023-.532 18 .749-.023.532-18-.749ZM51.6 67.178l-.51.185-5.876-16.903.517-.178L51.6 67.178ZM14.727 24.97l.263-.495 15.62 8.215-.262.494-15.622-8.216Zm23.745 43.451-.563-.062L39.8 50.923l.563.062-1.892 17.436ZM23.383 15.17l.48-.355 10.385 13.838-.47.355L23.382 15.17Zm2.85 48.819-.51-.317 8.989-14.649.517.317-8.996 14.649Zm9.019-53.908.603-.123 3.398 16.61-.603.13-3.398-16.617Zm-18.077 44.78-.347-.525 14.116-9.197.347.525-14.116 9.197Zm30.819-44.324.633.154-3.97 16.147-.625-.155 3.962-16.146ZM12.928 42.892l-.093-.649 16.379-2.231.085.656-16.37 2.224Zm42.811 20.641-.587.324-8.03-14.316.578-.325 8.039 14.317ZM59.19 16.32l.526.433-10.301 12.64-.525-.424 10.3-12.649ZM14.194 30.405l.201-.648 15.444 4.896-.2.656-15.445-4.904Zm29.514 36.533-.695.047-1.104-16.062.687-.046 1.112 16.061Z" opacity=".8"/>
    <path fill="#0022DB" d="m20.596 19.78.479-.518 11.629 10.834-.479.518-11.63-10.834Zm10.926 45.112-.671-.263 5.768-14.695.664.255-5.76 14.703Zm-.718-51.9.68-.27 5.76 14.487-.68.27-5.76-14.487ZM21.492 57.92l-.51-.541 11.29-10.61.51.54-11.29 10.61Z" opacity=".8"/>
    <path fill="#0023DB" d="m42.797 11.24.756.046-.98 15.266-.757-.046.98-15.267Z" opacity=".8"/>
    <path fill="#0023DC" d="m15.484 47.456-.24-.734 14.464-4.664.24.734-14.464 4.664Zm43.545 12.046-.595.494-9.59-11.66.594-.494 9.59 11.66Z" opacity=".8"/>
    <path fill="#0024DC" d="m54.248 14.745.688.379-7.275 13.12-.687-.38 7.274-13.119ZM14.526 35.556l.108-.78 14.78 1.938-.1.78-14.788-1.938Z" opacity=".8"/>
    <path fill="#0025DC" d="m48.356 64.738-.772.2-3.606-14.37.78-.193 3.598 14.363ZM18.704 24.521l.448-.687 12.286 7.93-.44.688-12.294-7.93Z" opacity=".8"/>
    <path fill="#0026DC" d="m36.604 64.908-.811-.155 2.842-14.255.81.162-2.841 14.248Z" opacity=".8"/>
    <path fill="#0027DC" d="m27.105 16.42.719-.44 7.56 12.186-.71.448-7.569-12.193Z" opacity=".8"/>
    <path fill="#0027DD" d="m26.024 60.097-.68-.51 8.503-11.436.68.502-8.503 11.444Z" opacity=".8"/>
    <path fill="#0028DD" d="m38.04 12.73.857-.093 1.583 13.977-.857.1L38.04 12.73Z" opacity=".8"/>
    <path fill="#0029DD" d="m18.604 51.317-.41-.773 12.34-6.563.41.764-12.34 6.572Zm30.772-37.259.834.286-4.471 13.058-.834-.286 4.47-13.058Z" opacity=".8"/>
    <path fill="#002ADD" d="m15.677 40.328-.039-.896 13.7-.633.038.888-13.7.641Z" opacity=".8"/>
    <path fill="#002BDE" d="m52.357 61.935-.819.37-5.59-12.432.818-.37 5.59 12.432Z" opacity=".8"/>
    <path fill="#002CDE" d="m17.708 29.27.355-.85 12.41 5.19-.356.85-12.409-5.19Z" opacity=".8"/>
    <path fill="#002DDE" d="m41.368 64.097-.927-.016.27-13.359.92.016-.263 13.359Z" opacity=".8"/>
    <path fill="#002EDE" d="m24.202 20.243.703-.625 8.81 9.807-.694.625-8.819-9.807Z" opacity=".8"/>
    <path fill="#002FDE" d="m30.619 61.386-.842-.417 5.846-11.73.85.418-5.854 11.73Z" opacity=".8"/>
    <path fill="#0030DF" d="m33.831 14.915.92-.278 3.69 12.394-.918.278-3.692-12.394Z" opacity=".8"/>
    <path fill="#0031DF" d="m22.163 54.421-.594-.764 10.1-7.931.595.757-10.1 7.938Z" opacity=".8"/>
    <path fill="#0032DF" d="m44.689 14.22.965.154-1.93 12.526-.966-.147 1.93-12.533Z" opacity=".8"/>
    <path fill="#0033DF" d="m17.546 44.606-.216-.957 12.278-2.788.224.958-12.286 2.787Z" opacity=".8"/>
    <path fill="#0034E0" d="m55.639 58.637-.819.556-7.058-10.332.819-.556 7.058 10.332Z" opacity=".8"/>
    <path fill="#0035E0" d="m54.689 18.197.826.556-6.965 10.293-.834-.556 6.973-10.293Z" opacity=".8"/>
    <path fill="#0036E0" d="m17.569 33.888.216-.988 12.054 2.687-.224.988-12.046-2.687Z" opacity=".8"/>
    <path fill="#0037E1" d="m45.7 62.544-1.004.155-1.915-12.116 1.004-.154L45.7 62.544Z" opacity=".8"/>
    <path fill="#0039E1" d="m22.117 24.305.633-.81 9.545 7.435-.626.811-9.552-7.436Z" opacity=".8"/>
    <path fill="#003AE1" d="m35.152 61.834-.988-.293 3.382-11.537.996.294-3.39 11.536Z" opacity=".8"/>
    <path fill="#003BE1" d="m30.24 17.664.935-.47 5.336 10.594-.934.47-5.336-10.594Z" opacity=".8"/>
    <path fill="#003CE2" d="m26.024 56.738-.787-.703 7.838-8.795.787.702-7.838 8.796Z" opacity=".8"/>
    <path fill="#003EE2" d="m40.318 15.162 1.066-.023.277 11.614-1.065.03-.278-11.62Z" opacity=".8"/>
    <path fill="#003FE2" d="m20.017 48.313-.417-.989 10.625-4.494.425.989-10.633 4.494Z" opacity=".8"/>
    <path fill="#0040E3" d="m50.38 17.185.996.44-4.625 10.402-.997-.44 4.626-10.402Z" opacity=".8"/>
    <path fill="#0042E3" d="m18.21 38.251.039-1.096 11.297.478-.046 1.097-11.29-.479Z" opacity=".8"/>
    <path fill="#0043E3" d="m49.507 60.352-1.042.362-3.676-10.61 1.042-.363 3.676 10.61Z" opacity=".8"/>
    <path fill="#0045E4" d="m20.85 28.475.518-.98 9.792 5.158-.518.988-9.791-5.166Z" opacity=".8"/>
    <path fill="#0046E4" d="m39.484 61.479-1.112-.116 1.197-10.927 1.112.116-1.197 10.927Z" opacity=".8"/>
    <path fill="#0047E5" d="m27.337 20.861.912-.687 6.502 8.68-.912.679-6.502-8.672Z" opacity=".8"/>
    <path fill="#0049E5" d="m30.048 58.259-.973-.595 5.637-9.174.973.595-5.637 9.174Z" opacity=".8"/>
    <path fill="#004AE5" d="m36.364 16.791 1.135-.231 2.116 10.394-1.127.24-2.124-10.402Z" opacity=".8"/>
    <path fill="#004CE6" d="m22.974 51.379-.633-.973 8.826-5.746.633.973-8.826 5.745Z" opacity=".8"/>
    <path fill="#004DE6" d="m46.164 16.97 1.135.277-2.487 10.085-1.135-.278 2.487-10.085Z" opacity=".8"/>
    <path fill="#004FE6" d="m19.553 42.236-.162-1.166 10.216-1.383.163 1.166-10.217 1.383Z" opacity=".8"/>
    <path fill="#0051E7" d="m52.712 57.649-1.035.579-5.004-8.934 1.035-.58 5.004 8.935Z" opacity=".8"/>
    <path fill="#0052E7" d="m54.843 21.278.927.749-6.425 7.877-.926-.75 6.424-7.876Z" opacity=".8"/>
    <path fill="#0054E8" d="m20.364 32.614.355-1.143 9.614 3.058-.355 1.143-9.614-3.058Z" opacity=".8"/>
    <path fill="#0055E8" d="m43.5 60.421-1.205.077-.68-9.992 1.197-.085.687 10Z" opacity=".8"/>
    <path fill="#0057E8" d="m25.152 24.351.834-.888 7.212 6.734-.826.888-7.22-6.734Z" opacity=".8"/>
    <path fill="#0058E9" d="m34.086 59-1.143-.448 3.591-9.112 1.135.44L34.086 59Z" opacity=".8"/>
    <path fill="#005AE9" d="m32.935 18.992 1.143-.455 3.56 8.973-1.143.455-3.56-8.973Z" opacity=".8"/>
    <path fill="#005CEA" d="m26.264 53.75-.85-.897 6.989-6.556.85.896-6.989 6.556Z" opacity=".8"/>
    <path fill="#0096FF" d="m42.164 17.486 1.25.078-.617 9.42-1.243-.077.61-9.42Z" opacity=".8"/>
    <path fill="#005FEA" d="m21.5 45.757-.395-1.197 8.92-2.873.386 1.197-8.912 2.873Z" opacity=".8"/>
    <path fill="#0061EB" d="m55.253 54.552-.973.803-5.892-7.181.973-.803 5.892 7.181Z" opacity=".8"/>
    <path fill="#0062EB" d="m51.051 20.05 1.105.61-4.48 8.062-1.111-.618 4.486-8.054Z" opacity=".8"/>
    <path fill="#0064EC" d="m20.611 36.583.17-1.266 9.066 1.197-.162 1.266-9.074-1.197Z" opacity=".8"/>
    <path fill="#0066EC" d="m47.083 58.73-1.243.317-2.201-8.811 1.243-.317 2.2 8.81Z" opacity=".8"/>
    <path fill="#0067EC" d="m23.7 28.012.703-1.09 7.506 4.85-.695 1.09-7.514-4.85Z" opacity=".8"/>
    <path fill="#0069ED" d="m38.009 59.008-1.282-.255 1.745-8.695 1.274.255-1.737 8.695Z" opacity=".8"/>
    <path fill="#006BED" d="m30.086 21.649 1.12-.695 4.595 7.428-1.112.688-4.603-7.421Z" opacity=".8"/>
    <path fill="#006CEE" d="m29.77 55.417-1.058-.78 5.174-6.95 1.058.78-5.174 6.95Z" opacity=".8"/>
    <path fill="#006EEE" d="m38.496 18.66 1.312-.146.958 8.47-1.32.147-.95-8.47Z" opacity=".8"/>
    <path fill="#0070EE" d="m23.924 48.722-.626-1.174 7.468-3.969.633 1.182-7.475 3.961Z" opacity=".8"/>
    <path fill="#0071EF" d="m47.268 19.548 1.274.433-2.703 7.868-1.266-.432 2.695-7.869Z" opacity=".8"/>
    <path fill="#0073EF" d="m21.53 40.266-.062-1.343 8.24-.379.07 1.352-8.248.37Z" opacity=".8"/>
    <path fill="#0074F0" d="m50.163 56.53-1.235.555-3.351-7.467 1.235-.556 3.352 7.467Z" opacity=".8"/>
    <path fill="#0076F0" d="m22.966 31.695.525-1.266 7.421 3.112-.525 1.266-7.42-3.112Z" opacity=".8"/>
    <path fill="#0078F1" d="m41.692 58.344-1.374-.031.162-7.977 1.375.023-.163 7.985Z" opacity=".8"/>
    <path fill="#0079F1" d="m27.87 24.63 1.035-.927 5.243 5.845-1.035.927-5.243-5.846Z" opacity=".8"/>
    <path fill="#007BF1" d="m33.352 56.382-1.25-.617 3.482-6.966 1.243.618-3.474 6.965Z" opacity=".8"/>
    <path fill="#007DF2" d="m35.245 20.39 1.343-.402 2.178 7.336-1.336.402-2.185-7.336Z" opacity=".8"/>
    <path fill="#007EF2" d="m26.72 51.1-.865-1.104 5.969-4.687.872 1.104-5.977 4.688Z" opacity=".8"/>
    <path fill="#0080F3" d="m43.63 19.718 1.406.216-1.143 7.367-1.397-.208 1.135-7.375Z" opacity=".8"/>
    <path fill="#0081F3" d="m23.029 43.572-.317-1.383 7.212-1.629.317 1.382-7.212 1.63Z" opacity=".8"/>
    <path fill="#0083F3" d="m52.673 53.934-1.174.804-4.13-6.054 1.18-.804 4.124 6.054Z" opacity=".8"/>
    <path fill="#0084F4" d="m51.415 22.668 1.189.803-4.077 6.008-1.19-.803 4.078-6.008Z" opacity=".8"/>
    <path fill="#0086F4" d="m22.905 35.286.309-1.406 7.027 1.568-.31 1.405-7.026-1.567Z" opacity=".8"/>
    <path fill="#0087F4" d="m45.036 57.085-1.42.224-1.113-7.05 1.429-.224 1.104 7.05Z" opacity=".8"/>
    <path fill="#0089F5" d="m26.302 27.819.896-1.151 5.521 4.309-.896 1.15-5.52-4.308Z" opacity=".8"/>
    <path fill="#008AF5" d="m36.874 56.668-1.398-.41 1.962-6.663 1.405.409-1.97 6.664Z" opacity=".8"/>
    <path fill="#008CF6" d="m32.496 22.583 1.312-.664 3.058 6.085-1.305.664-3.065-6.085Z" opacity=".8"/>
    <path fill="#008DF6" d="m29.754 52.846-1.104-.981 4.502-5.035 1.104.981-4.502 5.035Z" opacity=".8"/>
    <path fill="#008FF6" d="m40.248 20.514 1.49-.039.148 6.625-1.483.04-.154-6.626Z" opacity=".8"/>
    <path fill="#0090F7" d="m24.998 46.42-.58-1.374 6.055-2.548.579 1.367-6.054 2.556Z" opacity=".8"/>
    <path fill="#0092F7" d="m48.055 21.942 1.375.61-2.626 5.884-1.374-.61 2.625-5.884Z" opacity=".8"/>
    <path fill="#0093F7" d="m23.468 38.66.062-1.505 6.378.277-.061 1.506-6.379-.278Z" opacity=".8"/>
    <path fill="#0094F8" d="m47.962 55.325-1.428.494-2.062-5.977 1.429-.494 2.061 5.977Z" opacity=".8"/>
    <path fill="#0096F8" d="m25.376 31.077.71-1.343 5.483 2.895-.71 1.344-5.483-2.896Z" opacity=".8"/>
    <path fill="#0097F8" d="m40.241 56.336-1.521-.17.672-6.1 1.52.162-.671 6.108Z" opacity=".8"/>
    <path fill="#0098F9" d="m30.287 25.108 1.228-.927L35.12 29l-1.228.927-3.606-4.819Z" opacity=".8"/>
    <path fill="#0099F9" d="m32.904 53.973-1.312-.81 3.12-5.074 1.32.803-3.127 5.081Z" opacity=".8"/>
    <path fill="#009BF9" d="m37.206 21.842 1.521-.317 1.159 5.722-1.522.317-1.158-5.722Z" opacity=".8"/>
    <path fill="#009CFA" d="m27.345 48.753-.857-1.305 4.85-3.143.856 1.305-4.85 3.143Z" opacity=".8"/>
    <path fill="#009DFA" d="m44.774 21.842 1.52.37-1.358 5.498-1.521-.37 1.359-5.498Z" opacity=".8"/>
    <path fill="#009EFA" d="m24.573 41.741-.209-1.56 5.552-.74.217 1.56-5.56.74Z" opacity=".8"/>
    <path fill="#009FFA" d="m50.41 53.17-1.374.772-2.703-4.842 1.375-.772 2.703 4.842Z" opacity=".8"/>
    <path fill="#00A0FB" d="m51.538 25.046 1.228.997-3.475 4.247-1.228-.997 3.475-4.247Z" opacity=".8"/>
    <path fill="#00A2FB" d="m25.067 34.305.479-1.513 5.173 1.644-.478 1.514-5.174-1.645Z" opacity=".8"/>
    <path fill="#00A3FB" d="m43.337 55.44-1.59.108-.356-5.359 1.59-.108.356 5.36Z" opacity=".8"/>
    <path fill="#00A4FB" d="m28.642 27.857 1.097-1.174 3.838 3.583-1.09 1.174-3.845-3.583Z" opacity=".8"/>
    <path fill="#00A5FC" d="m36.055 54.483-1.498-.587 1.907-4.834 1.498.579-1.907 4.842Z" opacity=".8"/>
    <path fill="#00A6FC" d="M34.573 23.602 36.079 23l1.868 4.734-1.498.602-1.876-4.734ZM29.94 50.544l-1.112-1.173 3.675-3.444 1.112 1.181-3.675 3.437Z" opacity=".8"/>
    <path fill="#00A7FC" d="m41.677 22.305 1.621.1-.324 4.912-1.621-.1.324-4.912Z" opacity=".8"/>
    <path fill="#00A8FD" d="m26.14 44.444-.502-1.552 4.633-1.49.502 1.56-4.633 1.482Z" opacity=".8"/>
    <path fill="#00A9FD" d="m52.341 50.73-1.259 1.042-3.05-3.722 1.267-1.042 3.042 3.722Z" opacity=".8"/>
    <path fill="#00AAFD" d="m48.573 24.143 1.436.803-2.316 4.147-1.437-.796 2.317-4.154Z" opacity=".8"/>
    <path fill="#00ABFD" d="m25.322 37.378.208-1.637 4.664.626-.216 1.63-4.656-.619Zm20.772 16.703-1.598.402-1.128-4.51 1.606-.401 1.12 4.51Z" opacity=".8"/>
    <path fill="#00ACFD" d="m27.569 30.714.903-1.397 3.807 2.463-.896 1.398-3.814-2.464Z" opacity=".8"/>
    <path fill="#00ADFE" d="m39.098 54.437-1.637-.325.888-4.401 1.63.324-.881 4.402Zm-6.695-28.734 1.42-.88 2.302 3.721-1.421.88-2.301-3.721Z" opacity=".8"/>
    <path fill="#00AEFE" d="m32.681 51.788-1.344-.996 2.587-3.468 1.344.997-2.587 3.467Zm6.162-28.525 1.676-.194.471 4.201-1.676.186-.47-4.193Z" opacity=".8"/>
    <path fill="#00AFFE" d="m28.063 46.714-.795-1.49 3.683-1.954.795 1.498-3.683 1.946ZM45.63 23.803l1.614.548-1.32 3.846-1.614-.548 1.32-3.846Z" opacity=".8"/>
    <path fill="#00B0FE" d="m26.079 40.228-.085-1.707L30 38.344l.085 1.706-4.007.178Z" opacity=".8"/>
    <path fill="#00B0FF" d="m48.457 52.336-1.552.703-1.622-3.622 1.56-.703 1.614 3.622ZM27.036 33.58l.664-1.584 3.56 1.49-.656 1.591-3.568-1.498Z" opacity=".8"/>
    <path fill="#00B1FF" d="m41.947 53.88-1.722-.03.077-3.815 1.73.03-.085 3.815ZM30.712 28.043l1.29-1.166 2.478 2.772-1.29 1.158-2.478-2.764Zm4.756 24.463-1.56-.772 1.645-3.282 1.553.772-1.638 3.282Z" opacity=".8"/>
    <path fill="#00B2FF" d="m36.341 24.63 1.668-.503 1.02 3.429-1.676.502-1.012-3.429Zm-6.092 23.907-1.081-1.375 2.772-2.17 1.08 1.375-2.771 2.17ZM42.82 23.965l1.73.263-.525 3.39-1.738-.263.533-3.39ZM27.252 42.776l-.394-1.714 3.305-.741.386 1.714-3.297.741Zm23.143 7.537-1.452.996-1.884-2.757 1.46-.996 1.876 2.757Zm-1.498-24.209 1.468.989-1.854 2.718-1.46-.989 1.846-2.718ZM27.005 36.36l.379-1.73 3.174.71-.387 1.73-3.166-.71Zm17.529 16.532-1.753.286-.494-3.166 1.753-.278.494 3.158ZM29.5 30.506l1.088-1.406 2.456 1.915-1.089 1.406-2.455-1.915Zm8.694 22.224-1.714-.502.873-2.942 1.714.494-.873 2.95ZM34.21 26.313l1.598-.803 1.336 2.664-1.598.81-1.336-2.671Zm-1.622 23.591-1.343-1.197 1.961-2.193 1.344 1.189-1.962 2.2Zm7.606-25.352 1.8-.046.07 2.865-1.808.046-.062-2.865ZM28.75 44.992l-.702-1.66 2.602-1.096.71 1.66-2.61 1.096Zm17.56-19.49 1.653.734-1.12 2.51-1.653-.734 1.12-2.51ZM27.399 38.977l.07-1.815 2.71.124-.077 1.814-2.703-.123ZM46.82 51.58l-1.715.594-.872-2.525 1.714-.595.873 2.525Zm-18.1-18.572.849-1.622 2.3 1.22-.849 1.614-2.3-1.212Zm12.077 19.529-1.815-.193.278-2.549 1.822.194-.285 2.548Zm-8.356-24.325 1.468-1.104 1.49 2-1.467 1.104-1.49-2Zm2.541 22.641-1.567-.957 1.297-2.1 1.567.957-1.297 2.1Z" opacity=".8"/>
    <path fill="#00B2FF" d="m37.808 25.479 1.8-.37.478 2.354-1.807.371-.47-2.355ZM30.48 46.877l-1.012-1.545 1.992-1.29 1.004 1.545-1.984 1.29Zm13.305-21.583 1.792.44-.556 2.24-1.792-.441.556-2.24Zm-15.668 16.1-.247-1.83 2.255-.301.247 1.83-2.255.3Zm20.688 8.641-1.614.903-1.097-1.961 1.622-.903 1.089 1.96Zm.43-22.385-1.407 1.723 1.44 1.177 1.408-1.722-1.441-1.178ZM28.871 33.7l-.566 1.772 2.096.67.567-1.773-2.097-.67ZM43.09 49.867l-1.856.124.145 2.18 1.857-.124-.145-2.18ZM32.252 28.836 30.975 30.2l1.573 1.472 1.277-1.364-1.573-1.472Zm4.158 19.986-.79 1.996 1.739.687.788-1.997-1.738-.686Z" opacity=".8"/>
  </g>
  <defs>
    <clipPath id="a">
      <path fill="#fff" d="M.022 0h80v80h-80z"/>
    </clipPath>
    <filter id="b" width="75.409" height="91.764" x="-3.399" y="-6" color-interpolation-filters="sRGB" filterUnits="userSpaceOnUse">
      <feFlood flood-opacity="0" result="BackgroundImageFix"/>
      <feBlend in="SourceGraphic" in2="BackgroundImageFix" result="shape"/>
      <feGaussianBlur result="effect1_foregroundBlur_52_21047" stdDeviation="6"/>
    </filter>
  </defs>
</svg>
