<svg xmlns="http://www.w3.org/2000/svg" width="80" height="80" fill="none" viewBox="0 0 80 80">
  <g filter="url(#a)">
    <path fill="#FE5958" d="M46.197 42.334h-2.863v11.452h2.863V42.334Zm-15.745 4.295h4.294v11.45h-4.294V46.63Zm8.588 0h2.863v11.45H39.04V46.63Z"/>
    <path fill="#F4BA3D" d="M27.588 38.04H19v11.45h4.294v4.295h7.157V42.334h-2.863V38.04Z"/>
    <path fill="#60D9A3" d="M30.451 22.294h-7.157v4.295H19v11.45h8.588v-4.293h2.863V22.294Z"/>
    <path fill="#1283FC" d="M30.452 18h4.294v11.451h-4.294V18Zm12.882 4.294h2.863v11.452h-2.863V22.294ZM41.903 18H39.04v11.451h2.863V18Z"/>
    <path fill="#F9DBDB" d="M41.903 18h-8.589v4.294h-7.157v4.294h-4.294v22.904h4.294v4.294h7.157v4.294h8.589v-2.863h8.588v-4.294h4.295v-8.589h-8.589v4.294h-4.294v2.864h-7.157v-4.295H30.45V30.883h4.295v-4.294h7.157v2.863h4.294v4.294h8.589v-8.589H50.49v-4.294h-8.588V18Z"/>
  </g>
  <path fill="#FE5958" d="M49.804 44.254H46.94v11.452h2.863V44.254Zm-15.745 4.294h4.294V60h-4.294V48.548Zm8.588 0h2.863V60h-2.863V48.548Z"/>
  <path fill="#F4BA3D" d="M31.195 39.96h-8.588v11.451H26.9v4.295h7.157V44.254h-2.863V39.96Z"/>
  <path fill="#60D9A3" d="M34.058 24.214h-7.157v4.295h-4.294V39.96h8.588v-4.294h2.863V24.214Z"/>
  <path fill="#1283FC" d="M34.059 19.92h4.294v11.451h-4.294V19.92Zm12.881 4.294h2.864v11.452H46.94V24.214Zm-1.43-4.294h-2.863v11.451h2.863V19.92Z"/>
  <path fill="#313131" d="M45.51 19.92h-8.59v4.294h-7.157v4.295H25.47V51.41h4.294v4.295h7.157V60h8.589v-2.863h8.588v-4.294h4.294v-8.589h-8.588v4.295H45.51v2.862h-7.157v-4.294h-4.295V32.803h4.294v-4.294h7.158v2.863h4.294v4.294h8.588v-8.589h-4.294v-4.294H45.51V19.92Z"/>
  <defs>
    <filter id="a" width="55.786" height="60.08" x="9" y="8" color-interpolation-filters="sRGB" filterUnits="userSpaceOnUse">
      <feFlood flood-opacity="0" result="BackgroundImageFix"/>
      <feBlend in="SourceGraphic" in2="BackgroundImageFix" result="shape"/>
      <feGaussianBlur result="effect1_foregroundBlur_52_21037" stdDeviation="5"/>
    </filter>
  </defs>
</svg>
