<svg xmlns="http://www.w3.org/2000/svg" width="80" height="80" fill="none" viewBox="0 0 80 80">
  <g clip-path="url(#a)">
    <g filter="url(#b)">
      <path fill="#5A3981" d="M32.965 12.978a9.8 9.8 0 0 1 14.071 0l9.935 10.153c9.372 9.578 9.372 25.107 0 34.684a23.638 23.638 0 0 1-33.942 0c-9.373-9.578-9.373-25.106 0-34.684l9.936-10.153Z"/>
    </g>
    <path fill="#000" d="M32.965 15.978a9.8 9.8 0 0 1 14.071 0l9.935 10.152c9.372 9.578 9.372 25.108 0 34.685a23.638 23.638 0 0 1-33.942 0c-9.373-9.578-9.373-25.107 0-34.685l9.936-10.152Z"/>
    <path fill="#fff" fill-rule="evenodd" d="M42.064 23.28a3.012 3.012 0 0 0-4.157 0l-9.122 8.633a3.145 3.145 0 0 0-.904 1.6l-2.756 12.39a3.177 3.177 0 0 0 .024 1.484c.005.361.071.73.207 1.09l1.961 5.174c.262.69.755 1.265 1.392 1.618l9.815 5.451a3 3 0 0 0 2.922 0l9.814-5.451a3.109 3.109 0 0 0 1.392-1.618l1.96-5.175a3.18 3.18 0 0 0 .208-1.085c.121-.473.136-.98.023-1.487l-2.756-12.39a3.141 3.141 0 0 0-.904-1.6l-9.121-8.633.002-.001Z" clip-rule="evenodd"/>
    <path fill="#000" d="M46.066 33.882c.671-.627.319-2.138-.788-3.376-1.107-1.237-2.549-1.732-3.22-1.104-.671.627-.319 2.138.788 3.376 1.107 1.237 2.549 1.732 3.22 1.104Zm3.282 3.558c.439-.41.208-1.398-.516-2.207-.723-.81-1.666-1.133-2.105-.723-.439.41-.208 1.399.516 2.208.723.809 1.666 1.132 2.105.722Z"/>
  </g>
  <defs>
    <clipPath id="a">
      <path fill="#fff" d="M0 0h80v80H0z"/>
    </clipPath>
    <filter id="b" width="76.001" height="82.999" x="2" y="-4" color-interpolation-filters="sRGB" filterUnits="userSpaceOnUse">
      <feFlood flood-opacity="0" result="BackgroundImageFix"/>
      <feBlend in="SourceGraphic" in2="BackgroundImageFix" result="shape"/>
      <feGaussianBlur result="effect1_foregroundBlur_52_21241" stdDeviation="7"/>
    </filter>
  </defs>
</svg>
