<svg xmlns="http://www.w3.org/2000/svg" width="81" height="80" fill="none" viewBox="0 0 81 80">
  <g clip-path="url(#a)">
    <g filter="url(#b)">
      <path fill="#BE1E2E" fill-opacity=".3" d="M32.523 51.5h.26l.011-.264.987-24.276 12.4 13.24-7.553 10.866-.302.434h16.057v-.276l-.048-12.56 9.332 12.725.082.111h4.52l-.323-.44L53.12 30.84l-.223-.305-.215.31-4.371 6.29L32.5 20.252 32.264 20l-.187.291-19.785 30.783-.273.426h20.504Z"/>
    </g>
    <path fill="#BE1E2E" d="M32.523 55.5h.26l.011-.264.987-24.276 12.4 13.24-7.553 10.866-.302.434h16.057v-.276l-.048-12.56 9.332 12.725.082.111h4.52l-.323-.44L53.12 34.84l-.223-.305-.215.31-4.371 6.29L32.5 24.252 32.264 24l-.187.291-19.785 30.783-.273.426h20.504Z"/>
  </g>
  <defs>
    <clipPath id="a">
      <path fill="#fff" d="M.019 0h80v80h-80z"/>
    </clipPath>
    <filter id="b" width="84.25" height="59.5" x="-1.981" y="6" color-interpolation-filters="sRGB" filterUnits="userSpaceOnUse">
      <feFlood flood-opacity="0" result="BackgroundImageFix"/>
      <feBlend in="SourceGraphic" in2="BackgroundImageFix" result="shape"/>
      <feGaussianBlur result="effect1_foregroundBlur_52_22058" stdDeviation="7"/>
    </filter>
  </defs>
</svg>
