<svg xmlns="http://www.w3.org/2000/svg" width="81" height="80" fill="none" viewBox="0 0 81 80">
  <path fill="#3C72D3" d="M34.99 54.133a14.861 14.861 0 0 1-5.023.865c-8.258 0-14.956-6.71-14.956-15 0-8.289 6.698-15 14.956-15 1.76 0 3.45.303 5.024.865a15.007 15.007 0 0 0-9.94 14.135 15.007 15.007 0 0 0 9.94 14.135Zm15.065-29.135c-1.761 0-3.45.303-5.024.865a15.007 15.007 0 0 1 9.94 14.135 15.007 15.007 0 0 1-9.94 14.135c1.567.563 3.263.865 5.024.865 8.265 0 14.956-6.718 14.956-15s-6.698-15-14.956-15Z"/>
  <g filter="url(#a)" opacity=".7">
    <path fill="#3C72D3" d="M34.99 51.133a14.861 14.861 0 0 1-5.023.865c-8.258 0-14.956-6.71-14.956-15 0-8.289 6.698-15 14.956-15 1.76 0 3.45.303 5.024.865a15.007 15.007 0 0 0-9.94 14.135 15.007 15.007 0 0 0 9.94 14.135Zm15.065-29.135c-1.761 0-3.45.303-5.024.865a15.007 15.007 0 0 1 9.94 14.135 15.007 15.007 0 0 1-9.94 14.135c1.567.563 3.263.865 5.024.865 8.265 0 14.956-6.718 14.956-15s-6.698-15-14.956-15Z"/>
  </g>
  <defs>
    <filter id="a" width="62" height="42" x="9.011" y="15.998" color-interpolation-filters="sRGB" filterUnits="userSpaceOnUse">
      <feFlood flood-opacity="0" result="BackgroundImageFix"/>
      <feBlend in="SourceGraphic" in2="BackgroundImageFix" result="shape"/>
      <feGaussianBlur result="effect1_foregroundBlur_52_23774" stdDeviation="3"/>
    </filter>
  </defs>
</svg>
