<svg xmlns="http://www.w3.org/2000/svg" width="81" height="80" fill="none" viewBox="0 0 81 80">
  <g clip-path="url(#a)">
    <g filter="url(#b)" opacity=".4">
      <path fill="url(#c)" fill-rule="evenodd" d="m46.06 45.316 5.538-35.02c.058-.361.56-.405.68-.057l4.913 14.306c.145.428.11.895-.102 1.297L46.717 45.537c-.186.348-.72.172-.657-.216v-.005Zm-6.505 19.025L33.91 36.434c-.084-.414 0-.85.225-1.208l9.852-15.417c.198-.31.679-.146.644.224l-4.384 44.273c-.04.401-.613.428-.692.035ZM36.6 69.814 16.137 46.009c-.383-.446.137-1.09.653-.808l13.76 7.467a3.06 3.06 0 0 1 1.406 1.622l5.54 14.994c.202.552-.512.975-.896.53Zm18.672-29.45L44.441 56.12v.005c-.242.353.203.772.542.507l19.122-15.025a.515.515 0 0 0-.242-.913l-6.928-1.05a1.708 1.708 0 0 0-1.663.72ZM23.555 29.608l-1.239 8.798-.005-.004c-.07.49.106.988.468 1.327l8.529 8.004c.287.27.736-.044.582-.405l-7.643-17.812c-.145-.335-.639-.27-.692.092Z" clip-rule="evenodd"/>
    </g>
    <path fill="url(#d)" fill-rule="evenodd" d="m46.06 45.316 5.538-35.02c.058-.361.56-.405.68-.057l4.913 14.306c.145.428.11.895-.102 1.297L46.717 45.537c-.186.348-.72.172-.657-.216v-.005Zm-6.505 19.025L33.91 36.434c-.084-.414 0-.85.225-1.208l9.852-15.417c.198-.31.679-.146.644.224l-4.384 44.273c-.04.401-.613.428-.692.035ZM36.6 69.814 16.137 46.009c-.383-.446.137-1.09.653-.808l13.76 7.467a3.06 3.06 0 0 1 1.406 1.622l5.54 14.994c.202.552-.512.975-.896.53Zm18.672-29.45L44.441 56.12v.005c-.242.353.203.772.542.507l19.122-15.025a.515.515 0 0 0-.242-.913l-6.928-1.05a1.708 1.708 0 0 0-1.663.72ZM23.555 29.608l-1.239 8.798-.005-.004c-.07.49.106.988.468 1.327l8.529 8.004c.287.27.736-.044.582-.405l-7.643-17.812c-.145-.335-.639-.27-.692.092Z" clip-rule="evenodd"/>
  </g>
  <defs>
    <linearGradient id="c" x1="16.481" x2="40.43" y1="19.952" y2="70.185" gradientUnits="userSpaceOnUse">
      <stop stop-color="#FF8E00"/>
      <stop offset="1" stop-color="#F2A52B"/>
    </linearGradient>
    <linearGradient id="d" x1="16.481" x2="40.43" y1="19.952" y2="70.185" gradientUnits="userSpaceOnUse">
      <stop stop-color="#FF8E00"/>
      <stop offset="1" stop-color="#F2A52B"/>
    </linearGradient>
    <clipPath id="a">
      <path fill="#fff" d="M.03 0h80.004v80H.03z"/>
    </clipPath>
    <filter id="b" width="70.296" height="82" x="5.005" y="-1" color-interpolation-filters="sRGB" filterUnits="userSpaceOnUse">
      <feFlood flood-opacity="0" result="BackgroundImageFix"/>
      <feBlend in="SourceGraphic" in2="BackgroundImageFix" result="shape"/>
      <feGaussianBlur result="effect1_foregroundBlur_52_25155" stdDeviation="5.5"/>
    </filter>
  </defs>
</svg>
