<svg xmlns="http://www.w3.org/2000/svg" width="80" height="80" fill="none" viewBox="0 0 80 80">
  <g clip-path="url(#a)">
    <path fill="#E8C787" fill-rule="evenodd" d="M36.91 17.418c0-.23.169-.418.377-.418h4.901c.209 0 .377.187.377.418v10.907c0 .416.488.577.693.229l5.566-9.45c.117-.198.358-.25.532-.113l4.013 3.121c.166.13.21.383.099.571l-4.688 7.96c-.164.278.016.647.315.647h11.003c.209 0 .377.187.377.418v5.436c0 .231-.168.419-.377.419h-4.39c-3.08 0-5.8-2.015-8.483-4.002-1.075-.795-2.143-1.586-3.226-2.241a8.191 8.191 0 0 0-4.261-1.202 8.191 8.191 0 0 0-4.262 1.202c-1.082.655-2.15 1.446-3.225 2.241-2.683 1.987-5.404 4.002-8.483 4.002h-4.391c-.208 0-.377-.188-.377-.419v-5.436c0-.231.169-.418.377-.418h11.01c.3 0 .48-.369.316-.647l-4.688-7.96a.448.448 0 0 1 .099-.57l4.012-3.122c.175-.136.416-.085.532.113l5.56 9.437c.204.348.692.187.692-.228V17.418Zm-4.66 29.02c-2.682-1.986-5.403-4-8.483-4h-4.39c-.208 0-.377.187-.377.418v5.436c0 .231.169.418.377.418h11.01c.3 0 .48.37.316.647l-4.688 7.96a.448.448 0 0 0 .099.57l4.012 3.123c.175.135.416.084.532-.114l5.56-9.437c.204-.348.692-.187.692.229v10.894c0 .23.169.418.377.418h4.901c.209 0 .377-.187.377-.418V51.675c0-.416.488-.577.693-.229l5.566 9.45c.117.198.358.25.532.114l4.013-3.122a.448.448 0 0 0 .099-.571l-4.688-7.96c-.164-.278.016-.647.315-.647h11.003c.209 0 .377-.187.377-.418v-5.436c0-.231-.168-.419-.377-.419h-4.39c-3.08 0-5.8 2.015-8.483 4.002-1.075.795-2.143 1.586-3.226 2.242a8.192 8.192 0 0 1-4.261 1.2 8.192 8.192 0 0 1-4.262-1.2c-1.082-.656-2.15-1.447-3.225-2.242Zm7.488 1.716c4.023 0 7.285-3.65 7.285-8.154s-3.262-8.154-7.285-8.154c-4.024 0-7.285 3.65-7.285 8.154s3.261 8.154 7.285 8.154Z" clip-rule="evenodd"/>
    <g filter="url(#b)" opacity=".8">
      <path fill="#E8C787" fill-rule="evenodd" d="M40.91 13.418c0-.23.169-.418.377-.418h4.901c.209 0 .377.187.377.418v10.907c0 .416.488.577.693.229l5.566-9.45c.117-.198.358-.25.532-.113l4.013 3.121c.166.13.21.383.099.571l-4.688 7.96c-.164.278.016.647.315.647h11.003c.209 0 .377.187.377.418v5.436c0 .231-.168.419-.377.419h-4.39c-3.08 0-5.8-2.015-8.483-4.002-1.075-.795-2.143-1.586-3.226-2.241a8.191 8.191 0 0 0-4.261-1.202 8.191 8.191 0 0 0-4.262 1.202c-1.082.655-2.15 1.446-3.225 2.241-2.683 1.987-5.404 4.002-8.483 4.002h-4.391c-.208 0-.377-.188-.377-.419v-5.436c0-.231.169-.418.377-.418h11.01c.3 0 .48-.369.316-.647l-4.688-7.96a.448.448 0 0 1 .099-.57l4.012-3.122c.175-.136.416-.085.532.113l5.56 9.437c.204.348.692.187.692-.228V13.418Zm-4.66 29.02c-2.682-1.986-5.403-4-8.483-4h-4.39c-.208 0-.377.187-.377.418v5.436c0 .231.169.418.377.418h11.01c.3 0 .48.37.316.647l-4.688 7.96a.448.448 0 0 0 .099.57l4.012 3.123c.175.135.416.084.532-.114l5.56-9.437c.204-.348.692-.187.692.229v10.894c0 .23.169.418.377.418h4.901c.209 0 .377-.187.377-.418V47.675c0-.416.488-.577.693-.229l5.566 9.45c.117.198.358.25.532.114l4.013-3.122a.448.448 0 0 0 .099-.571l-4.688-7.96c-.164-.278.016-.647.315-.647h11.003c.209 0 .377-.187.377-.418v-5.436c0-.231-.168-.419-.377-.419h-4.39c-3.08 0-5.8 2.015-8.483 4.002-1.075.795-2.143 1.586-3.226 2.242a8.192 8.192 0 0 1-4.261 1.2 8.192 8.192 0 0 1-4.262-1.2c-1.082-.656-2.15-1.447-3.225-2.242Zm7.488 1.716c4.023 0 7.285-3.65 7.285-8.154s-3.262-8.154-7.285-8.154c-4.024 0-7.285 3.65-7.285 8.154s3.261 8.154 7.285 8.154Z" clip-rule="evenodd"/>
    </g>
  </g>
  <defs>
    <clipPath id="a">
      <path fill="#fff" d="M0 0h80v80H0z"/>
    </clipPath>
    <filter id="b" width="81.476" height="86" x="3" y="-7" color-interpolation-filters="sRGB" filterUnits="userSpaceOnUse">
      <feFlood flood-opacity="0" result="BackgroundImageFix"/>
      <feBlend in="SourceGraphic" in2="BackgroundImageFix" result="shape"/>
      <feGaussianBlur result="effect1_foregroundBlur_52_25608" stdDeviation="10"/>
    </filter>
  </defs>
</svg>
