<svg xmlns="http://www.w3.org/2000/svg" width="80" height="80" fill="none" viewBox="0 0 80 80">
  <g clip-path="url(#a)" filter="url(#b)" opacity=".5">
    <path fill="#fff" d="m56.579 24.421-10.421-1.158-12.737 1.158L32.263 36l1.158 11.579L45 49.026l11.579-1.447 1.157-11.868-1.157-11.29Z"/>
    <path fill="#1A73E8" d="M38.172 42.386c-.866-.585-1.465-1.439-1.792-2.568l2.009-.828c.182.695.5 1.233.955 1.615.452.383 1.002.57 1.644.57.658 0 1.222-.199 1.694-.599.471-.4.71-.909.71-1.525 0-.631-.25-1.147-.748-1.546-.498-.4-1.123-.6-1.87-.6h-1.16v-1.988h1.041c.643 0 1.184-.173 1.624-.52.44-.348.66-.823.66-1.428 0-.538-.197-.967-.59-1.288-.394-.321-.892-.483-1.497-.483-.59 0-1.06.156-1.407.472a2.767 2.767 0 0 0-.758 1.16l-1.989-.827c.264-.747.747-1.407 1.456-1.978.71-.57 1.616-.856 2.716-.856.813 0 1.545.156 2.194.471.648.316 1.158.753 1.525 1.309a3.34 3.34 0 0 1 .55 1.878c0 .71-.17 1.309-.512 1.8a3.531 3.531 0 0 1-1.26 1.133v.118a3.823 3.823 0 0 1 1.616 1.26c.42.564.63 1.239.63 2.026 0 .787-.199 1.49-.598 2.107a4.15 4.15 0 0 1-1.653 1.456c-.704.354-1.494.533-2.37.533-1.017.003-1.955-.29-2.82-.874Zm12.328-9.97-2.194 1.595-1.103-1.673 3.957-2.854h1.517v13.463H50.5v-10.53Z"/>
    <path fill="#EA4335" d="M56.58 58 67 47.58l-5.21-2.317-5.21 2.316-2.316 5.21L56.579 58Z"/>
    <path fill="#34A853" d="M31.105 52.79 33.422 58H56.58V47.579H33.421l-2.316 5.21Z"/>
    <path fill="#4285F4" d="M26.474 14A3.473 3.473 0 0 0 23 17.474v30.105l5.21 2.316 5.211-2.316V24.42h23.158l2.316-5.21L56.578 14H26.474Z"/>
    <path fill="#188038" d="M23 47.579v6.947A3.473 3.473 0 0 0 26.474 58h6.947V47.579H23Z"/>
    <path fill="#FBBC04" d="M56.58 24.42v23.16H67V24.42l-5.21-2.316-5.21 2.316Z"/>
    <path fill="#1967D2" d="M67 24.421v-6.947A3.473 3.473 0 0 0 63.526 14H56.58v10.421H67Z"/>
  </g>
  <g clip-path="url(#c)">
    <path fill="#fff" d="m51.579 28.421-10.421-1.158-12.737 1.158L27.263 40l1.158 11.579L40 53.026l11.579-1.447 1.157-11.868-1.157-11.29Z"/>
    <path fill="#1A73E8" d="M33.172 46.386c-.866-.585-1.465-1.439-1.792-2.568l2.009-.828c.182.695.5 1.233.955 1.615.452.383 1.002.57 1.644.57.658 0 1.222-.199 1.694-.599.471-.4.71-.909.71-1.525 0-.631-.25-1.147-.748-1.546-.498-.4-1.123-.6-1.87-.6h-1.16v-1.988h1.041c.643 0 1.184-.173 1.624-.52.44-.348.66-.823.66-1.428 0-.538-.197-.967-.59-1.288-.394-.321-.892-.483-1.497-.483-.59 0-1.06.156-1.407.472a2.767 2.767 0 0 0-.758 1.16l-1.989-.827c.264-.747.747-1.407 1.456-1.978.71-.57 1.616-.856 2.716-.856.813 0 1.545.156 2.194.471.648.316 1.158.753 1.525 1.309a3.34 3.34 0 0 1 .55 1.878c0 .71-.17 1.309-.512 1.8a3.531 3.531 0 0 1-1.26 1.133v.118a3.823 3.823 0 0 1 1.616 1.26c.42.564.63 1.239.63 2.026 0 .787-.199 1.49-.598 2.107a4.15 4.15 0 0 1-1.653 1.456c-.704.354-1.494.533-2.37.533-1.017.003-1.955-.29-2.82-.874Zm12.328-9.97-2.194 1.595-1.103-1.673 3.957-2.854h1.517v13.463H45.5v-10.53Z"/>
    <path fill="#EA4335" d="M51.58 62 62 51.58l-5.21-2.317-5.21 2.316-2.316 5.21L51.579 62Z"/>
    <path fill="#34A853" d="M26.105 56.79 28.421 62H51.58V51.579H28.421l-2.316 5.21Z"/>
    <path fill="#4285F4" d="M21.474 18A3.473 3.473 0 0 0 18 21.474v30.105l5.21 2.316 5.211-2.316V28.42h23.158l2.316-5.21L51.578 18H21.474Z"/>
    <path fill="#188038" d="M18 51.579v6.947A3.473 3.473 0 0 0 21.474 62h6.947V51.579H18Z"/>
    <path fill="#FBBC04" d="M51.58 28.42v23.16H62V28.42l-5.21-2.316-5.21 2.316Z"/>
    <path fill="#1967D2" d="M62 28.421v-6.947A3.473 3.473 0 0 0 58.526 18H51.58v10.421H62Z"/>
  </g>
  <defs>
    <clipPath id="a">
      <path fill="#fff" d="M23 14h44v44H23z"/>
    </clipPath>
    <clipPath id="c">
      <path fill="#fff" d="M18 18h44v44H18z"/>
    </clipPath>
    <filter id="b" width="60" height="60" x="15" y="6" color-interpolation-filters="sRGB" filterUnits="userSpaceOnUse">
      <feFlood flood-opacity="0" result="BackgroundImageFix"/>
      <feBlend in="SourceGraphic" in2="BackgroundImageFix" result="shape"/>
      <feGaussianBlur result="effect1_foregroundBlur_55_2117" stdDeviation="4"/>
    </filter>
  </defs>
</svg>
