<svg xmlns="http://www.w3.org/2000/svg" width="80" height="80" fill="none" viewBox="0 0 80 80">
  <g filter="url(#a)" opacity=".5">
    <path fill="url(#b)" d="m29.577 37.276 12.539 7.167V18.1L29.577 37.276Z"/>
    <path fill="url(#c)" d="m54.634 37.276-12.518 7.167V18.1l12.518 19.176Z"/>
    <path fill="url(#d)" fill-opacity=".6" d="m54.634 37.276-12.518 7.167V18.1l12.518 19.176Z"/>
    <path fill="url(#e)" d="M42.116 67.9c9.834 0 17.805-7.925 17.805-17.7 0-3.752-1.174-7.23-3.176-10.094l-14.748 8.826-14.747-8.476a17.544 17.544 0 0 0-2.94 9.744c0 9.775 7.972 17.7 17.805 17.7Z"/>
    <path fill="url(#f)" d="M42.116 67.9c9.834 0 17.805-7.925 17.805-17.7 0-3.752-1.174-7.23-3.176-10.094l-14.748 8.826-14.747-8.476a17.544 17.544 0 0 0-2.94 9.744c0 9.775 7.972 17.7 17.805 17.7Z"/>
    <path fill="url(#g)" d="M42.116 67.9c9.834 0 17.805-7.925 17.805-17.7 0-3.752-1.174-7.23-3.176-10.094l-14.748 8.826-14.747-8.476a17.544 17.544 0 0 0-2.94 9.744c0 9.775 7.972 17.7 17.805 17.7Z"/>
    <g opacity=".9">
      <ellipse cx="41.507" cy="57.114" fill="url(#h)" rx="22.99" ry="6.73" transform="rotate(1.977 41.507 57.114)"/>
      <ellipse cx="41.507" cy="57.114" fill="url(#i)" fill-opacity=".6" rx="22.99" ry="6.73" transform="rotate(1.977 41.507 57.114)"/>
    </g>
    <g opacity=".9">
      <ellipse cx="42.673" cy="52.622" fill="url(#j)" rx="24.648" ry="8.345" transform="rotate(-8.2 42.673 52.622)"/>
      <ellipse cx="42.673" cy="52.622" fill="url(#k)" fill-opacity=".6" rx="24.648" ry="8.345" transform="rotate(-8.2 42.673 52.622)"/>
    </g>
    <g opacity=".9">
      <ellipse cx="41.583" cy="49.999" fill="url(#l)" rx="23.958" ry="7.672" transform="rotate(-15 41.583 50)"/>
      <ellipse cx="41.583" cy="49.999" fill="url(#m)" fill-opacity=".6" rx="23.958" ry="7.672" transform="rotate(-15 41.583 50)"/>
    </g>
    <g opacity=".9">
      <ellipse cx="40.441" cy="47.74" fill="url(#n)" rx="23.748" ry="7.15" transform="rotate(-21.946 40.441 47.74)"/>
      <ellipse cx="40.441" cy="47.74" fill="url(#o)" fill-opacity=".6" rx="23.748" ry="7.15" transform="rotate(-21.946 40.441 47.74)"/>
    </g>
  </g>
  <path fill="url(#p)" d="m27.577 34.276 12.539 7.167V15.1L27.577 34.276Z"/>
  <path fill="url(#q)" d="m52.634 34.276-12.518 7.167V15.1l12.518 19.176Z"/>
  <path fill="url(#r)" fill-opacity=".6" d="m52.634 34.276-12.518 7.167V15.1l12.518 19.176Z"/>
  <path fill="url(#s)" d="M40.116 64.9c9.834 0 17.805-7.925 17.805-17.7 0-3.752-1.174-7.23-3.176-10.094l-14.748 8.826-14.747-8.476a17.544 17.544 0 0 0-2.94 9.744c0 9.775 7.972 17.7 17.805 17.7Z"/>
  <path fill="url(#t)" d="M40.116 64.9c9.834 0 17.805-7.925 17.805-17.7 0-3.752-1.174-7.23-3.176-10.094l-14.748 8.826-14.747-8.476a17.544 17.544 0 0 0-2.94 9.744c0 9.775 7.972 17.7 17.805 17.7Z"/>
  <path fill="url(#u)" d="M40.116 64.9c9.834 0 17.805-7.925 17.805-17.7 0-3.752-1.174-7.23-3.176-10.094l-14.748 8.826-14.747-8.476a17.544 17.544 0 0 0-2.94 9.744c0 9.775 7.972 17.7 17.805 17.7Z"/>
  <g opacity=".9">
    <ellipse cx="39.507" cy="54.114" fill="url(#v)" rx="22.99" ry="6.73" transform="rotate(1.977 39.507 54.114)"/>
    <ellipse cx="39.507" cy="54.114" fill="url(#w)" fill-opacity=".6" rx="22.99" ry="6.73" transform="rotate(1.977 39.507 54.114)"/>
  </g>
  <g opacity=".9">
    <ellipse cx="40.673" cy="49.622" fill="url(#x)" rx="24.648" ry="8.345" transform="rotate(-8.2 40.673 49.622)"/>
    <ellipse cx="40.673" cy="49.622" fill="url(#y)" fill-opacity=".6" rx="24.648" ry="8.345" transform="rotate(-8.2 40.673 49.622)"/>
  </g>
  <g opacity=".9">
    <ellipse cx="39.583" cy="46.999" fill="url(#z)" rx="23.958" ry="7.672" transform="rotate(-15 39.583 47)"/>
    <ellipse cx="39.583" cy="46.999" fill="url(#A)" fill-opacity=".6" rx="23.958" ry="7.672" transform="rotate(-15 39.583 47)"/>
  </g>
  <g opacity=".9">
    <ellipse cx="38.441" cy="44.74" fill="url(#B)" rx="23.748" ry="7.15" transform="rotate(-21.946 38.441 44.74)"/>
    <ellipse cx="38.441" cy="44.74" fill="url(#C)" fill-opacity=".6" rx="23.748" ry="7.15" transform="rotate(-21.946 38.441 44.74)"/>
  </g>
  <defs>
    <radialGradient id="b" cx="0" cy="0" r="1" gradientTransform="rotate(-146.949 26.94 15.894) scale(15.8294 39.7297)" gradientUnits="userSpaceOnUse">
      <stop stop-color="#5551FA"/>
      <stop offset=".944" stop-color="#0047FF" stop-opacity=".11"/>
    </radialGradient>
    <radialGradient id="c" cx="0" cy="0" r="1" gradientTransform="rotate(-74.42 47.61 -7.571) scale(28.4478 43.1445)" gradientUnits="userSpaceOnUse">
      <stop stop-color="#2238FF"/>
      <stop offset="1" stop-color="#0047FF" stop-opacity="0"/>
    </radialGradient>
    <radialGradient id="e" cx="0" cy="0" r="1" gradientTransform="matrix(-1.34593 -23.6887 19.27212 -1.095 42.121 66.823)" gradientUnits="userSpaceOnUse">
      <stop stop-color="#5135FF"/>
      <stop offset="1" stop-color="#00A3FF" stop-opacity="0"/>
    </radialGradient>
    <radialGradient id="f" cx="0" cy="0" r="1" gradientTransform="matrix(11.9601 17.34285 -22.22004 15.32354 25.249 39.319)" gradientUnits="userSpaceOnUse">
      <stop stop-color="#3B52FC"/>
      <stop offset="1" stop-color="#3B52FC" stop-opacity="0"/>
    </radialGradient>
    <radialGradient id="g" cx="0" cy="0" r="1" gradientTransform="rotate(110.478 16.317 38.023) scale(22.4448 28.7567)" gradientUnits="userSpaceOnUse">
      <stop stop-color="#2A6BFF"/>
      <stop offset="1" stop-color="#2A6BFF" stop-opacity="0"/>
    </radialGradient>
    <radialGradient id="h" cx="0" cy="0" r="1" gradientTransform="rotate(-131.126 33.525 25.946) scale(11.7262 22.9804)" gradientUnits="userSpaceOnUse">
      <stop stop-color="#2238FF"/>
      <stop offset="1" stop-color="#0047FF" stop-opacity="0"/>
    </radialGradient>
    <radialGradient id="i" cx="0" cy="0" r="1" gradientTransform="matrix(2.35405 12.92863 -46.6077 8.48636 45.033 52.31)" gradientUnits="userSpaceOnUse">
      <stop offset=".211" stop-color="#5F5BFF" stop-opacity="0"/>
      <stop offset="1" stop-color="#06F"/>
    </radialGradient>
    <radialGradient id="j" cx="0" cy="0" r="1" gradientTransform="matrix(-8.26882 -10.9528 20.83375 -15.72845 36.803 66.448)" gradientUnits="userSpaceOnUse">
      <stop stop-color="#2238FF"/>
      <stop offset="1" stop-color="#0047FF" stop-opacity="0"/>
    </radialGradient>
    <radialGradient id="k" cx="0" cy="0" r="1" gradientTransform="matrix(2.52383 16.03155 -50.37685 7.93079 46.453 46.664)" gradientUnits="userSpaceOnUse">
      <stop offset=".211" stop-color="#5F5BFF" stop-opacity="0"/>
      <stop offset="1" stop-color="#06F"/>
    </radialGradient>
    <radialGradient id="l" cx="0" cy="0" r="1" gradientTransform="rotate(-128.596 33.03 22.721) scale(12.8839 24.8477)" gradientUnits="userSpaceOnUse">
      <stop stop-color="#2238FF"/>
      <stop offset="1" stop-color="#0047FF" stop-opacity="0"/>
    </radialGradient>
    <radialGradient id="m" cx="0" cy="0" r="1" gradientTransform="matrix(2.45318 14.73863 -48.82756 8.12713 45.258 44.523)" gradientUnits="userSpaceOnUse">
      <stop offset=".211" stop-color="#5F5BFF" stop-opacity="0"/>
      <stop offset="1" stop-color="#06F"/>
    </radialGradient>
    <radialGradient id="n" cx="0" cy="0" r="1" gradientTransform="rotate(-130.331 31.18 21.744) scale(12.3101 24.0242)" gradientUnits="userSpaceOnUse">
      <stop stop-color="#2238FF"/>
      <stop offset="1" stop-color="#0047FF" stop-opacity="0"/>
    </radialGradient>
    <radialGradient id="o" cx="0" cy="0" r="1" gradientTransform="matrix(2.43184 13.73559 -48.22993 8.53896 44.084 42.636)" gradientUnits="userSpaceOnUse">
      <stop offset=".211" stop-color="#5F5BFF" stop-opacity="0"/>
      <stop offset="1" stop-color="#06F"/>
    </radialGradient>
    <radialGradient id="p" cx="0" cy="0" r="1" gradientTransform="rotate(-146.949 25.494 14.691) scale(15.8294 39.7297)" gradientUnits="userSpaceOnUse">
      <stop stop-color="#5551FA"/>
      <stop offset=".944" stop-color="#0047FF" stop-opacity=".11"/>
    </radialGradient>
    <radialGradient id="q" cx="0" cy="0" r="1" gradientTransform="rotate(-74.42 44.634 -7.754) scale(28.4478 43.1445)" gradientUnits="userSpaceOnUse">
      <stop stop-color="#2238FF"/>
      <stop offset="1" stop-color="#0047FF" stop-opacity="0"/>
    </radialGradient>
    <radialGradient id="s" cx="0" cy="0" r="1" gradientTransform="matrix(-1.34593 -23.6887 19.27212 -1.095 40.121 63.823)" gradientUnits="userSpaceOnUse">
      <stop stop-color="#5135FF"/>
      <stop offset="1" stop-color="#00A3FF" stop-opacity="0"/>
    </radialGradient>
    <radialGradient id="t" cx="0" cy="0" r="1" gradientTransform="matrix(11.9601 17.34285 -22.22004 15.32354 23.249 36.319)" gradientUnits="userSpaceOnUse">
      <stop stop-color="#3B52FC"/>
      <stop offset="1" stop-color="#3B52FC" stop-opacity="0"/>
    </radialGradient>
    <radialGradient id="u" cx="0" cy="0" r="1" gradientTransform="rotate(110.478 16.358 35.829) scale(22.4448 28.7567)" gradientUnits="userSpaceOnUse">
      <stop stop-color="#2A6BFF"/>
      <stop offset="1" stop-color="#2A6BFF" stop-opacity="0"/>
    </radialGradient>
    <radialGradient id="v" cx="0" cy="0" r="1" gradientTransform="rotate(-131.126 31.844 24.9) scale(11.7262 22.9804)" gradientUnits="userSpaceOnUse">
      <stop stop-color="#2238FF"/>
      <stop offset="1" stop-color="#0047FF" stop-opacity="0"/>
    </radialGradient>
    <radialGradient id="w" cx="0" cy="0" r="1" gradientTransform="matrix(2.35405 12.92863 -46.6077 8.48636 43.033 49.31)" gradientUnits="userSpaceOnUse">
      <stop offset=".211" stop-color="#5F5BFF" stop-opacity="0"/>
      <stop offset="1" stop-color="#06F"/>
    </radialGradient>
    <radialGradient id="x" cx="0" cy="0" r="1" gradientTransform="matrix(-8.26882 -10.9528 20.83375 -15.72845 34.803 63.448)" gradientUnits="userSpaceOnUse">
      <stop stop-color="#2238FF"/>
      <stop offset="1" stop-color="#0047FF" stop-opacity="0"/>
    </radialGradient>
    <radialGradient id="y" cx="0" cy="0" r="1" gradientTransform="matrix(2.52383 16.03155 -50.37685 7.93079 44.453 43.664)" gradientUnits="userSpaceOnUse">
      <stop offset=".211" stop-color="#5F5BFF" stop-opacity="0"/>
      <stop offset="1" stop-color="#06F"/>
    </radialGradient>
    <radialGradient id="z" cx="0" cy="0" r="1" gradientTransform="rotate(-128.596 31.308 21.703) scale(12.8839 24.8477)" gradientUnits="userSpaceOnUse">
      <stop stop-color="#2238FF"/>
      <stop offset="1" stop-color="#0047FF" stop-opacity="0"/>
    </radialGradient>
    <radialGradient id="A" cx="0" cy="0" r="1" gradientTransform="matrix(2.45318 14.73863 -48.82756 8.12713 43.258 41.523)" gradientUnits="userSpaceOnUse">
      <stop offset=".211" stop-color="#5F5BFF" stop-opacity="0"/>
      <stop offset="1" stop-color="#06F"/>
    </radialGradient>
    <radialGradient id="B" cx="0" cy="0" r="1" gradientTransform="rotate(-130.331 29.486 20.707) scale(12.3101 24.0242)" gradientUnits="userSpaceOnUse">
      <stop stop-color="#2238FF"/>
      <stop offset="1" stop-color="#0047FF" stop-opacity="0"/>
    </radialGradient>
    <radialGradient id="C" cx="0" cy="0" r="1" gradientTransform="matrix(2.43184 13.73559 -48.22993 8.53896 42.083 39.636)" gradientUnits="userSpaceOnUse">
      <stop offset=".211" stop-color="#5F5BFF" stop-opacity="0"/>
      <stop offset="1" stop-color="#06F"/>
    </radialGradient>
    <linearGradient id="d" x1="54.7" x2="46.467" y1="41.26" y2="37.512" gradientUnits="userSpaceOnUse">
      <stop stop-color="#29EDFE"/>
      <stop offset="1" stop-color="#29EDFE" stop-opacity="0"/>
    </linearGradient>
    <linearGradient id="r" x1="52.7" x2="44.467" y1="38.26" y2="34.512" gradientUnits="userSpaceOnUse">
      <stop stop-color="#29EDFE"/>
      <stop offset="1" stop-color="#29EDFE" stop-opacity="0"/>
    </linearGradient>
    <filter id="a" width="64.852" height="65.8" x="10.247" y="10.1" color-interpolation-filters="sRGB" filterUnits="userSpaceOnUse">
      <feFlood flood-opacity="0" result="BackgroundImageFix"/>
      <feBlend in="SourceGraphic" in2="BackgroundImageFix" result="shape"/>
      <feGaussianBlur result="effect1_foregroundBlur_55_2134" stdDeviation="4"/>
    </filter>
  </defs>
</svg>
