<svg xmlns="http://www.w3.org/2000/svg" width="80" height="80" fill="none" viewBox="0 0 80 80">
  <g clip-path="url(#a)">
    <g filter="url(#b)" opacity=".5">
      <path fill="url(#c)" d="M39 9v33.5L49.5 28 39 9Z"/>
      <path fill="url(#d)" d="M39 9v33.5L49.5 28 39 9Z"/>
      <path fill="url(#e)" d="M39 42.5 22 49 6 32.5l33 10Z"/>
      <path fill="url(#f)" d="M39 42.5 22 49 6 32.5l33 10Z"/>
      <path fill="url(#g)" d="M39 9v33.5L28 28 39 9Z"/>
      <path fill="url(#h)" d="M39 9v33.5L28 28 39 9Z"/>
      <path fill="url(#i)" d="M71.5 32.5 39 42.5 49.5 28l22 4.5Z"/>
      <path fill="url(#j)" d="M71.5 32.5 39 42.5 49.5 28l22 4.5Z"/>
      <path fill="url(#k)" d="m6 32.5 33 10L28 28 6 32.5Z"/>
      <path fill="url(#l)" d="m39 42.5-20 28L22 49l17-6.5Z"/>
      <path fill="url(#m)" fill-opacity=".4" d="m39 42.5-20 28L22 49l17-6.5Z"/>
      <path fill="url(#n)" d="M71.5 32.5 56 48.5l-17-6 32.5-10Z"/>
      <path fill="url(#o)" fill-opacity=".1" d="M71.5 32.5 56 48.5l-17-6 32.5-10Z"/>
      <path fill="url(#p)" fill-opacity=".4" d="m59 70.5-3-22-17-6 20 28Z"/>
      <path fill="url(#q)" fill-opacity=".1" d="m59 70.5-3-22-17-6 20 28Z"/>
      <path fill="url(#r)" fill-opacity=".8" d="M59 70.5 39 61V42.5l20 28Z"/>
      <path fill="url(#s)" fill-opacity=".1" d="M59 70.5 39 61V42.5l20 28Z"/>
      <path fill="url(#t)" fill-opacity=".8" d="m39 42.5-20 28L39 61V42.5Z"/>
      <path fill="url(#u)" fill-opacity=".5" d="m39 42.5-20 28L39 61V42.5Z"/>
    </g>
    <path fill="url(#v)" d="M39.942 16.042V41.87l8.096-11.18-8.096-14.648Z"/>
    <path fill="url(#w)" d="M39.942 16.042V41.87l8.096-11.18-8.096-14.648Z"/>
    <path fill="url(#x)" d="m39.943 41.87-13.107 5.012L14.5 34.16l25.443 7.71Z"/>
    <path fill="url(#y)" d="m39.943 41.87-13.107 5.012L14.5 34.16l25.443 7.71Z"/>
    <path fill="url(#z)" d="M39.942 16.042V41.87l-8.48-11.18 8.48-14.648Z"/>
    <path fill="url(#A)" d="M39.942 16.042V41.87l-8.48-11.18 8.48-14.648Z"/>
    <path fill="url(#B)" d="m65 34.16-25.057 7.71 8.095-11.18L65 34.16Z"/>
    <path fill="url(#C)" d="m65 34.16-25.057 7.71 8.095-11.18L65 34.16Z"/>
    <path fill="url(#D)" d="m14.5 34.16 25.443 7.71-8.481-11.18L14.5 34.16Z"/>
    <path fill="url(#E)" d="m39.942 41.87-15.42 21.588 2.314-16.576 13.106-5.012Z"/>
    <path fill="url(#F)" fill-opacity=".4" d="m39.942 41.87-15.42 21.588 2.314-16.576 13.106-5.012Z"/>
    <path fill="url(#G)" d="M65 34.16 53.05 46.496 39.943 41.87 65 34.16Z"/>
    <path fill="url(#H)" fill-opacity=".1" d="M65 34.16 53.05 46.496 39.943 41.87 65 34.16Z"/>
    <path fill="url(#I)" fill-opacity=".4" d="M55.362 63.458 53.05 46.496 39.943 41.87l15.42 21.588Z"/>
    <path fill="url(#J)" fill-opacity=".1" d="M55.362 63.458 53.05 46.496 39.943 41.87l15.42 21.588Z"/>
    <path fill="url(#K)" fill-opacity=".8" d="m55.362 63.458-15.42-7.324V41.87l15.42 21.588Z"/>
    <path fill="url(#L)" fill-opacity=".1" d="m55.362 63.458-15.42-7.324V41.87l15.42 21.588Z"/>
    <path fill="url(#M)" fill-opacity=".8" d="m39.942 41.87-15.42 21.588 15.42-7.324V41.87Z"/>
    <path fill="url(#N)" fill-opacity=".5" d="m39.942 41.87-15.42 21.588 15.42-7.324V41.87Z"/>
  </g>
  <defs>
    <radialGradient id="c" cx="0" cy="0" r="1" gradientTransform="rotate(93.838 20.574 28.793) scale(55.3679 15.1283)" gradientUnits="userSpaceOnUse">
      <stop stop-color="#FFBFAB"/>
      <stop offset=".365" stop-color="#FF67A8" stop-opacity=".87"/>
      <stop offset=".724" stop-color="#6BAFFF" stop-opacity="0"/>
    </radialGradient>
    <radialGradient id="d" cx="0" cy="0" r="1" gradientTransform="matrix(22.49996 6.99999 -9.0996 29.2487 35 28.5)" gradientUnits="userSpaceOnUse">
      <stop stop-color="#2238FF"/>
      <stop offset="1" stop-color="#0047FF" stop-opacity="0"/>
    </radialGradient>
    <radialGradient id="e" cx="0" cy="0" r="1" gradientTransform="rotate(174.156 18.425 21.357) scale(35.9944 26.0467)" gradientUnits="userSpaceOnUse">
      <stop stop-color="#00A3FF"/>
      <stop offset=".944" stop-color="#00A3FF" stop-opacity=".29"/>
    </radialGradient>
    <radialGradient id="f" cx="0" cy="0" r="1" gradientTransform="matrix(8.74423 11.02643 -52.19061 41.38847 25.043 34.387)" gradientUnits="userSpaceOnUse">
      <stop stop-color="#FF7272"/>
      <stop offset=".18" stop-color="#FF72A7"/>
      <stop offset="1" stop-color="#7A51FF" stop-opacity="0"/>
    </radialGradient>
    <radialGradient id="g" cx="0" cy="0" r="1" gradientTransform="rotate(31.939 -30.898 61.816) scale(14.065 45.1115)" gradientUnits="userSpaceOnUse">
      <stop stop-color="#00A3FF"/>
      <stop offset=".944" stop-color="#00A3FF" stop-opacity=".29"/>
    </radialGradient>
    <radialGradient id="h" cx="0" cy="0" r="1" gradientTransform="rotate(97.418 10.692 20.754) scale(22.5759 28.1004)" gradientUnits="userSpaceOnUse">
      <stop stop-color="#FF7272"/>
      <stop offset=".18" stop-color="#FF72A7"/>
      <stop offset="1" stop-color="#7A51FF" stop-opacity="0"/>
    </radialGradient>
    <radialGradient id="i" cx="0" cy="0" r="1" gradientTransform="rotate(31.939 -62.084 104.766) scale(14.065 45.1115)" gradientUnits="userSpaceOnUse">
      <stop stop-color="#00A3FF"/>
      <stop offset=".944" stop-color="#00A3FF" stop-opacity=".29"/>
    </radialGradient>
    <radialGradient id="j" cx="0" cy="0" r="1" gradientTransform="rotate(142.927 32.059 24.655) scale(28.2002 79.2827)" gradientUnits="userSpaceOnUse">
      <stop stop-color="#5200FF"/>
      <stop offset="1" stop-color="#6100FF" stop-opacity="0"/>
    </radialGradient>
    <radialGradient id="k" cx="0" cy="0" r="1" gradientTransform="matrix(28.99999 16.77272 -8.44922 14.60868 14 31)" gradientUnits="userSpaceOnUse">
      <stop stop-color="#FFBFAB"/>
      <stop offset=".365" stop-color="#FF67A8" stop-opacity=".87"/>
      <stop offset="1" stop-color="#6BAFFF" stop-opacity="0"/>
    </radialGradient>
    <radialGradient id="l" cx="0" cy="0" r="1" gradientTransform="rotate(31.939 -102.293 63.343) scale(14.065 45.1115)" gradientUnits="userSpaceOnUse">
      <stop stop-color="#00A3FF"/>
      <stop offset=".944" stop-color="#00A3FF" stop-opacity=".29"/>
    </radialGradient>
    <radialGradient id="m" cx="0" cy="0" r="1" gradientTransform="rotate(142.927 15.544 27.46) scale(28.2002 79.2827)" gradientUnits="userSpaceOnUse">
      <stop stop-color="#5200FF"/>
      <stop offset="1" stop-color="#6100FF" stop-opacity="0"/>
    </radialGradient>
    <radialGradient id="n" cx="0" cy="0" r="1" gradientTransform="rotate(31.939 -84.798 111.266) scale(14.065 45.1115)" gradientUnits="userSpaceOnUse">
      <stop stop-color="#00A3FF"/>
      <stop offset=".944" stop-color="#00A3FF" stop-opacity=".29"/>
    </radialGradient>
    <radialGradient id="o" cx="0" cy="0" r="1" gradientTransform="rotate(142.927 29.88 31.155) scale(28.2002 79.2827)" gradientUnits="userSpaceOnUse">
      <stop stop-color="#00FFF0"/>
      <stop offset="1" stop-color="#00FFF0" stop-opacity="0"/>
    </radialGradient>
    <radialGradient id="p" cx="0" cy="0" r="1" gradientTransform="rotate(31.939 -85.672 111.516) scale(14.065 45.1115)" gradientUnits="userSpaceOnUse">
      <stop stop-color="#00A3FF"/>
      <stop offset=".944" stop-color="#00A3FF" stop-opacity=".29"/>
    </radialGradient>
    <radialGradient id="q" cx="0" cy="0" r="1" gradientTransform="rotate(142.927 29.795 31.405) scale(28.2002 79.2827)" gradientUnits="userSpaceOnUse">
      <stop stop-color="#00FFF0"/>
      <stop offset="1" stop-color="#00FFF0" stop-opacity="0"/>
    </radialGradient>
    <radialGradient id="r" cx="0" cy="0" r="1" gradientTransform="rotate(31.939 -89.172 99.285) scale(14.065 45.1115)" gradientUnits="userSpaceOnUse">
      <stop stop-color="#00A3FF"/>
      <stop offset=".944" stop-color="#00A3FF" stop-opacity=".29"/>
    </radialGradient>
    <radialGradient id="s" cx="0" cy="0" r="1" gradientTransform="rotate(142.927 26.295 30.231) scale(28.2002 79.2827)" gradientUnits="userSpaceOnUse">
      <stop stop-color="#00FFF0"/>
      <stop offset="1" stop-color="#00FFF0" stop-opacity="0"/>
    </radialGradient>
    <radialGradient id="t" cx="0" cy="0" r="1" gradientTransform="rotate(31.939 -96.672 73.077) scale(14.065 45.1115)" gradientUnits="userSpaceOnUse">
      <stop stop-color="#00A3FF"/>
      <stop offset=".944" stop-color="#00A3FF" stop-opacity=".29"/>
    </radialGradient>
    <radialGradient id="u" cx="0" cy="0" r="1" gradientTransform="matrix(33.50002 -5 14.05712 94.18274 5.5 59)" gradientUnits="userSpaceOnUse">
      <stop stop-color="#0038FF"/>
      <stop offset="1" stop-color="#6100FF" stop-opacity="0"/>
    </radialGradient>
    <radialGradient id="v" cx="0" cy="0" r="1" gradientTransform="rotate(93.838 16.543 31.367) scale(42.6883 11.6638)" gradientUnits="userSpaceOnUse">
      <stop stop-color="#FFBFAB"/>
      <stop offset=".365" stop-color="#FF67A8" stop-opacity=".87"/>
      <stop offset=".724" stop-color="#6BAFFF" stop-opacity="0"/>
    </radialGradient>
    <radialGradient id="w" cx="0" cy="0" r="1" gradientTransform="matrix(17.34736 5.39696 -7.0157 22.55047 36.858 31.076)" gradientUnits="userSpaceOnUse">
      <stop stop-color="#2238FF"/>
      <stop offset="1" stop-color="#0047FF" stop-opacity="0"/>
    </radialGradient>
    <radialGradient id="x" cx="0" cy="0" r="1" gradientTransform="rotate(174.156 18.91 21.27) scale(27.7514 20.0818)" gradientUnits="userSpaceOnUse">
      <stop stop-color="#00A3FF"/>
      <stop offset=".944" stop-color="#00A3FF" stop-opacity=".29"/>
    </radialGradient>
    <radialGradient id="y" cx="0" cy="0" r="1" gradientTransform="rotate(51.585 -22.258 48) scale(10.85 51.3557)" gradientUnits="userSpaceOnUse">
      <stop stop-color="#FF7272"/>
      <stop offset=".18" stop-color="#FF72A7"/>
      <stop offset="1" stop-color="#7A51FF" stop-opacity="0"/>
    </radialGradient>
    <radialGradient id="z" cx="0" cy="0" r="1" gradientTransform="matrix(-6.49714 42.55336 -12.1753 -1.85895 40 17)" gradientUnits="userSpaceOnUse">
      <stop stop-color="#FFBFAB"/>
      <stop offset=".365" stop-color="#FF67A8" stop-opacity=".87"/>
      <stop offset=".724" stop-color="#6BAFFF" stop-opacity="0"/>
    </radialGradient>
    <radialGradient id="A" cx="0" cy="0" r="1" gradientTransform="matrix(-17.0001 -13.99985 17.50905 -21.26134 40 47.5)" gradientUnits="userSpaceOnUse">
      <stop stop-color="#2238FF"/>
      <stop offset="1" stop-color="#0047FF" stop-opacity="0"/>
    </radialGradient>
    <radialGradient id="B" cx="0" cy="0" r="1" gradientTransform="rotate(31.939 -58.835 102.578) scale(10.844 34.7806)" gradientUnits="userSpaceOnUse">
      <stop stop-color="#00A3FF"/>
      <stop offset=".944" stop-color="#00A3FF" stop-opacity=".29"/>
    </radialGradient>
    <radialGradient id="C" cx="0" cy="0" r="1" gradientTransform="rotate(142.927 28.128 25.216) scale(21.7421 61.1264)" gradientUnits="userSpaceOnUse">
      <stop stop-color="#5200FF"/>
      <stop offset="1" stop-color="#6100FF" stop-opacity="0"/>
    </radialGradient>
    <radialGradient id="D" cx="0" cy="0" r="1" gradientTransform="rotate(30.044 -51.158 55.01) scale(25.8291 13.0113)" gradientUnits="userSpaceOnUse">
      <stop stop-color="#FFBFAB"/>
      <stop offset=".365" stop-color="#FF67A8" stop-opacity=".87"/>
      <stop offset="1" stop-color="#6BAFFF" stop-opacity="0"/>
    </radialGradient>
    <radialGradient id="E" cx="0" cy="0" r="1" gradientTransform="rotate(31.939 -89.835 70.64) scale(10.844 34.7806)" gradientUnits="userSpaceOnUse">
      <stop stop-color="#00A3FF"/>
      <stop offset=".944" stop-color="#00A3FF" stop-opacity=".29"/>
    </radialGradient>
    <radialGradient id="F" cx="0" cy="0" r="1" gradientTransform="rotate(142.927 15.395 27.379) scale(21.7421 61.1263)" gradientUnits="userSpaceOnUse">
      <stop stop-color="#5200FF"/>
      <stop offset="1" stop-color="#6100FF" stop-opacity="0"/>
    </radialGradient>
    <radialGradient id="G" cx="0" cy="0" r="1" gradientTransform="rotate(31.939 -76.347 107.589) scale(10.844 34.7806)" gradientUnits="userSpaceOnUse">
      <stop stop-color="#00A3FF"/>
      <stop offset=".944" stop-color="#00A3FF" stop-opacity=".29"/>
    </radialGradient>
    <radialGradient id="H" cx="0" cy="0" r="1" gradientTransform="rotate(142.927 26.448 30.227) scale(21.7421 61.1264)" gradientUnits="userSpaceOnUse">
      <stop stop-color="#00FFF0"/>
      <stop offset="1" stop-color="#00FFF0" stop-opacity="0"/>
    </radialGradient>
    <radialGradient id="I" cx="0" cy="0" r="1" gradientTransform="rotate(31.939 -77.02 107.781) scale(10.844 34.7806)" gradientUnits="userSpaceOnUse">
      <stop stop-color="#00A3FF"/>
      <stop offset=".944" stop-color="#00A3FF" stop-opacity=".29"/>
    </radialGradient>
    <radialGradient id="J" cx="0" cy="0" r="1" gradientTransform="rotate(142.927 26.383 30.42) scale(21.7421 61.1264)" gradientUnits="userSpaceOnUse">
      <stop stop-color="#00FFF0"/>
      <stop offset="1" stop-color="#00FFF0" stop-opacity="0"/>
    </radialGradient>
    <radialGradient id="K" cx="0" cy="0" r="1" gradientTransform="rotate(31.939 -79.72 98.352) scale(10.844 34.7806)" gradientUnits="userSpaceOnUse">
      <stop stop-color="#00A3FF"/>
      <stop offset=".944" stop-color="#00A3FF" stop-opacity=".29"/>
    </radialGradient>
    <radialGradient id="L" cx="0" cy="0" r="1" gradientTransform="rotate(142.927 23.684 29.515) scale(21.7421 61.1264)" gradientUnits="userSpaceOnUse">
      <stop stop-color="#00FFF0"/>
      <stop offset="1" stop-color="#00FFF0" stop-opacity="0"/>
    </radialGradient>
    <radialGradient id="M" cx="0" cy="0" r="1" gradientTransform="rotate(31.939 -85.502 78.145) scale(10.844 34.7806)" gradientUnits="userSpaceOnUse">
      <stop stop-color="#00A3FF"/>
      <stop offset=".944" stop-color="#00A3FF" stop-opacity=".29"/>
    </radialGradient>
    <radialGradient id="N" cx="0" cy="0" r="1" gradientTransform="matrix(25.8282 -3.85495 10.83793 72.61415 14.114 54.592)" gradientUnits="userSpaceOnUse">
      <stop stop-color="#0038FF"/>
      <stop offset="1" stop-color="#6100FF" stop-opacity="0"/>
    </radialGradient>
    <clipPath id="a">
      <path fill="#fff" d="M0 0h80v80H0z"/>
    </clipPath>
    <filter id="b" width="91.5" height="87.5" x="-7" y="-4" color-interpolation-filters="sRGB" filterUnits="userSpaceOnUse">
      <feFlood flood-opacity="0" result="BackgroundImageFix"/>
      <feBlend in="SourceGraphic" in2="BackgroundImageFix" result="shape"/>
      <feGaussianBlur result="effect1_foregroundBlur_55_2122" stdDeviation="6.5"/>
    </filter>
  </defs>
</svg>
