<svg xmlns="http://www.w3.org/2000/svg" width="80" height="80" fill="none" viewBox="0 0 80 80">
  <g clip-path="url(#a)">
    <mask id="b" width="45" height="37" x="14" y="21" maskUnits="userSpaceOnUse" style="mask-type:luminance">
      <path fill="#fff" d="M58.964 21.926H14.883v35.685h44.081V21.926Z"/>
    </mask>
    <g mask="url(#b)">
      <path fill="#5BC0FF" d="M55.209 22.244s4.081-1.559 3.755 2.194c-.098 1.559-1.143 6.966-1.927 12.818l-2.71 17.333s-.228 2.544-2.253 2.99c-2.024.445-5.094-1.559-5.649-1.972-.457-.318-8.49-5.312-11.33-7.729-.784-.668-1.698-1.971.098-3.53l11.885-11.036c1.372-1.336 2.71-4.421-2.939-.668L28.27 43.139s-1.828 1.114-5.224.096l-7.38-2.226s-2.71-1.654 1.927-3.308c11.33-5.184 25.273-10.496 37.616-15.457Z"/>
    </g>
    <g filter="url(#c)" opacity=".4">
      <mask id="d" width="45" height="37" x="22" y="18" maskUnits="userSpaceOnUse" style="mask-type:luminance">
        <path fill="#fff" d="M67 18.913H22.92v35.684H67V18.913Z"/>
      </mask>
      <g mask="url(#d)">
        <path fill="#5BC0FF" d="M63.245 19.23s4.082-1.558 3.755 2.195c-.098 1.558-1.143 6.965-1.927 12.817l-2.71 17.334s-.228 2.544-2.253 2.989c-2.024.446-5.094-1.558-5.649-1.972-.457-.318-8.49-5.311-11.33-7.728-.784-.668-1.698-1.972.098-3.53l11.886-11.037c1.37-1.336 2.71-4.42-2.94-.668L36.307 40.126s-1.828 1.113-5.224.095l-7.38-2.226s-2.71-1.654 1.927-3.308c11.33-5.184 25.273-10.495 37.616-15.457Z"/>
      </g>
    </g>
  </g>
  <defs>
    <clipPath id="a">
      <path fill="#fff" d="M0 0h80v80H0z"/>
    </clipPath>
    <filter id="c" width="72.081" height="63.685" x="8.919" y="4.913" color-interpolation-filters="sRGB" filterUnits="userSpaceOnUse">
      <feFlood flood-opacity="0" result="BackgroundImageFix"/>
      <feBlend in="SourceGraphic" in2="BackgroundImageFix" result="shape"/>
      <feGaussianBlur result="effect1_foregroundBlur_55_2137" stdDeviation="7"/>
    </filter>
  </defs>
</svg>
