<svg xmlns="http://www.w3.org/2000/svg" width="24" height="24" fill="none" viewBox="0 0 24 24">
  <path fill="#000" d="M6.758 8.808a.2.2 0 0 1 0-.283l4.928-4.929a.3.3 0 0 1 .424 0l4.929 4.929a.2.2 0 0 1 0 .283l-.708.707a.2.2 0 0 1-.282 0l-3.432-3.432V20.98a.2.2 0 0 1-.2.2h-1a.2.2 0 0 1-.2-.2V6.046l-3.469 3.47a.2.2 0 0 1-.282 0l-.708-.708Z"/>
  <path fill="#000" d="M17.038 8.525a.2.2 0 0 1 0 .283l-.707.707a.2.2 0 0 1-.283 0l-4.15-4.15-4.15 4.15a.2.2 0 0 1-.284 0l-.707-.707a.2.2 0 0 1 0-.283l4.928-4.929a.3.3 0 0 1 .425 0l4.928 4.929Z"/>
</svg>
