<svg preserveAspectRatio="none" overflow="visible" style="display: block;" width="24" height="24" viewBox="0 0 24 24" fill="none" xmlns="http://www.w3.org/2000/svg">
<g id="Group 1171277979">
<path id="Vector" d="M12 24C18.6274 24 24 18.6274 24 12C24 5.37258 18.6274 0 12 0C5.37258 0 0 5.37258 0 12C0 18.6274 5.37258 24 12 24Z" fill="black"/>
<g id="Group">
<path id="Vector_2" d="M6.70372 9.31035L3.97307 7.91995C3.75881 8.33935 3.57874 8.77927 3.43286 9.2283L6.34815 10.1719C6.44388 9.87563 6.5624 9.58615 6.70372 9.31035Z" fill="white"/>
<path id="Vector_3" d="M9.02065 6.86009L10.5319 9.46538C10.753 9.33774 10.99 9.23973 11.2339 9.17363L10.4521 6.26518C10.6504 6.21275 10.8532 6.16717 11.0584 6.13526L10.5774 3.10828C10.1125 3.18122 9.64975 3.29291 9.203 3.43879L10.1375 6.30621C9.83894 6.40422 9.54946 6.52502 9.27138 6.66634L7.89921 3.98355C7.48209 4.19781 7.07637 4.44626 6.698 4.72434L8.50324 7.19743C8.66963 7.07663 8.84286 6.96494 9.02065 6.86009Z" fill="white"/>
<path id="Vector_4" d="M17.1365 9.01861L14.5312 10.5321C14.6589 10.7532 14.7592 10.9902 14.8253 11.2341L17.7337 10.45C17.7884 10.6483 17.8317 10.8512 17.8637 11.0541L20.8906 10.5731C20.8177 10.1081 20.706 9.64543 20.5578 9.19867L17.6927 10.1378C17.5947 9.83917 17.4739 9.54969 17.3326 9.27161L20.0154 7.89489C19.8011 7.47777 19.5527 7.07204 19.2746 6.69367L16.8015 8.50119C16.92 8.66759 17.0317 8.84082 17.1365 9.01861Z" fill="white"/>
<path id="Vector_5" d="M16.0745 3.96987C15.6551 3.75561 15.2152 3.57555 14.7662 3.42967L13.8248 6.34495C14.1189 6.44068 14.4083 6.55921 14.6864 6.70053L16.0745 3.96987Z" fill="white"/>
<path id="Vector_6" d="M14.9851 6.80763L13.4557 9.46307C13.6768 9.59071 13.8819 9.74799 14.062 9.92806L18.3517 5.62237C18.0189 5.28959 17.6565 4.98187 17.2782 4.70607L15.5094 7.14725C15.3407 7.02417 15.1675 6.9102 14.9851 6.80763Z" fill="white"/>
<path id="Vector_7" d="M6.80765 9.00951L9.46081 10.5412C9.58846 10.3201 9.74573 10.115 9.9258 9.93264L5.62467 5.64063C5.29189 5.97342 4.98417 6.33583 4.70837 6.7142L7.14727 8.48526C7.02647 8.65393 6.9125 8.82944 6.80765 9.00951Z" fill="white"/>
<path id="Vector_8" d="M12.928 6.08284L13.3907 3.10373C12.9326 3.03307 12.4653 2.9966 11.998 2.9966H11.9912V9.07334H11.998C12.2533 9.07334 12.5086 9.10525 12.7525 9.17135L13.5389 6.21048C13.3383 6.15578 13.1354 6.11475 12.928 6.08284Z" fill="white"/>
<path id="Vector_9" d="M9.17145 11.2455L6.21058 10.4569C6.15816 10.6574 6.11485 10.8626 6.08294 11.0677L3.10383 10.6027C3.03317 11.0609 2.9967 11.5327 2.9967 12H9.07344C9.07344 11.7424 9.10763 11.4894 9.17145 11.2455Z" fill="white"/>
<path id="Vector_10" d="M17.2965 14.6896L20.0272 16.08C20.2414 15.6606 20.4215 15.2207 20.5674 14.7717L17.6521 13.828C17.5564 14.1243 17.4378 14.4138 17.2965 14.6896Z" fill="white"/>
<path id="Vector_11" d="M14.9757 17.1376L13.4645 14.5323C13.2434 14.66 13.0063 14.758 12.7625 14.8241L13.5443 17.7326C13.346 17.785 13.1431 17.8306 12.938 17.8625L13.4189 20.8894C13.8839 20.8165 14.3466 20.7048 14.7933 20.5589L13.8588 17.6915C14.1574 17.5935 14.4469 17.4727 14.725 17.3314L16.0994 20.0142C16.5165 19.7999 16.9223 19.5515 17.3006 19.2734L15.4954 16.798C15.329 16.9234 15.1558 17.0351 14.9757 17.1376Z" fill="white"/>
<path id="Vector_12" d="M6.86175 14.9814L9.46704 13.4657C9.3394 13.2446 9.23911 13.0075 9.17301 12.7636L6.26456 13.5477C6.20986 13.3494 6.16655 13.1465 6.13464 12.9437L3.10767 13.4246C3.18061 13.8896 3.29229 14.3523 3.44045 14.7991L6.30559 13.8623C6.4036 14.1586 6.52441 14.4503 6.66573 14.7284L3.98293 16.1051C4.19719 16.5223 4.44564 16.928 4.72372 17.3064L7.19681 15.4988C7.07829 15.3324 6.9666 15.1592 6.86175 14.9814Z" fill="white"/>
<path id="Vector_13" d="M7.92407 20.0301C8.34347 20.2444 8.78339 20.4244 9.23242 20.5703L10.1738 17.655C9.87975 17.5593 9.59027 17.4408 9.31219 17.2995L7.92407 20.0301Z" fill="white"/>
<path id="Vector_14" d="M9.0121 17.1923L10.5415 14.5369C10.3204 14.4093 10.1153 14.252 9.93524 14.0719L5.64551 18.3776C5.97829 18.7104 6.34071 19.0181 6.71908 19.2939L8.48785 16.8527C8.65652 16.9735 8.83203 17.0875 9.0121 17.1923Z" fill="white"/>
<path id="Vector_15" d="M17.1902 14.9905L14.537 13.4588C14.4094 13.6799 14.2521 13.885 14.072 14.0674L18.3754 18.3594C18.7082 18.0266 19.0159 17.6642 19.2917 17.2858L16.8528 15.5147C16.9736 15.3438 17.0876 15.1706 17.1902 14.9905Z" fill="white"/>
<path id="Vector_16" d="M11.245 14.8286L10.4586 17.7895C10.6592 17.8419 10.8643 17.8852 11.0695 17.9172L10.6068 20.8963C11.0649 20.9669 11.5322 21.0034 11.9995 21.0034H12.0063V14.9266H11.9995C11.7442 14.9266 11.4889 14.8925 11.245 14.8286Z" fill="white"/>
<path id="Vector_17" d="M14.9259 12C14.9259 12.2576 14.894 12.5106 14.8279 12.7545L17.7888 13.5431C17.8412 13.3425 17.8845 13.1374 17.9164 12.9323L20.8955 13.3972C20.9662 12.9391 21.0026 12.4673 21.0026 12H14.9259Z" fill="white"/>
</g>
</g>
</svg>
