<svg xmlns="http://www.w3.org/2000/svg" width="501" height="500" fill="none" viewBox="0 0 501 500">
  <g filter="url(#a)" opacity=".5">
    <path fill="url(#b)" d="M249.641 239.773a61.64 61.64 0 0 0 61.306.055l63.318-36.218a13.21 13.21 0 0 1 11.665-.715l6.449 2.703a15.848 15.848 0 0 1 9.596 16.621l-2.666 20.935a15.854 15.854 0 0 0 3.108 11.599l12.776 16.797a15.85 15.85 0 0 1 0 19.192l-12.776 16.797a15.853 15.853 0 0 0-3.108 11.599l2.666 20.935a15.848 15.848 0 0 1-9.596 16.621l-19.464 8.159a15.852 15.852 0 0 0-8.49 8.49l-8.158 19.464a15.854 15.854 0 0 1-16.621 9.596l-20.935-2.666a15.852 15.852 0 0 0-11.599 3.108l-16.797 12.776a15.852 15.852 0 0 1-19.193 0l-16.797-12.776a15.85 15.85 0 0 0-11.598-3.108l-20.936 2.666a15.854 15.854 0 0 1-16.621-9.596l-8.158-19.464a15.852 15.852 0 0 0-8.49-8.49l-19.465-8.159a15.851 15.851 0 0 1-9.595-16.621l2.666-20.935a15.853 15.853 0 0 0-3.108-11.599l-12.777-16.797a15.854 15.854 0 0 1 0-19.192l12.777-16.797a15.854 15.854 0 0 0 3.108-11.599l-2.666-20.935a15.851 15.851 0 0 1 9.595-16.621l6.168-2.585a13.206 13.206 0 0 1 11.684.728l62.732 36.032Z"/>
    <path fill="url(#c)" fill-opacity=".5" d="M249.641 239.773a61.64 61.64 0 0 0 61.306.055l63.318-36.218a13.21 13.21 0 0 1 11.665-.715l6.449 2.703a15.848 15.848 0 0 1 9.596 16.621l-2.666 20.935a15.854 15.854 0 0 0 3.108 11.599l12.776 16.797a15.85 15.85 0 0 1 0 19.192l-12.776 16.797a15.853 15.853 0 0 0-3.108 11.599l2.666 20.935a15.848 15.848 0 0 1-9.596 16.621l-19.464 8.159a15.852 15.852 0 0 0-8.49 8.49l-8.158 19.464a15.854 15.854 0 0 1-16.621 9.596l-20.935-2.666a15.852 15.852 0 0 0-11.599 3.108l-16.797 12.776a15.852 15.852 0 0 1-19.193 0l-16.797-12.776a15.85 15.85 0 0 0-11.598-3.108l-20.936 2.666a15.854 15.854 0 0 1-16.621-9.596l-8.158-19.464a15.852 15.852 0 0 0-8.49-8.49l-19.465-8.159a15.851 15.851 0 0 1-9.595-16.621l2.666-20.935a15.853 15.853 0 0 0-3.108-11.599l-12.777-16.797a15.854 15.854 0 0 1 0-19.192l12.777-16.797a15.854 15.854 0 0 0 3.108-11.599l-2.666-20.935a15.851 15.851 0 0 1 9.595-16.621l6.168-2.585a13.206 13.206 0 0 1 11.684.728l62.732 36.032Z"/>
    <path fill="url(#d)" d="M249.641 239.773a61.64 61.64 0 0 0 61.306.055l63.318-36.218a13.21 13.21 0 0 1 11.665-.715l6.449 2.703a15.848 15.848 0 0 1 9.596 16.621l-2.666 20.935a15.854 15.854 0 0 0 3.108 11.599l12.776 16.797a15.85 15.85 0 0 1 0 19.192l-12.776 16.797a15.853 15.853 0 0 0-3.108 11.599l2.666 20.935a15.848 15.848 0 0 1-9.596 16.621l-19.464 8.159a15.852 15.852 0 0 0-8.49 8.49l-8.158 19.464a15.854 15.854 0 0 1-16.621 9.596l-20.935-2.666a15.852 15.852 0 0 0-11.599 3.108l-16.797 12.776a15.852 15.852 0 0 1-19.193 0l-16.797-12.776a15.85 15.85 0 0 0-11.598-3.108l-20.936 2.666a15.854 15.854 0 0 1-16.621-9.596l-8.158-19.464a15.852 15.852 0 0 0-8.49-8.49l-19.465-8.159a15.851 15.851 0 0 1-9.595-16.621l2.666-20.935a15.853 15.853 0 0 0-3.108-11.599l-12.777-16.797a15.854 15.854 0 0 1 0-19.192l12.777-16.797a15.854 15.854 0 0 0 3.108-11.599l-2.666-20.935a15.851 15.851 0 0 1 9.595-16.621l6.168-2.585a13.206 13.206 0 0 1 11.684.728l62.732 36.032Z"/>
    <path fill="url(#e)" d="M249.641 239.773a61.64 61.64 0 0 0 61.306.055l63.318-36.218a13.21 13.21 0 0 1 11.665-.715l6.449 2.703a15.848 15.848 0 0 1 9.596 16.621l-2.666 20.935a15.854 15.854 0 0 0 3.108 11.599l12.776 16.797a15.85 15.85 0 0 1 0 19.192l-12.776 16.797a15.853 15.853 0 0 0-3.108 11.599l2.666 20.935a15.848 15.848 0 0 1-9.596 16.621l-19.464 8.159a15.852 15.852 0 0 0-8.49 8.49l-8.158 19.464a15.854 15.854 0 0 1-16.621 9.596l-20.935-2.666a15.852 15.852 0 0 0-11.599 3.108l-16.797 12.776a15.852 15.852 0 0 1-19.193 0l-16.797-12.776a15.85 15.85 0 0 0-11.598-3.108l-20.936 2.666a15.854 15.854 0 0 1-16.621-9.596l-8.158-19.464a15.852 15.852 0 0 0-8.49-8.49l-19.465-8.159a15.851 15.851 0 0 1-9.595-16.621l2.666-20.935a15.853 15.853 0 0 0-3.108-11.599l-12.777-16.797a15.854 15.854 0 0 1 0-19.192l12.777-16.797a15.854 15.854 0 0 0 3.108-11.599l-2.666-20.935a15.851 15.851 0 0 1 9.595-16.621l6.168-2.585a13.206 13.206 0 0 1 11.684.728l62.732 36.032Z"/>
    <path fill="url(#f)" d="M310.947 239.827a61.637 61.637 0 0 1-61.306-.055l-65.095-37.145 73.562 27.684a61.643 61.643 0 0 0 44.353.031l73.961-27.715-65.475 37.2Z"/>
    <path fill="url(#g)" fill-opacity=".5" d="M310.947 239.827a61.637 61.637 0 0 1-61.306-.055l-65.095-37.145 73.562 27.684a61.643 61.643 0 0 0 44.353.031l73.961-27.715-65.475 37.2Z"/>
    <path fill="url(#h)" d="M310.947 239.827a61.637 61.637 0 0 1-61.306-.055l-65.095-37.145 73.562 27.684a61.643 61.643 0 0 0 44.353.031l73.961-27.715-65.475 37.2Z"/>
    <path fill="url(#i)" d="M310.947 239.827a61.637 61.637 0 0 1-61.306-.055l-65.095-37.145 73.562 27.684a61.643 61.643 0 0 0 44.353.031l73.961-27.715-65.475 37.2Z"/>
    <path fill="url(#j)" d="M314.179 61h-66.041l66.044 144.416 61.2-23.776L314.179 61Z"/>
    <path fill="url(#k)" d="M314.179 61h-66.041l66.044 144.416 61.2-23.776L314.179 61Z"/>
    <path fill="url(#l)" d="M314.179 61h-66.041l66.044 144.416 61.2-23.776L314.179 61Z"/>
    <path fill="url(#m)" d="M247.701 61h66.041l-66.485 144.416-60.76-23.776L247.701 61Z"/>
    <path fill="url(#n)" d="M247.701 61h66.041l-66.485 144.416-60.76-23.776L247.701 61Z"/>
  </g>
  <path fill="url(#o)" d="M221.018 260.499a61.64 61.64 0 0 0 61.306.055l63.318-36.218a13.213 13.213 0 0 1 11.665-.715l6.449 2.703a15.85 15.85 0 0 1 9.596 16.621l-2.666 20.935a15.853 15.853 0 0 0 3.108 11.599l12.776 16.797a15.85 15.85 0 0 1 0 19.192l-12.776 16.797a15.854 15.854 0 0 0-3.108 11.599l2.666 20.935a15.85 15.85 0 0 1-9.596 16.621l-19.464 8.159a15.852 15.852 0 0 0-8.49 8.49l-8.158 19.464a15.852 15.852 0 0 1-16.621 9.596l-20.935-2.666a15.852 15.852 0 0 0-11.599 3.108l-16.797 12.776a15.852 15.852 0 0 1-19.193 0l-16.797-12.776a15.852 15.852 0 0 0-11.599-3.108l-20.935 2.666a15.852 15.852 0 0 1-16.621-9.596l-8.158-19.464a15.852 15.852 0 0 0-8.49-8.49l-19.465-8.159a15.851 15.851 0 0 1-9.595-16.621l2.666-20.935a15.859 15.859 0 0 0-3.108-11.599l-12.777-16.797a15.854 15.854 0 0 1 0-19.192l12.777-16.797a15.857 15.857 0 0 0 3.108-11.599l-2.666-20.935a15.851 15.851 0 0 1 9.595-16.621l6.167-2.585a13.208 13.208 0 0 1 11.685.728l62.732 36.032Z"/>
  <path fill="url(#p)" fill-opacity=".5" d="M221.018 260.499a61.64 61.64 0 0 0 61.306.055l63.318-36.218a13.213 13.213 0 0 1 11.665-.715l6.449 2.703a15.85 15.85 0 0 1 9.596 16.621l-2.666 20.935a15.853 15.853 0 0 0 3.108 11.599l12.776 16.797a15.85 15.85 0 0 1 0 19.192l-12.776 16.797a15.854 15.854 0 0 0-3.108 11.599l2.666 20.935a15.85 15.85 0 0 1-9.596 16.621l-19.464 8.159a15.852 15.852 0 0 0-8.49 8.49l-8.158 19.464a15.852 15.852 0 0 1-16.621 9.596l-20.935-2.666a15.852 15.852 0 0 0-11.599 3.108l-16.797 12.776a15.852 15.852 0 0 1-19.193 0l-16.797-12.776a15.852 15.852 0 0 0-11.599-3.108l-20.935 2.666a15.852 15.852 0 0 1-16.621-9.596l-8.158-19.464a15.852 15.852 0 0 0-8.49-8.49l-19.465-8.159a15.851 15.851 0 0 1-9.595-16.621l2.666-20.935a15.859 15.859 0 0 0-3.108-11.599l-12.777-16.797a15.854 15.854 0 0 1 0-19.192l12.777-16.797a15.857 15.857 0 0 0 3.108-11.599l-2.666-20.935a15.851 15.851 0 0 1 9.595-16.621l6.167-2.585a13.208 13.208 0 0 1 11.685.728l62.732 36.032Z"/>
  <path fill="url(#q)" d="M221.018 260.499a61.64 61.64 0 0 0 61.306.055l63.318-36.218a13.213 13.213 0 0 1 11.665-.715l6.449 2.703a15.85 15.85 0 0 1 9.596 16.621l-2.666 20.935a15.853 15.853 0 0 0 3.108 11.599l12.776 16.797a15.85 15.85 0 0 1 0 19.192l-12.776 16.797a15.854 15.854 0 0 0-3.108 11.599l2.666 20.935a15.85 15.85 0 0 1-9.596 16.621l-19.464 8.159a15.852 15.852 0 0 0-8.49 8.49l-8.158 19.464a15.852 15.852 0 0 1-16.621 9.596l-20.935-2.666a15.852 15.852 0 0 0-11.599 3.108l-16.797 12.776a15.852 15.852 0 0 1-19.193 0l-16.797-12.776a15.852 15.852 0 0 0-11.599-3.108l-20.935 2.666a15.852 15.852 0 0 1-16.621-9.596l-8.158-19.464a15.852 15.852 0 0 0-8.49-8.49l-19.465-8.159a15.851 15.851 0 0 1-9.595-16.621l2.666-20.935a15.859 15.859 0 0 0-3.108-11.599l-12.777-16.797a15.854 15.854 0 0 1 0-19.192l12.777-16.797a15.857 15.857 0 0 0 3.108-11.599l-2.666-20.935a15.851 15.851 0 0 1 9.595-16.621l6.167-2.585a13.208 13.208 0 0 1 11.685.728l62.732 36.032Z"/>
  <path fill="url(#r)" d="M221.018 260.499a61.64 61.64 0 0 0 61.306.055l63.318-36.218a13.213 13.213 0 0 1 11.665-.715l6.449 2.703a15.85 15.85 0 0 1 9.596 16.621l-2.666 20.935a15.853 15.853 0 0 0 3.108 11.599l12.776 16.797a15.85 15.85 0 0 1 0 19.192l-12.776 16.797a15.854 15.854 0 0 0-3.108 11.599l2.666 20.935a15.85 15.85 0 0 1-9.596 16.621l-19.464 8.159a15.852 15.852 0 0 0-8.49 8.49l-8.158 19.464a15.852 15.852 0 0 1-16.621 9.596l-20.935-2.666a15.852 15.852 0 0 0-11.599 3.108l-16.797 12.776a15.852 15.852 0 0 1-19.193 0l-16.797-12.776a15.852 15.852 0 0 0-11.599-3.108l-20.935 2.666a15.852 15.852 0 0 1-16.621-9.596l-8.158-19.464a15.852 15.852 0 0 0-8.49-8.49l-19.465-8.159a15.851 15.851 0 0 1-9.595-16.621l2.666-20.935a15.859 15.859 0 0 0-3.108-11.599l-12.777-16.797a15.854 15.854 0 0 1 0-19.192l12.777-16.797a15.857 15.857 0 0 0 3.108-11.599l-2.666-20.935a15.851 15.851 0 0 1 9.595-16.621l6.167-2.585a13.208 13.208 0 0 1 11.685.728l62.732 36.032Z"/>
  <path fill="url(#s)" d="M282.323 260.553a61.637 61.637 0 0 1-61.306-.055l-65.095-37.145 73.562 27.684a61.643 61.643 0 0 0 44.353.031l73.961-27.715-65.475 37.2Z"/>
  <path fill="url(#t)" fill-opacity=".5" d="M282.323 260.553a61.637 61.637 0 0 1-61.306-.055l-65.095-37.145 73.562 27.684a61.643 61.643 0 0 0 44.353.031l73.961-27.715-65.475 37.2Z"/>
  <path fill="url(#u)" d="M282.323 260.553a61.637 61.637 0 0 1-61.306-.055l-65.095-37.145 73.562 27.684a61.643 61.643 0 0 0 44.353.031l73.961-27.715-65.475 37.2Z"/>
  <path fill="url(#v)" d="M282.323 260.553a61.637 61.637 0 0 1-61.306-.055l-65.095-37.145 73.562 27.684a61.643 61.643 0 0 0 44.353.031l73.961-27.715-65.475 37.2Z"/>
  <path fill="url(#w)" d="M285.556 81.727h-66.041l66.044 144.415 61.2-23.776-61.203-120.64Z"/>
  <path fill="url(#x)" d="M285.556 81.727h-66.041l66.044 144.415 61.2-23.776-61.203-120.64Z"/>
  <path fill="url(#y)" d="M285.556 81.727h-66.041l66.044 144.415 61.2-23.776-61.203-120.64Z"/>
  <path fill="url(#z)" d="M219.077 81.727h66.041l-66.485 144.415-60.76-23.776 61.204-120.64Z"/>
  <path fill="url(#A)" d="M219.077 81.727h66.041l-66.485 144.415-60.76-23.776 61.204-120.64Z"/>
  <defs>
    <radialGradient id="b" cx="0" cy="0" r="1" gradientTransform="rotate(-142.548 255.556 124.113) scale(278.578 373.498)" gradientUnits="userSpaceOnUse">
      <stop stop-color="#8AFBED" stop-opacity="0"/>
      <stop offset=".848" stop-color="#00A3FF" stop-opacity=".32"/>
      <stop offset="1" stop-color="#198CF6"/>
    </radialGradient>
    <radialGradient id="c" cx="0" cy="0" r="1" gradientTransform="matrix(145.79573 193.96303 -157.39552 118.30912 246.747 185.181)" gradientUnits="userSpaceOnUse">
      <stop stop-color="#00B2FF"/>
      <stop offset="1" stop-color="#00A3FF" stop-opacity="0"/>
    </radialGradient>
    <radialGradient id="d" cx="0" cy="0" r="1" gradientTransform="rotate(39.538 -197.147 306.891) scale(169.029 216.957)" gradientUnits="userSpaceOnUse">
      <stop stop-color="#3B52FC"/>
      <stop offset="1" stop-color="#0085FF" stop-opacity="0"/>
    </radialGradient>
    <radialGradient id="e" cx="0" cy="0" r="1" gradientTransform="rotate(109.799 108.058 239.692) scale(212.689 270.531)" gradientUnits="userSpaceOnUse">
      <stop stop-color="#2A6BFF"/>
      <stop offset="1" stop-color="#2A6BFF" stop-opacity="0"/>
    </radialGradient>
    <radialGradient id="f" cx="0" cy="0" r="1" gradientTransform="rotate(-167.062 189.43 99.778) scale(158.083 95.8017)" gradientUnits="userSpaceOnUse">
      <stop stop-color="#8AFBED" stop-opacity="0"/>
      <stop offset=".848" stop-color="#00A3FF" stop-opacity=".32"/>
      <stop offset="1" stop-color="#198CF6"/>
    </radialGradient>
    <radialGradient id="g" cx="0" cy="0" r="1" gradientTransform="matrix(101.57247 40.52413 -23.56479 59.06441 256.816 199.14)" gradientUnits="userSpaceOnUse">
      <stop stop-color="#00B2FF"/>
      <stop offset="1" stop-color="#00A3FF" stop-opacity="0"/>
    </radialGradient>
    <radialGradient id="h" cx="0" cy="0" r="1" gradientTransform="matrix(90.81478 22.48111 -13.70989 55.3825 189.595 201.342)" gradientUnits="userSpaceOnUse">
      <stop stop-color="#3B52FC"/>
      <stop offset="1" stop-color="#0085FF" stop-opacity="0"/>
    </radialGradient>
    <radialGradient id="i" cx="0" cy="0" r="1" gradientTransform="rotate(139.717 146.138 164.777) scale(58.3894 116.49)" gradientUnits="userSpaceOnUse">
      <stop stop-color="#2A6BFF"/>
      <stop offset="1" stop-color="#2A6BFF" stop-opacity="0"/>
    </radialGradient>
    <radialGradient id="j" cx="0" cy="0" r="1" gradientTransform="matrix(-44.90865 238.15072 -177.43579 -33.45949 389.67 66.137)" gradientUnits="userSpaceOnUse">
      <stop stop-color="#FFBFAB"/>
      <stop offset=".365" stop-color="#FF67A8" stop-opacity=".87"/>
      <stop offset=".724" stop-color="#6BAFFF" stop-opacity="0"/>
    </radialGradient>
    <radialGradient id="k" cx="0" cy="0" r="1" gradientTransform="matrix(43.31954 111.5949 -157.33457 61.07503 268.476 70.888)" gradientUnits="userSpaceOnUse">
      <stop stop-color="#2238FF"/>
      <stop offset="1" stop-color="#0047FF" stop-opacity="0"/>
    </radialGradient>
    <radialGradient id="m" cx="0" cy="0" r="1" gradientTransform="rotate(158.635 144.182 96.068) scale(179.754 293.327)" gradientUnits="userSpaceOnUse">
      <stop stop-color="#00A3FF"/>
      <stop offset=".944" stop-color="#00A3FF" stop-opacity="0"/>
    </radialGradient>
    <radialGradient id="n" cx="0" cy="0" r="1" gradientTransform="rotate(68.833 81.094 202.044) scale(149.964 223.81)" gradientUnits="userSpaceOnUse">
      <stop stop-color="#FF7272"/>
      <stop offset=".18" stop-color="#FF72A7"/>
      <stop offset="1" stop-color="#7A51FF" stop-opacity="0"/>
    </radialGradient>
    <radialGradient id="o" cx="0" cy="0" r="1" gradientTransform="rotate(-132.145 265.638 120.773) scale(309.792 415.348)" gradientUnits="userSpaceOnUse">
      <stop stop-color="#8AFBED" stop-opacity="0"/>
      <stop offset=".848" stop-color="#00A3FF" stop-opacity=".32"/>
      <stop offset="1" stop-color="#198CF6"/>
    </radialGradient>
    <radialGradient id="p" cx="0" cy="0" r="1" gradientTransform="matrix(113.40097 161.55456 -131.09703 92.02173 218.123 205.905)" gradientUnits="userSpaceOnUse">
      <stop stop-color="#00B2FF"/>
      <stop offset="1" stop-color="#00A3FF" stop-opacity="0"/>
    </radialGradient>
    <radialGradient id="q" cx="0" cy="0" r="1" gradientTransform="matrix(130.9312 76.00567 -97.55633 168.05546 121.634 216.443)" gradientUnits="userSpaceOnUse">
      <stop stop-color="#3B52FC"/>
      <stop offset="1" stop-color="#0085FF" stop-opacity="0"/>
    </radialGradient>
    <radialGradient id="r" cx="0" cy="0" r="1" gradientTransform="rotate(109.799 86.464 239.996) scale(212.689 270.531)" gradientUnits="userSpaceOnUse">
      <stop stop-color="#2A6BFF"/>
      <stop offset="1" stop-color="#2A6BFF" stop-opacity="0"/>
    </radialGradient>
    <radialGradient id="s" cx="0" cy="0" r="1" gradientTransform="rotate(-167.062 176.293 111.763) scale(158.083 95.8017)" gradientUnits="userSpaceOnUse">
      <stop stop-color="#8AFBED" stop-opacity="0"/>
      <stop offset=".848" stop-color="#00A3FF" stop-opacity=".32"/>
      <stop offset="1" stop-color="#198CF6"/>
    </radialGradient>
    <radialGradient id="t" cx="0" cy="0" r="1" gradientTransform="matrix(101.57247 40.52413 -23.56479 59.06441 228.192 219.866)" gradientUnits="userSpaceOnUse">
      <stop stop-color="#00B2FF"/>
      <stop offset="1" stop-color="#00A3FF" stop-opacity="0"/>
    </radialGradient>
    <radialGradient id="u" cx="0" cy="0" r="1" gradientTransform="matrix(90.81478 22.48111 -13.70989 55.3825 160.971 222.068)" gradientUnits="userSpaceOnUse">
      <stop stop-color="#3B52FC"/>
      <stop offset="1" stop-color="#0085FF" stop-opacity="0"/>
    </radialGradient>
    <radialGradient id="v" cx="0" cy="0" r="1" gradientTransform="rotate(139.717 128.025 169.891) scale(58.3894 116.49)" gradientUnits="userSpaceOnUse">
      <stop stop-color="#2A6BFF"/>
      <stop offset="1" stop-color="#2A6BFF" stop-opacity="0"/>
    </radialGradient>
    <radialGradient id="w" cx="0" cy="0" r="1" gradientTransform="matrix(-44.90865 238.15072 -177.43579 -33.45949 361.047 86.864)" gradientUnits="userSpaceOnUse">
      <stop stop-color="#FFBFAB"/>
      <stop offset=".365" stop-color="#FF67A8" stop-opacity=".87"/>
      <stop offset=".724" stop-color="#6BAFFF" stop-opacity="0"/>
    </radialGradient>
    <radialGradient id="x" cx="0" cy="0" r="1" gradientTransform="matrix(43.31954 111.5949 -157.33457 61.07503 239.853 91.615)" gradientUnits="userSpaceOnUse">
      <stop stop-color="#2238FF"/>
      <stop offset="1" stop-color="#0047FF" stop-opacity="0"/>
    </radialGradient>
    <radialGradient id="z" cx="0" cy="0" r="1" gradientTransform="rotate(158.635 127.915 103.731) scale(179.754 293.327)" gradientUnits="userSpaceOnUse">
      <stop stop-color="#00A3FF"/>
      <stop offset=".944" stop-color="#00A3FF" stop-opacity="0"/>
    </radialGradient>
    <radialGradient id="A" cx="0" cy="0" r="1" gradientTransform="rotate(68.833 51.656 191.518) scale(149.964 223.81)" gradientUnits="userSpaceOnUse">
      <stop stop-color="#FF7272"/>
      <stop offset=".18" stop-color="#FF72A7"/>
      <stop offset="1" stop-color="#7A51FF" stop-opacity="0"/>
    </radialGradient>
    <linearGradient id="l" x1="302.378" x2="266.646" y1="236.632" y2="145.581" gradientUnits="userSpaceOnUse">
      <stop stop-color="#29EDFE"/>
      <stop offset="1" stop-color="#29EDFE" stop-opacity="0"/>
    </linearGradient>
    <linearGradient id="y" x1="273.755" x2="238.023" y1="257.359" y2="166.308" gradientUnits="userSpaceOnUse">
      <stop stop-color="#29EDFE"/>
      <stop offset="1" stop-color="#29EDFE" stop-opacity="0"/>
    </linearGradient>
    <filter id="a" width="363.419" height="445.856" x="99.009" y="17" color-interpolation-filters="sRGB" filterUnits="userSpaceOnUse">
      <feFlood flood-opacity="0" result="BackgroundImageFix"/>
      <feBlend in="SourceGraphic" in2="BackgroundImageFix" result="shape"/>
      <feGaussianBlur result="effect1_foregroundBlur_369_5477" stdDeviation="22"/>
    </filter>
  </defs>
</svg>
