<svg xmlns="http://www.w3.org/2000/svg" width="81" height="80" fill="none" viewBox="0 0 81 80">
  <g filter="url(#a)">
    <path fill="#FAF56A" fill-opacity=".7" d="m26.221 24-8.206 5.976h39.54l-1.866 6.35H40.396L38.53 41.18h15.666l-2.61 7.47h-20.89L34.8 34.83l-5.595-3.735L21.372 55h29.095l7.087-3.735 2.611-8.59-4.476-3.735 6.342-2.615 2.984-8.59L60.165 24H26.221Z"/>
  </g>
  <path fill="#FFF840" d="m24.57 24-8.555 6.361h41.222l-1.945 6.76H39.348l-1.944 5.168h16.333l-2.722 7.952H29.237l4.278-14.71-5.834-3.977L19.515 57h30.333l7.389-3.976 2.722-9.145-4.667-3.975 6.611-2.784 3.112-9.144L59.959 24H24.57Z"/>
  <defs>
    <filter id="a" width="61" height="45" x="11.015" y="17" color-interpolation-filters="sRGB" filterUnits="userSpaceOnUse">
      <feFlood flood-opacity="0" result="BackgroundImageFix"/>
      <feBlend in="SourceGraphic" in2="BackgroundImageFix" result="shape"/>
      <feGaussianBlur result="effect1_foregroundBlur_52_17426" stdDeviation="3.5"/>
    </filter>
  </defs>
</svg>
