<svg xmlns="http://www.w3.org/2000/svg" width="81" height="80" fill="none" viewBox="0 0 81 80">
  <g clip-path="url(#a)">
    <g filter="url(#b)" opacity=".7">
      <path fill="#D76A3C" fill-rule="evenodd" d="M39.57 56c11.873 0 21.5-9.626 21.5-21.5S51.442 13 39.57 13c-11.875 0-21.5 9.626-21.5 21.5S27.694 56 39.57 56Zm-4.03-20.155 17.074 12.044a.246.246 0 0 0 .344-.344l-12.047-17.08L44.9 21.54a.317.317 0 0 0-.434-.434l-8.92 3.973-8.935-3.973a.317.317 0 0 0-.434.434l3.98 8.925-3.98 8.932a.317.317 0 0 0 .434.434l8.93-3.986Z" clip-rule="evenodd"/>
    </g>
    <path fill="#000" fill-rule="evenodd" d="M39.57 61c11.873 0 21.5-9.626 21.5-21.5S51.442 18 39.57 18c-11.875 0-21.5 9.626-21.5 21.5S27.694 61 39.57 61Zm-4.03-20.155 17.074 12.044a.246.246 0 0 0 .344-.344l-12.047-17.08L44.9 26.54a.317.317 0 0 0-.434-.434l-8.92 3.973-8.935-3.973a.317.317 0 0 0-.434.434l3.98 8.925-3.98 8.932a.317.317 0 0 0 .434.434l8.93-3.986Z" clip-rule="evenodd"/>
  </g>
  <defs>
    <clipPath id="a">
      <path fill="#fff" d="M.07 0h80v80h-80z"/>
    </clipPath>
    <filter id="b" width="71" height="71" x="4.069" y="-1" color-interpolation-filters="sRGB" filterUnits="userSpaceOnUse">
      <feFlood flood-opacity="0" result="BackgroundImageFix"/>
      <feBlend in="SourceGraphic" in2="BackgroundImageFix" result="shape"/>
      <feGaussianBlur result="effect1_foregroundBlur_52_17199" stdDeviation="7"/>
    </filter>
  </defs>
</svg>
