<svg xmlns="http://www.w3.org/2000/svg" width="81" height="80" fill="none" viewBox="0 0 81 80">
  <path fill="url(#a)" d="M60.008 23.734c-7.716-.027-15.258 3.32-20.418 9.031-1.857 1.922-3.095 4.275-4.585 6.454-3.567 4.882-9.135 7.704-15.17 7.701v8.78c7.714.03 15.256-3.328 20.42-9.04 1.848-1.922 3.104-4.272 4.584-6.454 3.567-4.876 9.136-7.698 15.17-7.695v-8.777Z"/>
  <path fill="#2A54FF" d="M60.009 46.92c-6.031 0-11.602-2.819-15.17-7.695-1.474-2.181-2.733-4.529-4.578-6.453-5.151-5.713-12.705-9.065-20.419-9.031v8.78c6.68-.034 12.886 3.56 16.245 9.334a27.629 27.629 0 0 0 3.51 4.823c5.157 5.71 12.704 9.068 20.418 9.04l-.006-8.795v-.003Z"/>
  <g filter="url(#b)" opacity=".4">
    <path fill="url(#c)" d="M60.008 17.94c-7.716-.027-15.258 3.32-20.418 9.031-1.857 1.922-3.095 4.275-4.585 6.454-3.567 4.882-9.135 7.705-15.17 7.701v8.78c7.714.03 15.256-3.328 20.42-9.04 1.848-1.922 3.104-4.272 4.584-6.454 3.567-4.876 9.136-7.698 15.17-7.695V17.94Z"/>
    <path fill="#2A54FF" d="M60.009 41.127c-6.031 0-11.602-2.82-15.17-7.696-1.474-2.181-2.733-4.529-4.578-6.453-5.151-5.713-12.705-9.065-20.419-9.031v8.78c6.68-.034 12.886 3.56 16.245 9.334a27.629 27.629 0 0 0 3.51 4.823c5.157 5.71 12.704 9.068 20.418 9.04l-.006-8.794v-.004Z"/>
  </g>
  <defs>
    <linearGradient id="a" x1="22.462" x2="57.538" y1="52.577" y2="26.731" gradientUnits="userSpaceOnUse">
      <stop stop-color="#2A54FF"/>
      <stop offset=".52" stop-color="#2143CB"/>
      <stop offset="1" stop-color="#2A54FF"/>
    </linearGradient>
    <linearGradient id="c" x1="22.462" x2="57.538" y1="46.783" y2="20.937" gradientUnits="userSpaceOnUse">
      <stop stop-color="#2A54FF"/>
      <stop offset=".52" stop-color="#2143CB"/>
      <stop offset="1" stop-color="#2A54FF"/>
    </linearGradient>
    <filter id="b" width="68.179" height="59.985" x="5.836" y="3.94" color-interpolation-filters="sRGB" filterUnits="userSpaceOnUse">
      <feFlood flood-opacity="0" result="BackgroundImageFix"/>
      <feBlend in="SourceGraphic" in2="BackgroundImageFix" result="shape"/>
      <feGaussianBlur result="effect1_foregroundBlur_52_17429" stdDeviation="7"/>
    </filter>
  </defs>
</svg>
