<svg xmlns="http://www.w3.org/2000/svg" width="81" height="80" fill="none" viewBox="0 0 81 80">
  <g clip-path="url(#a)">
    <g filter="url(#b)" opacity=".6">
      <path fill="#CEFD54" fill-rule="evenodd" d="M68.022 27v6c0 12.15-10.073 22-22.5 22-12.427.002-22.5-9.85-22.5-22s10.073-22 22.5-22h6.136l-11.25 11v16.006H56.77L68.022 27Zm0-16H51.658v16h16.364V11Z" clip-rule="evenodd"/>
    </g>
    <path fill="#121212" fill-rule="evenodd" d="M62.022 34v6c0 12.15-10.073 22-22.5 22-12.427.002-22.5-9.85-22.5-22s10.073-22 22.5-22h6.136l-11.25 11v16.006H50.77L62.022 34Zm0-16H45.658v16h16.364V18Z" clip-rule="evenodd"/>
  </g>
  <defs>
    <clipPath id="a">
      <path fill="#fff" d="M.022 0h80v80h-80z"/>
    </clipPath>
    <filter id="b" width="81" height="80" x="5.022" y="-7" color-interpolation-filters="sRGB" filterUnits="userSpaceOnUse">
      <feFlood flood-opacity="0" result="BackgroundImageFix"/>
      <feBlend in="SourceGraphic" in2="BackgroundImageFix" result="shape"/>
      <feGaussianBlur result="effect1_foregroundBlur_52_21052" stdDeviation="9"/>
    </filter>
  </defs>
</svg>
