<svg width="150" height="63" viewBox="0 0 150 63" fill="none" xmlns="http://www.w3.org/2000/svg">
<g clip-path="url(#clip0_9277_24408)">
<path d="M82.795 28.0257V32.8278C82.795 33.6982 83.2316 34.0499 83.9853 34.0499H84.8547V36.054H83.3379C81.7244 36.0502 80.5778 35.3239 80.5778 33.1794V28.0257H79.3477V26.0984H80.5778V23.4082H82.7931V26.0984H84.8528V28.0257H82.795Z" fill="white"/>
<path d="M66.3773 25.8936L61.4777 38.8585H59.232L60.3008 36.1144L56.1055 25.8936H58.4689L61.3316 33.4434L64.0803 25.8936H66.3773Z" fill="white"/>
<path d="M38.1797 31.0318C38.1797 33.8316 40.3058 36.1124 43.1819 36.1124V36.1144C45.0688 36.1144 46.1869 35.3535 47.1398 34.2774L45.8015 32.9419C45.1067 33.6644 44.3361 34.1659 43.2919 34.1659C41.5872 34.1659 40.3969 32.719 40.3969 30.9953C40.3969 29.2717 41.5701 27.8613 43.1819 27.8613C44.298 27.8613 45.0137 28.3628 45.6914 29.0853L47.0658 27.5826C46.1679 26.5815 45.0308 25.8955 43.1989 25.8955C40.3058 25.8955 38.1797 28.2321 38.1797 31.0318Z" fill="white"/>
<path d="M49.1289 36.1118H51.3462V32.1591C51.3462 29.5631 52.7016 28.2833 54.6436 28.2833H54.7727V25.9102C53.068 25.8352 51.9517 26.8383 51.3462 28.3025V25.9102H49.1289V36.1118Z" fill="white"/>
<path fill-rule="evenodd" clip-rule="evenodd" d="M70.1489 34.3677C70.8285 35.2766 71.8365 36.0932 73.4292 36.0932C75.7376 36.0932 77.9359 34.2582 77.9359 30.9935C77.9359 27.7287 75.7186 25.8936 73.4292 25.8936C71.8706 25.8936 70.8627 26.7083 70.1489 27.7287V25.8936H67.9316V38.8565H70.1489V34.3677ZM70.0957 30.9935C70.0957 29.0833 71.4151 27.8401 72.9167 27.8401C74.4182 27.8401 75.6826 29.045 75.6826 30.9935C75.6826 32.9418 74.4182 34.1467 72.9167 34.1467C71.4151 34.1467 70.0957 32.9035 70.0957 30.9935Z" fill="white"/>
<path fill-rule="evenodd" clip-rule="evenodd" d="M86.7393 31.0318C86.7393 33.8316 88.9186 36.1124 91.8686 36.1124L91.8705 36.1144C94.8566 36.1144 97.0549 33.8143 97.0549 30.9953C97.0549 28.1764 94.8755 25.8955 91.9065 25.8955C88.9376 25.8955 86.7393 28.2321 86.7393 31.0318ZM88.9547 30.9935C88.9547 29.2698 90.0917 27.8594 91.8686 27.8594C93.6075 27.8594 94.8357 29.3043 94.8357 31.03C94.8357 32.7555 93.6264 34.1641 91.9047 34.1641C90.1828 34.1641 88.9547 32.7171 88.9547 30.9935Z" fill="white"/>
<path fill-rule="evenodd" clip-rule="evenodd" d="M118.247 36.1124C115.297 36.1124 113.117 33.8316 113.117 31.0318C113.117 28.2321 115.315 25.8955 118.284 25.8955C121.253 25.8955 123.433 28.1764 123.433 30.9953C123.433 33.8143 121.235 36.1144 118.248 36.1144L118.247 36.1124ZM118.247 27.8594C116.47 27.8594 115.333 29.2698 115.333 30.9935C115.333 32.7171 116.561 34.1641 118.283 34.1641C120.004 34.1641 121.214 32.7555 121.214 31.03C121.214 29.3043 119.986 27.8594 118.247 27.8594Z" fill="white"/>
<path d="M140 29.6406C140 27.2483 138.718 25.8936 136.61 25.8936H136.608C135.143 25.8936 134.116 26.5815 133.328 27.6191C132.816 26.5796 131.845 25.8936 130.452 25.8936C128.968 25.8936 128.125 26.7083 127.502 27.5807V25.8936H125.284V36.1124H127.502V30.3823C127.502 28.8624 128.345 27.9343 129.573 27.9343C130.802 27.9343 131.534 28.7874 131.534 30.3074V36.1124H133.752V30.3632C133.752 28.7874 134.575 27.9343 135.823 27.9343C137.07 27.9343 137.784 28.7682 137.784 30.3267V36.1124H140V29.6406Z" fill="white"/>
<path d="M101.112 34.0521V35.1838C101.112 35.2319 101.089 35.2761 101.047 35.2972L100.081 35.8622C100.039 35.8852 99.9896 35.8852 99.9516 35.8622L98.9834 35.2972C98.9455 35.2761 98.9189 35.2319 98.9189 35.1838V34.0521C98.9189 34.0059 98.9455 33.9637 98.9834 33.9386L99.9516 33.3737C99.9896 33.3507 100.039 33.3507 100.081 33.3737L101.047 33.9386C101.087 33.9617 101.112 34.0059 101.112 34.0521Z" fill="white"/>
<path d="M102.956 30.9203C102.905 33.7219 104.985 36.0431 107.861 36.0988H107.858C109.744 36.1353 110.876 35.3975 111.85 34.3406L110.538 32.9801C109.828 33.6892 109.05 34.1754 108.006 34.1542C106.303 34.1215 105.137 32.69 105.171 30.9278C105.204 29.2023 106.403 27.8169 108.015 27.8476C109.133 27.8688 109.837 28.3837 110.502 29.1197L111.905 27.6439C111.026 26.6255 109.904 25.9184 108.072 25.8819C105.179 25.8261 103.009 28.1205 102.956 30.9203Z" fill="white"/>
<path d="M16.8452 23.8535H25.1292L26.1284 28.1284H15.8857L16.8452 23.8535Z" fill="white"/>
<path d="M22.8073 31.1604L23.6913 28.7744H18.3291L19.2319 31.1604L18.9562 33.8389H21.0017L23.0641 33.8274L22.8073 31.1604Z" fill="white"/>
<path d="M26.147 29.5742L23.722 31.1726V34.0117L21.8672 35.8126V36.6595L23.6539 38.3247H25.148L28.9141 31.683L26.147 29.5742Z" fill="white"/>
<path d="M18.3197 31.1719L15.8643 29.5928L13.0879 31.6824L16.8729 38.3434H18.3858L20.1725 36.659V35.8121L18.3197 34.0111V31.1719Z" fill="white"/>
<path fill-rule="evenodd" clip-rule="evenodd" d="M10.0283 24.5609L20.9925 18.1523L31.9848 24.5762V37.4219L20.9943 43.8477L20.966 43.8324L10 37.4238V24.5762L10.0283 24.5609ZM20.9925 19.4639L11.1238 25.2339V36.7699L20.9925 42.538L30.8629 36.7699V25.2339L20.9925 19.4639Z" fill="white"/>
</g>
<defs>
<clipPath id="clip0_9277_24408">
<rect width="130" height="26" fill="white" transform="translate(10 18)"/>
</clipPath>
</defs>
</svg>
