<svg xmlns="http://www.w3.org/2000/svg" width="80" height="80" fill="none" viewBox="0 0 80 80">
  <g filter="url(#a)" opacity=".3">
    <path fill="#1452F0" fill-rule="evenodd" d="M65.98 35.881c0-.344.02-.694.02-1.038 0-10.068-7.532-16.2-17.987-16.2H34.066V35.88h8.567v-9.94h5.438c6.09 0 9.175 3.884 9.175 8.902 0 .344 0 .694-.059 1.038h8.794Zm-40.002 3.541V55.33h14.005c10.267 0 17.728-6.037 17.929-15.908h-8.768c-.2 4.655-3.55 8.572-9.213 8.572h-5.386v-8.572h-8.567Z" clip-rule="evenodd"/>
  </g>
  <path fill="#1452F0" fill-rule="evenodd" d="M61.31 39.552c0-.344.02-.694.02-1.038 0-10.068-7.533-16.2-17.988-16.2H29.396v17.238h8.567v-9.94H43.4c6.09 0 9.174 3.884 9.174 8.902 0 .344 0 .694-.058 1.038h8.794Zm-40.002 3.54V59h14.004c10.268 0 17.729-6.037 17.93-15.907h-8.768c-.2 4.654-3.55 8.571-9.214 8.571h-5.385v-8.572h-8.567Z" clip-rule="evenodd"/>
  <defs>
    <filter id="a" width="64.022" height="60.687" x="13.978" y="6.643" color-interpolation-filters="sRGB" filterUnits="userSpaceOnUse">
      <feFlood flood-opacity="0" result="BackgroundImageFix"/>
      <feBlend in="SourceGraphic" in2="BackgroundImageFix" result="shape"/>
      <feGaussianBlur result="effect1_foregroundBlur_52_21237" stdDeviation="6"/>
    </filter>
  </defs>
</svg>
