<svg xmlns="http://www.w3.org/2000/svg" width="80" height="80" fill="none" viewBox="0 0 80 80">
  <g filter="url(#a)" opacity=".3">
    <path fill="#1568CA" d="M38.705 47.567c-6.34 2.831-13.775-.01-16.608-6.346s.01-13.767 6.35-16.598c6.339-2.832 13.774.01 16.607 6.345 2.833 6.336-.01 13.768-6.35 16.599Zm22.836-12.923c-4.388 1.96-9.536-.007-11.497-4.393a8.697 8.697 0 0 1 4.395-11.492c4.39-1.96 9.537.007 11.498 4.393a8.697 8.697 0 0 1-4.396 11.492ZM58.464 56.28a7.013 7.013 0 0 1-9.262-3.538 7.006 7.006 0 0 1 3.54-9.257 7.013 7.013 0 0 1 9.263 3.54 7.006 7.006 0 0 1-3.541 9.256Z"/>
    <path fill="#8FD8E7" d="M61.295 34.75c-4.334 1.78-9.327-.195-11.251-4.5a8.668 8.668 0 0 1-.179-6.669c4.496.923 8.497 3.922 10.513 8.43.401.898.705 1.814.917 2.738ZM36.378 48.347a14.709 14.709 0 0 1-2.93-4.309c-3.147-7.036-.326-15.224 6.293-18.895a12.512 12.512 0 0 1 5.313 5.825c2.833 6.336-.01 13.768-6.35 16.599-.762.34-1.541.6-2.326.78Zm23.764-3.807a7.015 7.015 0 0 0-7.4-1.055 7.006 7.006 0 0 0-3.602 9.114 14.77 14.77 0 0 0 3.79-1.117 14.685 14.685 0 0 0 7.212-6.942Z"/>
  </g>
  <path fill="#1568CA" d="M34.705 50.567c-6.34 2.831-13.775-.01-16.608-6.346s.01-13.767 6.35-16.598c6.339-2.832 13.774.01 16.607 6.345 2.833 6.336-.01 13.768-6.35 16.599Zm22.836-12.923c-4.388 1.96-9.536-.007-11.497-4.393a8.697 8.697 0 0 1 4.395-11.492c4.39-1.96 9.537.007 11.498 4.393a8.697 8.697 0 0 1-4.396 11.492ZM54.464 59.28a7.013 7.013 0 0 1-9.262-3.538 7.006 7.006 0 0 1 3.54-9.257 7.013 7.013 0 0 1 9.263 3.54 7.006 7.006 0 0 1-3.541 9.256Z"/>
  <path fill="#8FD8E7" d="M57.295 37.75c-4.334 1.78-9.327-.195-11.251-4.5a8.668 8.668 0 0 1-.179-6.669c4.496.923 8.497 3.922 10.513 8.43.401.898.705 1.814.917 2.738ZM32.378 51.347a14.709 14.709 0 0 1-2.93-4.309c-3.147-7.036-.326-15.224 6.293-18.895a12.512 12.512 0 0 1 5.313 5.825c2.833 6.336-.01 13.768-6.35 16.599-.762.34-1.541.6-2.326.78Zm23.764-3.807a7.015 7.015 0 0 0-7.4-1.055 7.006 7.006 0 0 0-3.602 9.114 14.77 14.77 0 0 0 3.79-1.117 14.685 14.685 0 0 0 7.212-6.942Z"/>
  <defs>
    <filter id="a" width="61.696" height="54.892" x="13" y="10" color-interpolation-filters="sRGB" filterUnits="userSpaceOnUse">
      <feFlood flood-opacity="0" result="BackgroundImageFix"/>
      <feBlend in="SourceGraphic" in2="BackgroundImageFix" result="shape"/>
      <feGaussianBlur result="effect1_foregroundBlur_52_21473" stdDeviation="4"/>
    </filter>
  </defs>
</svg>
