<svg width="150" height="63" viewBox="0 0 150 63" fill="none" xmlns="http://www.w3.org/2000/svg">
<path d="M14.7816 29.6805V31.043H17.2288V32.1784H14.7816V34.4492H13.2861V28.5127H17.8745V29.6805H14.7816Z" fill="white"/>
<path d="M27.0515 33.275V34.4492H22.9219V28.5127H24.4361V33.275H27.0515Z" fill="white"/>
<path d="M32.7784 33.5285C32.3026 32.9254 32.0986 32.1952 32.0986 31.4651C32.0986 29.9413 32.9823 28.5127 34.8857 28.5127C35.7694 28.5127 36.4152 28.7667 36.925 29.4016C37.4008 29.9413 37.6047 30.7984 37.6047 31.4651C37.6047 32.1317 37.4348 32.9571 37.0269 33.4651C36.5511 34.1317 35.7694 34.4492 34.8857 34.4492C34.002 34.4492 33.2882 34.1635 32.7784 33.5285ZM33.8661 30.2587C33.7301 30.6079 33.6961 31.0841 33.6961 31.4333C33.6961 32.1635 33.832 33.3063 34.8857 33.3063C35.3615 33.3063 35.6674 33.0841 35.8374 32.6397C35.9733 32.3539 36.0073 31.8143 36.0073 31.4651C36.0073 31.0206 35.9393 30.5444 35.7694 30.1317C35.5995 29.719 35.3275 29.5921 34.8857 29.5921C34.3419 29.5921 34.036 29.846 33.8661 30.2587Z" fill="white"/>
<path d="M50.232 34.4492H48.7366L47.6829 30.5776L46.6973 34.4492H45.2697L43.5703 28.545H45.0998L46.0855 32.4811L47.1391 28.545H48.4986L49.5863 32.4811L49.6542 32.223L50.6059 28.5127H51.8295L50.232 34.4492Z" fill="white"/>
<path d="M75.3943 34.4492H74.6378V29.1615H72.9355V28.5127H77.0653V29.1615H75.363L75.3943 34.4492Z" fill="white"/>
<path d="M85.9613 34.4169L84.883 31.8681H83.311V34.4169H82.5713V28.5127H84.7287C85.222 28.5127 85.684 28.5772 86.023 28.8676C86.3929 29.158 86.6393 29.6419 86.6393 30.1581C86.6393 30.8357 86.2081 31.5132 85.5606 31.6745L86.701 34.3846H85.8996V34.4492H85.9613V34.4169ZM84.6361 31.2551C85.006 31.2551 85.345 31.1906 85.6223 30.9002C85.8383 30.6743 85.8996 30.4485 85.8996 30.1259C85.8996 29.771 85.7766 29.4806 85.4684 29.287C85.222 29.1257 84.9751 29.1257 84.667 29.1257H83.2184V31.2228L84.6361 31.2551Z" fill="white"/>
<path d="M96.7953 34.4492H96.0612L95.48 32.6974H93.3389L92.8186 34.4492H92.207L94.073 28.5127H94.868L96.7953 34.4492ZM94.4095 29.2912L93.5223 32.146H95.2657L94.4095 29.2912Z" fill="white"/>
<path d="M102.761 28.5127H104.621C105.427 28.5127 106.078 28.6749 106.636 29.3561C107.132 29.9725 107.349 30.7186 107.349 31.4647C107.349 32.2108 107.132 32.8921 106.729 33.5084C106.295 34.1572 105.644 34.4492 104.869 34.4492H102.823V28.5127H102.761ZM104.559 33.7679C105.21 33.7679 105.768 33.6058 106.171 33.0218C106.45 32.5677 106.605 31.9838 106.605 31.4323C106.605 30.8159 106.45 30.1671 106.078 29.6805C105.644 29.1615 105.21 29.0642 104.59 29.0642H103.505V33.7355C103.505 33.7679 104.559 33.7679 104.559 33.7679Z" fill="white"/>
<path d="M117.444 34.4492H113.314V28.5127H117.342V29.1615H114.093V31.0106H116.665V31.6269H114.093V33.7679H117.444V34.4492Z" fill="white"/>
<path d="M126.75 34.4169L125.552 31.8681H123.771V34.4169H122.949V28.5127H125.346C125.894 28.5127 126.408 28.5772 126.784 28.8676C127.195 29.158 127.469 29.6419 127.469 30.1581C127.469 30.8357 126.99 31.5132 126.271 31.6745L127.538 34.3846H126.647V34.4492H126.75V34.4169ZM125.312 31.2551C125.723 31.2551 126.1 31.1906 126.408 30.9002C126.647 30.6743 126.716 30.4485 126.716 30.1259C126.716 29.771 126.579 29.4806 126.236 29.287C125.963 29.1257 125.689 29.1257 125.346 29.1257H123.737V31.2228L125.312 31.2551Z" fill="white"/>
<path d="M132.755 32.6493C133.007 33.4703 133.667 33.8176 134.515 33.8176C134.861 33.8176 135.332 33.7229 135.553 33.5335C135.772 33.3756 135.93 33.0913 135.93 32.7756C135.93 32.1756 135.427 31.9546 134.924 31.8599L133.95 31.6072C133.573 31.5125 133.195 31.4494 132.85 31.1652C132.567 30.9125 132.41 30.502 132.41 30.1231C132.41 29.0179 133.384 28.5127 134.421 28.5127C135.458 28.5127 136.213 28.9548 136.495 29.9021L135.835 30.06C135.709 29.4284 135.018 29.0495 134.358 29.0495C133.824 29.0495 133.101 29.3337 133.101 29.9652C133.101 30.5968 133.604 30.7862 134.201 30.881L135.081 31.102C135.458 31.1967 135.898 31.3231 136.181 31.5441C136.558 31.8283 136.715 32.2072 136.715 32.6809C136.715 33.1861 136.464 33.6913 136.055 34.0071C135.615 34.3544 135.049 34.4492 134.515 34.4492C133.29 34.4492 132.504 33.9439 132.127 32.8072L132.755 32.6493Z" fill="white"/>
<path d="M65.1358 34.4492H59.1709V28.5127H65.1358V34.4492Z" fill="white"/>
</svg>
