<svg xmlns="http://www.w3.org/2000/svg" width="80" height="80" fill="none" viewBox="0 0 80 80">
  <g filter="url(#a)" opacity=".4">
    <path fill="#003C4A" d="M43.124 47.544c.734-.941 2.032-3.044 1.885-6.955a4.932 4.932 0 0 1-1.549 3.265 4.903 4.903 0 0 1-3.354 1.325c-4.12.237-6.314-1.113-7.277-1.874-5.8-4.541-4.813-16.905 1.265-23.328-2.513 2.21-5.156 4.91-6.844 6.873l-.106.123-2.717 3.224c-2.83 3.346-5.376 7.495-5.204 11.586.073 1.809.669 3.617 1.582 5.327 6.608 5.343 17.996 5.981 22.32.434Z"/>
    <path fill="#00B2D2" d="M32.83 43.305c.962.761 3.157 2.111 7.276 1.874a4.912 4.912 0 0 1-3.475-1.442 4.942 4.942 0 0 1-1.444-3.484c0-.074.008-.14.008-.205-.09-3.788 1.167-5.826 1.893-6.75 3.923-5.04 13.696-4.975 20.402-.9a32.675 32.675 0 0 0-1.705-2.193l-2.725-3.232-.106-.131C49.57 22.914 42.366 16 40.106 16c-1.11 0-3.491 1.743-6.012 3.977-6.078 6.423-7.065 18.787-1.264 23.328Z"/>
    <path fill="#00AEC8" d="M47.374 37.217c-.938-.736-3.05-2.045-6.99-1.89a4.912 4.912 0 0 1 3.292 1.54 4.942 4.942 0 0 1 1.341 3.386c0 .106 0 .213-.008.32v.016c.147 3.91-1.15 6.014-1.885 6.955-4.323 5.547-15.711 4.91-22.319-.434 1.2 2.25 2.953 4.353 4.789 6.129l.644.613.767.745a18.88 18.88 0 0 0 9.934 5.026 18.85 18.85 0 0 0 11.031-1.45c4.356-6.735 4.552-16.922-.596-20.956Z"/>
    <path fill="#007290" d="M57.49 32.39c-6.706-4.075-16.479-4.14-20.402.9-.727.924-1.983 2.962-1.893 6.75a4.94 4.94 0 0 1 1.51-3.35 4.91 4.91 0 0 1 3.4-1.371h.278c3.94-.156 6.053 1.153 6.991 1.89 5.148 4.034 4.952 14.221.596 20.955a19.005 19.005 0 0 0 5.229-3.567l.775-.745.636-.613c3.239-3.126 6.208-7.258 6.38-11.456.13-3.24-1.436-6.513-3.5-9.394Z"/>
  </g>
  <path fill="#003C4A" d="M43.124 50.022c.734-.941 2.032-3.044 1.885-6.955a4.932 4.932 0 0 1-1.549 3.265 4.903 4.903 0 0 1-3.354 1.325c-4.12.238-6.314-1.113-7.277-1.874-5.8-4.54-4.813-16.905 1.265-23.328-2.513 2.21-5.156 4.91-6.844 6.873l-.106.123-2.717 3.224c-2.83 3.347-5.376 7.495-5.204 11.587.073 1.808.669 3.616 1.582 5.326 6.608 5.343 17.996 5.982 22.32.434Z"/>
  <path fill="#00B2D2" d="M32.83 45.783c.962.761 3.157 2.111 7.276 1.874a4.911 4.911 0 0 1-3.475-1.442 4.942 4.942 0 0 1-1.444-3.484c0-.073.008-.139.008-.204-.09-3.789 1.167-5.826 1.893-6.75 3.923-5.041 13.696-4.976 20.402-.901a32.673 32.673 0 0 0-1.705-2.193l-2.725-3.232-.106-.13c-3.385-3.929-10.588-10.843-12.848-10.843-1.11 0-3.491 1.743-6.012 3.977-6.078 6.423-7.065 18.787-1.264 23.328Z"/>
  <path fill="#00AEC8" d="M47.374 39.696c-.938-.737-3.05-2.046-6.99-1.89a4.913 4.913 0 0 1 3.292 1.54 4.942 4.942 0 0 1 1.341 3.385c0 .107 0 .213-.008.32v.016c.147 3.911-1.15 6.014-1.885 6.955-4.323 5.548-15.711 4.91-22.319-.434 1.2 2.25 2.953 4.353 4.789 6.129l.644.614.767.744a18.88 18.88 0 0 0 9.934 5.026 18.85 18.85 0 0 0 11.031-1.45c4.356-6.734 4.552-16.921-.596-20.955Z"/>
  <path fill="#007290" d="M57.49 34.868c-6.706-4.075-16.479-4.14-20.402.9-.727.924-1.983 2.962-1.893 6.75a4.94 4.94 0 0 1 1.51-3.349 4.911 4.911 0 0 1 3.4-1.372h.278c3.94-.155 6.053 1.154 6.991 1.89 5.148 4.034 4.952 14.221.596 20.956a19.003 19.003 0 0 0 5.229-3.568l.775-.745.636-.613c3.239-3.126 6.208-7.258 6.38-11.456.13-3.24-1.436-6.513-3.5-9.393Z"/>
  <defs>
    <filter id="a" width="69.783" height="71.891" x="5.214" y="2" color-interpolation-filters="sRGB" filterUnits="userSpaceOnUse">
      <feFlood flood-opacity="0" result="BackgroundImageFix"/>
      <feBlend in="SourceGraphic" in2="BackgroundImageFix" result="shape"/>
      <feGaussianBlur result="effect1_foregroundBlur_52_21823" stdDeviation="7"/>
    </filter>
  </defs>
</svg>
