<svg xmlns="http://www.w3.org/2000/svg" width="80" height="80" fill="none" viewBox="0 0 80 80">
  <g clip-path="url(#a)">
    <g filter="url(#b)" opacity=".7">
      <path fill="url(#c)" d="m68.174 38.107-1.092-.153a167.376 167.376 0 0 0-10.228-.94c-2.065-.153-4.127-.244-6.16-.335-.154.244-.336.515-.485.759-.788 1.21-1.58 2.393-2.367 3.604a304.55 304.55 0 0 0 9.011-.393c3.856-.244 14.628-1.544 16.143-1.817a66.899 66.899 0 0 0-4.824-.727l.002.002Z"/>
      <path fill="url(#d)" d="M59.557 20c-1.302 1.906-2.397 3.817-3.671 5.722-.76-.998-2.064-2.696-2.309-3.025-6.644 9.055-13.202 18.201-19.451 27.556-6.643-7.331-21.148-20.745-21.148-20.745S26.875 48.92 34.582 57.945l.76-1.09c6.431-9.082 12.532-18.44 18.57-27.83.82.876 2.186 2.361 2.458 2.632.122-.243 2.426-3.664 3.34-5.387l7.435 10.208s-4.883-10.601-7.585-16.474L59.557 20Z"/>
      <path fill="url(#e)" d="M40.863 36.53c-5.372 0-10.773.153-16.144.515-.516.03-1.032.058-1.547.122 1.213 1.178 2.489 2.393 3.733 3.634 3.856.213 7.708.335 11.563.362.18-.243.336-.514.516-.758l2.73-3.875h-.851Z"/>
      <path fill="url(#f)" d="M17.016 37.714c-2.825.302-7.192.636-10.016 1.151 3.43.606 8.405 1.03 11.834 1.333-.638-.85-1.244-1.695-1.82-2.484h.002Z"/>
    </g>
    <path fill="url(#g)" d="m68.174 41.107-1.092-.153a167.376 167.376 0 0 0-10.228-.94c-2.065-.153-4.127-.244-6.16-.335-.154.244-.336.515-.485.759-.788 1.21-1.58 2.393-2.367 3.604a304.55 304.55 0 0 0 9.011-.393c3.856-.244 14.628-1.544 16.143-1.817a66.899 66.899 0 0 0-4.824-.727l.002.002Z"/>
    <path fill="url(#h)" d="M59.557 23c-1.302 1.906-2.397 3.817-3.671 5.722-.76-.998-2.064-2.696-2.309-3.025-6.644 9.055-13.202 18.201-19.451 27.556-6.643-7.331-21.148-20.745-21.148-20.745S26.875 51.92 34.582 60.945l.76-1.09c6.431-9.082 12.532-18.44 18.57-27.83.82.876 2.186 2.361 2.458 2.632.122-.243 2.426-3.664 3.34-5.387l7.435 10.208s-4.883-10.601-7.585-16.474L59.557 23Z"/>
    <path fill="url(#i)" d="M40.863 39.53c-5.372 0-10.773.153-16.144.515-.516.03-1.032.058-1.547.122 1.213 1.178 2.489 2.393 3.733 3.634 3.856.213 7.708.335 11.563.362.18-.243.336-.514.516-.758l2.73-3.875h-.851Z"/>
    <path fill="url(#j)" d="M17.016 40.714c-2.825.302-7.192.636-10.016 1.151 3.43.606 8.405 1.03 11.834 1.333-.638-.85-1.244-1.695-1.82-2.484h.002Z"/>
  </g>
  <defs>
    <linearGradient id="c" x1="48.609" x2="72.814" y1="36.659" y2="43.405" gradientUnits="userSpaceOnUse">
      <stop stop-color="#000987"/>
      <stop offset=".11" stop-color="#2248BE"/>
      <stop offset=".3" stop-color="#2774D0"/>
      <stop offset="1" stop-color="#2C90E1"/>
    </linearGradient>
    <linearGradient id="d" x1="12.916" x2="67.084" y1="38.972" y2="38.972" gradientUnits="userSpaceOnUse">
      <stop stop-color="#D9403E"/>
      <stop offset=".2" stop-color="#E4AF0F"/>
      <stop offset=".28" stop-color="#E3AD0C"/>
      <stop offset=".75" stop-color="#D96C3F"/>
      <stop offset=".89" stop-color="#D33E3C"/>
      <stop offset="1" stop-color="#CF3E3A"/>
    </linearGradient>
    <linearGradient id="e" x1="23.128" x2="41.638" y1="37.623" y2="39.359" gradientUnits="userSpaceOnUse">
      <stop stop-color="#2143BC"/>
      <stop offset=".47" stop-color="#2C7FF7"/>
      <stop offset="1" stop-color="#2143BC"/>
    </linearGradient>
    <linearGradient id="f" x1="4.117" x2="19.622" y1="37.692" y2="39.122" gradientUnits="userSpaceOnUse">
      <stop offset=".56" stop-color="#2C90E2"/>
      <stop offset=".88" stop-color="#2143BC"/>
      <stop offset="1" stop-color="#000987"/>
    </linearGradient>
    <linearGradient id="g" x1="48.609" x2="72.814" y1="39.659" y2="46.405" gradientUnits="userSpaceOnUse">
      <stop stop-color="#000987"/>
      <stop offset=".11" stop-color="#2248BE"/>
      <stop offset=".3" stop-color="#2774D0"/>
      <stop offset="1" stop-color="#2C90E1"/>
    </linearGradient>
    <linearGradient id="h" x1="12.916" x2="67.084" y1="41.972" y2="41.972" gradientUnits="userSpaceOnUse">
      <stop stop-color="#D9403E"/>
      <stop offset=".2" stop-color="#E4AF0F"/>
      <stop offset=".28" stop-color="#E3AD0C"/>
      <stop offset=".75" stop-color="#D96C3F"/>
      <stop offset=".89" stop-color="#D33E3C"/>
      <stop offset="1" stop-color="#CF3E3A"/>
    </linearGradient>
    <linearGradient id="i" x1="23.128" x2="41.638" y1="40.623" y2="42.359" gradientUnits="userSpaceOnUse">
      <stop stop-color="#2143BC"/>
      <stop offset=".47" stop-color="#2C7FF7"/>
      <stop offset="1" stop-color="#2143BC"/>
    </linearGradient>
    <linearGradient id="j" x1="4.117" x2="19.622" y1="40.692" y2="42.122" gradientUnits="userSpaceOnUse">
      <stop offset=".56" stop-color="#2C90E2"/>
      <stop offset=".88" stop-color="#2143BC"/>
      <stop offset="1" stop-color="#000987"/>
    </linearGradient>
    <clipPath id="a">
      <path fill="#fff" d="M0 0h80v80H0z"/>
    </clipPath>
    <filter id="b" width="81.997" height="53.945" x="-1" y="12" color-interpolation-filters="sRGB" filterUnits="userSpaceOnUse">
      <feFlood flood-opacity="0" result="BackgroundImageFix"/>
      <feBlend in="SourceGraphic" in2="BackgroundImageFix" result="shape"/>
      <feGaussianBlur result="effect1_foregroundBlur_52_21822" stdDeviation="4"/>
    </filter>
  </defs>
</svg>
