<svg xmlns="http://www.w3.org/2000/svg" width="80" height="80" fill="none" viewBox="0 0 80 80">
  <g clip-path="url(#a)">
    <path fill="#6EDBAF" fill-rule="evenodd" d="M45.053 29.934 48.025 21h-19.41l-2.974 8.934h19.412Zm10.253 14.69L63 21.003H52.245l-7.358 22.554a10.591 10.591 0 0 1-2.24 3.888c-1.026 1.12-2.465 2.182-4.318 2.349l-.17.013H18.935L16 59h21.802s8.179-.304 14.083-7.856a21.179 21.179 0 0 0 3.42-6.52Z" clip-rule="evenodd"/>
    <g filter="url(#b)" opacity=".7">
      <path fill="#6EDBAF" fill-rule="evenodd" d="M42.053 26.934 45.025 18h-19.41l-2.974 8.934h19.412Zm10.253 14.69L60 18.003H49.245l-7.358 22.554a10.591 10.591 0 0 1-2.24 3.888c-1.026 1.12-2.465 2.182-4.318 2.349l-.17.013H15.935L13 56h21.802s8.179-.304 14.083-7.856a21.179 21.179 0 0 0 3.42-6.52Z" clip-rule="evenodd"/>
    </g>
  </g>
  <defs>
    <clipPath id="a">
      <path fill="#fff" d="M0 0h80v80H0z"/>
    </clipPath>
    <filter id="b" width="75" height="66" x="-1" y="4" color-interpolation-filters="sRGB" filterUnits="userSpaceOnUse">
      <feFlood flood-opacity="0" result="BackgroundImageFix"/>
      <feBlend in="SourceGraphic" in2="BackgroundImageFix" result="shape"/>
      <feGaussianBlur result="effect1_foregroundBlur_52_21868" stdDeviation="7"/>
    </filter>
  </defs>
</svg>
