<svg xmlns="http://www.w3.org/2000/svg" width="80" height="80" fill="none" viewBox="0 0 80 80">
  <g filter="url(#a)" opacity=".3">
    <path fill="#0085FF" fill-rule="evenodd" d="m35.504 15 11.5 17.492L35.504 39l-11.5-6.508L35.504 15Zm-7.982 16.66 7.982-12.134 7.982 12.135-7.982 4.515-7.982-4.515Z" clip-rule="evenodd"/>
    <path fill="#0085FF" d="M35.5 43.595 21.962 36l-.365.554c-4.165 6.285-3.236 14.514 2.234 19.792 6.44 6.205 16.888 6.205 23.339 0 5.48-5.277 6.408-13.507 2.233-19.792L49.038 36 35.5 43.595Z"/>
  </g>
  <path fill="#000" fill-rule="evenodd" d="m40.504 21 9.5 14.45-9.5 5.376-9.5-5.376 9.5-14.45ZM33.91 34.763l6.594-10.024 6.594 10.024-6.594 3.73-6.594-3.73Z" clip-rule="evenodd"/>
  <path fill="#000" d="m40.5 44.622-11.183-6.274-.301.458c-3.44 5.192-2.673 11.99 1.845 16.35 5.32 5.126 13.951 5.126 19.28 0 4.527-4.36 5.294-11.158 1.845-16.35l-.302-.458-11.183 6.274Z"/>
  <defs>
    <filter id="a" width="61" height="74" x="5.004" y="1" color-interpolation-filters="sRGB" filterUnits="userSpaceOnUse">
      <feFlood flood-opacity="0" result="BackgroundImageFix"/>
      <feBlend in="SourceGraphic" in2="BackgroundImageFix" result="shape"/>
      <feGaussianBlur result="effect1_foregroundBlur_52_22066" stdDeviation="7"/>
    </filter>
  </defs>
</svg>
