<svg xmlns="http://www.w3.org/2000/svg" width="80" height="80" fill="none" viewBox="0 0 80 80">
  <g clip-path="url(#a)">
    <path fill="#1AAB9B" fill-rule="evenodd" d="M21.69 33.09V50.4h-3.352V30.294c0-1.614 1.842-2.533 3.13-1.564L37.39 40.71c.492.371.78.95.78 1.564v8.128h-3.351V42.97L21.69 33.09Zm36.631 0V50.4h3.352V30.294c0-1.613-1.842-2.532-3.13-1.563L42.621 40.71c-.492.371-.78.95-.78 1.564v8.128h3.351V42.97l13.128-9.88Z" clip-rule="evenodd"/>
    <g filter="url(#b)">
      <path fill="#1AAB9B" fill-opacity=".7" fill-rule="evenodd" d="M24.95 39.156v17.31h-3.353V36.359c0-1.614 1.842-2.534 3.131-1.565l15.92 11.982c.493.37.781.95.781 1.563v8.128h-3.352v-7.431l-13.128-9.88Zm36.63 0v17.31h3.353V36.359c0-1.613-1.843-2.533-3.131-1.564L45.88 46.775c-.492.371-.78.95-.78 1.564v8.128h3.352v-7.431l13.127-9.88Z" clip-rule="evenodd"/>
    </g>
  </g>
  <defs>
    <clipPath id="a">
      <rect width="80.004" height="80" x=".004" y="-.002" fill="#fff" rx="40"/>
    </clipPath>
    <filter id="b" width="71.335" height="50.069" x="7.597" y="20.398" color-interpolation-filters="sRGB" filterUnits="userSpaceOnUse">
      <feFlood flood-opacity="0" result="BackgroundImageFix"/>
      <feBlend in="SourceGraphic" in2="BackgroundImageFix" result="shape"/>
      <feGaussianBlur result="effect1_foregroundBlur_52_23791" stdDeviation="7"/>
    </filter>
  </defs>
</svg>
