<svg xmlns="http://www.w3.org/2000/svg" width="80" height="80" fill="none" viewBox="0 0 80 80">
  <g filter="url(#a)" opacity=".5">
    <path fill="url(#b)" d="M46.311 53.52c9.916 0 17.955-8.053 17.955-17.988 0-9.935-8.039-17.988-17.955-17.988-9.916 0-17.955 8.053-17.955 17.988 0 9.935 8.039 17.988 17.955 17.988Z"/>
    <path fill="url(#c)" d="M38.268 42.574a7.042 7.042 0 1 0 0-14.084 7.042 7.042 0 0 0 0 14.084Z"/>
  </g>
  <path fill="url(#d)" d="M40.007 60.991C51.601 60.991 61 51.592 61 39.998s-9.399-20.992-20.993-20.992-20.992 9.398-20.992 20.992c0 11.594 9.398 20.993 20.992 20.993Z"/>
  <path fill="url(#e)" d="M42.745 57.601c9.686 0 17.538-7.866 17.538-17.57 0-9.703-7.852-17.57-17.538-17.57-9.685 0-17.537 7.867-17.537 17.57 0 9.704 7.852 17.57 17.537 17.57Z"/>
  <path fill="url(#f)" d="M39.649 53.102c7.255 0 13.137-5.866 13.137-13.104 0-7.237-5.882-13.104-13.137-13.104-7.255 0-13.137 5.867-13.137 13.104 0 7.238 5.882 13.105 13.137 13.105Z"/>
  <path fill="url(#g)" d="M34.89 46.909a6.878 6.878 0 1 0 0-13.756 6.878 6.878 0 0 0 0 13.756Z"/>
  <defs>
    <radialGradient id="b" cx="0" cy="0" r="1" gradientTransform="matrix(0 17.9884 -17.9551 0 46.311 35.532)" gradientUnits="userSpaceOnUse">
      <stop stop-color="#F85F97"/>
      <stop offset=".547" stop-color="#330E18" stop-opacity="0"/>
      <stop offset="1" stop-color="#F00A38"/>
    </radialGradient>
    <radialGradient id="c" cx="0" cy="0" r="1" gradientTransform="rotate(90 1.368 36.9) scale(7.04186)" gradientUnits="userSpaceOnUse">
      <stop stop-color="#BB2354"/>
      <stop offset=".557" stop-color="#CE2C65"/>
      <stop offset="1" stop-color="#FF94CE"/>
    </radialGradient>
    <radialGradient id="d" cx="0" cy="0" r="1" gradientTransform="rotate(90 .004 40.003) scale(20.9927)" gradientUnits="userSpaceOnUse">
      <stop stop-color="#0E122B"/>
      <stop offset=".253" stop-color="#131D52"/>
      <stop offset=".608" stop-color="#2750AA"/>
      <stop offset=".927" stop-color="#A3EAFF"/>
      <stop offset="1" stop-color="#fff"/>
    </radialGradient>
    <radialGradient id="e" cx="0" cy="0" r="1" gradientTransform="matrix(0 17.57 -17.5374 0 42.745 40.031)" gradientUnits="userSpaceOnUse">
      <stop stop-color="#F85F97"/>
      <stop offset=".547" stop-color="#330E18"/>
      <stop offset="1" stop-color="#F00A38"/>
    </radialGradient>
    <radialGradient id="f" cx="0" cy="0" r="1" gradientTransform="matrix(0 13.1041 -13.1367 0 39.649 39.998)" gradientUnits="userSpaceOnUse">
      <stop stop-color="#23164B"/>
      <stop offset=".49" stop-color="#15105D"/>
      <stop offset=".94" stop-color="#2D68C6"/>
      <stop offset="1" stop-color="#fff"/>
    </radialGradient>
    <radialGradient id="g" cx="0" cy="0" r="1" gradientTransform="rotate(90 -2.57 37.46) scale(6.87804)" gradientUnits="userSpaceOnUse">
      <stop stop-color="#BB2354"/>
      <stop offset=".557" stop-color="#CE2C65"/>
      <stop offset="1" stop-color="#FF94CE"/>
    </radialGradient>
    <filter id="a" width="63.91" height="63.977" x="14.356" y="3.543" color-interpolation-filters="sRGB" filterUnits="userSpaceOnUse">
      <feFlood flood-opacity="0" result="BackgroundImageFix"/>
      <feBlend in="SourceGraphic" in2="BackgroundImageFix" result="shape"/>
      <feGaussianBlur result="effect1_foregroundBlur_52_23789" stdDeviation="7"/>
    </filter>
  </defs>
</svg>
