<svg xmlns="http://www.w3.org/2000/svg" width="81" height="80" fill="none" viewBox="0 0 81 80">
  <g clip-path="url(#a)">
    <g clip-path="url(#b)" filter="url(#c)" opacity=".7">
      <mask id="d" width="43" height="43" x="17" y="12" maskUnits="userSpaceOnUse" style="mask-type:luminance">
        <path fill="#fff" d="M59.01 12.998h-42v42h42v-42Z"/>
      </mask>
      <g mask="url(#d)">
        <path fill="url(#e)" d="M38.01 54.998c11.599 0 21-9.402 21-21s-9.401-21-21-21c-11.597 0-21 9.402-21 21s9.403 21 21 21Z"/>
        <path fill="#fff" fill-rule="evenodd" d="M40.11 48.698c8.12 0 14.7-6.581 14.7-14.7 0-8.118-6.58-14.7-14.7-14.7-8.118 0-14.7 6.582-14.7 14.7 0 8.119 6.582 14.7 14.7 14.7Zm0 2.1c9.279 0 16.8-7.521 16.8-16.8 0-9.278-7.521-16.8-16.8-16.8-9.278 0-16.8 7.522-16.8 16.8 0 9.279 7.522 16.8 16.8 16.8Z" clip-rule="evenodd"/>
        <path fill="#fff" fill-rule="evenodd" d="M44.31 40.298a6.3 6.3 0 1 0 0-12.6 6.3 6.3 0 0 0 0 12.6Zm0 2.1a8.4 8.4 0 1 0 0-16.8 8.4 8.4 0 0 0 0 16.8Z" clip-rule="evenodd"/>
      </g>
    </g>
    <g clip-path="url(#f)">
      <mask id="g" width="81" height="81" x="0" y="-1" maskUnits="userSpaceOnUse" style="mask-type:luminance">
        <path fill="#fff" d="M80.01-.002h-80v80h80v-80Z"/>
      </mask>
      <g mask="url(#g)">
        <path fill="url(#h)" d="M40.01 79.998c22.092 0 40-17.908 40-40 0-22.091-17.908-40-40-40-22.09 0-40 17.909-40 40 0 22.092 17.91 40 40 40Z"/>
        <path fill="#fff" fill-rule="evenodd" d="M44.01 67.998c15.465 0 28-12.536 28-28s-12.535-28-28-28c-15.463 0-28 12.536-28 28s12.537 28 28 28Zm0 4c17.674 0 32-14.327 32-32 0-17.673-14.326-32-32-32-17.672 0-32 14.327-32 32 0 17.674 14.328 32 32 32Z" clip-rule="evenodd"/>
        <path fill="#fff" fill-rule="evenodd" d="M52.01 51.998c6.628 0 12-5.372 12-12 0-6.627-5.372-12-12-12-6.627 0-12 5.373-12 12 0 6.628 5.373 12 12 12Zm0 4c8.837 0 16-7.163 16-16 0-8.836-7.163-16-16-16-8.836 0-16 7.164-16 16 0 8.837 7.164 16 16 16Z" clip-rule="evenodd"/>
      </g>
    </g>
  </g>
  <defs>
    <clipPath id="a">
      <path fill="#fff" d="M.01-.002h80v80h-80z"/>
    </clipPath>
    <clipPath id="b">
      <path fill="#fff" d="M17.01 12.998h42v42h-42z"/>
    </clipPath>
    <clipPath id="f">
      <path fill="#fff" d="M.01-.002h80v80h-80z"/>
    </clipPath>
    <linearGradient id="e" x1="38.011" x2="38.011" y1="12.998" y2="54.998" gradientUnits="userSpaceOnUse">
      <stop stop-color="#F50D3C"/>
      <stop offset="1" stop-color="#D7002B"/>
    </linearGradient>
    <linearGradient id="h" x1="40.011" x2="40.011" y1="-.002" y2="79.998" gradientUnits="userSpaceOnUse">
      <stop stop-color="#F50D3C"/>
      <stop offset="1" stop-color="#D7002B"/>
    </linearGradient>
    <filter id="c" width="70" height="70" x="3.011" y="-1.002" color-interpolation-filters="sRGB" filterUnits="userSpaceOnUse">
      <feFlood flood-opacity="0" result="BackgroundImageFix"/>
      <feBlend in="SourceGraphic" in2="BackgroundImageFix" result="shape"/>
      <feGaussianBlur result="effect1_foregroundBlur_52_23778" stdDeviation="7"/>
    </filter>
  </defs>
</svg>
