<svg xmlns="http://www.w3.org/2000/svg" width="80" height="80" fill="none" viewBox="0 0 80 80">
  <g filter="url(#a)">
    <path fill="#A9D6FF" d="M29.005 45.301v11.267c0 .694.59.982.772 1.047a1.26 1.26 0 0 0 1.348-.262l9.645-9.238c.89-1.152 1.217-1.872 1.217-1.872.523-1.06.523-2.08.013-3.1-.76-1.519-2.696-3.063-5.614-4.529L31.4 41.39c-1.479.837-2.395 2.316-2.395 3.912Z" opacity=".9"/>
    <path fill="url(#b)" d="M24.007 20.243v11.816c0 1.479.995 2.788 2.408 3.206 4.816 1.388 13.204 4.371 15.233 8.755a5.25 5.25 0 0 1 .47 1.727 13.9 13.9 0 0 0 1.676-8.113 13.922 13.922 0 0 0-5.89-10.063l-11.947-8.336a1.177 1.177 0 0 0-.706-.235c-.21 0-.393.039-.59.143a1.261 1.261 0 0 0-.654 1.1Z"/>
    <path fill="#A9D6FF" d="M60.81 45.301v11.267c0 .694-.589.982-.772 1.047a1.262 1.262 0 0 1-1.348-.262l-9.644-9.238c-.89-1.152-1.217-1.872-1.217-1.872-.524-1.06-.524-2.08-.013-3.1.759-1.519 2.695-3.063 5.614-4.529l4.985 2.775c1.492.837 2.395 2.316 2.395 3.912Z" opacity=".9"/>
    <path fill="url(#c)" d="M65.817 20.241v11.817a3.364 3.364 0 0 1-2.408 3.206c-4.816 1.387-13.204 4.371-15.232 8.755a5.238 5.238 0 0 0-.471 1.727 13.9 13.9 0 0 1-1.675-8.113 13.923 13.923 0 0 1 5.888-10.063l11.948-8.336c.21-.157.458-.236.706-.236.21 0 .393.04.59.144.392.223.654.628.654 1.1Z"/>
  </g>
  <path fill="#A9D6FF" d="M22.483 47.818v12.345c0 .76.646 1.075.846 1.147.2.086.875.272 1.477-.287L35.373 50.9c.975-1.261 1.334-2.05 1.334-2.05.573-1.161.573-2.28.014-3.398-.832-1.663-2.953-3.355-6.151-4.961l-5.463 3.04c-1.62.917-2.624 2.538-2.624 4.287Z" opacity=".9"/>
  <path fill="url(#d)" d="M17.007 20.361V33.31c0 1.62 1.09 3.054 2.639 3.513 5.276 1.52 14.467 4.788 16.69 9.592a5.74 5.74 0 0 1 .515 1.892 15.23 15.23 0 0 0 1.836-8.89 15.254 15.254 0 0 0-6.453-11.025l-13.09-9.133A1.29 1.29 0 0 0 18.37 19c-.23 0-.43.043-.646.157-.43.244-.717.688-.717 1.204Z"/>
  <path fill="#A9D6FF" d="M57.332 47.818v12.345c0 .76-.646 1.075-.846 1.147a1.384 1.384 0 0 1-1.477-.287L44.442 50.9c-.975-1.261-1.334-2.05-1.334-2.05-.573-1.161-.573-2.28-.014-3.398.831-1.663 2.953-3.355 6.15-4.961l5.464 3.04c1.634.917 2.624 2.538 2.624 4.287Z" opacity=".9"/>
  <path fill="url(#e)" d="M62.817 20.36v12.948c0 1.62-1.09 3.054-2.638 3.513-5.277 1.52-14.467 4.788-16.69 9.592a5.74 5.74 0 0 0-.516 1.892 15.23 15.23 0 0 1-1.835-8.89A15.25 15.25 0 0 1 47.59 28.39l13.09-9.134c.23-.172.502-.258.775-.258.23 0 .43.043.645.158.43.244.717.688.717 1.204Z"/>
  <defs>
    <linearGradient id="b" x1="44.5" x2="24.007" y1="45.576" y2="45.576" gradientUnits="userSpaceOnUse">
      <stop offset=".068" stop-color="#EFFDFF"/>
      <stop offset="1" stop-color="#A9D6FF"/>
    </linearGradient>
    <linearGradient id="c" x1="46.017" x2="65.66" y1="45.574" y2="45.574" gradientUnits="userSpaceOnUse">
      <stop offset=".068" stop-color="#EFFDFF"/>
      <stop offset="1" stop-color="#A9D6FF"/>
    </linearGradient>
    <linearGradient id="d" x1="39.461" x2="17.007" y1="48.118" y2="48.118" gradientUnits="userSpaceOnUse">
      <stop offset=".068" stop-color="#6B98C1"/>
      <stop offset="1" stop-color="#A9D6FF"/>
    </linearGradient>
    <linearGradient id="e" x1="41.123" x2="62.645" y1="48.117" y2="48.117" gradientUnits="userSpaceOnUse">
      <stop offset=".068" stop-color="#6B98C1"/>
      <stop offset="1" stop-color="#A9D6FF"/>
    </linearGradient>
    <filter id="a" width="65.809" height="62.708" x="12.007" y="6.998" color-interpolation-filters="sRGB" filterUnits="userSpaceOnUse">
      <feFlood flood-opacity="0" result="BackgroundImageFix"/>
      <feBlend in="SourceGraphic" in2="BackgroundImageFix" result="shape"/>
      <feGaussianBlur result="effect1_foregroundBlur_52_23787" stdDeviation="6"/>
    </filter>
  </defs>
</svg>
