<svg xmlns="http://www.w3.org/2000/svg" width="80" height="80" fill="none" viewBox="0 0 80 80">
  <g clip-path="url(#a)">
    <g filter="url(#b)" opacity=".6">
      <path fill="#00FDC0" fill-rule="evenodd" d="M45.07 24.003H73l-.149.6c-.132.534-.261 1.052-.388 1.571-.034.141-.1.224-.263.203a1.163 1.163 0 0 0-.177-.003l-.08.002H44.01l.178-.72c.122-.49.241-.97.357-1.45.036-.148.11-.218.267-.204.058.005.117.003.175.002l.083-.002Zm13.344 5.515c-.642 0-1.286-.005-1.929-.009l-.77-.005-.147.005c-.122.004-.244.009-.367.009H29.403c-.111 0-.222.005-.333.008a5.38 5.38 0 0 1-.181.006c-.016.067-.03.136-.043.204-.03.155-.06.31-.119.455-.146.366-.027.44.343.438 3.4-.009 6.8-.008 10.2-.007h2.834c.827 0 .854.009.622.79-.126.424-.005.478.39.478 7.928-.008 15.855-.008 23.782-.008h3.659l.08-.001c.06-.002.118-.004.177.003.163.019.224-.065.259-.207.136-.555.276-1.108.42-1.678l.123-.481H58.414Zm3.208 5.508-1.225-.001c-.628 0-1.256-.005-1.884-.01l-.943-.008-.166.007c-.13.006-.26.012-.39.012h-10.49l-15.732.001c-.12 0-.239.006-.359.012l-.153.007-.052.206-.103.41c-.077.313.051.469.384.469 3.514 0 7.028 0 10.542.002a1.9 1.9 0 0 0 .11-.004c.118-.007.24-.014.366.048l-.059.248-.106.449c-.084.346.055.52.414.52H65.39l1.007-.001c.964-.002 1.928-.003 2.893.007.258.002.38-.068.435-.328.112-.54.23-1.08.398-1.604.115-.363.043-.45-.34-.45-2.719.011-5.44.01-8.16.008Zm-.371 5.51c2.388 0 4.775.002 7.163-.007.352-.001.442.069.331.421-.172.552-.3 1.118-.426 1.683-.043.191-.126.267-.316.248a1.137 1.137 0 0 0-.143 0H40.369c-.342 0-.472-.166-.39-.498.124-.495-.072-.742-.589-.742h-1.685c-1.966-.001-3.932-.002-5.898.005-.307 0-.47-.028-.323-.388.061-.151.093-.314.126-.476a5.8 5.8 0 0 1 .047-.223l.162-.008c.116-.007.232-.014.349-.014a122173.551 122173.551 0 0 1 26.227-.002c.127 0 .255-.007.382-.016l.172-.01.17.01c.114.008.227.016.34.016h1.792Zm5.903 5.485c-.235.007-.471.005-.707.004l-.236-.001-2.92-.011h-.014l-2.934-.011-.164.008c-.116.007-.232.014-.348.014H49.296l-15.739.001c-.117 0-.235.008-.352.017l-.158.01-.168.692-.08.33c.126.07.25.064.37.057.036-.002.072-.004.108-.004l.919.002c1.379.004 2.758.008 4.137-.009.4-.005.462.116.343.457-.06.171-.1.349-.142.54-.02.089-.04.18-.063.275H66.35l.081-.002c.059-.001.117-.002.176.002.182.016.28-.039.324-.24.139-.62.292-1.236.465-1.848.073-.258-.028-.29-.242-.284v.001Zm-16.44 5.513H61.21h-.001c.111 0 .222-.005.334-.01l.178-.008h4.355l-.113.452c-.15.6-.292 1.17-.43 1.74-.037.154-.126.207-.276.192a.942.942 0 0 0-.114-.001H37.08c.026-.1.05-.197.073-.293a15.1 15.1 0 0 1 .163-.629c.075-.254.02-.35-.27-.344a48.44 48.44 0 0 1-1.264.006c-.421-.001-.842-.002-1.263.007-.3.006-.368-.075-.272-.353a4.45 4.45 0 0 0 .132-.513c.016-.075.032-.151.05-.226l.166-.007h.001c.13-.006.26-.012.39-.012l15.696-.001h.032Zm11.888 5.507H36.801c-.11 0-.222.005-.333.009l-.18.005c-.048.189-.094.378-.14.567a23.25 23.25 0 0 1-.349 1.32c-.118.387-.046.481.373.48 7.783-.01 15.567-.01 23.35-.01l4.116.001c.022 0 .044 0 .066-.002.05-.001.1-.003.148.004.17.023.263-.047.304-.213.122-.505.247-1.01.377-1.531v-.004l.002-.005.157-.636h-1.576l-.147.005a8.988 8.988 0 0 1-.367.009Z" clip-rule="evenodd"/>
      <path fill="#BA00FC" fill-rule="evenodd" d="M29.403 29.52c8.6 0 17.199 0 25.799-.002.11 0 .221-.003.332-.007l.18-.006c.05-.191.095-.383.14-.575.106-.44.212-.882.35-1.312.14-.433-.017-.47-.396-.47-7.839.007-15.678.007-23.517.007h-3.92c-.026 0-.053 0-.08.002-.06.002-.118.004-.177-.004-.163-.02-.232.068-.265.206l-.21.846-.33 1.329h1.58l.148-.005c.122-.005.244-.009.367-.009h-.001ZM47.51 60.181c-6.404.01-12.808.01-19.212.009h-5.296c-1.029 0-2.057.001-3.085-.004-.204 0-.348.015-.402.255-.113.498-.237.993-.366 1.512-.05.197-.1.399-.15.604h27.08c.088 0 .177-.002.265-.005.198-.006.397-.012.591.012.38.048.523-.11.589-.463.089-.485.206-.968.362-1.437.13-.391.044-.483-.374-.483h-.001ZM30.793 35.027h10.488l15.735-.002c.13 0 .259-.006.389-.012l.166-.007.12-.516.13-.561-.819-.001c-.711-.002-1.404-.003-2.097.006-.25.003-.294-.08-.235-.294.06-.216.113-.434.17-.665l.08-.315H26.953l-.068.002a1.19 1.19 0 0 1-.146-.002c-.151-.015-.239.04-.276.193-.128.527-.26 1.054-.396 1.604l-.147.588h4.36l.154-.007c.119-.006.239-.011.358-.011Zm-.648 5.527c-1.51-.005-3.021-.01-4.532-.02h-.001a2.95 2.95 0 0 0-.326.026c-.267.03-.537.061-.659-.088-.12-.148-.027-.391.066-.636.041-.109.083-.218.106-.319.036-.158.076-.315.115-.472.054-.213.109-.426.153-.641.036-.175.118-.242.29-.228.058.005.117.004.175.002h4.198c7.775 0 15.549 0 23.323-.01.42-.001.485.092.37.478-.232.78-.211.785.623.785h1.201c1.201.001 2.401.002 3.602-.003.263-.001.413.02.287.343-.064.163-.1.337-.137.51a7.13 7.13 0 0 1-.05.228l-.173.01a5.42 5.42 0 0 1-.381.017H42.659l-10.491.001c-.115 0-.231.007-.347.014l-.164.008-1.512-.005Zm-6.564 5.477c2.507-.01 5.014-.008 7.521-.006l.791.001c.27 0 .542.008.812.016h.001l.34.01.159-.01c.117-.009.235-.017.352-.017l15.73-.001H59.83c.116 0 .232-.007.348-.014l.164-.009c.017-.069.031-.14.045-.21a2.46 2.46 0 0 1 .12-.446c.148-.367-.003-.416-.336-.415-1.943.008-3.885.007-5.828.006H52.63c-.536 0-.74-.254-.613-.761.083-.33-.048-.496-.392-.496H24.631a2.82 2.82 0 0 0-.16.005c-.12.004-.239.009-.354-.01-.316-.05-.42.101-.478.38a15.71 15.71 0 0 1-.39 1.56c-.115.36-.016.42.332.419v-.002Zm6.833 5.504c-2.734-.002-5.467-.004-8.201.007h-.001c-.384 0-.456-.087-.34-.45.162-.511.278-1.037.394-1.561l.018-.083c.045-.208.138-.293.346-.267a.94.94 0 0 0 .146.002l.069-.001H50.24c.344 0 .475.168.394.502-.12.496.082.744.608.744h10.246c.334 0 .463.156.386.468a101.553 101.553 0 0 1-.153.618l-.154.007a7.27 7.27 0 0 1-.358.012H45.472l-10.487.001c-.13 0-.259.006-.389.012l-.166.007-.928-.007H33.5c-.62-.005-1.238-.01-1.856-.01l-1.23-.002Zm19.427 4.408h13.033c.253 0 .377 0 .423.06.046.06.017.175-.04.402v.003c-.037.148-.07.298-.103.447l-.017.08-.02.093c-.061.001-.122.004-.182.006a9.248 9.248 0 0 1-.333.007l-25.743.001H36.8c-.122 0-.244.005-.367.009l-.146.005-1.238-.005c-1.03-.004-2.06-.009-3.091-.009H30.16c-3.116-.003-6.233-.005-9.349.009-.4.002-.435-.105-.33-.444.156-.513.279-1.037.391-1.562.06-.277.169-.38.48-.378 1.49.013 2.982.012 4.473.01l1.443-.001h21.564c.363 0 .503.17.42.506-.124.507.072.76.588.76Z" clip-rule="evenodd"/>
    </g>
    <path fill="#00FDC0" fill-rule="evenodd" d="M39.07 20.716H67l-.149.601-.388 1.57c-.034.142-.1.225-.263.204-.059-.008-.118-.006-.177-.004l-.08.002H38.01l.178-.72c.122-.49.241-.97.357-1.45.036-.148.11-.218.267-.204.058.005.117.004.175.002l.083-.001Zm13.344 5.515c-.642 0-1.286-.004-1.929-.009l-.77-.005-.147.005c-.122.005-.244.01-.367.01H23.403c-.111 0-.222.004-.333.008l-.181.006c-.016.067-.03.135-.043.204-.03.155-.06.31-.119.454-.146.366-.027.44.343.438 3.4-.008 6.8-.008 10.2-.007h2.834c.827 0 .854.01.622.79-.126.425-.005.478.39.478 7.928-.008 15.855-.008 23.782-.007h3.658l.081-.002c.06-.002.118-.004.177.003.163.019.224-.064.259-.207.136-.554.276-1.108.42-1.678l.123-.48H52.414Zm3.208 5.508h-1.225c-.628 0-1.256-.006-1.884-.011a421.39 421.39 0 0 0-.943-.008l-.166.007c-.13.006-.26.012-.39.012h-10.49c-5.244 0-10.488 0-15.732.002-.12 0-.239.006-.359.011l-.153.007-.052.206-.103.411c-.077.312.051.468.384.468 3.514 0 7.028 0 10.542.002a1.9 1.9 0 0 0 .11-.004c.118-.007.24-.013.366.048l-.059.248-.106.449c-.084.347.055.52.414.52H59.39l1.006-.001c.965-.001 1.93-.003 2.894.007.258.002.38-.067.435-.328.112-.539.23-1.08.398-1.603.115-.364.043-.45-.34-.45-2.719.01-5.44.009-8.16.007Zm-.371 5.51c2.388.001 4.775.003 7.163-.007.352 0 .442.069.331.422-.172.551-.3 1.118-.426 1.683-.043.19-.126.267-.316.248a1.266 1.266 0 0 0-.143-.002l-.071.002h-27.42c-.342 0-.472-.167-.39-.499.124-.494-.072-.742-.589-.742h-1.685c-1.966 0-3.932-.001-5.898.005-.307.001-.47-.028-.323-.388.061-.15.093-.313.126-.476.014-.075.029-.149.047-.222l.162-.009c.116-.007.232-.013.349-.013h10.486l15.74-.002c.129 0 .256-.008.383-.016.057-.004.114-.008.172-.01.057.002.114.006.17.01.114.008.227.015.34.015h1.792Zm5.903 5.485c-.235.007-.471.006-.707.004l-.236-.001-2.92-.011h-.014l-2.934-.011-.164.009a6.046 6.046 0 0 1-.348.013H43.296c-5.246 0-10.493 0-15.739.002a5.18 5.18 0 0 0-.352.016 10.5 10.5 0 0 1-.158.01l-.168.692-.08.33c.125.07.25.064.37.057.036-.002.072-.004.108-.003l.919.002c1.379.004 2.758.007 4.137-.01.4-.004.462.116.343.457-.06.171-.1.35-.142.541-.02.088-.04.18-.063.274H60.35l.081-.001c.059-.002.117-.003.176.002.182.015.28-.04.324-.24a34.7 34.7 0 0 1 .465-1.849c.073-.258-.028-.29-.242-.284v.001Zm-16.44 5.513H55.21h-.001c.111 0 .222-.005.334-.01l.178-.008h4.355l-.113.452c-.15.601-.292 1.17-.43 1.74-.037.155-.126.207-.276.192-.038-.003-.076-.002-.114-.001l-.042.001H31.08c.026-.1.05-.198.073-.294.053-.218.104-.424.163-.629.075-.254.02-.35-.27-.344-.422.01-.843.008-1.264.007a48.44 48.44 0 0 0-1.264.006c-.3.006-.367-.075-.271-.353a4.45 4.45 0 0 0 .132-.513c.016-.075.032-.15.05-.226l.166-.007h.001c.13-.006.26-.011.39-.011 5.232-.002 10.464-.002 15.696-.002h.032Zm11.888 5.507-25.801.001c-.11 0-.222.004-.332.008l-.181.006c-.048.188-.094.377-.14.566-.108.443-.216.886-.349 1.32-.118.387-.046.481.373.48 7.783-.01 15.567-.01 23.35-.009h4.116l.066-.001a.9.9 0 0 1 .148.003c.17.023.263-.047.304-.212.122-.506.247-1.01.377-1.532v-.003l.002-.005.158-.636h-1.577l-.147.005c-.123.004-.244.008-.367.008v.001Z" clip-rule="evenodd"/>
    <path fill="#BA00FC" fill-rule="evenodd" d="m23.403 26.233 25.799-.001c.11 0 .221-.004.332-.008l.18-.006c.05-.19.095-.383.14-.575.106-.44.212-.881.35-1.312.14-.432-.017-.47-.396-.47-7.839.008-15.678.007-23.517.007h-3.92l-.08.002c-.06.002-.118.004-.177-.004-.163-.02-.232.068-.265.206l-.21.847-.33 1.328h1.58l.148-.005c.122-.004.244-.009.367-.009h-.001ZM41.51 56.895c-6.404.01-12.808.01-19.212.009h-5.296c-1.029 0-2.057.002-3.085-.004-.204 0-.348.016-.402.255-.113.498-.237.994-.366 1.512-.05.198-.1.399-.15.605h27.08c.088 0 .177-.003.265-.006.198-.006.397-.012.591.013.38.047.523-.11.589-.464.089-.485.206-.968.362-1.436.13-.392.044-.484-.374-.484h-.001ZM24.793 31.74h10.488c5.245 0 10.49 0 15.735-.002.13 0 .259-.005.389-.011l.166-.007.12-.516.13-.562h-.819c-.711-.002-1.404-.004-2.097.005-.25.004-.294-.08-.235-.294.06-.216.113-.434.17-.664l.08-.315H20.885a1.21 1.21 0 0 1-.146-.001c-.151-.015-.239.04-.276.194-.128.527-.26 1.053-.396 1.604l-.147.588h4.36l.154-.007c.119-.006.239-.012.358-.012Zm-.648 5.527c-1.51-.005-3.021-.01-4.532-.02l-.001.001a2.94 2.94 0 0 0-.326.025c-.267.03-.537.062-.659-.088-.12-.147-.027-.39.066-.635.041-.11.083-.219.106-.32.036-.157.076-.314.115-.471.054-.213.109-.426.153-.642.036-.175.118-.242.29-.227.058.004.117.003.175.002l.082-.002h4.116c7.775 0 15.549.001 23.323-.009.42 0 .485.092.37.478-.232.78-.211.785.623.785l1.201.001c1.201 0 2.401.001 3.602-.004.263 0 .413.02.287.343-.064.163-.1.337-.137.511a7.136 7.136 0 0 1-.05.228l-.173.01c-.128.008-.254.016-.381.016l-15.736.001H26.168c-.116 0-.231.007-.347.014l-.164.009-1.512-.006Zm-6.564 5.477a1450.4 1450.4 0 0 1 7.521-.005h.791c.27 0 .542.008.812.016h.001l.34.01.159-.01a5.18 5.18 0 0 1 .352-.016c5.243-.002 10.487-.002 15.73-.002H53.83c.116 0 .232-.007.348-.014l.164-.008c.017-.07.031-.14.045-.21a2.46 2.46 0 0 1 .12-.447c.148-.366-.003-.416-.336-.415-1.943.008-3.885.008-5.828.007H46.63c-.536 0-.74-.254-.613-.762.083-.33-.048-.495-.392-.495H18.631c-.054 0-.107.002-.16.004-.12.005-.239.01-.354-.01-.316-.05-.42.102-.478.38a15.48 15.48 0 0 1-.39 1.561c-.115.359-.016.42.332.418v-.002Zm6.833 5.504c-2.734-.002-5.467-.004-8.201.007h-.001c-.383.001-.456-.086-.34-.45.162-.51.278-1.036.394-1.56l.018-.084c.045-.207.138-.292.346-.267a.953.953 0 0 0 .146.003l.069-.002H44.24c.344 0 .475.168.394.502-.12.497.082.745.608.745h10.246c.334 0 .463.156.386.468a107.844 107.844 0 0 1-.153.617l-.154.007c-.12.006-.239.012-.358.012l-15.737.001H28.985c-.13 0-.259.007-.389.012l-.166.008-.928-.008H27.5c-.62-.005-1.238-.01-1.856-.01l-1.23-.001Zm19.427 4.408h13.032l.001.001c.253 0 .377 0 .423.06.046.059.017.174-.04.402v.002c-.037.148-.07.298-.103.448l-.017.08-.02.092-.182.006c-.111.004-.222.008-.333.008h-25.8c-.122 0-.244.005-.366.01l-.147.004-1.238-.005c-1.03-.004-2.06-.008-3.091-.008l-1.798-.001c-3.116-.002-6.233-.004-9.349.01-.4 0-.435-.105-.33-.444a18.8 18.8 0 0 0 .391-1.563c.06-.277.169-.38.48-.378 1.49.014 2.982.012 4.473.01h23.007c.363 0 .503.169.42.506-.124.507.072.76.588.76Z" clip-rule="evenodd"/>
  </g>
  <defs>
    <clipPath id="a">
      <path fill="#fff" d="M0 0h80v80H0z"/>
    </clipPath>
    <filter id="b" width="82.001" height="66.573" x="4.999" y="10" color-interpolation-filters="sRGB" filterUnits="userSpaceOnUse">
      <feFlood flood-opacity="0" result="BackgroundImageFix"/>
      <feBlend in="SourceGraphic" in2="BackgroundImageFix" result="shape"/>
      <feGaussianBlur result="effect1_foregroundBlur_52_23878" stdDeviation="7"/>
    </filter>
  </defs>
</svg>
