<svg xmlns="http://www.w3.org/2000/svg" width="80" height="80" fill="none" viewBox="0 0 80 80">
  <g filter="url(#a)" opacity=".3">
    <path fill="url(#b)" d="M45.92 53.99a20.455 20.455 0 0 0 13.102-5.966 20.462 20.462 0 0 0 5.964-13.069H53.901a9.472 9.472 0 0 1-2.675 5.273 9.47 9.47 0 0 1-5.307 2.681V53.99Z"/>
    <path fill="url(#c)" d="M43.235 54V42.932a9.472 9.472 0 0 1-5.463-2.703 9.47 9.47 0 0 1-2.675-5.273H24.014a20.46 20.46 0 0 0 5.964 13.069A20.457 20.457 0 0 0 43.235 54Z"/>
    <path fill="url(#d)" d="M24 32.27a20.463 20.463 0 0 1 5.978-13.293A20.457 20.457 0 0 1 43.236 13v11.07a9.473 9.473 0 0 0-5.463 2.703 9.472 9.472 0 0 0-2.707 5.497H24Z"/>
    <path fill="url(#e)" d="M45.92 13.01v11.082a9.471 9.471 0 0 1 5.307 2.68 9.471 9.471 0 0 1 2.707 5.498H65a20.462 20.462 0 0 0-5.978-13.293A20.455 20.455 0 0 0 45.92 13.01Z"/>
  </g>
  <path fill="url(#f)" d="M41.455 60.99a20.954 20.954 0 0 0 13.421-6.112 20.962 20.962 0 0 0 6.11-13.388H49.631a9.702 9.702 0 0 1-2.74 5.402 9.702 9.702 0 0 1-5.437 2.746V60.99Z"/>
  <path fill="url(#g)" d="M38.704 61V49.66a9.702 9.702 0 0 1-5.596-2.768 9.702 9.702 0 0 1-2.74-5.402H19.014a20.958 20.958 0 0 0 6.11 13.388A20.956 20.956 0 0 0 38.703 61Z"/>
  <path fill="url(#h)" d="M19 38.74a20.961 20.961 0 0 1 6.124-13.617A20.956 20.956 0 0 1 38.704 19v11.34a9.704 9.704 0 0 0-5.595 2.769 9.704 9.704 0 0 0-2.773 5.63H19Z"/>
  <path fill="url(#i)" d="M41.455 19.01v11.352a9.702 9.702 0 0 1 5.436 2.747 9.703 9.703 0 0 1 2.773 5.63H61a20.961 20.961 0 0 0-6.124-13.616 20.954 20.954 0 0 0-13.42-6.113Z"/>
  <defs>
    <linearGradient id="b" x1="29.329" x2="60.017" y1="19.913" y2="47.349" gradientUnits="userSpaceOnUse">
      <stop stop-color="#FF661E"/>
      <stop offset="1" stop-color="#FF9308"/>
    </linearGradient>
    <linearGradient id="c" x1="29.328" x2="60.016" y1="19.913" y2="47.349" gradientUnits="userSpaceOnUse">
      <stop stop-color="#FF661E"/>
      <stop offset="1" stop-color="#FF9308"/>
    </linearGradient>
    <linearGradient id="d" x1="29.328" x2="60.016" y1="19.913" y2="47.348" gradientUnits="userSpaceOnUse">
      <stop stop-color="#FF661E"/>
      <stop offset="1" stop-color="#FF9308"/>
    </linearGradient>
    <linearGradient id="e" x1="29.329" x2="60.017" y1="19.913" y2="47.348" gradientUnits="userSpaceOnUse">
      <stop stop-color="#FF661E"/>
      <stop offset="1" stop-color="#FF9308"/>
    </linearGradient>
    <linearGradient id="f" x1="24.459" x2="55.895" y1="26.082" y2="54.186" gradientUnits="userSpaceOnUse">
      <stop stop-color="#FF661E"/>
      <stop offset="1" stop-color="#FF9308"/>
    </linearGradient>
    <linearGradient id="g" x1="24.457" x2="55.894" y1="26.082" y2="54.186" gradientUnits="userSpaceOnUse">
      <stop stop-color="#FF661E"/>
      <stop offset="1" stop-color="#FF9308"/>
    </linearGradient>
    <linearGradient id="h" x1="24.458" x2="55.895" y1="26.082" y2="54.186" gradientUnits="userSpaceOnUse">
      <stop stop-color="#FF661E"/>
      <stop offset="1" stop-color="#FF9308"/>
    </linearGradient>
    <linearGradient id="i" x1="24.459" x2="55.895" y1="26.082" y2="54.186" gradientUnits="userSpaceOnUse">
      <stop stop-color="#FF661E"/>
      <stop offset="1" stop-color="#FF9308"/>
    </linearGradient>
    <filter id="a" width="65" height="65.001" x="12" y="1" color-interpolation-filters="sRGB" filterUnits="userSpaceOnUse">
      <feFlood flood-opacity="0" result="BackgroundImageFix"/>
      <feBlend in="SourceGraphic" in2="BackgroundImageFix" result="shape"/>
      <feGaussianBlur result="effect1_foregroundBlur_52_24770" stdDeviation="6"/>
    </filter>
  </defs>
</svg>
