<svg xmlns="http://www.w3.org/2000/svg" width="80" height="80" fill="none" viewBox="0 0 80 80">
  <g clip-path="url(#a)">
    <path fill="url(#b)" fill-rule="evenodd" d="M28.582 22.8a2.81 2.81 0 0 1 .05 3.983l-3.997 4.088a6.934 6.934 0 0 0 .062 9.765 6.986 6.986 0 0 0 9.77.086l5.603-5.392c5.175-4.98 13.388-4.945 18.52.08 5.575 5.46 5.236 14.516-.733 19.546l-2.822 2.378a2.832 2.832 0 0 1-3.982-.333 2.81 2.81 0 0 1 .334-3.97l2.822-2.377a7.583 7.583 0 0 0 .42-11.225 7.64 7.64 0 0 0-10.634-.046l-5.604 5.392c-4.953 4.766-12.823 4.697-17.69-.156-4.885-4.87-4.935-12.75-.113-17.68l3.999-4.089a2.832 2.832 0 0 1 3.995-.05Zm17.568 2.645a2.816 2.816 0 0 1-1.977 3.462c-2.897.793-5.886 2.863-8.284 4.94a41.336 41.336 0 0 0-2.802 2.671 33.129 33.129 0 0 0-.955 1.044l-.043.05-.007.008a2.832 2.832 0 0 1-3.98.346 2.81 2.81 0 0 1-.349-3.968l.262.22c.262.218.786.656 1.834 1.534l-2.096-1.754.005-.005.006-.008.02-.023.069-.08.244-.278c.21-.236.513-.568.896-.97a47 47 0 0 1 3.189-3.039c2.598-2.25 6.362-4.99 10.495-6.12a2.827 2.827 0 0 1 3.473 1.97Zm4.5 17.854a2.831 2.831 0 0 0-3.98.353l-.007.009-.043.05c-.04.046-.104.12-.19.215-.17.193-.428.477-.762.827a40.102 40.102 0 0 1-2.798 2.66c-2.398 2.066-5.38 4.1-8.27 4.837a2.816 2.816 0 0 0-2.036 3.427A2.826 2.826 0 0 0 36 57.708c4.173-1.064 7.96-3.789 10.564-6.033a45.708 45.708 0 0 0 3.197-3.04 38.638 38.638 0 0 0 1.143-1.251l.069-.08.02-.024.006-.008.005-.005c1-1.194.842-2.97-.355-3.968Zm-1.813 2.16 2.168 1.808-2.168-1.807Z" clip-rule="evenodd"/>
    <g filter="url(#c)">
      <path fill="url(#d)" fill-opacity=".6" fill-rule="evenodd" d="M35.582 20.8a2.81 2.81 0 0 1 .05 3.983l-3.997 4.088a6.934 6.934 0 0 0 .062 9.765 6.986 6.986 0 0 0 9.77.086l5.603-5.392c5.175-4.98 13.388-4.945 18.52.08 5.575 5.46 5.236 14.516-.733 19.546l-2.822 2.378a2.832 2.832 0 0 1-3.982-.333 2.81 2.81 0 0 1 .334-3.97l2.822-2.377a7.583 7.583 0 0 0 .42-11.225 7.64 7.64 0 0 0-10.634-.046l-5.604 5.392c-4.953 4.766-12.823 4.697-17.69-.156-4.885-4.87-4.935-12.75-.113-17.68l3.999-4.089a2.832 2.832 0 0 1 3.995-.05Zm17.568 2.645a2.816 2.816 0 0 1-1.977 3.462c-2.897.793-5.886 2.863-8.284 4.94a41.336 41.336 0 0 0-2.802 2.671 33.129 33.129 0 0 0-.955 1.044l-.043.05-.007.008a2.832 2.832 0 0 1-3.98.346 2.81 2.81 0 0 1-.349-3.968l.262.22c.262.218.786.656 1.834 1.534l-2.096-1.754.005-.005.006-.008.02-.023.069-.08.244-.278c.21-.236.513-.568.896-.97a47 47 0 0 1 3.189-3.039c2.598-2.25 6.362-4.99 10.495-6.12a2.827 2.827 0 0 1 3.473 1.97Zm4.5 17.854a2.831 2.831 0 0 0-3.98.353l-.007.009-.043.05c-.04.046-.104.12-.19.215-.17.193-.428.477-.762.827a40.102 40.102 0 0 1-2.798 2.66c-2.398 2.066-5.38 4.1-8.27 4.837a2.816 2.816 0 0 0-2.036 3.427A2.826 2.826 0 0 0 43 55.708c4.173-1.064 7.96-3.789 10.564-6.033a45.708 45.708 0 0 0 3.197-3.04 38.638 38.638 0 0 0 1.143-1.251l.069-.08.02-.024.006-.008.005-.005c1-1.194.842-2.97-.355-3.968Zm-1.813 2.16 2.168 1.808-2.168-1.807Z" clip-rule="evenodd"/>
    </g>
  </g>
  <defs>
    <linearGradient id="b" x1="57.504" x2="42.069" y1="35.5" y2="57.797" gradientUnits="userSpaceOnUse">
      <stop stop-color="#FF5C28"/>
      <stop offset="1" stop-color="#EF915A"/>
    </linearGradient>
    <linearGradient id="d" x1="64.504" x2="49.069" y1="33.5" y2="55.797" gradientUnits="userSpaceOnUse">
      <stop stop-color="#FF5C28"/>
      <stop offset="1" stop-color="#EF915A"/>
    </linearGradient>
    <clipPath id="a">
      <path fill="#fff" d="M.004 0h80v80h-80z"/>
    </clipPath>
    <filter id="c" width="67.558" height="58" x="13.004" y="9" color-interpolation-filters="sRGB" filterUnits="userSpaceOnUse">
      <feFlood flood-opacity="0" result="BackgroundImageFix"/>
      <feBlend in="SourceGraphic" in2="BackgroundImageFix" result="shape"/>
      <feGaussianBlur result="effect1_foregroundBlur_52_25166" stdDeviation="5.5"/>
    </filter>
  </defs>
</svg>
