<svg xmlns="http://www.w3.org/2000/svg" width="80" height="80" fill="none" viewBox="0 0 80 80">
  <g filter="url(#a)" opacity=".5">
    <path fill="#26F8C2" d="M40.118 18h4.343a5.938 5.938 0 0 0-.488 7.452l.488.69.488.692a5.938 5.938 0 0 1-.488 7.452h-4.343a5.938 5.938 0 0 0 .488-7.452l-.488-.691-.488-.691A5.937 5.937 0 0 1 40.118 18Zm-8.685 0h4.342a5.938 5.938 0 0 0-.487 7.452l.975 1.382a5.937 5.937 0 0 1-.488 7.452h-4.342a5.937 5.937 0 0 0 .488-7.452l-.976-1.382A5.938 5.938 0 0 1 31.433 18Z"/>
    <path fill="#26F8C2" fill-rule="evenodd" d="M26.004 41.886c0 8.994 7.291 16.285 16.286 16.285 6.267 0 11.708-3.54 14.43-8.73a6.514 6.514 0 1 0-3.897-1.923 11.94 11.94 0 0 1-10.533 6.31c-6.596 0-11.943-5.346-11.943-11.942V40.8h18.457v-4.343h-22.8v5.429ZM59.66 42.97a2.172 2.172 0 1 1-4.343 0 2.172 2.172 0 0 1 4.343 0Z" clip-rule="evenodd"/>
    <path fill="#26F8C2" d="M53.147 18h-4.343a5.937 5.937 0 0 0-.488 7.452l.976 1.382a5.938 5.938 0 0 1-.488 7.452h4.343a5.938 5.938 0 0 0 .488-7.452l-.976-1.382A5.938 5.938 0 0 1 53.147 18Z"/>
  </g>
  <path fill="#FF4BEF" d="M34.861 18.943h4.572a6.25 6.25 0 0 0-.514 7.844l.514.727.513.728a6.25 6.25 0 0 1-.513 7.844H34.86a6.25 6.25 0 0 0 .514-7.844l-.514-.728-.513-.727a6.25 6.25 0 0 1 .513-7.844Z"/>
  <path fill="#26F8C2" d="M25.718 18.943h4.572a6.25 6.25 0 0 0-.514 7.844l1.027 1.455a6.25 6.25 0 0 1-.514 7.844h-4.57a6.25 6.25 0 0 0 .513-7.844l-1.027-1.455a6.25 6.25 0 0 1 .513-7.844Z"/>
  <path fill="#26F8C2" fill-rule="evenodd" d="M20.004 44.086c0 9.467 7.675 17.142 17.143 17.142 6.597 0 12.324-3.727 15.19-9.19a6.857 6.857 0 1 0-4.102-2.025 12.57 12.57 0 0 1-11.088 6.644c-6.943 0-12.572-5.628-12.572-12.571v-1.143h19.429V38.37h-24v5.715Zm35.428 1.142a2.286 2.286 0 1 1-4.571 0 2.286 2.286 0 0 1 4.572 0Z" clip-rule="evenodd"/>
  <path fill="#26F8C2" d="M48.575 18.943h-4.571a6.25 6.25 0 0 0-.514 7.844l1.027 1.455a6.25 6.25 0 0 1-.513 7.844h4.571a6.25 6.25 0 0 0 .514-7.844l-1.027-1.455a6.25 6.25 0 0 1 .513-7.844Z"/>
  <defs>
    <filter id="a" width="64" height="66.171" x="13.004" y="5" color-interpolation-filters="sRGB" filterUnits="userSpaceOnUse">
      <feFlood flood-opacity="0" result="BackgroundImageFix"/>
      <feBlend in="SourceGraphic" in2="BackgroundImageFix" result="shape"/>
      <feGaussianBlur result="effect1_foregroundBlur_52_25171" stdDeviation="6.5"/>
    </filter>
  </defs>
</svg>
