<svg xmlns="http://www.w3.org/2000/svg" width="81" height="80" fill="none" viewBox="0 0 81 80">
  <path fill="#00D1FF" d="M29.284 31.97c-.3-.34-.66-.51-1.1-.51h-8.88c-.08 0-.14-.02-.19-.07a.213.213 0 0 1-.07-.16v-5.99c0-.06.02-.11.07-.16s.11-.07.19-.07h9.39c2.37 0 4.41.97 6.13 2.9l2.28 2.78-4.44 5.41-3.38-4.12v-.01Zm16.4-4.1c1.72-1.91 3.77-2.87 6.16-2.87h9.36c.08 0 .14.02.18.06.04.04.06.1.06.18v5.98c0 .06-.02.12-.06.16-.04.05-.1.07-.18.07h-8.88c-.43 0-.8.17-1.1.51l-6.54 7.95 6.57 8.01c.3.32.65.48 1.07.48h8.88c.08 0 .14.02.18.07.04.05.06.12.06.19v5.98c0 .06-.02.12-.06.16-.04.05-.1.07-.18.07h-9.36c-2.39 0-4.43-.97-6.13-2.9l-5.45-6.64-5.45 6.64c-1.72 1.93-3.77 2.9-6.16 2.9h-9.35c-.08 0-.14-.02-.18-.07a.288.288 0 0 1-.06-.19v-5.98c0-.06.02-.11.06-.16.04-.05.1-.07.18-.07h8.88c.41 0 .78-.17 1.1-.51l6.43-7.83 9.97-12.19Z"/>
  <g filter="url(#a)">
    <path fill="#00D1FF" fill-opacity=".6" d="M29.284 28.97c-.3-.34-.66-.51-1.1-.51h-8.88c-.08 0-.14-.02-.19-.07a.213.213 0 0 1-.07-.16v-5.99c0-.06.02-.11.07-.16s.11-.07.19-.07h9.39c2.37 0 4.41.97 6.13 2.9l2.28 2.78-4.44 5.41-3.38-4.12v-.01Zm16.4-4.1c1.72-1.91 3.77-2.87 6.16-2.87h9.36c.08 0 .14.02.18.06.04.04.06.1.06.18v5.98c0 .06-.02.12-.06.16-.04.05-.1.07-.18.07h-8.88c-.43 0-.8.17-1.1.51l-6.54 7.95 6.57 8.01c.3.32.65.48 1.07.48h8.88c.08 0 .14.02.18.07.04.05.06.12.06.19v5.98c0 .06-.02.12-.06.16-.04.05-.1.07-.18.07h-9.36c-2.39 0-4.43-.97-6.13-2.9l-5.45-6.64-5.45 6.64c-1.72 1.93-3.77 2.9-6.16 2.9h-9.35c-.08 0-.14-.02-.18-.07a.288.288 0 0 1-.06-.19v-5.98c0-.06.02-.11.06-.16.04-.05.1-.07.18-.07h8.88c.41 0 .78-.17 1.1-.51l6.43-7.83 9.97-12.19Z"/>
  </g>
  <defs>
    <filter id="a" width="70.4" height="57.87" x="5.044" y="8" color-interpolation-filters="sRGB" filterUnits="userSpaceOnUse">
      <feFlood flood-opacity="0" result="BackgroundImageFix"/>
      <feBlend in="SourceGraphic" in2="BackgroundImageFix" result="shape"/>
      <feGaussianBlur result="effect1_foregroundBlur_52_25147" stdDeviation="7"/>
    </filter>
  </defs>
</svg>
