<svg xmlns="http://www.w3.org/2000/svg" width="80" height="80" fill="none" viewBox="0 0 80 80">
  <g filter="url(#a)" opacity=".5">
    <path fill="#00F554" fill-rule="evenodd" d="M53.957 21.405 55.656 21l13.288 26.266-.414 1.215L42.388 61h-.776L15.47 48.482l-.413-1.215 13.288-26.266 1.698.405V45.53L41.37 34.39h1.26l11.327 11.14V21.404Zm1.263 27.163-8.68 8.453 17.65-8.452h-8.97Zm11.463-1.794h-10.93V25.167l10.93 21.606Zm-23.786 11.29 10.675-10.397-10.675-10.496v20.892ZM41.102 37.17v20.892L30.428 47.668l10.674-10.497Zm-12.855 9.603h-10.93l10.93-21.605v21.605Zm-8.438 1.795 17.65 8.452-8.68-8.452h-8.97Z" clip-rule="evenodd"/>
  </g>
  <path fill="#00F554" fill-rule="evenodd" d="M51.957 20.405 53.656 20l13.288 26.266-.414 1.215L40.388 60h-.776L13.47 47.482l-.413-1.215 13.288-26.266 1.698.405V44.53L39.37 33.39h1.26l11.327 11.14V20.404Zm1.263 27.163-8.68 8.453 17.65-8.452h-8.97Zm11.463-1.794h-10.93V24.167l10.93 21.606Zm-23.786 11.29 10.675-10.397-10.675-10.496v20.892ZM39.102 36.17v20.892L28.428 46.668l10.674-10.497Zm-12.855 9.603h-10.93l10.93-21.605v21.605Zm-8.438 1.795 17.65 8.452-8.68-8.452h-8.97Z" clip-rule="evenodd"/>
  <defs>
    <filter id="a" width="70.729" height="56.842" x="6.635" y="12.579" color-interpolation-filters="sRGB" filterUnits="userSpaceOnUse">
      <feFlood flood-opacity="0" result="BackgroundImageFix"/>
      <feBlend in="SourceGraphic" in2="BackgroundImageFix" result="shape"/>
      <feGaussianBlur result="effect1_foregroundBlur_474_15338" stdDeviation="4.211"/>
    </filter>
  </defs>
</svg>
