<svg xmlns="http://www.w3.org/2000/svg" width="501" height="500" fill="none" viewBox="0 0 501 500">
  <g clip-path="url(#a)">
    <g filter="url(#b)" opacity=".6">
      <path fill="url(#c)" d="M355.5 298.804a132.51 132.51 0 0 0-.126-13.852c-.001-.013-.003-.026-.003-.04-1.436-23.441-9.229-45.792-22.346-65.298l-.714-.952c-29.661 17.336-108.473 65.417-108.473 65.417s-79.41-45.426-110.377-63.038l-.652 1.028a131.104 131.104 0 0 0-19.544 53.137 133.143 133.143 0 0 0-1.213 17.946 132.09 132.09 0 0 0 7.212 43.099c.01.019.014.038.02.057a131.791 131.791 0 0 0 26.69 45.202c.176.196.354.388.534.578l-.002-.002c12.137 13.326 26.591 23.85 42.962 31.296 17.208 7.826 35.905 11.794 54.608 11.794 18.702 0 36.785-3.84 53.756-11.414 16.375-7.307 30.881-17.703 43.109-30.9a28.5 28.5 0 0 0 7.442-22.462 28.507 28.507 0 0 1-4.288 18.38c19.116-22.414 30.12-50.388 31.4-79.819l.004-.071.001-.086Z"/>
      <path fill="url(#d)" d="M355.5 298.804a132.51 132.51 0 0 0-.126-13.852c-.001-.013-.003-.026-.003-.04-1.436-23.441-9.229-45.792-22.346-65.298l-.714-.952c-29.661 17.336-108.473 65.417-108.473 65.417s-79.41-45.426-110.377-63.038l-.652 1.028a131.104 131.104 0 0 0-19.544 53.137 133.143 133.143 0 0 0-1.213 17.946 132.09 132.09 0 0 0 7.212 43.099c.01.019.014.038.02.057a131.791 131.791 0 0 0 26.69 45.202c.176.196.354.388.534.578l-.002-.002c12.137 13.326 26.591 23.85 42.962 31.296 17.208 7.826 35.905 11.794 54.608 11.794 18.702 0 36.785-3.84 53.756-11.414 16.375-7.307 30.881-17.703 43.109-30.9a28.5 28.5 0 0 0 7.442-22.462 28.507 28.507 0 0 1-4.288 18.38c19.116-22.414 30.12-50.388 31.4-79.819l.004-.071.001-.086Z"/>
      <g opacity=".3">
        <path fill="url(#e)" fill-rule="evenodd" d="M189.629 374.722c-22.709 6.229-36.267 1.972-42.589-4.349-6.321-6.321-10.578-19.88-4.348-42.588 6.028-21.976 21.007-47.843 44.444-71.28 23.436-23.436 49.304-38.415 71.279-44.444 22.709-6.229 36.267-1.972 42.589 4.349 6.321 6.321 10.578 19.88 4.348 42.589-6.028 21.975-21.007 47.842-44.444 71.279-23.436 23.437-49.304 38.416-71.279 44.444Zm87.427-28.296c-51.434 51.434-116.873 69.385-146.163 40.095-29.29-29.29-11.339-94.73 40.095-146.164 51.434-51.434 116.873-69.385 146.163-40.095 29.29 29.29 11.339 94.73-40.095 146.164Z" clip-rule="evenodd"/>
        <path fill="url(#f)" fill-rule="evenodd" d="M189.629 374.722c-22.709 6.229-36.267 1.972-42.589-4.349-6.321-6.321-10.578-19.88-4.348-42.588 6.028-21.976 21.007-47.843 44.444-71.28 23.436-23.436 49.304-38.415 71.279-44.444 22.709-6.229 36.267-1.972 42.589 4.349 6.321 6.321 10.578 19.88 4.348 42.589-6.028 21.975-21.007 47.842-44.444 71.279-23.436 23.437-49.304 38.416-71.279 44.444Zm87.427-28.296c-51.434 51.434-116.873 69.385-146.163 40.095-29.29-29.29-11.339-94.73 40.095-146.164 51.434-51.434 116.873-69.385 146.163-40.095 29.29 29.29 11.339 94.73-40.095 146.164Z" clip-rule="evenodd"/>
      </g>
      <path fill="url(#g)" d="m130.078 198.162 93.862 53.511V55l-93.862 143.162Z"/>
      <path fill="url(#h)" d="m130.078 198.162 93.862 53.511V55l-93.862 143.162Z"/>
      <path fill="#fff" fill-opacity=".8" d="m317.646 198.162-93.706 53.511V55l93.706 143.162Z"/>
      <path fill="url(#i)" d="m317.646 198.162-93.706 53.511V55l93.706 143.162Z"/>
      <path fill="url(#j)" fill-opacity=".6" d="m317.646 198.162-93.706 53.511V55l93.706 143.162Z"/>
      <path fill="url(#k)" d="m113.461 221.041 110.377 62.887v140.263l-110.377-203.15Z"/>
      <path fill="url(#l)" d="m113.461 221.041 110.377 62.887v140.263l-110.377-203.15Z"/>
      <path fill="url(#m)" fill-opacity=".8" d="m332.311 218.662-108.473 65.326v140.203l108.473-205.529Z"/>
      <path fill="url(#n)" d="m332.311 218.662-108.473 65.326v140.203l108.473-205.529Z"/>
      <path fill="url(#o)" d="m332.311 218.662-108.473 65.326v140.203l108.473-205.529Z"/>
      <g opacity=".2">
        <path fill="url(#p)" fill-rule="evenodd" d="M258.414 374.722c22.709 6.229 36.267 1.972 42.589-4.349 6.321-6.322 10.578-19.88 4.348-42.589-6.028-21.975-21.007-47.843-44.444-71.279-23.436-23.437-49.304-38.416-71.279-44.444-22.709-6.23-36.267-1.973-42.589 4.349-6.321 6.321-10.578 19.88-4.348 42.588 6.028 21.976 21.007 47.843 44.444 71.28 23.436 23.436 49.304 38.415 71.279 44.444Zm-87.427-28.297c51.434 51.434 116.873 69.386 146.163 40.096 29.29-29.29 11.339-94.73-40.095-146.164-51.434-51.434-116.873-69.385-146.163-40.095-29.29 29.29-11.339 94.729 40.095 146.163Z" clip-rule="evenodd"/>
        <path fill="url(#q)" fill-rule="evenodd" d="M258.414 374.722c22.709 6.229 36.267 1.972 42.589-4.349 6.321-6.322 10.578-19.88 4.348-42.589-6.028-21.975-21.007-47.843-44.444-71.279-23.436-23.437-49.304-38.416-71.279-44.444-22.709-6.23-36.267-1.973-42.589 4.349-6.321 6.321-10.578 19.88-4.348 42.588 6.028 21.976 21.007 47.843 44.444 71.28 23.436 23.436 49.304 38.415 71.279 44.444Zm-87.427-28.297c51.434 51.434 116.873 69.386 146.163 40.096 29.29-29.29 11.339-94.73-40.095-146.164-51.434-51.434-116.873-69.385-146.163-40.095-29.29 29.29-11.339 94.729 40.095 146.163Z" clip-rule="evenodd"/>
      </g>
      <path fill="url(#r)" fill-rule="evenodd" d="M147.039 370.373c6.322 6.321 19.88 10.578 42.589 4.348a108.65 108.65 0 0 0 6.281-1.932l11.036 20.312a.363.363 0 0 1 .03-.011c-30.917 11.474-59.379 10.135-76.083-6.569-29.29-29.29-11.339-94.73 40.095-146.164 51.434-51.434 116.873-69.385 146.163-40.095 29.29 29.29 11.339 94.729-40.095 146.163-16.826 16.826-35.15 30.069-53.218 39.247 0 0 0-.001 0 0v-26.108c12.428-7.5 25.068-17.284 37.07-29.287 23.437-23.436 38.416-49.303 44.444-71.279 6.23-22.709 1.973-36.267-4.348-42.588-6.322-6.322-19.88-10.579-42.589-4.349-21.975 6.028-47.843 21.007-71.279 44.444-23.437 23.436-38.416 49.304-44.444 71.279-6.23 22.709-1.973 36.267 4.348 42.589Zm76.798-10.809c12.428-7.5 25.068-17.284 37.07-29.287 23.437-23.436 38.416-49.303 44.444-71.279 2.872-10.468 3.515-18.993 2.755-25.76l20.775-12.511c.278.984.531 1.982.759 2.995l-75.258 142.594c-10.052 7.691-20.34 14.171-30.545 19.355v-26.107Z" clip-rule="evenodd"/>
      <path fill="url(#s)" fill-rule="evenodd" d="M147.039 370.373c6.322 6.321 19.88 10.578 42.589 4.348a108.65 108.65 0 0 0 6.281-1.932l11.036 20.312a.363.363 0 0 1 .03-.011c-30.917 11.474-59.379 10.135-76.083-6.569-29.29-29.29-11.339-94.73 40.095-146.164 51.434-51.434 116.873-69.385 146.163-40.095 29.29 29.29 11.339 94.729-40.095 146.163-16.826 16.826-35.15 30.069-53.218 39.247 0 0 0-.001 0 0v-26.108c12.428-7.5 25.068-17.284 37.07-29.287 23.437-23.436 38.416-49.303 44.444-71.279 6.23-22.709 1.973-36.267-4.348-42.588-6.322-6.322-19.88-10.579-42.589-4.349-21.975 6.028-47.843 21.007-71.279 44.444-23.437 23.436-38.416 49.304-44.444 71.279-6.23 22.709-1.973 36.267 4.348 42.589Zm76.798-10.809c12.428-7.5 25.068-17.284 37.07-29.287 23.437-23.436 38.416-49.303 44.444-71.279 2.872-10.468 3.515-18.993 2.755-25.76l20.775-12.511c.278.984.531 1.982.759 2.995l-75.258 142.594c-10.052 7.691-20.34 14.171-30.545 19.355v-26.107Z" clip-rule="evenodd"/>
      <path fill="url(#t)" fill-rule="evenodd" d="M147.039 370.373c6.322 6.321 19.88 10.578 42.589 4.348a108.65 108.65 0 0 0 6.281-1.932l11.036 20.312a.363.363 0 0 1 .03-.011c-30.917 11.474-59.379 10.135-76.083-6.569-29.29-29.29-11.339-94.73 40.095-146.164 51.434-51.434 116.873-69.385 146.163-40.095 29.29 29.29 11.339 94.729-40.095 146.163-16.826 16.826-35.15 30.069-53.218 39.247 0 0 0-.001 0 0v-26.108c12.428-7.5 25.068-17.284 37.07-29.287 23.437-23.436 38.416-49.303 44.444-71.279 6.23-22.709 1.973-36.267-4.348-42.588-6.322-6.322-19.88-10.579-42.589-4.349-21.975 6.028-47.843 21.007-71.279 44.444-23.437 23.436-38.416 49.304-44.444 71.279-6.23 22.709-1.973 36.267 4.348 42.589Zm76.798-10.809c12.428-7.5 25.068-17.284 37.07-29.287 23.437-23.436 38.416-49.303 44.444-71.279 2.872-10.468 3.515-18.993 2.755-25.76l20.775-12.511c.278.984.531 1.982.759 2.995l-75.258 142.594c-10.052 7.691-20.34 14.171-30.545 19.355v-26.107Z" clip-rule="evenodd"/>
      <path fill="url(#u)" fill-rule="evenodd" d="M147.039 370.373c6.322 6.321 19.88 10.578 42.589 4.348a108.65 108.65 0 0 0 6.281-1.932l11.036 20.312a.363.363 0 0 1 .03-.011c-30.917 11.474-59.379 10.135-76.083-6.569-29.29-29.29-11.339-94.73 40.095-146.164 51.434-51.434 116.873-69.385 146.163-40.095 29.29 29.29 11.339 94.729-40.095 146.163-16.826 16.826-35.15 30.069-53.218 39.247 0 0 0-.001 0 0v-26.108c12.428-7.5 25.068-17.284 37.07-29.287 23.437-23.436 38.416-49.303 44.444-71.279 6.23-22.709 1.973-36.267-4.348-42.588-6.322-6.322-19.88-10.579-42.589-4.349-21.975 6.028-47.843 21.007-71.279 44.444-23.437 23.436-38.416 49.304-44.444 71.279-6.23 22.709-1.973 36.267 4.348 42.589Zm76.798-10.809c12.428-7.5 25.068-17.284 37.07-29.287 23.437-23.436 38.416-49.303 44.444-71.279 2.872-10.468 3.515-18.993 2.755-25.76l20.775-12.511c.278.984.531 1.982.759 2.995l-75.258 142.594c-10.052 7.691-20.34 14.171-30.545 19.355v-26.107Z" clip-rule="evenodd"/>
      <path fill="url(#v)" fill-rule="evenodd" d="M147.039 370.373c6.322 6.321 19.88 10.578 42.589 4.348a108.65 108.65 0 0 0 6.281-1.932l11.036 20.312a.363.363 0 0 1 .03-.011c-30.917 11.474-59.379 10.135-76.083-6.569-29.29-29.29-11.339-94.73 40.095-146.164 51.434-51.434 116.873-69.385 146.163-40.095 29.29 29.29 11.339 94.729-40.095 146.163-16.826 16.826-35.15 30.069-53.218 39.247 0 0 0-.001 0 0v-26.108c12.428-7.5 25.068-17.284 37.07-29.287 23.437-23.436 38.416-49.303 44.444-71.279 6.23-22.709 1.973-36.267-4.348-42.588-6.322-6.322-19.88-10.579-42.589-4.349-21.975 6.028-47.843 21.007-71.279 44.444-23.437 23.436-38.416 49.304-44.444 71.279-6.23 22.709-1.973 36.267 4.348 42.589Zm76.798-10.809c12.428-7.5 25.068-17.284 37.07-29.287 23.437-23.436 38.416-49.303 44.444-71.279 2.872-10.468 3.515-18.993 2.755-25.76l20.775-12.511c.278.984.531 1.982.759 2.995l-75.258 142.594c-10.052 7.691-20.34 14.171-30.545 19.355v-26.107Z" clip-rule="evenodd"/>
      <path fill="url(#w)" fill-rule="evenodd" d="M147.039 370.373c6.322 6.321 19.88 10.578 42.589 4.348a108.65 108.65 0 0 0 6.281-1.932l11.036 20.312a.363.363 0 0 1 .03-.011c-30.917 11.474-59.379 10.135-76.083-6.569-29.29-29.29-11.339-94.73 40.095-146.164 51.434-51.434 116.873-69.385 146.163-40.095 29.29 29.29 11.339 94.729-40.095 146.163-16.826 16.826-35.15 30.069-53.218 39.247 0 0 0-.001 0 0v-26.108c12.428-7.5 25.068-17.284 37.07-29.287 23.437-23.436 38.416-49.303 44.444-71.279 6.23-22.709 1.973-36.267-4.348-42.588-6.322-6.322-19.88-10.579-42.589-4.349-21.975 6.028-47.843 21.007-71.279 44.444-23.437 23.436-38.416 49.304-44.444 71.279-6.23 22.709-1.973 36.267 4.348 42.589Zm76.798-10.809c12.428-7.5 25.068-17.284 37.07-29.287 23.437-23.436 38.416-49.303 44.444-71.279 2.872-10.468 3.515-18.993 2.755-25.76l20.775-12.511c.278.984.531 1.982.759 2.995l-75.258 142.594c-10.052 7.691-20.34 14.171-30.545 19.355v-26.107Z" clip-rule="evenodd"/>
      <path fill="url(#x)" fill-rule="evenodd" d="M147.039 370.373c6.322 6.321 19.88 10.578 42.589 4.348a108.65 108.65 0 0 0 6.281-1.932l11.036 20.312a.363.363 0 0 1 .03-.011c-30.917 11.474-59.379 10.135-76.083-6.569-29.29-29.29-11.339-94.73 40.095-146.164 51.434-51.434 116.873-69.385 146.163-40.095 29.29 29.29 11.339 94.729-40.095 146.163-16.826 16.826-35.15 30.069-53.218 39.247 0 0 0-.001 0 0v-26.108c12.428-7.5 25.068-17.284 37.07-29.287 23.437-23.436 38.416-49.303 44.444-71.279 6.23-22.709 1.973-36.267-4.348-42.588-6.322-6.322-19.88-10.579-42.589-4.349-21.975 6.028-47.843 21.007-71.279 44.444-23.437 23.436-38.416 49.304-44.444 71.279-6.23 22.709-1.973 36.267 4.348 42.589Zm76.798-10.809c12.428-7.5 25.068-17.284 37.07-29.287 23.437-23.436 38.416-49.303 44.444-71.279 2.872-10.468 3.515-18.993 2.755-25.76l20.775-12.511c.278.984.531 1.982.759 2.995l-75.258 142.594c-10.052 7.691-20.34 14.171-30.545 19.355v-26.107Z" clip-rule="evenodd"/>
      <path fill="url(#y)" fill-rule="evenodd" d="M189.628 374.721c-22.709 6.23-36.267 1.973-42.589-4.348-6.321-6.322-10.578-19.88-4.348-42.589 6.028-21.975 21.007-47.843 44.444-71.279 23.436-23.437 49.304-38.416 71.279-44.444 22.709-6.23 36.267-1.973 42.589 4.349 3.555 3.555 6.458 9.401 7.208 17.877a41.83 41.83 0 0 0-.105-1.049l20.775-12.511c-2.24-7.914-6.118-14.853-11.731-20.465-19.74-19.741-55.902-18.023-93.129.942-7.907 4.028-15.863 8.835-23.719 14.379-10.035 7.082-19.91 15.368-29.315 24.774-51.434 51.434-69.385 116.874-40.095 146.164 16.704 16.704 45.166 18.043 76.083 6.569l-.03.011-11.036-20.312a108.65 108.65 0 0 1-6.281 1.932Zm10.674-159.138c7.664 2.94 15.648 6.862 23.719 11.746 8.071-4.884 16.055-8.806 23.719-11.746-7.856-5.544-15.812-10.351-23.719-14.379-7.907 4.028-15.862 8.835-23.719 14.379Zm76.753 130.842c40.354-40.354 60.097-89.329 52.585-122.703l-75.258 142.594c-10.052 7.691-20.34 14.171-30.545 19.355v-26.107 26.108c18.068-9.178 36.392-22.421 53.218-39.247Z" clip-rule="evenodd"/>
      <path fill="url(#z)" fill-rule="evenodd" d="M189.628 374.721c-22.709 6.23-36.267 1.973-42.589-4.348-6.321-6.322-10.578-19.88-4.348-42.589 6.028-21.975 21.007-47.843 44.444-71.279 23.436-23.437 49.304-38.416 71.279-44.444 22.709-6.23 36.267-1.973 42.589 4.349 3.555 3.555 6.458 9.401 7.208 17.877a41.83 41.83 0 0 0-.105-1.049l20.775-12.511c-2.24-7.914-6.118-14.853-11.731-20.465-19.74-19.741-55.902-18.023-93.129.942-7.907 4.028-15.863 8.835-23.719 14.379-10.035 7.082-19.91 15.368-29.315 24.774-51.434 51.434-69.385 116.874-40.095 146.164 16.704 16.704 45.166 18.043 76.083 6.569l-.03.011-11.036-20.312a108.65 108.65 0 0 1-6.281 1.932Zm10.674-159.138c7.664 2.94 15.648 6.862 23.719 11.746 8.071-4.884 16.055-8.806 23.719-11.746-7.856-5.544-15.812-10.351-23.719-14.379-7.907 4.028-15.862 8.835-23.719 14.379Zm76.753 130.842c40.354-40.354 60.097-89.329 52.585-122.703l-75.258 142.594c-10.052 7.691-20.34 14.171-30.545 19.355v-26.107 26.108c18.068-9.178 36.392-22.421 53.218-39.247Z" clip-rule="evenodd"/>
      <path fill="url(#A)" fill-rule="evenodd" d="M189.628 374.721c-22.709 6.23-36.267 1.973-42.589-4.348-6.321-6.322-10.578-19.88-4.348-42.589 6.028-21.975 21.007-47.843 44.444-71.279 23.436-23.437 49.304-38.416 71.279-44.444 22.709-6.23 36.267-1.973 42.589 4.349 3.555 3.555 6.458 9.401 7.208 17.877a41.83 41.83 0 0 0-.105-1.049l20.775-12.511c-2.24-7.914-6.118-14.853-11.731-20.465-19.74-19.741-55.902-18.023-93.129.942-7.907 4.028-15.863 8.835-23.719 14.379-10.035 7.082-19.91 15.368-29.315 24.774-51.434 51.434-69.385 116.874-40.095 146.164 16.704 16.704 45.166 18.043 76.083 6.569l-.03.011-11.036-20.312a108.65 108.65 0 0 1-6.281 1.932Zm10.674-159.138c7.664 2.94 15.648 6.862 23.719 11.746 8.071-4.884 16.055-8.806 23.719-11.746-7.856-5.544-15.812-10.351-23.719-14.379-7.907 4.028-15.862 8.835-23.719 14.379Zm76.753 130.842c40.354-40.354 60.097-89.329 52.585-122.703l-75.258 142.594c-10.052 7.691-20.34 14.171-30.545 19.355v-26.107 26.108c18.068-9.178 36.392-22.421 53.218-39.247Z" clip-rule="evenodd"/>
      <path fill="url(#B)" fill-rule="evenodd" d="M301.003 370.373c-6.322 6.321-19.88 10.578-42.589 4.349-21.975-6.028-47.843-21.007-71.279-44.444-23.437-23.437-38.416-49.304-44.444-71.279-6.23-22.709-1.973-36.268 4.348-42.589 6.322-6.321 19.88-10.578 42.589-4.349 21.975 6.028 47.843 21.008 71.279 44.444 23.437 23.437 38.416 49.304 44.444 71.279 6.23 22.709 1.973 36.268-4.348 42.589Zm-109.533-5.754a229.198 229.198 0 0 1-20.483-18.193c-38.461-38.461-58.2-84.753-53.463-117.906l73.946 136.099Zm32.367 20.866v-26.143c-12.31-7.47-24.819-17.18-36.703-29.064-23.437-23.436-38.416-49.304-44.444-71.279-2.494-9.094-3.307-16.72-2.98-23.002l-21.335-12.155c2.054-9.214 6.18-17.243 12.517-23.58 29.29-29.29 94.729-11.339 146.163 40.095 51.434 51.434 69.385 116.874 40.095 146.164-19.773 19.773-56.021 18.017-93.313-1.036Zm.001-26.143v26.143c5.557 2.839 11.09 5.294 16.549 7.351l10.759-20.387c-8.748-3.062-17.97-7.44-27.308-13.107Z" clip-rule="evenodd"/>
      <path fill="url(#C)" fill-rule="evenodd" d="M301.003 370.373c-6.322 6.321-19.88 10.578-42.589 4.349-21.975-6.028-47.843-21.007-71.279-44.444-23.437-23.437-38.416-49.304-44.444-71.279-6.23-22.709-1.973-36.268 4.348-42.589 6.322-6.321 19.88-10.578 42.589-4.349 21.975 6.028 47.843 21.008 71.279 44.444 23.437 23.437 38.416 49.304 44.444 71.279 6.23 22.709 1.973 36.268-4.348 42.589Zm-109.533-5.754a229.198 229.198 0 0 1-20.483-18.193c-38.461-38.461-58.2-84.753-53.463-117.906l73.946 136.099Zm32.367 20.866v-26.143c-12.31-7.47-24.819-17.18-36.703-29.064-23.437-23.436-38.416-49.304-44.444-71.279-2.494-9.094-3.307-16.72-2.98-23.002l-21.335-12.155c2.054-9.214 6.18-17.243 12.517-23.58 29.29-29.29 94.729-11.339 146.163 40.095 51.434 51.434 69.385 116.874 40.095 146.164-19.773 19.773-56.021 18.017-93.313-1.036Zm.001-26.143v26.143c5.557 2.839 11.09 5.294 16.549 7.351l10.759-20.387c-8.748-3.062-17.97-7.44-27.308-13.107Z" clip-rule="evenodd"/>
      <path fill="url(#D)" fill-rule="evenodd" d="M301.003 370.373c-6.322 6.321-19.88 10.578-42.589 4.349-21.975-6.028-47.843-21.007-71.279-44.444-23.437-23.437-38.416-49.304-44.444-71.279-6.23-22.709-1.973-36.268 4.348-42.589 6.322-6.321 19.88-10.578 42.589-4.349 21.975 6.028 47.843 21.008 71.279 44.444 23.437 23.437 38.416 49.304 44.444 71.279 6.23 22.709 1.973 36.268-4.348 42.589Zm-109.533-5.754a229.198 229.198 0 0 1-20.483-18.193c-38.461-38.461-58.2-84.753-53.463-117.906l73.946 136.099Zm32.367 20.866v-26.143c-12.31-7.47-24.819-17.18-36.703-29.064-23.437-23.436-38.416-49.304-44.444-71.279-2.494-9.094-3.307-16.72-2.98-23.002l-21.335-12.155c2.054-9.214 6.18-17.243 12.517-23.58 29.29-29.29 94.729-11.339 146.163 40.095 51.434 51.434 69.385 116.874 40.095 146.164-19.773 19.773-56.021 18.017-93.313-1.036Zm.001-26.143v26.143c5.557 2.839 11.09 5.294 16.549 7.351l10.759-20.387c-8.748-3.062-17.97-7.44-27.308-13.107Z" clip-rule="evenodd"/>
    </g>
    <path fill="#fff" d="M359.984 218.662 251.51 156.337 141.134 221.04l110.376 62.801 108.474-65.179Z"/>
    <path fill="url(#E)" d="M359.984 218.662 251.51 156.337 141.134 221.04l110.376 62.801 108.474-65.179Z"/>
    <path fill="url(#F)" d="M383.172 298.804a132.51 132.51 0 0 0-.126-13.852c-.001-.013-.003-.026-.003-.04-1.437-23.441-9.229-45.792-22.346-65.298l-.714-.952c-29.661 17.336-108.473 65.417-108.473 65.417s-79.41-45.426-110.377-63.038l-.652 1.028a131.104 131.104 0 0 0-19.544 53.137 133.16 133.16 0 0 0-1.213 17.946 132.09 132.09 0 0 0 7.212 43.099c.01.019.014.038.019.057a131.81 131.81 0 0 0 26.69 45.202c.177.196.355.388.535.578l-.002-.002c12.137 13.326 26.591 23.85 42.962 31.296 17.208 7.826 35.905 11.794 54.607 11.794 18.703 0 36.786-3.84 53.757-11.414 16.375-7.307 30.881-17.703 43.108-30.9a28.5 28.5 0 0 0 7.443-22.462 28.507 28.507 0 0 1-4.288 18.38c19.116-22.414 30.12-50.388 31.4-79.819l.004-.071.001-.086Z"/>
    <path fill="url(#G)" d="M383.172 298.804a132.51 132.51 0 0 0-.126-13.852c-.001-.013-.003-.026-.003-.04-1.437-23.441-9.229-45.792-22.346-65.298l-.714-.952c-29.661 17.336-108.473 65.417-108.473 65.417s-79.41-45.426-110.377-63.038l-.652 1.028a131.104 131.104 0 0 0-19.544 53.137 133.16 133.16 0 0 0-1.213 17.946 132.09 132.09 0 0 0 7.212 43.099c.01.019.014.038.019.057a131.81 131.81 0 0 0 26.69 45.202c.177.196.355.388.535.578l-.002-.002c12.137 13.326 26.591 23.85 42.962 31.296 17.208 7.826 35.905 11.794 54.607 11.794 18.703 0 36.786-3.84 53.757-11.414 16.375-7.307 30.881-17.703 43.108-30.9a28.5 28.5 0 0 0 7.443-22.462 28.507 28.507 0 0 1-4.288 18.38c19.116-22.414 30.12-50.388 31.4-79.819l.004-.071.001-.086Z"/>
    <path fill="url(#H)" d="M383.172 298.804a132.51 132.51 0 0 0-.126-13.852c-.001-.013-.003-.026-.003-.04-1.437-23.441-9.229-45.792-22.346-65.298l-.714-.952c-29.661 17.336-108.473 65.417-108.473 65.417s-79.41-45.426-110.377-63.038l-.652 1.028a131.104 131.104 0 0 0-19.544 53.137 133.16 133.16 0 0 0-1.213 17.946 132.09 132.09 0 0 0 7.212 43.099c.01.019.014.038.019.057a131.81 131.81 0 0 0 26.69 45.202c.177.196.355.388.535.578l-.002-.002c12.137 13.326 26.591 23.85 42.962 31.296 17.208 7.826 35.905 11.794 54.607 11.794 18.703 0 36.786-3.84 53.757-11.414 16.375-7.307 30.881-17.703 43.108-30.9a28.5 28.5 0 0 0 7.443-22.462 28.507 28.507 0 0 1-4.288 18.38c19.116-22.414 30.12-50.388 31.4-79.819l.004-.071.001-.086Z"/>
    <g opacity=".3">
      <path fill="url(#I)" fill-rule="evenodd" d="M217.301 374.722c-22.709 6.229-36.267 1.972-42.589-4.349-6.321-6.321-10.578-19.88-4.348-42.588 6.028-21.976 21.007-47.843 44.444-71.28 23.436-23.436 49.303-38.415 71.279-44.444 22.709-6.229 36.267-1.972 42.588 4.349 6.322 6.321 10.579 19.88 4.349 42.589-6.028 21.975-21.007 47.842-44.444 71.279-23.436 23.437-49.304 38.416-71.279 44.444Zm87.427-28.296c-51.434 51.434-116.874 69.385-146.164 40.095-29.29-29.29-11.338-94.73 40.096-146.164 51.434-51.434 116.873-69.385 146.163-40.095 29.29 29.29 11.339 94.73-40.095 146.164Z" clip-rule="evenodd"/>
      <path fill="url(#J)" fill-rule="evenodd" d="M217.301 374.722c-22.709 6.229-36.267 1.972-42.589-4.349-6.321-6.321-10.578-19.88-4.348-42.588 6.028-21.976 21.007-47.843 44.444-71.28 23.436-23.436 49.303-38.415 71.279-44.444 22.709-6.229 36.267-1.972 42.588 4.349 6.322 6.321 10.579 19.88 4.349 42.589-6.028 21.975-21.007 47.842-44.444 71.279-23.436 23.437-49.304 38.416-71.279 44.444Zm87.427-28.296c-51.434 51.434-116.874 69.385-146.164 40.095-29.29-29.29-11.338-94.73 40.096-146.164 51.434-51.434 116.873-69.385 146.163-40.095 29.29 29.29 11.339 94.73-40.095 146.164Z" clip-rule="evenodd"/>
    </g>
    <path fill="url(#K)" d="m157.75 198.162 93.862 53.511V55L157.75 198.162Z"/>
    <path fill="url(#L)" d="m157.75 198.162 93.862 53.511V55L157.75 198.162Z"/>
    <path fill="url(#M)" d="m157.75 198.162 93.862 53.511V55L157.75 198.162Z"/>
    <path fill="url(#N)" d="m345.317 198.162-93.705 53.511V55l93.705 143.162Z"/>
    <path fill="url(#O)" d="m345.317 198.162-93.705 53.511V55l93.705 143.162Z"/>
    <path fill="url(#P)" d="m345.317 198.162-93.705 53.511V55l93.705 143.162Z"/>
    <path fill="url(#Q)" fill-opacity=".8" d="M359.983 218.662 251.51 283.841v140.35l108.473-205.529Z"/>
    <path fill="url(#R)" d="M359.983 218.662 251.51 283.841v140.35l108.473-205.529Z"/>
    <path fill="url(#S)" d="M359.983 218.662 251.51 283.841v140.35l108.473-205.529Z"/>
    <path fill="url(#T)" d="M359.983 218.662 251.51 283.841v140.35l108.473-205.529Z"/>
    <path fill="url(#U)" d="m141.133 221.041 110.377 62.8v140.35l-110.377-203.15Z"/>
    <path fill="url(#V)" d="m141.133 221.041 110.377 62.8v140.35l-110.377-203.15Z"/>
    <g opacity=".2">
      <path fill="url(#W)" fill-rule="evenodd" d="M286.086 374.722c22.709 6.229 36.267 1.972 42.588-4.349 6.322-6.322 10.579-19.88 4.349-42.589-6.028-21.975-21.007-47.843-44.444-71.279-23.436-23.437-49.304-38.416-71.279-44.444-22.709-6.23-36.267-1.973-42.589 4.349-6.321 6.321-10.578 19.88-4.348 42.588 6.028 21.976 21.007 47.843 44.444 71.28 23.436 23.436 49.303 38.415 71.279 44.444Zm-87.427-28.297c51.434 51.434 116.873 69.386 146.163 40.096 29.29-29.29 11.339-94.73-40.095-146.164-51.434-51.434-116.874-69.385-146.164-40.095-29.29 29.29-11.338 94.729 40.096 146.163Z" clip-rule="evenodd"/>
      <path fill="url(#X)" fill-rule="evenodd" d="M286.086 374.722c22.709 6.229 36.267 1.972 42.588-4.349 6.322-6.322 10.579-19.88 4.349-42.589-6.028-21.975-21.007-47.843-44.444-71.279-23.436-23.437-49.304-38.416-71.279-44.444-22.709-6.23-36.267-1.973-42.589 4.349-6.321 6.321-10.578 19.88-4.348 42.588 6.028 21.976 21.007 47.843 44.444 71.28 23.436 23.436 49.303 38.415 71.279 44.444Zm-87.427-28.297c51.434 51.434 116.873 69.386 146.163 40.096 29.29-29.29 11.339-94.73-40.095-146.164-51.434-51.434-116.874-69.385-146.164-40.095-29.29 29.29-11.338 94.729 40.096 146.163Z" clip-rule="evenodd"/>
    </g>
    <path fill="url(#Y)" fill-rule="evenodd" d="M174.711 370.373c6.322 6.321 19.88 10.578 42.589 4.348a108.65 108.65 0 0 0 6.281-1.932l11.036 20.312a.363.363 0 0 1 .03-.011c-30.917 11.474-59.379 10.135-76.084-6.569-29.29-29.29-11.338-94.73 40.096-146.164 51.434-51.434 116.873-69.385 146.163-40.095 29.29 29.29 11.339 94.729-40.095 146.163-16.826 16.826-35.15 30.069-53.218 39.247 0 0 0-.001 0 0v-26.108c12.428-7.5 25.068-17.284 37.07-29.287 23.437-23.436 38.416-49.303 44.444-71.279 6.23-22.709 1.973-36.267-4.349-42.588-6.321-6.322-19.879-10.579-42.588-4.349-21.976 6.028-47.843 21.007-71.279 44.444-23.437 23.436-38.416 49.304-44.444 71.279-6.23 22.709-1.973 36.267 4.348 42.589Zm76.798-10.809c12.428-7.5 25.068-17.284 37.07-29.287 23.437-23.436 38.416-49.303 44.444-71.279 2.872-10.468 3.515-18.993 2.755-25.76l20.775-12.511c.278.984.531 1.982.759 2.995l-75.258 142.594c-10.053 7.691-20.34 14.171-30.545 19.355v-26.107Z" clip-rule="evenodd"/>
    <path fill="url(#Z)" fill-rule="evenodd" d="M174.711 370.373c6.322 6.321 19.88 10.578 42.589 4.348a108.65 108.65 0 0 0 6.281-1.932l11.036 20.312a.363.363 0 0 1 .03-.011c-30.917 11.474-59.379 10.135-76.084-6.569-29.29-29.29-11.338-94.73 40.096-146.164 51.434-51.434 116.873-69.385 146.163-40.095 29.29 29.29 11.339 94.729-40.095 146.163-16.826 16.826-35.15 30.069-53.218 39.247 0 0 0-.001 0 0v-26.108c12.428-7.5 25.068-17.284 37.07-29.287 23.437-23.436 38.416-49.303 44.444-71.279 6.23-22.709 1.973-36.267-4.349-42.588-6.321-6.322-19.879-10.579-42.588-4.349-21.976 6.028-47.843 21.007-71.279 44.444-23.437 23.436-38.416 49.304-44.444 71.279-6.23 22.709-1.973 36.267 4.348 42.589Zm76.798-10.809c12.428-7.5 25.068-17.284 37.07-29.287 23.437-23.436 38.416-49.303 44.444-71.279 2.872-10.468 3.515-18.993 2.755-25.76l20.775-12.511c.278.984.531 1.982.759 2.995l-75.258 142.594c-10.053 7.691-20.34 14.171-30.545 19.355v-26.107Z" clip-rule="evenodd"/>
    <path fill="url(#aa)" fill-rule="evenodd" d="M174.711 370.373c6.322 6.321 19.88 10.578 42.589 4.348a108.65 108.65 0 0 0 6.281-1.932l11.036 20.312a.363.363 0 0 1 .03-.011c-30.917 11.474-59.379 10.135-76.084-6.569-29.29-29.29-11.338-94.73 40.096-146.164 51.434-51.434 116.873-69.385 146.163-40.095 29.29 29.29 11.339 94.729-40.095 146.163-16.826 16.826-35.15 30.069-53.218 39.247 0 0 0-.001 0 0v-26.108c12.428-7.5 25.068-17.284 37.07-29.287 23.437-23.436 38.416-49.303 44.444-71.279 6.23-22.709 1.973-36.267-4.349-42.588-6.321-6.322-19.879-10.579-42.588-4.349-21.976 6.028-47.843 21.007-71.279 44.444-23.437 23.436-38.416 49.304-44.444 71.279-6.23 22.709-1.973 36.267 4.348 42.589Zm76.798-10.809c12.428-7.5 25.068-17.284 37.07-29.287 23.437-23.436 38.416-49.303 44.444-71.279 2.872-10.468 3.515-18.993 2.755-25.76l20.775-12.511c.278.984.531 1.982.759 2.995l-75.258 142.594c-10.053 7.691-20.34 14.171-30.545 19.355v-26.107Z" clip-rule="evenodd"/>
    <path fill="url(#ab)" fill-rule="evenodd" d="M174.71 370.373c6.322 6.321 19.88 10.578 42.589 4.348a108.65 108.65 0 0 0 6.281-1.932l11.036 20.312a.363.363 0 0 1 .03-.011c-30.917 11.474-59.379 10.135-76.084-6.569-29.29-29.29-11.338-94.73 40.096-146.164 51.434-51.434 116.873-69.385 146.163-40.095 29.29 29.29 11.339 94.729-40.095 146.163-16.826 16.826-35.15 30.069-53.218 39.247 0 0 0-.001 0 0v-26.108c12.428-7.5 25.068-17.284 37.07-29.287 23.437-23.436 38.416-49.303 44.444-71.279 6.23-22.709 1.973-36.267-4.349-42.588-6.321-6.322-19.879-10.579-42.588-4.349-21.976 6.028-47.843 21.007-71.279 44.444-23.437 23.436-38.416 49.304-44.444 71.279-6.23 22.709-1.973 36.267 4.348 42.589Zm76.798-10.809c12.428-7.5 25.068-17.284 37.07-29.287 23.437-23.436 38.416-49.303 44.444-71.279 2.872-10.468 3.515-18.993 2.755-25.76l20.775-12.511c.278.984.531 1.982.759 2.995l-75.258 142.594c-10.053 7.691-20.34 14.171-30.545 19.355v-26.107Z" clip-rule="evenodd"/>
    <path fill="url(#ac)" fill-rule="evenodd" d="M174.71 370.373c6.322 6.321 19.88 10.578 42.589 4.348a108.65 108.65 0 0 0 6.281-1.932l11.036 20.312a.363.363 0 0 1 .03-.011c-30.917 11.474-59.379 10.135-76.084-6.569-29.29-29.29-11.338-94.73 40.096-146.164 51.434-51.434 116.873-69.385 146.163-40.095 29.29 29.29 11.339 94.729-40.095 146.163-16.826 16.826-35.15 30.069-53.218 39.247 0 0 0-.001 0 0v-26.108c12.428-7.5 25.068-17.284 37.07-29.287 23.437-23.436 38.416-49.303 44.444-71.279 6.23-22.709 1.973-36.267-4.349-42.588-6.321-6.322-19.879-10.579-42.588-4.349-21.976 6.028-47.843 21.007-71.279 44.444-23.437 23.436-38.416 49.304-44.444 71.279-6.23 22.709-1.973 36.267 4.348 42.589Zm76.798-10.809c12.428-7.5 25.068-17.284 37.07-29.287 23.437-23.436 38.416-49.303 44.444-71.279 2.872-10.468 3.515-18.993 2.755-25.76l20.775-12.511c.278.984.531 1.982.759 2.995l-75.258 142.594c-10.053 7.691-20.34 14.171-30.545 19.355v-26.107Z" clip-rule="evenodd"/>
    <path fill="url(#ad)" fill-rule="evenodd" d="M174.71 370.373c6.322 6.321 19.88 10.578 42.589 4.348a108.65 108.65 0 0 0 6.281-1.932l11.036 20.312a.363.363 0 0 1 .03-.011c-30.917 11.474-59.379 10.135-76.084-6.569-29.29-29.29-11.338-94.73 40.096-146.164 51.434-51.434 116.873-69.385 146.163-40.095 29.29 29.29 11.339 94.729-40.095 146.163-16.826 16.826-35.15 30.069-53.218 39.247 0 0 0-.001 0 0v-26.108c12.428-7.5 25.068-17.284 37.07-29.287 23.437-23.436 38.416-49.303 44.444-71.279 6.23-22.709 1.973-36.267-4.349-42.588-6.321-6.322-19.879-10.579-42.588-4.349-21.976 6.028-47.843 21.007-71.279 44.444-23.437 23.436-38.416 49.304-44.444 71.279-6.23 22.709-1.973 36.267 4.348 42.589Zm76.798-10.809c12.428-7.5 25.068-17.284 37.07-29.287 23.437-23.436 38.416-49.303 44.444-71.279 2.872-10.468 3.515-18.993 2.755-25.76l20.775-12.511c.278.984.531 1.982.759 2.995l-75.258 142.594c-10.053 7.691-20.34 14.171-30.545 19.355v-26.107Z" clip-rule="evenodd"/>
    <path fill="url(#ae)" fill-rule="evenodd" d="M328.673 370.373c-6.321 6.321-19.879 10.578-42.588 4.349-21.976-6.028-47.843-21.007-71.279-44.444-23.437-23.437-38.416-49.304-44.444-71.279-6.23-22.709-1.973-36.268 4.348-42.589 6.322-6.321 19.88-10.578 42.589-4.349 21.975 6.028 47.843 21.008 71.279 44.444 23.437 23.437 38.416 49.304 44.444 71.279 6.23 22.709 1.973 36.268-4.349 42.589Zm-109.532-5.754a229.06 229.06 0 0 1-20.483-18.193c-38.461-38.461-58.2-84.754-53.463-117.906l73.946 136.099Zm32.367 20.866v-26.143c-12.31-7.47-24.819-17.18-36.703-29.064-23.437-23.436-38.416-49.304-44.444-71.279-2.494-9.094-3.307-16.72-2.98-23.002l-21.335-12.155c2.054-9.214 6.179-17.243 12.516-23.58 29.29-29.29 94.73-11.339 146.164 40.095 51.434 51.434 69.385 116.874 40.095 146.164-19.773 19.773-56.021 18.017-93.313-1.036Zm.001-26.142v26.142c5.557 2.839 11.09 5.294 16.549 7.351l10.759-20.386c-8.748-3.062-17.971-7.441-27.308-13.107Z" clip-rule="evenodd"/>
    <path fill="url(#af)" fill-rule="evenodd" d="M328.673 370.373c-6.321 6.321-19.879 10.578-42.588 4.349-21.976-6.028-47.843-21.007-71.279-44.444-23.437-23.437-38.416-49.304-44.444-71.279-6.23-22.709-1.973-36.268 4.348-42.589 6.322-6.321 19.88-10.578 42.589-4.349 21.975 6.028 47.843 21.008 71.279 44.444 23.437 23.437 38.416 49.304 44.444 71.279 6.23 22.709 1.973 36.268-4.349 42.589Zm-109.532-5.754a229.06 229.06 0 0 1-20.483-18.193c-38.461-38.461-58.2-84.754-53.463-117.906l73.946 136.099Zm32.367 20.866v-26.143c-12.31-7.47-24.819-17.18-36.703-29.064-23.437-23.436-38.416-49.304-44.444-71.279-2.494-9.094-3.307-16.72-2.98-23.002l-21.335-12.155c2.054-9.214 6.179-17.243 12.516-23.58 29.29-29.29 94.73-11.339 146.164 40.095 51.434 51.434 69.385 116.874 40.095 146.164-19.773 19.773-56.021 18.017-93.313-1.036Zm.001-26.142v26.142c5.557 2.839 11.09 5.294 16.549 7.351l10.759-20.386c-8.748-3.062-17.971-7.441-27.308-13.107Z" clip-rule="evenodd"/>
    <path fill="url(#ag)" fill-rule="evenodd" d="M328.673 370.373c-6.321 6.321-19.879 10.578-42.588 4.349-21.976-6.028-47.843-21.007-71.279-44.444-23.437-23.437-38.416-49.304-44.444-71.279-6.23-22.709-1.973-36.268 4.348-42.589 6.322-6.321 19.88-10.578 42.589-4.349 21.975 6.028 47.843 21.008 71.279 44.444 23.437 23.437 38.416 49.304 44.444 71.279 6.23 22.709 1.973 36.268-4.349 42.589Zm-109.532-5.754a229.06 229.06 0 0 1-20.483-18.193c-38.461-38.461-58.2-84.754-53.463-117.906l73.946 136.099Zm32.367 20.866v-26.143c-12.31-7.47-24.819-17.18-36.703-29.064-23.437-23.436-38.416-49.304-44.444-71.279-2.494-9.094-3.307-16.72-2.98-23.002l-21.335-12.155c2.054-9.214 6.179-17.243 12.516-23.58 29.29-29.29 94.73-11.339 146.164 40.095 51.434 51.434 69.385 116.874 40.095 146.164-19.773 19.773-56.021 18.017-93.313-1.036Zm.001-26.142v26.142c5.557 2.839 11.09 5.294 16.549 7.351l10.759-20.386c-8.748-3.062-17.971-7.441-27.308-13.107Z" clip-rule="evenodd"/>
  </g>
  <defs>
    <radialGradient id="c" cx="0" cy="0" r="1" gradientTransform="matrix(-45.91159 199.81938 -146.08258 -33.56473 362.046 205.579)" gradientUnits="userSpaceOnUse">
      <stop stop-color="#00A3FF"/>
      <stop offset=".944" stop-color="#00A3FF" stop-opacity=".29"/>
    </radialGradient>
    <radialGradient id="d" cx="0" cy="0" r="1" gradientTransform="matrix(-67.08338 -244.77908 1089.97842 -298.71605 290.92 526.004)" gradientUnits="userSpaceOnUse">
      <stop stop-color="#2238FF"/>
      <stop offset=".553" stop-color="#163DFF" stop-opacity=".645"/>
      <stop offset="1" stop-color="#0047FF" stop-opacity="0"/>
    </radialGradient>
    <radialGradient id="e" cx="0" cy="0" r="1" gradientTransform="matrix(88.72974 -137.01945 240.60914 155.81137 189.346 417.055)" gradientUnits="userSpaceOnUse">
      <stop offset=".041" stop-color="#09A6FF"/>
      <stop offset=".291" stop-color="#09A6FF"/>
      <stop offset="1" stop-color="#09A6FF" stop-opacity="0"/>
    </radialGradient>
    <radialGradient id="f" cx="0" cy="0" r="1" gradientTransform="matrix(146.77219 -88.49148 483.87393 802.55446 194.103 414.438)" gradientUnits="userSpaceOnUse">
      <stop stop-color="#2238FF"/>
      <stop offset=".355" stop-color="#163DFF" stop-opacity=".645"/>
      <stop offset="1" stop-color="#0047FF" stop-opacity="0"/>
    </radialGradient>
    <radialGradient id="g" cx="0" cy="0" r="1" gradientTransform="matrix(-99.90907 -137.60393 103.5859 -75.20985 223.837 192.511)" gradientUnits="userSpaceOnUse">
      <stop stop-color="#00A3FF" stop-opacity=".29"/>
      <stop offset="1" stop-color="#00A3FF"/>
    </radialGradient>
    <radialGradient id="h" cx="0" cy="0" r="1" gradientTransform="rotate(91.289 87.545 127.696) scale(148.08 225.555)" gradientUnits="userSpaceOnUse">
      <stop stop-color="#2238FF"/>
      <stop offset="1" stop-color="#0047FF" stop-opacity="0"/>
    </radialGradient>
    <radialGradient id="i" cx="0" cy="0" r="1" gradientTransform="matrix(-10.22928 229.41906 -348.86439 -15.55508 250.718 22.404)" gradientUnits="userSpaceOnUse">
      <stop stop-color="#2238FF"/>
      <stop offset=".355" stop-color="#163DFF" stop-opacity=".645"/>
      <stop offset="1" stop-color="#0047FF" stop-opacity="0"/>
    </radialGradient>
    <radialGradient id="k" cx="0" cy="0" r="1" gradientTransform="matrix(-134.16339 -211.00044 483.92502 -307.70087 223.838 383.513)" gradientUnits="userSpaceOnUse">
      <stop stop-color="#64E3FF"/>
      <stop offset="1" stop-color="#00A3FF" stop-opacity=".29"/>
    </radialGradient>
    <radialGradient id="l" cx="0" cy="0" r="1" gradientTransform="rotate(119.972 47.136 188.657) scale(143.466 77.9458)" gradientUnits="userSpaceOnUse">
      <stop stop-color="#1858FF"/>
      <stop offset="1" stop-color="#3A70FF" stop-opacity="0"/>
    </radialGradient>
    <radialGradient id="n" cx="0" cy="0" r="1" gradientTransform="rotate(-64.342 458.855 18.665) scale(396.647 892.935)" gradientUnits="userSpaceOnUse">
      <stop stop-color="#4DEAFF"/>
      <stop offset=".944" stop-color="#00A3FF" stop-opacity=".1"/>
    </radialGradient>
    <radialGradient id="o" cx="0" cy="0" r="1" gradientTransform="matrix(88.16487 83.4066 -79.811 84.36414 211.653 282.711)" gradientUnits="userSpaceOnUse">
      <stop stop-color="#35AAFF"/>
      <stop offset="0" stop-color="#0057FF"/>
      <stop offset="1" stop-color="#00A3FF" stop-opacity="0"/>
    </radialGradient>
    <radialGradient id="p" cx="0" cy="0" r="1" gradientTransform="rotate(-163.913 211.914 162.97) scale(185.434 325.626)" gradientUnits="userSpaceOnUse">
      <stop stop-color="#09A6FF"/>
      <stop offset=".393" stop-color="#09A6FF"/>
      <stop offset="1" stop-color="#09A6FF" stop-opacity="0"/>
    </radialGradient>
    <radialGradient id="q" cx="0" cy="0" r="1" gradientTransform="matrix(-132.26183 -85.63607 468.26108 -723.21238 384.883 367.813)" gradientUnits="userSpaceOnUse">
      <stop stop-color="#2238FF"/>
      <stop offset=".553" stop-color="#163DFF" stop-opacity=".645"/>
      <stop offset="1" stop-color="#0047FF" stop-opacity="0"/>
    </radialGradient>
    <radialGradient id="r" cx="0" cy="0" r="1" gradientTransform="matrix(69.76705 -151.99599 342.17296 157.0594 247.969 378.066)" gradientUnits="userSpaceOnUse">
      <stop stop-color="#4DEAFF"/>
      <stop offset=".944" stop-color="#00A3FF" stop-opacity=".1"/>
    </radialGradient>
    <radialGradient id="s" cx="0" cy="0" r="1" gradientTransform="rotate(-69.945 377.083 93.095) scale(356.556 188.196)" gradientUnits="userSpaceOnUse">
      <stop stop-color="#2241FF"/>
      <stop offset="1" stop-color="#1EA0FF" stop-opacity="0"/>
    </radialGradient>
    <radialGradient id="t" cx="0" cy="0" r="1" gradientTransform="matrix(140.3498 152.95738 -80.73346 74.07897 239.538 129.456)" gradientUnits="userSpaceOnUse">
      <stop stop-color="#2241FF"/>
      <stop offset="1" stop-color="#1EA0FF" stop-opacity="0"/>
    </radialGradient>
    <radialGradient id="u" cx="0" cy="0" r="1" gradientTransform="rotate(-126.384 305.06 208.891) scale(368.358 625.639)" gradientUnits="userSpaceOnUse">
      <stop stop-color="#09A6FF"/>
      <stop offset=".393" stop-color="#09A6FF"/>
      <stop offset="1" stop-color="#09A6FF" stop-opacity="0"/>
    </radialGradient>
    <radialGradient id="v" cx="0" cy="0" r="1" gradientTransform="rotate(-125.331 359.414 228.077) scale(363.497 1889.08)" gradientUnits="userSpaceOnUse">
      <stop stop-color="#2238FF"/>
      <stop offset=".553" stop-color="#163DFF" stop-opacity=".645"/>
      <stop offset="1" stop-color="#0047FF" stop-opacity="0"/>
    </radialGradient>
    <radialGradient id="w" cx="0" cy="0" r="1" gradientTransform="rotate(-96.118 404.024 239.577) scale(384.093 1343.3)" gradientUnits="userSpaceOnUse">
      <stop stop-color="#2238FF"/>
      <stop offset=".553" stop-color="#163DFF" stop-opacity=".645"/>
      <stop offset="1" stop-color="#0047FF" stop-opacity="0"/>
    </radialGradient>
    <radialGradient id="x" cx="0" cy="0" r="1" gradientTransform="matrix(-35.95709 330.86691 -1157.70363 -125.81388 206.383 -57.38)" gradientUnits="userSpaceOnUse">
      <stop stop-color="#2238FF"/>
      <stop offset=".553" stop-color="#163DFF" stop-opacity=".645"/>
      <stop offset="1" stop-color="#0047FF" stop-opacity="0"/>
    </radialGradient>
    <radialGradient id="y" cx="0" cy="0" r="1" gradientTransform="matrix(-258.86235 -424.20114 720.48559 -439.66547 317.851 578.396)" gradientUnits="userSpaceOnUse">
      <stop stop-color="#09A6FF"/>
      <stop offset=".393" stop-color="#09A6FF"/>
      <stop offset="1" stop-color="#09A6FF" stop-opacity="0"/>
    </radialGradient>
    <radialGradient id="z" cx="0" cy="0" r="1" gradientTransform="rotate(-117.923 371.59 202.352) scale(305.3 1586.63)" gradientUnits="userSpaceOnUse">
      <stop stop-color="#2238FF"/>
      <stop offset=".553" stop-color="#163DFF" stop-opacity=".645"/>
      <stop offset="1" stop-color="#0047FF" stop-opacity="0"/>
    </radialGradient>
    <radialGradient id="A" cx="0" cy="0" r="1" gradientTransform="matrix(-46.64514 -360.6309 1261.24368 -163.13324 208.872 666.833)" gradientUnits="userSpaceOnUse">
      <stop stop-color="#2238FF"/>
      <stop offset=".553" stop-color="#163DFF" stop-opacity=".645"/>
      <stop offset="1" stop-color="#0047FF" stop-opacity="0"/>
    </radialGradient>
    <radialGradient id="B" cx="0" cy="0" r="1" gradientTransform="matrix(-228.36518 -114.42158 200.93289 -401.0264 345.157 367.338)" gradientUnits="userSpaceOnUse">
      <stop stop-color="#09A6FF"/>
      <stop offset=".393" stop-color="#09A6FF"/>
      <stop offset="1" stop-color="#09A6FF" stop-opacity="0"/>
    </radialGradient>
    <radialGradient id="C" cx="0" cy="0" r="1" gradientTransform="matrix(-244.54 -230.03222 1257.863 -1337.19452 350.629 523.388)" gradientUnits="userSpaceOnUse">
      <stop stop-color="#2238FF"/>
      <stop offset=".553" stop-color="#163DFF" stop-opacity=".645"/>
      <stop offset="1" stop-color="#0047FF" stop-opacity="0"/>
    </radialGradient>
    <radialGradient id="D" cx="0" cy="0" r="1" gradientTransform="matrix(-9.99104 187.68827 -1026.31691 -54.63303 187.918 60.71)" gradientUnits="userSpaceOnUse">
      <stop stop-color="#2238FF"/>
      <stop offset=".553" stop-color="#163DFF" stop-opacity=".645"/>
      <stop offset="1" stop-color="#0047FF" stop-opacity="0"/>
    </radialGradient>
    <radialGradient id="E" cx="0" cy="0" r="1" gradientTransform="matrix(0 -188.877 232.176 0 251.51 328.8)" gradientUnits="userSpaceOnUse">
      <stop stop-color="#5CEAB7" stop-opacity="0"/>
      <stop offset=".361" stop-color="#5CF1D6" stop-opacity=".52"/>
      <stop offset="1" stop-color="#108DE8" stop-opacity=".92"/>
    </radialGradient>
    <radialGradient id="F" cx="0" cy="0" r="1" gradientTransform="scale(57.7374 78.9764) rotate(90 .64 3.716)" gradientUnits="userSpaceOnUse">
      <stop stop-color="#00A3FF"/>
      <stop offset=".944" stop-color="#00A3FF" stop-opacity=".29"/>
    </radialGradient>
    <radialGradient id="G" cx="0" cy="0" r="1" gradientTransform="matrix(0 207.194 -746.995 0 251.51 127.078)" gradientUnits="userSpaceOnUse">
      <stop stop-color="#2238FF"/>
      <stop offset=".553" stop-color="#163DFF" stop-opacity=".645"/>
      <stop offset="1" stop-color="#0047FF" stop-opacity="0"/>
    </radialGradient>
    <radialGradient id="H" cx="0" cy="0" r="1" gradientTransform="matrix(0 -128.931 159.981 0 251.51 358.06)" gradientUnits="userSpaceOnUse">
      <stop stop-color="#5CEAB7" stop-opacity="0"/>
      <stop offset=".565" stop-color="#5CF1D6" stop-opacity=".52"/>
      <stop offset="1" stop-color="#106AE8" stop-opacity=".92"/>
    </radialGradient>
    <radialGradient id="I" cx="0" cy="0" r="1" gradientTransform="matrix(88.72974 -137.01945 240.60914 155.81137 217.017 417.055)" gradientUnits="userSpaceOnUse">
      <stop offset=".041" stop-color="#09A6FF"/>
      <stop offset=".291" stop-color="#09A6FF"/>
      <stop offset="1" stop-color="#09A6FF" stop-opacity="0"/>
    </radialGradient>
    <radialGradient id="J" cx="0" cy="0" r="1" gradientTransform="matrix(146.77219 -88.49148 483.87393 802.55446 221.775 414.438)" gradientUnits="userSpaceOnUse">
      <stop stop-color="#2238FF"/>
      <stop offset=".355" stop-color="#163DFF" stop-opacity=".645"/>
      <stop offset="1" stop-color="#0047FF" stop-opacity="0"/>
    </radialGradient>
    <radialGradient id="K" cx="0" cy="0" r="1" gradientTransform="rotate(-112.683 193.393 43.11) scale(198.625 149.521)" gradientUnits="userSpaceOnUse">
      <stop stop-color="#00A3FF" stop-opacity=".29"/>
      <stop offset="1" stop-color="#00A3FF"/>
    </radialGradient>
    <radialGradient id="L" cx="0" cy="0" r="1" gradientTransform="matrix(-3.80548 183.22949 -279.09381 -5.79648 244.849 43.045)" gradientUnits="userSpaceOnUse">
      <stop stop-color="#2238FF"/>
      <stop offset="1" stop-color="#0047FF" stop-opacity="0"/>
    </radialGradient>
    <radialGradient id="M" cx="0" cy="0" r="1" gradientTransform="matrix(-16.88945 -183.16798 84.98718 -7.83645 221.774 267.665)" gradientUnits="userSpaceOnUse">
      <stop stop-color="#5CEAB7" stop-opacity="0"/>
      <stop offset=".382" stop-color="#5CF1D6" stop-opacity=".52"/>
      <stop offset="1" stop-color="#106AE8" stop-opacity=".92"/>
    </radialGradient>
    <radialGradient id="N" cx="0" cy="0" r="1" gradientTransform="matrix(87.30275 -186.4985 86.38809 40.43956 251.51 325.946)" gradientUnits="userSpaceOnUse">
      <stop stop-color="#5CEAB7" stop-opacity="0"/>
      <stop offset=".68" stop-color="#5CF1D6" stop-opacity=".52"/>
    </radialGradient>
    <radialGradient id="O" cx="0" cy="0" r="1" gradientTransform="matrix(8.32488 196.25151 -298.42962 12.65922 261.74 -6.61)" gradientUnits="userSpaceOnUse">
      <stop stop-color="#2238FF"/>
      <stop offset=".355" stop-color="#163DFF" stop-opacity=".645"/>
      <stop offset="1" stop-color="#0047FF" stop-opacity="0"/>
    </radialGradient>
    <radialGradient id="P" cx="0" cy="0" r="1" gradientTransform="rotate(-106.699 280.088 49.787) scale(149.013 226.596)" gradientUnits="userSpaceOnUse">
      <stop stop-color="#2238FF"/>
      <stop offset=".355" stop-color="#163DFF" stop-opacity=".645"/>
      <stop offset="1" stop-color="#0047FF" stop-opacity="0"/>
    </radialGradient>
    <radialGradient id="R" cx="0" cy="0" r="1" gradientTransform="rotate(-64.342 472.69 -3.331) scale(396.647 892.935)" gradientUnits="userSpaceOnUse">
      <stop stop-color="#5CF1D6"/>
      <stop offset=".944" stop-color="#00A3FF" stop-opacity=".1"/>
    </radialGradient>
    <radialGradient id="S" cx="0" cy="0" r="1" gradientTransform="matrix(88.16487 83.4066 -79.811 84.36414 239.324 282.711)" gradientUnits="userSpaceOnUse">
      <stop stop-color="#35AAFF"/>
      <stop offset="0" stop-color="#0057FF"/>
      <stop offset="1" stop-color="#00A3FF" stop-opacity="0"/>
    </radialGradient>
    <radialGradient id="T" cx="0" cy="0" r="1" gradientTransform="rotate(80.027 1.23 265.929) scale(157.961 83.3743)" gradientUnits="userSpaceOnUse">
      <stop stop-color="#2241FF"/>
      <stop offset="1" stop-color="#22D5B4" stop-opacity="0"/>
    </radialGradient>
    <radialGradient id="U" cx="0" cy="0" r="1" gradientTransform="matrix(-134.16339 -211.00044 483.92502 -307.70087 251.51 383.513)" gradientUnits="userSpaceOnUse">
      <stop stop-color="#5CF1D6"/>
      <stop offset="1" stop-color="#5CF1D6" stop-opacity=".29"/>
    </radialGradient>
    <radialGradient id="V" cx="0" cy="0" r="1" gradientTransform="rotate(119.972 60.972 196.65) scale(143.466 77.9458)" gradientUnits="userSpaceOnUse">
      <stop stop-color="#1858FF"/>
      <stop offset="1" stop-color="#3A70FF" stop-opacity="0"/>
    </radialGradient>
    <radialGradient id="W" cx="0" cy="0" r="1" gradientTransform="rotate(-163.913 225.75 161.015) scale(185.434 325.626)" gradientUnits="userSpaceOnUse">
      <stop stop-color="#09A6FF"/>
      <stop offset=".393" stop-color="#09A6FF"/>
      <stop offset="1" stop-color="#09A6FF" stop-opacity="0"/>
    </radialGradient>
    <radialGradient id="X" cx="0" cy="0" r="1" gradientTransform="matrix(-132.26183 -85.63607 468.26108 -723.21238 412.555 367.813)" gradientUnits="userSpaceOnUse">
      <stop stop-color="#2238FF"/>
      <stop offset=".553" stop-color="#163DFF" stop-opacity=".645"/>
      <stop offset="1" stop-color="#0047FF" stop-opacity="0"/>
    </radialGradient>
    <radialGradient id="Y" cx="0" cy="0" r="1" gradientTransform="matrix(69.76705 -151.99599 342.17296 157.0594 275.641 378.066)" gradientUnits="userSpaceOnUse">
      <stop stop-color="#4DEAFF"/>
      <stop offset=".944" stop-color="#00A3FF" stop-opacity=".1"/>
    </radialGradient>
    <radialGradient id="Z" cx="0" cy="0" r="1" gradientTransform="rotate(-69.945 390.92 73.315) scale(356.556 188.196)" gradientUnits="userSpaceOnUse">
      <stop stop-color="#2241FF"/>
      <stop offset="1" stop-color="#1EA0FF" stop-opacity="0"/>
    </radialGradient>
    <radialGradient id="aa" cx="0" cy="0" r="1" gradientTransform="matrix(140.3498 152.95738 -80.73346 74.07897 267.209 129.456)" gradientUnits="userSpaceOnUse">
      <stop stop-color="#2241FF"/>
      <stop offset="1" stop-color="#1EA0FF" stop-opacity="0"/>
    </radialGradient>
    <radialGradient id="ab" cx="0" cy="0" r="1" gradientTransform="rotate(-111.182 418.468 120.032) scale(290.324 493.102)" gradientUnits="userSpaceOnUse">
      <stop stop-color="#09A6FF"/>
      <stop offset=".393" stop-color="#09A6FF"/>
      <stop offset="1" stop-color="#09A6FF" stop-opacity="0"/>
    </radialGradient>
    <radialGradient id="ac" cx="0" cy="0" r="1" gradientTransform="matrix(91.08665 -350.64023 1226.30874 318.56115 236.545 666.834)" gradientUnits="userSpaceOnUse">
      <stop stop-color="#2238FF"/>
      <stop offset=".553" stop-color="#163DFF" stop-opacity=".645"/>
      <stop offset="1" stop-color="#0047FF" stop-opacity="0"/>
    </radialGradient>
    <radialGradient id="ad" cx="0" cy="0" r="1"  gradientTransform="matrix(130.8346 125.83899 -440.3089 457.78846 172.77 96.153)" gradientUnits="userSpaceOnUse">
      <stop stop-color="#2238FF"/>
      <stop offset=".544" stop-color="#163DFF" stop-opacity=".645"/>
      <stop offset="1" stop-color="#0047FF" stop-opacity="0"/>
    </radialGradient>
    <radialGradient id="ae" cx="0" cy="0" r="1" gradientTransform="matrix(-228.36518 -114.42158 200.93289 -401.0264 372.828 367.338)" gradientUnits="userSpaceOnUse">
      <stop stop-color="#09A6FF"/>
      <stop offset=".393" stop-color="#09A6FF"/>
      <stop offset="1" stop-color="#09A6FF" stop-opacity="0"/>
    </radialGradient>
    <radialGradient id="af" cx="0" cy="0" r="1" gradientTransform="rotate(-156.896 296.31 179.474) scale(359.487 1965.75)" gradientUnits="userSpaceOnUse">
      <stop stop-color="#2238FF"/>
      <stop offset=".553" stop-color="#163DFF" stop-opacity=".645"/>
      <stop offset=".903" stop-color="#0047FF" stop-opacity="0"/>
    </radialGradient>
    <radialGradient id="ag" cx="0" cy="0" r="1" gradientTransform="matrix(-22.83656 215.04384 -1175.90802 -124.87542 221.298 30.974)" gradientUnits="userSpaceOnUse">
      <stop stop-color="#2238FF"/>
      <stop offset=".553" stop-color="#163DFF" stop-opacity=".645"/>
      <stop offset="1" stop-color="#0047FF" stop-opacity="0"/>
    </radialGradient>
    <linearGradient id="j" x1="318.141" x2="248.411" y1="227.908" y2="73.036" gradientUnits="userSpaceOnUse">
      <stop stop-color="#29EDFE"/>
      <stop offset="1" stop-color="#29EDFE" stop-opacity="0"/>
    </linearGradient>
    <linearGradient id="m" x1="228.12" x2="289.493" y1="424.191" y2="263.859" gradientUnits="userSpaceOnUse">
      <stop stop-color="#fff"/>
      <stop offset=".025" stop-color="#fff" stop-opacity="0"/>
    </linearGradient>
    <linearGradient id="Q" x1="255.792" x2="317.165" y1="424.191" y2="263.859" gradientUnits="userSpaceOnUse">
      <stop stop-color="#fff"/>
      <stop offset=".025" stop-color="#fff" stop-opacity="0"/>
    </linearGradient>
    <clipPath id="a">
      <rect width="500" height="500" x=".857" fill="#fff" rx="20"/>
    </clipPath>
    <filter id="b" width="434.845" height="541.45" x="6.415" y="-30.637" color-interpolation-filters="sRGB" filterUnits="userSpaceOnUse">
      <feFlood flood-opacity="0" result="BackgroundImageFix"/>
      <feBlend in="SourceGraphic" in2="BackgroundImageFix" result="shape"/>
      <feGaussianBlur result="effect1_foregroundBlur_369_6709" stdDeviation="42.819"/>
    </filter>
  </defs>
</svg>
