<svg xmlns="http://www.w3.org/2000/svg" width="81" height="80" fill="none" viewBox="0 0 81 80">
  <path fill="#E2CEC3" fill-rule="evenodd" d="M19.968 61.75c-.025.074-.052.154-.083.24v.005h1.245c1.64.002 3.248.004 4.853-.02.144-.005.346-.26.418-.44.725-1.85 1.436-3.706 2.143-5.56 4.723-12.434 9.442-24.866 14.16-37.3.047-.126.087-.254.133-.4l.083-.26c-.439 0-.871.002-1.3.003-1.162.004-2.294.007-3.428-.018-.5-.01-.716.162-.908.637-5.16 12.86-10.331 25.711-15.504 38.566l-1.664 4.136c-.052.127-.096.26-.148.41Zm26.66-18.767.492 1.288.014.005h-2.552c-2.41.001-4.82.002-7.23-.01-.39-.005-.573.108-.707.49-.25.71-.521 1.414-.792 2.116-.136.352-.272.703-.404 1.055-.169.45-.332.901-.52 1.42h.764l3.081.001c3.08.002 6.158.004 9.24-.01.47-.006.696.131.879.591.77 1.972 1.55 3.94 2.33 5.908.741 1.871 1.482 3.742 2.215 5.615.159.406.341.558.783.553 1.366-.022 2.735-.02 4.102-.017l1.366.002c.1 0 .2-.007.31-.015l.228-.014-.064-.2a3.342 3.342 0 0 0-.075-.221l-1.578-3.93c-.526-1.311-1.052-2.622-1.579-3.931L45.3 24.736l-.03-.075c-.1-.26-.19-.493-.58-.493-.392 0-.47.23-.557.484l-.035.098-.343.94c-.555 1.517-1.11 3.033-1.631 4.562a1.69 1.69 0 0 0 .019 1.048c1.01 2.673 2.04 5.34 3.072 8.009l.95 2.46c.151.401.305.8.463 1.215Z" clip-rule="evenodd"/>
  <g filter="url(#a)">
    <path fill="#E2CEC3" fill-rule="evenodd" d="M25.134 61.75c-.025.074-.052.154-.083.24v.005h1.245c1.64.002 3.248.004 4.853-.02.144-.005.346-.26.418-.44.725-1.85 1.436-3.706 2.143-5.56 4.723-12.434 9.441-24.866 14.16-37.3.047-.126.087-.254.133-.4l.083-.26c-.438 0-.871.002-1.3.003-1.162.004-2.294.007-3.428-.018-.5-.01-.716.162-.908.637-5.16 12.86-10.331 25.711-15.504 38.566l-1.664 4.136a8.02 8.02 0 0 0-.148.41Zm26.66-18.767.492 1.288.014.005h-2.552c-2.41.001-4.82.002-7.23-.01-.39-.005-.573.108-.707.49-.25.71-.521 1.414-.792 2.116-.136.352-.272.703-.404 1.055-.169.45-.332.901-.52 1.42h.764l3.081.001c3.08.002 6.158.004 9.24-.01.47-.006.696.131.879.591.77 1.972 1.55 3.94 2.33 5.908.741 1.871 1.482 3.742 2.215 5.615.159.406.341.558.783.553 1.366-.022 2.735-.02 4.102-.017l1.366.002c.1 0 .2-.007.31-.015.072-.005.147-.01.229-.014a5.628 5.628 0 0 1-.065-.2 3.195 3.195 0 0 0-.075-.221 14588.447 14588.447 0 0 1-3.157-7.861L50.465 24.736l-.03-.075c-.1-.26-.19-.493-.58-.493-.392 0-.47.23-.557.484l-.035.098-.343.94a220.146 220.146 0 0 0-1.632 4.562c-.105.314-.096.74.02 1.048 1.01 2.673 2.04 5.34 3.072 8.009l.95 2.46c.151.401.305.8.463 1.215Z" clip-rule="evenodd"/>
  </g>
  <defs>
    <filter id="a" width="68.342" height="72.005" x="11.051" y="4" color-interpolation-filters="sRGB" filterUnits="userSpaceOnUse">
      <feFlood flood-opacity="0" result="BackgroundImageFix"/>
      <feBlend in="SourceGraphic" in2="BackgroundImageFix" result="shape"/>
      <feGaussianBlur result="effect1_foregroundBlur_52_17190" stdDeviation="7"/>
    </filter>
  </defs>
</svg>
