<svg xmlns="http://www.w3.org/2000/svg" width="81" height="80" fill="none" viewBox="0 0 81 80">
  <g clip-path="url(#a)">
    <path fill="#168F9C" fill-rule="evenodd" d="M67.272 18.999 61.245 13l-6.026 5.999 6.026 5.999 6.027-6ZM13.037 60.99l6.026 6 6.027-6-6.027-5.999-6.026 6Zm27.117-8.998 6.026-5.999 6.026-5.998-6.026-6-6.026-5.998-6.026 5.999-6.026 5.998 6.026 6 6.026 5.998Zm18.078-17.996 6.027 5.998-6.027 6-6.026 5.998-6.026 5.999-6.026 5.999-6.026-6-6.026-5.998-6.026-5.999-6.026-5.999 6.026-5.998 6.026-6 6.026-5.998 6.026-5.999 6.026 5.999 6.026 5.999 6.026 5.999ZM55.212 61l6.028 6 6.025-6-6.026-5.999L55.213 61ZM19.049 13.004l6.026 5.999L19.048 25l-6.026-5.998 6.026-6Z" clip-rule="evenodd"/>
    <g filter="url(#b)">
      <path fill="#168F9C" fill-opacity=".5" fill-rule="evenodd" d="M67.272 15.999 61.245 10l-6.026 5.999 6.026 5.999 6.027-6ZM13.037 57.99l6.026 6 6.027-6-6.027-5.999-6.026 6Zm27.117-8.998 6.026-5.999 6.026-5.998-6.026-6-6.026-5.998-6.026 5.999-6.026 5.999 6.026 5.998 6.026 6Zm18.078-17.996 6.027 5.998-6.027 6-6.026 5.998-6.026 5.999-6.026 5.999-6.026-6-6.026-5.998-6.026-5.999-6.026-5.999 6.026-5.998 6.026-6 6.026-5.998 6.026-5.999 6.026 5.999 6.026 5.999 6.026 5.999ZM55.212 58l6.028 6 6.025-6-6.026-5.999L55.213 58ZM19.049 10.004l6.026 5.999L19.048 22l-6.026-5.998 6.026-6Z" clip-rule="evenodd"/>
    </g>
  </g>
  <defs>
    <clipPath id="a">
      <path fill="#fff" d="M.022 0h80v80h-80z"/>
    </clipPath>
    <filter id="b" width="82.25" height="82" x="-.978" y="-4" color-interpolation-filters="sRGB" filterUnits="userSpaceOnUse">
      <feFlood flood-opacity="0" result="BackgroundImageFix"/>
      <feBlend in="SourceGraphic" in2="BackgroundImageFix" result="shape"/>
      <feGaussianBlur result="effect1_foregroundBlur_52_21050" stdDeviation="7"/>
    </filter>
  </defs>
</svg>
