<svg xmlns="http://www.w3.org/2000/svg" width="80" height="80" fill="none" viewBox="0 0 80 80">
  <g filter="url(#a)" opacity=".4">
    <path fill="url(#b)" d="M28 21.001A4.001 4.001 0 0 1 32.001 17H43.35c10.968 0 19.86 8.891 19.86 19.86 0 10.968-8.892 19.859-19.86 19.859H32a4.001 4.001 0 0 1-4-4.001V21Z"/>
    <mask id="c" width="36" height="40" x="28" y="17" maskUnits="userSpaceOnUse" style="mask-type:alpha">
      <path fill="#C4C4C4" d="M28 21.001A4.001 4.001 0 0 1 32.001 17H43.35c10.968 0 19.86 8.891 19.86 19.86 0 10.968-8.892 19.859-19.86 19.859H32a4.001 4.001 0 0 1-4-4.001V21Z"/>
    </mask>
    <g mask="url(#c)">
      <path fill="url(#d)" d="M27.064 51.654c16.456 0 29.797-13.34 29.797-29.798 0-16.457-13.34-29.798-29.797-29.798S-2.734 5.4-2.734 21.856s13.34 29.798 29.797 29.798Z"/>
      <path fill="url(#e)" d="M75.767 66.883c16.457 0 29.797-13.341 29.797-29.798S92.224 7.287 75.767 7.287s-29.798 13.34-29.798 29.798c0 16.457 13.34 29.798 29.798 29.798Z"/>
      <path fill="url(#f)" d="M27.098 26.956c6.073 0 10.996-4.924 10.996-10.997 0-6.073-4.923-10.996-10.996-10.996S16.102 9.886 16.102 15.959s4.923 10.997 10.996 10.997Z"/>
      <path fill="url(#g)" d="M39.257 36.408c-.445 8.27-.712 21.195-.712 21.195h13.997s-.295-13.181-.728-21.195c2.116-1.595 1.613-4.665-.312-5.307.104-.763 0-1.457-.763-2.098 1.786-.92 3.312-4.024 3.815-5.325.255-.66-.485-1.354-1.023-.972-2.463 1.752-3.243 1.752-3.833 2.672-.156-.92-1.474-1.37-2.376-.92-.555-1.752-3-1.752-3.573 0-.902-.555-2.151-.156-2.48.92-.694-1.128-.933-1.024-3.99-2.966-.416-.265-1.183.572-.763 1.266 2.081 3.434 2.567 4.665 3.833 5.325-.45.364-.867 1.04-.78 2.098-1.596.347-2.515 3.66-.313 5.307Z"/>
    </g>
    <path fill="#fff" fill-rule="evenodd" d="M57.664 45.786a.598.598 0 0 1-.763.248l-2.49-1.121a.871.871 0 0 1-.156-1.505.875.875 0 0 1 1.026-.002l2.215 1.596a.599.599 0 0 1 .168.784Zm-24.734 0a.599.599 0 0 1 .167-.784l2.216-1.596a.88.88 0 0 1 1.027.002.876.876 0 0 1 .137 1.291.871.871 0 0 1-.294.214l-2.49 1.12a.598.598 0 0 1-.763-.247Z" clip-rule="evenodd"/>
    <path fill="#B3D2FF" fill-rule="evenodd" d="M60.166 36.942a.723.723 0 0 1-.49.688l-.954.326a1.07 1.07 0 1 1 0-2.027l.954.326a.727.727 0 0 1 .49.687Z" clip-rule="evenodd"/>
    <path fill="#0DFF81" fill-rule="evenodd" d="M33.14 37.812a1.069 1.069 0 0 1-.97.144l-.95-.326a.726.726 0 0 1 0-1.376l.95-.325a1.07 1.07 0 0 1 .97 1.883Z" clip-rule="evenodd"/>
    <path fill="#B3D2FF" fill-rule="evenodd" d="M33.14 37.812a1.069 1.069 0 0 1-.97.144l-.95-.326a.726.726 0 0 1 0-1.376l.95-.325a1.07 1.07 0 0 1 .97 1.883Zm14.084-3.456-.996.915a.616.616 0 0 0-.176.299c-.066.263-.194.78-.299 1.27a.3.3 0 0 1-.3.228.299.299 0 0 1-.298-.227l-.317-1.271a.6.6 0 0 0-.176-.299l-.996-.915a.298.298 0 0 1 .242-.514l1.495.203h.08l.117-.015 1.379-.188a.298.298 0 0 1 .321.352.298.298 0 0 1-.091.162h.015Zm1.48-.335c.01-.644.193-1.273.532-1.82a1.196 1.196 0 0 0 .096-.99l-.07.063a1.746 1.746 0 0 1-2.134.018c0 .616-.562 1.124-1.297 1.214a2.009 2.009 0 0 1-.23 0c-.84 0-1.525-.55-1.525-1.23a1.746 1.746 0 0 1-2.135-.017 1.28 1.28 0 0 1-.224-.236 1.171 1.171 0 0 0-.066 1.234c.289.543.439 1.15.437 1.764a3.57 3.57 0 0 1-.497 1.827 1.196 1.196 0 0 0 .11 1.354c.859 1.032 2.231 1.89 3.544 2.003h.323c1.518 0 2.711-.944 3.563-2.188a1.175 1.175 0 0 0 .051-1.229 3.716 3.716 0 0 1-.448-1.764" clip-rule="evenodd"/>
    <path fill="#003580" fill-rule="evenodd" d="m47.224 34.356-.996.915a.616.616 0 0 0-.176.3c-.066.262-.194.78-.299 1.27a.3.3 0 0 1-.299.227.299.299 0 0 1-.299-.227l-.317-1.27a.597.597 0 0 0-.176-.3l-.996-.915a.298.298 0 0 1 .242-.514l1.495.203h.08l.117-.015 1.379-.188a.299.299 0 0 1 .299.167.299.299 0 0 1-.07.347" clip-rule="evenodd"/>
    <path fill="#fff" fill-rule="evenodd" d="m57.496 29.187-2.215 1.6a.878.878 0 0 1-1.345-.979.87.87 0 0 1 .475-.528l2.49-1.119a.598.598 0 0 1 .598 1.029m-20.916 1.321a.898.898 0 0 1-.574.416.872.872 0 0 1-.696-.143l-2.216-1.6a.597.597 0 0 1 .598-1.029l2.49 1.119a.876.876 0 0 1 .476.528.872.872 0 0 1-.075.706" clip-rule="evenodd"/>
  </g>
  <path fill="url(#h)" d="M24.014 24.229a4.001 4.001 0 0 1 4.001-4.002h11.35c10.967 0 19.858 8.892 19.858 19.86s-8.89 19.86-19.859 19.86H28.015a4.001 4.001 0 0 1-4-4.002V24.23Z"/>
  <path fill="url(#i)" d="M52.872 25.529a19.79 19.79 0 0 0-13.508-5.302H28.015a4.001 4.001 0 0 0-4 4.002v30.638c15.875-.49 28.624-13.399 28.857-29.338Z"/>
  <path fill="url(#j)" d="M47.837 58.053c6.73-3.18 11.386-10.03 11.386-17.966 0-7.839-4.541-14.617-11.136-17.847a29.668 29.668 0 0 0-6.104 18.072 29.665 29.665 0 0 0 5.854 17.741Z"/>
  <path fill="url(#k)" d="M34.06 20.227h-6.045a4.001 4.001 0 0 0-4 4.002v5.917a11 11 0 0 0 10.045-9.919Z"/>
  <path fill="url(#l)" d="M48.48 57.735a19.774 19.774 0 0 1-9.116 2.211h-4.785c.069-3.052.317-13.336.692-20.31-2.203-1.648-1.284-4.96.312-5.308-.087-1.058.33-1.734.78-2.098-.996-.519-1.51-1.393-2.698-3.416-.321-.547-.692-1.178-1.135-1.909-.42-.694.347-1.53.763-1.266a99.08 99.08 0 0 0 1.874 1.16c1.338.812 1.603.972 2.116 1.806.33-1.076 1.578-1.474 2.48-.92.572-1.751 3.018-1.751 3.573 0 .902-.45 2.22 0 2.376.92.334-.52.728-.746 1.454-1.162a25.72 25.72 0 0 0 2.38-1.51c.537-.382 1.278.313 1.023.972-.504 1.3-2.03 4.406-3.816 5.325.763.642.867 1.335.763 2.099 1.925.641 2.428 3.711.312 5.307.302 5.595.538 13.711.652 18.099Z"/>
  <path fill="#fff" fill-rule="evenodd" d="M53.678 49.013a.598.598 0 0 1-.762.248l-2.49-1.12a.87.87 0 0 1-.156-1.505.873.873 0 0 1 1.025-.003l2.215 1.597a.598.598 0 0 1 .168.783Zm-24.734 0a.598.598 0 0 1 .168-.783l2.215-1.597a.876.876 0 1 1 .87 1.507l-2.49 1.121a.598.598 0 0 1-.763-.248Z" clip-rule="evenodd"/>
  <path fill="#B3D2FF" fill-rule="evenodd" d="M56.18 40.17a.723.723 0 0 1-.49.687l-.954.326a1.07 1.07 0 1 1 0-2.027l.954.326a.726.726 0 0 1 .49.688Z" clip-rule="evenodd"/>
  <path fill="#0DFF81" fill-rule="evenodd" d="M29.154 41.04a1.069 1.069 0 0 1-.97.143l-.95-.326a.726.726 0 0 1 0-1.375l.95-.326a1.07 1.07 0 0 1 .97 1.883Z" clip-rule="evenodd"/>
  <path fill="#B3D2FF" fill-rule="evenodd" d="M29.154 41.04a1.069 1.069 0 0 1-.97.143l-.95-.326a.726.726 0 0 1 0-1.375l.95-.326a1.07 1.07 0 0 1 .97 1.883Zm14.084-3.456-.995.914a.616.616 0 0 0-.177.3c-.066.262-.194.78-.299 1.27a.3.3 0 0 1-.299.227.3.3 0 0 1-.299-.227l-.317-1.27a.598.598 0 0 0-.176-.3l-.996-.914a.3.3 0 0 1 .242-.515l1.495.204h.081l.117-.015 1.378-.189a.298.298 0 0 1 .23.515h.015Zm1.48-.335c.01-.644.193-1.273.532-1.821a1.197 1.197 0 0 0 .096-.99l-.069.063a1.745 1.745 0 0 1-2.135.018c0 .616-.562 1.124-1.297 1.214a1.964 1.964 0 0 1-.23 0c-.84 0-1.525-.55-1.525-1.229a1.746 1.746 0 0 1-2.135-.018 1.28 1.28 0 0 1-.224-.236 1.17 1.17 0 0 0-.066 1.235c.29.543.44 1.149.437 1.764a3.57 3.57 0 0 1-.497 1.826 1.196 1.196 0 0 0 .111 1.355c.858 1.031 2.23 1.89 3.543 2.003h.323c1.519 0 2.711-.945 3.563-2.189a1.174 1.174 0 0 0 .051-1.228 3.716 3.716 0 0 1-.448-1.764" clip-rule="evenodd"/>
  <path fill="#003580" fill-rule="evenodd" d="m43.238 37.584-.995.914a.616.616 0 0 0-.177.3c-.066.263-.194.78-.299 1.27a.299.299 0 0 1-.299.227.299.299 0 0 1-.299-.227l-.317-1.27a.598.598 0 0 0-.176-.3l-.996-.914a.298.298 0 0 1 .242-.515l1.495.204h.081l.117-.015 1.378-.189a.298.298 0 0 1 .321.352.3.3 0 0 1-.09.163" clip-rule="evenodd"/>
  <path fill="#fff" fill-rule="evenodd" d="m53.51 32.414-2.215 1.6a.879.879 0 0 1-1.382-.617.87.87 0 0 1 .512-.89l2.49-1.118a.598.598 0 0 1 .598 1.028m-20.916 1.322a.9.9 0 0 1-.574.415.872.872 0 0 1-.696-.143l-2.216-1.6a.598.598 0 0 1 .598-1.028L32.2 32.5a.872.872 0 0 1 .401 1.235" clip-rule="evenodd"/>
  <defs>
    <linearGradient id="b" x1="45.605" x2="45.605" y1="17" y2="56.719" gradientUnits="userSpaceOnUse">
      <stop offset=".825" stop-color="#8CBDFF"/>
      <stop offset="1" stop-color="#569BFF"/>
    </linearGradient>
    <linearGradient id="d" x1="27.064" x2="27.064" y1="-7.942" y2="51.654" gradientUnits="userSpaceOnUse">
      <stop offset=".391" stop-color="#0164F3"/>
      <stop offset="1" stop-color="#0046A7"/>
    </linearGradient>
    <linearGradient id="e" x1="75.767" x2="75.767" y1="7.287" y2="66.883" gradientUnits="userSpaceOnUse">
      <stop offset=".285" stop-color="#003B8F"/>
      <stop offset="1" stop-color="#0163FC"/>
    </linearGradient>
    <linearGradient id="f" x1="27.098" x2="27.098" y1="4.963" y2="26.955" gradientUnits="userSpaceOnUse">
      <stop offset=".493" stop-color="#8EB3F2"/>
      <stop offset="1" stop-color="#418EFF"/>
    </linearGradient>
    <linearGradient id="g" x1="45.5" x2="45.5" y1="22.361" y2="57.603" gradientUnits="userSpaceOnUse">
      <stop offset=".683" stop-color="#fff"/>
      <stop offset="1" stop-color="#B7D4FE"/>
    </linearGradient>
    <linearGradient id="h" x1="41.619" x2="41.619" y1="20.227" y2="59.946" gradientUnits="userSpaceOnUse">
      <stop offset=".825" stop-color="#8CBDFF"/>
      <stop offset="1" stop-color="#569BFF"/>
    </linearGradient>
    <linearGradient id="i" x1="23.078" x2="23.078" y1="-4.714" y2="54.882" gradientUnits="userSpaceOnUse">
      <stop offset=".391" stop-color="#0164F3"/>
      <stop offset="1" stop-color="#0046A7"/>
    </linearGradient>
    <linearGradient id="j" x1="71.781" x2="71.781" y1="10.514" y2="70.11" gradientUnits="userSpaceOnUse">
      <stop offset=".285" stop-color="#003B8F"/>
      <stop offset="1" stop-color="#0163FC"/>
    </linearGradient>
    <linearGradient id="k" x1="23.112" x2="23.112" y1="8.19" y2="30.183" gradientUnits="userSpaceOnUse">
      <stop offset=".493" stop-color="#8EB3F2"/>
      <stop offset="1" stop-color="#418EFF"/>
    </linearGradient>
    <linearGradient id="l" x1="41.514" x2="41.514" y1="25.589" y2="60.831" gradientUnits="userSpaceOnUse">
      <stop offset=".683" stop-color="#fff"/>
      <stop offset="1" stop-color="#B7D4FE"/>
    </linearGradient>
    <filter id="a" width="55.209" height="59.719" x="18" y="7" color-interpolation-filters="sRGB" filterUnits="userSpaceOnUse">
      <feFlood flood-opacity="0" result="BackgroundImageFix"/>
      <feBlend in="SourceGraphic" in2="BackgroundImageFix" result="shape"/>
      <feGaussianBlur result="effect1_foregroundBlur_52_21236" stdDeviation="5"/>
    </filter>
  </defs>
</svg>
