<svg xmlns="http://www.w3.org/2000/svg" width="80" height="80" fill="none" viewBox="0 0 80 80">
  <path fill="#31CB9E" fill-rule="evenodd" d="m42.054 17.266 11.555 8.83a.907.907 0 0 1-.094 1.523l-17.139 9.845L40.599 17.8a.924.924 0 0 1 1.456-.534Zm12.57 33.088-17.406-9.978 17.406-9.979c.615-.347 1.376.093 1.376.788v18.381c0 .695-.775 1.136-1.376.788ZM42.054 63.5l11.582-8.843a.92.92 0 0 0-.094-1.523L36.376 43.3l4.235 19.664c.12.654.895.935 1.443.534Zm-4.742-44.31-4.556 21.187 4.556 21.213c.173.815-.789 1.416-1.457.908l-11.661-8.896a2.417 2.417 0 0 1-.949-1.924V29.115c0-.748.348-1.47.948-1.924l11.662-8.91c.682-.534 1.63.08 1.457.909Z" clip-rule="evenodd"/>
  <g filter="url(#a)" opacity=".4">
    <path fill="#31CB9E" fill-rule="evenodd" d="m47.66 14.174 10.85 8.29a.852.852 0 0 1-.088 1.43L42.33 33.14l3.963-18.463a.868.868 0 0 1 1.367-.502Zm11.803 31.068L43.12 35.873l16.343-9.37c.577-.326 1.292.088 1.292.74v17.26c0 .652-.728 1.066-1.292.74ZM47.66 57.584l10.875-8.303a.863.863 0 0 0-.088-1.43L42.33 38.62l3.976 18.463c.113.614.84.878 1.354.501ZM43.208 15.98 38.93 35.873l4.278 19.918c.163.765-.74 1.33-1.368.853L30.89 48.29a2.27 2.27 0 0 1-.89-1.806V25.3c0-.703.326-1.38.89-1.806l10.95-8.367c.64-.501 1.53.076 1.367.853Z" clip-rule="evenodd"/>
  </g>
  <defs>
    <filter id="a" width="54.755" height="67.758" x="18" y="2" color-interpolation-filters="sRGB" filterUnits="userSpaceOnUse">
      <feFlood flood-opacity="0" result="BackgroundImageFix"/>
      <feBlend in="SourceGraphic" in2="BackgroundImageFix" result="shape"/>
      <feGaussianBlur result="effect1_foregroundBlur_52_21954" stdDeviation="6"/>
    </filter>
  </defs>
</svg>
