<svg width="81" height="80" viewBox="0 0 81 80" fill="none" xmlns="http://www.w3.org/2000/svg">
<g opacity="0.4" filter="url(#filter0_f_1055_26786)">
<path d="M53.1123 24.002H32.9248C28.006 24.002 24.0186 27.9894 24.0186 32.9082V53.0957C24.0186 58.0145 28.006 62.002 32.9248 62.002H53.1123C58.0311 62.002 62.0186 58.0145 62.0186 53.0957V32.9082C62.0186 27.9894 58.0311 24.002 53.1123 24.002Z" fill="#00F0FF"/>
</g>
<path d="M50.1123 21.002H29.9248C25.006 21.002 21.0186 24.9894 21.0186 29.9082V50.0957C21.0186 55.0145 25.006 59.002 29.9248 59.002H50.1123C55.0311 59.002 59.0186 55.0145 59.0186 50.0957V29.9082C59.0186 24.9894 55.0311 21.002 50.1123 21.002Z" fill="#001F29"/>
<path d="M36.8093 26.5853C35.2752 26.5845 33.7438 26.5837 32.2043 26.586C31.2735 26.586 30.9243 27.7547 31.6167 28.4469L42.0961 38.9263C42.4231 39.2254 42.627 39.5505 42.6345 39.9791C42.627 40.4077 42.4231 40.7328 42.0961 41.0319L31.6167 51.5113C30.9243 52.2035 31.2735 53.3721 32.2043 53.3721C33.7438 53.3745 35.2752 53.3737 36.8093 53.3729C37.5774 53.3725 38.3461 53.3721 39.1168 53.3721C40.1251 53.3721 40.7249 52.8335 41.2635 52.2948L50.7146 42.8438C51.4688 42.0895 52.1437 41.088 52.1346 39.9791C52.1437 38.8702 51.4688 37.8687 50.7146 37.1144L41.2635 27.6634C40.7249 27.1247 40.1251 26.586 39.1168 26.586C38.3461 26.586 37.5774 26.5857 36.8093 26.5853Z" fill="#00F0FF"/>
<defs>
<filter id="filter0_f_1055_26786" x="16.0186" y="16.002" width="54" height="54" filterUnits="userSpaceOnUse" color-interpolation-filters="sRGB">
<feFlood flood-opacity="0" result="BackgroundImageFix"/>
<feBlend mode="normal" in="SourceGraphic" in2="BackgroundImageFix" result="shape"/>
<feGaussianBlur stdDeviation="4" result="effect1_foregroundBlur_1055_26786"/>
</filter>
</defs>
</svg>
