<svg xmlns="http://www.w3.org/2000/svg" width="80" height="80" fill="none" viewBox="0 0 80 80">
  <g clip-path="url(#a)">
    <path fill="#254EE6" fill-rule="evenodd" d="M61.004 40.001c0 11.599-9.402 21-21 21s-21-9.401-21-21S28.406 19 40.004 19s21 9.402 21 21.001Zm-25.2-5.6h8.4a1.4 1.4 0 0 1 1.4 1.4v8.4a1.4 1.4 0 0 1-1.4 1.4h-8.4a1.4 1.4 0 0 1-1.4-1.4v-8.4a1.4 1.4 0 0 1 1.4-1.4Z" clip-rule="evenodd"/>
    <g filter="url(#b)">
      <path fill="#254EE6" fill-opacity=".4" fill-rule="evenodd" d="M66.004 46c0 10.495-8.507 19.002-19 19.002s-19-8.507-19-19.001c0-10.494 8.506-19.001 19-19.001 10.493 0 19 8.507 19 19Zm-22.8-5.066h7.6c.7 0 1.267.567 1.267 1.267v7.6c0 .7-.567 1.267-1.267 1.267h-7.6c-.7 0-1.267-.567-1.267-1.267v-7.6c0-.7.567-1.267 1.267-1.267Z" clip-rule="evenodd"/>
    </g>
  </g>
  <defs>
    <clipPath id="a">
      <rect width="80.004" height="80" x=".004" fill="#fff" rx="40"/>
    </clipPath>
    <filter id="b" width="66" height="66.002" x="14.004" y="13" color-interpolation-filters="sRGB" filterUnits="userSpaceOnUse">
      <feFlood flood-opacity="0" result="BackgroundImageFix"/>
      <feBlend in="SourceGraphic" in2="BackgroundImageFix" result="shape"/>
      <feGaussianBlur result="effect1_foregroundBlur_52_21041" stdDeviation="7"/>
    </filter>
  </defs>
</svg>
