<svg xmlns="http://www.w3.org/2000/svg" width="80" height="80" fill="none" viewBox="0 0 80 80">
  <path fill="#D3B54D" d="M29.503 23c-2.078.002-4.11.607-5.837 1.74a10.352 10.352 0 0 0-3.867 4.626 10.12 10.12 0 0 0-.597 5.953 10.245 10.245 0 0 0 2.877 5.275 10.577 10.577 0 0 0 5.38 2.82c2.038.398 4.15.194 6.071-.585a10.469 10.469 0 0 0 4.718-3.792 10.163 10.163 0 0 0 1.776-5.722 10.22 10.22 0 0 0-3.084-7.292A10.633 10.633 0 0 0 29.503 23Zm0 16.39a6.291 6.291 0 0 1-3.446-1.025 6.11 6.11 0 0 1-2.285-2.73 5.97 5.97 0 0 1-.352-3.513c.24-1.18.83-2.263 1.697-3.114a6.243 6.243 0 0 1 3.177-1.664 6.318 6.318 0 0 1 3.584.347 6.179 6.179 0 0 1 2.783 2.24 5.995 5.995 0 0 1 1.045 3.379 6.042 6.042 0 0 1-1.823 4.294 6.286 6.286 0 0 1-4.38 1.786Zm30.989-7.573a8.543 8.543 0 0 1-1.105 4.217 12.144 12.144 0 0 0-3.774-2.04 4.57 4.57 0 0 0 .56-2.177 4.543 4.543 0 0 0-1.37-3.244 4.728 4.728 0 0 0-3.309-1.344 4.728 4.728 0 0 0-3.31 1.344 4.543 4.543 0 0 0-1.37 3.244c-.006.761.187 1.51.561 2.178a12.161 12.161 0 0 0-3.775 2.04 8.67 8.67 0 0 1-1.1-4.384 8.678 8.678 0 0 1 1.257-4.342 8.9 8.9 0 0 1 3.288-3.16A9.121 9.121 0 0 1 51.496 23a9.097 9.097 0 0 1 6.357 2.585 8.743 8.743 0 0 1 2.638 6.232Zm-8.995 3.568a10.662 10.662 0 0 0-5.841 1.732 10.352 10.352 0 0 0-3.876 4.622 10.12 10.12 0 0 0-.603 5.954c.404 2 1.403 3.836 2.872 5.279a10.578 10.578 0 0 0 5.379 2.825c2.038.4 4.152.198 6.074-.58a10.471 10.471 0 0 0 4.72-3.792A10.163 10.163 0 0 0 62 45.701a10.226 10.226 0 0 0-3.078-7.285 10.64 10.64 0 0 0-7.425-3.031Zm0 16.379a6.282 6.282 0 0 1-3.44-1.028 6.1 6.1 0 0 1-2.278-2.728 5.962 5.962 0 0 1-.348-3.51 6.038 6.038 0 0 1 1.7-3.107 6.234 6.234 0 0 1 3.175-1.658 6.309 6.309 0 0 1 3.578.351 6.168 6.168 0 0 1 2.776 2.242c.68 1 1.04 2.174 1.039 3.375a6.022 6.022 0 0 1-1.823 4.288 6.265 6.265 0 0 1-4.38 1.775Zm-13-4.586c0 2.34-.947 4.584-2.635 6.238A9.09 9.09 0 0 1 29.5 56a9.09 9.09 0 0 1-6.362-2.584 8.735 8.735 0 0 1-2.635-6.237h4.317c0 1.216.493 2.383 1.371 3.244a4.728 4.728 0 0 0 3.31 1.344 4.728 4.728 0 0 0 3.308-1.344 4.544 4.544 0 0 0 1.371-3.245h4.318Z"/>
  <g filter="url(#a)">
    <path fill="#D3B54D" fill-opacity=".7" d="M32.503 22c-2.078.002-4.11.607-5.837 1.74a10.352 10.352 0 0 0-3.867 4.626 10.12 10.12 0 0 0-.597 5.953 10.245 10.245 0 0 0 2.877 5.275 10.577 10.577 0 0 0 5.38 2.82c2.038.398 4.15.194 6.071-.585a10.469 10.469 0 0 0 4.718-3.792 10.163 10.163 0 0 0 1.776-5.722 10.22 10.22 0 0 0-3.084-7.292A10.633 10.633 0 0 0 32.503 22Zm0 16.39a6.291 6.291 0 0 1-3.446-1.025 6.11 6.11 0 0 1-2.285-2.73 5.97 5.97 0 0 1-.352-3.513c.24-1.18.83-2.263 1.697-3.114a6.243 6.243 0 0 1 3.177-1.664 6.318 6.318 0 0 1 3.583.347 6.179 6.179 0 0 1 2.784 2.24 5.995 5.995 0 0 1 1.045 3.379 6.042 6.042 0 0 1-1.823 4.294 6.286 6.286 0 0 1-4.38 1.786Zm30.989-7.573a8.543 8.543 0 0 1-1.105 4.217 12.144 12.144 0 0 0-3.774-2.04 4.57 4.57 0 0 0 .56-2.177 4.543 4.543 0 0 0-1.37-3.244 4.728 4.728 0 0 0-3.309-1.344 4.728 4.728 0 0 0-3.31 1.344 4.543 4.543 0 0 0-1.37 3.244c-.006.761.187 1.51.561 2.178a12.161 12.161 0 0 0-3.775 2.04 8.67 8.67 0 0 1-1.1-4.384 8.678 8.678 0 0 1 1.257-4.342 8.9 8.9 0 0 1 3.288-3.16A9.121 9.121 0 0 1 54.496 22a9.097 9.097 0 0 1 6.357 2.585 8.743 8.743 0 0 1 2.638 6.232Zm-8.995 3.568a10.662 10.662 0 0 0-5.841 1.732 10.352 10.352 0 0 0-3.876 4.622 10.12 10.12 0 0 0-.603 5.954c.404 2 1.403 3.836 2.872 5.279a10.578 10.578 0 0 0 5.379 2.825c2.038.4 4.152.198 6.074-.58a10.471 10.471 0 0 0 4.72-3.792A10.163 10.163 0 0 0 65 44.701a10.226 10.226 0 0 0-3.078-7.285 10.64 10.64 0 0 0-7.425-3.031Zm0 16.379a6.282 6.282 0 0 1-3.44-1.028 6.1 6.1 0 0 1-2.278-2.728 5.962 5.962 0 0 1-.348-3.51 6.038 6.038 0 0 1 1.7-3.107 6.234 6.234 0 0 1 3.175-1.658 6.309 6.309 0 0 1 3.578.351 6.168 6.168 0 0 1 2.776 2.242c.68 1 1.04 2.174 1.039 3.375a6.022 6.022 0 0 1-1.823 4.288 6.265 6.265 0 0 1-4.38 1.775Zm-13-4.586c0 2.34-.947 4.584-2.635 6.238A9.09 9.09 0 0 1 32.5 55a9.09 9.09 0 0 1-6.362-2.584 8.735 8.735 0 0 1-2.635-6.237h4.317c0 1.216.493 2.383 1.371 3.244a4.728 4.728 0 0 0 3.31 1.344 4.728 4.728 0 0 0 3.308-1.344 4.544 4.544 0 0 0 1.371-3.245h4.318Z"/>
  </g>
  <defs>
    <filter id="a" width="67" height="57" x="10" y="10" color-interpolation-filters="sRGB" filterUnits="userSpaceOnUse">
      <feFlood flood-opacity="0" result="BackgroundImageFix"/>
      <feBlend in="SourceGraphic" in2="BackgroundImageFix" result="shape"/>
      <feGaussianBlur result="effect1_foregroundBlur_52_21035" stdDeviation="6"/>
    </filter>
  </defs>
</svg>
