<svg xmlns="http://www.w3.org/2000/svg" width="80" height="80" fill="none" viewBox="0 0 80 80">
  <g clip-path="url(#a)">
    <g clip-path="url(#b)">
      <path fill="#AB9FF2" d="M21.562 62c5.998 0 10.504-5.064 13.195-9.066-.327.886-.508 1.771-.508 2.621 0 2.338 1.38 4.002 4.107 4.002 3.745 0 7.743-3.187 9.815-6.623a4.941 4.941 0 0 0-.218 1.381c0 1.629.945 2.657 2.87 2.657C56.893 56.972 63 46.525 63 37.388 63 30.268 59.292 24 49.986 24 33.63 24 16 43.407 16 55.944 16 60.867 18.726 62 21.562 62Zm22.791-25.392c0-1.771 1.017-3.01 2.507-3.01 1.49 0 2.473 1.24 2.473 3.01 0 1.77-1.017 3.045-2.473 3.045-1.455 0-2.507-1.276-2.507-3.045Zm7.779 0c0-1.771 1.017-3.01 2.507-3.01 1.49 0 2.473 1.24 2.473 3.01 0 1.77-1.017 3.045-2.473 3.045-1.455 0-2.507-1.276-2.507-3.045Z"/>
    </g>
    <g filter="url(#c)" opacity=".6">
      <path fill="#AB9FF2" d="M27.562 53c5.998 0 10.504-5.064 13.195-9.066-.327.886-.508 1.771-.508 2.621 0 2.338 1.38 4.002 4.107 4.002 3.745 0 7.743-3.187 9.815-6.623a4.941 4.941 0 0 0-.218 1.381c0 1.629.945 2.657 2.87 2.657C62.893 47.972 69 37.525 69 28.388 69 21.268 65.292 15 55.986 15 39.63 15 22 34.407 22 46.944 22 51.867 24.726 53 27.562 53Zm22.791-25.392c0-1.771 1.017-3.01 2.507-3.01 1.49 0 2.473 1.24 2.473 3.01 0 1.77-1.017 3.045-2.473 3.045-1.455 0-2.507-1.276-2.507-3.045Zm7.779 0c0-1.771 1.017-3.01 2.507-3.01 1.49 0 2.473 1.24 2.473 3.01 0 1.77-1.017 3.045-2.473 3.045-1.455 0-2.507-1.276-2.507-3.045Z"/>
    </g>
  </g>
  <defs>
    <clipPath id="a">
      <path fill="#fff" d="M0 0h80v80H0z"/>
    </clipPath>
    <clipPath id="b">
      <path fill="#fff" d="M16 24h47v38H16z"/>
    </clipPath>
    <filter id="c" width="75" height="66" x="8" y="1" color-interpolation-filters="sRGB" filterUnits="userSpaceOnUse">
      <feFlood flood-opacity="0" result="BackgroundImageFix"/>
      <feBlend in="SourceGraphic" in2="BackgroundImageFix" result="shape"/>
      <feGaussianBlur result="effect1_foregroundBlur_52_24276" stdDeviation="7"/>
    </filter>
  </defs>
</svg>
