<svg preserveAspectRatio="none" overflow="visible" style="display: block;" width="24.0596" height="24" viewBox="0 0 24.0596 24" fill="none" xmlns="http://www.w3.org/2000/svg">
<g id="token/wETH">
<circle id="Ellipse 14796" cx="12" cy="12" r="12" fill="#EC1C79"/>
<g id="Group 1171277962">
<path id="Vector" d="M8.47178 20C12.5774 20 12.5774 19.9389 13.2736 19.7322C14.1833 19.4622 10.705 17.0545 8.47178 17.0545C6.23856 17.0545 4.42818 17.7139 4.42818 18.5272C4.42818 19.3406 6.23865 20 8.47178 20Z" fill="black"/>
<path id="Vector_2" d="M17.7947 7.47553L17.9835 7.67903L17.8184 7.90224C12.4639 15.1419 9.37939 18.4199 8.07065 17.9802C7.2735 17.7125 6.47406 16.9071 5.67461 15.7377C5.39361 15.3266 5.12974 14.8938 4.88974 14.463C4.72993 14.1762 4.59466 13.9146 4.52443 13.7673C4.43484 13.5793 4.39701 13.4635 4.36701 13.3115C4.36517 13.3021 4.36517 13.3021 4.36343 13.2932C4.35091 13.2286 4.34658 13.2082 4.33721 13.1729C4.17609 12.5657 4.09369 11.9366 4.09369 11.2968C4.09369 7.2669 7.36059 4 11.3905 4C12.6531 4 13.8697 4.32132 14.9479 4.92448L14.9758 4.9419C15.8586 5.55652 16.7976 6.40105 17.7947 7.47553ZM14.6068 5.50075C13.6314 4.95823 12.5323 4.66943 11.3905 4.66943C7.73031 4.66943 4.76312 7.63662 4.76312 11.2968C4.76312 11.8785 4.83797 12.4499 4.98426 13.0013C4.99873 13.0558 5.00527 13.0866 5.02061 13.1657C5.02223 13.174 5.02223 13.174 5.02377 13.1818C5.04314 13.28 5.06358 13.3425 5.12873 13.4792C5.1928 13.6136 5.32155 13.8627 5.47454 14.1372C5.7052 14.5512 5.95868 14.967 6.22725 15.3599C6.94954 16.4164 7.66587 17.1381 8.28383 17.3457C9.10801 17.6225 12.2107 14.3381 17.1141 7.7284C16.2239 6.78875 15.3876 6.04619 14.6068 5.50075Z" fill="black"/>
<path id="Vector_3" d="M14.6064 5.50076C13.631 4.95825 12.5319 4.66945 11.3901 4.66945C7.72992 4.66945 4.76273 7.63664 4.76273 11.2969C4.76273 11.8785 4.83758 12.4499 4.98387 13.0013C4.99834 13.0558 5.00488 13.0866 5.02023 13.1657C5.02184 13.174 5.02184 13.174 5.02339 13.1819C5.04275 13.28 5.06319 13.3426 5.12834 13.4792C5.19241 13.6137 5.32117 13.8627 5.47415 14.1372C5.70481 14.5512 5.95829 14.967 6.22686 15.3599C6.94916 16.4165 7.66548 17.1381 8.28344 17.3457C9.10762 17.6225 12.2103 14.3381 17.1137 7.72841C16.2235 6.78877 15.3873 6.04621 14.6064 5.50076Z" fill="#EC1C79"/>
<path id="Vector_4" d="M12.7287 19.9324C8.69875 19.9324 5.43184 16.6655 5.43184 12.6355C5.43184 8.60561 8.69875 5.3387 12.7287 5.3387C16.7586 5.3387 20.0255 8.60561 20.0255 12.6355C20.0255 16.6655 16.7586 19.9324 12.7287 19.9324ZM12.7287 19.2629C16.3889 19.2629 19.3561 16.2958 19.3561 12.6355C19.3561 8.97533 16.3889 6.00814 12.7287 6.00814C9.06847 6.00814 6.10128 8.97533 6.10128 12.6355C6.10128 16.2958 9.06847 19.2629 12.7287 19.2629Z" fill="black"/>
<path id="Vector_5" d="M4.40526 12.3377C4.21727 12.251 4.13521 12.0282 4.22196 11.8403C4.30872 11.6523 4.53145 11.5702 4.71944 11.657L5.79053 12.1513C5.97852 12.238 6.06058 12.4608 5.97382 12.6488C5.88707 12.8367 5.66434 12.9188 5.47635 12.832L4.40526 12.3377Z" fill="black"/>
<path id="Vector_6" d="M12.7293 19.2628C16.3895 19.2628 19.3567 16.2956 19.3567 12.6354C19.3567 8.97514 16.3895 6.00795 12.7293 6.00795C9.06906 6.00795 6.10187 8.97514 6.10187 12.6354C6.10187 16.2956 9.06906 19.2628 12.7293 19.2628Z" fill="white"/>
<path id="Vector_7" fill-rule="evenodd" clip-rule="evenodd" d="M7.77137 13.9942L6.89414 11.3512H7.66265L8.12001 12.8695L8.6261 11.3437H9.25216L9.75825 12.8695L10.2156 11.3512H10.9691L10.0919 13.9942H9.45834L8.92976 12.4834L8.40492 13.9942H7.77137ZM11.2578 13.9754V11.3512L13.3684 11.3512V11.9698L11.9776 11.9698V12.3672H13.2372V12.9407H11.9776V13.3569H13.3871V13.9754H11.2578ZM14.3993 13.9754V11.9885H13.6121V11.3512H15.9138V11.9885H15.1266V13.9754H14.3993ZM16.2325 13.9754V11.3512H16.9598V12.3334H17.8932V11.3512H18.6205V13.9754H17.8932V12.9782H16.9598V13.9754H16.2325Z" fill="black"/>
<path id="Vector_8" d="M4.52887 10.5605C4.34369 10.468 4.26863 10.2428 4.36122 10.0576C4.45381 9.8724 4.679 9.79734 4.86418 9.88993L5.93528 10.4255C6.12046 10.5181 6.19552 10.7433 6.10293 10.9284C6.01034 11.1136 5.78516 11.1887 5.59997 11.0961L4.52887 10.5605Z" fill="black"/>
</g>
</g>
</svg>
