<svg xmlns="http://www.w3.org/2000/svg" width="200" height="84" fill="none" viewBox="0 0 200 84">
  <path fill="#000" d="M107.689 46.523a6.12 6.12 0 0 1-1.075.618c-.398.18-.816.315-1.246.406-.479.101-.97.148-1.46.143a6.321 6.321 0 0 1-2.385-.45 5.811 5.811 0 0 1-1.893-1.233 5.505 5.505 0 0 1-1.239-1.85 5.959 5.959 0 0 1-.427-2.278v-.034c-.006-1.525.605-2.997 1.707-4.116a5.77 5.77 0 0 1 1.893-1.256 6.155 6.155 0 0 1 2.386-.462c.491-.003.979.04 1.461.133.416.082.82.209 1.203.38.368.159.72.35 1.051.572.335.223.652.469.948.737l-.631.609a8.762 8.762 0 0 0-.818-.66 5.229 5.229 0 0 0-.926-.522 5.766 5.766 0 0 0-1.062-.349 5.475 5.475 0 0 0-1.239-.133 5.276 5.276 0 0 0-2.01.386 4.586 4.586 0 0 0-1.601 1.08 5.01 5.01 0 0 0-1.066 1.593 5.112 5.112 0 0 0-.385 1.982v.033a4.92 4.92 0 0 0 .401 1.995 5.03 5.03 0 0 0 1.076 1.618c.45.457.994.825 1.599 1.08a5.081 5.081 0 0 0 2.01.395 5.37 5.37 0 0 0 2.268-.451 7.079 7.079 0 0 0 1.869-1.31l.602.553c-.344.286-.672.556-1.011.791Zm13.598-1.672a4.323 4.323 0 0 1-1.016 1.57 4.28 4.28 0 0 1-1.555.957 5.703 5.703 0 0 1-2.005.305 5.884 5.884 0 0 1-1.975-.319 4.355 4.355 0 0 1-1.566-.935 4.085 4.085 0 0 1-1.016-1.53 5.53 5.53 0 0 1-.37-2.103V36.2h.888v6.526c0 1.343.371 2.378 1.076 3.104.705.725 1.705 1.09 2.991 1.09a5.166 5.166 0 0 0 1.648-.254 3.463 3.463 0 0 0 1.262-.77 3.35 3.35 0 0 0 .805-1.287 5.248 5.248 0 0 0 .282-1.794V36.21h.888v6.505a5.808 5.808 0 0 1-.337 2.136Zm12.334.979a3.078 3.078 0 0 1-.818.981 3.9 3.9 0 0 1-1.252.628 5.276 5.276 0 0 1-1.601.232 7.15 7.15 0 0 1-2.591-.452 7.768 7.768 0 0 1-2.233-1.355l.583-.622c.306.272.635.523.981.748.315.207.652.384 1.006.523.346.133.707.234 1.075.298.409.074.824.11 1.238.11.419.004.837-.052 1.239-.164.352-.092.677-.253.961-.469a2.31 2.31 0 0 0 .618-.715c.15-.275.226-.58.222-.89v-.034a2.19 2.19 0 0 0-.139-.804 1.536 1.536 0 0 0-.527-.65 4.233 4.233 0 0 0-1.039-.523 12.023 12.023 0 0 0-1.683-.429 12.734 12.734 0 0 1-1.851-.495 4.629 4.629 0 0 1-1.262-.661 2.353 2.353 0 0 1-.713-.88 2.747 2.747 0 0 1-.222-1.144v-.046a2.33 2.33 0 0 1 .302-1.166c.2-.363.474-.685.807-.947a3.767 3.767 0 0 1 1.214-.628 4.879 4.879 0 0 1 1.537-.232 6.582 6.582 0 0 1 2.254.35c.67.252 1.294.6 1.851 1.033l-.555.66a5.777 5.777 0 0 0-1.718-.99 5.641 5.641 0 0 0-1.851-.285 3.95 3.95 0 0 0-1.203.165 2.846 2.846 0 0 0-.926.462 2.12 2.12 0 0 0-.596.682 1.69 1.69 0 0 0-.211.826v.034a2.29 2.29 0 0 0 .141.814c.107.261.291.488.526.659.327.232.69.413 1.075.54.572.192 1.157.342 1.753.452 1.39.263 2.395.649 3.016 1.134.62.488.96 1.22.925 1.98v.033a3.12 3.12 0 0 1-.333 1.237Zm8.05-8.872v10.55h-.887v-10.55h-4.185V36.2h9.256v.758h-4.184Zm17.904 7.111a5.728 5.728 0 0 1-1.228 1.86 5.816 5.816 0 0 1-1.915 1.288 6.266 6.266 0 0 1-2.479.466c-2.48.037-4.718-1.402-5.585-3.592a5.914 5.914 0 0 1-.425-2.212v-.034a5.77 5.77 0 0 1 .433-2.223 5.687 5.687 0 0 1 1.225-1.86 5.87 5.87 0 0 1 1.905-1.289 6.25 6.25 0 0 1 2.482-.472 6.155 6.155 0 0 1 2.469.472 5.79 5.79 0 0 1 1.901 1.271 5.487 5.487 0 0 1 1.217 1.849c.283.708.429 1.456.431 2.212.013.013.013.023 0 .033a5.508 5.508 0 0 1-.431 2.23Zm-.491-2.211a5.148 5.148 0 0 0-.387-1.983 5.016 5.016 0 0 0-1.062-1.618 4.928 4.928 0 0 0-1.626-1.09 5.241 5.241 0 0 0-2.056-.406 5.127 5.127 0 0 0-2.045.396c-1.239.516-2.201 1.482-2.67 2.68a5.021 5.021 0 0 0-.37 1.97v.033a5.13 5.13 0 0 0 .385 1.983 5.076 5.076 0 0 0 1.064 1.618 4.93 4.93 0 0 0 1.624 1.09c.648.272 1.347.41 2.056.406a5.143 5.143 0 0 0 2.037-.396c1.238-.52 2.199-1.49 2.665-2.687.256-.63.381-1.297.37-1.97l.015-.026Zm14.735 2.222a5.251 5.251 0 0 1-1.309 1.795 6.379 6.379 0 0 1-2.021 1.2 7.515 7.515 0 0 1-2.583.434h-3.996V36.21h3.996a7.51 7.51 0 0 1 2.583.429 6.135 6.135 0 0 1 2.021 1.19 5.27 5.27 0 0 1 1.309 1.783c.312.704.472 1.46.468 2.223v.033a5.628 5.628 0 0 1-.468 2.213Zm-.467-2.222a4.711 4.711 0 0 0-1.473-3.446 5.223 5.223 0 0 0-1.724-1.058 6.168 6.168 0 0 0-2.265-.384h-3.103v9.785h3.11a6.448 6.448 0 0 0 2.258-.385 4.99 4.99 0 0 0 1.718-1.036c.47-.437.84-.962 1.087-1.54a4.713 4.713 0 0 0 .387-1.905l.005-.031Zm8.508 1.154v4.497h-.889v-4.474l-5.142-6.835h1.11l4.487 6.078 4.511-6.078H187l-5.14 6.812ZM41.07 47.79l-1.122-2.599h-5.202l-1.121 2.598h-2.757l5.27-11.668h2.501l5.274 11.668H41.07Zm-3.728-8.609-1.637 3.754h3.273l-1.636-3.754Zm32.31 8.279a7.738 7.738 0 0 1-2.992.539 7.428 7.428 0 0 1-2.628-.452 5.973 5.973 0 0 1-2.036-1.243 5.653 5.653 0 0 1-1.331-1.883 5.871 5.871 0 0 1-.48-2.387V42c-.014-1.582.643-3.104 1.824-4.229a6.13 6.13 0 0 1 2.036-1.286 6.813 6.813 0 0 1 2.58-.475 9.103 9.103 0 0 1 1.509.11c.427.07.85.174 1.26.309.38.13.745.296 1.089.495.344.206.672.434.981.683l-1.707 1.938a6.461 6.461 0 0 0-.701-.496 4.793 4.793 0 0 0-.724-.364 4.733 4.733 0 0 0-.818-.23 5.329 5.329 0 0 0-.97-.09c-.476 0-.948.099-1.38.287-.423.19-.804.455-1.12.783a3.56 3.56 0 0 0-1.028 2.538v.034a3.98 3.98 0 0 0 .268 1.464c.176.43.437.827.77 1.167.331.334.733.6 1.181.777.476.19.99.283 1.507.274 1.005 0 1.851-.23 2.549-.697v-1.669h-2.723V41.12h5.34v5.03a8.96 8.96 0 0 1-2.256 1.31Zm6.568.33V36.2h2.711v11.59H76.22Zm15.928-1.894a3.05 3.05 0 0 1-.926 1.123 4.04 4.04 0 0 1-1.414.697c-.59.17-1.205.251-1.823.242-.939 0-1.87-.153-2.755-.45a7.697 7.697 0 0 1-2.467-1.394l1.601-1.805c.53.408 1.11.752 1.73 1.024a4.913 4.913 0 0 0 1.94.385c.458.017.911-.087 1.31-.302a.905.905 0 0 0 .475-.796v-.034c0-.15-.031-.3-.092-.439a.935.935 0 0 0-.37-.349 3.948 3.948 0 0 0-.761-.331c-.326-.11-.74-.23-1.261-.349-.58-.132-1.15-.296-1.709-.491a5.048 5.048 0 0 1-1.284-.65 2.661 2.661 0 0 1-.817-.968 3.138 3.138 0 0 1-.292-1.443v-.033c-.007-.493.1-.981.317-1.43a3.29 3.29 0 0 1 .875-1.101 4.008 4.008 0 0 1 1.355-.715 5.749 5.749 0 0 1 1.74-.253 7.88 7.88 0 0 1 2.484.385 7.257 7.257 0 0 1 2.079 1.09l-1.401 1.918a9.34 9.34 0 0 0-1.603-.839 4.248 4.248 0 0 0-1.58-.308 2.09 2.09 0 0 0-1.197.286.858.858 0 0 0-.396.715v.033a.911.911 0 0 0 .117.484c.096.16.238.29.409.375.259.136.533.244.818.32.35.099.783.22 1.309.348.566.141 1.121.317 1.666.523.446.176.862.412 1.238.698.324.26.583.582.759.946.183.415.272.862.257 1.31v.033a3.547 3.547 0 0 1-.331 1.545Zm-35.42-7.419V36.21H47.38v2.267h9.348Zm-9.348 2.345v2.268h9.348v-2.268H47.38Zm0 4.701v2.266h9.348v-2.266H47.38Zm-32.172-3.27v-6.12h8.075v2.499h-5.285v1.067h5.274v2.554h-8.064Zm.783-.697h6.544v-1.163h-5.278v-2.465h5.29v-1.113h-6.556v4.741ZM13 47.789v-2.547h4.593v-1.173h-4.569v-7.936h.678v7.22h4.638v4.436H13Zm4.604-1.837H13.74v1.112h3.864v-1.112Zm2.232-2.576h4.617v-7.255h.723v7.947h-4.568v1.174h4.568v2.547H19.85c-.013-1.462-.013-2.896-.013-4.413Zm4.593 3.699v-1.113h-3.856v1.112h3.855Z"/>
</svg>
