<svg xmlns="http://www.w3.org/2000/svg" width="200" height="84" fill="none" viewBox="0 0 200 84">
  <path fill="#000" d="m41.198 39.925 5.205-5.048 5.207 5.052 3.027-2.939L46.403 29l-8.234 7.988 3.029 2.937ZM33 42.001l3.027-2.936L39.054 42l-3.027 2.937L33 42Zm8.198 2.074 5.205 5.05 5.207-5.052 3.029 2.935h-.002L46.403 55l-8.238-7.99 3.033-2.935Zm12.546-2.074 3.027-2.936L59.797 42l-3.026 2.937L53.744 42Z"/>
  <path fill="#000" d="m46.403 39.017-2.271 2.204-.263.252-.542.526.005.006 3.071 2.978L49.474 42h.002l-3.073-2.984ZM64.524 35.3h6.587c1.634 0 2.87.411 3.709 1.232.639.614.988 1.454.971 2.325v.04a3.27 3.27 0 0 1-.15 1.042 3.173 3.173 0 0 1-.989 1.462c-.22.183-.46.343-.717.473.74.25 1.408.673 1.941 1.232.472.52.707 1.238.707 2.156v.04a3.494 3.494 0 0 1-.375 1.654 3.26 3.26 0 0 1-1.073 1.183 5.18 5.18 0 0 1-1.683.709 9.251 9.251 0 0 1-2.178.236h-6.75V35.3Zm5.927 5.574a3.345 3.345 0 0 0 1.645-.345 1.18 1.18 0 0 0 .605-1.113v-.04a1.207 1.207 0 0 0-.527-1.053c-.352-.242-.86-.363-1.522-.363H67.57v2.914h2.88Zm.832 5.554a3.077 3.077 0 0 0 1.63-.363c.393-.246.62-.68.588-1.133v-.04c.015-.429-.19-.84-.548-1.092-.364-.273-.953-.41-1.766-.41H67.57v3.038h3.713ZM80.507 35.3h3.127v13.788h-3.127V35.3Zm7.858 0h2.883l6.663 8.486V35.3h3.086v13.788h-2.66l-6.882-8.765v8.765h-3.09V35.3Zm22.098-.098h2.879l6.089 13.886h-3.264l-1.299-3.093h-6.01l-1.299 3.093h-3.188l6.092-13.886Zm3.289 8.115-1.892-4.472-1.884 4.472h3.776Zm9.06-8.017h2.883l6.659 8.486V35.3h3.086v13.788h-2.661l-6.881-8.765v8.765h-3.086V35.3Zm23.88 14.03a7.59 7.59 0 0 1-2.904-.55 6.916 6.916 0 0 1-3.837-3.762 7.081 7.081 0 0 1-.549-2.779V42.2a7.041 7.041 0 0 1 4.401-6.57 7.822 7.822 0 0 1 3.004-.56 9.794 9.794 0 0 1 1.816.158 7.663 7.663 0 0 1 1.494.434c.436.178.853.402 1.238.67.377.26.731.55 1.059.866l-1.988 2.226a7.57 7.57 0 0 0-1.693-1.144 4.44 4.44 0 0 0-1.939-.41 3.986 3.986 0 0 0-2.963 1.26c-.371.4-.661.865-.856 1.37a4.581 4.581 0 0 0-.302 1.665v.04c0 .566.099 1.13.302 1.663.193.505.479.973.847 1.378a3.96 3.96 0 0 0 2.963 1.281 4.449 4.449 0 0 0 2.06-.433 7.874 7.874 0 0 0 1.674-1.183l1.99 1.95c-.351.37-.73.713-1.137 1.028a6.723 6.723 0 0 1-2.821 1.269 9.403 9.403 0 0 1-1.859.172Zm9.506-14.03h10.696V38h-7.62v2.797h6.71v2.698h-6.699v2.895H167v2.699h-10.795l-.007-13.788Z"/>
</svg>
