<svg xmlns="http://www.w3.org/2000/svg" width="200" height="84" fill="none" viewBox="0 0 200 84">
  <path fill="#000" d="M41.632 28.788c0 .939.767 1.7 1.714 1.7.948 0 1.715-.761 1.715-1.7 0-.938-.767-1.699-1.715-1.699-.947 0-1.714.761-1.714 1.7Zm5.656.432a1.678 1.678 0 0 0 .896 2.23 1.76 1.76 0 0 0 2.253-.887 1.678 1.678 0 0 0-.896-2.231c-.87-.38-1.894.025-2.253.887Zm5.017 2.535c-.665.685-.665 1.75 0 2.41a1.743 1.743 0 0 0 2.432 0c.665-.685.665-1.75 0-2.41a1.742 1.742 0 0 0-2.432 0Zm3.686 4.26c-.87.355-1.305 1.344-.947 2.207a1.722 1.722 0 0 0 2.227.938c.87-.355 1.305-1.344.947-2.206a1.722 1.722 0 0 0-2.227-.939Zm1.741 5.325c-.947 0-1.715.761-1.715 1.7 0 .913.767 1.673 1.715 1.699.947 0 1.715-.761 1.715-1.7 0-.938-.768-1.698-1.715-1.698Zm-.41 5.58c-.87-.38-1.894.025-2.253.887-.383.862.026 1.851.896 2.232.87.38 1.895-.026 2.253-.888a1.678 1.678 0 0 0-.896-2.232Zm-2.585 4.97a1.742 1.742 0 0 0-2.432 0 1.703 1.703 0 0 0 0 2.409c.666.66 1.766.66 2.432 0 .665-.685.665-1.75 0-2.41Zm-7.474 4.92a1.722 1.722 0 0 0 2.227.938c.87-.355 1.305-1.344.947-2.207a1.722 1.722 0 0 0-2.227-.938c-.87.355-1.306 1.344-.947 2.206Zm-2.202.456c0-.939-.767-1.7-1.715-1.7-.947 0-1.714.761-1.714 1.7 0 .938.767 1.699 1.714 1.699.948 0 1.715-.761 1.715-1.7Zm-5.656-.431a1.678 1.678 0 0 0-.896-2.232 1.76 1.76 0 0 0-2.253.888 1.678 1.678 0 0 0 .896 2.231c.87.38 1.894-.025 2.253-.887Zm-5.017-2.536c.665-.685.665-1.75 0-2.41-.666-.659-1.74-.659-2.432 0-.665.685-.665 1.75 0 2.41.666.66 1.766.66 2.432 0Zm-3.635-4.26c.87-.38 1.254-1.37.896-2.232-.358-.862-1.382-1.268-2.253-.888a1.708 1.708 0 0 0-.895 2.232 1.736 1.736 0 0 0 2.252.888Zm-1.766-5.3c.947 0 1.715-.761 1.715-1.7 0-.938-.768-1.698-1.715-1.698-.947 0-1.715.76-1.715 1.699 0 .938.768 1.699 1.715 1.699Zm.409-5.604c.87.38 1.895-.026 2.253-.888a1.708 1.708 0 0 0-.896-2.232c-.87-.38-1.894.026-2.252.888a1.678 1.678 0 0 0 .895 2.232Zm2.56-4.971c.666.66 1.766.66 2.432 0 .69-.659.69-1.724 0-2.409a1.742 1.742 0 0 0-2.432 0c-.665.685-.665 1.75 0 2.41Zm4.3-3.651a1.721 1.721 0 0 0 2.227.938 1.674 1.674 0 0 0 .947-2.206 1.722 1.722 0 0 0-2.227-.939c-.87.355-1.305 1.345-.947 2.207Zm2.484-5.275c.102.583.69.99 1.304.862a1.13 1.13 0 0 0 .896-1.293c-.102-.583-.69-.989-1.305-.862a1.086 1.086 0 0 0-.896 1.293Zm7.192-.431a1.106 1.106 0 0 0 .87 1.319 1.116 1.116 0 0 0 1.33-.863 1.106 1.106 0 0 0-.87-1.318 1.116 1.116 0 0 0-1.33.862Zm6.808 2.358c-.333.508-.205 1.218.307 1.547a1.123 1.123 0 0 0 1.562-.304c.333-.507.205-1.217-.307-1.547-.512-.33-1.229-.203-1.562.304Zm5.401 4.768a1.099 1.099 0 0 0-.333 1.521c.359.533 1.05.66 1.536.33.512-.33.666-1.014.333-1.522a1.121 1.121 0 0 0-1.536-.33Zm3.149 6.441a1.086 1.086 0 0 0-.896 1.293c.102.609.69.989 1.305.862a1.086 1.086 0 0 0 .896-1.293c-.102-.583-.691-.989-1.306-.862Zm.409 7.126a1.116 1.116 0 0 0-1.331.862 1.106 1.106 0 0 0 .87 1.318 1.116 1.116 0 0 0 1.331-.862 1.106 1.106 0 0 0-.87-1.319Zm-2.406 6.745c-.512-.33-1.229-.203-1.561.304-.333.507-.205 1.217.307 1.547.512.33 1.228.203 1.561-.304.333-.508.205-1.218-.307-1.547Zm-4.813 5.35a1.121 1.121 0 0 0-1.535-.33 1.099 1.099 0 0 0-.333 1.522c.333.507 1.024.66 1.536.33s.666-1.014.333-1.522Zm-6.5 3.095c-.103-.584-.692-.99-1.306-.863-.614.101-.998.685-.896 1.293.102.583.691.99 1.306.862a1.086 1.086 0 0 0 .895-1.293Zm-7.219.43a1.106 1.106 0 0 0-.87-1.319 1.129 1.129 0 0 0-1.331.863 1.106 1.106 0 0 0 .87 1.318 1.116 1.116 0 0 0 1.331-.862Zm-6.808-2.384c.332-.507.204-1.217-.308-1.546a1.151 1.151 0 0 0-1.561.304c-.333.507-.205 1.217.307 1.547.512.33 1.229.203 1.562-.304Zm-5.376-4.766c.512-.356.64-1.04.307-1.548a1.15 1.15 0 0 0-1.56-.304 1.127 1.127 0 0 0-.308 1.547 1.15 1.15 0 0 0 1.561.304Zm-4.453-7.304c.102.583.69.989 1.305.862a1.086 1.086 0 0 0 .896-1.293 1.103 1.103 0 0 0-1.305-.862 1.086 1.086 0 0 0-.896 1.293Zm.896-6.264a1.116 1.116 0 0 0 1.33-.862 1.106 1.106 0 0 0-.87-1.318 1.116 1.116 0 0 0-1.33.862 1.106 1.106 0 0 0 .87 1.318Zm2.38-6.745c.512.33 1.229.203 1.561-.304.359-.507.205-1.192-.307-1.547-.512-.33-1.229-.203-1.561.304-.333.507-.205 1.218.307 1.547Zm4.838-5.351c.332.508 1.023.66 1.535.33s.666-1.014.333-1.521a1.122 1.122 0 0 0-1.536-.33 1.099 1.099 0 0 0-.332 1.521Zm10.289-8.342c0 .456.359.811.82.811.46 0 .819-.38.819-.811a.805.805 0 0 0-.82-.812.805.805 0 0 0-.819.812Zm8.652 1.369c-.18.406.026.888.435 1.065.41.152.896-.025 1.075-.431.18-.406-.026-.888-.435-1.065a.83.83 0 0 0-1.075.431Zm7.448 4.539a.777.777 0 0 0 0 1.141c.308.33.845.33 1.152 0a.822.822 0 0 0 0-1.14.84.84 0 0 0-1.152 0Zm5.145 7.024c-.435.178-.64.66-.46 1.065.153.406.64.609 1.075.457.435-.178.64-.66.46-1.065-.179-.431-.665-.634-1.075-.457Zm1.997 8.444c-.46 0-.82.356-.82.812a.82.82 0 0 0 .82.812c.46 0 .819-.355.819-.812a.805.805 0 0 0-.82-.811Zm-1.382 8.546a.83.83 0 0 0-1.075.431c-.18.406.025.888.435 1.066a.83.83 0 0 0 1.075-.431c.179-.406-.026-.888-.435-1.066Zm-4.607 7.38a.84.84 0 0 0-1.153 0 .777.777 0 0 0 0 1.14c.308.305.82.305 1.152 0a.822.822 0 0 0 0-1.14Zm-7.09 5.097c-.18-.431-.666-.634-1.076-.457-.41.152-.614.634-.46 1.065.178.431.665.634 1.074.457.435-.178.64-.66.461-1.065Zm-8.524 1.977a.805.805 0 0 0-.82-.81.821.821 0 0 0-.819.81c0 .457.359.812.82.812.46 0 .819-.355.819-.811Zm-8.626-1.369c.179-.405-.026-.887-.436-1.065-.435-.177-.895 0-1.075.431-.179.406.026.888.435 1.065a.83.83 0 0 0 1.076-.43Zm-7.449-4.564a.822.822 0 0 0 0-1.141c-.333-.33-.845-.33-1.152 0a.777.777 0 0 0 0 1.14c.307.305.82.305 1.152 0Zm-5.119-7.024c.41-.178.614-.66.435-1.066a.83.83 0 0 0-1.075-.43c-.41.177-.614.659-.435 1.065a.83.83 0 0 0 1.075.43Zm-2.048-8.419c.46 0 .82-.355.82-.812a.805.805 0 0 0-.82-.811.805.805 0 0 0-.819.811c0 .457.358.812.82.812Zm1.408-8.572a.83.83 0 0 0 1.075-.43c.154-.406-.026-.888-.435-1.066a.83.83 0 0 0-1.075.431c-.18.406.025.888.435 1.066Zm4.608-7.379c.306.304.818.304 1.151 0 .307-.304.307-.811 0-1.14a.84.84 0 0 0-1.152 0 .777.777 0 0 0 0 1.14Zm7.064-5.071c.179.43.665.634 1.075.456a.843.843 0 0 0 .46-1.065.813.813 0 0 0-1.075-.456c-.435.177-.64.659-.46 1.065Zm4.172-5.25c.051.33.358.533.691.482.307-.076.538-.38.486-.684-.05-.33-.358-.533-.69-.482a.584.584 0 0 0-.487.684Zm10.187-.025a.57.57 0 0 0 .435.71.608.608 0 0 0 .717-.431.57.57 0 0 0-.435-.71c-.333-.076-.64.101-.717.431Zm9.369 3.854a.575.575 0 0 0 .153.812c.282.203.64.127.82-.152a.574.574 0 0 0-.154-.812c-.256-.177-.64-.126-.82.152Zm7.218 7.101c-.256.177-.359.532-.18.811.154.28.538.38.82.178.256-.178.358-.533.179-.812-.18-.253-.538-.355-.82-.177Zm3.89 9.306a.585.585 0 0 0-.486.685c.077.33.384.532.691.482a.584.584 0 0 0 .486-.685c-.05-.33-.358-.532-.69-.482Zm.026 10.092c-.333-.075-.64.102-.717.432a.601.601 0 0 0 .435.71c.333.076.64-.101.717-.431a.57.57 0 0 0-.435-.71Zm-3.891 9.282c-.256-.177-.64-.127-.819.152a.551.551 0 0 0 .154.812c.256.177.64.127.819-.152a.574.574 0 0 0-.154-.812Zm-7.192 7.126a.613.613 0 0 0-.82-.178c-.28.178-.358.558-.178.812.179.253.537.355.819.177.256-.177.358-.532.179-.811Zm-9.394 3.88c-.051-.33-.358-.533-.691-.482a.584.584 0 0 0-.486.684c.05.33.358.533.69.482a.584.584 0 0 0 .487-.684Zm-10.187.025a.57.57 0 0 0-.436-.71.608.608 0 0 0-.716.431.57.57 0 0 0 .435.71c.333.076.64-.101.717-.431Zm-9.369-3.88a.574.574 0 0 0-.153-.811c-.282-.178-.666-.102-.82.152a.575.575 0 0 0 .154.811c.256.178.64.127.82-.152Zm-7.218-7.1a.576.576 0 0 0 .18-.812.593.593 0 0 0-.82-.177.576.576 0 0 0-.179.811c.18.28.538.355.82.178Zm-3.916-9.281a.584.584 0 0 0 .486-.685.572.572 0 0 0-.69-.482.584.584 0 0 0-.487.685c.051.33.358.532.69.482Zm0-10.092c.333.075.64-.102.717-.432a.589.589 0 0 0-.436-.71c-.332-.076-.64.101-.716.431a.57.57 0 0 0 .435.71Zm3.891-9.282c.256.177.64.127.819-.152a.55.55 0 0 0-.154-.812c-.256-.177-.64-.127-.819.152a.574.574 0 0 0 .154.812Zm7.166-7.151c.18.253.538.355.82.177a.552.552 0 0 0 .179-.811c-.18-.254-.563-.355-.82-.178-.255.178-.358.533-.178.812Z"/>
  <path fill="#000" fill-rule="evenodd" d="M87.04 38.577c0-1.725-.794-2.764-2.56-2.764h-2.637V46.97h2.637c1.766 0 2.56-1.065 2.56-2.764v-5.63Zm-1.255 5.68c0 1.014-.435 1.572-1.33 1.572h-1.383v-8.875h1.356c.922 0 1.357.557 1.357 1.572v5.73Zm7.602-8.571c-1.74 0-2.585 1.115-2.585 2.815v5.781c0 1.7.87 2.815 2.585 2.815 1.74 0 2.585-1.116 2.585-2.815v-5.781c0-1.725-.844-2.815-2.585-2.815Zm-.025 10.245c-.896 0-1.331-.584-1.331-1.598V38.45c0-.99.435-1.598 1.33-1.598.922 0 1.332.584 1.332 1.598v5.883c0 1.014-.41 1.598-1.331 1.598Z" clip-rule="evenodd"/>
  <path fill="#000" d="m101.066 43.217.666-1.09 2.431 4.818h1.28l-2.943-6.06 2.841-5.072h-1.28l-2.995 5.375v-5.376h-1.254V46.97h1.254v-3.753Zm9.266 3.753V35.813h-1.254V46.97h1.254Z"/>
  <path fill="#000" fill-rule="evenodd" d="m115.144 46.97.435-2.257h2.841l.436 2.257h1.254l-2.15-11.157h-1.818l-2.15 11.157h1.152Zm3.097-3.322h-2.508l1.228-6.44 1.28 6.44Z" clip-rule="evenodd"/>
  <path fill="#000" d="M133.932 38.526c0-1.7-.794-2.815-2.534-2.815-1.741 0-2.534 1.116-2.534 2.815v5.756c0 1.7.819 2.815 2.534 2.815 1.74 0 2.534-1.116 2.534-2.815v-1.394h-1.203v1.445c0 .989-.41 1.598-1.331 1.598-.922 0-1.331-.584-1.331-1.598V38.45c0-.99.435-1.598 1.331-1.598.921 0 1.331.584 1.331 1.598v1.09h1.203v-1.014Z"/>
  <path fill="#000" fill-rule="evenodd" d="m138.59 46.97.436-2.257h2.841l.435 2.257h1.254l-2.15-11.157h-1.817l-2.15 11.157h1.151Zm3.098-3.322h-2.509l1.229-6.44 1.28 6.44Zm10.52-5.122c0-1.674-.768-2.714-2.534-2.714v-.025h-2.432v11.158h1.254v-4.387h1.101c1.766 0 2.611-.913 2.611-2.688v-1.344Zm-1.229 1.42c0 1.065-.461 1.496-1.382 1.496v.025h-1.101v-4.513h1.203c.922 0 1.28.507 1.28 1.521v1.47Z" clip-rule="evenodd"/>
  <path fill="#000" d="M157.173 46.97V35.813h-1.254V46.97h1.254Zm5.606-10.016V46.97h1.254V36.954h2.073v-1.142h-5.4v1.142h2.073Z"/>
  <path fill="#000" fill-rule="evenodd" d="m169.895 46.97.435-2.257h2.841l.435 2.257h1.254l-2.15-11.157h-1.817l-2.15 11.157h1.152Zm3.097-3.322h-2.509l1.229-6.44 1.28 6.44Z" clip-rule="evenodd"/>
  <path fill="#000" d="M178.521 35.813V46.97H183v-1.14h-3.225V35.812h-1.254Z"/>
</svg>
