<svg xmlns="http://www.w3.org/2000/svg" width="200" height="84" fill="none" viewBox="0 0 200 84">
  <path fill="#000" d="M62.44 31.732c.975 13.272-7.493 19.54-15.096 20.209-7.07.624-13.72-3.748-14.297-10.462-.488-5.554 2.926-7.896 5.608-8.141 2.749-.245 5.054 1.673 5.253 3.97.2 2.23-1.174 3.235-2.15 3.324-.753.067-1.707-.402-1.795-1.383-.067-.848.244-.982.177-1.874-.133-1.606-1.551-1.806-2.305-1.74-.931.09-2.616 1.183-2.372 3.882.244 2.743 2.837 4.907 6.273 4.594 3.68-.334 6.251-3.211 6.45-7.271 0-.223.045-.424.133-.625.045-.089.09-.156.133-.245.09-.111.178-.245.31-.401.09-.112.2-.224.333-.357 1.618-1.54 7.426-5.13 12.901-3.993.266.067.443.268.443.513Zm11.637 5.688h2.504c.045 0 .089.044.089.09v12.624c0 .045-.044.09-.089.09h-2.504a.097.097 0 0 1-.09-.09V37.509c0-.044.045-.09.09-.09Zm38.236-4.528v1.985c0 .045-.044.09-.088.09h-5.099c-.044 0-.088.044-.088.089v15.078c0 .045-.045.09-.089.09h-2.616c-.044 0-.088-.045-.088-.09V35.056c0-.045-.044-.09-.089-.09h-5.541c-.045 0-.09-.044-.09-.089v-1.985c0-.045.045-.09.09-.09h13.61c.022 0 .044 0 .066.023.022.022.022.044.022.067Zm-12.99 9.167h.023v8.075c0 .045-.044.09-.089.09h-2.46c-.044 0-.089-.045-.089-.09v-7.383c0-.38-.022-.758-.066-1.115-.177-1.339-.732-2.32-2.66-2.298a3.65 3.65 0 0 0-1.596.446c-.576.335-1.22.803-1.574 1.45.067.424.089.87.089 1.294v7.785c0 .044-.045.089-.089.089h-2.394c-.044 0-.089-.045-.089-.09v-6.379c0-1.405.067-2.877-.62-3.77-.421-.535-1.02-.803-2.172-.803-.466 0-1.087.179-1.574.402a3.93 3.93 0 0 0-.91.58c-.398.357-.664.803-.664 1.294v8.498c0 .045-.044.09-.089.09h-2.438c-.044 0-.089-.045-.089-.09V37.598c0-.044.045-.089.089-.089h1.02a.96.96 0 0 1 .908.647l.156.513c0 .045.022.067.044.067.022.022.066 0 .089-.022 1.086-1.026 2.637-1.517 4.145-1.517 1.507 0 2.571.468 3.236 1.204l-.067-.089c.2.223.377.469.532.736.023.045.09.067.111.045l.022-.023c.998-1.204 2.948-1.873 4.522-1.873 3.636 0 4.744 2.453 4.744 4.862Zm40.077 8.164h-2.659c-.023 0-.045-.022-.067-.044-.997-1.339-1.751-2.632-2.084-3.034l-.066-.067c-.554-.691-1.663-2.119-3.214-2.387-.022 0-.067 0-.067.023l-1.13 1.182c-.022.022-.022.045-.022.067v4.171c0 .045-.045.09-.089.09h-2.483c-.044 0-.088-.045-.088-.09v-17.51c0-.044.044-.09.088-.09h2.483c.044 0 .089.046.089.09v10.082c0 .023.022.067.044.067.022.022.067 0 .089-.022l5.453-5.51c.022-.022.044-.022.066-.022h2.926c.044 0 .067.022.067.045.022.022 0 .067-.023.089l-5.563 5.576c-.023.023-.023.045-.023.067 0 .023.023.045.045.067 1.596.736 2.726 2.12 3.236 2.766l.067.067c.443.558 1.928 2.699 3.014 4.171a.069.069 0 0 1 0 .09c-.022.066-.044.066-.089.066ZM75.318 35.39c.894 0 1.618-.699 1.618-1.561 0-.863-.724-1.562-1.618-1.562-.894 0-1.618.7-1.618 1.562 0 .862.724 1.561 1.618 1.561Zm43.069 1.472c-3.879 0-6.406 2.476-6.406 6.714s2.549 6.714 6.406 6.714c3.857 0 6.406-2.476 6.406-6.714s-2.549-6.714-6.406-6.714Zm0 11.331c-2.616 0-3.879-1.717-3.879-4.728 0-3.012 1.263-4.484 3.879-4.484s3.857 1.606 3.857 4.617c0 3.012-1.241 4.595-3.857 4.595Zm28.705.157c-1.396.178-2.793-.402-3.591-1.517-.421-.558-.665-1.205-.82-2.052 0-.023 0-.045.022-.067.022-.023.045-.023.067-.023l7.071-.959c1.928-.267 2.748-1.963 2.017-3.59a5.92 5.92 0 0 0-3.236-2.945c-1.929-.759-4.5-.313-5.874.803-1.84 1.472-2.461 3.234-2.572 5.13-.022.2-.022.424-.022.625 0 .446.044.87.111 1.293.488 2.833 2.549 5.42 6.007 5.42 3.901.023 5.763-2.275 6.074-3.992 0-.022 0-.045-.023-.067-.022-.022-.044-.022-.066-.022l-2.438.357c-.023 0-.045.022-.067.044-.687.96-1.463 1.383-2.66 1.562Zm-3.657-7.986a3.857 3.857 0 0 1 2.771-1.427c1.108-.09 1.995.067 2.77.803.288.267.51.58.71.892.288.49-.023 1.204-.665 1.294l-6.451.87c-.022 0-.044 0-.066-.023-.022-.022-.022-.044-.022-.067.11-.959.421-1.673.953-2.342ZM166 42.283v7.829c0 .044-.044.089-.089.089h-2.438c-.044 0-.089-.045-.089-.09v-6.49s.023-1.093-.066-2.12c-.067-.713-.31-1.427-.887-1.873-.82-.647-1.95-.513-1.95-.513-1.419.156-2.66 1.004-3.414 1.874l-.044.044.044-.022v9.1c0 .045-.044.09-.089.09h-2.438c-.044 0-.089-.045-.089-.09v-12.78c0-.045.045-.09.089-.09h1.995c.044 0 .089.045.089.09v1.249c0 .022.022.067.044.067.022.022.067 0 .089-.023 1.041-1.07 2.593-1.717 4.233-1.717 1.375.022 5.01.067 5.01 5.376Z"/>
</svg>
