<svg width="200" height="84" viewBox="0 0 200 84" fill="black" xmlns="http://www.w3.org/2000/svg">
<path d="M167.25 48.572L173.079 33.572H175.683L181.661 48.572H178.95L177.568 44.9934H171.215L169.886 48.572H167.25ZM171.836 42.9256H176.925L174.333 36.3899L171.836 42.9256Z" fill="black"/>
<path d="M155.46 48.572V33.572H161.128C162.171 33.572 163.071 33.7542 163.828 34.1184C164.592 34.4756 165.181 34.9863 165.596 35.6506C166.017 36.3149 166.228 37.1042 166.228 38.0184C166.228 38.7613 166.067 39.4184 165.746 39.9899C165.431 40.5613 164.989 41.0327 164.417 41.4042C163.846 41.7684 163.185 42.0149 162.435 42.1434L166.956 48.572H164.053L159.906 42.5184H157.86V48.572H155.46ZM157.86 40.5256H160.731C161.703 40.5256 162.456 40.3184 162.992 39.9042C163.535 39.4899 163.806 38.897 163.806 38.1256C163.806 37.3327 163.564 36.7149 163.078 36.272C162.599 35.8292 161.874 35.6077 160.903 35.6077H157.86V40.5256Z" fill="black"/>
<path d="M143.744 48.572V33.572H153.012V35.7684H146.144V40.0863H152.369V42.2292H146.144V48.572H143.744Z" fill="black"/>
<path d="M128.345 48.572V33.572H130.638L138.213 44.4684V33.572H140.548V48.572H138.255L130.691 37.547V48.572H128.345Z" fill="black"/>
<path d="M122.739 48.572V33.572H125.139V48.572H122.739Z" fill="black"/>
<path d="M110.333 48.572V33.572H120.029V35.6935H112.733V39.7434H119.033V41.747H112.733V46.4292H120.094V48.572H110.333Z" fill="black"/>
<path d="M95.771 48.572V33.572H100.464C101.957 33.572 103.275 33.8935 104.417 34.5363C105.56 35.172 106.453 36.0542 107.096 37.1827C107.746 38.3113 108.071 39.6113 108.071 41.0827C108.071 42.1756 107.885 43.1827 107.514 44.1042C107.15 45.0184 106.628 45.8077 105.95 46.472C105.271 47.1363 104.467 47.6542 103.539 48.0256C102.61 48.3899 101.585 48.572 100.464 48.572H95.771ZM98.171 46.3327H100.175C100.982 46.3327 101.714 46.2149 102.371 45.9792C103.035 45.7363 103.603 45.3863 104.075 44.9292C104.553 44.472 104.921 43.922 105.178 43.2792C105.435 42.6292 105.564 41.897 105.564 41.0827C105.564 39.9899 105.339 39.0506 104.889 38.2649C104.446 37.472 103.821 36.8649 103.014 36.4434C102.207 36.0149 101.26 35.8006 100.175 35.8006H98.171V46.3327Z" fill="black"/>
<path d="M85.6411 48.894C84.5125 48.894 83.4661 48.6975 82.5018 48.3047C81.5446 47.9047 80.7089 47.3511 79.9946 46.644C79.2875 45.9368 78.7339 45.1082 78.3339 44.1582C77.9411 43.2082 77.7446 42.1797 77.7446 41.0725C77.7446 39.9582 77.9411 38.9261 78.3339 37.9761C78.7339 37.0261 79.2875 36.1975 79.9946 35.4904C80.7089 34.7832 81.5446 34.2332 82.5018 33.8404C83.4661 33.4475 84.5125 33.2511 85.6411 33.2511C86.7625 33.2511 87.8018 33.4511 88.7589 33.8511C89.7161 34.2511 90.5518 34.8082 91.2661 35.5225C91.9803 36.2368 92.5339 37.069 92.9268 38.019C93.3268 38.9618 93.5268 39.9797 93.5268 41.0725C93.5268 42.1797 93.3268 43.2082 92.9268 44.1582C92.5339 45.1082 91.9803 45.9368 91.2661 46.644C90.5518 47.3511 89.7161 47.9047 88.7589 48.3047C87.8018 48.6975 86.7625 48.894 85.6411 48.894ZM85.6411 46.6225C86.3982 46.6225 87.1018 46.494 87.7518 46.2368C88.4089 45.9725 88.9803 45.5975 89.4661 45.1118C89.9518 44.619 90.3303 44.0332 90.6018 43.3547C90.8803 42.669 91.0196 41.9082 91.0196 41.0725C91.0196 39.9511 90.7803 38.9761 90.3018 38.1475C89.8303 37.3118 89.1875 36.6654 88.3732 36.2082C87.5589 35.7511 86.6482 35.5225 85.6411 35.5225C84.8839 35.5225 84.1768 35.6547 83.5196 35.919C82.8696 36.1761 82.2982 36.5475 81.8053 37.0332C81.3196 37.519 80.9375 38.1047 80.6589 38.7904C80.3875 39.469 80.2518 40.2297 80.2518 41.0725C80.2518 42.194 80.4911 43.1725 80.9696 44.0082C81.4482 44.8368 82.0911 45.4797 82.8982 45.9368C83.7125 46.394 84.6268 46.6225 85.6411 46.6225Z" fill="black"/>
<path d="M63.2778 48.572V33.572H65.5707L73.1457 44.4684V33.572H75.4814V48.572H73.1885L65.6243 37.547V48.572H63.2778Z" fill="black"/>
<path fill-rule="evenodd" clip-rule="evenodd" d="M27.2805 59.658L47.2282 49.3237C48.2418 48.7986 48.8781 47.7523 48.8781 46.6107V30.4408C48.8781 29.2887 48.2301 28.2346 47.2021 27.7145L42.4884 25.3296C41.6165 24.8884 40.5862 24.8909 39.7165 25.3363L35.0788 27.711C34.058 28.2337 33.4159 29.2839 33.4159 30.4306V31.9038C33.4159 33.0377 32.788 34.0783 31.7849 34.6069L27.3158 36.9618C26.3127 37.4904 25.6848 38.531 25.6848 39.6649V41.303C25.6848 42.4603 25.0309 43.5183 23.9958 44.0359L19.689 46.1893C18.6539 46.7069 18 47.7648 18 48.9221V54.2643C18 55.3734 18.601 56.3954 19.5702 56.9345L24.3898 59.6152C25.2853 60.1133 26.3707 60.1294 27.2805 59.658ZM19.9765 47.8109C19.1591 48.2171 19.1531 49.3811 19.9663 49.7957L25.2402 52.4845C25.557 52.646 25.9319 52.6461 26.2488 52.4848L31.5086 49.8077C32.3221 49.3936 32.3169 48.2297 31.4998 47.8229L26.2259 45.1971C25.9142 45.042 25.5479 45.0418 25.2362 45.1968L19.9765 47.8109ZM27.6512 40.4904C26.838 40.0758 26.8439 38.9119 27.6613 38.5057L32.921 35.8915C33.2328 35.7366 33.5991 35.7367 33.9107 35.8919L39.1847 38.5176C40.0018 38.9244 40.0069 40.0884 39.1935 40.5024L33.9337 43.1796C33.6168 43.3408 33.2418 43.3407 32.9251 43.1792L27.6512 40.4904ZM35.2534 29.2478C34.436 29.6541 34.43 30.818 35.2432 31.2326L40.5171 33.9214C40.8339 34.0829 41.2089 34.083 41.5258 33.9217L46.7855 31.2446C47.599 30.8306 47.5938 29.6666 46.7767 29.2598L41.5028 26.6341C41.1912 26.4789 40.8248 26.4788 40.5131 26.6337L35.2534 29.2478Z" fill="black"/>
</svg>
