<svg xmlns="http://www.w3.org/2000/svg" width="200" height="84" fill="none" viewBox="0 0 200 84">
  <path fill="#000" d="M78.502 27.002h-29.81a.713.713 0 0 0-.49.191.625.625 0 0 0-.202.46v27.889c0 .172.072.338.203.46.13.12.305.188.49.188H78.5a.713.713 0 0 0 .49-.189.625.625 0 0 0 .202-.459V27.65a.626.626 0 0 0-.203-.459.72.72 0 0 0-.49-.191l.003.002Zm-9.704 18.81a.626.626 0 0 1-.203.46.72.72 0 0 1-.49.19h-9.014a.705.705 0 0 1-.49-.19.626.626 0 0 1-.202-.46V37.38c0-.172.072-.338.203-.459a.72.72 0 0 1 .489-.191h9.012a.71.71 0 0 1 .49.191c.13.121.202.287.202.46v8.431h.003Zm72.104-9.08h-9.013c-.382 0-.692.291-.692.648v8.432c0 .359.31.648.692.648h9.013c.382 0 .692-.291.692-.648v-8.43c0-.358-.31-.648-.692-.648v-.002Zm-10.394-9.73h-9.012c-.382 0-.692.292-.692.648v8.434c0 .36.31.648.692.648h9.012c.382 0 .695-.291.695-.648v-8.432c0-.358-.31-.648-.695-.648v-.002Zm20.8 0h-9.012c-.383 0-.692.292-.692.648v8.434c0 .36.309.648.692.648h9.012c.382 0 .692-.291.692-.648v-8.432c0-.358-.31-.648-.692-.648v-.002Zm-20.8 19.46h-9.012c-.382 0-.692.291-.692.648v8.432c0 .359.31.648.692.648h9.012c.382 0 .695-.291.695-.648V47.11c0-.359-.31-.648-.695-.648Zm20.8 0h-9.012c-.383 0-.692.291-.692.648v8.432c0 .359.309.648.692.648h9.012c.382 0 .692-.291.692-.648V47.11c0-.359-.31-.648-.692-.648Zm-36.41-19.46h-9.012c-.382 0-.695.292-.695.648v8.434c0 .36.31.648.695.648h9.012c.382 0 .692-.291.692-.648v-8.432c0-.358-.31-.648-.692-.648v-.002Zm0 19.46h-9.012c-.382 0-.695.291-.695.648v8.432c0 .359.31.648.695.648h9.012c.382 0 .692-.291.692-.648V47.11c0-.359-.31-.648-.692-.648Zm-9.709-9.089a.628.628 0 0 0-.203-.459.722.722 0 0 0-.49-.191h-9.704V27.65a.626.626 0 0 0-.203-.459.72.72 0 0 0-.49-.191h-9.011a.705.705 0 0 0-.49.191.626.626 0 0 0-.203.46v27.877c0 .172.073.338.203.46a.72.72 0 0 0 .49.19H94.1a.705.705 0 0 0 .49-.19.639.639 0 0 0 .202-.46v-9.073h9.704a.706.706 0 0 0 .49-.19.628.628 0 0 0 .203-.46v-8.432Z"/>
</svg>
