<svg width="200" height="84" viewBox="0 0 200 84" fill="black" xmlns="http://www.w3.org/2000/svg">
<path opacity="0.62" d="M26.7383 51.32L30.7896 46.3388C31.2126 45.8187 32.009 45.8187 32.432 46.3388L36.4833 51.32C36.7984 51.7077 36.7984 52.2616 36.4833 52.6492L32.432 57.6304C32.009 58.1505 31.2126 58.1505 30.7896 57.6304L26.7383 52.6492C26.4232 52.2616 26.4232 51.7077 26.7383 51.32Z" fill="black"/>
<path d="M33.0323 39.1371L37.0836 34.1559C37.5066 33.6359 38.3029 33.6359 38.726 34.1559L42.7772 39.1371C43.0924 39.5247 43.0924 40.0787 42.7772 40.4664L38.726 45.4476C38.3029 45.9677 37.5066 45.9677 37.0836 45.4476L33.0323 40.4664C32.7171 40.0787 32.7171 39.5247 33.0323 39.1371Z" fill="black"/>
<path d="M20.4429 39.1371L24.4942 34.1559C24.9172 33.6359 25.7136 33.6359 26.1366 34.1559L30.1879 39.1371C30.503 39.5247 30.503 40.0787 30.1879 40.4664L26.1366 45.4476C25.7136 45.9677 24.9172 45.9677 24.4942 45.4476L20.4429 40.4664C20.1278 40.0787 20.1278 39.5247 20.4429 39.1371Z" fill="black"/>
<path d="M26.7383 31.3524L30.7896 26.3705C31.2126 25.8504 32.009 25.8504 32.432 26.3705L36.4833 31.3517C36.7984 31.7394 36.7984 32.2933 36.4833 32.681L32.432 37.6622C32.009 38.1823 31.2126 38.1823 30.7896 37.6622L26.7383 32.6816C26.4232 32.2939 26.4232 31.7394 26.7383 31.3524Z" fill="black"/>
<path d="M173.981 42.1674L179.793 48.4603H176.27L171.601 43.037V48.4603H168.993V31.5269H171.601V41.3665L176.178 35.8517H179.793L173.981 42.1674Z" fill="black"/>
<path d="M163.02 37.6813C163.402 37.0406 163.905 36.5448 164.531 36.194C165.171 35.8278 165.926 35.6448 166.796 35.6448V38.3449H166.132C165.11 38.3449 164.332 38.6043 163.798 39.123C163.28 39.6417 163.02 40.5417 163.02 41.8232V48.4592H160.412V35.8507H163.02V37.6813Z" fill="black"/>
<path d="M151.491 48.6652C150.301 48.6652 149.225 48.3982 148.264 47.8643C147.303 47.3151 146.548 46.5523 145.999 45.576C145.45 44.5844 145.175 43.4403 145.175 42.1435C145.175 40.8621 145.457 39.7256 146.022 38.734C146.586 37.7424 147.357 36.9796 148.333 36.4457C149.309 35.9118 150.4 35.6448 151.605 35.6448C152.81 35.6448 153.901 35.9118 154.878 36.4457C155.854 36.9796 156.624 37.7424 157.189 38.734C157.753 39.7256 158.035 40.8621 158.035 42.1435C158.035 43.425 157.745 44.5615 157.166 45.5531C156.586 46.5447 155.793 47.3151 154.786 47.8643C153.794 48.3982 152.696 48.6652 151.491 48.6652ZM151.491 46.3998C152.162 46.3998 152.788 46.2396 153.367 45.9193C153.962 45.5989 154.443 45.1183 154.809 44.4776C155.175 43.8369 155.358 43.0588 155.358 42.1435C155.358 41.2282 155.183 40.4578 154.832 39.8324C154.481 39.1916 154.016 38.7111 153.436 38.3907C152.856 38.0704 152.231 37.9102 151.56 37.9102C150.889 37.9102 150.262 38.0704 149.683 38.3907C149.119 38.7111 148.668 39.1916 148.333 39.8324C147.997 40.4578 147.829 41.2282 147.829 42.1435C147.829 43.5013 148.172 44.5539 148.859 45.3014C149.561 46.0336 150.438 46.3998 151.491 46.3998Z" fill="black"/>
<path d="M144.274 35.8506L140.361 48.4591H137.615L135.075 39.1458L132.535 48.4591H129.789L125.853 35.8506H128.507L131.139 45.9878L133.816 35.8506H136.539L139.102 45.942L141.711 35.8506H144.274Z" fill="black"/>
<path d="M122.07 37.9811V44.9604C122.07 45.4334 122.176 45.7766 122.39 45.9902C122.619 46.1885 123 46.2876 123.534 46.2876H125.136V48.4615H123.077C121.902 48.4615 121.001 48.187 120.376 47.6378C119.751 47.0886 119.438 46.1961 119.438 44.9604V37.9811H117.951V35.853H119.438V32.718H122.07V35.853H125.136V37.9811H122.07Z" fill="black"/>
<path d="M116.661 41.8461C116.661 42.319 116.631 42.7461 116.57 43.1275H106.936C107.012 44.1344 107.386 44.9429 108.057 45.5531C108.728 46.1633 109.552 46.4685 110.529 46.4685C111.932 46.4685 112.924 45.8811 113.504 44.7064H116.318C115.937 45.8659 115.242 46.8193 114.236 47.5668C113.244 48.2991 112.008 48.6652 110.529 48.6652C109.324 48.6652 108.24 48.3982 107.279 47.8643C106.333 47.3151 105.586 46.5523 105.037 45.576C104.503 44.5844 104.236 43.4403 104.236 42.1435C104.236 40.8468 104.495 39.7103 105.014 38.734C105.548 37.7424 106.288 36.9796 107.233 36.4457C108.195 35.9118 109.293 35.6448 110.529 35.6448C111.719 35.6448 112.779 35.9041 113.709 36.4228C114.64 36.9415 115.364 37.6737 115.883 38.6196C116.402 39.5502 116.661 40.6256 116.661 41.8461ZM113.938 41.0223C113.923 40.0612 113.58 39.2908 112.908 38.7111C112.237 38.1314 111.406 37.8415 110.414 37.8415C109.514 37.8415 108.744 38.1314 108.103 38.7111C107.462 39.2755 107.081 40.0459 106.959 41.0223H113.938Z" fill="black"/>
<path d="M96.8076 35.6448C97.7996 35.6448 98.6844 35.8507 99.462 36.2626C100.256 36.6745 100.874 37.2847 101.316 38.0932C101.758 38.9018 101.98 39.8781 101.98 41.0223V48.4592H99.3936V41.4113C99.3936 40.2824 99.1114 39.4205 98.547 38.8255C97.9826 38.2153 97.2124 37.9102 96.2358 37.9102C95.2592 37.9102 94.4816 38.2153 93.9017 38.8255C93.3373 39.4205 93.0551 40.2824 93.0551 41.4113V48.4592H90.4463V35.8507H93.0551V37.2923C93.4821 36.7737 94.0237 36.3694 94.68 36.0795C95.351 35.7897 96.0602 35.6448 96.8076 35.6448Z" fill="black"/>
<path d="M86.5718 48.6208C86.0992 48.6208 85.7024 48.4606 85.382 48.1402C85.0616 47.8198 84.9014 47.4232 84.9014 46.9503C84.9014 46.4774 85.0616 46.0807 85.382 45.7603C85.7024 45.44 86.0992 45.2798 86.5718 45.2798C87.0296 45.2798 87.4184 45.44 87.7388 45.7603C88.0592 46.0807 88.2194 46.4774 88.2194 46.9503C88.2194 47.4232 88.0592 47.8198 87.7388 48.1402C87.4184 48.4606 87.0296 48.6208 86.5718 48.6208Z" fill="black"/>
<path d="M79.9533 46.1251L83.5228 35.8506H86.2918L81.4865 48.4591H78.3743L73.5918 35.8506H76.3835L79.9533 46.1251Z" fill="black"/>
<path d="M67.6327 48.6652C66.6411 48.6652 65.7487 48.4898 64.9554 48.1389C64.1773 47.7728 63.5595 47.2846 63.1019 46.6744C62.6442 46.0489 62.4001 45.3548 62.3696 44.5921H65.0698C65.1156 45.126 65.3673 45.576 65.825 45.9421C66.2979 46.293 66.8852 46.4685 67.5869 46.4685C68.3192 46.4685 68.8837 46.3311 69.2803 46.0566C69.6922 45.7667 69.8981 45.4006 69.8981 44.9582C69.8981 44.4853 69.6693 44.1344 69.2117 43.9055C68.7692 43.6767 68.0599 43.425 67.0835 43.1504C66.1377 42.8911 65.3673 42.6394 64.7723 42.3952C64.1773 42.1512 63.6587 41.7774 63.2163 41.274C62.7891 40.7705 62.5756 40.107 62.5756 39.2832C62.5756 38.6119 62.7739 38.0017 63.1705 37.4525C63.5671 36.8881 64.1316 36.4457 64.8639 36.1253C65.6113 35.8049 66.4656 35.6448 67.4267 35.6448C68.8607 35.6448 70.0125 36.0109 70.8821 36.7432C71.7669 37.4601 72.2398 38.4441 72.3009 39.6951H69.6922C69.6464 39.1306 69.4176 38.6806 69.0057 38.3449C68.5938 38.0094 68.037 37.8415 67.3352 37.8415C66.6487 37.8415 66.1224 37.9712 65.7563 38.2306C65.3901 38.4899 65.2071 38.8331 65.2071 39.2603C65.2071 39.5959 65.3291 39.8781 65.5733 40.107C65.8173 40.3358 66.1148 40.5188 66.4657 40.6562C66.8166 40.7782 67.3352 40.9384 68.0217 41.1367C68.937 41.3808 69.6846 41.6325 70.2643 41.8918C70.8592 42.1359 71.3703 42.502 71.7974 42.9902C72.2246 43.4784 72.4458 44.1267 72.461 44.9353C72.461 45.6523 72.2627 46.293 71.866 46.8574C71.4694 47.4219 70.905 47.8643 70.1727 48.1847C69.4557 48.505 68.609 48.6652 67.6327 48.6652Z" fill="black"/>
<path d="M55.6112 48.6652C54.6197 48.6652 53.7272 48.4898 52.9339 48.1389C52.1559 47.7728 51.538 47.2846 51.0804 46.6744C50.6227 46.0489 50.3786 45.3548 50.3481 44.5921H53.0483C53.0941 45.126 53.3458 45.576 53.8035 45.9421C54.2764 46.293 54.8637 46.4685 55.5655 46.4685C56.2977 46.4685 56.8622 46.3311 57.2588 46.0566C57.6707 45.7667 57.8766 45.4006 57.8766 44.9582C57.8766 44.4853 57.6478 44.1344 57.1902 43.9055C56.7478 43.6767 56.0384 43.425 55.0621 43.1504C54.1162 42.8911 53.3458 42.6394 52.7508 42.3952C52.1559 42.1512 51.6372 41.7774 51.1948 41.274C50.7676 40.7705 50.5541 40.107 50.5541 39.2832C50.5541 38.6119 50.7524 38.0017 51.149 37.4525C51.5457 36.8881 52.1101 36.4457 52.8424 36.1253C53.5899 35.8049 54.4442 35.6448 55.4053 35.6448C56.8393 35.6448 57.9911 36.0109 58.8606 36.7432C59.7454 37.4601 60.2183 38.4441 60.2794 39.6951H57.6707C57.6249 39.1306 57.3961 38.6806 56.9842 38.3449C56.5723 38.0094 56.0155 37.8415 55.3138 37.8415C54.6272 37.8415 54.101 37.9712 53.7348 38.2306C53.3687 38.4899 53.1856 38.8331 53.1856 39.2603C53.1856 39.5959 53.3076 39.8781 53.5518 40.107C53.7958 40.3358 54.0933 40.5188 54.4442 40.6562C54.7951 40.7782 55.3138 40.9384 56.0002 41.1367C56.9155 41.3808 57.6631 41.6325 58.2428 41.8918C58.8377 42.1359 59.3488 42.502 59.7759 42.9902C60.2031 43.4784 60.4243 44.1267 60.4395 44.9353C60.4395 45.6523 60.2412 46.293 59.8446 46.8574C59.4479 47.4219 58.8835 47.8643 58.1513 48.1847C57.4342 48.505 56.5876 48.6652 55.6112 48.6652Z" fill="black"/>
</svg>
