<svg xmlns="http://www.w3.org/2000/svg" width="501" height="500" fill="none" viewBox="0 0 501 500">
  <g clip-path="url(#a)">
    <g filter="url(#b)">
      <path fill="url(#c)" d="M241.71 456.032c73.214 0 132.567-59.004 132.567-131.789 0-27.931-8.741-53.833-23.651-75.15l-109.804 65.714-109.804-63.11c-13.826 20.807-21.875 45.742-21.875 72.546 0 72.785 59.352 131.789 132.567 131.789Z"/>
      <path fill="url(#d)" d="M242.605 364.306v90.773c20.206-39.603 41.165-78.587 62.345-117.71 16.007-29.57 30.587-58.314 45.615-88.369-40.898 27.93-72.85 10.915-83.521 5.579-23.142-11.571-24.938-39.401-23.94-51.87V86l-87.596 130.462c-3.302 4.918-1.63 11.611 3.596 14.398l50.085 26.712c20.449 1.164 33.416 26.434 33.416 40.399v66.335Z"/>
      <path fill="url(#e)" d="M242.605 364.306v90.773c20.206-39.603 41.165-78.587 62.345-117.71 16.007-29.57 30.587-58.314 45.615-88.369-40.898 27.93-72.85 10.915-83.521 5.579-23.142-11.571-24.938-39.401-23.94-51.87V86l-87.596 130.462c-3.302 4.918-1.63 11.611 3.596 14.398l50.085 26.712c20.449 1.164 33.416 26.434 33.416 40.399v66.335Z"/>
      <path fill="url(#f)" fill-opacity=".7" d="M242.605 364.306v90.773c20.206-39.603 41.165-78.587 62.345-117.71 16.007-29.57 30.587-58.314 45.615-88.369-40.898 27.93-72.85 10.915-83.521 5.579-23.142-11.571-24.938-39.401-23.94-51.87V86l-87.596 130.462c-3.302 4.918-1.63 11.611 3.596 14.398l50.085 26.712c20.449 1.164 33.416 26.434 33.416 40.399v66.335Z"/>
      <path fill="url(#g)" d="M242.605 364.306v90.773c-20.206-39.603-42.661-78.587-63.841-117.71-14.159-26.155-28.193-50.422-41.646-76.477-1.419-2.749 1.931-5.766 4.673-4.331 36.291 18.993 65.084 2.916 74.879-1.982 23.142-11.571 26.932-39.401 25.935-51.87V86l85.813 130.585c3.209 4.883 1.565 11.466-3.564 14.268l-49.83 27.218c-18.749 9.476-29.223 17.456-32.419 40.898v65.337Z"/>
      <path fill="url(#h)" d="M242.605 364.306v90.773c-20.206-39.603-42.661-78.587-63.841-117.71-14.159-26.155-28.193-50.422-41.646-76.477-1.419-2.749 1.931-5.766 4.673-4.331 36.291 18.993 65.084 2.916 74.879-1.982 23.142-11.571 26.932-39.401 25.935-51.87V86l85.813 130.585c3.209 4.883 1.565 11.466-3.564 14.268l-49.83 27.218c-18.749 9.476-29.223 17.456-32.419 40.898v65.337Z"/>
      <path fill="url(#i)" fill-opacity=".8" d="M242.605 364.306v90.773c-20.206-39.603-42.661-78.587-63.841-117.71-14.159-26.155-28.193-50.422-41.646-76.477-1.419-2.749 1.931-5.766 4.673-4.331 36.291 18.993 65.084 2.916 74.879-1.982 23.142-11.571 26.932-39.401 25.935-51.87V86l85.813 130.585c3.209 4.883 1.565 11.466-3.564 14.268l-49.83 27.218c-18.749 9.476-29.223 17.456-32.419 40.898v65.337Z"/>
      <path fill="url(#j)" fill-opacity=".7" d="M242.605 364.306v90.773c-20.206-39.603-42.661-78.587-63.841-117.71-14.159-26.155-28.193-50.422-41.646-76.477-1.419-2.749 1.931-5.766 4.673-4.331 36.291 18.993 65.084 2.916 74.879-1.982 23.142-11.571 26.932-39.401 25.935-51.87V86l85.813 130.585c3.209 4.883 1.565 11.466-3.564 14.268l-49.83 27.218c-18.749 9.476-29.223 17.456-32.419 40.898v65.337Z"/>
      <path fill="url(#k)" fill-opacity=".8" d="M242.605 364.306v90.773c-20.206-39.603-42.661-78.587-63.841-117.71-14.159-26.155-28.193-50.422-41.646-76.477-1.419-2.749 1.931-5.766 4.673-4.331 36.291 18.993 65.084 2.916 74.879-1.982 23.142-11.571 26.932-39.401 25.935-51.87V86l85.813 130.585c3.209 4.883 1.565 11.466-3.564 14.268l-49.83 27.218c-18.749 9.476-29.223 17.456-32.419 40.898v65.337Z"/>
      <path fill="url(#l)" d="m242.31 313.931-110.225-62.344 111.222 203.991-.997-141.647Z"/>
      <path fill="url(#m)" d="M242.311 313.932 350.565 249 241.812 455.578l.499-141.646Z"/>
    </g>
    <path fill="url(#n)" d="M250.287 435.032c73.215 0 132.567-59.004 132.567-131.789 0-27.931-8.74-53.833-23.651-75.15l-109.804 65.714-109.804-63.11c-13.826 20.807-21.875 45.742-21.875 72.546 0 72.785 59.352 131.789 132.567 131.789Z"/>
    <path fill="url(#o)" d="M251.182 343.306v90.773c20.206-39.603 41.165-78.587 62.345-117.71 16.007-29.57 30.588-58.314 45.615-88.369-40.898 27.93-72.85 10.915-83.521 5.579-23.142-11.571-24.937-39.401-23.94-51.87V65l-87.596 130.462c-3.302 4.918-1.63 11.611 3.596 14.398l50.085 26.712c20.449 1.164 33.416 26.434 33.416 40.399v66.335Z"/>
    <path fill="url(#p)" d="M251.182 343.306v90.773c20.206-39.603 41.165-78.587 62.345-117.71 16.007-29.57 30.588-58.314 45.615-88.369-40.898 27.93-72.85 10.915-83.521 5.579-23.142-11.571-24.937-39.401-23.94-51.87V65l-87.596 130.462c-3.302 4.918-1.63 11.611 3.596 14.398l50.085 26.712c20.449 1.164 33.416 26.434 33.416 40.399v66.335Z"/>
    <path fill="url(#q)" fill-opacity=".7" d="M251.182 343.306v90.773c20.206-39.603 41.165-78.587 62.345-117.71 16.007-29.57 30.588-58.314 45.615-88.369-40.898 27.93-72.85 10.915-83.521 5.579-23.142-11.571-24.937-39.401-23.94-51.87V65l-87.596 130.462c-3.302 4.918-1.63 11.611 3.596 14.398l50.085 26.712c20.449 1.164 33.416 26.434 33.416 40.399v66.335Z"/>
    <path fill="url(#r)" d="M251.182 343.306v90.773c-20.205-39.603-42.661-78.587-63.841-117.71-14.159-26.155-28.193-50.422-41.646-76.477-1.419-2.749 1.931-5.766 4.673-4.331 36.291 18.993 65.084 2.916 74.879-1.982 23.142-11.571 26.933-39.401 25.935-51.87V65l85.813 130.585c3.209 4.883 1.565 11.466-3.564 14.268l-49.83 27.218c-18.749 9.476-29.223 17.456-32.419 40.898v65.337Z"/>
    <path fill="url(#s)" d="M251.182 343.306v90.773c-20.205-39.603-42.661-78.587-63.841-117.71-14.159-26.155-28.193-50.422-41.646-76.477-1.419-2.749 1.931-5.766 4.673-4.331 36.291 18.993 65.084 2.916 74.879-1.982 23.142-11.571 26.933-39.401 25.935-51.87V65l85.813 130.585c3.209 4.883 1.565 11.466-3.564 14.268l-49.83 27.218c-18.749 9.476-29.223 17.456-32.419 40.898v65.337Z"/>
    <path fill="url(#t)" fill-opacity=".8" d="M251.182 343.306v90.773c-20.205-39.603-42.661-78.587-63.841-117.71-14.159-26.155-28.193-50.422-41.646-76.477-1.419-2.749 1.931-5.766 4.673-4.331 36.291 18.993 65.084 2.916 74.879-1.982 23.142-11.571 26.933-39.401 25.935-51.87V65l85.813 130.585c3.209 4.883 1.565 11.466-3.564 14.268l-49.83 27.218c-18.749 9.476-29.223 17.456-32.419 40.898v65.337Z"/>
    <path fill="url(#u)" fill-opacity=".7" d="M251.182 343.306v90.773c-20.205-39.603-42.661-78.587-63.841-117.71-14.159-26.155-28.193-50.422-41.646-76.477-1.419-2.749 1.931-5.766 4.673-4.331 36.291 18.993 65.084 2.916 74.879-1.982 23.142-11.571 26.933-39.401 25.935-51.87V65l85.813 130.585c3.209 4.883 1.565 11.466-3.564 14.268l-49.83 27.218c-18.749 9.476-29.223 17.456-32.419 40.898v65.337Z"/>
    <path fill="url(#v)" fill-opacity=".8" d="M251.182 343.306v90.773c-20.205-39.603-42.661-78.587-63.841-117.71-14.159-26.155-28.193-50.422-41.646-76.477-1.419-2.749 1.931-5.766 4.673-4.331 36.291 18.993 65.084 2.916 74.879-1.982 23.142-11.571 26.933-39.401 25.935-51.87V65l85.813 130.585c3.209 4.883 1.565 11.466-3.564 14.268l-49.83 27.218c-18.749 9.476-29.223 17.456-32.419 40.898v65.337Z"/>
    <path fill="url(#w)" d="m250.887 292.931-110.225-62.344 111.223 203.991-.998-141.647Z"/>
    <path fill="url(#x)" d="M250.888 292.932 359.143 228 250.389 434.578l.499-141.646Z"/>
  </g>
  <defs>
    <radialGradient id="c" cx="0" cy="0" r="1" gradientTransform="rotate(-131.346 194.721 134.8) scale(120.959 161.773)" gradientUnits="userSpaceOnUse">
      <stop stop-color="#5CEAB7" stop-opacity="0"/>
      <stop offset=".671" stop-color="#5CF1D6" stop-opacity=".52"/>
      <stop offset="1" stop-color="#108DE8" stop-opacity=".92"/>
    </radialGradient>
    <radialGradient id="d" cx="0" cy="0" r="1" gradientTransform="rotate(-119.878 406.343 201.746) scale(613.745 1385.82)" gradientUnits="userSpaceOnUse">
      <stop offset=".169" stop-color="#584AF6"/>
      <stop offset=".944" stop-color="#A5FFDF" stop-opacity=".2"/>
    </radialGradient>
    <radialGradient id="e" cx="0" cy="0" r="1" gradientTransform="rotate(-22.906 620.48 -213.654) scale(192.215 247.807)" gradientUnits="userSpaceOnUse">
      <stop stop-color="#2512FF"/>
      <stop offset=".592" stop-color="#00FFC2" stop-opacity="0"/>
    </radialGradient>
    <radialGradient id="f" cx="0" cy="0" r="1" gradientTransform="rotate(36.951 -187.776 310.677) scale(70.5241 213.135)" gradientUnits="userSpaceOnUse">
      <stop offset=".192" stop-color="#491CFF"/>
      <stop offset="1" stop-color="#1CFFD6" stop-opacity="0"/>
    </radialGradient>
    <radialGradient id="g" cx="0" cy="0" r="1" gradientTransform="rotate(96.636 77.17 176.653) scale(248.549 157.122)" gradientUnits="userSpaceOnUse">
      <stop stop-color="#82FFBB"/>
      <stop offset=".365" stop-color="#61E2EA" stop-opacity=".87"/>
      <stop offset=".866" stop-color="#6BD3FF" stop-opacity="0"/>
    </radialGradient>
    <radialGradient id="h" cx="0" cy="0" r="1" gradientTransform="matrix(156.1109 8.47926 -4.20742 77.46242 232.844 262.572)" gradientUnits="userSpaceOnUse">
      <stop stop-color="#3B4CE4"/>
      <stop offset=".413" stop-color="#2F4DEA" stop-opacity=".687"/>
      <stop offset="1" stop-color="#0047FF" stop-opacity="0"/>
    </radialGradient>
    <radialGradient id="j" cx="0" cy="0" r="1" gradientTransform="matrix(167.08278 -105.736 141.5676 223.70346 186.948 368.795)" gradientUnits="userSpaceOnUse">
      <stop offset=".023" stop-color="#7DFFD8"/>
      <stop offset=".274" stop-color="#2DFF9A" stop-opacity=".7"/>
      <stop offset=".621" stop-color="#2D4FFF" stop-opacity="0"/>
    </radialGradient>
    <radialGradient id="k" cx="0" cy="0" r="1" gradientTransform="matrix(76.8084 22.9427 -55.38299 185.41324 204.903 161.811)" gradientUnits="userSpaceOnUse">
      <stop offset=".095" stop-color="#5446FF"/>
      <stop offset=".88" stop-color="#4737FF" stop-opacity="0"/>
    </radialGradient>
    <radialGradient id="n" cx="0" cy="0" r="1" gradientTransform="rotate(-131.346 194.263 122.361) scale(120.959 161.773)" gradientUnits="userSpaceOnUse">
      <stop stop-color="#5CEAB7" stop-opacity="0"/>
      <stop offset=".671" stop-color="#5CF1D6" stop-opacity=".52"/>
      <stop offset="1" stop-color="#108DE8" stop-opacity=".92"/>
    </radialGradient>
    <radialGradient id="o" cx="0" cy="0" r="1" gradientTransform="rotate(-119.878 404.554 188.764) scale(613.745 1385.82)" gradientUnits="userSpaceOnUse">
      <stop offset=".169" stop-color="#584AF6"/>
      <stop offset=".944" stop-color="#A5FFDF" stop-opacity=".5"/>
    </radialGradient>
    <radialGradient id="p" cx="0" cy="0" r="1" gradientTransform="rotate(-22.906 572.941 -245.321) scale(192.215 247.807)" gradientUnits="userSpaceOnUse">
      <stop stop-color="#2512FF"/>
      <stop offset=".592" stop-color="#00FFC2" stop-opacity="0"/>
    </radialGradient>
    <radialGradient id="q" cx="0" cy="0" r="1" gradientTransform="rotate(36.951 -152.061 313.013) scale(70.5241 213.135)" gradientUnits="userSpaceOnUse">
      <stop offset=".192" stop-color="#491CFF"/>
      <stop offset="1" stop-color="#1CFFD6" stop-opacity=".4"/>
    </radialGradient>
    <radialGradient id="r" cx="0" cy="0" r="1" gradientTransform="rotate(96.636 90.808 169.971) scale(248.549 157.122)" gradientUnits="userSpaceOnUse">
      <stop stop-color="#82FFBB"/>
      <stop offset=".365" stop-color="#61E2EA" stop-opacity=".87"/>
      <stop offset=".866" stop-color="#6BD3FF" stop-opacity="0"/>
    </radialGradient>
    <radialGradient id="s" cx="0" cy="0" r="1" gradientTransform="matrix(156.1109 8.47926 -4.20742 77.46242 241.422 241.571)" gradientUnits="userSpaceOnUse">
      <stop stop-color="#3B4CE4"/>
      <stop offset=".413" stop-color="#2F4DEA" stop-opacity=".687"/>
      <stop offset="1" stop-color="#0047FF" stop-opacity="0"/>
    </radialGradient>
    <radialGradient id="u" cx="0" cy="0" r="1" gradientTransform="matrix(167.08278 -105.736 141.5676 223.70346 195.525 347.795)" gradientUnits="userSpaceOnUse">
      <stop offset=".023" stop-color="#7DFFD8"/>
      <stop offset=".274" stop-color="#2DFF9A" stop-opacity=".7"/>
      <stop offset=".621" stop-color="#2D4FFF" stop-opacity="0"/>
    </radialGradient>
    <radialGradient id="v" cx="0" cy="0" r="1" gradientTransform="matrix(76.8084 22.9427 -55.38299 185.41324 213.48 140.811)" gradientUnits="userSpaceOnUse">
      <stop offset=".095" stop-color="#5446FF"/>
      <stop offset=".88" stop-color="#4737FF" stop-opacity="0"/>
    </radialGradient>
    <linearGradient id="i" x1="247.592" x2="180.998" y1="437.623" y2="288.731" gradientUnits="userSpaceOnUse">
      <stop stop-color="#2965FE"/>
      <stop offset="1" stop-color="#27EEFF" stop-opacity=".01"/>
    </linearGradient>
    <linearGradient id="l" x1="200.414" x2="168.993" y1="286.5" y2="353.832" gradientUnits="userSpaceOnUse">
      <stop stop-color="#3840FF"/>
      <stop offset="1" stop-color="#25FFFF" stop-opacity="0"/>
    </linearGradient>
    <linearGradient id="m" x1="241.812" x2="316.127" y1="324.904" y2="353.832" gradientUnits="userSpaceOnUse">
      <stop stop-color="#1464FF"/>
      <stop offset="1" stop-color="#7BE6BF" stop-opacity="0"/>
    </linearGradient>
    <linearGradient id="t" x1="256.17" x2="189.575" y1="416.623" y2="267.731" gradientUnits="userSpaceOnUse">
      <stop stop-color="#2965FE"/>
      <stop offset="1" stop-color="#27EEFF" stop-opacity=".01"/>
    </linearGradient>
    <linearGradient id="w" x1="208.992" x2="177.57" y1="265.5" y2="332.832" gradientUnits="userSpaceOnUse">
      <stop stop-color="#3840FF"/>
      <stop offset="1" stop-color="#25FFFF" stop-opacity="0"/>
    </linearGradient>
    <linearGradient id="x" x1="250.389" x2="324.704" y1="303.904" y2="332.832" gradientUnits="userSpaceOnUse">
      <stop stop-color="#1464FF"/>
      <stop offset="1" stop-color="#7BE6BF" stop-opacity="0"/>
    </linearGradient>
    <clipPath id="a">
      <path fill="#fff" d="M.143 0h500v500h-500z"/>
    </clipPath>
    <filter id="b" width="373.134" height="478.032" x="55.143" y="32" color-interpolation-filters="sRGB" filterUnits="userSpaceOnUse">
      <feFlood flood-opacity="0" result="BackgroundImageFix"/>
      <feBlend in="SourceGraphic" in2="BackgroundImageFix" result="shape"/>
      <feGaussianBlur result="effect1_foregroundBlur_369_6450" stdDeviation="27"/>
    </filter>
  </defs>
</svg>
