<svg xmlns="http://www.w3.org/2000/svg" width="501" height="500" fill="none" viewBox="0 0 501 500">
  <g clip-path="url(#a)">
    <path fill="url(#b)" d="m363.07 223.028-112.258 67.488 122.704 69.532c29.45-59.307 5.233-116.058-10.446-137.02Z"/>
    <path fill="url(#c)" fill-opacity=".5" d="m363.07 223.028-112.258 67.488 122.704 69.532c29.45-59.307 5.233-116.058-10.446-137.02Z"/>
    <path fill="url(#d)" d="m363.07 223.028-112.258 67.488 122.704 69.532c29.45-59.307 5.233-116.058-10.446-137.02Z"/>
    <path fill="url(#e)" d="M209.91 429.069c35.619 11.589 118.206 13.6 163.607-69.021L209.91 429.069Z"/>
    <path fill="url(#f)" fill-opacity=".5" d="M209.91 429.069c35.619 11.589 118.206 13.6 163.607-69.021L209.91 429.069Z"/>
    <path fill="url(#g)" d="M209.91 429.069c35.619 11.589 118.206 13.6 163.607-69.021L209.91 429.069Z"/>
    <path fill="url(#h)" d="M123.284 347.266c-20.376-53.683.903-104.469 14.537-121.682l56.239 102.254 15.85 101.232c-17.383-6.136-66.25-28.12-86.626-81.804Z"/>
    <path fill="url(#i)" d="M123.284 347.266c-20.376-53.683.903-104.469 14.537-121.682l56.239 102.254 15.85 101.232c-17.383-6.136-66.25-28.12-86.626-81.804Z"/>
    <path fill="url(#j)" d="M123.284 347.266c-20.376-53.683.903-104.469 14.537-121.682l56.239 102.254 15.85 101.232c-17.383-6.136-66.25-28.12-86.626-81.804Z"/>
    <path fill="url(#k)" d="m194.061 327.838 56.751-37.323-112.991-64.931 56.24 102.254Z"/>
    <path fill="url(#l)" d="m194.061 327.838 56.751-37.323-112.991-64.931 56.24 102.254Z"/>
    <path fill="url(#m)" d="m250.812 290.516-56.751 37.322L209.91 429.07l40.902-138.554Z"/>
    <path fill="url(#n)" fill-opacity=".8" d="m250.812 290.516-56.751 37.322L209.91 429.07l40.902-138.554Z"/>
    <path fill="url(#o)" d="M250.812 290.516 209.91 429.07l163.607-69.022-122.705-69.532Z"/>
    <path fill="url(#p)" fill-opacity=".2" d="M250.812 290.516 209.91 429.07l163.607-69.022-122.705-69.532Z"/>
    <path fill="url(#q)" fill-opacity=".98" d="m211.49 115.149-56.751 86.916 55.729-30.676 1.022-56.24Z"/>
    <path fill="url(#r)" fill-opacity=".6" d="m277.956 95.721-67.488 75.668 1.022-56.24 66.466-19.428Z"/>
    <path fill="url(#s)" d="m277.956 95.721-67.488 75.668 1.022-56.24 66.466-19.428Z"/>
    <path fill="url(#t)" d="m277.956 95.721-67.488 75.668 1.022-56.24 66.466-19.428Z"/>
    <path fill="url(#u)" d="m251.369 54.82-39.879 60.329 66.465-19.428-26.586-40.902Z"/>
    <path fill="url(#v)" d="m209.881 171.16-55.217 30.165 95.608 55.217 43.458-24.541-83.849-60.841Z"/>
    <path fill="url(#w)" d="m209.881 171.16-55.217 30.165 95.608 55.217 43.458-24.541-83.849-60.841Z"/>
    <path fill="url(#x)" fill-opacity=".9" d="m277.955 95.721-67.487 75.668 83.848 60.841-16.361-136.509Z"/>
    <path fill="url(#y)" fill-opacity=".7" d="m277.955 95.721-67.487 75.668 83.848 60.841-16.361-136.509Z"/>
    <path fill="url(#z)" fill-opacity=".6" d="m277.955 95.721-67.487 75.668 83.848 60.841-16.361-136.509Z"/>
    <path fill="url(#A)" fill-opacity=".9" d="m277.955 95.721 16.361 136.509 53.172-30.165-69.533-106.344Z"/>
    <path fill="url(#B)" fill-opacity=".7" d="m277.955 95.721 16.361 136.509 53.172-30.165-69.533-106.344Z"/>

    <path fill="url(#D)" fill-opacity=".7" d="M155.487 210.134c1.723 0 3.392-.59 4.73-1.661 4.093 1.14 10.403 4.065 14.983 6.331l58.583 33.83c3.989 2.897 7.381 7.175 9.537 10.272.941 3.199 3.921 5.424 7.264 5.424 4.175 0 7.567-3.399 7.567-7.567 0-.377-.027-.762-.082-1.14.782-.995 1.881-2.135 3.179-3.309l16.561-9.359c5.788-2.389 9.785-3.234 11.384-3.502a7.505 7.505 0 0 0 4.333 1.36c4.161 0 7.546-3.371 7.567-7.526 4.106-4.229 12.352-9.956 18.546-14.02l9.66-5.487c6.935-3.24 11.941-4.222 13.898-4.504a7.616 7.616 0 0 0 3.495.852c4.174 0 7.566-3.399 7.566-7.567s-3.399-7.574-7.566-7.574c-.412 0-.824.035-1.229.097-1.532-1.003-3.825-3.434-6.633-7.018l-48.044-73.469c-3.831-6.708-6.255-11.549-7.209-14.385a7.552 7.552 0 0 0 1.14-4.003c0-4.236-3.516-7.683-7.759-7.566-3.584-4.244-7.697-8.308-9.867-10.389l-5.349-8.24c-1.435-3.495-2.808-7.422-3.859-10.505a7.513 7.513 0 0 0 1.277-4.209c0-4.175-3.398-7.567-7.566-7.567-4.168 0-7.567 3.4-7.567 7.567 0 .934.165 1.84.495 2.699-1.82 5.3-7.601 16.224-9.998 20.68l-15.675 23.717c-3.234 3.33-6.146 5.122-7.746 5.678a8.06 8.06 0 0 0-.412-.014c-4.174 0-7.566 3.399-7.566 7.567 0 1.614.501 3.152 1.449 4.449-.419 2.397-2.328 6.674-5.658 12.689l-33.226 50.893c-7.045 9.558-10.471 11.412-11.178 11.323l-.371-.048-.041.171c-3.55.659-6.187 3.804-6.187 7.443 0 4.175 3.399 7.567 7.567 7.567l.007.02Zm132.738-15.105c1.298 14.33 2.767 30.575 1.305 31.159-1.84-.392-5.919-2.644-12.112-6.667l-49.252-35.739c-5.074-4.333-8.569-7.794-10.121-10.032a7.779 7.779 0 0 0 .234-1.868 7.56 7.56 0 0 0-.591-2.945c1.346-3.722 4.758-8.768 7.381-12.339l41.74-46.8c5.473-5.342 7.176-6.345 7.698-6.503.075.028.157.055.233.083 1.263 1.352 3.433 10.272 5.685 23.393l6.743 56.249c.35 4.071.707 8.033 1.05 11.81l.021.185-.014.014Zm-19.919 51.174-.02-.034c-.454.233-.962.528-1.504.872-5.939 3.282-10.066 3.536-12.057 3.378a7.508 7.508 0 0 0-4.141-1.236 7.526 7.526 0 0 0-5.74 2.637 32.053 32.053 0 0 1-3.57-1.003l-69.597-40.195c-5.307-3.811-8.377-6.846-8.631-8.514 0-.103-.013-.199-.02-.261 0-.083.007-.158.027-.227.206-.913 1.442-2.719 6.139-6.118l26.435-14.556c5.616-2.328 8.898-3.186 10.025-3.447a7.515 7.515 0 0 0 5.06 1.943 7.566 7.566 0 0 0 4.545-1.517c3.008 1.648 7.547 4.518 13.486 8.541l47.604 34.538c6.296 5.754 9.626 10.155 9.626 12.73 0 .638-.844 2.286-6.454 6.125l-11.199 6.323-.014.021Zm1.305-150.433c-1.627 1.29-4.168 2.65-7.512 4.044l-23.359 6.825c-6.907 1.573-18.765 4.202-21.972 4.484a7.772 7.772 0 0 0-.659-.769c.048-.227.13-.501.247-.804l22.398-33.885c9.173-11.528 12.043-12.77 12.853-12.77 1.69 0 5.033 3.295 9.167 9.014l9.469 14.564c.755 1.723 1.229 3.261 1.4 4.573a7.565 7.565 0 0 0-2.039 4.724h.007Zm-51.456 21.203c1.854-1.607 6.07-3.667 12.188-5.953l33.198-9.709c6.413-1.277 7.038-.646 7.079-.556-.103.597-1.146 2.678-7.051 9.894l-32.485 36.426a648.574 648.574 0 0 0-12.496 12.057c-2.788 2.746-4.628 4.559-5.576 5.266-.123.096-.171.076-.192.069-.165-.076-.996-.755-1.449-6.825l.302-16.589c.824-6.104 2.184-14.467 4.031-19.713a7.578 7.578 0 0 0 2.458-4.36l-.007-.007Zm-8.638 41.177c-.693 3.666-1.634 6.049-1.991 6.873a7.577 7.577 0 0 0-4.024 9.194c-.446.35-.933.707-1.421 1.064l-38.52 21.045c-2.595.872-3.062.467-3.131.378-.013-.021-.24-.467.907-2.952l29.531-45.229c14.001-19.823 16.905-21.786 17.489-21.855.824 1.339 1.359 6.75 1.476 14.872l-.302 16.617-.014-.007Zm129.972 46.739c-.666.762-1.607 1.627-2.788 2.581l-22.274 12.641c-9.029 4.683-14.618 6.839-17.07 6.612a7.991 7.991 0 0 0-1.057-.515c-1.717-2.547-3.907-18.394-6.441-36.72l-.528-3.846-9.647-80.513c.137-1.662.432-1.854.432-1.854.254.082 1.126.666 3.818 4.202l52.994 81.042c2.039 4.539 2.987 8.164 3.385 10.011a7.534 7.534 0 0 0-1.174 4.052c0 .789.123 1.572.364 2.32l-.014-.013Z" data-figma-bg-blur-radius="44"/>

    <g data-figma-bg-blur-radius="34">
      <path fill="url(#F)" fill-opacity=".7" d="M387.78 287.428c-2.156-20.276-8.384-36.59-13.211-46.656a724.085 724.085 0 0 1-4.182-12.401 7.619 7.619 0 0 0 .756-3.302c0-4.175-3.399-7.567-7.567-7.567s-7.567 3.399-7.567 7.567c0 .116 0 .24.007.357-1.737 1.606-4.49 3.742-8.184 6.337l-73.772 44.349c-10.148 5.061-16.582 7.327-19.294 7.78a7.566 7.566 0 0 0-8.39.707c-4.305-1.092-11.014-4.113-15.896-6.461l-71.869-41.294c-6.894-4.909-11.728-9.853-12.455-11.412-.337-3.879-3.626-6.907-7.54-6.907-4.174 0-7.566 3.399-7.566 7.574 0 1.544.46 3.028 1.332 4.291-.186 1.174-.508 2.513-.955 4.003-6.317 10.986-11.398 24.725-14.295 38.685-3.701 17.831-5.754 45.324 5.527 75.034 7.993 21.052 21.141 39.419 39.083 54.587 15.161 12.812 30.569 20.647 40.93 24.986a7.543 7.543 0 0 0-.048.879c0 4.175 3.399 7.567 7.566 7.567a7.562 7.562 0 0 0 6.516-3.715c10.43 2.603 21.815 3.907 33.329 3.907 10.89 0 21.904-1.167 32.327-3.502 29.326-6.571 54.147-21.656 73.757-44.816 9.716-9.819 14.337-14.913 16.823-17.66l.061-.069c.735-.81 1.284-1.414 1.738-1.888a7.558 7.558 0 0 0 5.596-7.312 7.529 7.529 0 0 0-1.463-4.477c.185-2.142.742-5.321 1.641-9.441 6.997-19.088 9.434-39.186 7.251-59.716l.014-.014Zm-22.556 73.009c-.179.618-2.184 2.815-16.953 9.86l-119.075 50.241c-10.279 3.385-12.929 2.767-13.602 2.101-.446-.447-1.009-2.232.247-9.112l29.567-100.158c4.758-13.307 7.566-15.614 8.809-15.806.158-.028.35-.042.563-.042 1.964 0 6.406 1.154 16.397 5.967l54.367 30.809-.014.028c22.775 12.812 40.209 24.286 39.687 26.112h.007ZM230.988 421.78l124.575-52.561c7.107-2.163 10.856-2.554 12.05-2.616.33.309.687.584 1.065.831-16.981 27.643-39.763 47.102-67.729 57.841-21.19 8.144-45.668 11.014-68.89 8.096-12.414-2.452-12.771-4.127-12.771-4.306 0-.247.563-1.778 11.693-7.278l.007-.007Zm118.402-76.098-79.271-44.92c-9.043-6.111-11.151-9.118-11.329-10.56-.048-.384.041-.693.275-.954 1.95-2.17 9.523-7.423 21.306-14.79l58.397-35.108c4.937-2.554 14.138-6.969 20.537-8.033a7.518 7.518 0 0 0 4.264 1.311c.694 0 1.38-.096 2.046-.281 3.557 2.808 7.382 9.798 9.977 15.195 7.649 18.196 18.36 54.916 4.092 96.45-2.197 4.505-4.786 7.849-6.221 9.524a7.558 7.558 0 0 0-4.696 1.119c-3.77-1.421-10.293-4.435-19.377-8.953Zm-110.08-48.051-30.122 19.81c-4.044 2.252-7.182 3.652-9.338 4.174a7.492 7.492 0 0 0-5.081-1.97 6.84 6.84 0 0 0-.845.048c-1.929-1.861-10.622-14.941-19.308-29.065l-21.937-39.886c-7.437-14.358-8.336-17.585-8.171-18.196 1.284-.68 4.243.941 7.662 2.822.969.529 1.992 1.092 3.028 1.634l80.013 45.984c7.237 5.218 8.315 7.594 8.315 8.548 0 .954-.741 2.87-4.216 6.104v-.007Zm-49.952 34.895a7.485 7.485 0 0 0 2.465 1.668c1.531 2.376 3.461 9.167 5.452 19.157l7.498 47.906c1.174 10.361 1.511 17.66.982 21.148a7.752 7.752 0 0 0-2.074 2.259c-2.43-.254-7.443-2.142-14.172-5.335-21.718-11.714-50.645-33.7-65.14-71.89-11.117-29.291-9.098-56.413-5.445-74.004 1.984-9.545 4.896-18.745 8.651-27.314 4.937-9.153 7.986-11.666 9.675-12.154.247-.068.481-.11.7-.11.344 0 .66.083.962.254 1.4.783 5.788 7.107 12.029 17.338l24.616 44.754c7.443 14.584 11.81 23.97 12.648 27.184a7.55 7.55 0 0 0 1.139 9.139h.014Zm9.112 16.493c-.481-7.196-.412-12.483.206-15.333a7.578 7.578 0 0 0 3.646-6.825c2.279-2.307 7.779-7.024 13.478-11.556l23.242-15.291c5.033-2.699 6.681-2.424 7.21-2.026.144.117.742 1.175-1.263 10.307l-28.969 98.132c-4.168 12.476-5.521 14.296-5.864 14.536-.075-.068-.281-.316-.59-1.105l-11.089-70.839h-.007Z"/>
      <path fill="url(#G)" d="M387.78 287.428c-2.156-20.276-8.384-36.59-13.211-46.656a724.085 724.085 0 0 1-4.182-12.401 7.619 7.619 0 0 0 .756-3.302c0-4.175-3.399-7.567-7.567-7.567s-7.567 3.399-7.567 7.567c0 .116 0 .24.007.357-1.737 1.606-4.49 3.742-8.184 6.337l-73.772 44.349c-10.148 5.061-16.582 7.327-19.294 7.78a7.566 7.566 0 0 0-8.39.707c-4.305-1.092-11.014-4.113-15.896-6.461l-71.869-41.294c-6.894-4.909-11.728-9.853-12.455-11.412-.337-3.879-3.626-6.907-7.54-6.907-4.174 0-7.566 3.399-7.566 7.574 0 1.544.46 3.028 1.332 4.291-.186 1.174-.508 2.513-.955 4.003-6.317 10.986-11.398 24.725-14.295 38.685-3.701 17.831-5.754 45.324 5.527 75.034 7.993 21.052 21.141 39.419 39.083 54.587 15.161 12.812 30.569 20.647 40.93 24.986a7.543 7.543 0 0 0-.048.879c0 4.175 3.399 7.567 7.566 7.567a7.562 7.562 0 0 0 6.516-3.715c10.43 2.603 21.815 3.907 33.329 3.907 10.89 0 21.904-1.167 32.327-3.502 29.326-6.571 54.147-21.656 73.757-44.816 9.716-9.819 14.337-14.913 16.823-17.66l.061-.069c.735-.81 1.284-1.414 1.738-1.888a7.558 7.558 0 0 0 5.596-7.312 7.529 7.529 0 0 0-1.463-4.477c.185-2.142.742-5.321 1.641-9.441 6.997-19.088 9.434-39.186 7.251-59.716l.014-.014Zm-22.556 73.009c-.179.618-2.184 2.815-16.953 9.86l-119.075 50.241c-10.279 3.385-12.929 2.767-13.602 2.101-.446-.447-1.009-2.232.247-9.112l29.567-100.158c4.758-13.307 7.566-15.614 8.809-15.806.158-.028.35-.042.563-.042 1.964 0 6.406 1.154 16.397 5.967l54.367 30.809-.014.028c22.775 12.812 40.209 24.286 39.687 26.112h.007ZM230.988 421.78l124.575-52.561c7.107-2.163 10.856-2.554 12.05-2.616.33.309.687.584 1.065.831-16.981 27.643-39.763 47.102-67.729 57.841-21.19 8.144-45.668 11.014-68.89 8.096-12.414-2.452-12.771-4.127-12.771-4.306 0-.247.563-1.778 11.693-7.278l.007-.007Zm118.402-76.098-79.271-44.92c-9.043-6.111-11.151-9.118-11.329-10.56-.048-.384.041-.693.275-.954 1.95-2.17 9.523-7.423 21.306-14.79l58.397-35.108c4.937-2.554 14.138-6.969 20.537-8.033a7.518 7.518 0 0 0 4.264 1.311c.694 0 1.38-.096 2.046-.281 3.557 2.808 7.382 9.798 9.977 15.195 7.649 18.196 18.36 54.916 4.092 96.45-2.197 4.505-4.786 7.849-6.221 9.524a7.558 7.558 0 0 0-4.696 1.119c-3.77-1.421-10.293-4.435-19.377-8.953Zm-110.08-48.051-30.122 19.81c-4.044 2.252-7.182 3.652-9.338 4.174a7.492 7.492 0 0 0-5.081-1.97 6.84 6.84 0 0 0-.845.048c-1.929-1.861-10.622-14.941-19.308-29.065l-21.937-39.886c-7.437-14.358-8.336-17.585-8.171-18.196 1.284-.68 4.243.941 7.662 2.822.969.529 1.992 1.092 3.028 1.634l80.013 45.984c7.237 5.218 8.315 7.594 8.315 8.548 0 .954-.741 2.87-4.216 6.104v-.007Zm-49.952 34.895a7.485 7.485 0 0 0 2.465 1.668c1.531 2.376 3.461 9.167 5.452 19.157l7.498 47.906c1.174 10.361 1.511 17.66.982 21.148a7.752 7.752 0 0 0-2.074 2.259c-2.43-.254-7.443-2.142-14.172-5.335-21.718-11.714-50.645-33.7-65.14-71.89-11.117-29.291-9.098-56.413-5.445-74.004 1.984-9.545 4.896-18.745 8.651-27.314 4.937-9.153 7.986-11.666 9.675-12.154.247-.068.481-.11.7-.11.344 0 .66.083.962.254 1.4.783 5.788 7.107 12.029 17.338l24.616 44.754c7.443 14.584 11.81 23.97 12.648 27.184a7.55 7.55 0 0 0 1.139 9.139h.014Zm9.112 16.493c-.481-7.196-.412-12.483.206-15.333a7.578 7.578 0 0 0 3.646-6.825c2.279-2.307 7.779-7.024 13.478-11.556l23.242-15.291c5.033-2.699 6.681-2.424 7.21-2.026.144.117.742 1.175-1.263 10.307l-28.969 98.132c-4.168 12.476-5.521 14.296-5.864 14.536-.075-.068-.281-.316-.59-1.105l-11.089-70.839h-.007Z"/>
    </g>
  </g>
  <defs>
    <radialGradient id="b" cx="0" cy="0" r="1" gradientTransform="rotate(-133.877 276.491 88.616) scale(148.597 210.565)" gradientUnits="userSpaceOnUse">
      <stop stop-color="#8AFBED" stop-opacity=".7"/>
      <stop offset=".671" stop-color="#00A3FF" stop-opacity=".457"/>
      <stop offset="1" stop-color="#06F"/>
    </radialGradient>
    <radialGradient id="d" cx="0" cy="0" r="1" gradientTransform="matrix(-.2567 99.98617 -99.66307 -.25587 378.66 202.974)" gradientUnits="userSpaceOnUse">
      <stop stop-color="#2A6BFF"/>
      <stop offset="1" stop-color="#2A6BFF" stop-opacity="0"/>
    </radialGradient>
    <radialGradient id="e" cx="0" cy="0" r="1" gradientTransform="rotate(-157.781 217.541 175.81) scale(131.902 131.658)" gradientUnits="userSpaceOnUse">
      <stop stop-color="#8AFBED" stop-opacity=".6"/>
      <stop offset=".582" stop-color="#00A3FF" stop-opacity=".457"/>
      <stop offset="1" stop-color="#198CF6" stop-opacity=".19"/>
    </radialGradient>
    <radialGradient id="g" cx="0" cy="0" r="1" gradientTransform="matrix(-.30757 54.62563 -119.3841 -.6722 363.061 349.092)" gradientUnits="userSpaceOnUse">
      <stop stop-color="#2A6BFF"/>
      <stop offset="1" stop-color="#2A6BFF" stop-opacity="0"/>
    </radialGradient>
    <radialGradient id="h" cx="0" cy="0" r="1" gradientTransform="matrix(-119.90576 -210.71251 246.78673 -140.43376 197.669 390.797)" gradientUnits="userSpaceOnUse">
      <stop stop-color="#8AFBED" stop-opacity="0"/>
      <stop offset=".671" stop-color="#00A3FF" stop-opacity=".457"/>
      <stop offset="1" stop-color="#198CF6"/>
    </radialGradient>
    <radialGradient id="j" cx="0" cy="0" r="1" gradientTransform="matrix(-.17856 148.4869 -69.35975 -.0834 203.835 195.803)" gradientUnits="userSpaceOnUse">
      <stop stop-color="#2A6BFF"/>
      <stop offset="1" stop-color="#2A6BFF" stop-opacity="0"/>
    </radialGradient>
    <radialGradient id="l" cx="0" cy="0" r="1" gradientTransform="matrix(61.59195 66.3551 -73.32235 68.05906 181.787 218.88)" gradientUnits="userSpaceOnUse">
      <stop stop-color="#2A6BFF"/>
      <stop offset="1" stop-color="#2A6BFF" stop-opacity="0"/>
    </radialGradient>
    <radialGradient id="m" cx="0" cy="0" r="1" gradientTransform="rotate(-137.021 214.922 150.834) scale(103.237 111.565)" gradientUnits="userSpaceOnUse">
      <stop stop-color="#8AFBED" stop-opacity="0"/>
      <stop offset=".449" stop-color="#00A3FF" stop-opacity=".15"/>
      <stop offset="1" stop-color="#198CF6"/>
    </radialGradient>
    <radialGradient id="o" cx="0" cy="0" r="1" gradientTransform="rotate(-142.264 244 138.713) scale(136.311 191.676)" gradientUnits="userSpaceOnUse">
      <stop stop-color="#8AFBED" stop-opacity=".3"/>
      <stop offset=".591" stop-color="#00A3FF" stop-opacity=".657"/>
      <stop offset="1" stop-color="#06F"/>
    </radialGradient>
    <radialGradient id="p" cx="0" cy="0" r="1" gradientTransform="matrix(83.42483 151.401 -364.97165 201.10632 181.1 202.745)" gradientUnits="userSpaceOnUse">
      <stop stop-color="#2A6BFF"/>
      <stop offset="1" stop-color="#2A6BFF" stop-opacity="0"/>
    </radialGradient>
    <radialGradient id="q" cx="0" cy="0" r="1" gradientTransform="matrix(59.0499 2.40369 -6.14487 150.95699 154.695 170.852)" gradientUnits="userSpaceOnUse">
      <stop stop-color="#0085FF"/>
      <stop offset="1" stop-color="#0085FF" stop-opacity="0"/>
    </radialGradient>
    <radialGradient id="r" cx="0" cy="0" r="1" gradientTransform="matrix(-23.81705 124.78237 -94.02885 -17.94717 285.534 98.413)" gradientUnits="userSpaceOnUse">
      <stop stop-color="#FFBFAB"/>
      <stop offset=".365" stop-color="#FF67A8" stop-opacity=".87"/>
      <stop offset=".724" stop-color="#6BAFFF" stop-opacity="0"/>
    </radialGradient>
    <radialGradient id="s" cx="0" cy="0" r="1" gradientTransform="matrix(-45.8309 -29.41727 41.26745 -64.293 277.955 159.554)" gradientUnits="userSpaceOnUse">
      <stop stop-color="#2238FF"/>
      <stop offset="1" stop-color="#0047FF" stop-opacity="0"/>
    </radialGradient>
    <radialGradient id="u" cx="0" cy="0" r="1" gradientTransform="matrix(-150.37177 -24.03182 21.96289 -137.42605 300.916 66.449)" gradientUnits="userSpaceOnUse">
      <stop stop-color="#FFBFAB"/>
      <stop offset=".281" stop-color="#FF67A8" stop-opacity=".87"/>
      <stop offset=".724" stop-color="#6BAFFF" stop-opacity="0"/>
    </radialGradient>
    <radialGradient id="v" cx="0" cy="0" r="1" gradientTransform="matrix(116.38271 96.4719 -98.82486 119.2213 154.665 166.699)" gradientUnits="userSpaceOnUse">
      <stop stop-color="#3448FB"/>
      <stop offset="1" stop-color="#0085FF" stop-opacity="0"/>
    </radialGradient>
    <radialGradient id="x" cx="0" cy="0" r="1" gradientTransform="matrix(-29.59158 225.1134 -119.02307 -15.6458 303.732 100.577)" gradientUnits="userSpaceOnUse">
      <stop stop-color="#FFBFAB"/>
      <stop offset=".365" stop-color="#FF67A8" stop-opacity=".87"/>
      <stop offset=".724" stop-color="#6BAFFF" stop-opacity="0"/>
    </radialGradient>
    <radialGradient id="y" cx="0" cy="0" r="1" gradientTransform="rotate(-137.016 188.675 47.496) scale(77.838 119.807)" gradientUnits="userSpaceOnUse">
      <stop stop-color="#2238FF"/>
      <stop offset="1" stop-color="#0047FF" stop-opacity="0"/>
    </radialGradient>
    <radialGradient id="A" cx="0" cy="0" r="1" gradientTransform="rotate(81.545 110.706 199.037) scale(268.337 118.281)" gradientUnits="userSpaceOnUse">
      <stop stop-color="#FFBFAB"/>
      <stop offset=".365" stop-color="#FF67A8" stop-opacity=".87"/>
      <stop offset=".724" stop-color="#6BAFFF" stop-opacity="0"/>
    </radialGradient>
    <radialGradient id="B" cx="0" cy="0" r="1" gradientTransform="rotate(-124.256 220.887 20.377) scale(96.3654 147.683)" gradientUnits="userSpaceOnUse">
      <stop stop-color="#2238FF"/>
      <stop offset="1" stop-color="#0047FF" stop-opacity="0"/>
    </radialGradient>
    <radialGradient id="D" cx="0" cy="0" r="1" gradientTransform="rotate(117.51 113.298 126.785) scale(187.299 175.328)" gradientUnits="userSpaceOnUse">
      <stop offset=".238" stop-color="#FF1175" stop-opacity=".84"/>
      <stop offset=".51" stop-color="#4E38DA"/>
      <stop offset="1" stop-color="#0E34FF"/>
    </radialGradient>
    <linearGradient id="c" x1="229.954" x2="413.418" y1="90.01" y2="123.772" gradientUnits="userSpaceOnUse">
      <stop stop-color="#2A26FF"/>
      <stop offset="1" stop-color="#00A3FF" stop-opacity="0"/>
    </linearGradient>
    <linearGradient id="f" x1="184.925" x2="380.327" y1="287.376" y2="366.22" gradientUnits="userSpaceOnUse">
      <stop stop-color="#35C2FF"/>
      <stop offset="1" stop-color="#00A3FF" stop-opacity="0"/>
    </linearGradient>
    <linearGradient id="i" x1="100.345" x2="231.374" y1="28.042" y2="39.342" gradientUnits="userSpaceOnUse">
      <stop stop-color="#35C2FF"/>
      <stop offset="1" stop-color="#00A3FF" stop-opacity=".3"/>
    </linearGradient>
    <linearGradient id="k" x1="88.405" x2="287.205" y1="220.94" y2="133.214" gradientUnits="userSpaceOnUse">
      <stop stop-color="#1BBBFF"/>
      <stop offset="1" stop-color="#00A3FF" stop-opacity="0"/>
    </linearGradient>
    <linearGradient id="n" x1="193.802" x2="245.478" y1="312.262" y2="403.71" gradientUnits="userSpaceOnUse">
      <stop stop-color="#35C2FF"/>
      <stop offset="1" stop-color="#00A3FF" stop-opacity="0"/>
    </linearGradient>
    <linearGradient id="t" x1="210.111" x2="243.293" y1="162.246" y2="121.039" gradientUnits="userSpaceOnUse">
      <stop stop-color="#7572FF"/>
      <stop offset=".504" stop-color="#5FC1FE" stop-opacity=".496"/>
      <stop offset="1" stop-color="#29EDFE" stop-opacity="0"/>
    </linearGradient>
    <linearGradient id="w" x1="234.999" x2="190.369" y1="277.93" y2="213.731" gradientUnits="userSpaceOnUse">
      <stop stop-color="#5FC5FF"/>
      <stop offset="1" stop-color="#00A2FF" stop-opacity="0"/>
    </linearGradient>
    <linearGradient id="z" x1="210.025" x2="259.477" y1="215.735" y2="186.632" gradientUnits="userSpaceOnUse">
      <stop stop-color="#29EDFE"/>
      <stop offset="1" stop-color="#29EDFE" stop-opacity="0"/>
    </linearGradient>
    <linearGradient id="F" x1="290.118" x2="251.308" y1="230.355" y2="436.312" gradientUnits="userSpaceOnUse">
      <stop stop-color="#000AFF"/>
      <stop offset=".947" stop-color="#057EFF"/>
      <stop offset="1" stop-color="#0085FF"/>
    </linearGradient>
    <linearGradient id="G" x1="39.203" x2="258.684" y1="198.912" y2="347.845" gradientUnits="userSpaceOnUse">
      <stop stop-color="#5CA5FF"/>
      <stop offset="1" stop-color="#3D94FF" stop-opacity="0"/>
    </linearGradient>
    <clipPath id="C" transform="translate(-103.913 -3.733)">
      <path d="M155.487 210.134c1.723 0 3.392-.59 4.73-1.661 4.093 1.14 10.403 4.065 14.983 6.331l58.583 33.83c3.989 2.897 7.381 7.175 9.537 10.272.941 3.199 3.921 5.424 7.264 5.424 4.175 0 7.567-3.399 7.567-7.567 0-.377-.027-.762-.082-1.14.782-.995 1.881-2.135 3.179-3.309l16.561-9.359c5.788-2.389 9.785-3.234 11.384-3.502a7.505 7.505 0 0 0 4.333 1.36c4.161 0 7.546-3.371 7.567-7.526 4.106-4.229 12.352-9.956 18.546-14.02l9.66-5.487c6.935-3.24 11.941-4.222 13.898-4.504a7.616 7.616 0 0 0 3.495.852c4.174 0 7.566-3.399 7.566-7.567s-3.399-7.574-7.566-7.574c-.412 0-.824.035-1.229.097-1.532-1.003-3.825-3.434-6.633-7.018l-48.044-73.469c-3.831-6.708-6.255-11.549-7.209-14.385a7.552 7.552 0 0 0 1.14-4.003c0-4.236-3.516-7.683-7.759-7.566-3.584-4.244-7.697-8.308-9.867-10.389l-5.349-8.24c-1.435-3.495-2.808-7.422-3.859-10.505a7.513 7.513 0 0 0 1.277-4.209c0-4.175-3.398-7.567-7.566-7.567-4.168 0-7.567 3.4-7.567 7.567 0 .934.165 1.84.495 2.699-1.82 5.3-7.601 16.224-9.998 20.68l-15.675 23.717c-3.234 3.33-6.146 5.122-7.746 5.678a8.06 8.06 0 0 0-.412-.014c-4.174 0-7.566 3.399-7.566 7.567 0 1.614.501 3.152 1.449 4.449-.419 2.397-2.328 6.674-5.658 12.689l-33.226 50.893c-7.045 9.558-10.471 11.412-11.178 11.323l-.371-.048-.041.171c-3.55.659-6.187 3.804-6.187 7.443 0 4.175 3.399 7.567 7.567 7.567l.007.02Zm132.738-15.105c1.298 14.33 2.767 30.575 1.305 31.159-1.84-.392-5.919-2.644-12.112-6.667l-49.252-35.739c-5.074-4.333-8.569-7.794-10.121-10.032a7.779 7.779 0 0 0 .234-1.868 7.56 7.56 0 0 0-.591-2.945c1.346-3.722 4.758-8.768 7.381-12.339l41.74-46.8c5.473-5.342 7.176-6.345 7.698-6.503.075.028.157.055.233.083 1.263 1.352 3.433 10.272 5.685 23.393l6.743 56.249c.35 4.071.707 8.033 1.05 11.81l.021.185-.014.014Zm-19.919 51.174-.02-.034c-.454.233-.962.528-1.504.872-5.939 3.282-10.066 3.536-12.057 3.378a7.508 7.508 0 0 0-4.141-1.236 7.526 7.526 0 0 0-5.74 2.637 32.053 32.053 0 0 1-3.57-1.003l-69.597-40.195c-5.307-3.811-8.377-6.846-8.631-8.514 0-.103-.013-.199-.02-.261 0-.083.007-.158.027-.227.206-.913 1.442-2.719 6.139-6.118l26.435-14.556c5.616-2.328 8.898-3.186 10.025-3.447a7.515 7.515 0 0 0 5.06 1.943 7.566 7.566 0 0 0 4.545-1.517c3.008 1.648 7.547 4.518 13.486 8.541l47.604 34.538c6.296 5.754 9.626 10.155 9.626 12.73 0 .638-.844 2.286-6.454 6.125l-11.199 6.323-.014.021Zm1.305-150.433c-1.627 1.29-4.168 2.65-7.512 4.044l-23.359 6.825c-6.907 1.573-18.765 4.202-21.972 4.484a7.772 7.772 0 0 0-.659-.769c.048-.227.13-.501.247-.804l22.398-33.885c9.173-11.528 12.043-12.77 12.853-12.77 1.69 0 5.033 3.295 9.167 9.014l9.469 14.564c.755 1.723 1.229 3.261 1.4 4.573a7.565 7.565 0 0 0-2.039 4.724h.007Zm-51.456 21.203c1.854-1.607 6.07-3.667 12.188-5.953l33.198-9.709c6.413-1.277 7.038-.646 7.079-.556-.103.597-1.146 2.678-7.051 9.894l-32.485 36.426a648.574 648.574 0 0 0-12.496 12.057c-2.788 2.746-4.628 4.559-5.576 5.266-.123.096-.171.076-.192.069-.165-.076-.996-.755-1.449-6.825l.302-16.589c.824-6.104 2.184-14.467 4.031-19.713a7.578 7.578 0 0 0 2.458-4.36l-.007-.007Zm-8.638 41.177c-.693 3.666-1.634 6.049-1.991 6.873a7.577 7.577 0 0 0-4.024 9.194c-.446.35-.933.707-1.421 1.064l-38.52 21.045c-2.595.872-3.062.467-3.131.378-.013-.021-.24-.467.907-2.952l29.531-45.229c14.001-19.823 16.905-21.786 17.489-21.855.824 1.339 1.359 6.75 1.476 14.872l-.302 16.617-.014-.007Zm129.972 46.739c-.666.762-1.607 1.627-2.788 2.581l-22.274 12.641c-9.029 4.683-14.618 6.839-17.07 6.612a7.991 7.991 0 0 0-1.057-.515c-1.717-2.547-3.907-18.394-6.441-36.72l-.528-3.846-9.647-80.513c.137-1.662.432-1.854.432-1.854.254.082 1.126.666 3.818 4.202l52.994 81.042c2.039 4.539 2.987 8.164 3.385 10.011a7.534 7.534 0 0 0-1.174 4.052c0 .789.123 1.572.364 2.32l-.014-.013Z"/>
    </clipPath>
    <clipPath id="E" transform="translate(-80.2 -183.502)">
      <path d="M387.78 287.428c-2.156-20.276-8.384-36.59-13.211-46.656a724.085 724.085 0 0 1-4.182-12.401 7.619 7.619 0 0 0 .756-3.302c0-4.175-3.399-7.567-7.567-7.567s-7.567 3.399-7.567 7.567c0 .116 0 .24.007.357-1.737 1.606-4.49 3.742-8.184 6.337l-73.772 44.349c-10.148 5.061-16.582 7.327-19.294 7.78a7.566 7.566 0 0 0-8.39.707c-4.305-1.092-11.014-4.113-15.896-6.461l-71.869-41.294c-6.894-4.909-11.728-9.853-12.455-11.412-.337-3.879-3.626-6.907-7.54-6.907-4.174 0-7.566 3.399-7.566 7.574 0 1.544.46 3.028 1.332 4.291-.186 1.174-.508 2.513-.955 4.003-6.317 10.986-11.398 24.725-14.295 38.685-3.701 17.831-5.754 45.324 5.527 75.034 7.993 21.052 21.141 39.419 39.083 54.587 15.161 12.812 30.569 20.647 40.93 24.986a7.543 7.543 0 0 0-.048.879c0 4.175 3.399 7.567 7.566 7.567a7.562 7.562 0 0 0 6.516-3.715c10.43 2.603 21.815 3.907 33.329 3.907 10.89 0 21.904-1.167 32.327-3.502 29.326-6.571 54.147-21.656 73.757-44.816 9.716-9.819 14.337-14.913 16.823-17.66l.061-.069c.735-.81 1.284-1.414 1.738-1.888a7.558 7.558 0 0 0 5.596-7.312 7.529 7.529 0 0 0-1.463-4.477c.185-2.142.742-5.321 1.641-9.441 6.997-19.088 9.434-39.186 7.251-59.716l.014-.014Zm-22.556 73.009c-.179.618-2.184 2.815-16.953 9.86l-119.075 50.241c-10.279 3.385-12.929 2.767-13.602 2.101-.446-.447-1.009-2.232.247-9.112l29.567-100.158c4.758-13.307 7.566-15.614 8.809-15.806.158-.028.35-.042.563-.042 1.964 0 6.406 1.154 16.397 5.967l54.367 30.809-.014.028c22.775 12.812 40.209 24.286 39.687 26.112h.007ZM230.988 421.78l124.575-52.561c7.107-2.163 10.856-2.554 12.05-2.616.33.309.687.584 1.065.831-16.981 27.643-39.763 47.102-67.729 57.841-21.19 8.144-45.668 11.014-68.89 8.096-12.414-2.452-12.771-4.127-12.771-4.306 0-.247.563-1.778 11.693-7.278l.007-.007Zm118.402-76.098-79.271-44.92c-9.043-6.111-11.151-9.118-11.329-10.56-.048-.384.041-.693.275-.954 1.95-2.17 9.523-7.423 21.306-14.79l58.397-35.108c4.937-2.554 14.138-6.969 20.537-8.033a7.518 7.518 0 0 0 4.264 1.311c.694 0 1.38-.096 2.046-.281 3.557 2.808 7.382 9.798 9.977 15.195 7.649 18.196 18.36 54.916 4.092 96.45-2.197 4.505-4.786 7.849-6.221 9.524a7.558 7.558 0 0 0-4.696 1.119c-3.77-1.421-10.293-4.435-19.377-8.953Zm-110.08-48.051-30.122 19.81c-4.044 2.252-7.182 3.652-9.338 4.174a7.492 7.492 0 0 0-5.081-1.97 6.84 6.84 0 0 0-.845.048c-1.929-1.861-10.622-14.941-19.308-29.065l-21.937-39.886c-7.437-14.358-8.336-17.585-8.171-18.196 1.284-.68 4.243.941 7.662 2.822.969.529 1.992 1.092 3.028 1.634l80.013 45.984c7.237 5.218 8.315 7.594 8.315 8.548 0 .954-.741 2.87-4.216 6.104v-.007Zm-49.952 34.895a7.485 7.485 0 0 0 2.465 1.668c1.531 2.376 3.461 9.167 5.452 19.157l7.498 47.906c1.174 10.361 1.511 17.66.982 21.148a7.752 7.752 0 0 0-2.074 2.259c-2.43-.254-7.443-2.142-14.172-5.335-21.718-11.714-50.645-33.7-65.14-71.89-11.117-29.291-9.098-56.413-5.445-74.004 1.984-9.545 4.896-18.745 8.651-27.314 4.937-9.153 7.986-11.666 9.675-12.154.247-.068.481-.11.7-.11.344 0 .66.083.962.254 1.4.783 5.788 7.107 12.029 17.338l24.616 44.754c7.443 14.584 11.81 23.97 12.648 27.184a7.55 7.55 0 0 0 1.139 9.139h.014Zm9.112 16.493c-.481-7.196-.412-12.483.206-15.333a7.578 7.578 0 0 0 3.646-6.825c2.279-2.307 7.779-7.024 13.478-11.556l23.242-15.291c5.033-2.699 6.681-2.424 7.21-2.026.144.117.742 1.175-1.263 10.307l-28.969 98.132c-4.168 12.476-5.521 14.296-5.864 14.536-.075-.068-.281-.316-.59-1.105l-11.089-70.839h-.007Z"/>
    </clipPath>
    <clipPath id="a">
      <rect width="500" height="500" x=".571" fill="#fff" rx="20"/>
    </clipPath>
  </defs>
</svg>
