<svg xmlns="http://www.w3.org/2000/svg" width="501" height="500" fill="none" viewBox="0 0 501 500">
  <g clip-path="url(#a)">
    <g filter="url(#b)" opacity=".5">
      <path fill="url(#c)" d="M307.734 435c73.059 0 132.285-58.879 132.285-131.509 0-27.872-8.722-53.719-23.6-74.99l-109.571 65.574-109.57-62.976c-13.797 20.763-21.829 45.645-21.829 72.392 0 72.63 59.226 131.509 132.285 131.509Z"/>
      <path fill="url(#d)" fill-opacity=".5" d="M307.734 435c73.059 0 132.285-58.879 132.285-131.509 0-27.872-8.722-53.719-23.6-74.99l-109.571 65.574-109.57-62.976c-13.797 20.763-21.829 45.645-21.829 72.392 0 72.63 59.226 131.509 132.285 131.509Z"/>
      <path fill="url(#e)" d="M307.734 435c73.059 0 132.285-58.879 132.285-131.509 0-27.872-8.722-53.719-23.6-74.99l-109.571 65.574-109.57-62.976c-13.797 20.763-21.829 45.645-21.829 72.392 0 72.63 59.226 131.509 132.285 131.509Z"/>
      <path fill="url(#f)" d="M307.734 435c73.059 0 132.285-58.879 132.285-131.509 0-27.872-8.722-53.719-23.6-74.99l-109.571 65.574-109.57-62.976c-13.797 20.763-21.829 45.645-21.829 72.392 0 72.63 59.226 131.509 132.285 131.509Z"/>
      <path fill="url(#g)" d="m214.575 207.468 93.159 53.252V65l-93.159 142.468Z"/>
      <path fill="url(#h)" d="m214.575 207.468 93.159 53.252V65l-93.159 142.468Z"/>
      <path fill="url(#i)" d="m400.738 207.468-93.003 53.252V65l93.003 142.468Z"/>
      <path fill="url(#j)" d="m400.738 207.468-93.003 53.252V65l93.003 142.468Z"/>
      <path fill="url(#k)" fill-opacity=".6" d="m400.738 207.468-93.003 53.252V65l93.003 142.468Z"/>
      <circle cx="306.447" cy="208.115" r="58.669" fill="url(#l)" opacity=".3" style="mix-blend-mode:plus-lighter"/>
      <path fill="url(#m)" d="M249.9 280.475c0-31.957 25.907-57.864 57.864-57.864 31.957 0 57.863 25.907 57.863 57.864v69.039c0 31.958-25.906 57.864-57.863 57.864S249.9 381.472 249.9 349.514v-69.039Z"/>
      <path fill="url(#n)" d="M414.762 320.985c0-54.33-44.044-98.374-98.374-98.374h-8.624v29.456c0 54.33 44.043 98.373 98.373 98.373h8.625v-29.455Z"/>
      <path fill="url(#o)" d="M200.766 320.985c0-54.33 44.043-98.374 98.373-98.374h8.625v29.456c0 54.33-44.044 98.373-98.374 98.373h-8.624v-29.455Z"/>
      <path fill="url(#p)" d="M259.098 182.279c8.552-.103 17.136 3.107 23.661 9.632a32.742 32.742 0 0 1 7.806 12.429c5.074-2.261 10.93-3.551 17.166-3.551 6.25 0 12.118 1.296 17.201 3.567a32.753 32.753 0 0 1 7.813-12.445c6.525-6.525 15.108-9.735 23.66-9.632.102 8.551-3.108 17.135-9.633 23.66a32.793 32.793 0 0 1-10.129 6.905c3.891 4.478 6.17 9.904 6.17 15.752 0 15.358-15.707 27.808-35.082 27.808s-35.082-12.45-35.082-27.808c0-5.854 2.283-11.284 6.181-15.765a32.799 32.799 0 0 1-10.099-6.892c-6.525-6.525-9.735-15.109-9.633-23.66Z"/>
    </g>
    <path fill="url(#q)" d="M249.856 435c73.059 0 132.285-58.879 132.285-131.509 0-27.872-8.722-53.719-23.6-74.99L248.97 294.075 139.4 231.099c-13.797 20.763-21.829 45.645-21.829 72.392 0 72.63 59.226 131.509 132.285 131.509Z"/>
    <path fill="url(#r)" fill-opacity=".5" d="M249.856 435c73.059 0 132.285-58.879 132.285-131.509 0-27.872-8.722-53.719-23.6-74.99L248.97 294.075 139.4 231.099c-13.797 20.763-21.829 45.645-21.829 72.392 0 72.63 59.226 131.509 132.285 131.509Z"/>
    <path fill="url(#s)" d="M249.856 435c73.059 0 132.285-58.879 132.285-131.509 0-27.872-8.722-53.719-23.6-74.99L248.97 294.075 139.4 231.099c-13.797 20.763-21.829 45.645-21.829 72.392 0 72.63 59.226 131.509 132.285 131.509Z"/>
    <path fill="url(#t)" d="m156.697 207.468 93.159 53.252V65l-93.159 142.468Z"/>
    <path fill="url(#u)" d="m156.697 207.468 93.159 53.252V65l-93.159 142.468Z"/>
    <path fill="url(#v)" d="m342.86 207.468-93.003 53.252V65l93.003 142.468Z"/>
    <path fill="url(#w)" d="m342.86 207.468-93.003 53.252V65l93.003 142.468Z"/>
    <path fill="url(#x)" fill-opacity=".6" d="m342.86 207.468-93.003 53.252V65l93.003 142.468Z"/>
    <circle cx="248.569" cy="235.888" r="58.669" fill="url(#y)" opacity=".3" style="mix-blend-mode:color-dodge"/>
    <path fill="url(#z)" d="M249.812 228.83c29.516 10.082 50.869 39.399 50.869 73.995-.001 34.596-21.353 63.911-50.869 73.993-29.517-10.082-50.868-39.398-50.869-73.993 0-34.595 21.352-63.912 50.869-73.995Z"/>
    <path fill="url(#A)" d="M249.812 228.83c29.516 10.082 50.869 39.399 50.869 73.995-.001 34.596-21.353 63.911-50.869 73.993-29.517-10.082-50.868-39.398-50.869-73.993 0-34.595 21.352-63.912 50.869-73.995Z"/>
    <path fill="url(#B)" d="M249.812 228.83c29.516 10.082 50.869 39.399 50.869 73.995-.001 34.596-21.353 63.911-50.869 73.993-29.517-10.082-50.868-39.398-50.869-73.993 0-34.595 21.352-63.912 50.869-73.995Z"/>
    <path fill="url(#C)" d="M269.325 232.067c6.072 4.927 11.355 10.949 15.608 17.797-9.842 2.234-22.364 3.574-35.996 3.574-12.782-.001-24.587-1.178-34.123-3.166 4.217-6.89 9.473-12.957 15.523-17.931 5.705.83 11.993 1.291 18.6 1.291 7.304 0 14.22-.562 20.388-1.565Z"/>
    <path fill="url(#D)" stroke="#000" stroke-width=".082" d="M235.922 217.053c1.834 4.839 3.881 6.451 5.935 8.483.71.817 1.44 2.538-.838.548-5.097-4.451-7.802-9.68-8.452-12.257-.838-3.322.013-5.389 1.065-4.935 1.419.613.456 3.322 2.29 8.161Z"/>
    <path fill="url(#E)" stroke="#000" stroke-width=".082" d="M263.945 217.053c-1.834 4.839-3.881 6.451-5.935 8.483-.71.817-1.44 2.538.838.548 5.097-4.451 7.802-9.68 8.452-12.257.838-3.322-.013-5.389-1.064-4.935-1.42.613-.457 3.322-2.291 8.161Z"/>
    <path fill="url(#F)" d="M262.001 236.601h-24.225v-.001h24.225v.001Zm-15.318-13.221a10.33 10.33 0 0 1 6.379-.002l7.155 2.321a2.581 2.581 0 0 1 1.784 2.455v4.858c-4.148.404-8.532.62-13.064.62-3.365 0-6.647-.12-9.812-.348l-1.349-.104v-5.027c0-1.118.72-2.109 1.783-2.455l7.124-2.318Z"/>
    <path fill="url(#G)" d="M268.003 268.673c-8.378-11.356-1.907-26.941 11.709-30.65a85.618 85.618 0 0 1 3.1-.782c39.541-9.182 78.185 11.659 86.475 46.574-7.345 4.555-15.658 8.046-24.705 10.147-30.628 7.112-60.717-3.788-76.579-25.289Z"/>
    <path fill="url(#H)" d="M268.003 268.673c-8.378-11.356-1.907-26.941 11.709-30.65a85.618 85.618 0 0 1 3.1-.782c39.541-9.182 78.185 11.659 86.475 46.574-7.345 4.555-15.658 8.046-24.705 10.147-30.628 7.112-60.717-3.788-76.579-25.289Z"/>
    <path fill="url(#I)" d="M327.208 334.562c7.988 4.496 16.789-2.076 14.746-11.012-3.749-16.399-11.565-33.476-23.363-49.274-7.645-10.236-16.279-19.022-25.399-26.184-14.183-11.137-31.144 1.53-24.492 18.291 4.278 10.778 10.251 21.552 17.895 31.788 11.798 15.798 25.953 28.141 40.613 36.391Z"/>
    <path fill="url(#J)" d="M231.718 268.673c8.378-11.356 1.908-26.941-11.708-30.65a85.671 85.671 0 0 0-3.101-.782c-39.541-9.182-78.185 11.659-86.475 46.574 7.346 4.555 15.658 8.046 24.706 10.147 30.627 7.112 60.716-3.788 76.578-25.289Z"/>
    <path fill="url(#K)" d="M231.718 268.673c8.378-11.356 1.908-26.941-11.708-30.65a85.671 85.671 0 0 0-3.101-.782c-39.541-9.182-78.185 11.659-86.475 46.574 7.346 4.555 15.658 8.046 24.706 10.147 30.627 7.112 60.716-3.788 76.578-25.289Z"/>
    <path fill="url(#L)" d="M172.513 334.562c-7.988 4.496-16.788-2.076-14.745-11.012 3.749-16.399 11.565-33.476 23.363-49.274 7.644-10.236 16.279-19.022 25.399-26.184 14.183-11.137 31.144 1.53 24.492 18.291-4.278 10.778-10.251 21.552-17.896 31.788-11.798 15.798-25.953 28.141-40.613 36.391Z"/>
  </g>
  <defs>
    <radialGradient id="c" cx="0" cy="0" r="1" gradientTransform="rotate(85.992 6.374 313.78) scale(208.88 279.359)" gradientUnits="userSpaceOnUse">
      <stop stop-color="#8AFBED" stop-opacity="0"/>
      <stop offset=".671" stop-color="#00A3FF" stop-opacity=".457"/>
      <stop offset="1" stop-color="#198CF6"/>
    </radialGradient>
    <radialGradient id="d" cx="0" cy="0" r="1" gradientTransform="matrix(-6.28468 -166.93674 135.8118 -5.11292 314.049 460.966)" gradientUnits="userSpaceOnUse">
      <stop stop-color="#35C2FF"/>
      <stop offset="1" stop-color="#00A3FF" stop-opacity="0"/>
    </radialGradient>
    <radialGradient id="e" cx="0" cy="0" r="1" gradientTransform="matrix(0 -200.203 256.504 0 307.764 567.653)" gradientUnits="userSpaceOnUse">
      <stop stop-color="#3B52FC"/>
      <stop offset="1" stop-color="#3B52FC" stop-opacity="0"/>
    </radialGradient>
    <radialGradient id="f" cx="0" cy="0" r="1" gradientTransform="rotate(-89.263 407.713 81.124) scale(190.096 243.554)" gradientUnits="userSpaceOnUse">
      <stop stop-color="#2A6BFF"/>
      <stop offset="1" stop-color="#2A6BFF" stop-opacity="0"/>
    </radialGradient>
    <radialGradient id="g" cx="0" cy="0" r="1" gradientTransform="rotate(157.682 137.725 111.625) scale(114.472 287.31)" gradientUnits="userSpaceOnUse">
      <stop stop-color="#00A3FF"/>
      <stop offset=".944" stop-color="#00A3FF" stop-opacity=".29"/>
    </radialGradient>
    <radialGradient id="h" cx="0" cy="0" r="1" gradientTransform="matrix(25.86023 130.79298 -241.95892 47.83982 266.457 87.379)" gradientUnits="userSpaceOnUse">
      <stop stop-color="#FF7272"/>
      <stop offset=".18" stop-color="#FF72A7"/>
      <stop offset="1" stop-color="#7A51FF" stop-opacity="0"/>
    </radialGradient>
    <radialGradient id="i" cx="0" cy="0" r="1" gradientTransform="matrix(32.82412 322.7552 -132.92436 13.51837 297.29 71.961)" gradientUnits="userSpaceOnUse">
      <stop stop-color="#FFBFAB"/>
      <stop offset=".365" stop-color="#FF67A8" stop-opacity=".87"/>
      <stop offset=".724" stop-color="#6BAFFF" stop-opacity="0"/>
    </radialGradient>
    <radialGradient id="j" cx="0" cy="0" r="1" gradientTransform="rotate(-50.305 398.895 -212.636) scale(98.8863 149.973)" gradientUnits="userSpaceOnUse">
      <stop stop-color="#2238FF"/>
      <stop offset="1" stop-color="#0047FF" stop-opacity="0"/>
    </radialGradient>
    <radialGradient id="l" cx="0" cy="0" r="1" gradientTransform="rotate(90 59.138 247.309) scale(78.6137)" gradientUnits="userSpaceOnUse">
      <stop stop-color="#fff"/>
      <stop offset="1" stop-color="#fff" stop-opacity="0"/>
    </radialGradient>
    <radialGradient id="m" cx="0" cy="0" r="1" gradientTransform="matrix(0 -212.885 104.52 0 307.764 407.378)" gradientUnits="userSpaceOnUse">
      <stop stop-color="#2241FF"/>
      <stop offset="1" stop-color="#1EA0FF" stop-opacity="0"/>
    </radialGradient>
    <radialGradient id="n" cx="0" cy="0" r="1" gradientTransform="matrix(121.5773 162.13077 -89.5287 67.13506 308.03 218.994)" gradientUnits="userSpaceOnUse">
      <stop stop-color="#2241FF"/>
      <stop offset="1" stop-color="#1EA0FF" stop-opacity="0"/>
    </radialGradient>
    <radialGradient id="o" cx="0" cy="0" r="1" gradientTransform="rotate(126.865 98.994 186.38) scale(202.651 111.904)" gradientUnits="userSpaceOnUse">
      <stop stop-color="#2241FF"/>
      <stop offset="1" stop-color="#1EA0FF" stop-opacity="0"/>
    </radialGradient>
    <radialGradient id="p" cx="0" cy="0" r="1" gradientTransform="matrix(0 165.314 -76.3158 0 307.764 185.914)" gradientUnits="userSpaceOnUse">
      <stop stop-color="#2241FF"/>
      <stop offset="1" stop-color="#1EA0FF" stop-opacity="0"/>
    </radialGradient>
    <radialGradient id="q" cx="0" cy="0" r="1" gradientTransform="scale(338.971 253.453) rotate(90 -.249 .986)" gradientUnits="userSpaceOnUse">
      <stop stop-color="#8AFBED" stop-opacity="0"/>
      <stop offset=".671" stop-color="#00A3FF" stop-opacity=".457"/>
      <stop offset="1" stop-color="#198CF6"/>
    </radialGradient>
    <radialGradient id="r" cx="0" cy="0" r="1" gradientTransform="matrix(0 -276.333 224.812 0 249.886 625.23)" gradientUnits="userSpaceOnUse">
      <stop stop-color="#35C2FF"/>
      <stop offset="1" stop-color="#00A3FF" stop-opacity="0"/>
    </radialGradient>
    <radialGradient id="s" cx="0" cy="0" r="1" gradientTransform="matrix(0 -202.687 259.686 0 249.886 523.962)" gradientUnits="userSpaceOnUse">
      <stop stop-color="#2A6BFF"/>
      <stop offset="1" stop-color="#2A6BFF" stop-opacity="0"/>
    </radialGradient>
    <radialGradient id="t" cx="0" cy="0" r="1" gradientTransform="rotate(157.682 108.786 105.916) scale(114.472 287.31)" gradientUnits="userSpaceOnUse">
      <stop stop-color="#00A3FF"/>
      <stop offset=".944" stop-color="#00A3FF" stop-opacity=".29"/>
    </radialGradient>
    <radialGradient id="u" cx="0" cy="0" r="1" gradientTransform="matrix(25.86023 130.79298 -241.95892 47.83982 208.579 87.379)" gradientUnits="userSpaceOnUse">
      <stop stop-color="#FF7272"/>
      <stop offset=".18" stop-color="#FF72A7"/>
      <stop offset="1" stop-color="#7A51FF" stop-opacity="0"/>
    </radialGradient>
    <radialGradient id="v" cx="0" cy="0" r="1" gradientTransform="matrix(32.82412 322.7552 -132.92436 13.51837 239.414 71.962)" gradientUnits="userSpaceOnUse">
      <stop stop-color="#FFBFAB"/>
      <stop offset=".365" stop-color="#FF67A8" stop-opacity=".87"/>
      <stop offset=".724" stop-color="#6BAFFF" stop-opacity="0"/>
    </radialGradient>
    <radialGradient id="w" cx="0" cy="0" r="1" gradientTransform="rotate(-50.305 369.956 -151.005) scale(98.8863 149.973)" gradientUnits="userSpaceOnUse">
      <stop stop-color="#2238FF"/>
      <stop offset="1" stop-color="#0047FF" stop-opacity="0"/>
    </radialGradient>
    <radialGradient id="y" cx="0" cy="0" r="1" gradientTransform="rotate(90 16.313 232.256) scale(78.6137)" gradientUnits="userSpaceOnUse">
      <stop stop-color="#fff"/>
      <stop offset="1" stop-color="#fff" stop-opacity="0"/>
    </radialGradient>
    <radialGradient id="z" cx="0" cy="0" r="1" gradientTransform="scale(118.748 176.529) rotate(90 .347 1.757)" gradientUnits="userSpaceOnUse">
      <stop stop-color="#2241FF"/>
      <stop offset="1" stop-color="#1EA0FF" stop-opacity="0"/>
    </radialGradient>
    <radialGradient id="A" cx="0" cy="0" r="1" gradientTransform="matrix(0 -101.078 67.9932 0 249.811 403.913)" gradientUnits="userSpaceOnUse">
      <stop stop-color="#2241FF"/>
      <stop offset="1" stop-color="#1EA0FF" stop-opacity="0"/>
    </radialGradient>
    <radialGradient id="B" cx="0" cy="0" r="1" gradientTransform="matrix(0 -207.951 336.286 0 249.811 405.418)" gradientUnits="userSpaceOnUse">
      <stop stop-color="#444462" stop-opacity="0"/>
      <stop offset=".482" stop-color="#3A3959" stop-opacity="0"/>
      <stop offset="1" stop-color="#151537"/>
    </radialGradient>
    <radialGradient id="C" cx="0" cy="0" r="1" gradientTransform="matrix(0 -19.8047 65.5692 0 249.842 253.408)" gradientUnits="userSpaceOnUse">
      <stop stop-color="#444462" stop-opacity=".5"/>
      <stop offset="1" stop-color="#151537"/>
    </radialGradient>
    <radialGradient id="D" cx="0" cy="0" r="1" gradientTransform="matrix(.35638 -30.70393 14.28844 .16585 237.032 239.523)" gradientUnits="userSpaceOnUse">
      <stop stop-color="#444462" stop-opacity=".5"/>
      <stop offset="1" stop-color="#151537"/>
    </radialGradient>
    <radialGradient id="E" cx="0" cy="0" r="1" gradientTransform="matrix(-.35643 -30.70393 14.28844 -.16587 262.835 239.523)" gradientUnits="userSpaceOnUse">
      <stop stop-color="#444462" stop-opacity=".5"/>
      <stop offset="1" stop-color="#151537"/>
    </radialGradient>
    <radialGradient id="F" cx="0" cy="0" r="1" gradientTransform="scale(77.4192 61.4875) rotate(-90 3.92 .693)" gradientUnits="userSpaceOnUse">
      <stop stop-color="#444462" stop-opacity=".5"/>
      <stop offset="1" stop-color="#151537"/>
    </radialGradient>
    <radialGradient id="G" cx="0" cy="0" r="1" gradientTransform="rotate(57.831 -51.362 356.699) scale(140.747 118.944)" gradientUnits="userSpaceOnUse">
      <stop stop-color="#2241FF"/>
      <stop offset="1" stop-color="#1EA0FF" stop-opacity="0"/>
    </radialGradient>
    <radialGradient id="H" cx="0" cy="0" r="1" gradientTransform="rotate(-144.164 226.366 98.378) scale(153.881 272.272)" gradientUnits="userSpaceOnUse">
      <stop stop-color="#444462" stop-opacity="0"/>
      <stop offset=".317" stop-color="#3A3959" stop-opacity="0"/>
      <stop offset="1" stop-color="#151537"/>
    </radialGradient>
    <radialGradient id="I" cx="0" cy="0" r="1" gradientTransform="rotate(-127.946 304.654 117.268) scale(207.833 337.528)" gradientUnits="userSpaceOnUse">
      <stop stop-color="#2241FF"/>
      <stop offset="1" stop-color="#1EA0FF" stop-opacity="0"/>
    </radialGradient>
    <radialGradient id="J" cx="0" cy="0" r="1" gradientTransform="matrix(-37.73566 162.50621 -137.333 -31.89017 184.599 166.894)" gradientUnits="userSpaceOnUse">
      <stop stop-color="#2241FF"/>
      <stop offset="1" stop-color="#1EA0FF" stop-opacity="0"/>
    </radialGradient>
    <radialGradient id="K" cx="0" cy="0" r="1" gradientTransform="matrix(124.75073 -90.09227 159.40632 220.72985 147.44 310.664)" gradientUnits="userSpaceOnUse">
      <stop stop-color="#444462" stop-opacity="0"/>
      <stop offset=".317" stop-color="#3A3959" stop-opacity="0"/>
      <stop offset="1" stop-color="#151537"/>
    </radialGradient>
    <radialGradient id="L" cx="0" cy="0" r="1" gradientTransform="rotate(-52.054 490.008 112.208) scale(207.833 337.528)" gradientUnits="userSpaceOnUse">
      <stop stop-color="#2241FF"/>
      <stop offset="1" stop-color="#1EA0FF" stop-opacity="0"/>
    </radialGradient>
    <linearGradient id="k" x1="401.23" x2="340.06" y1="237.07" y2="209.22" gradientUnits="userSpaceOnUse">
      <stop stop-color="#29EDFE"/>
      <stop offset="1" stop-color="#29EDFE" stop-opacity="0"/>
    </linearGradient>
    <linearGradient id="x" x1="343.352" x2="282.183" y1="237.07" y2="209.22" gradientUnits="userSpaceOnUse">
      <stop stop-color="#29EDFE"/>
      <stop offset="1" stop-color="#29EDFE" stop-opacity="0"/>
    </linearGradient>
    <clipPath id="a">
      <rect width="500" height="500" x=".571" fill="#fff" rx="20"/>
    </clipPath>
    <filter id="b" width="395.734" height="501.164" x="109.867" y="-.582" color-interpolation-filters="sRGB" filterUnits="userSpaceOnUse">
      <feFlood flood-opacity="0" result="BackgroundImageFix"/>
      <feBlend in="SourceGraphic" in2="BackgroundImageFix" result="shape"/>
      <feGaussianBlur result="effect1_foregroundBlur_369_6284" stdDeviation="32.791"/>
    </filter>
  </defs>
</svg>
