<svg xmlns="http://www.w3.org/2000/svg" width="81" height="80" fill="none" viewBox="0 0 81 80">
  <g filter="url(#a)" opacity=".4">
    <path fill="#213147" d="M16.559 32.68v17.64c0 1.127.603 2.169 1.581 2.73l15.322 8.823a3.174 3.174 0 0 0 3.16 0l15.322-8.823a3.148 3.148 0 0 0 1.581-2.73V32.68a3.149 3.149 0 0 0-1.581-2.73l-15.322-8.823a3.174 3.174 0 0 0-3.16 0L18.136 29.95a3.145 3.145 0 0 0-1.577 2.73Z"/>
    <path fill="#12AAFF" d="M38.384 44.922 36.2 50.897a.764.764 0 0 0 0 .513l3.76 10.282 4.348-2.504-5.219-14.266a.374.374 0 0 0-.704 0Zm4.382-10.049a.374.374 0 0 0-.704 0l-2.185 5.975a.763.763 0 0 0 0 .514l6.16 16.832 4.347-2.503-7.618-20.818Z"/>
    <path fill="#9DCCED" d="M35.04 21.788a.67.67 0 0 1 .311.081l16.582 9.547c.192.11.31.318.31.536V51.04a.617.617 0 0 1-.31.536L35.35 61.123a.612.612 0 0 1-.311.081.662.662 0 0 1-.311-.08l-16.582-9.54a.622.622 0 0 1-.31-.536V31.955c0-.221.118-.424.31-.535l16.582-9.547a.625.625 0 0 1 .311-.085Zm0-2.788c-.589 0-1.181.151-1.711.458L16.75 29a3.409 3.409 0 0 0-1.711 2.954v19.09c0 1.218.652 2.345 1.711 2.954l16.582 9.547a3.417 3.417 0 0 0 3.422 0l16.581-9.547a3.409 3.409 0 0 0 1.711-2.954v-19.09A3.409 3.409 0 0 0 53.336 29L36.75 19.458A3.417 3.417 0 0 0 35.04 19Z"/>
    <path fill="#213147" d="M24.073 58.217 25.6 54.05l3.07 2.544-2.87 2.615-1.726-.993Z"/>
    <path fill="#12AAFF" d="M33.644 30.589H29.44a.748.748 0 0 0-.704.491l-9.01 24.633 4.347 2.504 9.922-27.126a.372.372 0 0 0-.351-.502Zm7.355 0h-4.204a.748.748 0 0 0-.703.491l-10.29 28.126 4.349 2.504 11.2-30.619a.375.375 0 0 0-.352-.502Z"/>
  </g>
  <path fill="#213147" d="M21.559 30.68v17.64c0 1.127.603 2.169 1.581 2.73l15.322 8.823a3.174 3.174 0 0 0 3.16 0l15.322-8.823a3.148 3.148 0 0 0 1.581-2.73V30.68a3.149 3.149 0 0 0-1.581-2.73l-15.322-8.823a3.174 3.174 0 0 0-3.16 0L23.136 27.95a3.145 3.145 0 0 0-1.577 2.73Z"/>
  <path fill="#12AAFF" d="M43.384 42.922 41.2 48.897a.764.764 0 0 0 0 .513l3.76 10.282 4.348-2.504-5.219-14.266a.374.374 0 0 0-.704 0Zm4.382-10.049a.374.374 0 0 0-.704 0l-2.185 5.975a.763.763 0 0 0 0 .514l6.16 16.832 4.347-2.503-7.618-20.818Z"/>
  <path fill="#9DCCED" d="M40.04 19.788a.67.67 0 0 1 .311.081l16.582 9.547c.192.11.31.318.31.536V49.04a.617.617 0 0 1-.31.536L40.35 59.123a.612.612 0 0 1-.311.081.662.662 0 0 1-.311-.08l-16.582-9.54a.622.622 0 0 1-.31-.536V29.955c0-.221.118-.424.31-.535l16.582-9.547a.625.625 0 0 1 .311-.085Zm0-2.788c-.589 0-1.181.151-1.711.458L21.75 27a3.409 3.409 0 0 0-1.711 2.954v19.09c0 1.218.652 2.345 1.711 2.954l16.582 9.547a3.417 3.417 0 0 0 3.422 0l16.581-9.547a3.409 3.409 0 0 0 1.711-2.954v-19.09A3.409 3.409 0 0 0 58.336 27L41.75 17.458A3.417 3.417 0 0 0 40.04 17Z"/>
  <path fill="#213147" d="M29.073 56.217 30.6 52.05l3.07 2.544-2.87 2.615-1.726-.993Z"/>
  <path fill="#fff" d="M38.644 28.589H34.44a.748.748 0 0 0-.704.491l-9.01 24.633 4.347 2.504 9.922-27.126a.372.372 0 0 0-.351-.502Zm7.355 0h-4.204a.748.748 0 0 0-.703.491l-10.29 28.126 4.349 2.504 11.2-30.619a.375.375 0 0 0-.352-.502Z"/>
  <defs>
    <filter id="a" width="56.007" height="61.004" x="7.04" y="11" color-interpolation-filters="sRGB" filterUnits="userSpaceOnUse">
      <feFlood flood-opacity="0" result="BackgroundImageFix"/>
      <feBlend in="SourceGraphic" in2="BackgroundImageFix" result="shape"/>
      <feGaussianBlur result="effect1_foregroundBlur_52_17187" stdDeviation="4"/>
    </filter>
  </defs>
</svg>
