<svg xmlns="http://www.w3.org/2000/svg" width="80" height="80" fill="none" viewBox="0 0 80 80">
  <path fill="#E6007A" d="M40.245 61.136c4.141 0 7.498-1.953 7.498-4.361 0-2.409-3.357-4.36-7.498-4.36-4.14 0-7.497 1.951-7.497 4.36 0 2.408 3.357 4.36 7.498 4.36ZM58.25 50.741c2.07-3.586 2.058-7.469-.027-8.673-2.086-1.204-5.455.727-7.526 4.313-2.07 3.586-2.058 7.469.028 8.673 2.085 1.204 5.454-.727 7.525-4.313ZM40.245 28.279c4.141 0 7.498-1.953 7.498-4.361 0-2.409-3.357-4.36-7.498-4.36-4.14 0-7.497 1.951-7.497 4.36 0 2.408 3.357 4.36 7.498 4.36Zm-10.448 6.036c2.07-3.586 2.057-7.47-.03-8.675-2.087-1.205-5.457.725-7.528 4.311-2.07 3.587-2.057 7.47.03 8.675 2.087 1.205 5.458-.725 7.528-4.31Zm-.029 20.738c2.087-1.205 2.1-5.089.03-8.675-2.07-3.586-5.441-5.516-7.528-4.311-2.087 1.205-2.1 5.089-.03 8.675 2.07 3.586 5.44 5.516 7.528 4.311Zm28.456-16.426c2.086-1.204 2.098-5.087.028-8.674-2.071-3.586-5.44-5.517-7.526-4.312-2.085 1.204-2.098 5.087-.027 8.673 2.07 3.586 5.44 5.517 7.525 4.313Z"/>
  <g filter="url(#a)" opacity=".4">
    <path fill="#E6007A" d="M43.755 56.578c4.141 0 7.498-1.952 7.498-4.36 0-2.409-3.357-4.361-7.498-4.361-4.14 0-7.498 1.952-7.498 4.36 0 2.41 3.357 4.361 7.498 4.361ZM61.76 46.184c2.07-3.586 2.058-7.47-.028-8.673-2.085-1.205-5.454.726-7.525 4.313-2.07 3.586-2.058 7.469.027 8.673 2.086 1.204 5.455-.727 7.526-4.313ZM43.755 23.721c4.141 0 7.498-1.952 7.498-4.36 0-2.409-3.357-4.361-7.498-4.361-4.14 0-7.498 1.952-7.498 4.36 0 2.41 3.357 4.361 7.498 4.361Zm-10.448 6.037c2.07-3.586 2.057-7.47-.03-8.675-2.087-1.205-5.458.725-7.528 4.311-2.07 3.586-2.057 7.47.03 8.675 2.087 1.205 5.457-.725 7.528-4.311Zm-.03 20.738c2.087-1.205 2.1-5.089.03-8.675-2.07-3.586-5.44-5.516-7.528-4.311-2.087 1.205-2.1 5.089-.03 8.675 2.07 3.586 5.441 5.516 7.528 4.311ZM61.734 34.07c2.085-1.204 2.098-5.088.027-8.674-2.07-3.586-5.44-5.517-7.525-4.313-2.086 1.205-2.098 5.088-.028 8.674 2.07 3.586 5.44 5.517 7.526 4.313Z"/>
  </g>
  <defs>
    <filter id="a" width="67.101" height="69.578" x="10.205" y="1" color-interpolation-filters="sRGB" filterUnits="userSpaceOnUse">
      <feFlood flood-opacity="0" result="BackgroundImageFix"/>
      <feBlend in="SourceGraphic" in2="BackgroundImageFix" result="shape"/>
      <feGaussianBlur result="effect1_foregroundBlur_52_24265" stdDeviation="7"/>
    </filter>
  </defs>
</svg>
