<svg xmlns="http://www.w3.org/2000/svg" width="81" height="80" fill="none" viewBox="0 0 81 80">
  <g clip-path="url(#a)">
    <path fill="#000" fill-rule="evenodd" d="M34.14 13.125c-7.797 0-14.118 6.32-14.118 14.118V41.36c0 7.054 5.173 12.9 11.933 13.95 1.05 6.76 6.895 11.933 13.95 11.933 7.796 0 14.117-6.321 14.117-14.118V39.007c0-7.053-5.173-12.9-11.933-13.95-1.05-6.759-6.895-11.932-13.95-11.932Zm13.95 11.933a14.23 14.23 0 0 0-2.186-.168c-7.797 0-14.117 6.32-14.117 14.117v14.118c0 .743.057 1.473.168 2.185.712.11 1.442.168 2.185.168 7.797 0 14.117-6.32 14.117-14.118V27.243c0-.743-.057-1.473-.168-2.185Z" clip-rule="evenodd"/>
    <g filter="url(#b)" opacity=".4">
      <path fill="#000" fill-rule="evenodd" d="M34.14 10.125c-7.797 0-14.118 6.32-14.118 14.118V38.36c0 7.054 5.173 12.9 11.933 13.95 1.05 6.76 6.895 11.933 13.95 11.933 7.796 0 14.117-6.321 14.117-14.118V36.007c0-7.053-5.173-12.9-11.933-13.95-1.05-6.759-6.895-11.932-13.95-11.932Zm13.95 11.933a14.23 14.23 0 0 0-2.186-.168c-7.797 0-14.117 6.32-14.117 14.117v14.118c0 .743.057 1.473.168 2.185.712.11 1.442.168 2.185.168 7.797 0 14.117-6.32 14.117-14.118V24.243c0-.743-.057-1.473-.168-2.185Z" clip-rule="evenodd"/>
    </g>
  </g>
  <defs>
    <clipPath id="a">
      <path fill="#fff" d="M.022 0h80v80h-80z"/>
    </clipPath>
    <filter id="b" width="68" height="82.118" x="6.022" y="-3.875" color-interpolation-filters="sRGB" filterUnits="userSpaceOnUse">
      <feFlood flood-opacity="0" result="BackgroundImageFix"/>
      <feBlend in="SourceGraphic" in2="BackgroundImageFix" result="shape"/>
      <feGaussianBlur result="effect1_foregroundBlur_52_21051" stdDeviation="7"/>
    </filter>
  </defs>
</svg>
