<svg xmlns="http://www.w3.org/2000/svg" width="80" height="80" fill="none" viewBox="0 0 80 80">
  <g clip-path="url(#a)">
    <g filter="url(#b)" opacity=".6">
      <path fill="url(#c)" d="M30.202 22.07a7.28 7.28 0 0 0-6.099 1.985A6.953 6.953 0 0 0 22.072 28c-.048.33-.072.664-.072.998v17.998c0 .334.024.668.072.998a6.953 6.953 0 0 0 2.03 3.949 7.281 7.281 0 0 0 6.1 1.986 7.281 7.281 0 0 0 4.055-1.982A6.953 6.953 0 0 0 36.293 48c.048-.33.072-.664.072-.998V29c0-.334-.024-.668-.072-.998a6.953 6.953 0 0 0-2.036-3.95 7.281 7.281 0 0 0-4.055-1.981Zm0 2.025a5.2 5.2 0 0 1 2.606 1.368A4.981 4.981 0 0 1 34.213 28h-4.011v-3.906Zm-2.05 0v3.906h-4.008a4.978 4.978 0 0 1 1.403-2.538 5.197 5.197 0 0 1 2.605-1.368Zm-4.11 5.902h4.11V34h-4.11v-4.003Zm0 5.998h4.11v4.006h-4.11v-4.006Zm0 6.001h4.11V46h-4.11v-4.003Zm4.11 9.905a5.197 5.197 0 0 1-2.605-1.368 4.978 4.978 0 0 1-1.403-2.538h4.009v3.906Zm2.05 0v-3.906h4.01a4.981 4.981 0 0 1-1.404 2.538 5.2 5.2 0 0 1-2.606 1.368Zm4.113-5.902h-4.113v-4.003h4.113V46Zm0-5.998h-4.113v-4.006h4.113v4.006Zm0-6.001h-4.113v-4.003h4.113V34Zm30.724-6a6.953 6.953 0 0 0-2.036-3.948 7.281 7.281 0 0 0-4.055-1.982 7.554 7.554 0 0 0-2.05 0 7.281 7.281 0 0 0-4.054 1.982 6.952 6.952 0 0 0-2.035 3.949c-.047.33-.071.664-.071.998v17.998c0 .334.024.668.071.998a6.952 6.952 0 0 0 2.034 3.95 7.281 7.281 0 0 0 4.055 1.985c.68.093 1.37.093 2.05 0a7.28 7.28 0 0 0 4.056-1.983 6.954 6.954 0 0 0 2.035-3.952c.048-.33.072-.664.072-.998V29c0-.334-.024-.668-.072-.998Zm-6.091-3.905a5.2 5.2 0 0 1 2.606 1.368A4.982 4.982 0 0 1 62.96 28h-4.011v-3.906Zm-2.05 0v3.906H52.89a4.978 4.978 0 0 1 1.403-2.538 5.196 5.196 0 0 1 2.605-1.368Zm-4.11 5.902h4.11V34h-4.11v-4.003Zm0 5.998h4.11v4.006h-4.11v-4.006Zm0 6.001h4.11V46h-4.11v-4.003Zm4.11 9.905a5.196 5.196 0 0 1-2.605-1.368 4.977 4.977 0 0 1-1.403-2.538h4.008v3.906Zm2.05 0v-3.906h4.01a4.982 4.982 0 0 1-1.404 2.538 5.2 5.2 0 0 1-2.606 1.368Zm4.113-5.902h-4.113v-4.003h4.113V46Zm0-5.998h-4.113v-4.006h4.113v4.006Zm0-6.001h-4.113v-4.003h4.113V34Zm-24.643-.998h4.1v3.991h-4.1v-3.991Zm6.163 0h4.1v3.991h-4.1v-3.991Zm-6.163 6h4.1v3.992h-4.1v-3.991Zm6.163 0h4.1v3.992h-4.1v-3.991Z"/>
    </g>
    <path fill="url(#d)" d="M26.202 24.07a7.28 7.28 0 0 0-6.099 1.985A6.953 6.953 0 0 0 18.072 30c-.048.33-.072.664-.072.998v17.998c0 .334.024.668.072.998a6.953 6.953 0 0 0 2.03 3.949 7.281 7.281 0 0 0 6.1 1.986 7.281 7.281 0 0 0 4.055-1.982A6.953 6.953 0 0 0 32.293 50c.048-.33.072-.664.072-.998V31c0-.334-.024-.668-.072-.998a6.953 6.953 0 0 0-2.036-3.95 7.281 7.281 0 0 0-4.055-1.981Zm0 2.025a5.2 5.2 0 0 1 2.606 1.368A4.981 4.981 0 0 1 30.213 30h-4.011v-3.906Zm-2.05 0v3.906h-4.008a4.978 4.978 0 0 1 1.403-2.538 5.197 5.197 0 0 1 2.605-1.368Zm-4.11 5.902h4.11V36h-4.11v-4.003Zm0 5.998h4.11v4.006h-4.11v-4.006Zm0 6.001h4.11V48h-4.11v-4.003Zm4.11 9.905a5.197 5.197 0 0 1-2.605-1.368 4.978 4.978 0 0 1-1.403-2.538h4.009v3.906Zm2.05 0v-3.906h4.01a4.981 4.981 0 0 1-1.404 2.538 5.2 5.2 0 0 1-2.606 1.368Zm4.113-5.902h-4.113v-4.003h4.113V48Zm0-5.998h-4.113v-4.006h4.113v4.006Zm0-6.001h-4.113v-4.003h4.113V36Zm30.724-6a6.953 6.953 0 0 0-2.036-3.948 7.281 7.281 0 0 0-4.055-1.982 7.554 7.554 0 0 0-2.05 0 7.281 7.281 0 0 0-4.054 1.982 6.952 6.952 0 0 0-2.035 3.949c-.047.33-.071.664-.071.998v17.998c0 .334.024.668.071.998a6.952 6.952 0 0 0 2.034 3.95 7.281 7.281 0 0 0 4.055 1.985c.68.093 1.37.093 2.05 0a7.28 7.28 0 0 0 4.056-1.983 6.954 6.954 0 0 0 2.035-3.952c.048-.33.072-.664.072-.998V31c0-.334-.024-.668-.072-.998Zm-6.091-3.905a5.2 5.2 0 0 1 2.606 1.368A4.982 4.982 0 0 1 58.96 30h-4.011v-3.906Zm-2.05 0v3.906H48.89a4.978 4.978 0 0 1 1.403-2.538 5.196 5.196 0 0 1 2.605-1.368Zm-4.11 5.902h4.11V36h-4.11v-4.003Zm0 5.998h4.11v4.006h-4.11v-4.006Zm0 6.001h4.11V48h-4.11v-4.003Zm4.11 9.905a5.196 5.196 0 0 1-2.605-1.368 4.977 4.977 0 0 1-1.403-2.538h4.008v3.906Zm2.05 0v-3.906h4.01a4.982 4.982 0 0 1-1.404 2.538 5.2 5.2 0 0 1-2.606 1.368Zm4.113-5.902h-4.113v-4.003h4.113V48Zm0-5.998h-4.113v-4.006h4.113v4.006Zm0-6.001h-4.113v-4.003h4.113V36Zm-24.643-.998h4.1v3.991h-4.1v-3.991Zm6.163 0h4.1v3.991h-4.1v-3.991Zm-6.163 6h4.1v3.992h-4.1v-3.991Zm6.163 0h4.1v3.992h-4.1v-3.991Z"/>
  </g>
  <defs>
    <linearGradient id="c" x1="15.66" x2="52.309" y1="56.263" y2=".433" gradientUnits="userSpaceOnUse">
      <stop stop-color="#F0F"/>
      <stop offset=".463" stop-color="#7A84FF"/>
      <stop offset="1" stop-color="#05FAFF"/>
    </linearGradient>
    <linearGradient id="d" x1="11.66" x2="48.309" y1="58.263" y2="2.433" gradientUnits="userSpaceOnUse">
      <stop stop-color="#F0F"/>
      <stop offset=".463" stop-color="#7A84FF"/>
      <stop offset="1" stop-color="#05FAFF"/>
    </linearGradient>
    <clipPath id="a">
      <path fill="#fff" d="M0 0h80v80H0z"/>
    </clipPath>
    <filter id="b" width="73.11" height="62" x="7" y="7" color-interpolation-filters="sRGB" filterUnits="userSpaceOnUse">
      <feFlood flood-opacity="0" result="BackgroundImageFix"/>
      <feBlend in="SourceGraphic" in2="BackgroundImageFix" result="shape"/>
      <feGaussianBlur result="effect1_foregroundBlur_52_21726" stdDeviation="7.5"/>
    </filter>
  </defs>
</svg>
