<svg xmlns="http://www.w3.org/2000/svg" width="80" height="80" fill="none" viewBox="0 0 80 80">
  <g filter="url(#a)" opacity=".7">
    <path fill="#fff" d="M53.905 38.346c-2.49-1.851-3.35-5.191-2.095-8.037 2.87-6.507 4.015-11.377 2.604-12.19-1.413-.814-5.017 2.638-9.16 8.413-1.812 2.525-5.115 3.467-7.964 2.242-7.234-3.11-12.93-4.084-14.082-2.067-1.58 2.767 6 10.117 16.93 16.413.406.234.81.46 1.212.685l.037.022s-2.66-1.16-5.481-.863a.649.649 0 0 0-.51.37C31.75 51 30.133 56.972 31.71 57.883c1.621.933 6.128-3.75 11.021-11.112a2.222 2.222 0 0 1 2.82-.775c8.688 4.224 15.925 5.817 17.24 3.515 1.151-2.017-2.562-6.464-8.89-11.165h.003Z"/>
    <path fill="url(#b)" d="M53.905 38.346c-2.49-1.851-3.35-5.191-2.095-8.037 2.87-6.507 4.015-11.377 2.604-12.19-1.413-.814-5.017 2.638-9.16 8.413-1.812 2.525-5.115 3.467-7.964 2.242-7.234-3.11-12.93-4.084-14.082-2.067-1.58 2.767 6 10.117 16.93 16.413.406.234.81.46 1.212.685l.037.022s-2.66-1.16-5.481-.863a.649.649 0 0 0-.51.37C31.75 51 30.133 56.972 31.71 57.883c1.621.933 6.128-3.75 11.021-11.112a2.222 2.222 0 0 1 2.82-.775c8.688 4.224 15.925 5.817 17.24 3.515 1.151-2.017-2.562-6.464-8.89-11.165h.003Z"/>
  </g>
  <path fill="#fff" d="M49.905 41.346c-2.49-1.851-3.35-5.191-2.095-8.037 2.87-6.507 4.015-11.377 2.604-12.19-1.413-.814-5.017 2.638-9.16 8.413-1.812 2.525-5.115 3.467-7.964 2.242-7.234-3.11-12.93-4.084-14.082-2.067-1.58 2.767 6 10.117 16.93 16.413.406.234.81.46 1.212.685l.037.022s-2.66-1.16-5.482-.863a.649.649 0 0 0-.51.37C27.75 54 26.134 59.972 27.712 60.883c1.621.933 6.128-3.75 11.021-11.112a2.222 2.222 0 0 1 2.82-.775c8.688 4.224 15.925 5.817 17.24 3.515 1.151-2.017-2.562-6.464-8.89-11.165h.003Z"/>
  <path fill="url(#c)" d="M49.905 41.346c-2.49-1.851-3.35-5.191-2.095-8.037 2.87-6.507 4.015-11.377 2.604-12.19-1.413-.814-5.017 2.638-9.16 8.413-1.812 2.525-5.115 3.467-7.964 2.242-7.234-3.11-12.93-4.084-14.082-2.067-1.58 2.767 6 10.117 16.93 16.413.406.234.81.46 1.212.685l.037.022s-2.66-1.16-5.482-.863a.649.649 0 0 0-.51.37C27.75 54 26.134 59.972 27.712 60.883c1.621.933 6.128-3.75 11.021-11.112a2.222 2.222 0 0 1 2.82-.775c8.688 4.224 15.925 5.817 17.24 3.515 1.151-2.017-2.562-6.464-8.89-11.165h.003Z"/>
  <defs>
    <linearGradient id="b" x1="43" x2="43" y1="94.093" y2="40.426" gradientUnits="userSpaceOnUse">
      <stop stop-color="#fff"/>
      <stop offset="1" stop-color="#190B6D"/>
    </linearGradient>
    <linearGradient id="c" x1="39" x2="39" y1="97.093" y2="43.426" gradientUnits="userSpaceOnUse">
      <stop stop-color="#fff"/>
      <stop offset="1" stop-color="#190B6D"/>
    </linearGradient>
    <filter id="a" width="68" height="68" x="9" y="4" color-interpolation-filters="sRGB" filterUnits="userSpaceOnUse">
      <feFlood flood-opacity="0" result="BackgroundImageFix"/>
      <feBlend in="SourceGraphic" in2="BackgroundImageFix" result="shape"/>
      <feGaussianBlur result="effect1_foregroundBlur_52_21828" stdDeviation="7"/>
    </filter>
  </defs>
</svg>
