<svg xmlns="http://www.w3.org/2000/svg" width="80" height="80" fill="none" viewBox="0 0 80 80">
  <g clip-path="url(#a)">
    <path fill="#000" d="M53.561 38.134a2.977 2.977 0 0 1 0-4.125 2.78 2.78 0 0 1 4.01 0 2.977 2.977 0 0 1 0 4.125 2.78 2.78 0 0 1-4.01 0ZM44.04 47.93a2.233 2.233 0 0 1 0-3.094 2.085 2.085 0 0 1 3.007 0c.83.854.83 2.24 0 3.093a2.084 2.084 0 0 1-3.007 0Zm15.035-5.157a2.233 2.233 0 0 1 0-3.093 2.085 2.085 0 0 1 3.007 0c.83.854.83 2.239 0 3.093a2.085 2.085 0 0 1-3.007 0Zm-5.011 5.157a2.232 2.232 0 0 1 0-3.094 2.084 2.084 0 0 1 3.007 0c.83.854.83 2.24 0 3.093a2.084 2.084 0 0 1-3.007 0Zm10.524-.516a1.488 1.488 0 0 1 0-2.063 1.39 1.39 0 0 1 2.005 0c.554.57.554 1.493 0 2.063a1.39 1.39 0 0 1-2.005 0Zm-5.012 5.156a1.488 1.488 0 0 1 0-2.062 1.39 1.39 0 0 1 2.005 0c.554.57.554 1.492 0 2.062a1.39 1.39 0 0 1-2.005 0ZM48.55 43.29a2.976 2.976 0 0 1 0-4.125 2.78 2.78 0 0 1 4.009 0 2.976 2.976 0 0 1 0 4.125 2.78 2.78 0 0 1-4.01 0Zm0-10.312a2.977 2.977 0 0 1 0-4.126 2.78 2.78 0 0 1 4.009 0 2.977 2.977 0 0 1 0 4.126 2.78 2.78 0 0 1-4.01 0Zm-5.012 5.156a2.977 2.977 0 0 1 0-4.125 2.78 2.78 0 0 1 4.01 0 2.977 2.977 0 0 1 0 4.125 2.78 2.78 0 0 1-4.01 0Zm-10.07 0a2.977 2.977 0 0 1 0-4.125 2.78 2.78 0 0 1 4.009 0 2.977 2.977 0 0 1 0 4.125 2.78 2.78 0 0 1-4.01 0Zm-9.523 9.797a2.232 2.232 0 0 1 0-3.094 2.084 2.084 0 0 1 3.007 0c.83.854.83 2.24 0 3.093a2.084 2.084 0 0 1-3.007 0Zm15.035-5.157a2.232 2.232 0 0 1 0-3.093 2.084 2.084 0 0 1 3.008 0c.83.854.83 2.239 0 3.093a2.084 2.084 0 0 1-3.008 0Zm-5.011 5.157a2.232 2.232 0 0 1 0-3.094 2.084 2.084 0 0 1 3.007 0c.83.854.83 2.24 0 3.093a2.084 2.084 0 0 1-3.007 0Zm-19.547-.516a1.488 1.488 0 0 1 0-2.063 1.39 1.39 0 0 1 2.005 0c.554.57.554 1.493 0 2.063a1.39 1.39 0 0 1-2.005 0Zm5.012 5.156a1.488 1.488 0 0 1 0-2.062 1.39 1.39 0 0 1 2.005 0c.554.57.554 1.492 0 2.062a1.39 1.39 0 0 1-2.005 0Zm20.048 0a1.488 1.488 0 0 1 0-2.062 1.39 1.39 0 0 1 2.004 0c.554.57.554 1.492 0 2.062a1.39 1.39 0 0 1-2.004 0Zm-20.549-9.797a2.232 2.232 0 0 1 0-3.093 2.084 2.084 0 0 1 3.007 0c.83.854.83 2.239 0 3.093a2.084 2.084 0 0 1-3.007 0Zm9.523.516a2.976 2.976 0 0 1 0-4.125 2.78 2.78 0 0 1 4.01 0 2.976 2.976 0 0 1 0 4.125 2.78 2.78 0 0 1-4.01 0Zm0-10.312a2.977 2.977 0 0 1 0-4.126 2.78 2.78 0 0 1 4.01 0 2.976 2.976 0 0 1 0 4.126 2.78 2.78 0 0 1-4.01 0Zm-5.012 5.156a2.977 2.977 0 0 1 0-4.125 2.78 2.78 0 0 1 4.01 0 2.977 2.977 0 0 1 0 4.125 2.78 2.78 0 0 1-4.01 0Z"/>
    <g filter="url(#b)" opacity=".5">
      <path fill="#000" d="M55.591 35.512a2.481 2.481 0 0 1 0-3.465 2.377 2.377 0 0 1 3.404 0c.94.957.94 2.508 0 3.465a2.377 2.377 0 0 1-3.404 0Zm-8.085 8.23a1.86 1.86 0 0 1 0-2.6 1.783 1.783 0 0 1 2.553 0 1.86 1.86 0 0 1 0 2.6 1.783 1.783 0 0 1-2.553 0Zm12.766-4.332a1.86 1.86 0 0 1 0-2.599 1.783 1.783 0 0 1 2.553 0 1.86 1.86 0 0 1 0 2.6 1.783 1.783 0 0 1-2.553 0Zm-4.255 4.331a1.86 1.86 0 0 1 0-2.598 1.783 1.783 0 0 1 2.553 0 1.86 1.86 0 0 1 0 2.598 1.783 1.783 0 0 1-2.553 0Zm8.936-.433a1.24 1.24 0 0 1 0-1.732 1.189 1.189 0 0 1 1.702 0 1.24 1.24 0 0 1 0 1.732 1.189 1.189 0 0 1-1.702 0Zm-4.256 4.331a1.24 1.24 0 0 1 0-1.732 1.189 1.189 0 0 1 1.702 0 1.24 1.24 0 0 1 0 1.733 1.189 1.189 0 0 1-1.702 0Zm-9.361-7.796a2.481 2.481 0 0 1 0-3.465 2.377 2.377 0 0 1 3.404 0c.94.957.94 2.508 0 3.465a2.377 2.377 0 0 1-3.404 0Zm0-8.662a2.481 2.481 0 0 1 0-3.465 2.378 2.378 0 0 1 3.404 0c.94.957.94 2.508 0 3.465a2.378 2.378 0 0 1-3.404 0Zm-4.256 4.331a2.481 2.481 0 0 1 0-3.465 2.378 2.378 0 0 1 3.405 0c.94.957.94 2.508 0 3.465a2.378 2.378 0 0 1-3.405 0Zm-8.55 0a2.481 2.481 0 0 1 0-3.465 2.377 2.377 0 0 1 3.404 0c.94.957.94 2.508 0 3.465a2.377 2.377 0 0 1-3.404 0Zm-8.085 8.23a1.86 1.86 0 0 1 0-2.6 1.783 1.783 0 0 1 2.553 0 1.86 1.86 0 0 1 0 2.6 1.783 1.783 0 0 1-2.553 0ZM43.21 39.41a1.86 1.86 0 0 1 0-2.599 1.783 1.783 0 0 1 2.553 0 1.86 1.86 0 0 1 0 2.6 1.783 1.783 0 0 1-2.553 0Zm-4.255 4.331a1.86 1.86 0 0 1 0-2.598 1.783 1.783 0 0 1 2.553 0 1.86 1.86 0 0 1 0 2.598 1.783 1.783 0 0 1-2.553 0Zm-16.596-.433a1.24 1.24 0 0 1 0-1.732 1.189 1.189 0 0 1 1.702 0 1.24 1.24 0 0 1 0 1.732 1.189 1.189 0 0 1-1.702 0Zm4.255 4.331a1.24 1.24 0 0 1 0-1.732 1.189 1.189 0 0 1 1.702 0 1.24 1.24 0 0 1 0 1.733 1.189 1.189 0 0 1-1.702 0Zm17.021 0a1.24 1.24 0 0 1 0-1.732 1.189 1.189 0 0 1 1.703 0 1.24 1.24 0 0 1 0 1.733 1.189 1.189 0 0 1-1.703 0ZM26.19 39.41a1.86 1.86 0 0 1 0-2.599 1.783 1.783 0 0 1 2.553 0 1.86 1.86 0 0 1 0 2.6 1.783 1.783 0 0 1-2.553 0Zm8.085.433a2.481 2.481 0 0 1 0-3.465 2.378 2.378 0 0 1 3.404 0c.94.957.94 2.508 0 3.465a2.378 2.378 0 0 1-3.404 0Zm0-8.662a2.481 2.481 0 0 1 0-3.465 2.378 2.378 0 0 1 3.404 0c.94.957.94 2.508 0 3.465a2.378 2.378 0 0 1-3.404 0Zm-4.256 4.331a2.481 2.481 0 0 1 0-3.465 2.377 2.377 0 0 1 3.405 0c.94.957.94 2.508 0 3.465a2.377 2.377 0 0 1-3.405 0Z"/>
    </g>
  </g>
  <defs>
    <clipPath id="a">
      <path fill="#fff" d="M.007-.002h80v80h-80z"/>
    </clipPath>
    <filter id="b" width="73" height="49" x="8.007" y="12.998" color-interpolation-filters="sRGB" filterUnits="userSpaceOnUse">
      <feFlood flood-opacity="0" result="BackgroundImageFix"/>
      <feBlend in="SourceGraphic" in2="BackgroundImageFix" result="shape"/>
      <feGaussianBlur result="effect1_foregroundBlur_52_23786" stdDeviation="7"/>
    </filter>
  </defs>
</svg>
