<svg xmlns="http://www.w3.org/2000/svg" width="81" height="80" fill="none" viewBox="0 0 81 80">
  <g filter="url(#a)" opacity=".6">
    <path fill="#79DEB8" d="m35.41 39.178 4.018 4.018-6.956 6.95a5.329 5.329 0 0 1-3.784 1.568 5.313 5.313 0 0 1-3.78-1.568 5.347 5.347 0 0 1 0-7.567l7.412-7.41-11.73-11.724a5.328 5.328 0 0 1-1.565-3.783 5.35 5.35 0 0 1 9.132-3.783l11.466 11.463-4.244 4.243a5.35 5.35 0 0 0 0 7.562l.015.016c.008.004.012.012.016.015Z"/>
    <path fill="#508CF7" d="M60.025 50.875a5.353 5.353 0 0 1-9.132 3.783L39.428 43.195l4.24-4.243a5.343 5.343 0 0 0 0-7.562c0-.008-.008-.012-.015-.016 0-.004-.008-.012-.012-.016l-4.018-4.017 6.952-6.95a5.335 5.335 0 0 1 3.783-1.568 5.35 5.35 0 0 1 3.784 9.13l-7.412 7.415 11.727 11.724a5.333 5.333 0 0 1 1.568 3.783Z"/>
  </g>
  <path fill="#79DEB8" d="m35.41 44.645 4.018 4.017-6.956 6.95a5.329 5.329 0 0 1-3.784 1.568 5.313 5.313 0 0 1-3.78-1.568 5.347 5.347 0 0 1 0-7.566l7.412-7.41-11.73-11.724a5.328 5.328 0 0 1-1.565-3.783 5.35 5.35 0 0 1 9.132-3.783l11.466 11.462-4.244 4.244a5.35 5.35 0 0 0 .015 7.578c.008.003.012.011.016.015Z"/>
  <path fill="#21195B" d="m43.669 44.419-4.24 4.243-4.019-4.017s-.008-.012-.016-.016c0-.003-.007-.007-.015-.015a5.35 5.35 0 0 1 0-7.563l4.244-4.243 4.018 4.017.012.016a5.343 5.343 0 0 1 .016 7.578Z"/>
  <path fill="#508CF7" d="M60.025 56.342a5.353 5.353 0 0 1-9.132 3.783L39.428 48.662l4.24-4.243a5.343 5.343 0 0 0 0-7.563c0-.007-.008-.011-.015-.015 0-.004-.008-.012-.012-.016l-4.018-4.017 6.952-6.95a5.335 5.335 0 0 1 3.783-1.568 5.35 5.35 0 0 1 3.784 9.13l-7.412 7.414 11.727 11.724a5.333 5.333 0 0 1 1.568 3.784Z"/>
  <defs>
    <filter id="a" width="59" height="59.912" x="10.025" y="5.311" color-interpolation-filters="sRGB" filterUnits="userSpaceOnUse">
      <feFlood flood-opacity="0" result="BackgroundImageFix"/>
      <feBlend in="SourceGraphic" in2="BackgroundImageFix" result="shape"/>
      <feGaussianBlur result="effect1_foregroundBlur_52_24764" stdDeviation="4.5"/>
    </filter>
  </defs>
</svg>
