<svg xmlns="http://www.w3.org/2000/svg" width="80" height="80" fill="none" viewBox="0 0 80 80">
  <g filter="url(#a)" opacity=".4">
    <path fill="url(#b)" fill-rule="evenodd" d="m54.59 20.352-11.592 11.62L35 30.173l9.795-9.824 8.163-8.073a.959.959 0 0 1 1.633.682v7.393Zm-9.795 19.59 9.796-9.769v-9.821l-11.363 11.39 1.567 8.2Z" clip-rule="evenodd"/>
    <path fill="url(#c)" fill-rule="evenodd" d="M44.795 49.681v-9.794l9.796-9.795 3.76 6.036.144-.145 5.891 3.904L46.43 57.718a.96.96 0 0 1-1.635-.68v-7.357Z" clip-rule="evenodd"/>
    <path fill="#8C8CFF" d="M35 30.173h6.298a3.498 3.498 0 0 1 3.497 3.498v6.27h-6.297A3.498 3.498 0 0 1 35 36.444v-6.27Zm19.59 0h6.299a3.497 3.497 0 0 1 3.497 3.498v6.27h-6.298a3.498 3.498 0 0 1-3.497-3.497v-6.27Z"/>
  </g>
  <path fill="url(#d)" fill-rule="evenodd" d="M45.814 23.273 32.576 36.542l-9.134-2.052 11.186-11.22 9.321-9.22a1.096 1.096 0 0 1 1.865.779v8.444Zm-11.186 22.37 11.186-11.155V23.273L32.839 36.28l1.789 9.362Z" clip-rule="evenodd"/>
  <path fill="url(#e)" fill-rule="evenodd" d="M34.628 56.766V45.582l11.186-11.186 4.294 6.893.165-.166L57 45.582 36.495 65.945a1.096 1.096 0 0 1-1.867-.777v-8.402Z" clip-rule="evenodd"/>
  <path fill="#8C8CFF" d="M23.442 34.489h7.192a3.994 3.994 0 0 1 3.994 3.994v7.16h-7.192a3.994 3.994 0 0 1-3.994-3.993v-7.161Zm22.372 0h7.192A3.994 3.994 0 0 1 57 38.483v7.16h-7.192a3.994 3.994 0 0 1-3.994-3.993v-7.161Z"/>
  <defs>
    <linearGradient id="b" x1="44.795" x2="44.795" y1="11.998" y2="39.941" gradientUnits="userSpaceOnUse">
      <stop stop-color="#747BFF"/>
      <stop offset="1" stop-color="#C9CCFF"/>
    </linearGradient>
    <linearGradient id="c" x1="54.591" x2="54.591" y1="30.09" y2="57.999" gradientUnits="userSpaceOnUse">
      <stop offset=".261" stop-color="#6E66FA"/>
      <stop offset="1" stop-color="#3524DD"/>
    </linearGradient>
    <linearGradient id="d" x1="34.628" x2="34.628" y1="13.733" y2="45.643" gradientUnits="userSpaceOnUse">
      <stop stop-color="#747BFF"/>
      <stop offset="1" stop-color="#C9CCFF"/>
    </linearGradient>
    <linearGradient id="e" x1="45.814" x2="45.814" y1="34.394" y2="66.265" gradientUnits="userSpaceOnUse">
      <stop offset=".261" stop-color="#6E66FA"/>
      <stop offset="1" stop-color="#3524DD"/>
    </linearGradient>
    <filter id="a" width="53.386" height="69.997" x="23" y="0" color-interpolation-filters="sRGB" filterUnits="userSpaceOnUse">
      <feFlood flood-opacity="0" result="BackgroundImageFix"/>
      <feBlend in="SourceGraphic" in2="BackgroundImageFix" result="shape"/>
      <feGaussianBlur result="effect1_foregroundBlur_52_24767" stdDeviation="6"/>
    </filter>
  </defs>
</svg>
