<svg xmlns="http://www.w3.org/2000/svg" width="81" height="80" fill="none" viewBox="0 0 81 80">
  <g clip-path="url(#a)">
    <g filter="url(#b)">
      <path fill="#75FB6E" d="M40.017 16.12v-.08l.37-.319h5.715V13h-5.714l-.854.81v1.129l-.401.32h-.062c.334.272.626.578.946.86Z"/>
      <path fill="#75FB6E" d="M39.226 15.221h-1.13l-.768.813v1.085l.769.81h1.13l.809-.81v-1.085l-.81-.813ZM42.97 31.25h-1.13l-.769.813v2.831l.769.81h1.13l.809-.81v-2.83l-.81-.814Zm-3.77 4.512h-1.13l-.768.81v1.084l.768.813h1.13l.81-.813v-1.085l-.81-.81Zm14.738 0h-1.13l-.765.81v1.084l.765.813h1.13l.812-.813v-1.085l-.813-.81Z"/>
      <path fill="#75FB6E" d="m38.206 16.962-.81.096-.238.302-1.122.13-2.721 3.445.132 1.123-.316.384.078.7.878-.101.245-.286 1.122-.13 2.69-3.441-.132-1.11.286-.33-.092-.782Zm-5.028 13.522.813.095.238.303 1.119.13 2.721 3.445-.133 1.122.32.385-.082.7-.877-.102-.245-.285-1.122-.13-2.688-3.442.13-1.109-.286-.33.092-.782Z"/>
      <path fill="#75FB6E" d="m33.77 21.865-.584.568-.007.384-.81.786-.064 6.429.789.81-.02.503.493.503.632-.612.02-.378.81-.786.041-6.408-.775-.8.023-.435-.547-.564Zm18.293-5.745v-.08l-.37-.319h-5.725V13h5.714l.854.81v1.129l.401.32H53c-.324.272-.616.578-.936.86Z"/>
      <path fill="#75FB6E" d="M52.852 15.221h1.13l.768.813v1.085l-.768.81h-1.13l-.809-.81v-1.085l.81-.813Zm-3.741 16.048h1.13l.768.813v2.815l-.769.81h-1.129l-.81-.81v-2.815l.81-.813Z"/>
      <path fill="#75FB6E" d="m53.872 16.962.81.096.241.302 1.12.13 2.72 3.445-.132 1.123.32.384-.082.7-.878-.101-.245-.286-1.122-.13-2.687-3.441.13-1.11-.287-.33.092-.782ZM58.9 30.484l-.809.095-.238.303-1.123.13-2.717 3.445.129 1.122-.32.385.082.7.877-.102.245-.285 1.123-.13 2.69-3.442-.13-1.109.283-.33-.091-.782Z"/>
      <path fill="#75FB6E" d="m58.308 21.865.589.568.003.384.81.786.064 6.429-.79.81.021.503-.49.503-.632-.612-.024-.378-.81-.786-.04-6.408.775-.8-.023-.435.547-.564ZM30.22 33.488h-1.13l-.768.813v1.085l.769.81h1.13l.809-.81V34.3l-.81-.813Z"/>
      <path fill="#75FB6E" d="m29.756 35.449-.585.571-.006.381-.81.79-.061 5.04.785.81-.016.5.493.408.63-.514.02-.377.809-.786.044-5.024-.779-.8.027-.435-.55-.564Zm-6.731-5.265.14 1.122 3.99 3.086 1.122-.143.388.316.697-.088-.109-.874-.285-.242-.14-1.122-3.986-3.055-1.106.14-.71.86Z"/>
      <path fill="#75FB6E" d="m39.243 38.87-.02-.423-.562-.55-.575.584.004.385-.646.656-.143.143v5.633l-.347.333H31.32l-.333-.333v-1.13l-.8-.795H29.06l-.765.796v1.129l.765.769h1.13l.363.36v1.13l.77.768h5.632l.796-.769v-1.129l.36-.36h1.133l.765-.77v-5.632l-.765-.796Zm22.588-5.382h1.13l.768.813v1.085l-.769.81h-1.129l-.81-.81V34.3l.81-.813Z"/>
      <path fill="#75FB6E" d="m62.291 35.449.589.571.007.381.81.79.06 5.04-.785.81.017.5-.494.408-.629-.514-.02-.377-.813-.786-.04-5.024.778-.8-.027-.435.547-.564Zm6.735-5.265-.143 1.122-3.986 3.086-1.123-.143-.388.316-.7-.088.112-.874.285-.242.14-1.122 3.986-3.055 1.106.14.71.86Z"/>
      <path fill="#75FB6E" d="m52.808 38.87.02-.423.562-.55.575.584-.007.385.65.656.142.143v5.633l.347.333h5.633l.333-.333v-1.13l.796-.795h1.13l.768.796v1.129l-.768.769h-1.13l-.36.36v1.13l-.769.768h-5.633l-.796-.769v-1.129l-.364-.36h-1.129l-.765-.77v-5.632l.765-.796Zm-8.334 8.895-.01-.007.014-1.102-.79-.806-1.129-.01-.805.789-.01 1.099-.337.36-1.116-.01-5.368 5.245-.01 1.13.79.775 1.129.013 5.367-5.248.01-1.102.323-.357 1.075.01.867-.779Z"/>
      <path fill="#75FB6E" d="m34.912 54.451-.353.337h-5.637l-.33-.333v-1.13l-.799-.796h-1.13l-.765.796v1.13l.766.765h1.129l.364.364v1.129l.765.769h5.637l.795-.769v-1.13l.36-.363h.015l-.817-.769Zm12.753-6.686.006-.007-.01-1.102.79-.806 1.129-.01.802.789.01 1.099.337.36 1.116-.01 5.367 5.245.014 1.13-.79.775-1.128.013-5.368-5.248-.013-1.102-.32-.357-1.078.01-.864-.779Z"/>
      <path fill="#75FB6E" d="m57.226 54.451.354.337h5.633l.333-.333v-1.13l.796-.796h1.13l.768.796v1.13l-.769.765h-1.129l-.36.364v1.129l-.77.769H57.58l-.796-.769v-1.13l-.364-.363h-.01l.816-.769Z"/>
    </g>
    <path fill="#111" d="M34.017 21.12v-.08l.37-.319h5.715V18h-5.714l-.854.81v1.129l-.401.32h-.062c.334.272.626.578.946.86Z"/>
    <path fill="#111" d="M33.226 20.221h-1.13l-.768.813v1.085l.769.81h1.13l.809-.81v-1.085l-.81-.813ZM36.97 36.25h-1.13l-.769.813v2.831l.769.81h1.13l.809-.81v-2.83l-.81-.813Zm-3.77 4.512h-1.13l-.768.81v1.084l.768.813h1.13l.81-.813v-1.085l-.81-.81Zm14.738 0h-1.13l-.765.81v1.084l.765.813h1.13l.812-.813v-1.085l-.813-.81Z"/>
    <path fill="#111" d="m32.206 21.962-.81.096-.238.302-1.122.13-2.721 3.445.132 1.123-.316.384.078.7.878-.101.245-.286 1.122-.13 2.69-3.441-.132-1.11.286-.33-.092-.782Zm-5.028 13.522.813.095.238.303 1.119.13 2.721 3.445-.133 1.122.32.385-.082.7-.877-.102-.245-.285-1.122-.13-2.688-3.442.13-1.109-.286-.33.092-.782Z"/>
    <path fill="#111" d="m27.77 26.865-.584.568-.007.384-.81.786-.064 6.429.789.81-.02.502.493.504.632-.612.02-.378.81-.786.041-6.408-.775-.8.023-.435-.547-.564Zm18.293-5.745v-.08l-.37-.319h-5.725V18h5.714l.854.81v1.129l.401.32H47c-.324.272-.616.578-.936.86Z"/>
    <path fill="#111" d="M46.852 20.221h1.13l.768.813v1.085l-.768.81h-1.13l-.809-.81v-1.085l.81-.813Zm-3.741 16.048h1.13l.768.813v2.815l-.769.81h-1.129l-.81-.81v-2.815l.81-.813Z"/>
    <path fill="#111" d="m47.872 21.962.81.096.241.302 1.12.13 2.72 3.445-.132 1.123.32.384-.082.7-.878-.101-.245-.286-1.122-.13-2.687-3.441.13-1.11-.287-.33.092-.782ZM52.9 35.484l-.809.095-.238.303-1.123.13-2.717 3.445.129 1.122-.32.385.082.7.877-.102.245-.285 1.123-.13 2.69-3.442-.13-1.109.283-.33-.091-.782Z"/>
    <path fill="#111" d="m52.308 26.865.589.568.003.384.81.786.064 6.429-.79.81.021.502-.49.504-.632-.612-.024-.378-.81-.786-.04-6.408.775-.8-.023-.435.547-.564ZM24.22 38.488h-1.13l-.768.813v1.085l.769.81h1.13l.809-.81V39.3l-.81-.813Z"/>
    <path fill="#111" d="m23.756 40.449-.585.571-.006.381-.81.79-.061 5.04.785.81-.016.5.493.408.63-.514.02-.377.809-.786.044-5.024-.779-.8.027-.435-.55-.564Zm-6.731-5.265.14 1.123 3.99 3.085 1.122-.143.388.316.697-.088-.109-.874-.285-.242-.14-1.122-3.986-3.055-1.106.14-.71.86Z"/>
    <path fill="#111" d="m33.243 43.87-.02-.423-.562-.55-.575.584.004.385-.646.656-.143.143v5.633l-.347.333H25.32l-.333-.333v-1.13l-.8-.795H23.06l-.765.796v1.129l.765.769h1.13l.363.36v1.13l.77.768h5.632l.796-.769v-1.129l.36-.36h1.133l.765-.77v-5.632l-.765-.796Zm22.588-5.382h1.13l.768.813v1.085l-.769.81h-1.129l-.81-.81V39.3l.81-.813Z"/>
    <path fill="#111" d="m56.291 40.449.589.571.007.381.81.79.06 5.04-.785.81.017.5-.494.408-.629-.514-.02-.377-.813-.786-.04-5.024.778-.8-.027-.435.547-.564Zm6.735-5.265-.143 1.123-3.986 3.085-1.123-.143-.388.316-.7-.088.112-.874.285-.242.14-1.122 3.986-3.055 1.106.14.71.86Z"/>
    <path fill="#111" d="m46.808 43.87.02-.423.562-.55.575.584-.007.385.65.656.142.143v5.633l.347.333h5.633l.333-.333v-1.13l.796-.795h1.13l.768.796v1.129l-.768.769h-1.13l-.36.36v1.13l-.769.768h-5.633l-.796-.769v-1.129l-.364-.36h-1.129l-.765-.77v-5.632l.765-.796Zm-8.334 8.895-.01-.007.014-1.102-.79-.806-1.129-.01-.805.789-.01 1.099-.337.36-1.116-.01-5.368 5.245-.01 1.13.79.775 1.129.013 5.367-5.248.01-1.102.323-.357 1.075.01.867-.779Z"/>
    <path fill="#111" d="m28.912 59.451-.354.337h-5.636l-.33-.333v-1.13l-.799-.796h-1.13l-.765.796v1.13l.766.765h1.129l.364.364v1.129l.765.769h5.636l.796-.769v-1.13l.36-.363h.015l-.817-.769Zm12.753-6.686.006-.007-.01-1.102.79-.806 1.129-.01.802.789.01 1.099.337.36 1.116-.01 5.367 5.245.014 1.13-.79.775-1.128.013-5.368-5.248-.013-1.102-.32-.357-1.078.01-.864-.779Z"/>
    <path fill="#111" d="m51.226 59.451.354.337h5.633l.333-.333v-1.13l.796-.796h1.13l.768.796v1.13l-.769.765h-1.129l-.36.364v1.129l-.77.769H51.58l-.796-.769v-1.13l-.364-.363h-.01l.816-.769Z"/>
  </g>
  <defs>
    <clipPath id="a">
      <path fill="#fff" d="M.025 0h80.004v80H.025z"/>
    </clipPath>
    <filter id="b" width="74" height="72.481" x="9.025" y="-1" color-interpolation-filters="sRGB" filterUnits="userSpaceOnUse">
      <feFlood flood-opacity="0" result="BackgroundImageFix"/>
      <feBlend in="SourceGraphic" in2="BackgroundImageFix" result="shape"/>
      <feGaussianBlur result="effect1_foregroundBlur_52_25150" stdDeviation="7"/>
    </filter>
  </defs>
</svg>
