<svg xmlns="http://www.w3.org/2000/svg" width="80" height="80" fill="none" viewBox="0 0 80 80">
  <g clip-path="url(#a)">
    <g filter="url(#b)" opacity=".4">
      <path fill="#F40" d="M43.195 52.816c-1.041 0-2.06.307-2.927.88a5.235 5.235 0 0 0-1.94 2.345 5.18 5.18 0 0 0-.3 3.017 5.209 5.209 0 0 0 1.442 2.675 5.283 5.283 0 0 0 2.697 1.429 5.312 5.312 0 0 0 3.045-.297 5.259 5.259 0 0 0 2.364-1.924 5.191 5.191 0 0 0-.655-6.595 5.291 5.291 0 0 0-3.726-1.53Zm19.541-21.178a5.305 5.305 0 0 0-2.928.88 5.233 5.233 0 0 0-1.94 2.344 5.18 5.18 0 0 0-.3 3.018 5.21 5.21 0 0 0 1.442 2.674 5.282 5.282 0 0 0 2.698 1.43 5.311 5.311 0 0 0 3.044-.298 5.26 5.26 0 0 0 2.364-1.923 5.192 5.192 0 0 0-.655-6.596 5.292 5.292 0 0 0-3.725-1.53Zm-39.463 0a5.3 5.3 0 0 0-2.927.88 5.233 5.233 0 0 0-1.941 2.344 5.18 5.18 0 0 0-.3 3.018 5.21 5.21 0 0 0 1.442 2.674 5.282 5.282 0 0 0 2.698 1.43 5.31 5.31 0 0 0 3.044-.298 5.26 5.26 0 0 0 2.364-1.923 5.192 5.192 0 0 0-.655-6.596 5.293 5.293 0 0 0-3.725-1.53ZM43.198 19.88a5.302 5.302 0 0 0 2.93-.875 5.234 5.234 0 0 0 1.945-2.342 5.18 5.18 0 0 0 .304-3.019 5.206 5.206 0 0 0-1.439-2.677 5.283 5.283 0 0 0-2.698-1.432 5.311 5.311 0 0 0-3.045.295 5.26 5.26 0 0 0-2.366 1.924 5.19 5.19 0 0 0 .65 6.592 5.292 5.292 0 0 0 3.72 1.534Zm11.985 23.727a9.99 9.99 0 0 1-2.942-7.074 9.99 9.99 0 0 1 2.942-7.073 5.21 5.21 0 0 0 1.436-2.675 5.179 5.179 0 0 0-.303-3.015 5.232 5.232 0 0 0-1.94-2.34 5.3 5.3 0 0 0-5.85 0 5.232 5.232 0 0 0-1.941 2.34 5.183 5.183 0 0 0-.304 3.015 5.212 5.212 0 0 0 1.436 2.675 9.998 9.998 0 0 1 2.212 3.256 9.932 9.932 0 0 1-2.212 10.954 5.21 5.21 0 0 0-1.436 2.675 5.183 5.183 0 0 0 .304 3.015 5.231 5.231 0 0 0 1.94 2.34 5.3 5.3 0 0 0 5.85 0 5.23 5.23 0 0 0 1.94-2.34c.4-.953.506-2.002.304-3.015a5.208 5.208 0 0 0-1.436-2.675v-.063Zm-15.166 3.045a5.262 5.262 0 0 0-1.514-3.669 9.99 9.99 0 0 1-2.943-7.074 9.99 9.99 0 0 1 2.943-7.073 5.208 5.208 0 0 0 1.436-2.675 5.18 5.18 0 0 0-.303-3.015 5.232 5.232 0 0 0-1.94-2.34 5.301 5.301 0 0 0-5.85 0 5.234 5.234 0 0 0-1.942 2.34 5.183 5.183 0 0 0 1.133 5.69 10 10 0 0 1 2.208 3.254 9.928 9.928 0 0 1 0 7.691 9.997 9.997 0 0 1-2.208 3.255 5.215 5.215 0 0 0-1.297 2.182 5.181 5.181 0 0 0 .994 4.815 5.265 5.265 0 0 0 2.058 1.5 5.309 5.309 0 0 0 4.932-.493 5.238 5.238 0 0 0 1.715-1.878c.407-.756.62-1.6.621-2.457l-.043-.053Z"/>
    </g>
    <path fill="#F40" d="M40.195 56.383c-1.041 0-2.06.306-2.927.88a5.235 5.235 0 0 0-1.94 2.344 5.18 5.18 0 0 0-.3 3.018 5.209 5.209 0 0 0 1.442 2.674 5.283 5.283 0 0 0 2.697 1.43 5.31 5.31 0 0 0 3.045-.298 5.258 5.258 0 0 0 2.364-1.924 5.19 5.19 0 0 0-.655-6.594 5.292 5.292 0 0 0-3.726-1.53Zm19.541-21.179a5.305 5.305 0 0 0-2.928.88 5.233 5.233 0 0 0-1.94 2.344 5.18 5.18 0 0 0-.3 3.018 5.21 5.21 0 0 0 1.442 2.674 5.282 5.282 0 0 0 2.698 1.43 5.311 5.311 0 0 0 3.044-.297 5.26 5.26 0 0 0 2.364-1.924 5.192 5.192 0 0 0-.655-6.595 5.292 5.292 0 0 0-3.725-1.53Zm-39.463 0a5.3 5.3 0 0 0-2.927.88 5.233 5.233 0 0 0-1.941 2.344 5.18 5.18 0 0 0-.3 3.018 5.21 5.21 0 0 0 1.442 2.674 5.282 5.282 0 0 0 2.698 1.43 5.31 5.31 0 0 0 3.044-.297 5.26 5.26 0 0 0 2.364-1.924 5.192 5.192 0 0 0-.655-6.595 5.293 5.293 0 0 0-3.725-1.53Zm19.925-11.758a5.302 5.302 0 0 0 2.93-.875 5.233 5.233 0 0 0 1.945-2.342 5.18 5.18 0 0 0 .304-3.018 5.206 5.206 0 0 0-1.439-2.677A5.283 5.283 0 0 0 41.24 13.1a5.311 5.311 0 0 0-3.045.296 5.26 5.26 0 0 0-2.366 1.923 5.19 5.19 0 0 0 .65 6.593 5.292 5.292 0 0 0 3.72 1.533Zm11.985 23.727a9.99 9.99 0 0 1-2.942-7.073 9.99 9.99 0 0 1 2.942-7.074 5.21 5.21 0 0 0 1.436-2.675 5.179 5.179 0 0 0-.303-3.015 5.232 5.232 0 0 0-1.94-2.34 5.302 5.302 0 0 0-5.85 0 5.232 5.232 0 0 0-1.941 2.34 5.183 5.183 0 0 0-.304 3.016 5.212 5.212 0 0 0 1.436 2.674 9.997 9.997 0 0 1 2.212 3.256 9.931 9.931 0 0 1-2.212 10.955 5.21 5.21 0 0 0-1.436 2.674 5.183 5.183 0 0 0 .304 3.016 5.231 5.231 0 0 0 1.94 2.34 5.3 5.3 0 0 0 5.85 0 5.23 5.23 0 0 0 1.94-2.34c.4-.954.506-2.003.304-3.016a5.208 5.208 0 0 0-1.436-2.674v-.064Zm-15.166 3.045a5.262 5.262 0 0 0-1.514-3.669 9.99 9.99 0 0 1-2.943-7.073 9.99 9.99 0 0 1 2.943-7.074 5.208 5.208 0 0 0 1.436-2.675 5.18 5.18 0 0 0-.303-3.015 5.232 5.232 0 0 0-1.94-2.34 5.301 5.301 0 0 0-5.85 0 5.234 5.234 0 0 0-1.942 2.34 5.183 5.183 0 0 0 1.133 5.69 10 10 0 0 1 2.208 3.255 9.928 9.928 0 0 1 0 7.69 9.997 9.997 0 0 1-2.208 3.255 5.215 5.215 0 0 0-1.297 2.182 5.181 5.181 0 0 0 .994 4.815 5.265 5.265 0 0 0 2.058 1.5 5.309 5.309 0 0 0 4.932-.493 5.238 5.238 0 0 0 1.715-1.878c.407-.756.62-1.6.621-2.457l-.043-.053Z"/>
  </g>
  <defs>
    <clipPath id="a">
      <path fill="#fff" d="M.004 0h80.004v80H.004z"/>
    </clipPath>
    <filter id="b" width="80.001" height="83.829" x="3.004" y="-5.566" color-interpolation-filters="sRGB" filterUnits="userSpaceOnUse">
      <feFlood flood-opacity="0" result="BackgroundImageFix"/>
      <feBlend in="SourceGraphic" in2="BackgroundImageFix" result="shape"/>
      <feGaussianBlur result="effect1_foregroundBlur_52_25561" stdDeviation="7.5"/>
    </filter>
  </defs>
</svg>
