<svg xmlns="http://www.w3.org/2000/svg" width="80" height="80" fill="none" viewBox="0 0 80 80">
  <g filter="url(#a)" opacity=".35">
    <path fill="#E543FF" fill-rule="evenodd" d="m35.138 24.676 2.197-3.222h3.425l-2.198 3.222h-3.424Zm11.917-3.222v2.788h9.432v.434H44.226v-3.222h2.83Zm7.495 9.666-2.145 3.223h-3.399l2.145-3.222h3.399Zm-20.383 0h-3.145v3.223h10.375v-2.535h-7.698l.468-.687Zm4.4 12.89v-3.222h2.83v3.223h-2.83Zm9.549-3.222-2.145 3.223h-3.399l2.145-3.223h3.399Z" clip-rule="evenodd"/>
    <path fill="#E543FF" fill-rule="evenodd" d="M48.931 16.372v-4.586l-2.583 3.789-7.136 10.464h3.424L40.44 29.26h-3.425l-1.737 2.547h3.425l7.4-10.851v5.082h2.83v2.788-12.455ZM31.73 37.01l1.82-2.668h3.424l-1.398 2.05h7.698v5.362l-1.502 2.257h1.502v6.35l12.449-18.704h-2.33l.357-.536h-3.4l-.356.536h-3.891v-2.395h12.26v-.435h2.642l-1.463 2.199-16.505 24.799-2.593 3.895V44.01h.152v-3.222h-.152v-1.565H30.221l1.508-2.212Z" clip-rule="evenodd"/>
    <path fill="#E543FF" fill-rule="evenodd" d="m34.336 24.676 2.198-3.222h3.425l-2.198 3.222h-3.425Zm11.918-3.222v2.788h9.432v.434H43.425v-3.222h2.829Zm7.494 9.666-2.145 3.223h-3.398l2.144-3.222h3.4Zm-20.382 0H30.22v3.223h10.375v-2.535h-7.697l.468-.687Zm4.4 12.89v-3.222h2.83v3.223h-2.83Zm9.548-3.222-2.145 3.223h-3.398l2.144-3.223h3.399Z" clip-rule="evenodd"/>
    <path fill="#E543FF" fill-rule="evenodd" d="M48.13 16.372v-4.586l-2.584 3.789-7.137 10.464h3.425l-2.198 3.222h-3.424l-1.737 2.547H37.9l7.4-10.851v5.082h2.83v2.788-12.455ZM30.926 37.01l1.819-2.668h3.425l-1.398 2.05h7.697v5.362l-1.501 2.257h1.501v6.35l12.45-18.704h-2.33l.356-.536h-3.399l-.356.536H45.3v-2.395h12.26v-.435h2.642l-1.463 2.199-16.506 24.799-2.592 3.895V44.01h.152v-3.222h-.152v-1.565H29.419l1.508-2.212Z" clip-rule="evenodd"/>
    <path fill="#E543FF" fill-rule="evenodd" d="m35.138 24.676 2.197-3.222h3.425l-2.198 3.222h-3.424Zm11.917-3.222v2.788h9.432v.434H44.226v-3.222h2.83Zm7.495 9.666-2.145 3.223h-3.399l2.145-3.222h3.399Zm-20.383 0h-3.145v3.223h10.375v-2.535h-7.698l.468-.687Zm4.4 12.89v-3.222h2.83v3.223h-2.83Zm9.549-3.222-2.145 3.223h-3.399l2.145-3.223h3.399Z" clip-rule="evenodd"/>
    <path fill="#E543FF" fill-rule="evenodd" d="M48.931 16.372v-4.586l-2.583 3.789-7.136 10.464h3.424L40.44 29.26h-3.425l-1.737 2.547h3.425l7.4-10.851v5.082h2.83v2.788-12.455ZM31.73 37.01l1.82-2.668h3.424l-1.398 2.05h7.698v5.362l-1.502 2.257h1.502v6.35l12.449-18.704h-2.33l.357-.536h-3.4l-.356.536h-3.891v-2.395h12.26v-.435h2.642l-1.463 2.199-16.505 24.799-2.593 3.895V44.01h.152v-3.222h-.152v-1.565H30.221l1.508-2.212Z" clip-rule="evenodd"/>
    <path fill="#E543FF" fill-rule="evenodd" d="m34.336 24.676 2.198-3.222h3.425l-2.198 3.222h-3.425Zm11.918-3.222v2.788h9.432v.434H43.425v-3.222h2.829Zm7.494 9.666-2.145 3.223h-3.398l2.144-3.222h3.4Zm-20.382 0H30.22v3.223h10.375v-2.535h-7.697l.468-.687Zm4.4 12.89v-3.222h2.83v3.223h-2.83Zm9.548-3.222-2.145 3.223h-3.398l2.144-3.223h3.399Z" clip-rule="evenodd"/>
    <path fill="#E543FF" fill-rule="evenodd" d="M48.13 16.372v-4.586l-2.584 3.789-7.137 10.464h3.425l-2.198 3.222h-3.424l-1.737 2.547H37.9l7.4-10.851v5.082h2.83v2.788-12.455ZM30.926 37.01l1.819-2.668h3.425l-1.398 2.05h7.697v5.362l-1.501 2.257h1.501v6.35l12.45-18.704h-2.33l.356-.536h-3.399l-.356.536H45.3v-2.395h12.26v-.435h2.642l-1.463 2.199-16.506 24.799-2.592 3.895V44.01h.152v-3.222h-.152v-1.565H29.419l1.508-2.212Z" clip-rule="evenodd"/>
  </g>
  <path fill="#0D0B16" fill-rule="evenodd" d="m29.723 28.286 2.198-3.223h3.425l-2.198 3.223h-3.425Zm11.918-3.223v2.789h9.431v.434h-12.26v-3.223h2.829Zm7.494 9.667-2.145 3.223h-3.398l2.144-3.223h3.399Zm-20.382 0h-3.146v3.223h10.375v-2.536h-7.697l.468-.687Zm4.4 12.89v-3.222h2.83v3.222h-2.83Zm9.548-3.222-2.145 3.222h-3.398l2.144-3.222h3.4Z" clip-rule="evenodd"/>
  <path fill="#0D0B16" fill-rule="evenodd" d="M43.517 19.982v-4.586l-2.584 3.788-7.136 10.465h3.425l-2.198 3.222h-3.425l-1.736 2.547h3.425l7.4-10.851v5.082h2.829v2.788-12.455ZM26.314 40.62l1.82-2.668h3.424l-1.398 2.05h7.698v5.362l-1.502 2.256h1.502v6.352l12.45-18.705h-2.33l.356-.536h-3.399l-.357.536h-3.891v-2.395h12.261v-.435h2.642l-1.464 2.199-16.505 24.799-2.593 3.895V47.62h.153v-3.222h-.152v-1.566H24.806l1.508-2.211Z" clip-rule="evenodd"/>
  <path fill="#0D0B16" fill-rule="evenodd" d="m28.922 28.286 2.197-3.223h3.425l-2.197 3.223h-3.425Zm11.918-3.223v2.789h9.431v.434h-12.26v-3.223h2.828Zm7.494 9.667-2.145 3.223H42.79l2.145-3.223h3.399Zm-20.382 0h-3.146v3.223H35.18v-2.536h-7.698l.469-.687Zm4.399 12.89v-3.222h2.83v3.222h-2.83Zm9.549-3.222-2.145 3.222h-3.4l2.146-3.222H41.9Z" clip-rule="evenodd"/>
  <path fill="#0D0B16" fill-rule="evenodd" d="M42.715 19.982v-4.586l-2.584 3.788-7.136 10.465h3.425l-2.198 3.222h-3.425l-1.736 2.547h3.425l7.4-10.851v5.082h2.829v2.788-12.455ZM25.512 40.62l1.82-2.668h3.424l-1.398 2.05h7.698v5.362l-1.502 2.256h1.502v6.352l12.45-18.705h-2.33l.356-.536h-3.4l-.356.536h-3.891v-2.395h12.261v-.435h2.641l-1.463 2.199-16.505 24.799-2.593 3.895V47.62h.153v-3.222h-.153v-1.566H24.004l1.508-2.211Z" clip-rule="evenodd"/>
  <path fill="#0D0B16" fill-rule="evenodd" d="m29.723 28.286 2.198-3.223h3.425l-2.198 3.223h-3.425Zm11.918-3.223v2.789h9.431v.434h-12.26v-3.223h2.829Zm7.494 9.667-2.145 3.223h-3.398l2.144-3.223h3.399Zm-20.382 0h-3.146v3.223h10.375v-2.536h-7.697l.468-.687Zm4.4 12.89v-3.222h2.83v3.222h-2.83Zm9.548-3.222-2.145 3.222h-3.398l2.144-3.222h3.4Z" clip-rule="evenodd"/>
  <path fill="#0D0B16" fill-rule="evenodd" d="M43.517 19.982v-4.586l-2.584 3.788-7.136 10.465h3.425l-2.198 3.222h-3.425l-1.736 2.547h3.425l7.4-10.851v5.082h2.829v2.788-12.455ZM26.314 40.62l1.82-2.668h3.424l-1.398 2.05h7.698v5.362l-1.502 2.256h1.502v6.352l12.45-18.705h-2.33l.356-.536h-3.399l-.357.536h-3.891v-2.395h12.261v-.435h2.642l-1.464 2.199-16.505 24.799-2.593 3.895V47.62h.153v-3.222h-.152v-1.566H24.806l1.508-2.211Z" clip-rule="evenodd"/>
  <path fill="#0D0B16" fill-rule="evenodd" d="m28.922 28.286 2.197-3.223h3.425l-2.197 3.223h-3.425Zm11.918-3.223v2.789h9.431v.434h-12.26v-3.223h2.828Zm7.494 9.667-2.145 3.223H42.79l2.145-3.223h3.399Zm-20.382 0h-3.146v3.223H35.18v-2.536h-7.698l.469-.687Zm4.399 12.89v-3.222h2.83v3.222h-2.83Zm9.549-3.222-2.145 3.222h-3.4l2.146-3.222H41.9Z" clip-rule="evenodd"/>
  <path fill="#0D0B16" fill-rule="evenodd" d="M42.715 19.982v-4.586l-2.584 3.788-7.136 10.465h3.425l-2.198 3.222h-3.425l-1.736 2.547h3.425l7.4-10.851v5.082h2.829v2.788-12.455ZM25.512 40.62l1.82-2.668h3.424l-1.398 2.05h7.698v5.362l-1.502 2.256h1.502v6.352l12.45-18.705h-2.33l.356-.536h-3.4l-.356.536h-3.891v-2.395h12.261v-.435h2.641l-1.463 2.199-16.505 24.799-2.593 3.895V47.62h.153v-3.222h-.153v-1.566H24.004l1.508-2.211Z" clip-rule="evenodd"/>
  <defs>
    <filter id="a" width="51.585" height="67.934" x="19.419" y="1.786" color-interpolation-filters="sRGB" filterUnits="userSpaceOnUse">
      <feFlood flood-opacity="0" result="BackgroundImageFix"/>
      <feBlend in="SourceGraphic" in2="BackgroundImageFix" result="shape"/>
      <feGaussianBlur result="effect1_foregroundBlur_52_25564" stdDeviation="5"/>
    </filter>
  </defs>
</svg>
