<svg xmlns="http://www.w3.org/2000/svg" width="501" height="500" fill="none" viewBox="0 0 501 500">
  <g filter="url(#a)" opacity=".5">
    <circle cx="215.143" cy="292" r="133" fill="url(#b)" fill-opacity=".8"/>
    <path fill="url(#c)" d="M215.245 425.323c73.397 0 132.897-59.151 132.897-132.118 0-28.001-8.762-53.967-23.709-75.337l-110.078 65.878-110.079-63.268c-13.86 20.859-21.93 45.856-21.93 72.727 0 72.967 59.501 132.118 132.899 132.118Z"/>
    <path fill="url(#d)" d="m121.143 197.128 93.59 53.499V54l-93.59 143.128Z"/>
    <path fill="url(#e)" d="m308.166 197.128-93.434 53.499V54l93.434 143.128Z"/>
    <path fill="url(#f)" fill-opacity=".6" d="m308.166 197.128-93.434 53.499V54l93.434 143.128Z"/>
    <path fill="url(#g)" d="M211.155 281.701 119.644 229.5l76.602 76.834 14.909-24.633Z"/>
    <path fill="url(#h)" d="m211.155 281.701-3.511 39.799-11.397-15.166 14.908-24.633Z"/>
    <path fill="url(#i)" d="M152.273 319.465 120.144 230l76.102 76.333-43.973 13.132Z"/>
    <path fill="url(#j)" d="M152.273 319.466 207.144 321l-10.898-14.667-43.973 13.133Z"/>
    <g opacity=".5">
      <path fill="url(#k)" d="m171.129 352.6 30.267 61.165 14.204-61.253-44.471.088Z"/>
      <path fill="url(#l)" d="m171.129 352.6 53.75-39.311-9.279 39.224-44.471.087Z"/>
      <path fill="url(#m)" d="m232.021 363.237-30.696 50.831 14.275-61.556 16.421 10.725Z"/>
      <path fill="url(#n)" d="m231.229 364.985-5.936-53.145-9.693 40.673 15.629 12.472Z"/>
    </g>
    <path fill="url(#o)" d="m301.789 319.798 1.015-87.556-36.918 86.369 35.903 1.187Z"/>
    <path fill="url(#p)" d="m301.788 319.797-58.93 52.688 23.028-53.874 35.902 1.186Z"/>
    <path fill="url(#q)" d="m224.757 278.781 78.229-46.967-37.1 86.797-41.129-39.83Z"/>
    <path fill="url(#r)" d="m224.757 278.78 17.736 94.56 23.393-54.729-41.129-39.831Z"/>
  </g>
  <circle cx="250.143" cy="302" r="133" fill="url(#s)" fill-opacity=".8"/>
  <path fill="url(#t)" d="M250.245 435.323c73.397 0 132.897-59.151 132.897-132.118 0-28.001-8.762-53.967-23.709-75.337l-110.078 65.878-110.079-63.268c-13.86 20.859-21.929 45.856-21.929 72.727 0 72.967 59.5 132.118 132.898 132.118Z"/>
  <path fill="url(#u)" d="m156.143 207.128 93.59 53.499V64l-93.59 143.128Z"/>
  <path fill="url(#v)" d="m343.166 207.128-93.434 53.499V64l93.434 143.128Z"/>
  <path fill="url(#w)" fill-opacity=".6" d="m343.166 207.128-93.434 53.499V64l93.434 143.128Z"/>
  <path fill="url(#x)" d="M246.155 291.701 154.644 239.5l76.602 76.834 14.909-24.633Z"/>
  <path fill="url(#y)" d="m246.155 291.701-3.511 39.799-11.397-15.166 14.908-24.633Z"/>
  <path fill="url(#z)" d="M187.273 329.465 155.144 240l76.102 76.333-43.973 13.132Z"/>
  <path fill="url(#A)" d="M187.273 329.466 242.144 331l-10.898-14.667-43.973 13.133Z"/>
  <g opacity=".5">
    <path fill="url(#B)" d="m206.129 362.6 30.267 61.165 14.204-61.253-44.471.088Z"/>
    <path fill="url(#C)" d="m206.129 362.6 53.75-39.311-9.279 39.224-44.471.087Z"/>
    <path fill="url(#D)" d="m267.021 373.237-30.696 50.831 14.275-61.556 16.421 10.725Z"/>
    <path fill="url(#E)" d="m266.229 374.985-5.936-53.145-9.693 40.673 15.629 12.472Z"/>
  </g>
  <path fill="url(#F)" d="m336.789 329.798 1.015-87.556-36.918 86.369 35.903 1.187Z"/>
  <path fill="url(#G)" d="m336.788 329.797-58.93 52.688 23.028-53.874 35.902 1.186Z"/>
  <path fill="url(#H)" d="m259.757 288.781 78.229-46.967-37.1 86.797-41.129-39.83Z"/>
  <path fill="url(#I)" d="m259.757 288.78 17.736 94.56 23.393-54.729-41.129-39.831Z"/>
  <defs>
    <radialGradient id="b" cx="0" cy="0" r="1" gradientTransform="rotate(-107.086 223.257 85.481) scale(127.633 177.793)" gradientUnits="userSpaceOnUse">
      <stop stop-color="#00F0FF"/>
      <stop offset="1" stop-color="#35C2FF" stop-opacity="0"/>
    </radialGradient>
    <radialGradient id="c" cx="0" cy="0" r="1" gradientTransform="matrix(-83.49905 133.00058 -177.87671 -111.67272 223.642 292)" gradientUnits="userSpaceOnUse">
      <stop stop-color="#8AFBED" stop-opacity="0"/>
      <stop offset=".728" stop-color="#00A3FF" stop-opacity=".457"/>
      <stop offset="1" stop-color="#198CF6"/>
    </radialGradient>
    <radialGradient id="d" cx="0" cy="0" r="1" gradientTransform="matrix(-42.87833 71.96047 -180.61097 -107.61876 214.521 152.039)" gradientUnits="userSpaceOnUse">
      <stop stop-color="#00A3FF"/>
      <stop offset=".944" stop-color="#00A3FF" stop-opacity=".29"/>
    </radialGradient>
    <radialGradient id="e" cx="0" cy="0" r="1" gradientTransform="matrix(63.45134 -76.44107 115.93229 96.23175 214.732 219.872)" gradientUnits="userSpaceOnUse">
      <stop stop-color="#227AFF"/>
      <stop offset="1" stop-color="#0047FF" stop-opacity="0"/>
    </radialGradient>
    <radialGradient id="g" cx="0" cy="0" r="1" gradientTransform="rotate(46.264 -213.015 311) scale(83.2245 70.4974)" gradientUnits="userSpaceOnUse">
      <stop stop-color="#2A6BFF"/>
      <stop offset="1" stop-color="#2A6BFF" stop-opacity="0"/>
    </radialGradient>
    <radialGradient id="h" cx="0" cy="0" r="1" gradientTransform="matrix(12.4031 94.37637 -92.72398 12.18594 206.544 251.862)" gradientUnits="userSpaceOnUse">
      <stop stop-color="#3B52FC"/>
      <stop offset="1" stop-color="#3B52FC" stop-opacity="0"/>
    </radialGradient>
    <radialGradient id="i" cx="0" cy="0" r="1" gradientTransform="rotate(27.53 -495.73 396.37) scale(65.7052 86.9265)" gradientUnits="userSpaceOnUse">
      <stop stop-color="#2A6BFF"/>
      <stop offset="1" stop-color="#2A6BFF" stop-opacity="0"/>
    </radialGradient>
    <radialGradient id="j" cx="0" cy="0" r="1" gradientTransform="matrix(112.30414 21.29886 -32.8861 173.40107 116.504 326.759)" gradientUnits="userSpaceOnUse">
      <stop stop-color="#2A6BFF"/>
      <stop offset="1" stop-color="#2A6BFF" stop-opacity="0"/>
    </radialGradient>
    <radialGradient id="k" cx="0" cy="0" r="1" gradientTransform="matrix(8.33388 -69.00477 58.45215 7.05941 198.93 406.483)" gradientUnits="userSpaceOnUse">
      <stop stop-color="#2A6BFF"/>
      <stop offset="1" stop-color="#2A6BFF" stop-opacity="0"/>
    </radialGradient>
    <radialGradient id="l" cx="0" cy="0" r="1" gradientTransform="matrix(54.35421 -58.0131 56.9973 53.40247 174.982 374.727)" gradientUnits="userSpaceOnUse">
      <stop stop-color="#3B52FC"/>
      <stop offset="1" stop-color="#3B52FC" stop-opacity="0"/>
    </radialGradient>
    <radialGradient id="m" cx="0" cy="0" r="1" gradientTransform="matrix(-11.26666 -53.70563 71.05145 -14.90555 231.384 414.295)" gradientUnits="userSpaceOnUse">
      <stop stop-color="#2A6BFF"/>
      <stop offset="1" stop-color="#2A6BFF" stop-opacity="0"/>
    </radialGradient>
    <radialGradient id="n" cx="0" cy="0" r="1" gradientTransform="matrix(-45.75522 -83.78526 129.36663 -70.64725 271.038 393.169)" gradientUnits="userSpaceOnUse">
      <stop stop-color="#2A6BFF"/>
      <stop offset="1" stop-color="#2A6BFF" stop-opacity="0"/>
    </radialGradient>
    <radialGradient id="o" cx="0" cy="0" r="1" gradientTransform="rotate(106.973 62.091 234.522) scale(103.83 87.9516)" gradientUnits="userSpaceOnUse">
      <stop stop-color="#2A6BFF"/>
      <stop offset="1" stop-color="#2A6BFF" stop-opacity="0"/>
    </radialGradient>
    <radialGradient id="p" cx="0" cy="0" r="1" gradientTransform="rotate(143.222 116.424 203.376) scale(118.755 116.676)" gradientUnits="userSpaceOnUse">
      <stop stop-color="#3B52FC"/>
      <stop offset="1" stop-color="#3B52FC" stop-opacity="0"/>
    </radialGradient>
    <radialGradient id="q" cx="0" cy="0" r="1" gradientTransform="matrix(2.51863 81.9342 -108.3968 3.33208 258.837 223.615)" gradientUnits="userSpaceOnUse">
      <stop stop-color="#2A6BFF"/>
      <stop offset="1" stop-color="#2A6BFF" stop-opacity="0"/>
    </radialGradient>
    <radialGradient id="r" cx="0" cy="0" r="1" gradientTransform="matrix(45.37258 135.19647 -208.74694 70.05648 194.989 244.312)" gradientUnits="userSpaceOnUse">
      <stop stop-color="#2A6BFF"/>
      <stop offset="1" stop-color="#2A6BFF" stop-opacity="0"/>
    </radialGradient>
    <radialGradient id="s" cx="0" cy="0" r="1" gradientTransform="rotate(-107.086 244.451 77.552) scale(127.633 177.793)" gradientUnits="userSpaceOnUse">
      <stop stop-color="#00F0FF"/>
      <stop offset="1" stop-color="#35C2FF" stop-opacity="0"/>
    </radialGradient>
    <radialGradient id="t" cx="0" cy="0" r="1" gradientTransform="matrix(-83.49905 133.00058 -177.87671 -111.67272 258.642 302)" gradientUnits="userSpaceOnUse">
      <stop stop-color="#8AFBED" stop-opacity="0"/>
      <stop offset=".728" stop-color="#00A3FF" stop-opacity=".457"/>
      <stop offset="1" stop-color="#198CF6"/>
    </radialGradient>
    <radialGradient id="u" cx="0" cy="0" r="1" gradientTransform="matrix(-42.87833 71.96047 -180.61097 -107.61876 249.521 162.039)" gradientUnits="userSpaceOnUse">
      <stop stop-color="#00A3FF"/>
      <stop offset=".944" stop-color="#00A3FF" stop-opacity=".29"/>
    </radialGradient>
    <radialGradient id="v" cx="0" cy="0" r="1" gradientTransform="matrix(63.45134 -76.44107 115.93229 96.23175 249.732 229.871)" gradientUnits="userSpaceOnUse">
      <stop stop-color="#227AFF"/>
      <stop offset="1" stop-color="#0047FF" stop-opacity="0"/>
    </radialGradient>
    <radialGradient id="x" cx="0" cy="0" r="1" gradientTransform="rotate(46.264 -207.22 356.965) scale(83.2245 70.4974)" gradientUnits="userSpaceOnUse">
      <stop stop-color="#2A6BFF"/>
      <stop offset="1" stop-color="#2A6BFF" stop-opacity="0"/>
    </radialGradient>
    <radialGradient id="y" cx="0" cy="0" r="1" gradientTransform="matrix(12.4031 94.37637 -92.72398 12.18594 241.544 261.862)" gradientUnits="userSpaceOnUse">
      <stop stop-color="#3B52FC"/>
      <stop offset="1" stop-color="#3B52FC" stop-opacity="0"/>
    </radialGradient>
    <radialGradient id="z" cx="0" cy="0" r="1" gradientTransform="rotate(27.53 -498.64 472.805) scale(65.7052 86.9265)" gradientUnits="userSpaceOnUse">
      <stop stop-color="#2A6BFF"/>
      <stop offset="1" stop-color="#2A6BFF" stop-opacity="0"/>
    </radialGradient>
    <radialGradient id="A" cx="0" cy="0" r="1" gradientTransform="matrix(112.30414 21.29886 -32.8861 173.40107 151.504 336.759)" gradientUnits="userSpaceOnUse">
      <stop stop-color="#2A6BFF"/>
      <stop offset="1" stop-color="#2A6BFF" stop-opacity="0"/>
    </radialGradient>
    <radialGradient id="B" cx="0" cy="0" r="1" gradientTransform="matrix(8.33388 -69.00477 58.45215 7.05941 233.93 416.483)" gradientUnits="userSpaceOnUse">
      <stop stop-color="#2A6BFF"/>
      <stop offset="1" stop-color="#2A6BFF" stop-opacity="0"/>
    </radialGradient>
    <radialGradient id="C" cx="0" cy="0" r="1" gradientTransform="matrix(54.35421 -58.0131 56.9973 53.40247 209.983 384.728)" gradientUnits="userSpaceOnUse">
      <stop stop-color="#3B52FC"/>
      <stop offset="1" stop-color="#3B52FC" stop-opacity="0"/>
    </radialGradient>
    <radialGradient id="D" cx="0" cy="0" r="1" gradientTransform="matrix(-11.26666 -53.70563 71.05145 -14.90555 266.384 424.295)" gradientUnits="userSpaceOnUse">
      <stop stop-color="#2A6BFF"/>
      <stop offset="1" stop-color="#2A6BFF" stop-opacity="0"/>
    </radialGradient>
    <radialGradient id="E" cx="0" cy="0" r="1" gradientTransform="matrix(-45.75522 -83.78526 129.36663 -70.64725 306.038 403.169)" gradientUnits="userSpaceOnUse">
      <stop stop-color="#2A6BFF"/>
      <stop offset="1" stop-color="#2A6BFF" stop-opacity="0"/>
    </radialGradient>
    <radialGradient id="F" cx="0" cy="0" r="1" gradientTransform="rotate(106.973 75.89 252.478) scale(103.83 87.9516)" gradientUnits="userSpaceOnUse">
      <stop stop-color="#2A6BFF"/>
      <stop offset="1" stop-color="#2A6BFF" stop-opacity="0"/>
    </radialGradient>
    <radialGradient id="G" cx="0" cy="0" r="1" gradientTransform="rotate(143.222 132.262 214.193) scale(118.755 116.676)" gradientUnits="userSpaceOnUse">
      <stop stop-color="#3B52FC"/>
      <stop offset="1" stop-color="#3B52FC" stop-opacity="0"/>
    </radialGradient>
    <radialGradient id="H" cx="0" cy="0" r="1" gradientTransform="matrix(2.51863 81.9342 -108.3968 3.33208 293.837 233.615)" gradientUnits="userSpaceOnUse">
      <stop stop-color="#2A6BFF"/>
      <stop offset="1" stop-color="#2A6BFF" stop-opacity="0"/>
    </radialGradient>
    <radialGradient id="I" cx="0" cy="0" r="1" gradientTransform="matrix(45.37258 135.19647 -208.74694 70.05648 229.989 254.312)" gradientUnits="userSpaceOnUse">
      <stop stop-color="#2A6BFF"/>
      <stop offset="1" stop-color="#2A6BFF" stop-opacity="0"/>
    </radialGradient>
    <linearGradient id="f" x1="289.642" x2="139.142" y1="40" y2="171" gradientUnits="userSpaceOnUse">
      <stop stop-color="#29EDFE"/>
      <stop offset="1" stop-color="#29EDFE" stop-opacity="0"/>
    </linearGradient>
    <linearGradient id="w" x1="324.642" x2="174.142" y1="50" y2="181" gradientUnits="userSpaceOnUse">
      <stop stop-color="#29EDFE"/>
      <stop offset="1" stop-color="#29EDFE" stop-opacity="0"/>
    </linearGradient>
    <filter id="a" width="374" height="479.323" x="28.143" y="0" color-interpolation-filters="sRGB" filterUnits="userSpaceOnUse">
      <feFlood flood-opacity="0" result="BackgroundImageFix"/>
      <feBlend in="SourceGraphic" in2="BackgroundImageFix" result="shape"/>
      <feGaussianBlur result="effect1_foregroundBlur_369_5715" stdDeviation="27"/>
    </filter>
  </defs>
</svg>
