<svg xmlns="http://www.w3.org/2000/svg" width="81" height="80" fill="none" viewBox="0 0 81 80">
  <path fill="url(#a)" fill-rule="evenodd" d="M40.126 61.656c12.091 0 21.912-9.623 22.06-21.554v-.274a21.66 21.66 0 0 0-6.84-15.802 21.658 21.658 0 0 0-4.622 25.359 14.371 14.371 0 0 1-10.598 4.632c-7.918 0-14.337-6.352-14.337-14.189S32.208 25.64 40.126 25.64c2.606 0 5.046.686 7.15 1.887a25.949 25.949 0 0 1 4.734-6.095A22.128 22.128 0 0 0 40.126 18c-12.182 0-22.06 9.772-22.06 21.828 0 12.057 9.878 21.828 22.06 21.828Z" clip-rule="evenodd"/>
  <path fill="#A13DFA" fill-rule="evenodd" d="M50.77 49.336a14.417 14.417 0 0 1-6.232 1.406c-7.919 0-14.337-6.351-14.337-14.188a14.05 14.05 0 0 1 3.694-9.508c-4.797 2.295-8.106 7.156-8.106 12.782 0 7.837 6.418 14.188 14.337 14.188 4.224 0 8.02-1.806 10.645-4.68Z" clip-rule="evenodd"/>
  <g filter="url(#b)" opacity=".6">
    <path fill="url(#c)" fill-rule="evenodd" d="M48.006 53.72c9.35 0 16.945-7.442 17.06-16.669v-.212a16.752 16.752 0 0 0-5.29-12.22 16.748 16.748 0 0 0-3.574 19.611 11.115 11.115 0 0 1-8.196 3.582c-6.124 0-11.087-4.912-11.087-10.972 0-6.061 4.963-10.973 11.087-10.973 2.015 0 3.902.53 5.53 1.46a20.064 20.064 0 0 1 3.66-4.714 17.112 17.112 0 0 0-9.19-2.654c-9.421 0-17.06 7.557-17.06 16.88 0 9.324 7.639 16.881 17.06 16.881Z" clip-rule="evenodd"/>
    <path fill="#A13DFA" fill-rule="evenodd" d="M56.238 44.192a11.15 11.15 0 0 1-4.82 1.088c-6.124 0-11.087-4.912-11.087-10.973 0-2.828 1.08-5.408 2.856-7.353-3.71 1.775-6.268 5.535-6.268 9.885 0 6.061 4.963 10.973 11.087 10.973 3.267 0 6.201-1.397 8.232-3.62Z" clip-rule="evenodd"/>
  </g>
  <defs>
    <linearGradient id="a" x1="55.074" x2="22.747" y1="22.571" y2="58.777" gradientUnits="userSpaceOnUse">
      <stop stop-color="#A440F6"/>
      <stop offset="1" stop-color="#E92F8E"/>
    </linearGradient>
    <linearGradient id="c" x1="59.566" x2="34.566" y1="23.494" y2="51.493" gradientUnits="userSpaceOnUse">
      <stop stop-color="#A440F6"/>
      <stop offset="1" stop-color="#E92F8E"/>
    </linearGradient>
    <filter id="b" width="62.12" height="61.761" x="16.946" y="5.959" color-interpolation-filters="sRGB" filterUnits="userSpaceOnUse">
      <feFlood flood-opacity="0" result="BackgroundImageFix"/>
      <feBlend in="SourceGraphic" in2="BackgroundImageFix" result="shape"/>
      <feGaussianBlur result="effect1_foregroundBlur_52_17194" stdDeviation="7"/>
    </filter>
  </defs>
</svg>
