<svg xmlns="http://www.w3.org/2000/svg" width="80" height="80" fill="none" viewBox="0 0 80 80">
  <g filter="url(#a)">
    <path fill="#9391F7" d="M40.002 59C51.599 59 61 49.598 61 38s-9.4-21-20.998-21-21 9.402-21 21 9.402 21 21 21Z"/>
  </g>
  <path fill="#9391F7" d="M40.002 61C51.599 61 61 51.598 61 40s-9.4-21-20.998-21-21 9.402-21 21 9.402 21 21 21Z"/>
  <path fill="#fff" d="M36.097 41.024a3.303 3.303 0 1 0-1.059-6.521 3.303 3.303 0 0 0 1.06 6.521Zm8.633 0a3.303 3.303 0 1 0-1.058-6.52 3.303 3.303 0 0 0 1.059 6.52Z"/>
  <path fill="#fff" d="M39.88 24.128c-8.969 0-16.24 7.41-16.238 16.548h4.148c0-6.848 5.37-12.4 12.09-12.4s12.09 5.552 12.09 12.4h4.147c.002-9.138-7.27-16.548-16.237-16.548Z"/>
  <defs>
    <filter id="a" width="69.998" height="70" x="5.002" y="3" color-interpolation-filters="sRGB" filterUnits="userSpaceOnUse">
      <feFlood flood-opacity="0" result="BackgroundImageFix"/>
      <feBlend in="SourceGraphic" in2="BackgroundImageFix" result="shape"/>
      <feGaussianBlur result="effect1_foregroundBlur_52_17176" stdDeviation="7"/>
    </filter>
  </defs>
</svg>
