<svg xmlns="http://www.w3.org/2000/svg" width="81" height="80" fill="none" viewBox="0 0 81 80">
  <g filter="url(#a)">
    <path fill="#9662B6" fill-opacity=".8" fill-rule="evenodd" d="M20.814 31.93c.137.102.282.202.437.273.123.057.245.118.367.179.332.166.664.331 1.015.423l1.116.294c1.585.42 3.17.84 4.779 1.143 2.01.378 4.053.62 6.092.816 3.08.295 6.172.48 9.267.231l.128-.01c1.706-.137 3.414-.274 5.112-.475 1.207-.144 2.407-.348 3.606-.552l.72-.122c2.025-.34 4.023-.795 5.93-1.574a5.836 5.836 0 0 0 1.535-.912c.53-.447.509-.949.084-1.497-.463-.6-1.114-.945-1.79-1.185-1.165-.415-2.347-.816-3.553-1.075-1.235-.266-2.485-.462-3.734-.657-.472-.074-.944-.148-1.415-.226-.066-.01-.136.002-.207.014-.033.005-.066.011-.098.014l-.027.053-.028.054c1.45 1.076 2.823 2.227 3.908 3.76a4.04 4.04 0 0 0-.162.06c-.1.038-.189.072-.28.085-.27.037-.54.076-.809.115-.8.116-1.6.232-2.401.31l-.872.086c-1.494.15-2.989.3-4.485.344-2.563.078-5.131.06-7.697.033-3.16-.033-6.298-.366-9.414-.883a3.34 3.34 0 0 1-.4-.101 9.327 9.327 0 0 0-.232-.067c1.153-1.494 2.48-2.697 3.953-3.748l-.037-.063-.038-.063c-.038 0-.076 0-.115-.002a1.64 1.64 0 0 0-.243.004c-2.48.282-4.934.696-7.316 1.466-.936.303-1.857.64-2.665 1.225-.986.712-1 1.507-.032 2.229l.001.001Zm46.512 7.64c-.414-.323-.855-.641-1.331-.848l-.014-.006c-.939-.406-1.89-.818-2.874-1.078-1.505-.397-3.027-.726-4.55-1.055l-.97-.21c-.473-.104-.532 0-.42.49l.054.235c.17.735.34 1.47.477 2.211.061.335.22.492.535.554l.477.094c.744.145 1.488.292 2.226.462.383.088.761.205 1.17.33.182.057.371.116.57.174a5.719 5.719 0 0 0-.185.093c-.096.05-.165.086-.237.105-.327.085-.654.177-.98.268-.774.217-1.549.434-2.337.568-2.078.355-4.168.67-6.264.891-2.416.256-4.841.484-7.269.56-5.673.175-11.344.137-16.994-.55l-.06-.008c-2.758-.335-5.515-.67-8.21-1.378-.34-.09-.68-.19-1.018-.292a63.99 63.99 0 0 0-.492-.146l-.003-.139c.116-.035.231-.072.347-.109.266-.085.533-.17.804-.235a198.89 198.89 0 0 1 3.485-.777c.252-.055.371-.175.423-.43.123-.6.256-1.199.39-1.797l.183-.828c.078-.359-.016-.46-.37-.404-2.451.394-4.879.883-7.218 1.735-1.123.408-2.214.895-3.066 1.774-.784.81-.7 1.78.175 2.493.84.685 1.802 1.144 2.802 1.524a25.485 25.485 0 0 0 5.11 1.378c.526.083 1.051.169 1.577.254 1.945.317 3.893.635 5.852.811 3.116.28 6.248.403 9.376.51 3.328.116 6.652-.045 9.977-.243 3.411-.203 6.806-.528 10.157-1.193 1.836-.364 3.654-.848 5.458-1.351a9.248 9.248 0 0 0 3.117-1.55c1.094-.83 1.163-2.072.118-2.888l.002.002ZM56.474 50.22c1.347.347 2.67.753 3.863 1.49h-.001c.187.114.36.26.516.413.572.562.595 1.172.1 1.802-.536.682-1.308.978-2.07 1.27l-.11.042c-1.518.583-3.097.948-4.7 1.195-1.745.272-3.49.543-5.242.754-1.144.138-2.3.19-3.452.236-1.056.042-2.111.064-3.376.091-.617.013-1.283.027-2.024.045-.536-.025-1.125-.047-1.752-.072-1.64-.063-3.54-.136-5.434-.285-1.75-.14-3.492-.44-5.225-.738l-.09-.016a37.425 37.425 0 0 1-3.837-.861c-.998-.283-1.987-.646-2.823-1.307a2.513 2.513 0 0 1-.349-.326c-.535-.613-.537-1.188.047-1.756a4.66 4.66 0 0 1 1.027-.769c1.066-.572 2.225-.9 3.39-1.203.32-.083.496.022.661.293.207.34.423.673.64 1.007.244.376.488.753.72 1.138.213.359.523.48.9.549 3 .556 6.036.82 9.074.928 2.805.1 5.62.025 8.428-.078 1.627-.06 3.25-.227 4.872-.394l1.033-.105c.476-.047.948-.133 1.42-.218.337-.061.674-.123 1.013-.17.406-.057.614-.327.809-.627l.106-.164c.407-.624.815-1.249 1.201-1.885.167-.274.345-.361.665-.279Z" clip-rule="evenodd"/>
  </g>
  <path fill="#9662B6" fill-rule="evenodd" d="M20.814 30.151c.137.102.282.202.437.273.123.057.245.118.367.179.332.165.664.331 1.015.423l1.116.294c1.585.42 3.17.84 4.779 1.143 2.01.377 4.053.62 6.092.816 3.08.295 6.172.48 9.267.231l.128-.01c1.706-.137 3.414-.274 5.112-.475 1.207-.144 2.407-.348 3.606-.553l.72-.121c2.025-.34 4.023-.796 5.93-1.575a5.836 5.836 0 0 0 1.535-.911c.53-.447.509-.949.084-1.498-.463-.599-1.114-.944-1.79-1.184-1.165-.415-2.347-.816-3.553-1.076-1.235-.265-2.485-.46-3.734-.656-.472-.074-.944-.148-1.415-.226a.629.629 0 0 0-.207.013c-.033.006-.066.012-.098.015l-.027.053-.028.053c1.45 1.077 2.823 2.228 3.908 3.76-.058.02-.111.04-.162.06-.1.039-.189.073-.28.085l-.809.116c-.8.116-1.6.232-2.401.31l-.872.086c-1.494.15-2.989.3-4.485.344-2.563.078-5.131.059-7.697.032-3.16-.032-6.298-.365-9.414-.882a3.36 3.36 0 0 1-.4-.101 9.327 9.327 0 0 0-.232-.067c1.153-1.494 2.48-2.697 3.953-3.748l-.037-.063-.038-.063-.115-.002a1.685 1.685 0 0 0-.243.004c-2.48.281-4.934.696-7.316 1.466-.936.302-1.857.64-2.665 1.224-.986.713-1 1.508-.032 2.23l.001.001Zm46.512 7.64c-.414-.323-.855-.641-1.331-.848l-.014-.006c-.939-.406-1.89-.818-2.874-1.078-1.505-.397-3.027-.726-4.55-1.055l-.97-.211c-.473-.103-.532.001-.42.491l.054.235c.17.735.34 1.47.477 2.211.061.335.22.491.535.553l.477.094c.744.146 1.488.292 2.226.462.383.09.761.206 1.17.332.182.056.371.115.57.173-.074.035-.133.066-.185.093-.096.05-.165.086-.237.105-.327.085-.654.176-.98.268-.774.217-1.549.434-2.337.568-2.078.354-4.168.67-6.264.891-2.416.255-4.841.484-7.269.56-5.673.175-11.344.137-16.994-.55l-.06-.008c-2.758-.335-5.515-.67-8.21-1.378-.34-.09-.68-.191-1.018-.292-.164-.05-.328-.099-.492-.146l-.003-.139c.116-.035.231-.072.347-.11.266-.084.533-.17.804-.234a200.79 200.79 0 0 1 3.485-.777c.252-.055.371-.176.423-.43.123-.6.256-1.199.39-1.798.061-.276.123-.551.183-.827.078-.359-.016-.46-.37-.405-2.451.394-4.879.884-7.218 1.735-1.123.409-2.214.896-3.066 1.775-.784.81-.7 1.78.175 2.493.84.685 1.802 1.144 2.802 1.524a25.485 25.485 0 0 0 5.11 1.378c.526.083 1.051.168 1.577.254 1.945.317 3.893.635 5.852.811 3.116.28 6.248.403 9.376.51 3.328.116 6.652-.045 9.977-.243 3.411-.203 6.806-.528 10.157-1.193 1.836-.365 3.654-.849 5.458-1.352a9.248 9.248 0 0 0 3.117-1.549c1.094-.83 1.163-2.072.118-2.888l.002.001Zm-10.852 10.65c1.347.347 2.67.752 3.863 1.49h-.001c.187.114.36.26.516.413.572.562.595 1.172.1 1.801-.536.683-1.308.979-2.07 1.271l-.11.042c-1.518.583-3.097.948-4.7 1.195-1.745.272-3.49.543-5.242.754-1.144.137-2.3.19-3.452.236a175.93 175.93 0 0 1-3.376.09c-.617.014-1.283.028-2.024.046a228.07 228.07 0 0 0-1.752-.072c-1.64-.063-3.54-.136-5.434-.285-1.75-.14-3.492-.44-5.225-.738l-.09-.016a37.452 37.452 0 0 1-3.837-.861c-.998-.284-1.987-.647-2.823-1.308a2.52 2.52 0 0 1-.349-.326c-.535-.612-.537-1.187.047-1.755a4.663 4.663 0 0 1 1.027-.769c1.066-.572 2.225-.901 3.39-1.203.32-.083.496.022.661.293.207.34.423.673.64 1.006.244.377.488.754.72 1.14.213.358.523.479.9.548 3 .556 6.036.82 9.074.928 2.805.1 5.62.025 8.428-.078 1.627-.06 3.25-.227 4.872-.394l1.033-.105c.476-.047.948-.133 1.42-.218.337-.062.674-.123 1.013-.17.406-.058.614-.328.809-.627l.106-.164c.407-.624.815-1.249 1.201-1.885.167-.274.345-.361.665-.279Z" clip-rule="evenodd"/>
  <defs>
    <filter id="a" width="75.003" height="50.558" x="3.066" y="17" color-interpolation-filters="sRGB" filterUnits="userSpaceOnUse">
      <feFlood flood-opacity="0" result="BackgroundImageFix"/>
      <feBlend in="SourceGraphic" in2="BackgroundImageFix" result="shape"/>
      <feGaussianBlur result="effect1_foregroundBlur_52_17200" stdDeviation="5"/>
    </filter>
  </defs>
</svg>
