<svg xmlns="http://www.w3.org/2000/svg" width="81" height="80" fill="none" viewBox="0 0 81 80">
  <g filter="url(#a)">
    <path fill="#F6E2E6" fill-rule="evenodd" d="m48.524 17.852 15.66 15.661a6.324 6.324 0 0 1 0 8.943l-15.69 15.692a6.323 6.323 0 0 1-8.942 0L23.888 42.487a6.323 6.323 0 0 1 0-8.943L39.58 17.852a6.323 6.323 0 0 1 8.944 0Zm-5.53 3.972-.064.06-15.007 15.009a1.582 1.582 0 0 0-.061 2.172l.06.063 14.986 14.989a1.584 1.584 0 0 0 2.175.059l.062-.06 15.007-15.009a1.581 1.581 0 0 0 0-2.236L45.166 21.885a1.582 1.582 0 0 0-2.172-.061Zm1.33 6.608 9.282 9.282a.397.397 0 0 1 0 .56l-9.295 9.295a.396.396 0 0 1-.56 0l-9.281-9.284a.39.39 0 0 1 0-.559l9.294-9.294a.394.394 0 0 1 .56 0Z" clip-rule="evenodd"/>
  </g>
  <path fill="#2D2047" fill-rule="evenodd" d="m44.524 19.852 15.66 15.661a6.324 6.324 0 0 1 0 8.943l-15.69 15.692a6.323 6.323 0 0 1-8.942 0L19.888 44.487a6.323 6.323 0 0 1 0-8.943L35.58 19.852a6.323 6.323 0 0 1 8.944 0Zm-5.53 3.972-.064.06-15.007 15.009a1.582 1.582 0 0 0-.061 2.172l.06.063 14.986 14.989a1.584 1.584 0 0 0 2.175.059l.062-.06 15.007-15.009a1.581 1.581 0 0 0 0-2.236L41.166 23.885a1.582 1.582 0 0 0-2.172-.061Zm1.33 6.608 9.282 9.282a.397.397 0 0 1 0 .56l-9.295 9.295a.396.396 0 0 1-.56 0l-9.281-9.284a.39.39 0 0 1 0-.559l9.294-9.294a.394.394 0 0 1 .56 0Z" clip-rule="evenodd"/>
  <defs>
    <filter id="a" width="60" height="60" x="14.037" y="8" color-interpolation-filters="sRGB" filterUnits="userSpaceOnUse">
      <feFlood flood-opacity="0" result="BackgroundImageFix"/>
      <feBlend in="SourceGraphic" in2="BackgroundImageFix" result="shape"/>
      <feGaussianBlur result="effect1_foregroundBlur_52_17186" stdDeviation="4"/>
    </filter>
  </defs>
</svg>
