<svg xmlns="http://www.w3.org/2000/svg" width="81" height="80" fill="none" viewBox="0 0 81 80">
  <g clip-path="url(#a)">
    <g filter="url(#b)" opacity=".5">
      <path fill="#D4FF00" d="M22.015 37c0-10.235 0-15.353 2.705-18.878a13.09 13.09 0 0 1 2.416-2.417C30.662 13 35.78 13 46.015 13c10.235 0 15.352 0 18.878 2.705a13.09 13.09 0 0 1 2.416 2.417c2.706 3.525 2.706 8.643 2.706 18.878s0 15.353-2.706 18.878a13.093 13.093 0 0 1-2.416 2.417C61.367 61 56.25 61 46.015 61c-10.236 0-15.353 0-18.879-2.705a13.093 13.093 0 0 1-2.416-2.417c-2.705-3.525-2.705-8.643-2.705-18.878Z"/>
    </g>
    <path fill="#000" d="M18.015 40c0-10.235 0-15.353 2.705-18.878a13.09 13.09 0 0 1 2.416-2.417C26.662 16 31.78 16 42.015 16c10.235 0 15.352 0 18.878 2.705a13.09 13.09 0 0 1 2.416 2.417c2.706 3.525 2.706 8.643 2.706 18.878s0 15.353-2.706 18.878a13.093 13.093 0 0 1-2.416 2.417C57.367 64 52.25 64 42.015 64c-10.236 0-15.353 0-18.879-2.705a13.093 13.093 0 0 1-2.416-2.417c-2.705-3.525-2.705-8.643-2.705-18.878Z"/>
    <path fill="#fff" fill-rule="evenodd" d="m52.702 46.507-.202.185c-4.38 4.02-11.438 1.78-12.738-4.042l-.382-1.711a8.375 8.375 0 0 0-.116-.495c-.345-1.028-1.79-1.028-2.134 0a8.375 8.375 0 0 0-.117.495l-.382 1.71c-1.3 5.823-8.358 8.063-12.738 4.043l-.201-.185a9.128 9.128 0 0 1-2.95-6.725c0-2.29 1.843-4.146 4.117-4.146h37.337c.273 0 .546.273.546.546 0 1.85-1.512 3.273-3.273 3.273h-3.503a.322.322 0 0 0-.315.327c0 2.56-1.07 5.001-2.95 6.725Z" clip-rule="evenodd"/>
  </g>
  <defs>
    <clipPath id="a">
      <path fill="#fff" d="M.015 0h80v80h-80z"/>
    </clipPath>
    <filter id="b" width="72" height="72" x="10.015" y="1" color-interpolation-filters="sRGB" filterUnits="userSpaceOnUse">
      <feFlood flood-opacity="0" result="BackgroundImageFix"/>
      <feBlend in="SourceGraphic" in2="BackgroundImageFix" result="shape"/>
      <feGaussianBlur result="effect1_foregroundBlur_52_17425" stdDeviation="6"/>
    </filter>
  </defs>
</svg>
