<svg xmlns="http://www.w3.org/2000/svg" width="81" height="80" fill="none" viewBox="0 0 81 80">
  <path fill="#F0B90B" fill-rule="evenodd" d="M40.515 17c12.427 0 22.5 10.073 22.5 22.5S52.942 62 40.515 62c-12.428 0-22.5-10.073-22.5-22.5S28.087 17 40.515 17Z" clip-rule="evenodd"/>
  <g filter="url(#a)" opacity=".6">
    <path fill="#F0B90B" fill-rule="evenodd" d="M43.515 16c12.427 0 22.5 10.073 22.5 22.5S55.942 61 43.515 61c-12.428 0-22.5-10.073-22.5-22.5S31.087 16 43.515 16Z" clip-rule="evenodd"/>
  </g>
  <path fill="#fff" fill-rule="evenodd" d="m48.538 38.267-.017-3.483h.013l-2.959-1.742-5.07 2.99-5.038-2.99-2.957 1.742v3.483l5.07 2.975v5.964l2.944 1.725 2.944-1.725v-5.964l5.07-2.975Zm-8.03-14.147-8 4.716 2.944 1.742 5.055-2.99 5.07 2.99 2.944-1.742-8.014-4.716ZM30.396 45.45l-.016-5.95-2.943-1.74v9.447l8.014 4.7v-3.483l-5.055-2.974Zm-.016-8.433V33.55l2.958-1.741-2.958-1.742-2.945 1.742v3.467l2.945 1.741Zm10.126-6.95-2.944 1.742 2.944 1.741 2.959-1.741-2.959-1.742Zm-5.055 12.408-2.944-1.742v3.483l2.944 1.726v-3.467Zm5.055 8.938-2.944-1.741v3.467l2.944 1.741 2.959-1.741v-3.467l-2.959 1.741Zm10.125-21.346-2.944 1.742 2.944 1.741v3.467l2.959-1.741v-3.467l-2.959-1.742Zm2.96 7.691L50.65 39.5l-.017 5.95-5.053 2.972v3.484l8.014-4.7v-9.448Zm-5.07 6.458-2.945 1.726v-3.467l2.944-1.742v3.483Z" clip-rule="evenodd"/>
  <defs>
    <filter id="a" width="65" height="65" x="11.015" y="6" color-interpolation-filters="sRGB" filterUnits="userSpaceOnUse">
      <feFlood flood-opacity="0" result="BackgroundImageFix"/>
      <feBlend in="SourceGraphic" in2="BackgroundImageFix" result="shape"/>
      <feGaussianBlur result="effect1_foregroundBlur_52_17430" stdDeviation="5"/>
    </filter>
  </defs>
</svg>
