<svg xmlns="http://www.w3.org/2000/svg" width="81" height="80" fill="none" viewBox="0 0 81 80">
  <g clip-path="url(#a)">
    <g filter="url(#b)">
      <path fill="#375BD2" fill-opacity=".5" d="m40.028 21.955 12.115 6.75v13.552l-12.089 6.788-12.114-6.738V28.756l12.088-6.8Zm0-9.955-4.452 2.498L23.474 21.3l-4.452 2.498v23.494l4.452 2.473 12.115 6.75 4.452 2.473 4.453-2.498 12.089-6.8 4.452-2.486V23.709l-4.452-2.473-12.128-6.763L40.003 12h.025Z"/>
    </g>
    <path fill="#375BD2" d="m40.028 25.955 12.115 6.75v13.552l-12.089 6.788-12.114-6.738V32.756l12.088-6.8Zm0-9.955-4.452 2.498L23.474 25.3l-4.452 2.498v23.494l4.452 2.473 12.115 6.75 4.452 2.473 4.453-2.498 12.089-6.8 4.452-2.486V27.709l-4.452-2.473-12.128-6.763L40.003 16h.025Z"/>
  </g>
  <defs>
    <clipPath id="a">
      <path fill="#fff" d="M.022 0h80v80h-80z"/>
    </clipPath>
    <filter id="b" width="70.013" height="74.987" x="5.022" y="-2" color-interpolation-filters="sRGB" filterUnits="userSpaceOnUse">
      <feFlood flood-opacity="0" result="BackgroundImageFix"/>
      <feBlend in="SourceGraphic" in2="BackgroundImageFix" result="shape"/>
      <feGaussianBlur result="effect1_foregroundBlur_52_21048" stdDeviation="7"/>
    </filter>
  </defs>
</svg>
