<svg xmlns="http://www.w3.org/2000/svg" width="81" height="80" fill="none" viewBox="0 0 81 80">
  <g clip-path="url(#a)">
    <path fill="url(#b)" d="m46.698 31.696-9.058 4.696 3.497 1.873 7.087-3.661c2.946-1.515 4.795-4.525 4.787-7.81v-4.657c0-2.284-1.872-4.137-4.187-4.137-.678 0-1.34.164-1.94.472l-14.217 7.356c-4.244 2.196-5.889 7.38-3.663 11.577a8.63 8.63 0 0 0 3.667 3.623l14.031 7.257a5.521 5.521 0 0 1 3.012 4.917v4.657a.881.881 0 0 1-.901.86.836.836 0 0 1-.393-.098L34.2 51.28c-2.553-1.328-3.597-4.407-2.365-6.987l-2.892-1.587c-2.134 4.186-.474 9.29 3.728 11.462l14.216 7.356a4.204 4.204 0 0 0 4.11-.125 4.105 4.105 0 0 0 2.018-3.54v-4.657c.007-3.28-1.837-6.291-4.78-7.806L34.2 38.136c-2.63-1.378-3.636-4.602-2.245-7.2a5.362 5.362 0 0 1 2.245-2.22l14.224-7.352a.887.887 0 0 1 1.294.761v4.67a5.515 5.515 0 0 1-3.02 4.901Z"/>
  </g>
  <g clip-path="url(#c)" filter="url(#d)" opacity=".6">
    <path fill="url(#e)" d="m38.698 31.696-9.058 4.696 3.497 1.873 7.087-3.661c2.946-1.515 4.795-4.525 4.787-7.81v-4.657c0-2.284-1.872-4.137-4.187-4.137-.678 0-1.34.164-1.94.472l-14.217 7.356c-4.244 2.196-5.889 7.38-3.663 11.577a8.63 8.63 0 0 0 3.667 3.623l14.031 7.257a5.521 5.521 0 0 1 3.012 4.917v4.657a.881.881 0 0 1-.901.86.836.836 0 0 1-.393-.098L26.2 51.28c-2.553-1.328-3.597-4.407-2.365-6.987l-2.892-1.587c-2.134 4.186-.474 9.29 3.728 11.462l14.216 7.356a4.204 4.204 0 0 0 4.11-.125 4.105 4.105 0 0 0 2.018-3.54v-4.657c.007-3.28-1.837-6.291-4.78-7.806L26.2 38.136c-2.63-1.378-3.636-4.602-2.245-7.2a5.362 5.362 0 0 1 2.245-2.22l14.224-7.352a.887.887 0 0 1 1.294.761v4.67a5.515 5.515 0 0 1-3.02 4.901Z"/>
  </g>
  <defs>
    <linearGradient id="b" x1="28.011" x2="53.011" y1="40" y2="40" gradientUnits="userSpaceOnUse">
      <stop stop-color="#8400FF"/>
      <stop offset=".04" stop-color="#8300FF"/>
      <stop offset=".31" stop-color="#7900FF"/>
      <stop offset=".77" stop-color="#5D00FF"/>
      <stop offset="1" stop-color="#4C00FF"/>
    </linearGradient>
    <linearGradient id="e" x1="20.011" x2="45.011" y1="40" y2="40" gradientUnits="userSpaceOnUse">
      <stop stop-color="#8400FF"/>
      <stop offset=".04" stop-color="#8300FF"/>
      <stop offset=".31" stop-color="#7900FF"/>
      <stop offset=".77" stop-color="#5D00FF"/>
      <stop offset="1" stop-color="#4C00FF"/>
    </linearGradient>
    <clipPath id="a">
      <path fill="#fff" d="M28.01 18h25v44h-25z"/>
    </clipPath>
    <clipPath id="c">
      <path fill="#fff" d="M20.01 18h25v44h-25z"/>
    </clipPath>
    <filter id="d" width="53" height="72" x="6.011" y="4" color-interpolation-filters="sRGB" filterUnits="userSpaceOnUse">
      <feFlood flood-opacity="0" result="BackgroundImageFix"/>
      <feBlend in="SourceGraphic" in2="BackgroundImageFix" result="shape"/>
      <feGaussianBlur result="effect1_foregroundBlur_52_21043" stdDeviation="7"/>
    </filter>
  </defs>
</svg>
