<svg xmlns="http://www.w3.org/2000/svg" width="81" height="80" fill="none" viewBox="0 0 81 80">
  <path fill="#00D395" fill-rule="evenodd" d="M23.75 52.292a3.699 3.699 0 0 1-1.743-3.143V41.99c0-.85.684-1.538 1.523-1.535.267 0 .531.074.763.21l15.944 9.418a3.08 3.08 0 0 1 1.508 2.656v7.415c.003 1.018-.81 1.846-1.816 1.846-.336 0-.669-.095-.954-.271L23.75 52.292Zm23.766-13.588a3.092 3.092 0 0 1 1.508 2.656v15.05c0 .443-.235.853-.618 1.07l-3.49 1.989a.607.607 0 0 1-.14.058v-8.356c0-1.08-.561-2.085-1.48-2.641l-14.002-8.485v-9.433c0-.85.683-1.539 1.523-1.535.267 0 .531.073.762.209l15.937 9.418Zm6.98-11.115a3.081 3.081 0 0 1 1.511 2.66v21.98c-.003.451-.25.865-.64 1.081l-3.309 1.81V39.818c0-1.08-.56-2.08-1.471-2.638l-14.314-8.697v-8.946a1.6 1.6 0 0 1 .203-.773 1.512 1.512 0 0 1 2.076-.557l15.944 9.382Z" clip-rule="evenodd"/>
  <g filter="url(#a)" opacity=".2">
    <path fill="#00D395" fill-rule="evenodd" d="M30.75 49.292a3.699 3.699 0 0 1-1.743-3.143V38.99c0-.85.684-1.538 1.523-1.535.267 0 .531.074.763.21l15.944 9.418a3.08 3.08 0 0 1 1.508 2.656v7.415c.003 1.018-.81 1.846-1.816 1.846-.336 0-.669-.095-.954-.271L30.75 49.292Zm23.766-13.588a3.092 3.092 0 0 1 1.508 2.656v15.05c0 .443-.235.853-.618 1.07l-3.49 1.989a.607.607 0 0 1-.14.058v-8.356c0-1.08-.561-2.085-1.48-2.641l-14.002-8.485v-9.433c0-.85.684-1.539 1.523-1.535.267 0 .531.073.763.209l15.936 9.418Zm6.98-11.115a3.081 3.081 0 0 1 1.511 2.66v21.98c-.003.451-.25.865-.64 1.081l-3.309 1.81V36.818c0-1.08-.56-2.08-1.471-2.638l-14.314-8.697v-8.946a1.6 1.6 0 0 1 .203-.773 1.512 1.512 0 0 1 2.076-.557l15.944 9.382Z" clip-rule="evenodd"/>
  </g>
  <defs>
    <filter id="a" width="54" height="64" x="19.007" y="5" color-interpolation-filters="sRGB" filterUnits="userSpaceOnUse">
      <feFlood flood-opacity="0" result="BackgroundImageFix"/>
      <feBlend in="SourceGraphic" in2="BackgroundImageFix" result="shape"/>
      <feGaussianBlur result="effect1_foregroundBlur_52_21042" stdDeviation="5"/>
    </filter>
  </defs>
</svg>
