<svg xmlns="http://www.w3.org/2000/svg" width="81" height="80" fill="none" viewBox="0 0 81 80">
  <g filter="url(#a)" opacity=".5">
    <path fill="url(#b)" fill-rule="evenodd" d="M58.63 55.066a15.033 15.033 0 0 1-5.87 4.091c-4.32 1.625-8.698 1.568-12.98-.19-4.378-1.798-8.297-5.526-10.209-9.712a14.975 14.975 0 0 1-1.376-5.85c-.019-.42-.019-.898-.019-.994v-.63c.057-2.868 1.204-5.64 3.193-7.782a9.395 9.395 0 0 1 3.116-2.217c1.166-.516 2.447-.784 3.823-.822-.478.382-.918.784-1.338 1.242-2.39 2.562-3.709 6.08-3.709 9.922 0 3.843 1.32 7.36 3.709 9.922 1.376 1.472 3.02 2.562 4.894 3.212 1.319.458 2.753.688 4.244.688 2.504 0 6.117-.67 9.08-3.88a13.282 13.282 0 0 0 2.447-3.786h4.894c-.84 2.542-2.16 4.875-3.9 6.786Zm-32.614 0c-3.174-3.383-4.932-7.99-4.932-12.98s1.758-9.635 4.932-13.057c3.211-3.46 7.666-5.353 12.502-5.353 1.205 0 2.409.115 3.556.345 6.117 1.242 10.935 5.735 12.885 11.91h-4.894a13.55 13.55 0 0 0-2.447-3.786 11.842 11.842 0 0 0-4.837-3.192c-1.319-.46-2.752-.688-4.244-.688-1.835 0-3.555.344-5.142 1.05a12.242 12.242 0 0 0-3.996 2.85c-.286.305-.554.611-.802.936-1.606 1.778-2.639 4.13-2.983 7.035a10.562 10.562 0 0 0-.114 1.549v.649c0 .325 0 .65.019.956v.134c.057 2.37.592 4.703 1.606 6.901 1.816 3.977 5.2 7.57 9.138 9.846-3.977-.46-7.552-2.237-10.247-5.105ZM57.1 27.576c2.6 2.18 4.397 5.047 5.276 8.373h-4.645c-1.415-5.18-4.57-9.405-8.794-12.024 3.059.459 5.85 1.701 8.163 3.651Zm-9.501 24.45a13.28 13.28 0 0 0 2.447-3.784h4.588A9.81 9.81 0 0 1 53.2 50.21c-2.237 2.409-4.951 2.982-6.901 3.02a9.623 9.623 0 0 0 1.3-1.204Zm18.008-6.442H48.191l-.325.899c-.516 1.434-1.261 2.695-2.236 3.747-.975 1.051-2.103 1.835-3.384 2.332a9.282 9.282 0 0 1-3.364-2.332c-1.931-2.065-2.983-4.951-2.983-8.106 0-3.154 1.052-6.022 2.983-8.105a9.394 9.394 0 0 1 3.116-2.218c.095-.038.21-.095.305-.134a9.254 9.254 0 0 1 3.327 2.313c.975 1.052 1.72 2.314 2.236 3.747l.325.899h17.435c0-5.257-3.345-10.209-6.786-13.095-3.537-2.963-7.953-4.512-12.77-4.512-1.262 0-2.505.115-3.728.344A21.073 21.073 0 0 0 38.518 21c-5.582 0-10.724 2.198-14.452 6.213-3.651 3.919-5.659 9.195-5.659 14.873 0 5.678 2.008 10.935 5.659 14.797C27.775 60.82 32.898 63 38.499 63c1.281 0 3.154 0 4.55-.306A19.03 19.03 0 0 0 46.49 63c2.409 0 4.798-.459 7.207-1.357a17.382 17.382 0 0 0 6.901-4.799l.02-.019c2.408-2.619 4.702-6.519 4.989-11.24Z" clip-rule="evenodd"/>
  </g>
  <path fill="url(#c)" fill-rule="evenodd" d="M56.63 53.066a15.033 15.033 0 0 1-5.87 4.091c-4.32 1.625-8.698 1.568-12.98-.19-4.378-1.798-8.297-5.526-10.209-9.712a14.975 14.975 0 0 1-1.376-5.85c-.019-.42-.019-.898-.019-.994v-.63c.057-2.868 1.204-5.64 3.193-7.781a9.395 9.395 0 0 1 3.116-2.218c1.166-.516 2.447-.784 3.823-.822-.478.382-.918.784-1.338 1.242-2.39 2.562-3.709 6.08-3.709 9.922 0 3.843 1.32 7.36 3.709 9.922 1.376 1.472 3.02 2.562 4.894 3.212 1.319.458 2.753.688 4.244.688 2.504 0 6.117-.67 9.08-3.88a13.282 13.282 0 0 0 2.447-3.786h4.894c-.84 2.542-2.16 4.875-3.9 6.786Zm-32.614 0c-3.174-3.383-4.932-7.99-4.932-12.98s1.758-9.635 4.932-13.057c3.211-3.46 7.666-5.353 12.502-5.353 1.205 0 2.409.115 3.556.345 6.117 1.242 10.935 5.735 12.885 11.91h-4.894a13.55 13.55 0 0 0-2.447-3.786 11.842 11.842 0 0 0-4.837-3.192c-1.319-.46-2.752-.688-4.244-.688-1.835 0-3.555.344-5.142 1.05a12.242 12.242 0 0 0-3.995 2.85c-.287.305-.555.611-.803.936-1.606 1.778-2.639 4.13-2.983 7.035a10.562 10.562 0 0 0-.114 1.549v.649c0 .325 0 .65.019.956v.134c.057 2.37.592 4.703 1.606 6.901 1.816 3.977 5.2 7.57 9.138 9.846-3.977-.46-7.552-2.237-10.247-5.105ZM55.1 25.576c2.6 2.18 4.397 5.047 5.276 8.373h-4.645c-1.415-5.18-4.57-9.405-8.794-12.024 3.059.459 5.85 1.701 8.163 3.651Zm-9.501 24.45a13.28 13.28 0 0 0 2.447-3.784h4.588A9.81 9.81 0 0 1 51.2 48.21c-2.237 2.409-4.951 2.982-6.901 3.02a9.623 9.623 0 0 0 1.3-1.204Zm18.008-6.442H46.191l-.325.899c-.516 1.434-1.261 2.695-2.236 3.747-.975 1.051-2.103 1.835-3.384 2.332a9.282 9.282 0 0 1-3.364-2.332c-1.931-2.065-2.983-4.951-2.983-8.106 0-3.154 1.052-6.022 2.983-8.105a9.394 9.394 0 0 1 3.116-2.218c.095-.038.21-.095.305-.134a9.254 9.254 0 0 1 3.327 2.313c.975 1.052 1.72 2.314 2.236 3.747l.325.899h17.435c0-5.257-3.345-10.209-6.786-13.095-3.537-2.963-7.953-4.512-12.77-4.512-1.262 0-2.505.115-3.728.344A21.073 21.073 0 0 0 36.518 19c-5.582 0-10.724 2.198-14.452 6.213-3.651 3.919-5.659 9.195-5.659 14.873 0 5.678 2.008 10.935 5.659 14.797C25.775 58.82 30.898 61 36.499 61c1.281 0 3.154 0 4.55-.306A19.03 19.03 0 0 0 44.49 61c2.409 0 4.798-.459 7.207-1.357a17.382 17.382 0 0 0 6.901-4.799l.02-.019c2.408-2.619 4.702-6.519 4.989-11.24Z" clip-rule="evenodd"/>
  <defs>
    <linearGradient id="b" x1="56.469" x2="26.111" y1="61.784" y2="19.402" gradientUnits="userSpaceOnUse">
      <stop stop-color="#B9775D"/>
      <stop offset=".22" stop-color="#E89077"/>
      <stop offset=".78" stop-color="#FDBDA4"/>
      <stop offset="1" stop-color="#B57359"/>
    </linearGradient>
    <linearGradient id="c" x1="54.469" x2="24.111" y1="59.784" y2="17.402" gradientUnits="userSpaceOnUse">
      <stop stop-color="#B9775D"/>
      <stop offset=".22" stop-color="#E89077"/>
      <stop offset=".78" stop-color="#FDBDA4"/>
      <stop offset="1" stop-color="#B57359"/>
    </linearGradient>
    <filter id="a" width="63.219" height="58" x="10.407" y="13" color-interpolation-filters="sRGB" filterUnits="userSpaceOnUse">
      <feFlood flood-opacity="0" result="BackgroundImageFix"/>
      <feBlend in="SourceGraphic" in2="BackgroundImageFix" result="shape"/>
      <feGaussianBlur result="effect1_foregroundBlur_52_21526" stdDeviation="4"/>
    </filter>
  </defs>
</svg>
