<svg xmlns="http://www.w3.org/2000/svg" width="80" height="80" fill="none" viewBox="0 0 80 80">
  <g clip-path="url(#a)">
    <path fill="#012F7A" fill-rule="evenodd" d="M33.963 57c-2.428 0-4.578-1.552-5.312-3.837l-3.775-11.746h-2.32c-2.43 0-4.579-1.553-5.313-3.837L15 30.6h8.414L18.976 24h42.048l-4.438 6.6H65l-2.243 6.98c-.734 2.284-2.883 3.837-5.312 3.837h-2.321l-3.775 11.746C50.615 55.448 48.466 57 46.037 57H33.963Zm-2.852-18.792c0 1.772 1.34 3.209 2.994 3.209 1.654 0 2.994-1.437 2.994-3.209S35.759 35 34.105 35c-1.653 0-2.994 1.436-2.994 3.208Zm17.778 0c0 1.772-1.34 3.209-2.994 3.209-1.653 0-2.994-1.437-2.994-3.209S44.241 35 45.895 35c1.653 0 2.994 1.436 2.994 3.208Z" clip-rule="evenodd"/>
    <g filter="url(#b)" opacity=".4">
      <path fill="#012F7A" fill-rule="evenodd" d="M38.963 51c-2.428 0-4.578-1.552-5.312-3.837l-3.775-11.746h-2.32c-2.43 0-4.579-1.553-5.313-3.838L20 24.6h8.414L23.976 18h42.048l-4.438 6.6H70l-2.243 6.98c-.734 2.284-2.883 3.837-5.312 3.837h-2.321l-3.775 11.746C55.615 49.448 53.466 51 51.037 51H38.963Zm-2.852-18.792c0 1.772 1.34 3.209 2.994 3.209 1.654 0 2.994-1.437 2.994-3.209S40.759 29 39.105 29c-1.653 0-2.994 1.436-2.994 3.208Zm17.778 0c0 1.772-1.34 3.209-2.994 3.209-1.653 0-2.994-1.437-2.994-3.209S49.241 29 50.895 29c1.653 0 2.994 1.436 2.994 3.208Z" clip-rule="evenodd"/>
    </g>
  </g>
  <defs>
    <clipPath id="a">
      <path fill="#fff" d="M0 0h80v80H0z"/>
    </clipPath>
    <filter id="b" width="74" height="57" x="8" y="6" color-interpolation-filters="sRGB" filterUnits="userSpaceOnUse">
      <feFlood flood-opacity="0" result="BackgroundImageFix"/>
      <feBlend in="SourceGraphic" in2="BackgroundImageFix" result="shape"/>
      <feGaussianBlur result="effect1_foregroundBlur_52_21038" stdDeviation="6"/>
    </filter>
  </defs>
</svg>
