<svg xmlns="http://www.w3.org/2000/svg" width="80" height="80" fill="none" viewBox="0 0 80 80">
  <g filter="url(#a)" opacity=".4">
    <path fill="#37BEC1" d="m25.452 27.443 22.65-10.085a4.133 4.133 0 0 1 3.361 7.55l-22.65 10.084a4.133 4.133 0 0 1-3.361-7.55Z"/>
    <path fill="#FBB144" d="m26.72 40.448 15.099-6.723a4.133 4.133 0 0 1 3.361 7.55l-15.099 6.723a4.133 4.133 0 0 1-3.362-7.55Z"/>
    <path fill="#E4615E" d="m35.537 50.091 22.649-10.084a4.133 4.133 0 0 1 3.362 7.55l-22.65 10.085a4.133 4.133 0 0 1-3.361-7.55Z"/>
  </g>
  <g clip-path="url(#b)">
    <path fill="#37BEC1" d="m21.452 30.443 22.65-10.085a4.133 4.133 0 0 1 3.361 7.55l-22.65 10.084a4.133 4.133 0 0 1-3.361-7.55Z"/>
    <path fill="#FBB144" d="m22.72 43.448 15.1-6.723a4.133 4.133 0 0 1 3.361 7.55l-15.1 6.723a4.133 4.133 0 0 1-3.361-7.55Z"/>
    <path fill="#E4615E" d="m31.537 53.091 22.65-10.084a4.133 4.133 0 0 1 3.361 7.55l-22.65 10.085a4.133 4.133 0 0 1-3.36-7.55Z"/>
  </g>
  <defs>
    <clipPath id="b">
      <path fill="#fff" d="M19 20h41v41H19z"/>
    </clipPath>
    <filter id="a" width="61.002" height="61" x="12.999" y="7" color-interpolation-filters="sRGB" filterUnits="userSpaceOnUse">
      <feFlood flood-opacity="0" result="BackgroundImageFix"/>
      <feBlend in="SourceGraphic" in2="BackgroundImageFix" result="shape"/>
      <feGaussianBlur result="effect1_foregroundBlur_52_21466" stdDeviation="5"/>
    </filter>
  </defs>
</svg>
