<svg xmlns="http://www.w3.org/2000/svg" width="80" height="80" fill="none" viewBox="0 0 80 80">
  <g filter="url(#a)" opacity=".3">
    <path fill="#000" fill-rule="evenodd" d="M27 22h31.999v1.167l.001 3.5h-2.909V25.5H29.909v1.167H27V22Zm7.855 12.25h16.58v-.74h2.91v4.958h-2.91v-.718h-16.58v.718h-2.909V33.51h2.91v.74ZM59 48.833 58.999 50H27v-4.667h2.909V46.5H56.09v-1.167H59v3.5Z" clip-rule="evenodd"/>
  </g>
  <path fill="#000" fill-rule="evenodd" d="M21 23h37.999v1.417l.001 4.25h-3.455V27.25h-31.09v1.417H21V23Zm9.328 14.875h19.689v-.9h3.454v6.022h-3.454v-.872H30.328v.872h-3.454v-6.022h3.454v.9ZM59 55.583 58.999 57H21v-5.667h3.454v1.417h31.091v-1.417H59v4.25Z" clip-rule="evenodd"/>
  <defs>
    <filter id="a" width="56" height="52" x="15" y="10" color-interpolation-filters="sRGB" filterUnits="userSpaceOnUse">
      <feFlood flood-opacity="0" result="BackgroundImageFix"/>
      <feBlend in="SourceGraphic" in2="BackgroundImageFix" result="shape"/>
      <feGaussianBlur result="effect1_foregroundBlur_52_21474" stdDeviation="6"/>
    </filter>
  </defs>
</svg>
