<svg xmlns="http://www.w3.org/2000/svg" width="80" height="80" fill="none" viewBox="0 0 80 80">
  <path fill="url(#a)" d="m39.903 16.566-6.025 6.025a.8.8 0 0 0 0 1.131l1.027 1.028a.8.8 0 0 0 1.132 0l6.025-6.025a.8.8 0 0 0 0-1.132l-1.028-1.027a.8.8 0 0 0-1.131 0Z"/>
  <path fill="url(#b)" d="m31.034 25.435-5.82 5.82a.8.8 0 0 0 0 1.131l1.028 1.028a.8.8 0 0 0 1.132 0l5.82-5.82a.8.8 0 0 0 0-1.131l-1.029-1.028a.8.8 0 0 0-1.13 0Z"/>
  <path fill="url(#c)" d="m22.47 33.997-2.394 2.395a.8.8 0 0 0 0 1.131l1.028 1.028a.8.8 0 0 0 1.131 0l2.395-2.395a.8.8 0 0 0 0-1.131l-1.028-1.028a.8.8 0 0 0-1.131 0Z"/>
  <path fill="url(#d)" d="m17.434 39.034-.868.869a.8.8 0 0 0 0 1.131l1.027 1.028a.8.8 0 0 0 1.132 0l.868-.869a.8.8 0 0 0 0-1.131l-1.027-1.028a.8.8 0 0 0-1.132 0Z"/>
  <path fill="url(#e)" d="m54.152 30.814-6 6a.8.8 0 0 0 0 1.132l1.027 1.027a.8.8 0 0 0 1.132 0l6-6a.8.8 0 0 0 0-1.131l-1.028-1.028a.8.8 0 0 0-1.131 0Z"/>
  <path fill="url(#f)" d="m45.332 39.633-5.844 5.845a.8.8 0 0 0 0 1.131l1.027 1.028a.8.8 0 0 0 1.132 0l5.844-5.845a.8.8 0 0 0 0-1.131l-1.027-1.028a.8.8 0 0 0-1.132 0Z"/>
  <path fill="url(#g)" d="m36.795 48.17-2.369 2.37a.8.8 0 0 0 0 1.131l1.028 1.028a.8.8 0 0 0 1.131 0l2.37-2.37a.8.8 0 0 0 0-1.13l-1.028-1.028a.8.8 0 0 0-1.132 0Z"/>
  <path fill="url(#h)" d="m31.608 53.358-.793.793a.8.8 0 0 0 0 1.131l1.027 1.028a.8.8 0 0 0 1.132 0l.793-.793a.8.8 0 0 0 0-1.131l-1.028-1.028a.8.8 0 0 0-1.131 0Z"/>
  <path fill="url(#i)" d="m61.275 37.938-.46.46a.8.8 0 0 0 0 1.131l1.028 1.028a.8.8 0 0 0 1.132 0l.46-.46a.8.8 0 0 0 0-1.131l-1.028-1.028a.8.8 0 0 0-1.132 0Z"/>
  <path fill="url(#j)" d="m58.25 40.965-1.564 1.563a.8.8 0 0 0 0 1.131l1.027 1.028a.8.8 0 0 0 1.132 0l1.563-1.563a.8.8 0 0 0 0-1.132l-1.028-1.027a.8.8 0 0 0-1.13 0Z"/>
  <path fill="url(#k)" d="m54.245 44.97-4.132 4.132a.8.8 0 0 0 0 1.131l1.027 1.028a.8.8 0 0 0 1.132 0l4.132-4.132a.8.8 0 0 0 0-1.132l-1.028-1.027a.8.8 0 0 0-1.131 0Z"/>
  <path fill="url(#l)" d="m47.57 51.642-9.632 9.633a.8.8 0 0 0 0 1.132l1.028 1.027a.8.8 0 0 0 1.131 0l9.633-9.633a.8.8 0 0 0 0-1.13l-1.028-1.029a.8.8 0 0 0-1.131 0Z"/>
  <path fill="url(#m)" d="m47.027 23.69-.56.56a.8.8 0 0 0 0 1.132l1.027 1.027a.8.8 0 0 0 1.132 0l.56-.56a.8.8 0 0 0 0-1.131l-1.028-1.028a.8.8 0 0 0-1.131 0Z"/>
  <path fill="url(#n)" d="m44 26.716-1.588 1.589a.8.8 0 0 0 0 1.131l1.028 1.028a.8.8 0 0 0 1.131 0l1.589-1.589a.8.8 0 0 0 0-1.131l-1.028-1.028a.8.8 0 0 0-1.131 0Z"/>
  <path fill="url(#o)" d="m40.098 30.62-4.258 4.258a.8.8 0 0 0 0 1.131l1.027 1.028a.8.8 0 0 0 1.132 0l4.258-4.258a.8.8 0 0 0 0-1.132l-1.028-1.027a.8.8 0 0 0-1.131 0Z"/>
  <path fill="url(#p)" d="m33.322 37.395-9.632 9.632a.8.8 0 0 0 0 1.131l1.027 1.028a.8.8 0 0 0 1.132 0l9.632-9.633a.8.8 0 0 0 0-1.13l-1.027-1.029a.8.8 0 0 0-1.132 0Z"/>
  <g filter="url(#q)" opacity=".8">
    <path fill="url(#r)" d="m44.91 16.519-5.522 5.523a.733.733 0 0 0 0 1.037l.942.942a.733.733 0 0 0 1.037 0l5.523-5.523a.733.733 0 0 0 0-1.037l-.942-.942a.733.733 0 0 0-1.037 0Z"/>
    <path fill="url(#s)" d="m36.781 24.649-5.334 5.334a.733.733 0 0 0 0 1.037l.942.942a.733.733 0 0 0 1.037 0l5.334-5.334a.733.733 0 0 0 0-1.037l-.942-.942a.733.733 0 0 0-1.037 0Z"/>
    <path fill="url(#t)" d="m28.932 32.498-2.195 2.194a.733.733 0 0 0 0 1.038l.942.942a.733.733 0 0 0 1.037 0l2.195-2.195a.733.733 0 0 0 0-1.037l-.942-.942a.733.733 0 0 0-1.037 0Z"/>
    <path fill="url(#u)" d="m24.315 37.115-.797.796a.733.733 0 0 0 0 1.037l.942.942a.733.733 0 0 0 1.038 0l.796-.796a.733.733 0 0 0 0-1.037l-.942-.942a.733.733 0 0 0-1.037 0Z"/>
    <path fill="url(#v)" d="m57.972 29.58-5.5 5.5a.733.733 0 0 0 0 1.037l.942.942a.733.733 0 0 0 1.037 0l5.5-5.5a.733.733 0 0 0 0-1.038l-.942-.942a.733.733 0 0 0-1.037 0Z"/>
    <path fill="url(#w)" d="M49.888 37.664 44.53 43.02a.733.733 0 0 0 0 1.037l.942.942a.733.733 0 0 0 1.037 0l5.358-5.357a.733.733 0 0 0 0-1.037l-.942-.942a.733.733 0 0 0-1.037 0Z"/>
    <path fill="url(#x)" d="m42.062 45.49-2.171 2.172a.733.733 0 0 0 0 1.037l.942.942a.733.733 0 0 0 1.037 0l2.172-2.172a.733.733 0 0 0 0-1.037l-.943-.942a.733.733 0 0 0-1.037 0Z"/>
    <path fill="url(#y)" d="m37.307 50.245-.727.727a.733.733 0 0 0 0 1.037l.942.942a.733.733 0 0 0 1.037 0l.727-.727a.733.733 0 0 0 0-1.037l-.942-.942a.733.733 0 0 0-1.037 0Z"/>
    <path fill="url(#z)" d="m64.502 36.11-.421.422a.733.733 0 0 0 0 1.037l.942.942a.733.733 0 0 0 1.037 0l.421-.422a.733.733 0 0 0 0-1.037l-.942-.942a.733.733 0 0 0-1.037 0Z"/>
    <path fill="url(#A)" d="m61.728 38.884-1.433 1.433a.733.733 0 0 0 0 1.038l.942.942a.733.733 0 0 0 1.038 0l1.433-1.434a.733.733 0 0 0 0-1.037l-.942-.942a.733.733 0 0 0-1.038 0Z"/>
    <path fill="url(#B)" d="m58.058 42.556-3.788 3.787a.733.733 0 0 0 0 1.037l.942.942a.733.733 0 0 0 1.037 0l3.788-3.787a.733.733 0 0 0 0-1.037l-.942-.942a.733.733 0 0 0-1.037 0Z"/>
    <path fill="url(#C)" d="m51.94 48.672-8.83 8.83a.733.733 0 0 0 0 1.037l.942.942a.733.733 0 0 0 1.037 0l8.83-8.83a.733.733 0 0 0 0-1.037l-.942-.942a.733.733 0 0 0-1.037 0Z"/>
    <path fill="url(#D)" d="m51.441 23.05-.513.513a.733.733 0 0 0 0 1.037l.942.942a.733.733 0 0 0 1.037 0l.513-.514a.733.733 0 0 0 0-1.037l-.942-.942a.733.733 0 0 0-1.037 0Z"/>
    <path fill="url(#E)" d="M48.668 25.823 47.21 27.28a.733.733 0 0 0 0 1.038l.942.942a.733.733 0 0 0 1.038 0l1.456-1.457a.733.733 0 0 0 0-1.037l-.942-.942a.733.733 0 0 0-1.037 0Z"/>
    <path fill="url(#F)" d="m45.09 29.401-3.904 3.904a.733.733 0 0 0 0 1.037l.942.942a.733.733 0 0 0 1.037 0l3.903-3.903a.733.733 0 0 0 0-1.038l-.942-.942a.733.733 0 0 0-1.037 0Z"/>
    <path fill="url(#G)" d="m38.879 35.611-8.83 8.83a.733.733 0 0 0 0 1.037l.942.942a.733.733 0 0 0 1.037 0l8.83-8.83a.733.733 0 0 0 0-1.037l-.942-.941a.733.733 0 0 0-1.037 0Z"/>
  </g>
  <defs>
    <linearGradient id="a" x1="34.639" x2="42.488" y1="24.332" y2="19.037" gradientUnits="userSpaceOnUse">
      <stop stop-color="#8F65E0"/>
      <stop offset="1" stop-color="#6C85D8"/>
    </linearGradient>
    <linearGradient id="b" x1="25.973" x2="33.577" y1="32.998" y2="27.808" gradientUnits="userSpaceOnUse">
      <stop stop-color="#6C85D8"/>
      <stop offset="1" stop-color="#8F65E0"/>
    </linearGradient>
    <linearGradient id="c" x1="20.799" x2="24.448" y1="38.171" y2="35.16" gradientUnits="userSpaceOnUse">
      <stop stop-color="#8F65E0"/>
      <stop offset="1" stop-color="#6C85D8"/>
    </linearGradient>
    <linearGradient id="d" x1="17.272" x2="19.276" y1="41.698" y2="39.901" gradientUnits="userSpaceOnUse">
      <stop stop-color="#6C85D8"/>
      <stop offset="1" stop-color="#8F65E0"/>
    </linearGradient>
    <linearGradient id="e" x1="48.913" x2="56.732" y1="38.556" y2="33.273" gradientUnits="userSpaceOnUse">
      <stop stop-color="#8F65E0"/>
      <stop offset="1" stop-color="#6C85D8"/>
    </linearGradient>
    <linearGradient id="f" x1="40.247" x2="47.88" y1="47.221" y2="42.018" gradientUnits="userSpaceOnUse">
      <stop stop-color="#6C85D8"/>
      <stop offset="1" stop-color="#8F65E0"/>
    </linearGradient>
    <linearGradient id="g" x1="35.148" x2="38.769" y1="52.32" y2="49.328" gradientUnits="userSpaceOnUse">
      <stop stop-color="#8F65E0"/>
      <stop offset="1" stop-color="#6C85D8"/>
    </linearGradient>
    <linearGradient id="h" x1="31.52" x2="33.445" y1="55.947" y2="54.214" gradientUnits="userSpaceOnUse">
      <stop stop-color="#6C85D8"/>
      <stop offset="1" stop-color="#8F65E0"/>
    </linearGradient>
    <linearGradient id="i" x1="61.518" x2="63.097" y1="40.198" y2="38.75" gradientUnits="userSpaceOnUse">
      <stop stop-color="#8F65E0"/>
      <stop offset="1" stop-color="#6C85D8"/>
    </linearGradient>
    <linearGradient id="j" x1="57.4" x2="60.141" y1="44.316" y2="41.949" gradientUnits="userSpaceOnUse">
      <stop stop-color="#6C85D8"/>
      <stop offset="1" stop-color="#8F65E0"/>
    </linearGradient>
    <linearGradient id="k" x1="50.854" x2="56.472" y1="50.863" y2="46.649" gradientUnits="userSpaceOnUse">
      <stop stop-color="#8F65E0"/>
      <stop offset="1" stop-color="#6C85D8"/>
    </linearGradient>
    <linearGradient id="l" x1="38.738" x2="50.951" y1="62.978" y2="56.288" gradientUnits="userSpaceOnUse">
      <stop stop-color="#6C85D8"/>
      <stop offset="1" stop-color="#8F65E0"/>
    </linearGradient>
    <linearGradient id="m" x1="47.17" x2="48.853" y1="26.049" y2="24.514" gradientUnits="userSpaceOnUse">
      <stop stop-color="#8F65E0"/>
      <stop offset="1" stop-color="#6C85D8"/>
    </linearGradient>
    <linearGradient id="n" x1="43.126" x2="45.895" y1="30.093" y2="27.705" gradientUnits="userSpaceOnUse">
      <stop stop-color="#6C85D8"/>
      <stop offset="1" stop-color="#8F65E0"/>
    </linearGradient>
    <linearGradient id="o" x1="36.582" x2="42.346" y1="36.638" y2="32.345" gradientUnits="userSpaceOnUse">
      <stop stop-color="#8F65E0"/>
      <stop offset="1" stop-color="#6C85D8"/>
    </linearGradient>
    <linearGradient id="p" x1="24.489" x2="36.702" y1="48.73" y2="42.04" gradientUnits="userSpaceOnUse">
      <stop stop-color="#6C85D8"/>
      <stop offset="1" stop-color="#8F65E0"/>
    </linearGradient>
    <linearGradient id="r" x1="40.085" x2="47.281" y1="23.637" y2="18.783" gradientUnits="userSpaceOnUse">
      <stop stop-color="#8F65E0"/>
      <stop offset="1" stop-color="#6C85D8"/>
    </linearGradient>
    <linearGradient id="s" x1="32.142" x2="39.112" y1="31.581" y2="26.824" gradientUnits="userSpaceOnUse">
      <stop stop-color="#6C85D8"/>
      <stop offset="1" stop-color="#8F65E0"/>
    </linearGradient>
    <linearGradient id="t" x1="27.399" x2="30.744" y1="36.324" y2="33.563" gradientUnits="userSpaceOnUse">
      <stop stop-color="#8F65E0"/>
      <stop offset="1" stop-color="#6C85D8"/>
    </linearGradient>
    <linearGradient id="u" x1="24.166" x2="26.003" y1="39.557" y2="37.909" gradientUnits="userSpaceOnUse">
      <stop stop-color="#6C85D8"/>
      <stop offset="1" stop-color="#8F65E0"/>
    </linearGradient>
    <linearGradient id="v" x1="53.17" x2="60.337" y1="36.676" y2="31.833" gradientUnits="userSpaceOnUse">
      <stop stop-color="#8F65E0"/>
      <stop offset="1" stop-color="#6C85D8"/>
    </linearGradient>
    <linearGradient id="w" x1="45.226" x2="52.224" y1="44.619" y2="39.85" gradientUnits="userSpaceOnUse">
      <stop stop-color="#6C85D8"/>
      <stop offset="1" stop-color="#8F65E0"/>
    </linearGradient>
    <linearGradient id="x" x1="40.553" x2="43.872" y1="49.293" y2="46.55" gradientUnits="userSpaceOnUse">
      <stop stop-color="#8F65E0"/>
      <stop offset="1" stop-color="#6C85D8"/>
    </linearGradient>
    <linearGradient id="y" x1="37.227" x2="38.991" y1="52.618" y2="51.03" gradientUnits="userSpaceOnUse">
      <stop stop-color="#6C85D8"/>
      <stop offset="1" stop-color="#8F65E0"/>
    </linearGradient>
    <linearGradient id="z" x1="64.725" x2="66.172" y1="38.181" y2="36.854" gradientUnits="userSpaceOnUse">
      <stop stop-color="#8F65E0"/>
      <stop offset="1" stop-color="#6C85D8"/>
    </linearGradient>
    <linearGradient id="A" x1="60.95" x2="63.463" y1="41.957" y2="39.786" gradientUnits="userSpaceOnUse">
      <stop stop-color="#6C85D8"/>
      <stop offset="1" stop-color="#8F65E0"/>
    </linearGradient>
    <linearGradient id="B" x1="54.949" x2="60.099" y1="47.957" y2="44.095" gradientUnits="userSpaceOnUse">
      <stop stop-color="#8F65E0"/>
      <stop offset="1" stop-color="#6C85D8"/>
    </linearGradient>
    <linearGradient id="C" x1="43.843" x2="55.038" y1="59.063" y2="52.931" gradientUnits="userSpaceOnUse">
      <stop stop-color="#6C85D8"/>
      <stop offset="1" stop-color="#8F65E0"/>
    </linearGradient>
    <linearGradient id="D" x1="51.572" x2="53.115" y1="25.212" y2="23.805" gradientUnits="userSpaceOnUse">
      <stop stop-color="#8F65E0"/>
      <stop offset="1" stop-color="#6C85D8"/>
    </linearGradient>
    <linearGradient id="E" x1="47.866" x2="50.404" y1="28.919" y2="26.73" gradientUnits="userSpaceOnUse">
      <stop stop-color="#6C85D8"/>
      <stop offset="1" stop-color="#8F65E0"/>
    </linearGradient>
    <linearGradient id="F" x1="41.867" x2="47.151" y1="34.918" y2="30.983" gradientUnits="userSpaceOnUse">
      <stop stop-color="#8F65E0"/>
      <stop offset="1" stop-color="#6C85D8"/>
    </linearGradient>
    <linearGradient id="G" x1="30.782" x2="41.977" y1="46.002" y2="39.87" gradientUnits="userSpaceOnUse">
      <stop stop-color="#6C85D8"/>
      <stop offset="1" stop-color="#8F65E0"/>
    </linearGradient>
    <filter id="q" width="59.393" height="59.392" x="15.304" y="8.304" color-interpolation-filters="sRGB" filterUnits="userSpaceOnUse">
      <feFlood flood-opacity="0" result="BackgroundImageFix"/>
      <feBlend in="SourceGraphic" in2="BackgroundImageFix" result="shape"/>
      <feGaussianBlur result="effect1_foregroundBlur_52_21956" stdDeviation="4"/>
    </filter>
  </defs>
</svg>
