<svg xmlns="http://www.w3.org/2000/svg" width="80" height="80" fill="none" viewBox="0 0 80 80">
  <g filter="url(#a)" opacity=".6">
    <path fill="#fff" fill-rule="evenodd" d="M47.146 52.116a13.425 13.425 0 0 1-12.61-8.761c2.094 4.872 7.25 8.368 12.61 8.368 5.36 0 10.554-3.457 12.609-8.368a13.424 13.424 0 0 1-12.609 8.761Zm12.938-18.389a3.112 3.112 0 0 1 1.44-3.955 17.003 17.003 0 0 0-5.042-5.014 3.139 3.139 0 0 1-2.752 1.67c2.62 2.349 6.186 6.2 6.186 11.978 0 7.015-5.717 12.701-12.77 12.701s-12.77-5.686-12.77-12.7c0-5.78 3.565-9.63 6.186-11.98a3.14 3.14 0 0 1-2.753-1.67 16.993 16.993 0 0 0-5.04 5.015 3.112 3.112 0 0 1 1.438 3.955 3.141 3.141 0 0 1-3.83 1.785 16.857 16.857 0 0 0 0 7.09 3.142 3.142 0 0 1 3.83 1.786 3.111 3.111 0 0 1-1.44 3.955 17 17 0 0 0 5.042 5.013 3.145 3.145 0 0 1 3.978-1.43 3.115 3.115 0 0 1 1.794 3.808 17.13 17.13 0 0 0 7.13.001 3.115 3.115 0 0 1 1.794-3.81 3.144 3.144 0 0 1 3.978 1.433 16.999 16.999 0 0 0 5.04-5.015 3.112 3.112 0 0 1-1.439-3.955 3.142 3.142 0 0 1 3.83-1.786c.493-2.294.514-4.707.001-7.09a3.142 3.142 0 0 1-3.83-1.785Z" clip-rule="evenodd"/>
    <path fill="#F17300" fill-rule="evenodd" d="M42.226 21.818c-1.691 2.966-.672 5.162-.05 7.405 2.35 8.465-7.242 10.608-3.513 1.647-1.476 2.407-2.785 4.245-2.785 8.452 0 4.262 2.257 7.976 5.599 9.93-.754-4.672 3.424-5.429 5.383-8.967 3.555-6.42-6.357-12.005-4.634-18.467Z" clip-rule="evenodd"/>
    <path fill="#E03597" fill-rule="evenodd" d="M49.325 25.26c-2.96-3.273-5.43-6.446-2.305-12.26-2.122 1.941-6.182 9.322-2.808 14.234 2.993 4.356 5.57 8.08 3.998 12.478-1.39 3.885-6.561 5.73-5.267 9.965 7.081 2.343 14.49-3.03 14.49-10.756 0-6.986-6.628-12.025-8.108-13.662Z" clip-rule="evenodd"/>
    <path fill="#F17300" fill-rule="evenodd" d="M51.046 15.94c-4.267 4.616-2.364 5.762 1.468 9.797.365-3.624-4.19-5.647-1.468-9.798Z" clip-rule="evenodd"/>
  </g>
  <path fill="#000" fill-rule="evenodd" d="M40.146 60.286a15.848 15.848 0 0 1-14.885-10.343c2.472 5.752 8.558 9.878 14.885 9.878 6.326 0 12.46-4.08 14.885-9.878a15.846 15.846 0 0 1-14.885 10.343ZM55.42 38.577a3.673 3.673 0 0 1 1.7-4.669 20.07 20.07 0 0 0-5.953-5.919 3.706 3.706 0 0 1-3.248 1.971c3.093 2.774 7.302 7.32 7.302 14.141 0 8.281-6.75 14.994-15.075 14.994-8.326 0-15.076-6.713-15.076-14.994 0-6.821 4.21-11.367 7.303-14.14a3.708 3.708 0 0 1-3.25-1.972 20.062 20.062 0 0 0-5.95 5.92 3.673 3.673 0 0 1 1.699 4.669 3.708 3.708 0 0 1-4.52 2.106 19.897 19.897 0 0 0-.003 8.37 3.71 3.71 0 0 1 4.523 2.108 3.673 3.673 0 0 1-1.7 4.67 20.067 20.067 0 0 0 5.952 5.918 3.712 3.712 0 0 1 4.695-1.69 3.677 3.677 0 0 1 2.119 4.496 20.21 20.21 0 0 0 8.416.002 3.677 3.677 0 0 1 2.119-4.498 3.711 3.711 0 0 1 4.695 1.691 20.067 20.067 0 0 0 5.95-5.92 3.674 3.674 0 0 1-1.698-4.669 3.709 3.709 0 0 1 4.52-2.107c.582-2.709.607-5.557.002-8.37a3.71 3.71 0 0 1-4.522-2.108Z" clip-rule="evenodd"/>
  <path fill="#F17300" fill-rule="evenodd" d="M34.338 24.519c-1.997 3.502-.794 6.094-.058 8.742 2.774 9.992-8.55 12.522-4.148 1.944-1.743 2.842-3.287 5.012-3.287 9.978 0 5.03 2.664 9.416 6.608 11.72-.889-5.514 4.042-6.407 6.355-10.583 4.197-7.58-7.504-14.173-5.47-21.801Z" clip-rule="evenodd"/>
  <path fill="#E03597" fill-rule="evenodd" d="M42.718 28.582c-3.495-3.863-6.41-7.609-2.72-14.473-2.506 2.292-7.3 11.005-3.315 16.803 3.533 5.142 6.575 9.54 4.719 14.731-1.64 4.585-7.745 6.764-6.218 11.763 8.36 2.766 17.106-3.578 17.106-12.697 0-8.247-7.824-14.195-9.572-16.127Z" clip-rule="evenodd"/>
  <path fill="#F17300" fill-rule="evenodd" d="M44.75 17.58c-5.037 5.449-2.791 6.803 1.732 11.565.432-4.277-4.945-6.666-1.732-11.566Z" clip-rule="evenodd"/>
  <defs>
    <filter id="a" width="58.291" height="67.11" x="18" y="1" color-interpolation-filters="sRGB" filterUnits="userSpaceOnUse">
      <feFlood flood-opacity="0" result="BackgroundImageFix"/>
      <feBlend in="SourceGraphic" in2="BackgroundImageFix" result="shape"/>
      <feGaussianBlur result="effect1_foregroundBlur_52_21600" stdDeviation="6"/>
    </filter>
  </defs>
</svg>
