<svg xmlns="http://www.w3.org/2000/svg" width="80" height="80" fill="none" viewBox="0 0 80 80">
  <g filter="url(#a)">
    <path fill="#002855" fill-opacity=".6" fill-rule="evenodd" d="M29.362 46.202h2.951l-1.512 7.858h5.556l4.986-25.915c-3.068 0-6.026 2.443-6.606 5.456l-.553 2.878H31.15l-.511 2.778h3.01l-.801 4.167h-2.975l-.511 2.778Zm19.545-18.057H43.35L38.578 54.1c3.068 0 6.006-2.446 6.56-5.464l.448-2.434H48.8l.51-2.778h-3.212l.766-4.167h3.213l.51-2.778h-3.212l1.533-8.334Z" clip-rule="evenodd"/>
    <path fill="#002855" fill-opacity=".6" fill-rule="evenodd" d="M40 60.28c10.649 0 19.28-8.631 19.28-19.28 0-10.649-8.631-19.28-19.28-19.28-10.649 0-19.28 8.631-19.28 19.28 0 10.649 8.631 19.28 19.28 19.28ZM40 63c12.15 0 22-9.85 22-22s-9.85-22-22-22-22 9.85-22 22 9.85 22 22 22Z" clip-rule="evenodd"/>
  </g>
  <path fill="#002855" fill-rule="evenodd" d="M29.362 45.202h2.951l-1.512 7.858h5.556l4.986-25.915c-3.068 0-6.026 2.443-6.606 5.456l-.553 2.878H31.15l-.511 2.778h3.01l-.801 4.167h-2.975l-.511 2.778Zm19.545-18.057H43.35L38.578 53.1c3.068 0 6.006-2.446 6.56-5.464l.448-2.434H48.8l.51-2.778h-3.212l.766-4.167h3.213l.51-2.778h-3.212l1.533-8.334Z" clip-rule="evenodd"/>
  <path fill="#002855" fill-rule="evenodd" d="M40 59.28c10.649 0 19.28-8.631 19.28-19.28 0-10.649-8.631-19.28-19.28-19.28-10.649 0-19.28 8.631-19.28 19.28 0 10.649 8.631 19.28 19.28 19.28ZM40 62c12.15 0 22-9.85 22-22s-9.85-22-22-22-22 9.85-22 22 9.85 22 22 22Z" clip-rule="evenodd"/>
  <defs>
    <filter id="a" width="72" height="72" x="4" y="5" color-interpolation-filters="sRGB" filterUnits="userSpaceOnUse">
      <feFlood flood-opacity="0" result="BackgroundImageFix"/>
      <feBlend in="SourceGraphic" in2="BackgroundImageFix" result="shape"/>
      <feGaussianBlur result="effect1_foregroundBlur_52_21725" stdDeviation="7"/>
    </filter>
  </defs>
</svg>
