<svg xmlns="http://www.w3.org/2000/svg" width="80" height="80" fill="none" viewBox="0 0 80 80">
  <g filter="url(#a)" opacity=".3">
    <path fill="#4B5DFF" fill-rule="evenodd" d="M44.388 13.092c-.024-.123-.182-.123-.243 0l-3.489 6.251c-.024.062-.024.123 0 .16l3.61 6.51 9.554 17.239a.173.173 0 0 1-.025.184l-5.044 5.932-5.372 6.374a.155.155 0 0 0 .122.258h8.046s.085-.037.121-.062l9.906-11.714c.024-.061.06-.123.024-.184l-17.21-30.948Z" clip-rule="evenodd"/>
    <path fill="#4B5DFF" fill-rule="evenodd" d="M40.447 55.963s.048-.038.06-.05l5.336-6.366a.157.157 0 0 0-.121-.26h-5.87s-.084-.038-.12-.063l-4.973-5.919c-.024-.062-.06-.124-.024-.186l8.331-15.19c.024-.061.024-.123 0-.16l-3.444-6.304a.157.157 0 0 0-.267 0L27.022 43.938a.247.247 0 0 0 0 .186l9.884 11.814s.06.062.12.062h3.36s.036-.037.06-.05v.013Z" clip-rule="evenodd"/>
  </g>
  <path fill="#000" fill-rule="evenodd" d="M40.583 18.092c-.024-.123-.182-.123-.243 0l-3.488 6.251c-.025.062-.025.123 0 .16l3.61 6.51 9.553 17.239a.173.173 0 0 1-.024.184l-5.044 5.932-5.373 6.374a.155.155 0 0 0 .122.258h8.046s.085-.037.122-.062l9.905-11.714c.025-.061.061-.123.025-.184l-17.21-30.948Z" clip-rule="evenodd"/>
  <path fill="#000" fill-rule="evenodd" d="M36.642 60.963s.048-.038.06-.05l5.337-6.366a.157.157 0 0 0-.122-.26h-5.87s-.084-.038-.12-.063l-4.973-5.919c-.024-.062-.06-.124-.024-.186l8.331-15.19c.025-.061.025-.123 0-.16l-3.444-6.304a.157.157 0 0 0-.267 0L23.218 48.938a.248.248 0 0 0 0 .186l9.884 11.814s.06.062.121.062h3.36s.036-.037.06-.05v.013Z" clip-rule="evenodd"/>
  <defs>
    <filter id="a" width="60.61" height="69" x="14.004" y="0" color-interpolation-filters="sRGB" filterUnits="userSpaceOnUse">
      <feFlood flood-opacity="0" result="BackgroundImageFix"/>
      <feBlend in="SourceGraphic" in2="BackgroundImageFix" result="shape"/>
      <feGaussianBlur result="effect1_foregroundBlur_52_22071" stdDeviation="6.5"/>
    </filter>
  </defs>
</svg>
