<svg xmlns="http://www.w3.org/2000/svg" width="81" height="80" fill="none" viewBox="0 0 81 80">
  <path fill="#64BB70" d="M51.146 25.54a.318.318 0 0 1-.415.148c-2.316-1.054-5.13-1.41-6.981-1.41-6.652 0-13.306 3.245-13.306 8.578 0 2.86 2.144 5.28 5.279 5.28 3.463 0 6.048-2.53 8.137-4.84 1.87-2.089 4.069-4.398 7.202-4.398 3.41 0 5.883 2.529 5.883 5.939 0 5.388-6.489 11.437-15.45 11.437-8.963 0-15.45-4.785-15.45-11.437 0-6.214 7.368-11.823 15.451-11.823 4.125 0 7.231.865 9.517 2.105.15.083.21.267.133.421Zm-9.65-4.67c-11.053 0-20.07 9.018-20.07 20.07 0 11.054 9.018 20.181 20.07 20.181s20.18-9.018 20.18-20.18c0-11.163-9.02-20.071-20.18-20.071Z"/>
  <g filter="url(#a)" opacity=".7">
    <path fill="#64BB70" d="M54.146 21.54a.318.318 0 0 1-.415.148c-2.316-1.054-5.13-1.41-6.981-1.41-6.652 0-13.306 3.245-13.306 8.578 0 2.86 2.144 5.28 5.279 5.28 3.463 0 6.048-2.53 8.137-4.84 1.87-2.089 4.069-4.398 7.202-4.398 3.41 0 5.883 2.529 5.883 5.939 0 5.388-6.489 11.437-15.45 11.437-8.963 0-15.45-4.785-15.45-11.437 0-6.214 7.368-11.823 15.451-11.823 4.125 0 7.231.865 9.517 2.105.15.083.21.267.133.421Zm-9.65-4.67c-11.053 0-20.07 9.018-20.07 20.07 0 11.054 9.018 20.181 20.07 20.181s20.18-9.018 20.18-20.18c0-11.163-9.02-20.071-20.18-20.071Z"/>
  </g>
  <defs>
    <filter id="a" width="68.25" height="68.251" x="10.426" y="2.87" color-interpolation-filters="sRGB" filterUnits="userSpaceOnUse">
      <feFlood flood-opacity="0" result="BackgroundImageFix"/>
      <feBlend in="SourceGraphic" in2="BackgroundImageFix" result="shape"/>
      <feGaussianBlur result="effect1_foregroundBlur_52_23788" stdDeviation="7"/>
    </filter>
  </defs>
</svg>
