<svg xmlns="http://www.w3.org/2000/svg" width="80" height="80" fill="none" viewBox="0 0 80 80">
  <g clip-path="url(#a)">
    <g filter="url(#b)">
      <path fill="#6400FF" fill-opacity=".4" d="M35.846 15.998c-13.254-.001-24 10.744-24.001 23.999-.002 13.254 10.743 24 23.998 24.001C49.097 64 59.843 53.255 59.845 40v-.003C59.843 26.744 49.099 16 35.846 15.998Z"/>
    </g>
    <path fill="#6400FF" d="M40.009 18.998c-11.598-.001-21 9.401-21.002 20.999-.001 11.597 9.401 21 20.999 21.001 11.597.002 21-9.4 21.001-20.998v-.003C61.006 28.4 51.605 19 40.01 18.998Z"/>
    <path fill="#fff" d="M39.905 43.267v-4.706l-12.87 6.603h23.891V31.959L39.905 43.267Z"/>
  </g>
  <defs>
    <clipPath id="a">
      <path fill="#fff" d="M.007-.002h80v80h-80z"/>
    </clipPath>
    <filter id="b" width="76" height="76" x="-2.155" y="1.998" color-interpolation-filters="sRGB" filterUnits="userSpaceOnUse">
      <feFlood flood-opacity="0" result="BackgroundImageFix"/>
      <feBlend in="SourceGraphic" in2="BackgroundImageFix" result="shape"/>
      <feGaussianBlur result="effect1_foregroundBlur_52_23780" stdDeviation="7"/>
    </filter>
  </defs>
</svg>
