<svg xmlns="http://www.w3.org/2000/svg" width="81" height="80" fill="none" viewBox="0 0 81 80">
  <g clip-path="url(#a)">
    <g filter="url(#b)" opacity=".8">
      <path fill="url(#c)" d="m39.958 59.795-13.821-7.943v-9.345l13.821 7.943v9.345Z" opacity=".7"/>
      <path fill="url(#d)" d="m39.958 59.795 13.822-7.943v-9.345L39.957 50.45v9.345Z" opacity=".7"/>
      <path fill="url(#e)" d="M61.911 21.941v15.893l-8.132 4.673V26.614l8.132-4.673Z" opacity=".7"/>
      <path fill="url(#f)" d="M61.912 21.942 48.09 13.998l-8.132 4.673 13.822 7.943 8.132-4.672Z"/>
      <path fill="#F969D3" d="m18.01 21.942 13.822-7.944 8.126 4.673-13.822 7.943-8.125-4.672Z"/>
      <path fill="url(#g)" d="M18.01 21.941v15.893l8.126 4.673V26.614l-8.125-4.673Z" opacity=".7"/>
    </g>
    <path fill="url(#h)" d="m39.958 62.897-13.821-7.943v-9.345l13.821 7.943v9.345Z" opacity=".7"/>
    <path fill="url(#i)" d="m39.958 62.897 13.822-7.943v-9.345l-13.822 7.943v9.345Z" opacity=".7"/>
    <path fill="url(#j)" d="M61.911 25.043v15.893l-8.132 4.673V29.715l8.132-4.672Z" opacity=".7"/>
    <path fill="url(#k)" d="M61.912 25.043 48.09 17.1l-8.132 4.672 13.822 7.944 8.132-4.673Z"/>
    <path fill="#F969D3" d="M18.01 25.043 31.833 17.1l8.126 4.672-13.822 7.944-8.125-4.673Z"/>
    <path fill="url(#l)" d="M18.01 25.043v15.893l8.126 4.673V29.715l-8.125-4.672Z" opacity=".7"/>
  </g>
  <defs>
    <linearGradient id="c" x1="38.481" x2="26.613" y1="59.714" y2="22.977" gradientUnits="userSpaceOnUse">
      <stop stop-color="#E98ADA"/>
      <stop offset="1" stop-color="#7E4DBD"/>
    </linearGradient>
    <linearGradient id="d" x1="46.869" x2="46.869" y1="42.507" y2="59.795" gradientUnits="userSpaceOnUse">
      <stop stop-color="#719DED"/>
      <stop offset="1" stop-color="#2545BE"/>
    </linearGradient>
    <linearGradient id="e" x1="57.845" x2="57.845" y1="21.941" y2="42.507" gradientUnits="userSpaceOnUse">
      <stop stop-color="#93EBFF"/>
      <stop offset="1" stop-color="#197DDB"/>
    </linearGradient>
    <linearGradient id="f" x1="50.935" x2="59.988" y1="13.998" y2="30.189" gradientUnits="userSpaceOnUse">
      <stop stop-color="#F969D3"/>
      <stop offset="1" stop-color="#4F51C0"/>
    </linearGradient>
    <linearGradient id="g" x1="37.948" x2="10.373" y1="62.365" y2="30.509" gradientUnits="userSpaceOnUse">
      <stop stop-color="#E98ADA"/>
      <stop offset="1" stop-color="#7E4DBD"/>
    </linearGradient>
    <linearGradient id="h" x1="38.481" x2="26.613" y1="62.816" y2="26.079" gradientUnits="userSpaceOnUse">
      <stop stop-color="#E98ADA"/>
      <stop offset="1" stop-color="#7E4DBD"/>
    </linearGradient>
    <linearGradient id="i" x1="46.869" x2="46.869" y1="45.609" y2="62.897" gradientUnits="userSpaceOnUse">
      <stop stop-color="#719DED"/>
      <stop offset="1" stop-color="#2545BE"/>
    </linearGradient>
    <linearGradient id="j" x1="57.845" x2="57.845" y1="25.043" y2="45.609" gradientUnits="userSpaceOnUse">
      <stop stop-color="#93EBFF"/>
      <stop offset="1" stop-color="#197DDB"/>
    </linearGradient>
    <linearGradient id="k" x1="50.935" x2="59.988" y1="17.1" y2="33.29" gradientUnits="userSpaceOnUse">
      <stop stop-color="#F969D3"/>
      <stop offset="1" stop-color="#4F51C0"/>
    </linearGradient>
    <linearGradient id="l" x1="37.948" x2="10.373" y1="65.467" y2="33.611" gradientUnits="userSpaceOnUse">
      <stop stop-color="#E98ADA"/>
      <stop offset="1" stop-color="#7E4DBD"/>
    </linearGradient>
    <clipPath id="a">
      <path fill="#fff" d="M.01-.002h80v80h-80z"/>
    </clipPath>
    <filter id="b" width="71.9" height="73.797" x="4.011" y="-.002" color-interpolation-filters="sRGB" filterUnits="userSpaceOnUse">
      <feFlood flood-opacity="0" result="BackgroundImageFix"/>
      <feBlend in="SourceGraphic" in2="BackgroundImageFix" result="shape"/>
      <feGaussianBlur result="effect1_foregroundBlur_52_23781" stdDeviation="7"/>
    </filter>
  </defs>
</svg>
