<svg xmlns="http://www.w3.org/2000/svg" width="80" height="80" fill="none" viewBox="0 0 80 80">
  <path fill="#01C8A1" fill-rule="evenodd" d="M62 35.672c-9.76 0-17.672-7.912-17.672-17.672h-8.656c0 14.54 11.788 26.328 26.328 26.328v-8.656Z" clip-rule="evenodd"/>
  <path fill="#01E3B5" fill-rule="evenodd" d="M62 44.328c-9.76 0-17.672 7.912-17.672 17.672h-8.656c0-14.54 11.788-26.328 26.328-26.328v8.656Z" clip-rule="evenodd"/>
  <path fill="#01C8A1" fill-rule="evenodd" d="M18 44.328c9.76 0 17.672 7.912 17.672 17.672h8.656c0-14.54-11.788-26.328-26.328-26.328v8.656Z" clip-rule="evenodd"/>
  <path fill="#01E3B5" fill-rule="evenodd" d="M18 35.672c9.76 0 17.672-7.912 17.672-17.672h8.656c0 14.54-11.788 26.328-26.328 26.328v-8.656Z" clip-rule="evenodd"/>
  <path fill="#01C8A1" fill-rule="evenodd" d="M44.328 18h-8.656A26.204 26.204 0 0 0 40 32.468 26.206 26.206 0 0 0 44.328 18Z" clip-rule="evenodd"/>
  <g filter="url(#a)" opacity=".4">
    <path fill="#01C8A1" fill-rule="evenodd" d="M67 30.869c-9.316 0-16.869-7.553-16.869-16.869H41.87c0 13.88 11.252 25.131 25.131 25.131v-8.262Z" clip-rule="evenodd"/>
    <path fill="#01E3B5" fill-rule="evenodd" d="M67 39.131c-9.316 0-16.869 7.553-16.869 16.869H41.87c0-13.88 11.252-25.131 25.131-25.131v8.262Z" clip-rule="evenodd"/>
    <path fill="#01C8A1" fill-rule="evenodd" d="M25 39.131c9.316 0 16.869 7.553 16.869 16.869h8.262c0-13.88-11.252-25.131-25.131-25.131v8.262Z" clip-rule="evenodd"/>
    <path fill="#01E3B5" fill-rule="evenodd" d="M25 30.869c9.316 0 16.869-7.553 16.869-16.869h8.262c0 13.88-11.252 25.131-25.131 25.131v-8.262Z" clip-rule="evenodd"/>
    <path fill="#01C8A1" fill-rule="evenodd" d="M50.13 14h-8.26c0 5.101 1.52 9.847 4.13 13.81A25.014 25.014 0 0 0 50.132 14Z" clip-rule="evenodd"/>
  </g>
  <defs>
    <filter id="a" width="62" height="62" x="15" y="4" color-interpolation-filters="sRGB" filterUnits="userSpaceOnUse">
      <feFlood flood-opacity="0" result="BackgroundImageFix"/>
      <feBlend in="SourceGraphic" in2="BackgroundImageFix" result="shape"/>
      <feGaussianBlur result="effect1_foregroundBlur_52_23880" stdDeviation="5"/>
    </filter>
  </defs>
</svg>
