<svg xmlns="http://www.w3.org/2000/svg" width="81" height="80" fill="none" viewBox="0 0 81 80">
  <path fill="#121314" fill-rule="evenodd" d="M11.3 33.849c0-.119.097-.215.216-.215H28.27c.118 0 .215.096.215.215v6.433a.215.215 0 0 1-.215.215H11.516a.215.215 0 0 1-.215-.215V33.85Zm15.037 4.396c0 .06-.048.107-.107.107H13.556a.107.107 0 0 1-.107-.107v-2.36c0-.058.048-.106.107-.106H26.23c.06 0 .107.048.107.107v2.359Zm-13.103 4.826c.119 0 .215.096.215.214v1.716a.215.215 0 0 1-.215.214h-1.718a.215.215 0 0 1-.215-.214v-1.716c0-.118.096-.214.215-.214h1.718Zm39.74.214a.214.214 0 0 0-.215-.214h-1.718a.215.215 0 0 0-.215.214v1.716c0 .118.096.214.215.214h1.718a.215.215 0 0 0 .215-.214v-1.716Zm-21.696-.214a.214.214 0 0 0-.215.214v1.716c0 .118.096.214.215.214h16.755a.215.215 0 0 0 .215-.214v-1.716a.214.214 0 0 0-.215-.214H31.278Zm19.548-9.222c0-.119.096-.215.215-.215h16.755c.118 0 .214.096.214.215v6.433a.215.215 0 0 1-.214.215H51.04a.215.215 0 0 1-.214-.215V33.85Zm14.929 1.93c.06 0 .107.048.107.107v2.359c0 .06-.048.107-.107.107H53.081a.107.107 0 0 1-.107-.107v-2.36c0-.058.048-.106.107-.106h12.674Zm-34.692-1.93c0-.119.096-.215.215-.215h16.755c.119 0 .215.096.215.215v6.433a.215.215 0 0 1-.215.215H31.278a.215.215 0 0 1-.215-.215v-1.715c0-.119.096-.215.215-.215h14.715a.107.107 0 0 0 .107-.107v-2.36a.107.107 0 0 0-.108-.106H31.279a.215.215 0 0 1-.215-.215V33.85Z" clip-rule="evenodd"/>
  <g filter="url(#a)">
    <path fill="#121314" fill-opacity=".5" fill-rule="evenodd" d="M11.3 31.886c0-.118.097-.214.216-.214H28.27c.118 0 .215.096.215.214v6.434a.215.215 0 0 1-.215.215H11.516a.215.215 0 0 1-.215-.215v-6.434Zm15.037 4.397a.107.107 0 0 1-.107.107H13.556a.107.107 0 0 1-.107-.107v-2.36c0-.059.048-.107.107-.107H26.23c.06 0 .107.048.107.107v2.36Zm-13.103 4.825c.119 0 .215.096.215.215v1.715a.215.215 0 0 1-.215.215h-1.718a.215.215 0 0 1-.215-.215v-1.715c0-.119.096-.215.215-.215h1.718Zm39.74.215a.214.214 0 0 0-.215-.215h-1.718a.215.215 0 0 0-.215.215v1.715c0 .119.096.215.215.215h1.718a.215.215 0 0 0 .215-.215v-1.715Zm-21.696-.215a.214.214 0 0 0-.215.215v1.715c0 .119.096.215.215.215h16.755a.215.215 0 0 0 .215-.215v-1.715a.214.214 0 0 0-.215-.215H31.278Zm19.548-9.222c0-.118.096-.214.215-.214h16.755c.118 0 .214.096.214.214v6.434a.215.215 0 0 1-.214.215H51.04a.215.215 0 0 1-.214-.215v-6.434Zm14.929 1.93c.06 0 .107.048.107.107v2.36a.107.107 0 0 1-.107.107H53.081a.107.107 0 0 1-.107-.107v-2.36c0-.059.048-.107.107-.107h12.674Zm-34.692-1.93c0-.118.096-.214.215-.214h16.755c.119 0 .215.096.215.214v6.434a.215.215 0 0 1-.215.215H31.278a.215.215 0 0 1-.215-.215v-1.716c0-.118.096-.214.215-.214h14.715a.107.107 0 0 0 .107-.107v-2.36a.107.107 0 0 0-.108-.107H31.279a.215.215 0 0 1-.215-.214v-1.716Z" clip-rule="evenodd"/>
  </g>
  <defs>
    <filter id="a" width="76.71" height="31.581" x="1.301" y="21.672" color-interpolation-filters="sRGB" filterUnits="userSpaceOnUse">
      <feFlood flood-opacity="0" result="BackgroundImageFix"/>
      <feBlend in="SourceGraphic" in2="BackgroundImageFix" result="shape"/>
      <feGaussianBlur result="effect1_foregroundBlur_52_24263" stdDeviation="5"/>
    </filter>
  </defs>
</svg>
