<svg xmlns="http://www.w3.org/2000/svg" width="81" height="80" fill="none" viewBox="0 0 81 80">
  <g clip-path="url(#a)">
    <path fill="#CDF459" d="M33.735 22.176 23 33.138v24.715h24.204L57.939 46.89V22.176H33.735Zm17.827 20.997c.015 2.455.015 3.835 0 6.29l-4.92 5.024L29.359 36.84c.015-2.454.015-3.834 0-6.29l4.92-5.023 17.283 17.647Z"/>
  </g>
  <g clip-path="url(#b)" filter="url(#c)">
    <path fill="#CDF459" fill-opacity=".6" d="M33.735 19.176 23 30.138v24.715h24.204L57.939 43.89V19.176H33.735Zm17.827 20.997c.015 2.455.015 3.835 0 6.29l-4.92 5.024L29.359 33.84c.015-2.454.015-3.834 0-6.29l4.92-5.023 17.283 17.647Z"/>
  </g>
  <defs>
    <clipPath id="a">
      <path fill="#fff" d="M23 21.996h35v36H23z"/>
    </clipPath>
    <clipPath id="b">
      <path fill="#fff" d="M23 18.996h35v36H23z"/>
    </clipPath>
    <filter id="c" width="57" height="58" x="12" y="7.996" color-interpolation-filters="sRGB" filterUnits="userSpaceOnUse">
      <feFlood flood-opacity="0" result="BackgroundImageFix"/>
      <feBlend in="SourceGraphic" in2="BackgroundImageFix" result="shape"/>
      <feGaussianBlur result="effect1_foregroundBlur_52_24262" stdDeviation="5.5"/>
    </filter>
  </defs>
</svg>
