<svg xmlns="http://www.w3.org/2000/svg" width="80" height="80" fill="none" viewBox="0 0 80 80">
  <g clip-path="url(#a)">
    <g filter="url(#b)" opacity=".8">
      <path fill="url(#c)" fill-rule="evenodd" d="M34.67 13.663c-.14-.832 1.031-1.168 1.353-.388l.628 1.52c.02.05.035.098.046.147a20.098 20.098 0 0 1 4.522-.56.862.862 0 0 1 .009-.153l.24-1.624c.122-.835 1.34-.793 1.405.048L43 14.29a.847.847 0 0 1-.002.155c1.527.12 3.027.415 4.473.87a.837.837 0 0 1 .056-.144l.731-1.473c.375-.756 1.52-.34 1.322.481l-.386 1.598a.862.862 0 0 1-.049.146 20.344 20.344 0 0 1 3.989 2.204.863.863 0 0 1 .094-.115l1.15-1.175c.59-.603 1.552.146 1.11.866l-.861 1.4a.858.858 0 0 1-.087.118 20.092 20.092 0 0 1 3.388 3.707c-.003-.134-.003-.267-.004-.397v-.024c-.003-.666.599-1.177 1.281-1.273a1.486 1.486 0 0 1 1.572.913c.388.988.454 2.073.187 3.1-.021.093-.047.185-.076.29v.003l-.035.124a5.158 5.158 0 0 1 2.223 2.495c.356.85.018 1.718-.767 2.062-.405.174-.8.128-1.164-.061.32 1.41.484 2.83.498 4.237a.81.81 0 0 1 .129.01l1.623.239c.835.123.793 1.341-.048 1.406l-1.637.127a.866.866 0 0 1-.127 0 20.227 20.227 0 0 1-.867 4.48.883.883 0 0 1 .113.047l1.473.73c.756.376.34 1.521-.481 1.323l-1.599-.386a.857.857 0 0 1-.115-.037 20.34 20.34 0 0 1-2.206 3.997.9.9 0 0 1 .087.074l1.175 1.15c.603.59-.147 1.551-.866 1.11l-1.4-.862a.84.84 0 0 1-.091-.064 20.108 20.108 0 0 1-3.336 3.12c.02.03.04.06.056.093l.761 1.454c.391.748-.62 1.43-1.166.788l-1.064-1.25a.814.814 0 0 1-.066-.088 20.334 20.334 0 0 1-4.14 1.93c.01.035.019.07.025.105l.274 1.622c.141.832-1.03 1.169-1.352.389l-.628-1.521a.836.836 0 0 1-.034-.1 20.1 20.1 0 0 1-4.534.562.82.82 0 0 1-.009.105l-.24 1.624c-.122.835-1.34.793-1.405-.049l-.127-1.636a.825.825 0 0 1-.001-.107 20.233 20.233 0 0 1-4.484-.875.836.836 0 0 1-.042.1l-.731 1.473c-.375.756-1.52.34-1.322-.48l.386-1.599a.872.872 0 0 1 .033-.105 20.324 20.324 0 0 1-3.995-2.214.812.812 0 0 1-.072.085l-1.15 1.175c-.59.603-1.551-.147-1.11-.866l.861-1.4a.856.856 0 0 1 .065-.092 20.112 20.112 0 0 1-3.113-3.34.844.844 0 0 1-.1.061l-1.454.76c-.748.392-1.43-.618-.788-1.166l1.25-1.064a.888.888 0 0 1 .097-.072c-.502-.822-.95-1.69-1.338-2.6l-2.758 3.656c-.366.485-1.079.537-1.46.065-2.614-3.231-2.937-7.504-2.681-10.114.062-.628.719-.974 1.3-.73l4.131 1.744a20.097 20.097 0 0 1-.164-2.403.83.83 0 0 1-.131-.009l-1.624-.24c-.835-.122-.793-1.34.049-1.406L21.11 33a.868.868 0 0 1 .135 0c.123-1.528.42-3.03.877-4.475a.861.861 0 0 1-.13-.052l-1.473-.731c-.756-.375-.34-1.52.48-1.323l1.599.386a.858.858 0 0 1 .136.046 20.332 20.332 0 0 1 2.21-3.987.854.854 0 0 1-.112-.092l-1.175-1.15c-.603-.591.147-1.552.866-1.11l1.401.861a.875.875 0 0 1 .117.087 20.103 20.103 0 0 1 3.334-3.108.878.878 0 0 1-.081-.128l-.76-1.454c-.392-.748.618-1.43 1.166-.787l1.064 1.25c.034.04.063.081.088.125a20.34 20.34 0 0 1 4.132-1.923.852.852 0 0 1-.04-.15l-.274-1.622Zm-9.529 27.169c3.434 8.986 13.503 13.488 22.49 10.054 8.903-3.403 13.404-13.317 10.148-22.239-1.08.907-2.375 1.729-3.882 2.28-3.379 1.24-5.959 1.779-8.136 1.992-2.477 3.406-6.687 4.826-8.723 5.119l.26-5.1a20.91 20.91 0 0 0-4.42.658c-3.129.805-6.044 2.116-8.69 3.638.185 1.206.5 2.411.953 3.598Zm4.439.438a1.535 1.535 0 1 1-.538-3.023 1.535 1.535 0 0 1 .538 3.023Zm7.075.185a1.002 1.002 0 1 1-.352-1.972 1.002 1.002 0 0 1 .352 1.972Zm8.985-.351a1.002 1.002 0 1 1-.351-1.972 1.002 1.002 0 0 1 .35 1.972Zm1.87 4.799a1.001 1.001 0 1 0 1.973-.35 1.001 1.001 0 0 0-1.972.35Zm-10.5 2.444a1.002 1.002 0 1 1-.35-1.972 1.002 1.002 0 0 1 .35 1.972Zm-5.405-4.233a1.002 1.002 0 1 0 1.972-.351 1.002 1.002 0 0 0-1.972.35Zm9.78.322a1.002 1.002 0 1 1-.35-1.972 1.002 1.002 0 0 1 .35 1.972Zm8.551-4.097a1.535 1.535 0 1 0 3.023-.538 1.535 1.535 0 0 0-3.023.538Zm-8.591 7.78a1.535 1.535 0 1 0 3.022-.539 1.535 1.535 0 0 0-3.022.538Zm11.735-23.55c.308 1.35-.489 2.681-1.779 2.975-1.29.293-2.584-.563-2.891-1.913-.307-1.349.49-2.681 1.779-2.975 1.29-.293 2.584.563 2.891 1.913Z" clip-rule="evenodd"/>
      <path fill="#4A98EA" d="M51.399 26.371c.58-.132.928-.783.775-1.453-.152-.67-.747-1.107-1.328-.974-.58.132-.928.782-.775 1.453.152.67.747 1.106 1.328.974Z"/>
    </g>
    <path fill="url(#d)" fill-rule="evenodd" d="M34.235 17.413c-.153-.901 1.116-1.265 1.465-.42l.68 1.647a.955.955 0 0 1 .049.158c1.63-.393 3.272-.59 4.898-.606a.93.93 0 0 1 .01-.166l.259-1.76c.133-.903 1.452-.858 1.523.053l.137 1.773a.926.926 0 0 1-.002.167c1.653.131 3.279.45 4.845.943a.902.902 0 0 1 .06-.155l.792-1.596c.406-.819 1.646-.368 1.432.52l-.418 1.732a.934.934 0 0 1-.054.158c1.522.63 2.972 1.43 4.32 2.386a.932.932 0 0 1 .103-.124l1.246-1.273c.639-.653 1.68.16 1.2.938l-.932 1.517a.924.924 0 0 1-.094.127 21.765 21.765 0 0 1 3.67 4.015c-.003-.145-.004-.288-.005-.43v-.025c-.003-.721.649-1.276 1.388-1.379a1.61 1.61 0 0 1 1.702.989c.42 1.07.492 2.245.203 3.358-.024.1-.051.2-.083.313v.003l-.037.134a5.587 5.587 0 0 1 2.407 2.703c.386.92.02 1.86-.83 2.233-.439.189-.868.14-1.26-.066.346 1.528.523 3.066.539 4.59.045 0 .092.002.139.01l1.758.259c.904.133.859 1.452-.053 1.523l-1.772.137a.941.941 0 0 1-.137 0 21.908 21.908 0 0 1-.94 4.853c.041.013.082.03.122.05l1.596.791c.818.407.367 1.647-.521 1.433l-1.731-.418a.946.946 0 0 1-.125-.04 22.027 22.027 0 0 1-2.39 4.328.944.944 0 0 1 .095.08l1.273 1.246c.653.64-.16 1.68-.938 1.202l-1.518-.933a.929.929 0 0 1-.098-.07 21.776 21.776 0 0 1-3.613 3.38.953.953 0 0 1 .061.1l.824 1.576c.424.81-.67 1.548-1.263.852l-1.152-1.353a.885.885 0 0 1-.072-.095 22.02 22.02 0 0 1-4.483 2.09c.011.037.02.075.026.114l.298 1.757c.152.9-1.116 1.265-1.465.42l-.68-1.647a.878.878 0 0 1-.036-.107 21.77 21.77 0 0 1-4.911.608.904.904 0 0 1-.01.114l-.26 1.758c-.132.904-1.452.859-1.522-.053l-.137-1.772a.892.892 0 0 1-.002-.115A21.904 21.904 0 0 1 34.955 61a.912.912 0 0 1-.045.108l-.792 1.596c-.406.818-1.647.367-1.432-.521l.418-1.731a.959.959 0 0 1 .035-.115 22.018 22.018 0 0 1-4.325-2.397.889.889 0 0 1-.08.092l-1.245 1.273c-.64.653-1.68-.16-1.201-.938l.933-1.517a.914.914 0 0 1 .07-.099 21.776 21.776 0 0 1-3.372-3.618.913.913 0 0 1-.11.066l-1.574.824c-.81.424-1.548-.67-.852-1.263l1.352-1.152a.973.973 0 0 1 .106-.078 22 22 0 0 1-1.449-2.817l-2.987 3.96c-.396.526-1.169.581-1.582.07-2.83-3.499-3.18-8.127-2.903-10.954.067-.68.778-1.055 1.408-.79l4.474 1.888a21.718 21.718 0 0 1-.177-2.602.909.909 0 0 1-.143-.01l-1.758-.259c-.904-.133-.859-1.452.052-1.523l1.773-.137a.936.936 0 0 1 .146 0 21.92 21.92 0 0 1 .95-4.847.923.923 0 0 1-.142-.056l-1.595-.792c-.819-.406-.368-1.646.52-1.432l1.732.418c.052.012.1.029.147.049a22.02 22.02 0 0 1 2.395-4.318.929.929 0 0 1-.122-.1l-1.273-1.246c-.653-.64.16-1.68.938-1.2l1.517.931a.95.95 0 0 1 .127.094 21.785 21.785 0 0 1 3.611-3.366.963.963 0 0 1-.088-.138l-.824-1.575c-.423-.81.67-1.548 1.264-.853l1.152 1.354a.91.91 0 0 1 .096.136 22.031 22.031 0 0 1 4.475-2.083.935.935 0 0 1-.043-.162l-.297-1.757ZM23.913 46.838c3.72 9.733 14.625 14.609 24.358 10.89 9.643-3.685 14.517-14.423 10.99-24.086-1.168.982-2.571 1.872-4.203 2.47-3.66 1.341-6.454 1.925-8.812 2.157-2.682 3.688-7.242 5.226-9.448 5.543l.281-5.522a22.56 22.56 0 0 0-4.785.712c-3.39.87-6.547 2.291-9.413 3.94a18.93 18.93 0 0 0 1.032 3.896Zm4.808.475a1.663 1.663 0 1 1-.582-3.274 1.663 1.663 0 0 1 .582 3.274Zm7.663.2a1.085 1.085 0 1 1-.38-2.136 1.085 1.085 0 0 1 .38 2.136Zm9.73-.38a1.085 1.085 0 1 1-.38-2.136 1.085 1.085 0 0 1 .38 2.136Zm2.027 5.197a1.085 1.085 0 1 0 2.136-.38 1.085 1.085 0 0 0-2.136.38ZM36.77 54.978a1.085 1.085 0 1 1-.38-2.136 1.085 1.085 0 0 1 .38 2.136Zm-5.855-4.585a1.085 1.085 0 1 0 2.137-.38 1.085 1.085 0 0 0-2.137.38Zm10.593.35a1.085 1.085 0 1 1-.38-2.137 1.085 1.085 0 0 1 .38 2.136Zm9.26-4.438a1.663 1.663 0 1 0 3.274-.583 1.663 1.663 0 0 0-3.273.583Zm-9.304 8.425a1.662 1.662 0 1 0 3.273-.583 1.662 1.662 0 0 0-3.273.583Zm12.71-25.506c.333 1.462-.53 2.905-1.927 3.223-1.397.317-2.799-.61-3.131-2.072-.333-1.461.53-2.904 1.927-3.222 1.397-.317 2.799.61 3.131 2.071Z" clip-rule="evenodd"/>
    <path fill="#4A98EA" d="M52.352 31.176c.63-.143 1.005-.848.84-1.573-.165-.727-.81-1.199-1.438-1.056-.63.143-1.005.848-.84 1.574.165.726.81 1.199 1.438 1.055Z"/>
  </g>
  <defs>
    <linearGradient id="c" x1="44.051" x2="63.831" y1="12" y2="44.179" gradientUnits="userSpaceOnUse">
      <stop offset=".068" stop-color="#874FFF"/>
      <stop offset=".464" stop-color="#36AFE2"/>
      <stop offset=".859" stop-color="#41FF54"/>
    </linearGradient>
    <linearGradient id="d" x1="44.394" x2="65.817" y1="15.612" y2="50.463" gradientUnits="userSpaceOnUse">
      <stop offset=".068" stop-color="#874FFF"/>
      <stop offset=".464" stop-color="#36AFE2"/>
      <stop offset=".859" stop-color="#41FF54"/>
    </linearGradient>
    <clipPath id="a">
      <path fill="#fff" d="M0 0h80v80H0z"/>
    </clipPath>
    <filter id="b" width="76.158" height="73.178" x="1.842" y="-2" color-interpolation-filters="sRGB" filterUnits="userSpaceOnUse">
      <feFlood flood-opacity="0" result="BackgroundImageFix"/>
      <feBlend in="SourceGraphic" in2="BackgroundImageFix" result="shape"/>
      <feGaussianBlur result="effect1_foregroundBlur_52_24266" stdDeviation="7"/>
    </filter>
  </defs>
</svg>
