<svg xmlns="http://www.w3.org/2000/svg" width="81" height="80" fill="none" viewBox="0 0 81 80">
  <g filter="url(#a)">
    <path fill="#FD627A" fill-opacity=".7" fill-rule="evenodd" d="m52.968 35.741-5.289-8.784 2.74-4.502 7.998 13.286h-5.45ZM34.966 48.087h10.692l2.669 4.394H32.345l2.62-4.394Zm10.688-22.319H34.953l-2.616-4.404h15.996l-2.68 4.404Zm-.008 19.955H34.95l-5.296-8.795 5.296-8.796h10.696l5.295 8.796-5.295 8.795ZM30.26 22.464l2.662 4.483-5.292 8.792h-5.361l7.991-13.275Zm-7.994 15.638h5.355l5.308 8.816-2.665 4.468-7.998-13.284Zm28.149 13.294-2.734-4.501 5.292-8.79h5.443l-8.001 13.29Zm1.006-31.828a1.169 1.169 0 0 0-1-.568H30.263c-.41 0-.789.215-1.001.568l-10.078 16.74c-.227.378-.227.85 0 1.228l10.078 16.74c.212.353.592.568 1 .568H50.42c.41 0 .789-.215 1.001-.568L61.5 37.536a1.19 1.19 0 0 0 0-1.227l-10.078-16.74Zm-5.062 19.2a1.165 1.165 0 0 0-1.616.366l-2.073 3.303a1.188 1.188 0 0 0 .363 1.63 1.168 1.168 0 0 0 1.616-.366l2.073-3.302a1.188 1.188 0 0 0-.363-1.631Zm.1-2.622a1.165 1.165 0 0 1 1.604-.42c.558.332.744 1.056.416 1.619l-.153.261a1.169 1.169 0 0 1-1.603.42 1.188 1.188 0 0 1-.416-1.618l.153-.262Z" clip-rule="evenodd"/>
  </g>
  <path fill="#FD627A" fill-rule="evenodd" d="m52.968 38.741-5.289-8.784 2.74-4.502 7.998 13.286h-5.45ZM34.966 51.087h10.692l2.669 4.394H32.345l2.62-4.394Zm10.688-22.319H34.953l-2.616-4.404h15.996l-2.68 4.404Zm-.008 19.955H34.95l-5.296-8.795 5.296-8.796h10.696l5.295 8.796-5.295 8.795ZM30.26 25.464l2.662 4.483-5.292 8.792h-5.361l7.991-13.275Zm-7.994 15.638h5.355l5.308 8.816-2.665 4.468-7.998-13.284Zm28.149 13.294-2.734-4.501 5.292-8.79h5.443l-8.001 13.29Zm1.006-31.828a1.169 1.169 0 0 0-1-.568H30.263c-.41 0-.789.215-1.001.568l-10.078 16.74c-.227.378-.227.85 0 1.228l10.078 16.74c.212.353.592.568 1 .568H50.42c.41 0 .789-.215 1.001-.568L61.5 40.536a1.19 1.19 0 0 0 0-1.227l-10.078-16.74Zm-5.062 19.2a1.165 1.165 0 0 0-1.616.366l-2.073 3.303a1.188 1.188 0 0 0 .363 1.63 1.168 1.168 0 0 0 1.616-.366l2.073-3.302a1.188 1.188 0 0 0-.363-1.631Zm.1-2.622a1.165 1.165 0 0 1 1.604-.42c.558.332.744 1.056.416 1.619l-.153.261a1.169 1.169 0 0 1-1.603.42 1.188 1.188 0 0 1-.416-1.618l.153-.262Z" clip-rule="evenodd"/>
  <defs>
    <filter id="a" width="70.655" height="63.845" x="5.015" y="5" color-interpolation-filters="sRGB" filterUnits="userSpaceOnUse">
      <feFlood flood-opacity="0" result="BackgroundImageFix"/>
      <feBlend in="SourceGraphic" in2="BackgroundImageFix" result="shape"/>
      <feGaussianBlur result="effect1_foregroundBlur_52_24760" stdDeviation="7"/>
    </filter>
  </defs>
</svg>
