<svg xmlns="http://www.w3.org/2000/svg" width="80" height="80" fill="none" viewBox="0 0 80 80">
  <g clip-path="url(#a)">
    <path fill="#ACE730" fill-rule="evenodd" d="M50.806 19.456a30.275 30.275 0 0 0-1.793-.782 24.882 24.882 0 0 0-3.726-1.104 23.436 23.436 0 0 0-4.783-.506c-.782 0-1.564.046-2.346.092a23.469 23.469 0 0 0-13.983 6.486l-.736.736c-3.541 3.725-5.841 8.647-6.347 14.028-.046.69-.092 1.38-.092 2.116 0 1.748.184 3.45.552 5.106a25.43 25.43 0 0 0 1.104 3.633l.004.01c.274.64.55 1.281.824 1.876a25.396 25.396 0 0 0 1.84 3.036l3.863-3.91L50.024 25.16l3.864-3.91c-.92-.644-1.978-1.242-3.082-1.794ZM22.933 44.984a1.634 1.634 0 0 1-.092-.46 18.931 18.931 0 0 1-.414-3.956 17.9 17.9 0 0 1 4.922-12.373l.644-.644c3.404-3.265 7.819-5.06 12.557-5.06 1.241 0 2.483.139 3.68.369l.551.138-21.848 21.986Zm40.984-2.298v.138c-1.012 11.223-9.935 20.008-20.835 21.112h-.23l21.065-21.25ZM30.71 61.961c.552.23 1.104.46 1.701.69l30.081-30.357c-.23-.598-.506-1.196-.782-1.794-.506-1.15-1.15-2.207-1.84-3.22L27.399 60.076c1.058.736 2.162 1.334 3.312 1.886Z" clip-rule="evenodd"/>
    <g filter="url(#b)">
      <path fill="#ACE730" fill-opacity=".8" fill-rule="evenodd" d="M50.806 14.392a30.277 30.277 0 0 0-1.793-.782 24.893 24.893 0 0 0-3.726-1.104A23.443 23.443 0 0 0 40.504 12c-.782 0-1.564.046-2.346.092a23.469 23.469 0 0 0-13.983 6.485l-.736.736c-3.541 3.726-5.841 8.647-6.347 14.029-.046.69-.092 1.38-.092 2.116 0 1.747.184 3.45.552 5.105a25.422 25.422 0 0 0 1.104 3.634l.004.009c.274.64.55 1.282.824 1.877a25.395 25.395 0 0 0 1.84 3.035l3.863-3.91 24.837-25.113 3.864-3.91c-.92-.643-1.978-1.241-3.082-1.793ZM22.933 39.919a1.634 1.634 0 0 1-.092-.46 18.93 18.93 0 0 1-.414-3.955c0-4.646 1.748-9.015 4.922-12.373l.644-.644c3.404-3.266 7.819-5.06 12.557-5.06 1.241 0 2.483.138 3.68.368l.551.138L22.933 39.92Zm40.984-2.297v.138c-1.012 11.222-9.935 20.008-20.835 21.111h-.23l21.065-21.25ZM30.71 56.897c.552.23 1.104.46 1.701.69L62.492 27.23a30.475 30.475 0 0 0-.782-1.794c-.506-1.15-1.15-2.208-1.84-3.22L27.399 55.011c1.058.736 2.162 1.334 3.312 1.886Z" clip-rule="evenodd"/>
    </g>
  </g>
  <defs>
    <clipPath id="a">
      <path fill="#fff" d="M0 0h80v80H0z"/>
    </clipPath>
    <filter id="b" width="74.917" height="74.872" x="3" y="-2" color-interpolation-filters="sRGB" filterUnits="userSpaceOnUse">
      <feFlood flood-opacity="0" result="BackgroundImageFix"/>
      <feBlend in="SourceGraphic" in2="BackgroundImageFix" result="shape"/>
      <feGaussianBlur result="effect1_foregroundBlur_52_24765" stdDeviation="7"/>
    </filter>
  </defs>
</svg>
