<svg xmlns="http://www.w3.org/2000/svg" width="81" height="80" fill="none" viewBox="0 0 81 80">
  <g clip-path="url(#a)">
    <path fill="url(#b)" fill-rule="evenodd" d="M64.022 40c0 13.255-10.745 24-24 24s-24-10.745-24-24 10.745-24 24-24 24 10.745 24 24Zm-25.364-8.727a2.455 2.455 0 0 0 0 4.909v8.182c-5.874 0-10.636-4.762-10.636-10.637 0-5.874 4.762-10.636 10.636-10.636 5.875 0 10.637 4.762 10.637 10.636h-8.182a2.455 2.455 0 0 0-2.455-2.454Zm5.182 15.545a2.455 2.455 0 1 1-4.909 0H30.75c0 5.874 4.762 10.636 10.637 10.636 5.874 0 10.636-4.762 10.636-10.636S47.26 36.182 41.386 36.182v8.181a2.455 2.455 0 0 1 2.454 2.455Z" clip-rule="evenodd"/>
    <g filter="url(#c)">
      <path fill="url(#d)" fill-rule="evenodd" d="M68.022 35c0 13.255-10.745 24-24 24s-24-10.745-24-24 10.745-24 24-24 24 10.745 24 24Zm-25.364-8.727a2.455 2.455 0 0 0 0 4.909v8.182c-5.874 0-10.636-4.762-10.636-10.637 0-5.874 4.762-10.636 10.636-10.636 5.875 0 10.637 4.762 10.637 10.636h-8.182a2.455 2.455 0 0 0-2.455-2.454Zm5.182 15.545a2.455 2.455 0 1 1-4.909 0H34.75c0 5.874 4.762 10.636 10.637 10.636 5.874 0 10.636-4.762 10.636-10.636S51.26 31.182 45.386 31.182v8.181a2.455 2.455 0 0 1 2.454 2.455Z" clip-rule="evenodd"/>
    </g>
  </g>
  <defs>
    <radialGradient id="b" cx="0" cy="0" r="1" gradientTransform="rotate(71.737 1.147 24.888) scale(63.1826)" gradientUnits="userSpaceOnUse">
      <stop stop-color="#FFBFFF"/>
      <stop offset="1" stop-color="#4F68F7"/>
    </radialGradient>
    <radialGradient id="d" cx="0" cy="0" r="1" gradientTransform="rotate(71.737 6.604 25.154) scale(63.1826)" gradientUnits="userSpaceOnUse">
      <stop stop-color="#FFBFFF"/>
      <stop offset="1" stop-color="#4F68F7"/>
    </radialGradient>
    <clipPath id="a">
      <path fill="#fff" d="M.022 0h80.004v80H.022z"/>
    </clipPath>
    <filter id="c" width="76" height="76" x="6.022" y="-3" color-interpolation-filters="sRGB" filterUnits="userSpaceOnUse">
      <feFlood flood-opacity="0" result="BackgroundImageFix"/>
      <feBlend in="SourceGraphic" in2="BackgroundImageFix" result="shape"/>
      <feGaussianBlur result="effect1_foregroundBlur_52_25160" stdDeviation="7"/>
    </filter>
  </defs>
</svg>
