<svg xmlns="http://www.w3.org/2000/svg" width="80" height="80" fill="none" viewBox="0 0 80 80">
  <g clip-path="url(#a)">
    <path fill="#2DB1FF" d="m32.319 55.05 6.396-8.042a1.642 1.642 0 0 1 2.594 0l6.397 8.042a1.745 1.745 0 0 1 0 2.149l-6.397 8.042a1.642 1.642 0 0 1-2.593 0l-6.397-8.042a1.745 1.745 0 0 1 0-2.149Z" opacity=".62"/>
    <path fill="#2DB1FF" d="M51.236 27.326a1.642 1.642 0 0 0-2.593 0l-6.397 8.042a1.745 1.745 0 0 0 0 2.15l6.397 8.041a1.642 1.642 0 0 0 2.593 0l6.397-8.042a1.745 1.745 0 0 0 0-2.149l-6.397-8.042Zm-19.874 0a1.642 1.642 0 0 0-2.594 0l-6.397 8.042a1.745 1.745 0 0 0 0 2.15l6.397 8.041a1.642 1.642 0 0 0 2.594 0l6.397-8.042a1.745 1.745 0 0 0 0-2.149l-6.397-8.042ZM47.706 22.8l-6.397-8.042a1.642 1.642 0 0 0-2.594 0l-6.397 8.043a1.745 1.745 0 0 0 0 2.148l6.397 8.043a1.642 1.642 0 0 0 2.594 0l6.397-8.043a1.745 1.745 0 0 0 0-2.149Z"/>
    <g filter="url(#b)" opacity=".4">
      <path fill="#2DB1FF" d="m32.319 50.926 6.396-8.042a1.642 1.642 0 0 1 2.594 0l6.397 8.042a1.745 1.745 0 0 1 0 2.15l-6.397 8.041a1.642 1.642 0 0 1-2.593 0l-6.397-8.042a1.745 1.745 0 0 1 0-2.149Z" opacity=".62"/>
      <path fill="#2DB1FF" d="M51.236 23.203a1.642 1.642 0 0 0-2.593 0l-6.397 8.042a1.745 1.745 0 0 0 0 2.149l6.397 8.042a1.642 1.642 0 0 0 2.593 0l6.397-8.042a1.745 1.745 0 0 0 0-2.15l-6.397-8.041Zm-19.874 0a1.642 1.642 0 0 0-2.594 0l-6.397 8.042a1.745 1.745 0 0 0 0 2.149l6.397 8.042a1.642 1.642 0 0 0 2.594 0l6.397-8.042a1.745 1.745 0 0 0 0-2.15l-6.397-8.041Zm16.344-4.526-6.397-8.042a1.642 1.642 0 0 0-2.594 0l-6.397 8.042a1.745 1.745 0 0 0 0 2.149l6.397 8.042a1.642 1.642 0 0 0 2.594 0l6.397-8.042a1.745 1.745 0 0 0 0-2.149Z"/>
    </g>
  </g>
  <defs>
    <clipPath id="a">
      <path fill="#fff" d="M.003 0h80.004v80H.003z"/>
    </clipPath>
    <filter id="b" width="64.002" height="79.752" x="8.001" y="-4" color-interpolation-filters="sRGB" filterUnits="userSpaceOnUse">
      <feFlood flood-opacity="0" result="BackgroundImageFix"/>
      <feBlend in="SourceGraphic" in2="BackgroundImageFix" result="shape"/>
      <feGaussianBlur result="effect1_foregroundBlur_52_25145" stdDeviation="7"/>
    </filter>
  </defs>
</svg>
