<svg xmlns="http://www.w3.org/2000/svg" width="81" height="80" fill="none" viewBox="0 0 81 80">
  <g clip-path="url(#a)">
    <path fill="#023BFF" d="M15.019 26v9.561h11.486V26H15.019Zm27.027 9.561V26h22.973v9.561H42.046Zm-27.027 0v9.561h11.486v-9.561H15.019ZM37.992 54H26.505V35.561h11.487V54Zm15.54 0H42.046V35.561h11.486V54Z"/>
    <g filter="url(#b)" opacity=".6">
      <path fill="#023BFF" d="M18.019 21v9.561h11.486V21H18.019Zm27.027 9.561V21h22.973v9.561H45.046Zm-27.027 0v9.561h11.486v-9.561H18.019ZM40.992 49H29.505V30.561h11.487V49Zm15.54 0H45.046V30.561h11.486V49Z"/>
    </g>
  </g>
  <defs>
    <clipPath id="a">
      <path fill="#fff" d="M.019 0h80.004v80H.019z"/>
    </clipPath>
    <filter id="b" width="74" height="52" x="6.019" y="9" color-interpolation-filters="sRGB" filterUnits="userSpaceOnUse">
      <feFlood flood-opacity="0" result="BackgroundImageFix"/>
      <feBlend in="SourceGraphic" in2="BackgroundImageFix" result="shape"/>
      <feGaussianBlur result="effect1_foregroundBlur_52_25151" stdDeviation="6"/>
    </filter>
  </defs>
</svg>
