<svg xmlns="http://www.w3.org/2000/svg" width="81" height="80" fill="none" viewBox="0 0 81 80">
  <g filter="url(#a)" opacity=".8">
    <path fill="#E5AA0B" fill-rule="evenodd" d="m37.763 45.99 2.28-17.323 2.362.306-2.28 17.324-2.362-.307Z" clip-rule="evenodd"/>
    <path fill="#E5AA0B" d="M23.031 44.577c2.823-1.954 5.282-3.19 7.378-3.71 3.144-.78 1.311 4.318 7.575 4.942 6.264.625 12.276-4.343 16.377-3.89 2.734.302 5.032 1.526 6.893 3.672L41.998 61.432 23.03 44.577Z"/>
    <path fill="#E5AA0B" d="M23.031 44.577c2.823-1.954 5.282-3.19 7.378-3.71 3.144-.78 1.311 4.318 7.575 4.942 6.264.625 12.276-4.343 16.377-3.89 2.734.302 5.032 1.526 6.893 3.672L41.998 61.432 23.03 44.577Z"/>
    <path fill="#E5AA0B" fill-rule="evenodd" d="m40.827 61.648-3.054-16.306 2.341-.432 3.054 16.306-2.341.432Z" clip-rule="evenodd"/>
    <path fill="#E5AA0B" fill-rule="evenodd" d="m41.911 15.996 10.238 6.51 10.854 23.133-21.048 17.357-20.952-18.793 9.276-18.98 11.632-9.227Zm.153 2.905-9.877 7.835-8.26 16.903 18.094 16.23 18.048-14.884-9.788-20.86-8.217-5.224Z" clip-rule="evenodd"/>
    <path fill="#E5AA0B" fill-rule="evenodd" d="M51.783 24.355 41.13 30.09l-10.232-2.977.67-2.269 9.29 2.703 9.789-5.272 1.136 2.079Z" clip-rule="evenodd"/>
  </g>
  <path fill="#06070A" fill-rule="evenodd" d="m33.291 47.848 2.27-17.362 2.349.307-2.269 17.362-2.35-.307Z" clip-rule="evenodd"/>
  <path fill="#06070A" d="M18.636 46.432c2.808-1.958 5.254-3.197 7.34-3.718 3.127-.781 1.304 4.328 7.535 4.953 6.232.626 12.212-4.353 16.292-3.899 2.72.303 5.006 1.53 6.857 3.68L37.504 63.326 18.636 46.432Z"/>
  <mask id="b" width="39" height="22" x="18" y="42" maskUnits="userSpaceOnUse" style="mask-type:luminance">
    <path fill="#fff" d="M18.636 46.432c2.808-1.958 5.254-3.197 7.34-3.718 3.127-.781 1.304 4.328 7.535 4.953 6.232.626 12.212-4.353 16.292-3.899 2.72.303 5.006 1.53 6.857 3.68L37.504 63.326 18.636 46.432Z"/>
  </mask>
  <g mask="url(#b)">
    <path fill="#FFF3D1" fill-rule="evenodd" d="M36.34 63.542 33.3 47.199l2.33-.433 3.038 16.343-2.33.433Z" clip-rule="evenodd"/>
  </g>
  <path fill="#06070A" fill-rule="evenodd" d="m37.418 17.788 10.184 6.524 10.799 23.185-20.94 17.395L16.62 46.058l9.228-19.023 11.571-9.247Zm.153 2.912-9.826 7.852-8.218 16.94 18 16.266L55.482 46.84l-9.737-20.905L37.57 20.7Z" clip-rule="evenodd"/>
  <path fill="#06070A" fill-rule="evenodd" d="m47.239 26.165-10.598 5.75-10.179-2.984.667-2.274 9.241 2.709 9.739-5.284 1.13 2.083Z" clip-rule="evenodd"/>
  <defs>
    <filter id="a" width="70" height="75" x="7.003" y="1.996" color-interpolation-filters="sRGB" filterUnits="userSpaceOnUse">
      <feFlood flood-opacity="0" result="BackgroundImageFix"/>
      <feBlend in="SourceGraphic" in2="BackgroundImageFix" result="shape"/>
      <feGaussianBlur result="effect1_foregroundBlur_52_25141" stdDeviation="7"/>
    </filter>
  </defs>
</svg>
