<svg xmlns="http://www.w3.org/2000/svg" width="80" height="80" fill="none" viewBox="0 0 80 80">
  <path fill="#8D8EF9" d="M38.09 36.667c2.47 1.931 5.279 3.374 7.56 5.58 3.653 3.544 5.406 8.317 3.147 13.24-2.366 5.134-8.237 9.144-14.953 7.531-5.702-1.379-9.651-6.28-9.841-12.2-.085-2.694.443-5.218 1.837-7.531.254-.403.233-.636-.211-.87-.338-.17-.887-.318-.866-.679.021-.36.591-.424.95-.615 1.711-.891 3.422-1.782 5.132-2.652.233-.127.444-.297.803-.297a1036.22 1036.22 0 0 1-.338 7.723c-.55-.17-.95-.488-1.373-.785-.359-.255-.549-.276-.802.148-2.915 5.092-.76 12.582 5.786 14.003 4.16.912 7.899-1.421 9.694-4.222 2.07-3.246 1.69-6.492-1.035-9.42a48.04 48.04 0 0 0-1.795-1.803c-.401-1.38-1.267-2.525-1.9-3.798-.592-1.104-1.352-2.143-1.796-3.353Z"/>
  <path fill="#51559C" d="M38.09 36.667c.443 1.21 1.203 2.25 1.773 3.416.634 1.273 1.5 2.419 1.9 3.798-1.668-1.146-3.378-2.27-5.004-3.48-1.88-1.379-3.422-3.076-4.52-5.155-1.584-3.034-1.795-6.217-.38-9.357 1.985-4.476 5.407-7.404 10.222-8.274 5.174-.955 10.37 1.867 12.777 6.577 2.196 4.286 2.006 8.529-.317 12.687-.444.785-.338 1.146.422 1.464.317.128.57.361 1.014.637-2.386 1.23-4.688 2.419-7.117 3.692.105-2.695.211-5.262.338-7.978.464.297.844.51 1.203.764.36.254.57.212.803-.17 2.661-4.243 1.52-9.908-2.598-12.687-3.358-2.27-7.666-1.804-10.75 1.145-1.182 1.125-2.175 2.377-2.745 3.947-1.098 3.055-.105 5.6 1.901 7.892.338.382.718.721 1.077 1.082Z"/>
  <g filter="url(#a)" opacity=".6">
    <path fill="#8D8EF9" d="M41.694 34.865c2.47 1.93 5.28 3.374 7.56 5.58 3.654 3.543 5.407 8.317 3.147 13.24-2.365 5.134-8.236 9.144-14.952 7.531-5.702-1.379-9.652-6.28-9.842-12.2-.084-2.694.444-5.219 1.838-7.531.253-.403.232-.637-.212-.87-.337-.17-.887-.318-.865-.679.02-.36.59-.424.95-.615 1.71-.891 3.421-1.782 5.132-2.652.232-.128.443-.297.802-.297-.105 2.567-.21 5.113-.338 7.722-.549-.17-.95-.488-1.372-.785-.36-.254-.55-.275-.803.149-2.914 5.092-.76 12.581 5.787 14.003 4.16.912 7.898-1.422 9.693-4.222 2.07-3.246 1.69-6.492-1.034-9.42-.57-.616-1.183-1.21-1.796-1.804-.4-1.379-1.267-2.525-1.9-3.798-.591-1.103-1.352-2.142-1.795-3.352Z"/>
    <path fill="#51559C" d="M41.694 34.865c.443 1.21 1.203 2.249 1.774 3.416.633 1.273 1.5 2.419 1.9 3.798-1.668-1.146-3.379-2.27-5.005-3.48-1.88-1.379-3.421-3.076-4.52-5.156-1.583-3.033-1.795-6.216-.38-9.356 1.986-4.477 5.407-7.405 10.222-8.274 5.174-.955 10.37 1.867 12.777 6.577 2.196 4.285 2.006 8.529-.317 12.687-.443.785-.338 1.146.423 1.464.317.127.57.36 1.013.637a1179.83 1179.83 0 0 0-7.117 3.691c.106-2.694.212-5.261.338-7.977.465.297.845.509 1.204.764.359.254.57.212.803-.17 2.66-4.243 1.52-9.908-2.598-12.688-3.358-2.27-7.666-1.803-10.75 1.146-1.182 1.125-2.175 2.376-2.745 3.946-1.098 3.055-.106 5.601 1.9 7.893.338.382.719.721 1.078 1.082Z"/>
  </g>
  <defs>
    <filter id="a" width="52.405" height="65.95" x="17.599" y="5.627" color-interpolation-filters="sRGB" filterUnits="userSpaceOnUse">
      <feFlood flood-opacity="0" result="BackgroundImageFix"/>
      <feBlend in="SourceGraphic" in2="BackgroundImageFix" result="shape"/>
      <feGaussianBlur result="effect1_foregroundBlur_52_25157" stdDeviation="5"/>
    </filter>
  </defs>
</svg>
