<svg xmlns="http://www.w3.org/2000/svg" width="81" height="80" fill="none" viewBox="0 0 81 80">
  <g clip-path="url(#a)">
    <g filter="url(#b)" opacity=".8">
      <path fill="url(#c)" fill-rule="evenodd" d="M44.13 12 23.017 24.189v7.062l4.109 2.372-3.938 2.274-.17-.1v12.004l21.095 12.18V60l21.11-12.188V24.2l-3.562 2.057v-4.134L44.13 12Zm14.933 32.303v.003l-14.934 8.621v-.002l14.934-8.622ZM44.071 52.89 29.18 44.274v.02l14.891 8.597Z" clip-rule="evenodd"/>
    </g>
    <g clip-path="url(#d)">
      <path fill="url(#e)" d="M51.505 38.598c4.33-2.41 8.207-4.63 8.207-4.63L40.129 23.115V44.54c.675-.211 2.426-1.088 4.619-2.251l6.757 3.901v-7.592Z"/>
      <path fill="url(#f)" d="M40.13 23.115 20.546 33.163s17.1 9.793 19.582 10.572v-20.62Z"/>
      <path fill="url(#g)" d="m51.505 46.19-11.41-6.587-14.937 8.658 14.971 8.664 14.984-8.651v-4.166l-3.608 2.083Z"/>
      <path fill="url(#h)" d="M33.99 32.887v15.535l6.162 3.558V36.445l-6.162-3.558Z"/>
      <path fill="url(#i)" d="M40.152 36.445v15.534l6.162-3.558V32.887l-6.162 3.558Z"/>
      <path fill="url(#j)" d="m30.81 40.105-5.63 3.25v4.919l9.235-5.332-3.605-2.837Z"/>
      <path fill="url(#k)" d="m31.127 39.921-5.947 3.434-5.991-3.458 5.947-3.434 5.991 3.458Z"/>
      <path fill="url(#l)" d="M19.018 28.189v7.062L40.13 47.44v-7.063L19.02 28.189Z"/>
      <path fill="url(#m)" d="m25.18 43.355-6.162-3.557V51.8L40.13 63.99v-7.065l-14.949-8.63v-4.94Z"/>
      <path fill="url(#n)" d="M40.13 16 19.017 28.189l6.162 3.558 14.95-8.631L51.5 29.68l6.162-3.558L40.13 16Z"/>
      <path fill="url(#o)" d="m33.99 32.887 6.162 3.558 6.117-3.532-6.162-3.557-6.117 3.531Z"/>
      <path fill="url(#p)" d="M51.5 29.68v16.514l6.162-3.558V26.123l-6.161 3.557Z"/>
      <path fill="url(#q)" d="M40.114 40.389v7.063l14.949-8.63v9.483l-14.95 8.631V64l21.112-12.188V28.2L40.114 40.39Z"/>
    </g>
  </g>
  <defs>
    <linearGradient id="c" x1="3.116" x2="93.762" y1="68.234" y2="52.253" gradientUnits="userSpaceOnUse">
      <stop stop-color="#26FFED"/>
      <stop offset=".315" stop-color="#18C4CD"/>
      <stop offset=".631" stop-color="#0B90B1"/>
      <stop offset=".869" stop-color="#0370A0"/>
      <stop offset="1" stop-color="#006499"/>
    </linearGradient>
    <linearGradient id="e" x1="50.156" x2="49.503" y1="9.732" y2="47.157" gradientUnits="userSpaceOnUse">
      <stop stop-color="#0098A6"/>
      <stop offset="1" stop-color="#002D4D"/>
    </linearGradient>
    <linearGradient id="f" x1="30.338" x2="30.338" y1="57.365" y2="11.547" gradientUnits="userSpaceOnUse">
      <stop stop-color="#0098A6"/>
      <stop offset="1" stop-color="#002D4D"/>
    </linearGradient>
    <linearGradient id="g" x1="6.916" x2="29.66" y1="25.053" y2="68.328" gradientUnits="userSpaceOnUse">
      <stop offset=".27" stop-color="#0098A6"/>
      <stop offset="1" stop-color="#002D4D"/>
    </linearGradient>
    <linearGradient id="h" x1="37.373" x2="32.381" y1="26.835" y2="53.612" gradientUnits="userSpaceOnUse">
      <stop stop-color="#0098A6"/>
      <stop offset="1" stop-color="#002D4D"/>
    </linearGradient>
    <linearGradient id="i" x1="43.233" x2="43.233" y1="15.991" y2="52.074" gradientUnits="userSpaceOnUse">
      <stop stop-color="#0098A6"/>
      <stop offset="1" stop-color="#002D4D"/>
    </linearGradient>
    <linearGradient id="j" x1="46.484" x2="22.442" y1="33.888" y2="51.004" gradientUnits="userSpaceOnUse">
      <stop offset=".27" stop-color="#0098A6"/>
      <stop offset="1" stop-color="#002D4D"/>
    </linearGradient>
    <linearGradient id="k" x1="7.131" x2="33.211" y1="29.006" y2="76.352" gradientUnits="userSpaceOnUse">
      <stop offset=".27" stop-color="#0098A6"/>
      <stop offset="1" stop-color="#002D4D"/>
    </linearGradient>
    <linearGradient id="l" x1="5.634" x2="73.449" y1="21.855" y2="76.222" gradientUnits="userSpaceOnUse">
      <stop offset=".088" stop-color="#26FFED"/>
      <stop offset=".39" stop-color="#18C4CD"/>
      <stop offset=".631" stop-color="#0B90B1"/>
      <stop offset=".869" stop-color="#0370A0"/>
      <stop offset=".994" stop-color="#006499"/>
    </linearGradient>
    <linearGradient id="m" x1="1.981" x2="83.69" y1="34.161" y2="75.646" gradientUnits="userSpaceOnUse">
      <stop offset=".098" stop-color="#26FFED"/>
      <stop offset=".381" stop-color="#18C4CD"/>
      <stop offset=".631" stop-color="#0B90B1"/>
      <stop offset=".869" stop-color="#0370A0"/>
      <stop offset=".993" stop-color="#006499"/>
    </linearGradient>
    <linearGradient id="n" x1="67.014" x2="47.613" y1="8.379" y2="84.907" gradientUnits="userSpaceOnUse">
      <stop stop-color="#26FFED"/>
      <stop offset=".315" stop-color="#18C4CD"/>
      <stop offset=".631" stop-color="#0B90B1"/>
      <stop offset=".869" stop-color="#0370A0"/>
      <stop offset="1" stop-color="#006499"/>
    </linearGradient>
    <linearGradient id="o" x1="22.226" x2="67.008" y1="44.357" y2="-41.642" gradientUnits="userSpaceOnUse">
      <stop stop-color="#26FFED"/>
      <stop offset=".315" stop-color="#18C4CD"/>
      <stop offset=".631" stop-color="#0B90B1"/>
      <stop offset=".869" stop-color="#0370A0"/>
      <stop offset="1" stop-color="#006499"/>
    </linearGradient>
    <linearGradient id="p" x1="54.662" x2="53.486" y1="14.02" y2="44.869" gradientUnits="userSpaceOnUse">
      <stop stop-color="#0098A6"/>
      <stop offset="1" stop-color="#002D4D"/>
    </linearGradient>
    <linearGradient id="q" x1="-.884" x2="89.762" y1="72.234" y2="56.253" gradientUnits="userSpaceOnUse">
      <stop stop-color="#26FFED"/>
      <stop offset=".315" stop-color="#18C4CD"/>
      <stop offset=".631" stop-color="#0B90B1"/>
      <stop offset=".869" stop-color="#0370A0"/>
      <stop offset="1" stop-color="#006499"/>
    </linearGradient>
    <clipPath id="a">
      <path fill="#fff" d="M.018 0h80v80h-80z"/>
    </clipPath>
    <clipPath id="d">
      <path fill="#fff" d="M19.018 16h42.207v48H19.018z"/>
    </clipPath>
    <filter id="b" width="78.207" height="84" x="5.018" y="-6" color-interpolation-filters="sRGB" filterUnits="userSpaceOnUse">
      <feFlood flood-opacity="0" result="BackgroundImageFix"/>
      <feBlend in="SourceGraphic" in2="BackgroundImageFix" result="shape"/>
      <feGaussianBlur result="effect1_foregroundBlur_52_25142" stdDeviation="9"/>
    </filter>
  </defs>
</svg>
