<svg xmlns="http://www.w3.org/2000/svg" width="80" height="80" fill="none" viewBox="0 0 80 80">
  <g filter="url(#a)">
    <path fill="#E98A27" fill-rule="evenodd" d="m60.508 32.333-.455-.323-.425-.322-1.727-1.323-.08-.06-.02-.015a12.043 12.043 0 0 0-.82-.582 2.33 2.33 0 0 0-.34-.19l-.237-.092a5.398 5.398 0 0 1-.448-.218 5.902 5.902 0 0 1-1.55-1.151.323.323 0 0 1-.024-.127c0-.043.008-.087.025-.127.013-.04.03-.086.051-.14l.001-.002.002-.004a3.19 3.19 0 0 0 .09-.262c.058-.186.088-.38.087-.576a3.589 3.589 0 0 1 0-.374.43.43 0 0 1 .052-.178.483.483 0 0 1 .281-.23l.634-.162.189-.339v-.075l-.684-.454c-.857-.564-1.41-1.524-2.004-2.557l-.04-.068a8.55 8.55 0 0 0-1.15-1.565 3.802 3.802 0 0 0-.403-.374 3.409 3.409 0 0 0-.467-.282c-.298-.15-.575-.27-.868-.386l-.056-.021-.08-.032c-.244-.095-.473-.183-.653-.28l-.81-.403-1.635-.795a28.914 28.914 0 0 0-3.408-1.38 18.12 18.12 0 0 0-3.637-.795 8.066 8.066 0 0 0-.961-.069 2.554 2.554 0 0 0-1.104.242 7.33 7.33 0 0 0-.423.207l-.024.013-.016.008c-.123.064-.235.123-.344.169-.23.098-.575.253-.84.386-1.09.542-2.118 1.2-3.067 1.962a10.93 10.93 0 0 0-1.427 1.249 5.72 5.72 0 0 0-1.083 1.605 9.656 9.656 0 0 0-2.721.927 6.08 6.08 0 0 0-1.41 1.001 3.056 3.056 0 0 0-.323.38 3.906 3.906 0 0 0-.236.42c-.12.245-.218.484-.316.723l-.018.043a23.479 23.479 0 0 0-.937 3.107 27.028 27.028 0 0 0-.548 3.194 22.904 22.904 0 0 0-.074 3.263c.063 1.107.246 2.203.546 3.27a10.342 10.342 0 0 0 1.497 3.038l.374.518c.46.656.703.978 1.375.938 1.728-.156 4.46-6.601 5.272-9.427.996-3.482 2.003-6.59 3.292-7.746a1.935 1.935 0 0 0-1.105.443 4.839 4.839 0 0 0-.847.863 13.272 13.272 0 0 0-1.247 1.986c-.348.645-.658 1.301-.966 1.952l-.01.02a34.51 34.51 0 0 1-1.05 2.108 51.004 51.004 0 0 1-2.388 3.839 78.809 78.809 0 0 1-2.067 2.837 11.7 11.7 0 0 1-1.26-4.73 23.624 23.624 0 0 1 .46-6.09c.197-1.005.462-1.995.794-2.963a9.94 9.94 0 0 1 .276-.685c.072-.188.181-.358.322-.5a5.894 5.894 0 0 1 1.151-.87 9.09 9.09 0 0 1 1.33-.69 11.05 11.05 0 0 1 1.422-.53 9.845 9.845 0 0 1 3.061-.437 6.459 6.459 0 0 0-2.4-.346 8.054 8.054 0 0 1 1.969-1.818 20.339 20.339 0 0 1 2.97-1.83l.8-.368c.174-.076.329-.157.471-.233l.007-.004a5.1 5.1 0 0 1 .333-.166c.2-.097.42-.144.644-.138.277.005.554.026.829.063 1.159.13 2.3.378 3.408.742 1.117.375 2.21.82 3.273 1.33l1.613.782.805.403c.31.155.575.26.875.374.298.115.541.219.777.34.107.051.209.113.304.184.09.075.178.156.26.242.354.417.66.873.914 1.358.071.119.14.24.21.363l.017.031.01.018c.218.384.444.78.736 1.165.221.305.47.59.743.851a3.883 3.883 0 0 1-.87.133c-.546-.054-1.435-1.34-2.095-2.296l-.014-.02c-.32-.464-.585-.846-.727-.965a2.799 2.799 0 0 0-2.262-.955 3.861 3.861 0 0 1 1.957 1.922c.494 1.117 2.381 4.535 4.068 5.95.458.426.968.79 1.519 1.083.178.092.357.178.536.253l.27.115.138.08c.276.18.576.398.858.61l1.726 1.319.443.333.438.311.086.075a1.385 1.385 0 0 1-.713.063 7.43 7.43 0 0 0-2.102.064c-1.507.31-1.726 1.064-1.358 1.438.493.452 1.75.78 2.436.958.188.05.333.087.407.113.28.096.526.275.703.512.15.575-.236 1.278-.691 1.91h-.391c-.65.01-1.293.145-1.894.398a7.927 7.927 0 0 0-.762.376c-.296.16-.57.307-.838.384a4.825 4.825 0 0 1-1.617.068c-.093 0-.189-.003-.284-.007h-.002a4.325 4.325 0 0 0-.629.007 2.08 2.08 0 0 0-.903.27 5.58 5.58 0 0 1 1.726.41c.63.18 1.296.196 1.933.046.316-.08.599-.183.866-.282.298-.11.579-.213.862-.265a7.76 7.76 0 0 1 1.099-.155c1.565-.173.8 1.15-.358 1.64-.517.155-1.041.299-1.57.403a9.882 9.882 0 0 1-2.262.201 26.83 26.83 0 0 0-5.473-1.11 8.794 8.794 0 0 1-2.596-.461 9.215 9.215 0 0 0-2.912-.495h-.143c-.956 0-1.905-.04-2.838-.15a11.673 11.673 0 0 1-2.842-.61 4.393 4.393 0 0 1-1.209-.656 2.067 2.067 0 0 1-.247-.242 5.497 5.497 0 0 0-.121-.115l-.013-.012a1.516 1.516 0 0 1-.126-.126 1.634 1.634 0 0 1-.328-.53 5.17 5.17 0 0 1-.287-1.432 10.66 10.66 0 0 1-.065-1.084l-.005-.152-.01-.3-.053.235a1.003 1.003 0 0 0-.029.138 15.53 15.53 0 0 0-.19 1.007 21.298 21.298 0 0 1-1.22 4.392c-1.84 4.603-1.6 7.233 1.382 9.484.921.696 2.053 1.16 3.197 1.628h.001c2.554 1.046 5.167 2.117 5.635 5.853.355-.59.631-1.222.824-1.882.1-.378.177-.763.23-1.15.115.052.225.116.328.19l.684.506.282-.8a4.255 4.255 0 0 0 .15-2.09 8.354 8.354 0 0 0-.575-1.858 30.086 30.086 0 0 0-1.669-3.27 11.286 11.286 0 0 1-1.15-3.199 3.339 3.339 0 0 1 .419-2.647h.029c.855.01 1.702.157 2.51.437.463.169.943.292 1.432.369.37.06.73.088 1.078.115l.35.028c1.805.178 3.587.545 5.317 1.094h.126c.875.031 1.751-.044 2.607-.225.839-.163 1.664-.39 2.47-.679l.09-.028.076-.064a5.61 5.61 0 0 0 2.02-4.27 5.113 5.113 0 0 0-.04-.616l-.081-.512.063-.086c.132-.167.25-.344.351-.53a4.671 4.671 0 0 0 .53-1.767 1.819 1.819 0 0 0-.104-.782 2.492 2.492 0 0 0-.903-1.1ZM44.63 28.362c.147.014.296.014.443 0 .99-.11 1.795-.64 1.726-1.318a1.238 1.238 0 0 1 .392-1.18.163.163 0 0 0 .06-.074.157.157 0 0 0 .008-.094.158.158 0 0 0-.132-.126 18.142 18.142 0 0 0-3.377-.575c-.374 0-1.22.063-1.428 1.508-.001.01 0 .021.004.031a.072.072 0 0 0 .046.042c.009.003.02.003.031.002h.04c.178-.268.439-.47.742-.576.196 0 .294.23.133.927-.161.696.322 1.375 1.312 1.433Zm18.462-6.066 2.757.161a.184.184 0 0 1 0 .363l-2.763.172a.831.831 0 0 0-.771.748l-.241 2.55a.184.184 0 0 1-.064.109.185.185 0 0 1-.236 0 .181.181 0 0 1-.063-.11l-.242-2.549a.835.835 0 0 0-.77-.748l-2.758-.16a.18.18 0 0 1-.108-.064.18.18 0 0 1-.043-.118.18.18 0 0 1 .043-.118.18.18 0 0 1 .108-.063l2.757-.173a.818.818 0 0 0 .77-.748l.248-2.55a.187.187 0 0 1 .063-.108.187.187 0 0 1 .237 0 .187.187 0 0 1 .063.108l.242 2.55a.826.826 0 0 0 .77.748Z" clip-rule="evenodd"/>
  </g>
  <path fill="#002825" fill-rule="evenodd" d="m57.723 34.727-.52-.368-.485-.369-1.974-1.512-.114-.086c-.3-.225-.588-.442-.938-.664a2.657 2.657 0 0 0-.39-.217l-.269-.105a6.146 6.146 0 0 1-.512-.25 6.744 6.744 0 0 1-1.77-1.316.37.37 0 0 1-.029-.145.37.37 0 0 1 .029-.144c.014-.046.035-.1.058-.16l.001-.003.002-.004c.032-.085.07-.184.104-.3.066-.213.1-.435.099-.658a4.062 4.062 0 0 1 0-.427.491.491 0 0 1 .06-.204.552.552 0 0 1 .32-.264l.725-.184.216-.388v-.085l-.782-.52c-.979-.644-1.61-1.741-2.29-2.922l-.045-.077a9.775 9.775 0 0 0-1.315-1.789 4.352 4.352 0 0 0-.46-.427 3.899 3.899 0 0 0-.534-.323 11.643 11.643 0 0 0-1.056-.465l-.091-.036h-.001a7.153 7.153 0 0 1-.746-.32l-.926-.461-1.869-.908a33.011 33.011 0 0 0-3.894-1.578 20.704 20.704 0 0 0-4.157-.908 9.21 9.21 0 0 0-1.098-.079 2.923 2.923 0 0 0-1.262.276c-.178.08-.336.161-.483.237l-.028.015-.018.01c-.14.073-.269.14-.393.192-.262.112-.657.29-.96.44a19.409 19.409 0 0 0-3.505 2.244c-.584.428-1.13.905-1.632 1.427a6.534 6.534 0 0 0-1.236 1.835 11.035 11.035 0 0 0-3.111 1.059 6.948 6.948 0 0 0-1.61 1.144 3.49 3.49 0 0 0-.37.434c-.1.154-.19.315-.27.48-.136.28-.249.553-.361.826l-.02.05a26.83 26.83 0 0 0-1.071 3.55 30.922 30.922 0 0 0-.626 3.651 26.187 26.187 0 0 0-.085 3.73c.072 1.264.282 2.516.624 3.735a11.82 11.82 0 0 0 1.71 3.473l.428.592c.526.75.803 1.118 1.572 1.072 1.974-.178 5.097-7.544 6.025-10.773 1.138-3.98 2.288-7.531 3.762-8.853a2.213 2.213 0 0 0-1.264.506 5.527 5.527 0 0 0-.966.987 15.086 15.086 0 0 0-1.426 2.269 46.094 46.094 0 0 0-1.104 2.23l-.01.024c-.387.82-.77 1.633-1.202 2.409a58.25 58.25 0 0 1-2.729 4.387 90.144 90.144 0 0 1-2.361 3.242 13.366 13.366 0 0 1-1.441-5.406c-.127-2.332.05-4.672.526-6.959a25.59 25.59 0 0 1 .907-3.387c.1-.27.204-.54.316-.782a1.65 1.65 0 0 1 .368-.573 6.736 6.736 0 0 1 1.316-.993c.484-.304.992-.568 1.52-.789.527-.239 1.069-.44 1.625-.605a11.254 11.254 0 0 1 3.498-.5 7.381 7.381 0 0 0-2.743-.395 9.203 9.203 0 0 1 2.25-2.078 23.24 23.24 0 0 1 3.394-2.091l.915-.421c.199-.086.375-.18.538-.266l.008-.004a5.17 5.17 0 0 1 .38-.19c.23-.111.481-.165.736-.159.317.007.633.03.948.073 1.324.148 2.628.432 3.894.848 1.277.429 2.527.936 3.741 1.52l1.843.894.921.46c.355.178.657.296 1 .428.34.131.618.25.888.388.122.059.238.13.347.21.104.086.204.179.296.277.405.477.756.997 1.046 1.552.081.136.16.274.239.415l.02.036.012.02c.25.438.507.892.84 1.33.254.35.538.675.85.974a4.44 4.44 0 0 1-.994.152c-.624-.062-1.64-1.532-2.394-2.624l-.017-.023c-.366-.53-.668-.967-.83-1.102a3.198 3.198 0 0 0-2.586-1.092 4.413 4.413 0 0 1 2.236 2.197c.565 1.276 2.722 5.183 4.65 6.8a8.236 8.236 0 0 0 1.736 1.237c.204.105.408.204.612.29l.309.13.158.093c.316.204.658.454.98.697l1.973 1.506.506.382.5.355.1.085c-.262.096-.543.12-.816.073a8.493 8.493 0 0 0-2.401.072c-1.723.355-1.973 1.217-1.553 1.644.563.517 2 .891 2.785 1.095.215.056.38.099.464.129.32.11.6.314.803.585.172.658-.27 1.46-.79 2.184h-.446a5.813 5.813 0 0 0-2.165.453 9.4 9.4 0 0 0-.87.43h-.001c-.338.183-.65.351-.957.439a5.513 5.513 0 0 1-1.847.078c-.108 0-.216-.004-.325-.008h-.003a4.963 4.963 0 0 0-.718.008 2.367 2.367 0 0 0-1.033.31 6.367 6.367 0 0 1 1.973.467c.72.206 1.48.224 2.21.052.36-.09.683-.209.989-.322.34-.126.661-.244.984-.303a8.871 8.871 0 0 1 1.256-.177c1.79-.197.915 1.315-.408 1.874-.591.178-1.19.342-1.795.46a11.29 11.29 0 0 1-2.585.231 30.668 30.668 0 0 0-6.255-1.27 10.048 10.048 0 0 1-2.966-.526 10.526 10.526 0 0 0-3.328-.565h-.164a27.88 27.88 0 0 1-3.243-.171c-1.108-.096-2.2-.33-3.249-.697a5.025 5.025 0 0 1-1.38-.75 2.378 2.378 0 0 1-.284-.276 6.434 6.434 0 0 0-.138-.132l-.015-.014c-.053-.05-.1-.094-.143-.144a1.87 1.87 0 0 1-.376-.605 5.915 5.915 0 0 1-.327-1.638c-.052-.41-.064-.822-.075-1.238a30.696 30.696 0 0 0-.018-.518l-.06.27a1.15 1.15 0 0 0-.032.158c-.085.381-.158.763-.218 1.15a24.32 24.32 0 0 1-1.394 5.02c-2.104 5.26-1.828 8.267 1.58 10.838 1.052.796 2.346 1.325 3.654 1.86v.001c2.919 1.196 5.906 2.42 6.44 6.69a9.16 9.16 0 0 0 .942-2.151c.115-.433.203-.872.262-1.316.133.06.258.133.376.217l.782.58.322-.915c.255-.77.314-1.59.171-2.388a9.544 9.544 0 0 0-.657-2.124 34.368 34.368 0 0 0-1.907-3.736 12.898 12.898 0 0 1-1.316-3.657 3.816 3.816 0 0 1 .48-3.025h.033c.977.01 1.946.18 2.868.5.53.192 1.079.333 1.637.42.423.07.835.101 1.232.133h.01c.131.01.26.02.39.032 2.063.203 4.1.622 6.077 1.25h.144c1 .035 2.001-.05 2.98-.257a19.36 19.36 0 0 0 2.822-.776l.104-.033.087-.072a6.41 6.41 0 0 0 1.694-2.185 6.413 6.413 0 0 0 .613-2.695 5.85 5.85 0 0 0-.046-.704l-.092-.585.073-.099c.15-.19.284-.393.4-.605a5.34 5.34 0 0 0 .605-2.02 2.077 2.077 0 0 0-.117-.894 2.848 2.848 0 0 0-1.033-1.256Zm-18.146-4.538c.168.016.338.016.506 0 1.131-.125 2.052-.73 1.973-1.506a1.415 1.415 0 0 1 .448-1.349.186.186 0 0 0 .026-.287.19.19 0 0 0-.099-.048 20.744 20.744 0 0 0-3.86-.658c-.427 0-1.394.072-1.631 1.723a.073.073 0 0 0 .004.036.081.081 0 0 0 .021.03c.009.008.02.014.031.018.01.003.024.004.036.002h.046c.203-.306.5-.537.848-.658.224 0 .335.263.152 1.059-.185.796.368 1.572 1.499 1.638Zm21.1-6.933 3.15.185a.21.21 0 0 1 .124.342.21.21 0 0 1-.124.072l-3.157.197a.95.95 0 0 0-.882.855l-.275 2.914a.208.208 0 0 1-.073.124.211.211 0 0 1-.341-.124l-.278-2.914a.954.954 0 0 0-.88-.855l-3.151-.184a.205.205 0 0 1-.124-.072.205.205 0 0 1-.05-.135c0-.05.017-.097.05-.135a.207.207 0 0 1 .124-.072l3.15-.198a.935.935 0 0 0 .881-.855l.283-2.913a.214.214 0 0 1 .072-.125.214.214 0 0 1 .271 0 .215.215 0 0 1 .072.125l.277 2.913a.943.943 0 0 0 .88.855Z" clip-rule="evenodd"/>
  <defs>
    <filter id="a" width="68" height="67.148" x="11" y="3" color-interpolation-filters="sRGB" filterUnits="userSpaceOnUse">
      <feFlood flood-opacity="0" result="BackgroundImageFix"/>
      <feBlend in="SourceGraphic" in2="BackgroundImageFix" result="shape"/>
      <feGaussianBlur result="effect1_foregroundBlur_52_25337" stdDeviation="6.5"/>
    </filter>
  </defs>
</svg>
