<svg xmlns="http://www.w3.org/2000/svg" width="81" height="80" fill="none" viewBox="0 0 81 80">
  <g filter="url(#a)">
    <path fill="#F7E6C7" d="m63.823 46.698-4.787-2.992 4.787-2.992c.32-.199.178-.69-.198-.69h-5.99a.748.748 0 0 0-.748.747V45.9h-3.8v-5.542l9.067-5.236c.325-.188.202-.684-.174-.698l-5.642-.198 2.65-4.985c.176-.331-.192-.686-.517-.498l-5.188 2.994a.748.748 0 0 0-.274 1.022l2.565 4.442-3.292 1.9-2.77-4.8 5.235-9.067c.188-.325-.168-.694-.499-.517l-4.985 2.65-.197-5.642c-.013-.375-.51-.5-.698-.174l-2.995 5.188a.748.748 0 0 0 .274 1.021l4.442 2.565-1.9 3.291-4.8-2.77V20.374c0-.376-.492-.517-.69-.198l-2.992 4.787-2.992-4.787c-.2-.32-.692-.178-.692.198v5.99c0 .413.335.748.748.748h5.13v3.8h-5.543l-5.235-9.067c-.188-.325-.684-.202-.698.174l-.197 5.642-4.985-2.65c-.332-.176-.687.192-.5.517l2.996 5.187a.749.749 0 0 0 1.022.274l4.442-2.564 1.9 3.291-4.8 2.771-9.068-5.235c-.325-.189-.693.167-.517.498l2.65 4.985-5.642.198c-.375.013-.5.51-.174.698l5.188 2.995a.748.748 0 0 0 1.022-.274l2.565-4.442 3.292 1.9-2.771 4.8H16.375c-.376 0-.517.492-.198.691l4.787 2.992-4.787 2.992c-.32.199-.178.69.198.69h5.99a.748.748 0 0 0 .748-.747V42.1h3.8v5.542l-9.067 5.236c-.325.188-.202.684.174.698l5.642.198-2.65 4.984c-.176.332.192.688.517.5l5.188-2.995a.748.748 0 0 0 .274-1.022l-2.565-4.442 3.292-1.9 2.77 4.8-5.235 9.067c-.188.325.168.694.499.517l4.985-2.65.197 5.642c.013.375.51.5.698.174l2.995-5.188a.748.748 0 0 0-.274-1.022l-4.442-2.564 1.9-3.291 4.8 2.77v10.471c0 .376.492.517.69.198l2.992-4.787 2.992 4.787c.2.32.692.178.692-.198v-5.99a.748.748 0 0 0-.748-.747h-5.13v-3.801h5.543l5.235 9.067c.188.325.684.202.698-.174l.197-5.642 4.985 2.65c.332.176.687-.192.5-.517l-2.996-5.187a.749.749 0 0 0-1.022-.274l-4.442 2.565-1.9-3.292 4.8-2.771 9.068 5.236c.325.188.693-.168.517-.5l-2.65-4.984 5.642-.198c.375-.013.5-.51.174-.698l-5.188-2.995a.748.748 0 0 0-1.022.274l-2.565 4.442-3.292-1.9 2.771-4.8h10.471c.376 0 .517-.492.198-.691h.002Zm-5.596-5.335h2.03l-2.03 1.268v-1.268Zm0 3.417 2.03 1.269h-2.03V44.78Zm.34-9.134-1.758 1.015-.634-1.099 2.392.084ZM55.1 33.701l-.634-1.099 1.758-1.015-1.123 2.113v.001Zm-8.27-6.805 1.014-1.757.084 2.392-1.099-.634Zm2.96 1.71 2.112-1.123-1.015 1.758-1.099-.634.001-.002Zm-12.426-2.832v-2.03l1.268 2.03h-1.268Zm-8.761 3.76-1.015-1.758L29.7 28.9l-1.1.634.002.001Zm2.96-1.708.084-2.392 1.015 1.758-1.1.634Zm-8.666 9.345-1.758-1.015 2.392-.084-.634 1.1Zm1.709-2.96-1.123-2.113 1.758 1.015-.634 1.1-.001-.002Zm-2.832 12.427h-2.03l2.03-1.268v1.268Zm0-3.417-2.03-1.269h2.03v1.269Zm-.34 9.134 1.758-1.015.634 1.099-2.392-.084ZM24.9 54.3l.634 1.099-1.758 1.015L24.9 54.3Zm8.27 6.805-1.014 1.757-.084-2.392 1.099.635Zm-2.96-1.71-2.11 1.123 1.015-1.758 1.099.635h-.001Zm12.427 2.832v2.03l-1.268-2.03h1.268Zm8.76-3.76 1.015 1.758-2.113-1.123 1.1-.634-.002-.002Zm-2.96 1.709-.084 2.391-1.015-1.758 1.1-.633Zm8.666-9.346 1.758 1.015-2.392.084.634-1.1Zm-1.709 2.96 1.123 2.113-1.758-1.015.634-1.1.001.002ZM35.58 44l-.212.37-1.768-1.021.803-1.39L35.58 44Zm-.797-3.765 1.39-.803v2.357l-.37.213-1.021-1.768v.001Zm-.651 4.796 2.04 1.179v.427h-2.04V45.03Zm3.659 2.797.213.37-1.768 1.02-.803-1.39h2.357Zm2.21.592.369.213-1.021 1.768-1.39-.803 2.04-1.18.002.002Zm-.667-1.932-1.156-.667-.666-1.155v-1.333l.666-1.155 1.156-.667h1.332l1.156.667.666 1.155v1.333l-.666 1.155-1.156.667h-1.332Zm-1.97-6.316v-2.04h1.605l-1.18 2.04h-.425Zm2.267-.805 1.02-1.768 1.39.803-2.04 1.18-.37-.214Zm2.58 8.462h.427v2.04h-1.605l1.178-2.04Zm0-7.656-.213-.37 1.768-1.02.803 1.39H42.21Zm3.658 1.191v1.605l-2.04-1.179v-.427l2.04.001Zm-2.04 4.847.37-.213 1.02 1.768-1.39.803V46.21ZM44.42 44l.213-.37 1.768 1.021-.803 1.39L44.42 44Zm1.523-3.828-.725-1.256 6.53 1.75v4.541l-4.707-4.706a1.124 1.124 0 0 0-.793-.329h-.305Zm2.563-4.933 2.271 3.933-6.428-1.723a1.12 1.12 0 0 0-.851.112l-.264.152-1.256-.725 6.528-1.749Zm-7.724-9.465 1.269-2.03v2.03h-1.27Zm2.205 6.386 3.932 2.271-6.428 1.723a1.122 1.122 0 0 0-.681.523l-.153.264h-1.45l4.78-4.78Zm-6.32.094h4.541l-4.706 4.706c-.21.21-.329.496-.329.793v.304l-1.256.725 1.75-6.528Zm-1.494.97-1.722 6.43a1.12 1.12 0 0 0 .112.85l.152.264-.726 1.256-1.75-6.529 3.934-2.27Zm-4.74 3.858 1.723 6.429c.077.287.265.532.523.681l.264.152v1.45l-4.78-4.779 2.27-3.933Zm-2.177 5.712 4.706 4.706c.21.21.496.329.793.329h.304l.725 1.256-6.53-1.75.002-4.541Zm3.24 9.968-2.27-3.933 6.428 1.723c.287.077.594.037.851-.112l.264-.152 1.256.725-6.528 1.749Zm7.726 9.465-1.27 2.03v-2.03h1.27Zm-2.206-6.386-3.932-2.271 6.428-1.723a1.12 1.12 0 0 0 .681-.523l.153-.264h1.45l-4.78 4.78Zm6.32-.094h-4.541l4.706-4.706c.21-.21.329-.496.329-.793v-.304l1.257-.725-1.75 6.528Zm1.494-.97 1.722-6.43a1.12 1.12 0 0 0-.112-.85l-.152-.264.726-1.256 1.75 6.529-3.934 2.27Zm4.74-3.858-1.723-6.429a1.122 1.122 0 0 0-.523-.681l-.264-.152v-1.45l4.78 4.779-2.27 3.933Z"/>
  </g>
  <path fill="#0B3039" d="m63.823 42.698-4.787-2.992 4.787-2.992c.32-.199.178-.69-.198-.69h-5.99a.748.748 0 0 0-.748.747V41.9h-3.8v-5.542l9.067-5.236c.325-.188.202-.684-.174-.698l-5.642-.198 2.65-4.985c.176-.331-.192-.686-.517-.498l-5.188 2.994a.748.748 0 0 0-.274 1.022l2.565 4.442-3.292 1.9-2.77-4.8 5.235-9.067c.188-.325-.168-.694-.499-.517l-4.985 2.65-.197-5.642c-.013-.375-.51-.5-.698-.174l-2.995 5.188a.748.748 0 0 0 .274 1.021l4.442 2.565-1.9 3.291-4.8-2.77V16.374c0-.376-.492-.517-.69-.198l-2.992 4.787-2.992-4.787c-.2-.32-.692-.178-.692.198v5.99c0 .413.335.748.748.748h5.13v3.8h-5.543l-5.235-9.067c-.188-.325-.684-.202-.698.174l-.197 5.642-4.985-2.65c-.332-.176-.687.192-.5.517l2.996 5.187a.749.749 0 0 0 1.022.274l4.442-2.564 1.9 3.291-4.8 2.771-9.068-5.235c-.325-.189-.693.167-.517.498l2.65 4.985-5.642.198c-.375.013-.5.51-.174.698l5.188 2.995a.748.748 0 0 0 1.022-.274l2.565-4.442 3.292 1.9-2.771 4.8H16.375c-.376 0-.517.492-.198.691l4.787 2.992-4.787 2.992c-.32.199-.178.69.198.69h5.99a.748.748 0 0 0 .748-.747V38.1h3.8v5.542l-9.067 5.236c-.325.188-.202.684.174.698l5.642.198-2.65 4.984c-.176.332.192.688.517.5l5.188-2.995a.748.748 0 0 0 .274-1.022l-2.565-4.442 3.292-1.9 2.77 4.8-5.235 9.067c-.188.325.168.694.499.517l4.985-2.65.197 5.642c.013.375.51.5.698.174l2.995-5.188a.748.748 0 0 0-.274-1.022l-4.442-2.564 1.9-3.291 4.8 2.77v10.471c0 .376.492.517.69.198l2.992-4.787 2.992 4.787c.2.32.692.178.692-.198v-5.99a.748.748 0 0 0-.748-.747h-5.13v-3.801h5.543l5.235 9.067c.188.325.684.202.698-.174l.197-5.641 4.985 2.65c.332.175.687-.193.5-.518l-2.996-5.187a.749.749 0 0 0-1.022-.274l-4.442 2.565-1.9-3.292 4.8-2.771 9.068 5.236c.325.188.693-.168.517-.5l-2.65-4.984 5.642-.198c.375-.013.5-.51.174-.698l-5.188-2.995a.748.748 0 0 0-1.022.274l-2.565 4.442-3.292-1.9 2.771-4.8h10.471c.376 0 .517-.492.198-.691h.002Zm-5.596-5.335h2.03l-2.03 1.268v-1.268Zm0 3.417 2.03 1.269h-2.03V40.78Zm.34-9.134-1.758 1.015-.634-1.099 2.392.084ZM55.1 29.701l-.634-1.099 1.758-1.015-1.123 2.113v.001Zm-8.27-6.805 1.014-1.757.084 2.392-1.099-.634Zm2.96 1.71 2.112-1.123-1.015 1.758-1.099-.634.001-.002Zm-12.426-2.832v-2.03l1.268 2.03h-1.268Zm-8.761 3.76-1.015-1.758L29.7 24.9l-1.1.634.002.001Zm2.96-1.708.084-2.392 1.015 1.758-1.1.634Zm-8.666 9.345-1.758-1.015 2.392-.084-.634 1.1Zm1.709-2.96-1.123-2.113 1.758 1.015-.634 1.1-.001-.002Zm-2.832 12.427h-2.03l2.03-1.268v1.268Zm0-3.417-2.03-1.269h2.03v1.269Zm-.34 9.134 1.758-1.015.634 1.099-2.392-.084ZM24.9 50.3l.634 1.099-1.758 1.015L24.9 50.3Zm8.27 6.805-1.014 1.757-.084-2.392 1.099.635Zm-2.96-1.71-2.11 1.123 1.015-1.758 1.099.635h-.001Zm12.427 2.832v2.03l-1.268-2.03h1.268Zm8.76-3.76 1.015 1.758-2.113-1.123 1.1-.634-.002-.002Zm-2.96 1.709-.084 2.391-1.015-1.758 1.1-.633Zm8.666-9.346 1.758 1.015-2.392.084.634-1.1Zm-1.709 2.96 1.123 2.113-1.758-1.015.634-1.1.001.002ZM35.58 40l-.212.37-1.768-1.021.803-1.39L35.58 40Zm-.797-3.765 1.39-.803v2.357l-.37.213-1.021-1.768v.001Zm-.651 4.796 2.04 1.179v.427h-2.04V41.03Zm3.659 2.797.213.37-1.768 1.02-.803-1.39h2.357Zm2.21.592.369.213-1.021 1.768-1.39-.803 2.04-1.18.002.002Zm-.667-1.932-1.156-.667-.666-1.155v-1.333l.666-1.155 1.156-.667h1.332l1.156.667.666 1.155v1.333l-.666 1.155-1.156.667h-1.332Zm-1.97-6.316v-2.04h1.605l-1.18 2.04h-.425Zm2.267-.805 1.02-1.768 1.39.803-2.04 1.18-.37-.214Zm2.58 8.462h.427v2.04h-1.605l1.178-2.04Zm0-7.656-.213-.37 1.768-1.02.803 1.39H42.21Zm3.658 1.191v1.605l-2.04-1.179v-.427l2.04.001Zm-2.04 4.847.37-.213 1.02 1.768-1.39.803V42.21ZM44.42 40l.213-.37 1.768 1.021-.803 1.39L44.42 40Zm1.523-3.828-.725-1.256 6.53 1.75v4.541l-4.707-4.706a1.124 1.124 0 0 0-.793-.329h-.305Zm2.563-4.933 2.271 3.933-6.428-1.723a1.12 1.12 0 0 0-.851.112l-.264.152-1.256-.725 6.528-1.749Zm-7.724-9.465 1.269-2.03v2.03h-1.27Zm2.205 6.386 3.932 2.271-6.428 1.723a1.122 1.122 0 0 0-.681.523l-.153.264h-1.45l4.78-4.78Zm-6.32.094h4.541l-4.706 4.706c-.21.21-.329.496-.329.793v.304l-1.256.725 1.75-6.528Zm-1.494.97-1.722 6.43a1.12 1.12 0 0 0 .112.85l.152.264-.726 1.256-1.75-6.529 3.934-2.27Zm-4.74 3.858 1.723 6.429c.077.287.265.532.523.681l.264.152v1.45l-4.78-4.779 2.27-3.933Zm-2.177 5.712 4.706 4.706c.21.21.496.329.793.329h.304l.725 1.256-6.53-1.75.002-4.541Zm3.24 9.968-2.27-3.933 6.428 1.723c.287.077.594.037.851-.112l.264-.152 1.256.725-6.528 1.749Zm7.726 9.465-1.27 2.03v-2.03h1.27Zm-2.206-6.386-3.932-2.271 6.428-1.723a1.12 1.12 0 0 0 .681-.523l.153-.264h1.45l-4.78 4.78Zm6.32-.094h-4.541l4.706-4.706c.21-.21.329-.496.329-.793v-.304l1.257-.725-1.75 6.528Zm1.494-.97 1.722-6.43a1.12 1.12 0 0 0-.112-.85l-.152-.264.726-1.256 1.75 6.529-3.934 2.27Zm4.74-3.858-1.723-6.429a1.122 1.122 0 0 0-.523-.681l-.264-.152v-1.45l4.78 4.779-2.27 3.933Z"/>
  <defs>
    <filter id="a" width="68" height="68" x="6" y="10" color-interpolation-filters="sRGB" filterUnits="userSpaceOnUse">
      <feFlood flood-opacity="0" result="BackgroundImageFix"/>
      <feBlend in="SourceGraphic" in2="BackgroundImageFix" result="shape"/>
      <feGaussianBlur result="effect1_foregroundBlur_266_5490" stdDeviation="5"/>
    </filter>
  </defs>
</svg>
