<svg xmlns="http://www.w3.org/2000/svg" width="81" height="80" fill="none" viewBox="0 0 81 80">
  <g filter="url(#a)">
    <path fill="#4D5AD5" fill-opacity=".6" fill-rule="evenodd" d="m27.238 19.1 17.416 14.296a.39.39 0 0 0 .393.062l6.287-2.478a.411.411 0 0 0 .253-.322l1.777-11.651a.423.423 0 0 0-.147-.392 21.078 21.078 0 0 0-6.097-3.465c-.226-.082-.46.05-.52.29l-1.697 6.796a.397.397 0 0 1-.615.238l-10.437-7.4a.395.395 0 0 0-.356-.053 20.857 20.857 0 0 0-6.256 3.426.424.424 0 0 0-.001.652ZM19.25 32.516a22.218 22.218 0 0 0 .136 7.183.402.402 0 0 0 .503.32l6.549-1.88a.404.404 0 0 1 .507.43l-.988 13.041c-.01.13.039.258.133.345a20.901 20.901 0 0 0 6.005 3.872c.237.101.507-.06.544-.322l3.285-22.72a.42.42 0 0 0-.144-.383l-5.22-4.38a.391.391 0 0 0-.397-.065L19.506 32.19a.416.416 0 0 0-.256.327Zm19.216 15.555 1.063-6.86a.412.412 0 0 1 .249-.32l20.702-8.419c.24-.097.51.062.545.325.319 2.393.247 4.86-.242 7.303a.418.418 0 0 1-.223.292l-11.437 5.635a.42.42 0 0 0-.108.67l4.856 4.914a.425.425 0 0 1-.017.61 20.957 20.957 0 0 1-5.967 3.71.394.394 0 0 1-.401-.064l-8.876-7.41a.421.421 0 0 1-.144-.386Z" clip-rule="evenodd"/>
  </g>
  <path fill="#4D5AD5" fill-rule="evenodd" d="m27.238 24.1 17.416 14.296a.39.39 0 0 0 .393.062l6.287-2.478a.411.411 0 0 0 .253-.322l1.777-11.651a.423.423 0 0 0-.147-.392 21.078 21.078 0 0 0-6.097-3.465c-.226-.082-.46.05-.52.29l-1.697 6.796a.397.397 0 0 1-.615.238l-10.437-7.4a.395.395 0 0 0-.356-.053 20.857 20.857 0 0 0-6.256 3.426.424.424 0 0 0-.001.652ZM19.25 37.516a22.218 22.218 0 0 0 .136 7.183.402.402 0 0 0 .503.32l6.549-1.88a.404.404 0 0 1 .507.43l-.988 13.041c-.01.13.039.258.133.345a20.901 20.901 0 0 0 6.005 3.872c.237.101.507-.06.544-.322l3.285-22.72a.42.42 0 0 0-.144-.383l-5.22-4.38a.391.391 0 0 0-.397-.065L19.506 37.19a.416.416 0 0 0-.256.327Zm19.216 15.555 1.063-6.86a.412.412 0 0 1 .249-.32l20.702-8.419c.24-.097.51.062.545.325.319 2.393.247 4.86-.242 7.303a.418.418 0 0 1-.223.292l-11.437 5.635a.42.42 0 0 0-.108.67l4.856 4.914a.425.425 0 0 1-.017.61 20.957 20.957 0 0 1-5.967 3.71.394.394 0 0 1-.401-.064l-8.876-7.41a.421.421 0 0 1-.144-.386Z" clip-rule="evenodd"/>
  <defs>
    <filter id="a" width="70.196" height="68.961" x="5.022" y="1" color-interpolation-filters="sRGB" filterUnits="userSpaceOnUse">
      <feFlood flood-opacity="0" result="BackgroundImageFix"/>
      <feBlend in="SourceGraphic" in2="BackgroundImageFix" result="shape"/>
      <feGaussianBlur result="effect1_foregroundBlur_52_25288" stdDeviation="7"/>
    </filter>
  </defs>
</svg>
