<svg xmlns="http://www.w3.org/2000/svg" width="81" height="80" fill="none" viewBox="0 0 81 80">
  <g filter="url(#a)">
    <path fill="#0A5ED9" fill-opacity=".6" d="M21.756 23.253c-1.714.599-2.947 1.865-3.496 3.576-.257.753-.274 2.619-.24 18.037l.052 17.198.428.856c.531 1.095 1.56 2.122 2.656 2.652l.857.428H57.65l.857-.428c1.096-.53 2.124-1.557 2.655-2.652l.429-.856v-35.08l-.428-.856c-.532-1.096-1.56-2.122-2.656-2.653l-.857-.428-17.562-.034c-15.643-.034-17.648-.017-18.333.24Zm22.788 8.094v2.567H24.326V28.78h20.218v2.567Zm10.794 0v2.567h-8.91V28.78h8.91v2.567Zm-10.794 8.727v2.567H35.12v-5.133h9.424v2.566Zm0 8.728v2.567H35.12v-5.134h9.424v2.567Zm0 8.727v2.567H35.12v-5.134h9.424v2.567Z"/>
  </g>
  <path fill="#0A5ED9" d="M21.756 19.253c-1.714.599-2.947 1.865-3.496 3.576-.257.753-.274 2.619-.24 18.037l.052 17.198.428.856c.531 1.095 1.56 2.122 2.656 2.652l.857.428H57.65l.857-.428c1.096-.53 2.124-1.557 2.655-2.652l.429-.856v-35.08l-.428-.856c-.532-1.096-1.56-2.122-2.656-2.653l-.857-.428-17.562-.034c-15.643-.034-17.648-.017-18.333.24Zm22.788 8.094v2.567H24.326V24.78h20.218v2.567Zm10.794 0v2.567h-8.91V24.78h8.91v2.567Zm-10.794 8.727v2.567H35.12v-5.133h9.424v2.566Zm0 8.728v2.567H35.12v-5.134h9.424v2.567Zm0 8.727v2.567H35.12v-5.134h9.424v2.567Z"/>
  <defs>
    <filter id="a" width="71.585" height="71" x="4.007" y="9" color-interpolation-filters="sRGB" filterUnits="userSpaceOnUse">
      <feFlood flood-opacity="0" result="BackgroundImageFix"/>
      <feBlend in="SourceGraphic" in2="BackgroundImageFix" result="shape"/>
      <feGaussianBlur result="effect1_foregroundBlur_52_25292" stdDeviation="7"/>
    </filter>
  </defs>
</svg>
