<svg xmlns="http://www.w3.org/2000/svg" width="80" height="80" fill="none" viewBox="0 0 80 80">
  <g filter="url(#a)" opacity=".6">
    <mask id="b" width="42" height="42" x="19" y="24" maskUnits="userSpaceOnUse" style="mask-type:luminance">
      <path fill="#fff" d="M61 24H19v41.814h42V24Z"/>
    </mask>
    <g mask="url(#b)">
      <path fill="url(#c)" d="M43.646 46.21v6.228a.819.819 0 0 1-.526.805.83.83 0 0 1-.337.054h-14.99c-1.345 0-2.28-.256-2.855-.782-.582-.533-.877-1.256-.877-2.15-.002-.439.102-.87.304-1.26.2-.38.459-.726.767-1.027l6.008-5.959H19.184c-.122.92-.184 1.848-.184 2.777 0 11.553 9.402 20.918 21 20.918 2.815.003 5.602-.56 8.195-1.653a20.935 20.935 0 0 0 6.89-4.715l-11.43-13.224-.009-.012Z"/>
      <path fill="url(#d)" d="M37.18 38.347c.52.531.785 1.313.785 2.324.008.418-.064.833-.21 1.224-.138.346-.344.66-.608.923l-5.925 5.903h7.83V24c-8.588.38-15.834 5.898-18.717 13.542h14.151c1.281 0 2.163.264 2.694.805Z"/>
      <path fill="url(#e)" d="m43.68 43.139.034-.044 7.005-5.912a1.15 1.15 0 0 1 .896-.397h3.656c.435 0 .68.284.728.565.03.178.007.438-.26.704l-.028.026-7.577 6.61 9.688 11.271A20.757 20.757 0 0 0 61 44.896c0-10.314-7.494-18.884-17.354-20.604v18.89l.033-.043Z"/>
    </g>
  </g>
  <mask id="f" width="42" height="42" x="19" y="19" maskUnits="userSpaceOnUse" style="mask-type:luminance">
    <path fill="#fff" d="M61 19H19v41.814h42V19Z"/>
  </mask>
  <g mask="url(#f)">
    <path fill="url(#g)" d="M43.646 41.21v6.228a.819.819 0 0 1-.526.805.83.83 0 0 1-.337.054h-14.99c-1.345 0-2.28-.256-2.855-.782-.582-.533-.877-1.256-.877-2.15-.002-.439.102-.87.304-1.26.2-.38.459-.726.767-1.027l6.008-5.959H19.184c-.122.92-.184 1.848-.184 2.777 0 11.553 9.402 20.918 21 20.918 2.815.003 5.602-.56 8.195-1.653a20.935 20.935 0 0 0 6.89-4.715l-11.43-13.224-.009-.012Z"/>
    <path fill="url(#h)" d="M37.18 33.347c.52.531.785 1.313.785 2.324.008.418-.064.833-.21 1.224-.138.346-.344.66-.608.923l-5.925 5.903h7.83V19c-8.588.38-15.834 5.898-18.717 13.542h14.151c1.281 0 2.163.264 2.694.805Z"/>
    <path fill="url(#i)" d="m43.68 38.139.034-.044 7.005-5.912a1.15 1.15 0 0 1 .896-.397h3.656c.435 0 .68.284.728.565.03.178.007.438-.26.704l-.028.026-7.577 6.61 9.688 11.271A20.757 20.757 0 0 0 61 39.896c0-10.314-7.494-18.884-17.354-20.604v18.89l.033-.043Z"/>
  </g>
  <defs>
    <linearGradient id="c" x1="37.043" x2="37.043" y1="64.535" y2="24.656" gradientUnits="userSpaceOnUse">
      <stop stop-color="#5284D6"/>
      <stop offset="1" stop-color="#1B2393"/>
    </linearGradient>
    <linearGradient id="d" x1="29.693" x2="29.693" y1="64.542" y2="24.643" gradientUnits="userSpaceOnUse">
      <stop stop-color="#5284D6"/>
      <stop offset="1" stop-color="#1B2393"/>
    </linearGradient>
    <linearGradient id="e" x1="52.323" x2="52.323" y1="64.545" y2="24.641" gradientUnits="userSpaceOnUse">
      <stop stop-color="#5284D6"/>
      <stop offset="1" stop-color="#1B2393"/>
    </linearGradient>
    <linearGradient id="g" x1="37.043" x2="37.043" y1="59.535" y2="19.656" gradientUnits="userSpaceOnUse">
      <stop stop-color="#5284D6"/>
      <stop offset="1" stop-color="#1B2393"/>
    </linearGradient>
    <linearGradient id="h" x1="29.693" x2="29.693" y1="59.542" y2="19.643" gradientUnits="userSpaceOnUse">
      <stop stop-color="#5284D6"/>
      <stop offset="1" stop-color="#1B2393"/>
    </linearGradient>
    <linearGradient id="i" x1="52.323" x2="52.323" y1="59.545" y2="19.641" gradientUnits="userSpaceOnUse">
      <stop stop-color="#5284D6"/>
      <stop offset="1" stop-color="#1B2393"/>
    </linearGradient>
    <filter id="a" width="64" height="63.814" x="8" y="13" color-interpolation-filters="sRGB" filterUnits="userSpaceOnUse">
      <feFlood flood-opacity="0" result="BackgroundImageFix"/>
      <feBlend in="SourceGraphic" in2="BackgroundImageFix" result="shape"/>
      <feGaussianBlur result="effect1_foregroundBlur_52_25680" stdDeviation="5.5"/>
    </filter>
  </defs>
</svg>
