<svg xmlns="http://www.w3.org/2000/svg" width="501" height="500" fill="none" viewBox="0 0 501 500">
  <g filter="url(#a)" opacity=".4">
    <path fill="url(#b)" d="M269.845 452.424c63.27 0 114.561-50.99 114.561-113.888 0-24.138-7.554-46.521-20.438-64.942l-94.89 56.788-94.889-54.538c-11.948 17.981-18.904 39.529-18.904 62.692 0 62.898 51.29 113.888 114.56 113.888Z"/>
    <path fill="url(#c)" fill-opacity=".2" d="M269.845 452.424c63.27 0 114.561-50.99 114.561-113.888 0-24.138-7.554-46.521-20.438-64.942l-94.89 56.788-94.889-54.538c-11.948 17.981-18.904 39.529-18.904 62.692 0 62.898 51.29 113.888 114.56 113.888Z"/>
    <path fill="#000" fill-opacity=".01" d="M270.732 294.366c.334.061.5-.112.801-.133.303-.02.48.129.751.142.601.027.998-.496.739-.964a.737.737 0 0 0-.335-.294c-.021-.009-.066-.033-.084-.017-.032.028-.004.218-.095.265-.083.042-.195.007-.212-.078-.011-.058.027-.172.035-.236a5.012 5.012 0 0 0-.015-1.4 4.024 4.024 0 0 0-.09-.42h-1.247c-.018.098-.048.195-.066.292a5.39 5.39 0 0 0-.076 1.113c-.001.2.06.407.074.602.013.171-.22.195-.271.048-.022-.062-.015-.135-.034-.198a.699.699 0 0 0-.482.464c-.103.376.175.735.607.814Zm.214-3.372h1.316c.013 0 .018-.026.019-.035.03-.259-.247-.544-.543-.58v.112c0 .069-.099.12-.176.101-.045-.012-.099-.068-.099-.108v-.105c-.318.051-.572.324-.536.604a.052.052 0 0 0 .019.011Z"/>
    <path fill="url(#d)" d="m189.169 255.379 80.676 46.116V132l-80.676 123.379Z"/>
    <path fill="url(#e)" fill-opacity=".3" d="m189.169 255.379 80.676 46.116V132l-80.676 123.379Z"/>
    <path fill="url(#f)" d="m350.387 255.379-80.542 46.116V132l80.542 123.379Z"/>
    <path fill="url(#g)" fill-opacity=".6" d="m350.387 255.379-80.542 46.116V132l80.542 123.379Z"/>
    <path fill="url(#h)" d="m363.968 273.572-94.122 56.677V451.89l94.122-178.318Z"/>
    <path fill="url(#i)" d="m363.968 273.572-94.122 56.677V451.89l94.122-178.318Z"/>
    <path fill="url(#j)" d="m363.968 273.572-94.122 56.677V451.89l94.122-178.318Z"/>
    <path fill="url(#k)" d="m174.11 275.709 95.736 54.538v121.641L174.11 275.709Z"/>
    <path fill="url(#l)" d="m174.11 275.709 95.736 54.538v121.641L174.11 275.709Z"/>
    <path fill="url(#m)" d="m174.11 275.709 95.736 54.538v121.641L174.11 275.709Z"/>
    <path fill="url(#n)" d="M269.846 290.042a49.363 49.363 0 0 0-.088 2.964c0-24.05-17.323-44.059-40.19-48.239a49.475 49.475 0 0 0-8.882-.801 48.896 48.896 0 0 0-31.49 11.428l80.65 46.101v-11.453Z"/>
    <path fill="url(#o)" d="M269.846 290.042a49.363 49.363 0 0 0-.088 2.964c0-24.05-17.323-44.059-40.19-48.239a49.475 49.475 0 0 0-8.882-.801 48.896 48.896 0 0 0-31.49 11.428l80.65 46.101v-11.453Z"/>
    <path fill="url(#p)" d="M269.658 452.424c-3.327-3.17-89.076-85.434-97.37-151.292a.174.174 0 0 0-.005-.039c-.002-.013-.004-.026-.004-.039a94.607 94.607 0 0 1-.655-7.712c-.009-.112-.009-.224-.009-.336a48.913 48.913 0 0 1 3.026-16.993l94.926 54.076 88.456-52.938 5.888-3.545a48.854 48.854 0 0 1 3.989 19.4c0 .112 0 .224-.009.336a94.607 94.607 0 0 1-.655 7.712c0 .026-.009.052-.009.078-8.294 65.859-94.045 148.124-97.37 151.292h-.199Z"/>
    <path fill="url(#q)" d="M269.658 452.424c-3.327-3.17-89.076-85.434-97.37-151.292a.174.174 0 0 0-.005-.039c-.002-.013-.004-.026-.004-.039a94.607 94.607 0 0 1-.655-7.712c-.009-.112-.009-.224-.009-.336a48.913 48.913 0 0 1 3.026-16.993l94.926 54.076 88.456-52.938 5.888-3.545a48.854 48.854 0 0 1 3.989 19.4c0 .112 0 .224-.009.336a94.607 94.607 0 0 1-.655 7.712c0 .026-.009.052-.009.078-8.294 65.859-94.045 148.124-97.37 151.292h-.199Z"/>
    <path fill="url(#r)" d="M269.846 290.04c1.356-22.714 18.181-41.267 40.101-45.273a49.483 49.483 0 0 1 8.882-.801 48.89 48.89 0 0 1 31.507 11.442l-80.49 46.087V290.04Z"/>
    <path fill="url(#s)" d="M269.846 290.04c1.356-22.714 18.181-41.267 40.101-45.273a49.483 49.483 0 0 1 8.882-.801 48.89 48.89 0 0 1 31.507 11.442l-80.49 46.087V290.04Z"/>
  </g>
  <circle cx="252.512" cy="292.177" r="132.227" fill="url(#t)" fill-opacity=".4"/>
  <path fill="url(#u)" d="M252.605 424.475c72.956 0 132.098-58.795 132.098-131.322 0-27.832-8.71-53.642-23.567-74.883l-109.415 65.481-109.415-62.887c-13.778 20.734-21.798 45.58-21.798 72.289 0 72.527 59.142 131.322 132.097 131.322Z"/>
  <path fill="url(#v)" fill-opacity=".2" d="M252.605 424.475c72.956 0 132.098-58.795 132.098-131.322 0-27.832-8.71-53.642-23.567-74.883l-109.415 65.481-109.415-62.887c-13.778 20.734-21.798 45.58-21.798 72.289 0 72.527 59.142 131.322 132.097 131.322Z"/>
  <path fill="url(#w)" d="m159.579 197.266 93.026 53.176V55l-93.026 142.266Z"/>
  <path fill="url(#x)" fill-opacity=".3" d="m159.579 197.266 93.026 53.176V55l-93.026 142.266Z"/>
  <path fill="url(#y)" d="m345.477 197.266-92.872 53.176V55l92.872 142.266Z"/>
  <path fill="url(#z)" fill-opacity=".7" d="m345.477 197.266-92.872 53.176V55l92.872 142.266Z"/>
  <path fill="url(#A)" d="m361.136 218.244-108.531 65.353v140.262l108.531-205.615Z"/>
  <path fill="url(#B)" d="m361.136 218.244-108.531 65.353v140.262l108.531-205.615Z"/>
  <path fill="url(#C)" d="m361.136 218.244-108.531 65.353v140.262l108.531-205.615Z"/>
  <path fill="url(#D)" d="m142.214 220.709 110.391 62.887v140.263l-110.391-203.15Z"/>
  <path fill="url(#E)" d="m142.214 220.709 110.391 62.887v140.263l-110.391-203.15Z"/>
  <path fill="url(#F)" d="m142.214 220.709 110.391 62.887v140.263l-110.391-203.15Z"/>
  <path fill="url(#G)" d="M252.606 237.236a56.924 56.924 0 0 0-.102 3.417c0-27.732-19.974-50.804-46.342-55.623a56.99 56.99 0 0 0-10.241-.924 56.375 56.375 0 0 0-36.311 13.178l92.996 53.158v-13.206Z"/>
  <path fill="url(#H)" d="M252.606 237.236a56.924 56.924 0 0 0-.102 3.417c0-27.732-19.974-50.804-46.342-55.623a56.99 56.99 0 0 0-10.241-.924 56.375 56.375 0 0 0-36.311 13.178l92.996 53.158v-13.206Z"/>
  <path fill="url(#I)" d="M252.389 424.475c-3.836-3.655-102.711-98.512-112.276-174.452a.22.22 0 0 0-.005-.044c-.002-.015-.005-.03-.005-.045-.387-3.11-.636-6.071-.755-8.893-.01-.129-.01-.258-.01-.388a56.394 56.394 0 0 1 3.489-19.594l109.458 62.355 101.997-61.042 6.788-4.088a56.315 56.315 0 0 1 4.6 22.369c0 .13 0 .259-.009.388-.12 2.822-.368 5.783-.756 8.893 0 .03-.01.06-.01.089-9.564 75.941-108.443 170.8-112.276 174.452h-.23Z"/>
  <path fill="url(#J)" d="M252.389 424.475c-3.836-3.655-102.711-98.512-112.276-174.452a.22.22 0 0 0-.005-.044c-.002-.015-.005-.03-.005-.045-.387-3.11-.636-6.071-.755-8.893-.01-.129-.01-.258-.01-.388a56.394 56.394 0 0 1 3.489-19.594l109.458 62.355 101.997-61.042 6.788-4.088a56.315 56.315 0 0 1 4.6 22.369c0 .13 0 .259-.009.388-.12 2.822-.368 5.783-.756 8.893 0 .03-.01.06-.01.089-9.564 75.941-108.443 170.8-112.276 174.452h-.23Z"/>
  <path fill="url(#K)" d="M252.606 237.233c1.563-26.191 20.965-47.583 46.24-52.203a56.999 56.999 0 0 1 10.241-.924 56.381 56.381 0 0 1 36.331 13.194l-92.812 53.142v-13.209Z"/>
  <path fill="url(#L)" d="M252.606 237.233c1.563-26.191 20.965-47.583 46.24-52.203a56.999 56.999 0 0 1 10.241-.924 56.381 56.381 0 0 1 36.331 13.194l-92.812 53.142v-13.209Z"/>
  <defs>
    <radialGradient id="b" cx="0" cy="0" r="1" gradientTransform="matrix(26.49327 156.5379 -177.54713 30.04897 269.764 316.092)" gradientUnits="userSpaceOnUse">
      <stop stop-color="#FB988A" stop-opacity="0"/>
      <stop offset=".627" stop-color="#FF68BA" stop-opacity=".34"/>
      <stop offset="1" stop-color="#7A19F6"/>
    </radialGradient>
    <radialGradient id="c" cx="0" cy="0" r="1" gradientTransform="rotate(48.54 -321.3 424.585) scale(90.956 116.535)" gradientUnits="userSpaceOnUse">
      <stop stop-color="#fff"/>
      <stop offset="1" stop-color="#fff" stop-opacity="0"/>
    </radialGradient>
    <radialGradient id="d" cx="0" cy="0" r="1" gradientTransform="rotate(126.542 101.646 133.924) scale(169.207 424.687)" gradientUnits="userSpaceOnUse">
      <stop offset=".142" stop-color="#FF7DB3"/>
      <stop offset=".848" stop-color="#FF4874" stop-opacity=".2"/>
    </radialGradient>
    <radialGradient id="f" cx="0" cy="0" r="1" gradientTransform="matrix(-40.3189 -45.54019 69.06713 -61.14843 343.44 262.239)" gradientUnits="userSpaceOnUse">
      <stop stop-color="#3430FF"/>
      <stop offset="1" stop-color="#0500FF" stop-opacity="0"/>
    </radialGradient>
    <radialGradient id="h" cx="0" cy="0" r="1" gradientTransform="matrix(47.10715 -102.12611 229.92382 106.0557 270.025 429.621)" gradientUnits="userSpaceOnUse">
      <stop stop-color="#865BFF"/>
      <stop offset=".944" stop-color="#BD00FF" stop-opacity=".1"/>
    </radialGradient>
    <radialGradient id="i" cx="0" cy="0" r="1" gradientTransform="rotate(43.192 -314.717 498.621) scale(147.862 141.504)" gradientUnits="userSpaceOnUse">
      <stop offset=".055" stop-color="#4542E8"/>
      <stop offset="1" stop-color="#FAC5FF" stop-opacity="0"/>
    </radialGradient>
    <radialGradient id="j" cx="0" cy="0" r="1" gradientTransform="matrix(-61.58727 85.7046 -45.23776 -32.50783 363.733 268.525)" gradientUnits="userSpaceOnUse">
      <stop stop-color="#9E22FF"/>
      <stop offset="1" stop-color="#1EA0FF" stop-opacity="0"/>
    </radialGradient>
    <radialGradient id="k" cx="0" cy="0" r="1" gradientTransform="rotate(-114.421 273.297 128.085) scale(115.492 264.901)" gradientUnits="userSpaceOnUse">
      <stop stop-color="#7A64FF"/>
      <stop offset=".545" stop-color="#F5ACE9"/>
      <stop offset="1" stop-color="#322EFF" stop-opacity=".29"/>
    </radialGradient>
    <radialGradient id="l" cx="0" cy="0" r="1" gradientTransform="matrix(68.81778 84.09118 -81.52342 66.7164 182.849 309.01)" gradientUnits="userSpaceOnUse">
      <stop stop-color="#3687FF"/>
      <stop offset="1" stop-color="#354BFF" stop-opacity="0"/>
    </radialGradient>
    <radialGradient id="m" cx="0" cy="0" r="1" gradientTransform="rotate(46.273 -241.716 344.391) scale(68.5373 37.2432)" gradientUnits="userSpaceOnUse">
      <stop stop-color="#1858FF"/>
      <stop offset="1" stop-color="#3A70FF" stop-opacity="0"/>
    </radialGradient>
    <radialGradient id="n" cx="0" cy="0" r="1" gradientTransform="rotate(-112.591 357.075 165.162) scale(187.351 454.611)" gradientUnits="userSpaceOnUse">
      <stop stop-color="#2238FF"/>
      <stop offset="1" stop-color="#0047FF" stop-opacity="0"/>
    </radialGradient>
    <radialGradient id="o" cx="0" cy="0" r="1" gradientTransform="matrix(139.70585 185.86795 -311.38506 234.04957 194.057 243.966)" gradientUnits="userSpaceOnUse">
      <stop offset=".022" stop-color="#C76DFF" stop-opacity=".4"/>
      <stop offset=".267" stop-color="#8665FA" stop-opacity=".92"/>
      <stop offset=".592" stop-color="#A259E5" stop-opacity=".58"/>
      <stop offset="1" stop-color="#FF2FA0" stop-opacity="0"/>
    </radialGradient>
    <radialGradient id="p" cx="0" cy="0" r="1" gradientTransform="rotate(-112.591 357.075 165.162) scale(187.351 454.611)" gradientUnits="userSpaceOnUse">
      <stop stop-color="#2238FF"/>
      <stop offset="1" stop-color="#0047FF" stop-opacity="0"/>
    </radialGradient>
    <radialGradient id="q" cx="0" cy="0" r="1" gradientTransform="matrix(139.70585 185.86795 -311.38506 234.04957 194.057 243.966)" gradientUnits="userSpaceOnUse">
      <stop offset=".022" stop-color="#C76DFF" stop-opacity=".4"/>
      <stop offset=".267" stop-color="#8665FA" stop-opacity=".92"/>
      <stop offset=".592" stop-color="#A259E5" stop-opacity=".58"/>
      <stop offset="1" stop-color="#FF2FA0" stop-opacity="0"/>
    </radialGradient>
    <radialGradient id="r" cx="0" cy="0" r="1" gradientTransform="rotate(-112.591 357.075 165.162) scale(187.351 454.611)" gradientUnits="userSpaceOnUse">
      <stop stop-color="#2238FF"/>
      <stop offset="1" stop-color="#0047FF" stop-opacity="0"/>
    </radialGradient>
    <radialGradient id="s" cx="0" cy="0" r="1" gradientTransform="matrix(139.70585 185.86795 -311.38506 234.04957 194.057 243.966)" gradientUnits="userSpaceOnUse">
      <stop offset=".022" stop-color="#C76DFF" stop-opacity=".4"/>
      <stop offset=".267" stop-color="#8665FA" stop-opacity=".92"/>
      <stop offset=".592" stop-color="#A259E5" stop-opacity=".58"/>
      <stop offset="1" stop-color="#FF2FA0" stop-opacity="0"/>
    </radialGradient>
    <radialGradient id="t" cx="0" cy="0" r="1" gradientTransform="rotate(-130.997 193.35 84.946) scale(89.2224 124.286)" gradientUnits="userSpaceOnUse">
      <stop stop-color="#FF26C2"/>
      <stop offset="1" stop-color="#fff" stop-opacity="0"/>
    </radialGradient>
    <radialGradient id="u" cx="0" cy="0" r="1" gradientTransform="rotate(80.394 -31.9 283.056) scale(183.068 207.639)" gradientUnits="userSpaceOnUse">
      <stop stop-color="#FB988A" stop-opacity="0"/>
      <stop offset=".627" stop-color="#FF68BA" stop-opacity=".34"/>
      <stop offset="1" stop-color="#7A19F6"/>
    </radialGradient>
    <radialGradient id="v" cx="0" cy="0" r="1" gradientTransform="matrix(69.44032 78.59934 -100.70278 88.9681 183.165 345.876)" gradientUnits="userSpaceOnUse">
      <stop stop-color="#fff"/>
      <stop offset="1" stop-color="#fff" stop-opacity="0"/>
    </radialGradient>
    <radialGradient id="w" cx="0" cy="0" r="1" gradientTransform="rotate(126.542 112.407 91.08) scale(195.11 489.7)" gradientUnits="userSpaceOnUse">
      <stop offset=".142" stop-color="#FF7DB3"/>
      <stop offset=".848" stop-color="#FF4874" stop-opacity=".2"/>
    </radialGradient>
    <radialGradient id="y" cx="0" cy="0" r="1" gradientTransform="rotate(-131.52 214.924 26.615) scale(70.1348 106.368)" gradientUnits="userSpaceOnUse">
      <stop stop-color="#3430FF"/>
      <stop offset="1" stop-color="#0500FF" stop-opacity="0"/>
    </radialGradient>
    <radialGradient id="A" cx="0" cy="0" r="1" gradientTransform="matrix(54.31813 -117.76027 265.12223 122.29036 252.814 398.182)" gradientUnits="userSpaceOnUse">
      <stop stop-color="#865BFF"/>
      <stop offset=".944" stop-color="#BD00FF" stop-opacity=".1"/>
    </radialGradient>
    <radialGradient id="B" cx="0" cy="0" r="1" gradientTransform="rotate(43.192 -269.385 452.394) scale(170.497 163.166)" gradientUnits="userSpaceOnUse">
      <stop offset=".055" stop-color="#4542E8"/>
      <stop offset="1" stop-color="#FAC5FF" stop-opacity="0"/>
    </radialGradient>
    <radialGradient id="C" cx="0" cy="0" r="1" gradientTransform="matrix(-71.01519 98.82445 -52.16288 -37.48421 360.866 212.424)" gradientUnits="userSpaceOnUse">
      <stop stop-color="#9E22FF"/>
      <stop offset="1" stop-color="#1EA0FF" stop-opacity="0"/>
    </radialGradient>
    <radialGradient id="D" cx="0" cy="0" r="1" gradientTransform="matrix(-55.05839 -121.2574 278.12388 -126.28552 252.395 398.489)" gradientUnits="userSpaceOnUse">
      <stop stop-color="#7A64FF"/>
      <stop offset=".545" stop-color="#F5ACE9"/>
      <stop offset="1" stop-color="#322EFF" stop-opacity=".29"/>
    </radialGradient>
    <radialGradient id="E" cx="0" cy="0" r="1" gradientTransform="matrix(79.35252 96.96399 -94.0031 76.92941 152.292 259.108)" gradientUnits="userSpaceOnUse">
      <stop stop-color="#3687FF"/>
      <stop offset="1" stop-color="#354BFF" stop-opacity="0"/>
    </radialGradient>
    <radialGradient id="F" cx="0" cy="0" r="1" gradientTransform="rotate(46.273 -194.245 279.997) scale(79.0292 42.9445)" gradientUnits="userSpaceOnUse">
      <stop stop-color="#1858FF"/>
      <stop offset="1" stop-color="#3A70FF" stop-opacity="0"/>
    </radialGradient>
    <radialGradient id="G" cx="0" cy="0" r="1" gradientTransform="matrix(-82.98876 -199.45599 483.98213 -201.37312 335.524 546.542)" gradientUnits="userSpaceOnUse">
      <stop stop-color="#2238FF"/>
      <stop offset="1" stop-color="#0047FF" stop-opacity="0"/>
    </radialGradient>
    <radialGradient id="H" cx="0" cy="0" r="1" gradientTransform="matrix(161.09286 214.32017 -359.05216 269.88004 165.215 184.105)" gradientUnits="userSpaceOnUse">
      <stop offset=".022" stop-color="#C76DFF" stop-opacity=".4"/>
      <stop offset=".267" stop-color="#8665FA" stop-opacity=".92"/>
      <stop offset=".592" stop-color="#A259E5" stop-opacity=".58"/>
      <stop offset="1" stop-color="#FF2FA0" stop-opacity="0"/>
    </radialGradient>
    <radialGradient id="I" cx="0" cy="0" r="1" gradientTransform="matrix(-82.98876 -199.45599 483.98213 -201.37312 335.524 546.542)" gradientUnits="userSpaceOnUse">
      <stop stop-color="#2238FF"/>
      <stop offset="1" stop-color="#0047FF" stop-opacity="0"/>
    </radialGradient>
    <radialGradient id="J" cx="0" cy="0" r="1" gradientTransform="matrix(161.09286 214.32017 -359.05216 269.88004 165.215 184.105)" gradientUnits="userSpaceOnUse">
      <stop offset=".022" stop-color="#C76DFF" stop-opacity=".4"/>
      <stop offset=".267" stop-color="#8665FA" stop-opacity=".92"/>
      <stop offset=".592" stop-color="#A259E5" stop-opacity=".58"/>
      <stop offset="1" stop-color="#FF2FA0" stop-opacity="0"/>
    </radialGradient>
    <radialGradient id="K" cx="0" cy="0" r="1" gradientTransform="matrix(-82.98876 -199.45599 483.98213 -201.37312 335.524 546.542)" gradientUnits="userSpaceOnUse">
      <stop stop-color="#2238FF"/>
      <stop offset="1" stop-color="#0047FF" stop-opacity="0"/>
    </radialGradient>
    <radialGradient id="L" cx="0" cy="0" r="1" gradientTransform="matrix(161.09286 214.32017 -359.05216 269.88004 165.215 184.105)" gradientUnits="userSpaceOnUse">
      <stop offset=".022" stop-color="#C76DFF" stop-opacity=".4"/>
      <stop offset=".267" stop-color="#8665FA" stop-opacity=".92"/>
      <stop offset=".592" stop-color="#A259E5" stop-opacity=".58"/>
      <stop offset="1" stop-color="#FF2FA0" stop-opacity="0"/>
    </radialGradient>
    <linearGradient id="e" x1="229.507" x2="229.507" y1="132" y2="301.495" gradientUnits="userSpaceOnUse">
      <stop stop-color="#652EFF"/>
      <stop offset="1" stop-color="#652EFF" stop-opacity="0"/>
    </linearGradient>
    <linearGradient id="g" x1="258.645" x2="326.713" y1="184.115" y2="216.699" gradientUnits="userSpaceOnUse">
      <stop stop-color="#FFA5BB" stop-opacity=".74"/>
      <stop offset=".668" stop-color="#FF59A4"/>
    </linearGradient>
    <linearGradient id="x" x1="206.092" x2="206.092" y1="55" y2="250.442" gradientUnits="userSpaceOnUse">
      <stop stop-color="#652EFF"/>
      <stop offset="1" stop-color="#652EFF" stop-opacity="0"/>
    </linearGradient>
    <linearGradient id="z" x1="239.69" x2="318.179" y1="115.093" y2="152.665" gradientUnits="userSpaceOnUse">
      <stop stop-color="#FFA5BB" stop-opacity=".74"/>
      <stop offset="1" stop-color="#FF59BD"/>
    </linearGradient>
    <filter id="a" width="307.12" height="398.424" x="116.285" y="93" color-interpolation-filters="sRGB" filterUnits="userSpaceOnUse">
      <feFlood flood-opacity="0" result="BackgroundImageFix"/>
      <feBlend in="SourceGraphic" in2="BackgroundImageFix" result="shape"/>
      <feGaussianBlur result="effect1_foregroundBlur_369_6384" stdDeviation="19.5"/>
    </filter>
  </defs>
</svg>
