<svg xmlns="http://www.w3.org/2000/svg" width="200" height="84" fill="none" viewBox="0 0 200 84">
  <path fill="#000" d="M135.106 58.185c.538 0 1.027.098 1.515.244.489.146.977.39 1.466.73v1.412c-.44-.487-.88-.827-1.368-1.022-.489-.244-1.026-.341-1.613-.341-.488 0-.928.097-1.417.292a3.95 3.95 0 0 0-1.172.828c-.342.341-.586.78-.782 1.218-.195.438-.244.925-.244 1.46 0 .438.049.828.147 1.169.097.34.244.681.488.973.342.536.831.926 1.319 1.17a3.578 3.578 0 0 0 1.71.438c.587 0 1.124-.098 1.613-.341.488-.243.928-.584 1.368-1.071v1.412a4.15 4.15 0 0 1-1.466.73c-.537.146-1.075.243-1.612.243-.489 0-.929-.048-1.417-.194-.44-.146-.88-.341-1.271-.634a4.23 4.23 0 0 1-1.515-1.704 4.855 4.855 0 0 1-.537-2.191c0-.682.098-1.314.342-1.899.244-.584.587-1.071 1.075-1.558a5.2 5.2 0 0 1 1.515-1.023c.586-.243 1.173-.34 1.856-.34Zm35.374.05c.636 0 1.271.097 1.857.34a4.821 4.821 0 0 1 1.563 1.023c.44.438.831.974 1.027 1.51.195.584.342 1.168.342 1.85 0 .633-.098 1.266-.342 1.85a4.612 4.612 0 0 1-1.027 1.51 4.82 4.82 0 0 1-1.563 1.022c-.586.243-1.221.34-1.857.34-.635 0-1.27-.097-1.856-.34a4.82 4.82 0 0 1-1.563-1.023 5.36 5.36 0 0 1-1.076-1.51 4.552 4.552 0 0 1-.341-1.801c0-.633.097-1.266.341-1.85.245-.584.587-1.071 1.076-1.558a4.82 4.82 0 0 1 1.563-1.023c.586-.243 1.221-.34 1.856-.34Zm-5.081 1.216h-2.541v8.035h-1.075v-8.035h-2.589V58.43h6.205v1.022Zm-23.306-1.07c.586 0 1.075.048 1.319.096.293.05.538.195.734.341.293.195.488.488.634.829.147.34.244.73.244 1.168 0 .73-.195 1.315-.634 1.705-.44.389-1.026.583-1.808.583h-.196l3.469 4.334h-1.368l-3.322-4.334h-.146v4.334h-1.076v-9.056h2.15Zm6.987 3.943 2.345-3.943h1.221l-3.078 4.918v4.139h-1.075v-4.14l-3.078-4.917h1.271l2.394 3.943Zm6.547-3.943c.684 0 1.173.048 1.466.096.293.05.587.195.831.341a1.9 1.9 0 0 1 .683.829c.147.34.245.779.245 1.217 0 .438-.098.828-.245 1.217a1.9 1.9 0 0 1-.683.828c-.244.146-.489.292-.831.341a9.286 9.286 0 0 1-1.466.098h-.83v4.09h-1.075V58.38h1.905Zm14.756.73c-.489 0-.977.098-1.417.292-.44.195-.831.438-1.222.828-.342.34-.635.779-.83 1.217a3.556 3.556 0 0 0-.294 1.461c0 .487.099.974.294 1.412.195.438.44.828.83 1.217.342.34.782.633 1.222.828.44.244.928.292 1.417.292.488 0 .977-.097 1.417-.292a3.86 3.86 0 0 0 1.221-.828 4.15 4.15 0 0 0 .831-1.217 3.49 3.49 0 0 0 .293-1.412c0-.487-.098-.974-.293-1.46-.196-.488-.44-.878-.831-1.218a4.156 4.156 0 0 0-1.221-.828 3.52 3.52 0 0 0-1.417-.292ZM40.075 66.366 33.381 54.34l13.339-.049-6.645 12.076Zm114.722-3.944h.537c.928 0 1.563-.098 1.856-.34.342-.196.49-.585.49-1.121 0-.584-.148-.973-.49-1.217-.342-.243-.928-.34-1.856-.34h-.537v3.018Zm-13.828-.098h.831c.83 0 1.417-.097 1.71-.34.293-.195.439-.584.439-1.12 0-.584-.146-.974-.439-1.217-.293-.244-.831-.341-1.661-.341h-.88v3.018ZM95.726 26c3.957 0 7.378 1.412 10.212 4.236 2.833 2.824 4.298 6.233 4.298 10.226 0 3.993-1.416 7.401-4.298 10.177-2.883 2.775-6.353 4.187-10.408 4.187-3.615 0-6.84-1.267-9.674-3.75-3.176-2.727-4.74-6.33-4.74-10.81 0-3.895 1.417-7.254 4.3-10.078C88.299 27.363 91.719 26 95.726 26Zm66.937 0c3.957 0 7.377 1.412 10.211 4.236 2.834 2.824 4.3 6.233 4.3 10.226 0 3.993-1.417 7.401-4.3 10.177-2.882 2.775-6.351 4.187-10.406 4.187-3.616 0-6.841-1.267-9.675-3.75-3.176-2.727-4.739-6.33-4.739-10.81 0-3.895 1.417-7.254 4.3-10.078 2.882-2.825 6.303-4.188 10.309-4.188Zm-42.459 24.395h8.208v3.944h-12.41V26.536h4.202v23.858Zm18.225 0h8.208v3.944h-12.41V26.536h4.202v23.858ZM56.247 54.29H51.41L40.173 33.401 28.935 54.29H24l14.658-27.754h3.274L56.247 54.29Zm9.723-27.754c2.345 0 4.104.146 5.277.486a7.024 7.024 0 0 1 3.176 1.851c1.612 1.558 2.393 3.506 2.393 5.892 0 2.532-.83 4.577-2.54 6.038-1.71 1.51-4.007 2.239-6.938 2.239l-1.954-.048V54.29h-4.202V26.536h4.788Zm29.804 3.457c-2.882 0-5.374 1.022-7.329 3.019-2.1 1.947-3.078 4.382-3.078 7.352 0 3.068 1.026 5.6 3.127 7.596 2.052 1.996 4.447 2.97 7.134 2.97 2.931 0 5.375-1.023 7.427-3.019 2.003-2.045 3.029-4.528 3.029-7.45 0-2.97-.977-5.453-2.98-7.45-1.955-1.996-4.398-3.018-7.33-3.018Zm66.938 0c-2.883 0-5.375 1.022-7.329 3.019-2.101 1.947-3.078 4.382-3.078 7.352 0 3.068 1.026 5.6 3.127 7.596 2.052 1.996 4.446 2.97 7.133 2.97 2.932 0 5.374-1.023 7.426-3.019 2.003-2.045 3.029-4.528 3.03-7.45 0-2.97-.978-5.453-2.981-7.45-1.954-1.995-4.397-3.018-7.328-3.018ZM40.124 39.147a2.293 2.293 0 0 1 2.296 2.288 2.292 2.292 0 0 1-2.296 2.289 2.293 2.293 0 0 1-2.297-2.288 2.293 2.293 0 0 1 2.297-2.29Zm25.357 0h1.515c3.86 0 5.815-1.46 5.815-4.431 0-2.873-2.004-4.285-5.961-4.285h-1.37v8.716Z"/>
</svg>
