<svg xmlns="http://www.w3.org/2000/svg" width="200" height="84" fill="none" viewBox="0 0 200 84">
  <path fill="#000" d="M76.878 43.58v.651c0 1.861-1.208 2.791-3.623 2.791h-4.478v-11.51h4.089c2.467 0 3.7.902 3.7 2.707v.667c0 1.108-.502 1.84-1.507 2.193 1.212.332 1.819 1.164 1.819 2.5Zm-1.835.291v-.497c0-.593-.181-.987-.545-1.181-.362-.206-.88-.31-1.554-.31h-2.332v3.444h2.348c.663 0 1.176-.103 1.539-.308.363-.206.544-.588.544-1.148Zm-.31-4.762v-.53c0-.55-.187-.915-.56-1.096-.364-.194-.886-.292-1.57-.292h-1.99v3.203h1.974c.704 0 1.238-.086 1.6-.257.364-.172.546-.514.546-1.028Zm5.067 7.913V34.724a4.788 4.788 0 0 1 1.803 0v12.299a4.784 4.784 0 0 1-1.803 0Zm12.624-6.216v3.664c0 1.839-1.286 2.758-3.856 2.758s-3.856-.92-3.856-2.758v-3.664c0-1.007.332-1.72.995-2.142.674-.434 1.628-.65 2.86-.65 1.234 0 2.183.216 2.846.65.674.423 1.01 1.135 1.01 2.142Zm-1.804 3.237V41.2c0-.595-.176-.988-.528-1.183-.353-.194-.86-.292-1.525-.292-.653 0-1.16.098-1.523.292-.352.194-.528.588-.528 1.182v2.843c0 .582.176.97.528 1.165.363.194.871.291 1.524.291.663 0 1.171-.096 1.523-.291.352-.194.529-.582.529-1.164Zm4.643.427v-3.683c0-1.004.31-1.717.933-2.14.632-.422 1.539-.634 2.72-.634 1.037 0 1.969.086 2.798.257.083.55.083 1.111 0 1.661a15.417 15.417 0 0 0-2.487-.206c-.435 0-.793.03-1.073.086a1.49 1.49 0 0 0-.762.429c-.217.229-.326.548-.326.96v2.825c0 .411.109.731.327.96.228.227.482.37.762.428a5.5 5.5 0 0 0 1.073.086c.787 0 1.617-.086 2.486-.258a4.93 4.93 0 0 1 0 1.662 12.59 12.59 0 0 1-2.798.325c-2.435 0-3.653-.92-3.653-2.758Zm15.036 2.553-2.69-4.111-1.322.137v3.974a4.787 4.787 0 0 1-1.803 0V34.724a4.787 4.787 0 0 1 1.803 0v6.63l1.477-.154 2.395-3.015c.207-.045.539-.068.994-.068.457 0 .788.023.996.068l-3.047 3.854 3.187 4.984c-.218.046-.555.07-1.011.07-.445 0-.772-.024-.98-.07h.001Zm15.662 0h-6.903V35.511a7.045 7.045 0 0 1 1.835 0v9.849h5.068a4.983 4.983 0 0 1 0 1.662Zm9.866-6.218v3.665c0 1.839-1.285 2.758-3.856 2.758-2.57 0-3.855-.92-3.855-2.758v-3.664c0-1.007.331-1.72.995-2.142.674-.434 1.627-.65 2.86-.65 1.234 0 2.182.216 2.846.65.673.423 1.01 1.135 1.01 2.142Zm-1.804 3.238V41.2c0-.595-.176-.988-.529-1.183-.351-.194-.859-.292-1.523-.292-.653 0-1.161.098-1.524.292-.352.194-.528.588-.528 1.182v2.843c0 .582.176.97.528 1.165.363.194.871.291 1.524.291.664 0 1.172-.096 1.523-.291.353-.194.529-.582.529-1.164Zm10.644 3.494v-.789l.094-1.267h-.078c-.29.96-1.275 1.439-2.954 1.439-.943 0-1.689-.206-2.239-.617-.539-.41-.808-1.061-.808-1.952v-3.769c0-1.712 1.016-2.569 3.047-2.569 1.679 0 2.664.48 2.954 1.44h.078l.14-1.269a5.172 5.172 0 0 1 1.57 0v9.18c0 1.177-.348 2.034-1.042 2.57-.694.537-1.756.806-3.187.806a19.47 19.47 0 0 1-3.063-.24c-.021-.64.031-1.187.156-1.644.953.16 1.881.24 2.782.24.788 0 1.411-.115 1.866-.344.456-.217.684-.622.684-1.215Zm0-3.666v-2.809c-.207-.526-.461-.88-.762-1.061-.3-.184-.792-.274-1.477-.274-.642 0-1.129.113-1.461.341-.321.218-.482.668-.482 1.353v2.108c0 .673.161 1.118.482 1.335.332.217.819.326 1.461.326.685 0 1.177-.092 1.477-.274.301-.183.555-.53.762-1.045Zm5.164 3.151v-8.769a4.787 4.787 0 0 1 1.803 0v8.77a4.787 4.787 0 0 1-1.803 0Zm1.896-12.075-.046 1.695a6.708 6.708 0 0 1-1.912 0l-.031-1.695a5.816 5.816 0 0 1 1.989 0Zm3.001 9.523v-3.683c0-1.004.311-1.717.933-2.14.632-.422 1.539-.634 2.721-.634 1.036 0 1.969.086 2.798.257.083.55.083 1.111 0 1.661a15.439 15.439 0 0 0-2.488-.206c-.434 0-.792.03-1.072.086a1.49 1.49 0 0 0-.762.429c-.217.229-.326.548-.326.96v2.825c0 .411.109.731.326.96.228.227.482.37.762.428.28.057.638.086 1.072.086.788 0 1.617-.086 2.488-.258a4.985 4.985 0 0 1 0 1.662 12.58 12.58 0 0 1-2.798.325c-2.436 0-3.654-.92-3.654-2.758Z"/>
  <path fill="#000" fill-rule="evenodd" d="m61.408 34-10.755 3.333V54l10.755-4V34Zm-6.623 4.32-2.889.944.001 11.742 7.315-2.497.02-2.871-4.47 1.51.023-8.828Z" clip-rule="evenodd" opacity=".6"/>
  <path fill="#000" fill-rule="evenodd" d="M50.653 54V37.333L39.266 34v16.041L50.653 54Zm-4.574-3.679c1.842.614 3.059.193 3.095-1.837l.013-.77c.027-1.453-.51-2.417-1.438-3.034.78-.081 1.24-.638 1.261-1.844l.015-.77c.035-1.975-1.18-3.148-3.099-3.748l-4.944-1.546-.114 11.81 5.21 1.74Zm-.641-9.498c.66.211 1.066.462 1.057 1.054l-.009.645c-.01.61-.431.544-1.076.337l-1.962-.629.025-2.03 1.965.623Zm.215 4.407c.564.182 1.048.462 1.037 1.16l-.008.613c-.01.644-.445.659-1.047.461l-2.24-.738.027-2.221 2.23.725Z" clip-rule="evenodd"/>
  <path fill="#000" d="m39.266 34 11.387-3.333L61.408 34l-10.755 3.333L39.266 34Z" opacity=".8"/>
</svg>
