<svg xmlns="http://www.w3.org/2000/svg" width="200" height="84" fill="none" viewBox="0 0 200 84">
  <path fill="#000" d="M48.806 42c0 1.041-.102 2.059-.297 3.045-4.072-1.341-9.515-2.527-14.934-2.188-.298.019-.59.04-.878.062v-1.192c0-1.033 1.604-2.584 3.514-2.584 2.23 0 2.817 1.612 3.205 2.679l.106.286 1.568.14a.445.445 0 0 0 .49-.436v-6.087a.215.215 0 0 0-.029-.109l-.902-1.55a.228.228 0 0 0-.39 0l-.747 1.283a.228.228 0 0 1-.386.009l-2.792-4.303a.228.228 0 0 0-.38 0l-2.785 4.294a.228.228 0 0 1-.389-.014l-.68-1.243a.227.227 0 0 0-.397 0l-.836 1.526a.215.215 0 0 0-.026.104v7.372c-3.277.371-5.943 1.012-8.3 1.9v-2.042c0-.761 1.036-1.714 2.442-1.714 1.405 0 2.148.953 2.44 1.714l1.289-.221a.442.442 0 0 0 .371-.432v-3.48a.216.216 0 0 0-.029-.107l-.605-1.042a.227.227 0 0 0-.391 0l-.45.773a.228.228 0 0 1-.385.01l-1.953-3.017a.228.228 0 0 0-.38 0l-1.947 3.007a.228.228 0 0 1-.388-.014l-.4-.733a.227.227 0 0 0-.397 0l-.557 1.018a.214.214 0 0 0-.026.103v6.733a31.114 31.114 0 0 0-4.089 2.187A15.616 15.616 0 0 1 16 42c0-8.837 7.344-16 16.403-16 9.059 0 16.403 7.163 16.403 16Z"/>
  <path fill="#000" fill-rule="evenodd" d="M21.175 48.29a38.418 38.418 0 0 0-3.192 1.342C20.76 54.617 26.177 58 32.403 58c5.744 0 10.8-2.88 13.73-7.241a35.368 35.368 0 0 0-4.748-2.351v1.535a.444.444 0 0 1-.449.438h-.468a.444.444 0 0 1-.45-.438v-2.047c-2.05-.712-4.234-1.212-6.444-1.325a45.238 45.238 0 0 0-.877-.035v3.407a.444.444 0 0 1-.45.438h-.957a.444.444 0 0 1-.45-.438v-3.417c-3.234.064-5.91.559-8.298 1.302v1.353a.444.444 0 0 1-.45.438h-.468a.444.444 0 0 1-.45-.438v-.891Zm7.908-.957s-.976 0-1.367.19v1.658c0 .242.202.438.45.438h.468c.248 0 .45-.196.45-.438v-1.848Z" clip-rule="evenodd"/>
  <path fill="#000" d="M35.625 44.762c-8.401-.546-13.524 1.721-18.055 4.078l.086.175c5.863-2.503 11.862-4.115 18.457-3.206 3.96.547 7.73 2.032 10.807 3.645.27-.498.513-1.011.728-1.538-3.47-1.525-7.706-2.873-12.023-3.154Zm74.024-7.632h1.862v3.487a5.377 5.377 0 0 1-1.661.81 6.6 6.6 0 0 1-1.9.282c-.915 0-1.737-.188-2.466-.565a4.413 4.413 0 0 1-1.724-1.583c-.411-.68-.617-1.444-.617-2.295s.206-1.612.617-2.283a4.277 4.277 0 0 1 1.736-1.583c.738-.385 1.569-.577 2.492-.577.771 0 1.472.126 2.101.38a4.156 4.156 0 0 1 1.585 1.105l-1.308 1.178c-.629-.646-1.389-.97-2.278-.97-.562 0-1.061.115-1.497.344a2.5 2.5 0 0 0-1.019.97c-.244.417-.365.896-.365 1.436 0 .532.121 1.006.365 1.424.243.417.578.744 1.006.982.437.229.931.343 1.485.343a3.38 3.38 0 0 0 1.586-.368V37.13Z"/>
  <path fill="#000" fill-rule="evenodd" d="M68.96 37.88c-.285-.369-.68-.63-1.183-.786a2.095 2.095 0 0 0 1.17-1.89c0-.688-.289-1.232-.868-1.633-.57-.4-1.392-.601-2.466-.601H61.31v8.592h4.555c1.15 0 2.022-.2 2.617-.602.604-.409.906-.99.906-1.743 0-.532-.142-.977-.428-1.337Zm-5.624-1.388v-2.025h2.026c.503 0 .885.086 1.145.258.26.164.39.413.39.749 0 .335-.13.589-.39.76-.26.173-.642.258-1.145.258h-2.026Zm3.586 3.315c-.269.171-.671.257-1.208.257h-2.378v-2.123h2.378c1.082 0 1.623.356 1.623 1.068 0 .36-.138.626-.415.797Zm10.17-.639 1.698 2.394h2.19L79.004 38.8c.58-.245 1.024-.597 1.334-1.055.319-.467.478-1.02.478-1.657 0-.639-.155-1.191-.465-1.657-.31-.467-.755-.827-1.334-1.08-.57-.254-1.246-.381-2.026-.381h-3.813v8.592h2.039v-2.394h1.875Zm1.183-4.185c.318.254.478.622.478 1.105 0 .474-.16.842-.478 1.104-.32.262-.785.393-1.397.393h-1.661V34.59h1.66c.613 0 1.079.131 1.398.393Z" clip-rule="evenodd"/>
  <path fill="#000" d="M84.678 32.97h2.039v8.592h-2.039V32.97Z"/>
  <path fill="#000" fill-rule="evenodd" d="M95.055 32.97h-4v8.592h4c.957 0 1.8-.176 2.53-.528.738-.36 1.308-.863 1.711-1.51.411-.646.616-1.399.616-2.258 0-.86-.205-1.612-.616-2.259-.403-.646-.973-1.145-1.711-1.497-.73-.36-1.573-.54-2.53-.54Zm2.001 6.247c-.52.475-1.22.712-2.101.712h-1.862v-5.327h1.862c.88 0 1.581.242 2.101.725.529.474.793 1.12.793 1.939 0 .818-.264 1.469-.793 1.951Z" clip-rule="evenodd"/>
  <path fill="#000" d="M122.471 41.562v-1.596h-4.794v-1.988h4.09V36.43h-4.09v-1.865h4.631V32.97h-6.657v8.592h6.82Zm5.694-6.972h-2.819v-1.62h7.676v1.62h-2.819v6.972h-2.038V34.59Z"/>
  <path fill="#000" fill-rule="evenodd" d="M138.03 41.132c.738.385 1.564.577 2.478.577.915 0 1.737-.192 2.467-.577a4.42 4.42 0 0 0 1.724-1.583 4.26 4.26 0 0 0 .629-2.283c0-.843-.21-1.6-.629-2.27a4.39 4.39 0 0 0-1.724-1.596c-.73-.385-1.552-.577-2.467-.577-.914 0-1.74.192-2.478.577a4.383 4.383 0 0 0-1.724 1.595c-.411.671-.617 1.428-.617 2.27 0 .844.206 1.605.617 2.284a4.414 4.414 0 0 0 1.724 1.583Zm3.888-1.46c-.42.229-.889.343-1.41.343-.52 0-.989-.114-1.409-.343a2.632 2.632 0 0 1-.994-.982 2.851 2.851 0 0 1-.352-1.424c0-.532.117-1.007.352-1.424.243-.417.575-.74.994-.97.42-.237.889-.356 1.409-.356.521 0 .99.12 1.41.356.419.23.746.553.981.97.243.417.365.892.365 1.424a2.78 2.78 0 0 1-.365 1.424 2.543 2.543 0 0 1-.981.982Z" clip-rule="evenodd"/>
  <path fill="#000" d="m162.125 32.97-2.882 8.592h-2.189l-1.938-5.818-2.001 5.818h-2.177l-2.894-8.592h2.114l1.988 6.039 2.076-6.04h1.888l2.013 6.089 2.051-6.088h1.951Zm10.205 8.592v-1.596h-4.795v-1.988h4.09V36.43h-4.09v-1.865h4.631V32.97h-6.656v8.592h6.82Z"/>
  <path fill="#000" fill-rule="evenodd" d="m181.811 41.562-1.699-2.394h-1.875v2.394h-2.038V32.97h3.812c.78 0 1.456.127 2.026.38.579.254 1.023.614 1.334 1.08.31.467.465 1.02.465 1.657 0 .639-.159 1.191-.478 1.657-.31.459-.755.81-1.334 1.056L184 41.562h-2.189Zm-.038-5.474c0-.483-.16-.852-.478-1.105-.319-.262-.785-.393-1.397-.393h-1.661v2.995h1.661c.612 0 1.078-.131 1.397-.393.318-.262.478-.63.478-1.105Z" clip-rule="evenodd"/>
  <path fill="#000" d="M104.541 55.01a3.308 3.308 0 0 1-1.553-.362 2.817 2.817 0 0 1-1.084-1.018 2.789 2.789 0 0 1-.388-1.46 2.732 2.732 0 0 1 1.48-2.47c.464-.247.982-.37 1.554-.37.463 0 .887.078 1.27.236.382.158.706.387.97.686l-.679.624a2.005 2.005 0 0 0-1.513-.647c-.388 0-.736.084-1.043.252a1.78 1.78 0 0 0-.72.687 1.941 1.941 0 0 0-.259 1.002c0 .373.086.707.259 1.002.172.295.412.526.72.694a2.19 2.19 0 0 0 1.043.245c.599 0 1.103-.218 1.513-.655l.679.631c-.264.3-.59.529-.979.687a3.297 3.297 0 0 1-1.27.236Z"/>
  <path fill="#000" fill-rule="evenodd" d="m108.97 53.653-.558 1.279h-1.084l2.548-5.524h1.035l2.557 5.524h-1.101l-.566-1.279h-2.831Zm2.483-.804-1.067-2.415-1.06 2.415h2.127Zm6.792-3.204c-.362-.158-.788-.237-1.278-.237h-2.33v5.524h1.052v-1.594h1.278c.49 0 .916-.08 1.278-.237.367-.158.647-.384.841-.679.194-.3.291-.65.291-1.049 0-.405-.097-.755-.291-1.05a1.848 1.848 0 0 0-.841-.678Zm-.283 2.54c-.238.19-.585.285-1.044.285h-1.229v-2.194h1.229c.459 0 .806.095 1.044.284.237.19.356.46.356.813 0 .352-.119.623-.356.813Z" clip-rule="evenodd"/>
  <path fill="#000" d="M120.877 49.408h1.051v5.524h-1.051v-5.524Zm2.304.868h1.877v4.656h1.052v-4.656h1.876v-.868h-4.805v.868Z"/>
  <path fill="#000" fill-rule="evenodd" d="m129.782 53.653-.558 1.279h-1.084l2.548-5.524h1.035l2.556 5.524h-1.1l-.566-1.279h-2.831Zm2.483-.804-1.068-2.415-1.059 2.415h2.127Z" clip-rule="evenodd"/>
  <path fill="#000" d="M136.5 49.408h-1.051v5.524h4.012v-.868H136.5v-4.656Zm-43.766 2.893H64.085v-.657h28.65v.657Zm55.837 0h31.57v-.657h-31.57v.657Z"/>
</svg>
