<svg width="200" height="84" viewBox="0 0 200 84" fill="none" xmlns="http://www.w3.org/2000/svg">
<path d="M34.5483 32.5005C34.7936 32.4891 34.9928 32.6897 34.9928 32.9357V51.0544C34.9928 51.3005 34.7936 51.5011 34.5483 51.4897C29.5195 51.257 25.5137 47.0952 25.5137 41.9951C25.5137 36.8951 29.5195 32.7332 34.5483 32.5005Z" fill="black"/>
<path d="M46.4903 51.4897C46.2451 51.5011 46.0459 51.3005 46.0459 51.0544V32.9357C46.0459 32.6897 46.2451 32.4891 46.4903 32.5005C51.5192 32.7332 55.525 36.8951 55.525 41.9951C55.525 47.0952 51.5192 51.257 46.4903 51.4897Z" fill="black"/>
<path d="M35.7588 32.9357C35.7588 32.6897 35.9581 32.4891 36.2032 32.5005C41.2321 32.7332 45.2379 36.8951 45.2379 41.9951V51.0544C45.2379 51.3005 45.0387 51.5011 44.7934 51.4897C39.7646 51.257 35.7588 47.0952 35.7588 41.9951V32.9357Z" fill="black"/>
<path d="M56.291 32.9357C56.291 32.6897 56.4902 32.4891 56.7355 32.5005C61.7643 32.7332 65.7701 36.8951 65.7701 41.9951V51.0544C65.7701 51.3005 65.5712 51.5 65.3258 51.5H56.7353C56.4899 51.5 56.291 51.3005 56.291 51.0544V32.9357Z" fill="black"/>
<path d="M162.584 49.9547H161.201V34.1392H162.42L173.127 47.5179V34.1392H174.486V49.9547H173.268L162.584 36.6228V49.9547Z" fill="black"/>
<path d="M146.805 49.9547H145.329L152.382 34.1392H153.459L160.512 49.9547H159.036L157.302 46.0418H148.539L146.805 49.9547ZM156.716 44.7297L152.921 36.201L149.125 44.7297H156.716Z" fill="black"/>
<path d="M137.888 49.9547H131.726V34.1392H137.888C140.184 34.1392 142.105 34.8889 143.652 36.4119C145.221 37.9349 145.995 39.8093 145.995 42.0351C145.995 44.2612 145.221 46.1589 143.652 47.6819C142.105 49.205 140.184 49.9547 137.888 49.9547ZM137.888 35.4513H133.155V48.6426H137.888C139.786 48.6426 141.355 48.01 142.621 46.7448C143.909 45.4795 144.542 43.9097 144.542 42.0351C144.542 40.3717 144.026 38.9424 142.972 37.7474C141.941 36.5291 140.606 35.8027 138.989 35.545C138.802 35.4981 138.614 35.4747 138.403 35.4747C138.286 35.4513 138.122 35.4513 137.888 35.4513Z" fill="black"/>
<path d="M117.331 49.9547H115.854L122.907 34.1392H123.985L131.037 49.9547H129.561L127.828 46.0418H119.065L117.331 49.9547ZM127.242 44.7297L123.446 36.201L119.65 44.7297H127.242Z" fill="black"/>
<path d="M106.095 34.1392H107.524V48.6426H116.427V49.9547H106.095V34.1392Z" fill="black"/>
<path d="M91.7008 49.9547H90.2246L97.2773 34.1392H98.355L105.408 49.9547H103.931L102.198 46.0418H93.4347L91.7008 49.9547ZM101.612 44.7297L97.8161 36.201L94.0203 44.7297H101.612Z" fill="black"/>
<path d="M75.5977 42.0371C75.5977 39.7175 76.371 37.7962 77.894 36.2732C79.4402 34.7268 81.3616 33.9536 83.6812 33.9536C86.7038 33.9536 89.2811 35.4297 90.6868 37.8431L89.3278 38.382C88.1798 36.4841 86.0945 35.3126 83.6812 35.3126C81.7833 35.3126 80.2135 35.9452 78.9249 37.2339C77.6596 38.5225 77.0269 40.1158 77.0269 42.0371C77.0269 43.9584 77.6596 45.575 78.9249 46.8637C80.2135 48.1524 81.7833 48.7851 83.6812 48.7851C86.0945 48.7851 88.1798 47.6136 89.3278 45.7156L90.6868 46.2546C89.2811 48.6679 86.6804 50.1675 83.6812 50.1675C81.3616 50.1675 79.4402 49.3942 77.894 47.8479C76.371 46.3014 75.5977 44.3566 75.5977 42.0371Z" fill="black"/>
</svg>
