<svg xmlns="http://www.w3.org/2000/svg" width="200" height="84" fill="none" viewBox="0 0 200 84">
  <path fill="#000" d="M39.831 57.95a15.681 15.681 0 0 1-8.105-2.267 15.862 15.862 0 0 1-5.8-6.146 16.034 16.034 0 0 1 .785-16.337 15.824 15.824 0 0 1 6.362-5.551 15.663 15.663 0 0 1 16.14 1.568 15.9 15.9 0 0 1 5.194 6.674h4.3a19.974 19.974 0 0 0-8.473-10.914 19.685 19.685 0 0 0-13.472-2.737 19.784 19.784 0 0 0-12 6.757A20.104 20.104 0 0 0 20 42c0 4.769 1.689 9.38 4.762 13.003a19.784 19.784 0 0 0 12 6.757c4.67.737 9.448-.234 13.472-2.737a19.974 19.974 0 0 0 8.472-10.914h-4.298c.536-1.302.9-2.67 1.079-4.068l-8.245.03a7.76 7.76 0 0 1-3.17 4.427 7.643 7.643 0 0 1-5.275 1.227 7.676 7.676 0 0 1-4.77-2.582 7.801 7.801 0 0 1-1.905-5.112c0-1.88.677-3.697 1.904-5.112a7.676 7.676 0 0 1 4.771-2.582 7.643 7.643 0 0 1 5.276 1.226 7.76 7.76 0 0 1 3.169 4.428h8.245c.17 1.355.17 2.725 0 4.08h4.034a20.006 20.006 0 0 1-.815 4.079h4.182c.343-1.338.573-2.703.687-4.08H59.53c.059-.673.098-1.356.098-2.04 0-.692 0-1.366-.098-2.039h4.044a24.127 24.127 0 0 0-.697-4.099h-4.172c.419 1.332.695 2.707.825 4.1h-4.044a16.038 16.038 0 0 0-1.08-4.1h-4.544a11.808 11.808 0 0 0-5.73-4.923 11.683 11.683 0 0 0-7.514-.419 11.776 11.776 0 0 0-6.232 4.257 11.95 11.95 0 0 0-2.405 7.194c0 2.599.845 5.126 2.405 7.194a11.775 11.775 0 0 0 6.232 4.257 11.68 11.68 0 0 0 7.514-.419 11.807 11.807 0 0 0 5.73-4.923h4.544a15.912 15.912 0 0 1-5.81 7.147 15.706 15.706 0 0 1-8.766 2.694ZM67.57 39.992h-3.985c.049.663.088 1.326.088 1.98 0 .653 0 1.396-.098 2.079h3.985c.059-.66.088-1.353.088-2.08 0-.653-.03-1.316-.078-1.98Z"/>
  <path fill="#000" d="M39.813 45.18c1.745 0 3.16-1.428 3.16-3.188 0-1.761-1.415-3.189-3.16-3.189-1.746 0-3.16 1.428-3.16 3.189 0 1.76 1.414 3.188 3.16 3.188Zm38.427 2.847a6.824 6.824 0 0 0 3.404.903 6.725 6.725 0 0 0 4.24-1.436 6.828 6.828 0 0 0 2.424-3.792h-3.523a3.51 3.51 0 0 1-1.247 1.61c-.564.4-1.234.622-1.924.638a3.684 3.684 0 0 1-2.6-1.228 3.75 3.75 0 0 1-.953-2.733 3.693 3.693 0 0 1 .95-2.696 3.632 3.632 0 0 1 2.584-1.185c.703.01 1.385.239 1.956.653.57.414 1 .995 1.234 1.664h3.523a5.611 5.611 0 0 0-.893-2.168 6.894 6.894 0 0 0-2.595-2.397 6.822 6.822 0 0 0-6.8.244 6.905 6.905 0 0 0-2.42 2.577 6.98 6.98 0 0 0 .127 6.861 6.898 6.898 0 0 0 2.514 2.485Z"/>
  <path fill="#000" fill-rule="evenodd" d="M145.739 46.954a6.75 6.75 0 0 0 4.808 1.927 6.822 6.822 0 0 0 3.364-.863 6.9 6.9 0 0 0 2.517-2.412 6.98 6.98 0 0 0 .302-6.769 6.923 6.923 0 0 0-2.292-2.63 6.82 6.82 0 0 0-6.694-.565 6.88 6.88 0 0 0-2.693 2.209 6.063 6.063 0 0 0-.854 1.485 7.697 7.697 0 0 0-.52 2.832 6.869 6.869 0 0 0 2.062 4.786Zm3.385-8.54a3.627 3.627 0 0 1 1.423-.316h.069c.485.026.96.147 1.398.358a3.702 3.702 0 0 1 1.892 2.123c.161.462.231.951.204 1.44a3.64 3.64 0 0 1-.944 2.765 3.597 3.597 0 0 1-1.209.863 3.564 3.564 0 0 1-4.095-.9 3.645 3.645 0 0 1-.907-2.777 3.687 3.687 0 0 1 2.169-3.557Z" clip-rule="evenodd"/>
  <path fill="#000" d="M105.318 39.277a3.238 3.238 0 0 1 1.767-.476l.02 2.773h-.481a3.61 3.61 0 0 0-.982.188 2.446 2.446 0 0 0-.736.505 1.98 1.98 0 0 0-.451.732 2.64 2.64 0 0 0-.148.872v4.782h-3.14V38.99h3.042v1.693a2.803 2.803 0 0 1 1.109-1.406Zm7.254 2.316h1.963l.029-2.732h-1.963v-2.792h-3.141v2.792h-1.05v2.733h1.021v3.732c-.01.552.039 1.103.147 1.644a1.98 1.98 0 0 0 1.561 1.594 7.003 7.003 0 0 0 1.649.168 8.3 8.3 0 0 0 .864 0l.854-.05v-2.326a2.766 2.766 0 0 0-.403 0h-.412a1.608 1.608 0 0 1-.815-.169.8.8 0 0 1-.304-.752v-3.842Zm10.051 7.06h3.043V38.99h-3.132v5.178c.013.361-.047.722-.176 1.06-.103.245-.25.47-.432.663a1.52 1.52 0 0 1-.56.336 1.652 1.652 0 0 1-.549.1 1.61 1.61 0 0 1-1.158-.387 1.809 1.809 0 0 1-.393-1.346v-5.605h-3.141v5.812a8.082 8.082 0 0 0 .167 1.664c.096.473.293.92.579 1.307.289.39.68.692 1.129.871a4.459 4.459 0 0 0 1.708.287 3.654 3.654 0 0 0 1.658-.426 3.159 3.159 0 0 0 1.257-1.178v1.327Zm7.837-2.585a1.282 1.282 0 0 1-.122-.603l-3.033.02a3.42 3.42 0 0 0 .451 1.673 3.21 3.21 0 0 0 1.07 1.079 4.7 4.7 0 0 0 1.492.554 8.594 8.594 0 0 0 1.678.159 7.681 7.681 0 0 0 1.63-.178 4.635 4.635 0 0 0 1.472-.575 3.236 3.236 0 0 0 1.07-1.059c.294-.492.441-1.06.422-1.634a2.368 2.368 0 0 0-.118-.683 2.142 2.142 0 0 0-.383-.762 2.814 2.814 0 0 0-.746-.693 3.429 3.429 0 0 0-1.187-.466l-1.168-.227a12.85 12.85 0 0 1-1.149-.248 3.068 3.068 0 0 1-.883-.366.646.646 0 0 1-.315-.762.522.522 0 0 1 .109-.179.868.868 0 0 1 .334-.227c.142-.051.291-.081.441-.09.144-.01.288-.01.432 0 .343-.015.683.067.982.238a.927.927 0 0 1 .412.842h2.944a3.046 3.046 0 0 0-.431-1.555 2.817 2.817 0 0 0-1.031-.99 4.477 4.477 0 0 0-1.394-.485 9.032 9.032 0 0 0-1.551-.139c-.497.004-.992.05-1.482.139a4.888 4.888 0 0 0-1.423.475c-.414.22-.776.527-1.06.901a2.387 2.387 0 0 0-.412 1.446c-.034.54.111 1.076.412 1.524.287.361.653.65 1.07.842.46.215.944.372 1.443.465.54.1 1.03.208 1.521.327l.471.119c.175.03.343.087.501.168.148.07.281.167.392.287a.642.642 0 0 1 .167.456.77.77 0 0 1-.147.475 1.29 1.29 0 0 1-.373.317c-.147.08-.306.138-.471.168a2.198 2.198 0 0 1-.481.06 2.693 2.693 0 0 1-.638-.08 1.478 1.478 0 0 1-.53-.257 1.275 1.275 0 0 1-.388-.476Zm11.489-.88h-3.435v3.465h3.435v-3.465Zm19.984-6.198h-3.043l-.039 9.693h3.141v-5.268c-.003-.257.03-.514.098-.762a2.04 2.04 0 0 1 .304-.663c.141-.193.322-.352.53-.466.237-.123.5-.185.766-.178a1.61 1.61 0 0 1 .982.238c.213.146.374.358.461.603.099.273.145.562.137.852v5.644h3.121v-6.198a8.767 8.767 0 0 0-.088-1.179 3.195 3.195 0 0 0-.442-1.217 2.783 2.783 0 0 0-1.03-.99 3.898 3.898 0 0 0-1.894-.387 3.813 3.813 0 0 0-2.454.931 2.96 2.96 0 0 0-.55.673V38.99Z"/>
  <path fill="#000" fill-rule="evenodd" d="M99.416 41.764a5.21 5.21 0 0 1 .308 2.047c.005.262-.015.524-.06.782h-7.027c.005.4.103.793.285 1.149.077.167.18.32.304.455a2.01 2.01 0 0 0 1.55.594c.374.002.742-.09 1.07-.267a1.49 1.49 0 0 0 .717-.792h2.945a3.903 3.903 0 0 1-.717 1.465 4.045 4.045 0 0 1-1.1.99 4.856 4.856 0 0 1-1.403.575c-.4.08-.808.12-1.217.119h-.677a5.144 5.144 0 0 1-3.47-1.596 5.232 5.232 0 0 1-1.438-3.563 5.21 5.21 0 0 1 .342-2.042c.25-.65.627-1.243 1.11-1.742a5.086 5.086 0 0 1 7.4.064 5.174 5.174 0 0 1 1.079 1.762Zm-4.047-.78a1.706 1.706 0 0 0-.72-.143 1.794 1.794 0 0 0-1.344.554 2.614 2.614 0 0 0-.668 1.426h3.926a2.157 2.157 0 0 0-.599-1.406 1.72 1.72 0 0 0-.595-.432Zm84.317.78c.238.654.343 1.35.307 2.047a4.17 4.17 0 0 1-.078.812h-7.028c.002.4.096.792.275 1.149.084.165.189.318.314.455a1.962 1.962 0 0 0 1.541.594c.376.002.747-.09 1.08-.267.325-.169.579-.45.716-.792h2.945a3.92 3.92 0 0 1-.697 1.435 3.944 3.944 0 0 1-1.109.99c-.432.266-.902.46-1.394.575a6.331 6.331 0 0 1-1.217.119h-.678a5.14 5.14 0 0 1-3.469-1.596 5.23 5.23 0 0 1-1.438-3.563 5.211 5.211 0 0 1 .342-2.042 5.13 5.13 0 0 1 2.808-2.906 5.084 5.084 0 0 1 4.022.035 5.13 5.13 0 0 1 1.679 1.193 5.168 5.168 0 0 1 1.079 1.762Zm-4.047-.78a1.707 1.707 0 0 0-.72-.143 1.79 1.79 0 0 0-1.384.545c-.37.39-.608.89-.678 1.425h3.927a2.159 2.159 0 0 0-.55-1.396 1.715 1.715 0 0 0-.595-.432Z" clip-rule="evenodd"/>
</svg>
