<svg width="200" height="84" viewBox="0 0 200 84" fill="none" xmlns="http://www.w3.org/2000/svg">
<g clip-path="url(#clip0_128_1813)">
<path fill-rule="evenodd" clip-rule="evenodd" d="M56.9443 24C67.4071 24 75.8887 32.0588 75.8887 42C75.8887 51.9412 67.4071 60 56.9443 60C46.4816 60 38 51.9412 38 42C38 32.0588 46.4816 24 56.9443 24ZM64.8363 44.4986C64.1055 47.0642 62.2766 49.2008 59.8579 50.4253C58.541 51.0919 57.0496 51.4878 55.4655 51.5353C56.0241 51.6254 56.5978 51.6729 57.1835 51.6729C58.6677 51.6729 60.0779 51.3711 61.3496 50.8282C61.4359 50.7835 61.5258 50.744 61.6178 50.7094C61.8858 50.6093 62.1776 50.5534 62.4829 50.5534C63.7216 50.5534 64.7368 51.4594 64.8363 52.6116V44.4986ZM55.1089 33.5194C53.3682 33.5194 51.7439 33.9937 50.3705 34.8127C47.8558 36.3127 46.1839 38.9705 46.1839 42C46.1839 45.0295 47.8558 47.6873 50.3705 49.1873C51.7439 50.0063 53.3682 50.4806 55.1089 50.4806C55.7488 50.4806 56.373 50.4161 56.9744 50.2945C52.9405 49.4796 49.9142 46.0756 49.9142 42C49.9142 37.9244 52.9405 34.5206 56.9744 33.7055C56.373 33.5839 55.7488 33.5194 55.1089 33.5194ZM64.8364 31.3882C64.7369 32.5407 63.7217 33.4467 62.483 33.4467C62.1777 33.4467 61.8859 33.3911 61.6179 33.2907C61.5256 33.2559 61.4357 33.2164 61.3497 33.1717C60.0777 32.6288 58.6678 32.327 57.1836 32.327C56.5979 32.327 56.024 32.3744 55.4656 32.4648C57.0497 32.5123 58.5411 32.9082 59.858 33.5746C62.2767 34.799 64.1054 36.9357 64.8364 39.5015V31.3882Z" fill="black"/>
<path fill-rule="evenodd" clip-rule="evenodd" d="M108.23 49.6234V34.3635C108.23 34.0993 108.165 33.897 108.035 33.7561C107.905 33.6153 107.674 33.5017 107.34 33.4127V32.9905H113.26V33.4127C112.926 33.492 112.694 33.6044 112.564 33.7495C112.434 33.8947 112.369 34.0993 112.369 34.3635V49.6234C112.369 49.8962 112.437 50.1051 112.571 50.2503C112.706 50.3954 112.935 50.5081 113.26 50.5871V51.0096H107.34V50.5871C107.674 50.4992 107.905 50.3847 108.035 50.2437C108.165 50.1029 108.23 49.8962 108.23 49.6234Z" fill="black"/>
<path fill-rule="evenodd" clip-rule="evenodd" d="M144.833 38.6669V49.6234C144.833 49.8962 144.897 50.1031 145.027 50.2439C145.157 50.3847 145.388 50.4994 145.722 50.5871V51.0096H140.15V50.5871C140.485 50.4994 140.716 50.3847 140.846 50.2439C140.976 50.1031 141.041 49.8962 141.041 49.6234V34.3637C141.041 34.0996 140.976 33.897 140.846 33.7561C140.716 33.6153 140.485 33.5017 140.15 33.4127V32.9905H146.598V33.4127C146.199 33.5104 146.001 33.7127 146.001 34.0203C146.001 34.2315 146.129 34.4643 146.389 34.7198L156.85 45.0558V34.3637C156.85 34.0996 156.785 33.897 156.656 33.7561C156.526 33.6153 156.295 33.5017 155.961 33.4127V32.9905H161.532V33.4127C161.199 33.5017 160.968 33.6153 160.838 33.7561C160.708 33.897 160.643 34.0996 160.643 34.3637V49.6234C160.643 49.8962 160.708 50.1031 160.838 50.2439C160.968 50.3847 161.199 50.4994 161.532 50.5871V51.0096H155.559V50.5871C155.947 50.5081 156.143 50.3186 156.143 50.0195C156.143 49.8432 155.914 49.5357 155.461 49.0949L144.833 38.6669Z" fill="black"/>
<path fill-rule="evenodd" clip-rule="evenodd" d="M137.558 50.1583C137.326 49.943 137.057 49.54 136.752 48.9499L129.527 35.0633C129.351 34.7371 129.263 34.4471 129.263 34.1915C129.263 33.8222 129.537 33.5624 130.083 33.4127V32.9905H123.359V33.4127C123.895 33.5894 124.164 33.8797 124.164 34.2844C124.164 34.5488 124.054 34.9006 123.831 35.3404L116.857 49.1882C116.607 49.6981 116.385 50.0413 116.19 50.218C115.995 50.3934 115.712 50.5167 115.342 50.5873V51.0096H121.615V50.5873C120.996 50.4376 120.686 50.1692 120.686 49.7815C120.686 49.5789 120.774 49.3018 120.95 48.9499L126.579 37.529L132.149 48.9499C132.335 49.3115 132.427 49.5834 132.427 49.7685C132.427 50.218 132.12 50.4908 131.507 50.5873V51.0096H138.489V50.5873C138.099 50.5167 137.789 50.3738 137.558 50.1583Z" fill="black"/>
<path fill-rule="evenodd" clip-rule="evenodd" d="M101.764 44.8843L104.466 48.728L104.096 48.9717C103.83 48.7371 103.612 48.6197 103.442 48.6197C103.271 48.6197 102.793 48.8363 102.006 49.2697C100.375 50.1632 99.0032 50.766 97.8894 51.0777C96.7757 51.3888 95.4512 51.5446 93.9156 51.5446C90.8536 51.5446 88.342 50.8555 86.3799 49.4778C85.2232 48.676 84.3131 47.6809 83.6498 46.4919C82.882 45.1323 82.498 43.6326 82.498 41.9932C82.498 39.7598 83.1851 37.819 84.5596 36.1707C86.6261 33.6939 89.7495 32.4553 93.9299 32.4553C95.4653 32.4553 96.7827 32.6086 97.8825 32.9148C98.9819 33.221 100.356 33.8247 102.006 34.725C102.793 35.1486 103.271 35.3599 103.442 35.3599C103.612 35.3599 103.83 35.2431 104.096 35.0089L104.466 35.252L101.764 39.1023L101.38 38.8599C101.399 38.7164 101.409 38.5955 101.409 38.4965C101.409 38.2364 101.29 37.9921 101.053 37.7631C100.816 37.5346 100.394 37.2587 99.7877 36.9354C98.1101 36.0383 96.3325 35.5897 94.4558 35.5897C92.2377 35.5897 90.4697 36.1162 89.1523 37.1685C87.5976 38.4013 86.8205 40.0119 86.8205 42C86.8205 43.9885 87.5976 45.5988 89.1523 46.8315C90.4697 47.8842 92.2377 48.4102 94.4558 48.4102C96.3325 48.4102 98.1101 47.9601 99.7877 47.0593C100.394 46.7352 100.816 46.4583 101.053 46.2287C101.29 45.9988 101.409 45.7535 101.409 45.4923C101.409 45.3933 101.399 45.2763 101.38 45.1412L101.764 44.8843Z" fill="black"/>
</g>
<defs>
<clipPath id="clip0_128_1813">
<rect width="124" height="36" fill="white" transform="translate(38 24)"/>
</clipPath>
</defs>
</svg>
