<svg width="200" height="84" viewBox="0 0 200 84" fill="none" xmlns="http://www.w3.org/2000/svg">
<path fill-rule="evenodd" clip-rule="evenodd" d="M29.2253 30.6878C29.963 30.6878 30.6705 30.3957 31.1922 29.8756C31.7138 29.3556 32.0069 28.6503 32.0069 27.9148C32.0069 27.1793 31.7138 26.474 31.1922 25.954C30.6705 25.4339 29.963 25.1418 29.2253 25.1418C28.4876 25.1418 27.7801 25.4339 27.2584 25.954C26.7368 26.474 26.4437 27.1793 26.4437 27.9148C26.4437 28.6503 26.7368 29.3556 27.2584 29.8756C27.7801 30.3957 28.4876 30.6878 29.2253 30.6878ZM29.2253 32.3423C30.1558 32.3423 31.0207 32.0568 31.7342 31.5686L36.7774 36.5963C36.0016 37.6938 35.5865 39.0041 35.589 40.3466C35.589 41.5129 35.8958 42.6071 36.4334 43.5543L28.6907 51.2741C27.6759 50.4894 26.402 50.1139 25.1223 50.2225C23.8426 50.3311 22.6507 50.9156 21.7835 51.86C20.9162 52.8044 20.4372 54.0395 20.4414 55.3199C20.4457 56.6003 20.933 57.8322 21.8066 58.7709C22.6801 59.7095 23.8758 60.2861 25.1563 60.3862C26.4367 60.4862 27.708 60.1024 28.7175 59.311C29.7271 58.5195 30.401 57.3783 30.6054 56.1142C30.8097 54.8501 30.5295 53.5557 29.8205 52.4882L37.4401 44.892C38.0489 45.5179 38.7779 46.0152 39.5835 46.3546C40.3891 46.6939 41.2549 46.8682 42.1295 46.867C43.53 46.867 44.827 46.4286 45.8914 45.6813L49.4324 49.2114C48.8059 50.1196 48.5418 51.2282 48.6916 52.3204C48.8416 53.4125 49.3947 54.4096 50.243 55.1166C51.0912 55.8237 52.1735 56.19 53.2782 56.1437C54.383 56.0973 55.4307 55.6419 56.2165 54.8664C57.0021 54.0908 57.4695 53.0509 57.527 51.9501C57.5843 50.8493 57.2279 49.7668 56.5271 48.914C55.8264 48.0614 54.8318 47.5 53.7379 47.3397C52.644 47.1793 51.5293 47.4316 50.6121 48.047L47.118 44.5636C48.122 43.3868 48.6723 41.8916 48.67 40.3466C48.6711 39.4747 48.4963 38.6116 48.1559 37.8084C47.8156 37.0053 47.3167 36.2787 46.6889 35.6716L50.4792 31.8931C51.1811 32.2857 52.0026 32.4097 52.7898 32.2419C53.5769 32.0741 54.2756 31.6259 54.7551 30.9814C55.2346 30.3368 55.462 29.5401 55.3946 28.7405C55.3271 27.9408 54.9697 27.1931 54.389 26.6374C53.8083 26.0817 53.0444 25.756 52.2402 25.7215C51.4361 25.687 50.6467 25.9459 50.0203 26.4498C49.3939 26.9537 48.9732 27.668 48.8371 28.4589C48.701 29.2498 48.8587 30.063 49.2809 30.7463L45.346 34.6681C44.3647 34.1145 43.256 33.8244 42.1286 33.8262C40.5158 33.8262 39.0381 34.4079 37.8975 35.3736L32.9031 30.3945C33.458 29.5759 33.7222 28.5957 33.6538 27.61C33.5853 26.6243 33.1882 25.6898 32.5255 24.9552C31.8627 24.2205 30.9725 23.728 29.9966 23.5559C29.0207 23.3839 28.015 23.5422 27.1398 24.0057C26.2645 24.4692 25.5699 25.2113 25.1666 26.1138C24.7632 27.0163 24.6742 28.0274 24.9138 28.9861C25.1534 29.9448 25.7078 30.7961 26.4887 31.4045C27.2697 32.0128 28.2323 32.3433 29.2233 32.3433L29.2253 32.3423ZM53.7494 29.0168C53.7494 29.2327 53.7068 29.4464 53.6239 29.6458C53.541 29.8453 53.4195 30.0265 53.2665 30.1791C53.1134 30.3317 52.9316 30.4528 52.7315 30.5354C52.5315 30.618 52.3171 30.6605 52.1006 30.6605C51.884 30.6605 51.6696 30.618 51.4695 30.5354C51.2696 30.4528 51.0878 30.3317 50.9347 30.1791C50.7816 30.0265 50.6601 29.8453 50.5773 29.6458C50.4944 29.4464 50.4517 29.2327 50.4517 29.0168C50.4517 28.5808 50.6255 28.1628 50.9347 27.8545C51.2439 27.5462 51.6632 27.3731 52.1006 27.3731C52.5378 27.3731 52.9572 27.5462 53.2665 27.8545C53.5757 28.1628 53.7494 28.5808 53.7494 29.0168ZM53.0917 54.4934C53.8293 54.4934 54.5369 54.2011 55.0585 53.6811C55.5802 53.1611 55.8732 52.4558 55.8732 51.7203C55.8732 50.9849 55.5802 50.2795 55.0585 49.7595C54.5369 49.2394 53.8293 48.9473 53.0917 48.9473C52.3539 48.9473 51.6464 49.2394 51.1247 49.7595C50.6031 50.2795 50.3101 50.9849 50.3101 51.7203C50.3101 52.4558 50.6031 53.1611 51.1247 53.6811C51.6464 54.2011 52.3539 54.4934 53.0917 54.4934ZM25.5533 58.7455C26.4697 58.7455 27.3485 58.3826 27.9964 57.7367C28.6443 57.0907 29.0083 56.2146 29.0083 55.3011C29.0083 54.3876 28.6443 53.5116 27.9964 52.8656C27.3485 52.2197 26.4697 51.8568 25.5533 51.8568C24.637 51.8568 23.7582 52.2197 23.1103 52.8656C22.4624 53.5116 22.0983 54.3876 22.0983 55.3011C22.0983 56.2146 22.4624 57.0907 23.1103 57.7367C23.7582 58.3826 24.637 58.7455 25.5533 58.7455ZM47.0094 40.3466C47.0187 40.9914 46.8991 41.6315 46.658 42.2298C46.4169 42.8281 46.0588 43.3727 45.6047 43.8318C45.1506 44.291 44.6095 44.6555 44.0128 44.9044C43.4162 45.1533 42.7757 45.2815 42.129 45.2815C41.4822 45.2815 40.8419 45.1533 40.2452 44.9044C39.6485 44.6555 39.1074 44.291 38.6533 43.8318C38.1992 43.3727 37.8412 42.8281 37.6 42.2298C37.3588 41.6315 37.2394 40.9914 37.2485 40.3466C37.2667 39.0681 37.7888 37.8482 38.7021 36.9505C39.6154 36.0528 40.8464 35.5496 42.129 35.5496C43.4115 35.5496 44.6426 36.0528 45.5558 36.9505C46.4691 37.8482 46.9914 39.0681 47.0094 40.3466Z" fill="black"/>
<path fill-rule="evenodd" clip-rule="evenodd" d="M50.4781 31.8931C51.1802 32.2857 52.0017 32.4097 52.7888 32.2419C53.576 32.074 54.2747 31.6259 54.7542 30.9813C55.2337 30.3368 55.461 29.5401 55.3936 28.7404C55.3262 27.9408 54.9687 27.1931 54.3881 26.6373C53.8074 26.0816 53.0434 25.756 52.2392 25.7214C51.435 25.6869 50.6458 25.9458 50.0194 26.4497C49.3929 26.9536 48.9723 27.6679 48.8361 28.4588C48.7 29.2497 48.8578 30.063 49.2798 30.7462L45.3451 34.668C44.3637 34.1144 43.2551 33.8243 42.1275 33.8262C40.5149 33.8262 39.0371 34.4079 37.8965 35.3735L32.9022 30.3945C33.5211 29.4811 33.776 28.3703 33.6169 27.2795C33.4578 26.1886 32.8964 25.1962 32.0422 24.4961C31.1881 23.7961 30.1028 23.4389 28.9985 23.4944C27.8942 23.5498 26.8503 24.014 26.0711 24.796C25.2919 25.578 24.8333 26.6217 24.785 27.723C24.7367 28.8242 25.1023 29.9038 25.8101 30.7506C26.518 31.5975 27.5172 32.1506 28.6124 32.3019C29.7077 32.4531 30.8201 32.1917 31.7323 31.5686L36.7755 36.5963C35.9998 37.6938 35.5845 39.0041 35.587 40.3466C35.587 41.5129 35.8939 42.6072 36.4314 43.5542L28.6887 51.274C27.6739 50.4893 26.4001 50.1139 25.1204 50.2225C23.8406 50.331 22.6488 50.9156 21.7815 51.8599C20.9143 52.8043 20.4352 54.0395 20.4395 55.3199C20.4438 56.6003 20.9311 57.8322 21.8046 58.7708C22.6781 59.7094 23.8739 60.2861 25.1543 60.3862C26.4347 60.4862 27.706 60.1024 28.7156 59.3109C29.7251 58.5194 30.3991 57.3782 30.6034 56.1141C30.8078 54.8502 30.5276 53.5557 29.8186 52.4881L37.4381 44.892C38.0469 45.518 38.7758 46.0154 39.5814 46.3547C40.3871 46.6939 41.2529 46.8683 42.1275 46.867C43.5281 46.867 44.825 46.4285 45.8894 45.6812L49.4304 49.2113C48.8039 50.1196 48.5398 51.2282 48.6896 52.3203C48.8396 53.4125 49.3928 54.4095 50.241 55.1166C51.0892 55.8237 52.1716 56.1899 53.2764 56.1436C54.3811 56.0973 55.4287 55.6419 56.2145 54.8663C57.0002 54.0908 57.4675 53.0509 57.525 51.9501C57.5825 50.8492 57.226 49.7667 56.5252 48.9141C55.8245 48.0614 54.8299 47.5 53.7359 47.3396C52.642 47.1793 51.5274 47.4315 50.6101 48.047L47.116 44.5636C48.12 43.3868 48.6703 41.8916 48.668 40.3466C48.6692 39.4747 48.4945 38.6115 48.1542 37.8084C47.8139 37.0053 47.3149 36.2785 46.6869 35.6716L50.4781 31.8931ZM32.0049 27.9147C32.0049 28.6502 31.7119 29.3555 31.1902 29.8756C30.6686 30.3956 29.9611 30.6878 29.2233 30.6878C28.4856 30.6878 27.7781 30.3956 27.2565 29.8756C26.7348 29.3555 26.4418 28.6502 26.4418 27.9147C26.4418 27.1793 26.7348 26.474 27.2565 25.9539C27.7781 25.4339 28.4856 25.1417 29.2233 25.1417C29.9611 25.1417 30.6686 25.4339 31.1902 25.9539C31.7119 26.474 32.0049 27.1793 32.0049 27.9147ZM52.0996 30.6605C52.5369 30.6605 52.9562 30.4873 53.2654 30.1791C53.5747 29.8708 53.7484 29.4527 53.7484 29.0167C53.7484 28.5808 53.5747 28.1627 53.2654 27.8544C52.9562 27.5462 52.5369 27.373 52.0996 27.373C51.6623 27.373 51.2429 27.5462 50.9337 27.8544C50.6244 28.1627 50.4508 28.5808 50.4508 29.0167C50.4508 29.4527 50.6244 29.8708 50.9337 30.1791C51.2429 30.4873 51.6623 30.6605 52.0996 30.6605ZM55.8722 51.7203C55.8791 52.0888 55.8124 52.4549 55.6757 52.7973C55.539 53.1398 55.3353 53.4517 55.0764 53.7147C54.8174 53.9776 54.5085 54.1866 54.1676 54.3292C53.8268 54.4718 53.4608 54.5453 53.0911 54.5453C52.7214 54.5453 52.3555 54.4718 52.0146 54.3292C51.6737 54.1866 51.3648 53.9776 51.1059 53.7147C50.847 53.4517 50.6432 53.1398 50.5065 52.7973C50.37 52.4549 50.3031 52.0888 50.31 51.7203C50.3236 50.994 50.6227 50.302 51.1428 49.7932C51.6628 49.2844 52.3625 48.9992 53.0911 48.9992C53.8198 48.9992 54.5194 49.2844 55.0394 49.7932C55.5596 50.302 55.8586 50.994 55.8722 51.7203ZM29.0074 55.302C29.0074 56.2156 28.6434 57.0916 27.9954 57.7376C27.3475 58.3835 26.4687 58.7464 25.5524 58.7464C24.636 58.7464 23.7573 58.3835 23.1093 57.7376C22.4614 57.0916 22.0974 56.2156 22.0974 55.302C22.0974 54.3886 22.4614 53.5125 23.1093 52.8665C23.7573 52.2206 24.636 51.8577 25.5524 51.8577C26.4687 51.8577 27.3475 52.2206 27.9954 52.8665C28.6434 53.5125 29.0074 54.3886 29.0074 55.302ZM42.1285 45.2125C43.423 45.2125 44.6645 44.6999 45.5798 43.7873C46.4953 42.8748 47.0095 41.6371 47.0095 40.3466C47.0095 39.0561 46.4953 37.8185 45.5798 36.9059C44.6645 35.9933 43.423 35.4806 42.1285 35.4806C40.834 35.4806 39.5924 35.9933 38.6771 36.9059C37.7618 37.8185 37.2475 39.0561 37.2475 40.3466C37.2475 41.6371 37.7618 42.8748 38.6771 43.7873C39.5924 44.6999 40.834 45.2125 42.1285 45.2125Z" fill="black"/>
<path d="M72.1623 39.0771H70.2447C69.3181 39.0771 68.6028 38.8315 68.0984 38.3404C67.5941 37.8493 67.3419 37.1419 67.3419 36.2183V30.6586C67.3419 29.7349 67.5941 29.0275 68.0984 28.5364C68.6028 28.0453 69.3181 27.7998 70.2447 27.7998H72.1623C73.0772 27.7998 73.7867 28.0512 74.291 28.554C74.8071 29.045 75.065 29.7466 75.065 30.6586V31.4829C75.065 31.7401 74.9361 31.8687 74.678 31.8687H73.2003C72.954 31.8687 72.8309 31.7401 72.8309 31.4829V30.7638C72.8309 30.3896 72.7487 30.1266 72.5846 29.9746C72.4321 29.8109 72.1681 29.729 71.7929 29.729H70.5966C70.233 29.729 69.9691 29.8109 69.8049 29.9746C69.6524 30.1266 69.5762 30.3896 69.5762 30.7638V36.1131C69.5762 36.4872 69.6524 36.7561 69.8049 36.9198C69.9691 37.0718 70.233 37.1478 70.5966 37.1478H71.7929C72.1681 37.1478 72.4321 37.0718 72.5846 36.9198C72.7487 36.7561 72.8309 36.4872 72.8309 36.1131V35.3939C72.8309 35.1367 72.954 35.0081 73.2003 35.0081H74.678C74.9361 35.0081 75.065 35.1367 75.065 35.3939V36.2183C75.065 37.1303 74.8071 37.8377 74.291 38.3404C73.7867 38.8315 73.0772 39.0771 72.1623 39.0771ZM81.8226 37.1478H83.0716C83.447 37.1478 83.7109 37.0718 83.8633 36.9198C84.0276 36.7561 84.1096 36.4872 84.1096 36.1131V30.7638C84.1096 30.3896 84.0276 30.1266 83.8633 29.9746C83.7109 29.8109 83.447 29.729 83.0716 29.729H81.8226C81.4473 29.729 81.1834 29.8109 81.0309 29.9746C80.8784 30.1266 80.8022 30.3896 80.8022 30.7638V36.1131C80.8022 36.4872 80.8784 36.7561 81.0309 36.9198C81.1834 37.0718 81.4473 37.1478 81.8226 37.1478ZM83.4411 39.0771H81.4708C80.5442 39.0771 79.8288 38.8315 79.3245 38.3404C78.8201 37.8493 78.5679 37.1419 78.5679 36.2183V30.6586C78.5679 29.7349 78.8201 29.0275 79.3245 28.5364C79.8288 28.0453 80.5442 27.7998 81.4708 27.7998H83.4411C84.3677 27.7998 85.0831 28.0453 85.5874 28.5364C86.0917 29.0275 86.3439 29.7349 86.3439 30.6586V36.2183C86.3439 37.1419 86.0917 37.8493 85.5874 38.3404C85.0831 38.8315 84.3677 39.0771 83.4411 39.0771ZM97.7215 27.7998H100.325C100.571 27.7998 100.695 27.9226 100.695 28.1681V38.7087C100.695 38.9543 100.571 39.0771 100.325 39.0771H98.8825C98.6362 39.0771 98.5131 38.9543 98.5131 38.7087V30.3955H98.4428L96.6482 36.2709C96.5779 36.5047 96.4312 36.6217 96.2085 36.6217H94.7306C94.5079 36.6217 94.3612 36.5047 94.2909 36.2709L92.4612 30.378H92.3909V38.7087C92.3909 38.8491 92.3674 38.9484 92.3205 39.0069C92.2736 39.0537 92.1738 39.0771 92.0215 39.0771H90.5788C90.3325 39.0771 90.2093 38.9543 90.2093 38.7087V28.1681C90.2093 27.9226 90.3325 27.7998 90.5788 27.7998H93.2001C93.3643 27.7998 93.4757 27.8816 93.5343 28.0453L95.3992 34.2364H95.5048L97.3872 28.0453C97.4223 27.8816 97.5337 27.7998 97.7215 27.7998ZM106.599 39.0771H105.103C104.857 39.0771 104.734 38.9543 104.734 38.7087V28.1681C104.734 27.9226 104.857 27.7998 105.103 27.7998H109.396C110.311 27.7998 111.02 28.0512 111.525 28.554C112.029 29.045 112.281 29.7466 112.281 30.6586V32.3423C112.281 33.2543 112.029 33.9616 111.525 34.4644C111.02 34.9555 110.311 35.2011 109.396 35.2011H107.179C107.039 35.2011 106.968 35.2653 106.968 35.3939V38.7087C106.968 38.9543 106.845 39.0771 106.599 39.0771ZM107.162 33.2543H109.027C109.402 33.2543 109.666 33.1783 109.818 33.0263C109.971 32.8626 110.047 32.5995 110.047 32.237V30.7638C110.047 30.3896 109.971 30.1266 109.818 29.9746C109.666 29.8109 109.402 29.729 109.027 29.729H107.162C107.033 29.729 106.968 29.7933 106.968 29.922V33.0613C106.968 33.19 107.033 33.2543 107.162 33.2543ZM118.901 37.1478H120.15C120.525 37.1478 120.789 37.0718 120.942 36.9198C121.106 36.7561 121.188 36.4872 121.188 36.1131V30.7638C121.188 30.3896 121.106 30.1266 120.942 29.9746C120.789 29.8109 120.525 29.729 120.15 29.729H118.901C118.526 29.729 118.262 29.8109 118.109 29.9746C117.957 30.1266 117.881 30.3896 117.881 30.7638V36.1131C117.881 36.4872 117.957 36.7561 118.109 36.9198C118.262 37.0718 118.526 37.1478 118.901 37.1478ZM120.519 39.0771H118.549C117.623 39.0771 116.907 38.8315 116.403 38.3404C115.899 37.8493 115.646 37.1419 115.646 36.2183V30.6586C115.646 29.7349 115.899 29.0275 116.403 28.5364C116.907 28.0453 117.623 27.7998 118.549 27.7998H120.519C121.446 27.7998 122.161 28.0453 122.666 28.5364C123.17 29.0275 123.422 29.7349 123.422 30.6586V36.2183C123.422 37.1419 123.17 37.8493 122.666 38.3404C122.161 38.8315 121.446 39.0771 120.519 39.0771ZM127.007 36.2007V35.8499C127.007 35.6044 127.13 35.4817 127.377 35.4817H128.872C129.118 35.4817 129.242 35.6044 129.242 35.8499V35.9903C129.242 36.4346 129.329 36.7386 129.505 36.9023C129.681 37.0659 130.004 37.1478 130.473 37.1478H131.3C131.757 37.1478 132.074 37.0601 132.25 36.8847C132.437 36.7093 132.531 36.3819 132.531 35.9026V35.6921C132.538 35.5374 132.502 35.3838 132.427 35.248C132.353 35.112 132.243 34.9988 132.109 34.9204C131.839 34.7333 131.499 34.6223 131.089 34.5872C130.678 34.5521 130.232 34.4878 129.752 34.3943C129.282 34.289 128.843 34.1604 128.432 34.0084C128.022 33.8447 127.676 33.5349 127.394 33.0789C127.124 32.6112 126.99 32.0149 126.99 31.29V30.6761C126.99 29.7641 127.248 29.0567 127.764 28.554C128.28 28.0512 128.995 27.7998 129.91 27.7998H131.669C132.596 27.7998 133.317 28.0512 133.833 28.554C134.349 29.0567 134.607 29.7641 134.607 30.6761V31.0093C134.607 31.2549 134.484 31.3776 134.238 31.3776H132.742C132.496 31.3776 132.373 31.2549 132.373 31.0093V30.9041C132.373 30.4481 132.285 30.1383 132.109 29.9746C131.933 29.8109 131.611 29.729 131.142 29.729H130.455C129.975 29.729 129.646 29.8226 129.47 30.0096C129.306 30.185 129.224 30.5358 129.224 31.062V31.3952C129.224 31.9447 129.705 32.2604 130.667 32.3423C131.663 32.4241 132.549 32.6229 133.323 32.9386C133.733 33.114 134.074 33.4296 134.343 33.8856C134.625 34.33 134.766 34.9029 134.766 35.6044V36.2007C134.766 37.1127 134.507 37.8201 133.992 38.3229C133.475 38.8257 132.76 39.0771 131.845 39.0771H129.928C129.013 39.0771 128.297 38.8257 127.781 38.3229C127.265 37.8201 127.007 37.1127 127.007 36.2007ZM139.71 39.0771H138.021C137.81 39.0771 137.74 38.9543 137.81 38.7087L140.59 28.1681C140.672 27.9226 140.848 27.7998 141.117 27.7998H143.457C143.75 27.7998 143.926 27.9226 143.985 28.1681L146.765 38.7087C146.835 38.9543 146.765 39.0771 146.554 39.0771H144.865C144.736 39.0771 144.648 39.0537 144.6 39.0069C144.554 38.9484 144.518 38.8491 144.495 38.7087L144.003 36.7795H140.572L140.08 38.7087C140.056 38.8491 140.015 38.9484 139.956 39.0069C139.91 39.0537 139.828 39.0771 139.71 39.0771ZM142.261 29.922L140.994 34.9906H143.598L142.331 29.922H142.261ZM152.51 37.2179H154.48C154.868 37.2179 155.144 37.1419 155.308 36.9899C155.484 36.8263 155.572 36.5632 155.572 36.2007V35.1835C155.572 34.821 155.484 34.5638 155.308 34.4118C155.132 34.2598 154.845 34.1838 154.446 34.1838H152.51C152.382 34.1838 152.317 34.2481 152.317 34.3767V37.0251C152.317 37.1537 152.382 37.2179 152.51 37.2179ZM152.51 32.3773H154.305C154.68 32.3773 154.955 32.3013 155.132 32.1493C155.308 31.9856 155.396 31.7226 155.396 31.3601V30.6761C155.396 30.3136 155.308 30.0564 155.132 29.9044C154.967 29.7407 154.698 29.6589 154.322 29.6589H152.51C152.382 29.6589 152.317 29.7232 152.317 29.8518V32.1844C152.317 32.313 152.382 32.3773 152.51 32.3773ZM150.083 38.7087V28.1681C150.083 27.9226 150.205 27.7998 150.452 27.7998H154.674C155.601 27.7998 156.316 28.0453 156.821 28.5364C157.326 29.0275 157.577 29.729 157.577 30.641V31.3601C157.577 32.354 157.114 32.997 156.188 33.2893C156.657 33.3595 157.032 33.5524 157.314 33.8681C157.595 34.1721 157.735 34.6106 157.735 35.1835V36.2358C157.735 37.1478 157.484 37.8493 156.979 38.3404C156.475 38.8315 155.765 39.0771 154.851 39.0771H150.452C150.205 39.0771 150.083 38.9543 150.083 38.7087ZM167.759 39.0771H161.97C161.724 39.0771 161.601 38.9543 161.601 38.7087V28.1681C161.601 27.9226 161.724 27.7998 161.97 27.7998H163.466C163.712 27.7998 163.836 27.9226 163.836 28.1681V36.9373C163.836 37.0659 163.906 37.1303 164.047 37.1303H167.759C167.993 37.1303 168.111 37.2589 168.111 37.5161V38.7087C168.111 38.9543 167.993 39.0771 167.759 39.0771ZM177.385 39.0771H171.631C171.386 39.0771 171.262 38.9543 171.262 38.7087V28.1681C171.262 27.9226 171.386 27.7998 171.631 27.7998H177.385C177.619 27.7998 177.736 27.9226 177.736 28.1681V29.3607C177.736 29.6063 177.619 29.729 177.385 29.729H173.707C173.567 29.729 173.497 29.7933 173.497 29.922V32.202C173.497 32.3306 173.567 32.3949 173.707 32.3949H176.716C176.962 32.3949 177.086 32.5176 177.086 32.7632V33.9558C177.086 34.2013 176.962 34.3241 176.716 34.3241H173.707C173.567 34.3241 173.497 34.3884 173.497 34.517V36.9549C173.497 37.0835 173.567 37.1478 173.707 37.1478H177.385C177.619 37.1478 177.736 37.2706 177.736 37.5161V38.7087C177.736 38.9543 177.619 39.0771 177.385 39.0771ZM67.2363 53.7392V53.3884C67.2363 53.1429 67.3595 53.0201 67.6059 53.0201H69.1012C69.3475 53.0201 69.4706 53.1429 69.4706 53.3884V53.5287C69.4706 53.9731 69.5586 54.2771 69.7346 54.4407C69.9105 54.6044 70.233 54.6863 70.7022 54.6863H71.529C71.9863 54.6863 72.303 54.5986 72.479 54.4232C72.6666 54.2478 72.7605 53.9204 72.7605 53.4411V53.2306C72.7669 53.0759 72.731 52.9224 72.6567 52.7864C72.5823 52.6504 72.4723 52.5372 72.3382 52.4589C72.0685 52.2718 71.7284 52.1607 71.3179 52.1257C70.9074 52.0906 70.4617 52.0263 69.9809 51.9327C69.5117 51.8275 69.0718 51.6989 68.6613 51.5469C68.2509 51.3832 67.9049 51.0733 67.6234 50.6173C67.3536 50.1497 67.2188 49.5533 67.2188 48.8284V48.2146C67.2188 47.3026 67.4768 46.5952 67.9929 46.0924C68.509 45.5897 69.2243 45.3383 70.1392 45.3383H71.8984C72.8249 45.3383 73.5462 45.5897 74.0623 46.0924C74.5784 46.5952 74.8363 47.3026 74.8363 48.2146V48.5478C74.8363 48.7933 74.7132 48.9161 74.4669 48.9161H72.9716C72.7253 48.9161 72.6022 48.7933 72.6022 48.5478V48.4426C72.6022 47.9866 72.5142 47.6767 72.3382 47.5131C72.1623 47.3493 71.8398 47.2675 71.3706 47.2675H70.6846C70.2036 47.2675 69.8753 47.3611 69.6993 47.5481C69.5352 47.7235 69.453 48.0743 69.453 48.6004V48.9337C69.453 49.4832 69.934 49.7989 70.8956 49.8807C71.8925 49.9626 72.778 50.1613 73.5522 50.4771C73.9626 50.6524 74.3028 50.9681 74.5725 51.4241C74.854 51.8684 74.9947 52.4413 74.9947 53.1429V53.7392C74.9947 54.6512 74.7367 55.3586 74.2206 55.8613C73.7046 56.3641 72.9892 56.6155 72.0743 56.6155H70.1567C69.2419 56.6155 68.5265 56.3641 68.0105 55.8613C67.4944 55.3586 67.2363 54.6512 67.2363 53.7392ZM84.8827 56.6155H79.129C78.8827 56.6155 78.7596 56.4927 78.7596 56.2472V45.7066C78.7596 45.4611 78.8827 45.3383 79.129 45.3383H84.8817C85.1163 45.3383 85.2336 45.4611 85.2336 45.7066V46.8992C85.2336 47.1447 85.1163 47.2675 84.8817 47.2675H81.2049C81.0642 47.2675 80.9937 47.3318 80.9937 47.4604V49.7404C80.9937 49.8691 81.0642 49.9333 81.2049 49.9333H84.2132C84.4596 49.9333 84.5827 50.0561 84.5827 50.3017V51.4943C84.5827 51.7398 84.4596 51.8626 84.2132 51.8626H81.2049C81.0642 51.8626 80.9937 51.9269 80.9937 52.0555V54.4933C80.9937 54.6219 81.0642 54.6863 81.2049 54.6863H84.8817C85.1163 54.6863 85.2336 54.8091 85.2336 55.0546V56.2472C85.2336 56.4927 85.1173 56.6155 84.8827 56.6155ZM93.5823 56.6155H91.6646C90.7381 56.6155 90.0227 56.3699 89.5183 55.8789C89.014 55.3878 88.7619 54.6804 88.7619 53.7567V48.1971C88.7619 47.2733 89.014 46.5659 89.5183 46.0749C90.0227 45.5838 90.7381 45.3383 91.6646 45.3383H93.5823C94.4971 45.3383 95.2067 45.5897 95.711 46.0924C96.227 46.5835 96.485 47.2851 96.485 48.1971V49.0213C96.485 49.2786 96.3561 49.4072 96.098 49.4072H94.6202C94.3739 49.4072 94.2508 49.2786 94.2508 49.0213V48.3023C94.2508 47.9281 94.1687 47.6651 94.0045 47.5131C93.852 47.3493 93.5881 47.2675 93.2128 47.2675H92.0165C91.653 47.2675 91.389 47.3493 91.2249 47.5131C91.0724 47.6651 90.9962 47.9281 90.9962 48.3023V53.6515C90.9962 54.0257 91.0724 54.2946 91.2249 54.4583C91.389 54.6103 91.653 54.6863 92.0165 54.6863H93.2128C93.5881 54.6863 93.852 54.6103 94.0045 54.4583C94.1687 54.2946 94.2508 54.0257 94.2508 53.6515V52.9324C94.2508 52.6752 94.3739 52.5466 94.6202 52.5466H96.098C96.3561 52.5466 96.485 52.6752 96.485 52.9324V53.7567C96.485 54.6687 96.227 55.3761 95.711 55.8789C95.2067 56.3699 94.4971 56.6155 93.5823 56.6155ZM105.952 45.3383H107.43C107.688 45.3383 107.817 45.4552 107.817 45.6891V53.7567C107.817 54.6687 107.559 55.3761 107.043 55.8789C106.538 56.3699 105.829 56.6155 104.914 56.6155H102.979C102.052 56.6155 101.337 56.3699 100.832 55.8789C100.328 55.3878 100.076 54.6804 100.076 53.7567V45.7066C100.076 45.4611 100.199 45.3383 100.445 45.3383H101.941C102.187 45.3383 102.31 45.4611 102.31 45.7066V53.6515C102.31 54.0257 102.386 54.2946 102.539 54.4583C102.703 54.6103 102.967 54.6863 103.331 54.6863H104.544C104.92 54.6863 105.184 54.6103 105.336 54.4583C105.5 54.2946 105.582 54.0257 105.582 53.6515V45.7066C105.582 45.4611 105.706 45.3383 105.952 45.3383ZM113.632 56.6155H112.137C111.89 56.6155 111.767 56.4927 111.767 56.2472V45.7066C111.767 45.4611 111.89 45.3383 112.137 45.3383H116.324C117.238 45.3383 117.954 45.5897 118.47 46.0924C118.986 46.5952 119.244 47.3026 119.244 48.2146V49.5826C119.244 50.9038 118.722 51.7807 117.678 52.2133V52.2835L119.561 56.1946C119.666 56.4752 119.566 56.6155 119.262 56.6155H117.837C117.626 56.6155 117.473 56.5921 117.379 56.5453C117.285 56.4986 117.209 56.3992 117.151 56.2472L115.391 52.4589H114.213C114.072 52.4589 114.001 52.5232 114.001 52.6518V56.2472C114.001 56.4927 113.878 56.6155 113.632 56.6155ZM114.195 50.6699H115.919C116.294 50.6699 116.57 50.5939 116.746 50.4419C116.922 50.2783 117.01 50.0211 117.01 49.6703V48.3023C117.01 47.9398 116.922 47.6767 116.746 47.5131C116.57 47.3493 116.294 47.2675 115.919 47.2675H114.195C114.066 47.2675 114.001 47.3318 114.001 47.4604V50.4771C114.001 50.6057 114.066 50.6699 114.195 50.6699ZM125.47 45.7066V56.2472C125.47 56.4927 125.347 56.6155 125.1 56.6155H123.605C123.359 56.6155 123.236 56.4927 123.236 56.2472V45.7066C123.236 45.4611 123.359 45.3383 123.605 45.3383H125.1C125.347 45.3383 125.47 45.4611 125.47 45.7066ZM133.098 56.6155H131.62C131.362 56.6155 131.233 56.4927 131.233 56.2472V47.4604C131.233 47.3318 131.169 47.2675 131.04 47.2675H129.034C128.788 47.2675 128.665 47.1447 128.665 46.8992V45.7066C128.665 45.4611 128.788 45.3383 129.034 45.3383H135.684C135.931 45.3383 136.054 45.4611 136.054 45.7066V46.8992C136.054 47.1447 135.931 47.2675 135.684 47.2675H133.679C133.538 47.2675 133.468 47.3318 133.468 47.4604V56.2472C133.468 56.4927 133.344 56.6155 133.098 56.6155ZM143.307 56.6155H141.812C141.566 56.6155 141.443 56.4927 141.443 56.2472V52.4939L138.224 45.7241C138.177 45.6189 138.177 45.5312 138.224 45.4611C138.251 45.4215 138.288 45.3896 138.331 45.3681C138.374 45.3466 138.422 45.3364 138.47 45.3383H140.335C140.523 45.3383 140.663 45.4611 140.756 45.7066L142.516 49.9684H142.639L144.363 45.7066C144.445 45.4611 144.586 45.3383 144.786 45.3383H146.65C146.768 45.3383 146.85 45.3733 146.897 45.4435C146.955 45.5137 146.955 45.6072 146.897 45.7241L143.678 52.4939V56.2472C143.678 56.4927 143.554 56.6155 143.307 56.6155Z" fill="black"/>
</svg>
