<svg width="200" height="84" viewBox="0 0 200 84" fill="none" xmlns="http://www.w3.org/2000/svg">
<path d="M64.8955 30.2699V30.2117C64.8955 28.6407 65.9816 27.5352 67.4363 27.5352C68.6388 27.5352 69.5697 28.1364 69.6861 29.368H68.6969C68.5903 28.6698 68.2024 28.311 67.446 28.311C66.5247 28.311 65.9234 29.0286 65.9234 30.202V30.2602C65.9234 31.4433 66.4859 32.1318 67.4557 32.1318C68.183 32.1318 68.6969 31.7633 68.7939 31.0263H69.7443C69.5891 32.2869 68.6969 32.927 67.4557 32.927C65.8168 32.927 64.8955 31.8796 64.8955 30.2699Z" fill="black"/>
<path d="M70.7227 30.2709V30.2127C70.7227 28.6805 71.8185 27.5459 73.3701 27.5459C74.9217 27.5459 76.0078 28.6514 76.0078 30.1836V30.2418C76.0078 31.774 74.9605 32.9183 73.3701 32.9183C71.77 32.928 70.7227 31.7837 70.7227 30.2709ZM74.9993 30.2612V30.203C74.9993 29.1266 74.398 28.3314 73.3701 28.3314C72.3421 28.3314 71.7409 29.0878 71.7409 30.2127V30.2709C71.7409 31.4152 72.4391 32.1522 73.3895 32.1522C74.3786 32.1425 74.9993 31.3958 74.9993 30.2612Z" fill="black"/>
<path d="M77.2012 27.6235H78.3649L80.5662 31.4056V27.6235H81.4487V32.8602H80.4401L78.0836 28.8454V32.8602H77.2012V27.6235Z" fill="black"/>
<path d="M82.6992 31.2315H83.6399C83.7078 31.7552 83.9211 32.2013 84.8036 32.2013C85.3854 32.2013 85.7927 31.8813 85.7927 31.3964C85.7927 30.9115 85.5503 30.7272 84.7066 30.5915C83.4556 30.4266 82.8641 30.0387 82.8641 29.0593C82.8641 28.2059 83.5914 27.5562 84.6872 27.5562C85.8121 27.5562 86.491 28.0701 86.5879 29.069H85.6958C85.5988 28.5162 85.2885 28.2835 84.6872 28.2835C84.086 28.2835 83.7853 28.5647 83.7853 28.972C83.7853 29.3987 83.9599 29.612 84.8715 29.7381C86.103 29.903 86.7431 30.2618 86.7431 31.3091C86.7431 32.2207 85.977 32.9286 84.8133 32.9286C83.3683 32.9286 82.7671 32.2207 82.6992 31.2315Z" fill="black"/>
<path d="M87.9941 27.6235H91.2719V28.3896H88.9736V29.8249H90.8161V30.5619H88.9736V32.0941H91.398V32.8602H88.0038L87.9941 27.6235Z" fill="black"/>
<path d="M92.6396 27.6235H93.8034L96.0047 31.4056V27.6235H96.8872V32.8602H95.8786L93.5221 28.8454V32.8602H92.6396V27.6235Z" fill="black"/>
<path d="M98.1387 31.2315H99.0793C99.1472 31.7552 99.3606 32.2013 100.243 32.2013C100.825 32.2013 101.232 31.8813 101.232 31.3964C101.232 30.9115 100.99 30.7272 100.146 30.5915C98.8951 30.4266 98.3035 30.0387 98.3035 29.0593C98.3035 28.2059 99.0308 27.5562 100.127 27.5562C101.252 27.5562 101.93 28.0701 102.027 29.069H101.135C101.038 28.5162 100.728 28.2835 100.127 28.2835C99.5254 28.2835 99.2248 28.5647 99.2248 28.972C99.2248 29.3987 99.3993 29.612 100.311 29.7381C101.543 29.903 102.173 30.2618 102.173 31.3091C102.173 32.2207 101.407 32.9286 100.253 32.9286C98.8078 32.9286 98.2066 32.2207 98.1387 31.2315Z" fill="black"/>
<path d="M104.441 30.591L102.705 27.6235H103.782L104.965 29.7861L106.109 27.6235H107.059L105.42 30.591V32.8505H104.441V30.591Z" fill="black"/>
<path d="M107.603 31.2315H108.543C108.611 31.7552 108.824 32.2013 109.707 32.2013C110.289 32.2013 110.696 31.8813 110.696 31.3964C110.696 30.9115 110.454 30.7272 109.61 30.5915C108.359 30.4266 107.767 30.0387 107.767 29.0593C107.767 28.2059 108.495 27.5562 109.591 27.5562C110.715 27.5562 111.394 28.0701 111.491 29.069H110.599C110.502 28.5162 110.192 28.2835 109.591 28.2835C108.989 28.2835 108.689 28.5647 108.689 28.972C108.689 29.3987 108.863 29.612 109.775 29.7381C111.006 29.903 111.646 30.2618 111.646 31.3091C111.646 32.2207 110.88 32.9286 109.717 32.9286C108.281 32.9286 107.68 32.2207 107.603 31.2315Z" fill="black"/>
<path d="M65.293 37.1263C65.293 36.9614 65.4287 36.8257 65.5936 36.8257H71.8C78.7822 36.8257 82.2249 40.6077 82.2249 46.5523V46.7753C82.2249 52.7296 78.7531 56.7056 71.7709 56.7056H65.5936C65.4287 56.7056 65.293 56.5699 65.293 56.405V37.1263ZM71.6351 53.1951C75.6402 53.1951 77.5313 50.9453 77.5313 46.8335V46.6105C77.5313 42.5278 75.776 40.3265 71.5867 40.3265H69.8023V53.1951H71.6351Z" fill="black"/>
<path d="M83.6211 37.991C83.6211 36.74 84.6199 35.7993 85.9 35.7993C87.2092 35.7993 88.208 36.7497 88.208 37.991C88.208 39.2322 87.2092 40.1826 85.9 40.1826C84.6199 40.1923 83.6211 39.2419 83.6211 37.991ZM84.2223 42.1609H87.6262C87.791 42.1609 87.9268 42.2967 87.9268 42.4615V56.4066C87.9268 56.5714 87.791 56.7072 87.6262 56.7072H84.2223C84.0575 56.7072 83.9217 56.5714 83.9217 56.4066V42.4615C83.9217 42.2967 84.0575 42.1609 84.2223 42.1609Z" fill="black"/>
<path d="M91.0584 35.5742H94.4623C94.6271 35.5742 94.7629 35.71 94.7629 35.8748V56.4045C94.7629 56.5694 94.6271 56.7051 94.4623 56.7051H91.0584C90.8936 56.7051 90.7578 56.5694 90.7578 56.4045V35.8748C90.7578 35.71 90.8936 35.5742 91.0584 35.5742Z" fill="black"/>
<path d="M97.2656 37.991C97.2656 36.74 98.2645 35.7993 99.5445 35.7993C100.854 35.7993 101.853 36.7497 101.853 37.991C101.853 39.2322 100.854 40.1826 99.5445 40.1826C98.2645 40.1923 97.2656 39.2419 97.2656 37.991ZM97.8669 42.1609H101.271C101.436 42.1609 101.571 42.2967 101.571 42.4615V56.4066C101.571 56.5714 101.436 56.7072 101.271 56.7072H97.8669C97.702 56.7072 97.5662 56.5714 97.5662 56.4066V42.4615C97.5759 42.2967 97.702 42.1609 97.8669 42.1609Z" fill="black"/>
<path d="M103.957 57.0062H107.37C107.506 57.0062 107.622 57.0935 107.661 57.2293C107.971 58.3833 108.902 59.1203 110.832 59.1203C113.276 59.1203 114.498 57.8402 114.498 55.5613V53.3696C113.528 55.0279 111.753 56.0559 109.824 56.0656C106.294 56.0656 103.481 53.4278 103.481 49.1124V48.9185C103.481 44.7485 106.265 41.8296 109.872 41.8296C112.238 41.8296 113.654 42.8575 114.488 44.3316V42.4599C114.488 42.2951 114.624 42.1593 114.789 42.1593H118.193C118.357 42.1593 118.493 42.2951 118.493 42.4599V55.5613C118.464 59.867 115.603 62.0683 110.822 62.0683C106.313 62.0683 104.16 60.1676 103.646 57.365C103.617 57.2002 103.724 57.045 103.889 57.0159C103.918 57.0062 103.937 57.0062 103.957 57.0062ZM114.614 49.0542V48.8603C114.614 46.3874 113.305 44.8843 111.113 44.8843C108.864 44.8843 107.613 46.4941 107.613 48.8894V49.1124C107.613 51.5271 109.028 53.0302 111.036 53.0302C113.14 53.0302 114.614 51.5271 114.614 49.0542Z" fill="black"/>
<path d="M119.928 49.6167V49.3937C119.928 44.8067 123.176 41.8296 127.405 41.8296C131.157 41.8296 134.493 44.0212 134.493 49.2288V50.0434C134.493 50.2083 134.358 50.344 134.193 50.344H124.01C124.127 52.7587 125.426 54.1551 127.628 54.1551C129.373 54.1551 130.294 53.4472 130.605 52.3417C130.644 52.2156 130.76 52.1284 130.886 52.1284H134.106C134.27 52.1284 134.406 52.2641 134.406 52.429C134.406 52.4484 134.406 52.4678 134.396 52.4872C133.795 55.3964 131.332 57.0159 127.511 57.0159C123.118 57.0062 119.928 54.2521 119.928 49.6167ZM130.566 47.8615C130.43 45.6698 129.315 44.6128 127.395 44.6128C125.591 44.6128 124.369 45.8056 124.059 47.8615H130.566Z" fill="black"/>
<path d="M136.259 42.1593H139.692C139.856 42.1593 139.992 42.2951 139.992 42.4599V44.4673C140.71 43.0224 142.3 41.8296 144.715 41.8296C147.576 41.8296 149.612 43.5558 149.612 47.4445V56.405C149.612 56.5698 149.476 56.7056 149.312 56.7056H145.879C145.714 56.7056 145.578 56.5698 145.578 56.405V48.036C145.578 46.0577 144.802 45.1171 143.018 45.1171C141.292 45.1171 139.992 46.1741 139.992 48.3172V56.4147C139.992 56.5795 139.856 56.7153 139.692 56.7153H136.259C136.094 56.7153 135.958 56.5795 135.958 56.4147V42.4599C135.958 42.2951 136.094 42.1593 136.259 42.1593Z" fill="black"/>
<path d="M150.893 49.6167V49.3937C150.893 44.7001 154.258 41.8296 158.398 41.8296C161.667 41.8296 164.702 43.226 165.206 47.1341C165.226 47.299 165.109 47.4542 164.944 47.4736C164.935 47.4736 164.915 47.4736 164.906 47.4736H161.676C161.54 47.4736 161.414 47.3766 161.385 47.2408C161.056 45.7086 160.047 45.0007 158.486 45.0007C156.401 45.0007 155.014 46.562 155.014 49.3355V49.5585C155.014 52.4775 156.323 53.9806 158.573 53.9806C160.115 53.9806 161.376 53.1175 161.657 51.4204C161.676 51.275 161.802 51.178 161.948 51.178H165.002C165.167 51.178 165.303 51.3138 165.303 51.4786C165.303 51.4883 165.303 51.498 165.303 51.5077C164.944 54.7758 162.471 57.0159 158.379 57.0159C154.122 57.0062 150.893 54.3685 150.893 49.6167Z" fill="black"/>
<path d="M166.321 49.6167V49.3937C166.321 44.8067 169.57 41.8296 173.798 41.8296C177.551 41.8296 180.887 44.0212 180.887 49.2288V50.0434C180.887 50.2083 180.751 50.344 180.586 50.344H170.404C170.52 52.7587 171.82 54.1551 174.021 54.1551C175.767 54.1551 176.688 53.4472 176.998 52.3417C177.037 52.2156 177.153 52.1187 177.289 52.1284H180.509C180.674 52.1284 180.809 52.2641 180.809 52.429C180.809 52.4484 180.809 52.4678 180.8 52.4872C180.198 55.3964 177.735 57.0159 173.914 57.0159C169.521 57.0062 166.321 54.2521 166.321 49.6167ZM176.969 47.8615C176.833 45.6698 175.718 44.6128 173.798 44.6128C171.994 44.6128 170.772 45.8056 170.462 47.8615H176.969Z" fill="black"/>
<path d="M40.1075 21C28.5189 21 19.1123 30.4066 19.1123 41.9952C19.1123 53.5837 28.5189 63 40.1075 63C51.696 63 61.1123 53.5934 61.1123 41.9952C61.1123 30.3969 51.7057 21 40.1075 21ZM34.6477 53.4964C34.6477 53.6031 34.5605 53.6904 34.4538 53.6904H30.3614C30.2548 53.6904 30.1675 53.6031 30.1675 53.4964V37.6216C30.1675 37.5149 30.2548 37.4276 30.3614 37.4276H34.4538C34.5605 37.4276 34.6477 37.5149 34.6477 37.6216V53.4964ZM32.3979 35.2166C30.9724 35.2166 29.8475 34.1595 29.8475 32.7631C29.8475 31.3667 30.9724 30.3096 32.3979 30.3096C33.8622 30.3096 34.9775 31.3667 34.9775 32.7631C34.9775 34.1595 33.8622 35.2166 32.3979 35.2166ZM42.4058 53.4867C42.4058 53.5934 42.3185 53.6807 42.2118 53.6807H38.1195C38.0128 53.6807 37.9255 53.5934 37.9255 53.4867V30.5036C37.9255 30.3969 38.0128 30.3096 38.1195 30.3096H42.2118C42.3185 30.3096 42.4058 30.3969 42.4058 30.5036V53.4867ZM50.1541 53.4964C50.1541 53.6031 50.0668 53.6904 49.9601 53.6904H45.8775C45.7708 53.6904 45.6835 53.6031 45.6835 53.4964V37.6216C45.6835 37.5149 45.7708 37.4276 45.8775 37.4276H49.9698C50.0765 37.4276 50.1638 37.5149 50.1638 37.6216V53.4964H50.1541ZM50.3771 35.0323C50.3771 35.139 50.2899 35.2263 50.1832 35.2263H45.6641C45.5575 35.2263 45.4702 35.139 45.4702 35.0323V30.5036C45.4702 30.3969 45.5575 30.3096 45.6641 30.3096H50.1832C50.2899 30.3096 50.3771 30.3969 50.3771 30.5036V35.0323Z" fill="black"/>
</svg>
