<svg xmlns="http://www.w3.org/2000/svg" width="200" height="84" fill="none" viewBox="0 0 200 84">
  <path fill="#121212" fill-rule="evenodd" d="M56.3 37.108v4.538c0 9.19-7.283 16.64-16.268 16.64-8.986.001-16.27-7.45-16.27-16.64 0-9.19 7.284-16.64 16.27-16.64h4.437l-8.135 8.32v12.106h11.83l8.137-8.325Zm0-12.102H44.47v12.102H56.3V25.006Zm6.16 6.07c0-3.91 2.33-6.274 6.414-6.274 3.765 0 5.657 2.016 6.015 4.992H72.12c-.279-1.774-1.314-2.792-3.307-2.792-2.43 0-3.646 1.364-3.646 4.055 0 2.71 1.354 4.054 3.646 4.054 2.072 0 3.127-1.059 3.386-2.811h2.79c-.359 3.076-2.51 5.012-6.196 5.012-4.002 0-6.334-2.445-6.334-6.235Zm25.955-.06c0 3.87-2.39 6.296-6.294 6.296-3.685 0-6.294-2.18-6.294-6.215 0-3.87 2.39-6.296 6.294-6.296 3.684 0 6.294 2.18 6.294 6.215Zm-2.71.081c0-2.812-1.434-4.095-3.585-4.095-2.27 0-3.585 1.283-3.585 4.014 0 2.812 1.435 4.095 3.585 4.095 2.271 0 3.586-1.283 3.586-4.014Zm4.163-6.091h2.67v3.219c.677-2.14 2.011-3.424 4.442-3.424 2.749 0 4.303 1.67 4.303 4.564v7.74h-2.67v-7.352c0-1.956-.976-2.852-2.888-2.852-1.534 0-2.49.631-3.187 1.996v8.21h-2.67v-12.1Zm12.529 8.395h2.789c.22 1.202 1.136 1.773 3.167 1.773 2.092 0 2.809-.652 2.809-1.529 0-.652-.299-1.141-1.435-1.283l-3.425-.409c-2.609-.305-3.586-1.447-3.586-3.342 0-2.16 1.534-3.81 5.318-3.81 3.666 0 5.239 1.59 5.578 3.892h-2.769c-.16-1.06-.857-1.753-2.888-1.753-1.991 0-2.67.651-2.67 1.508 0 .712.378 1.141 1.435 1.263l3.565.427c2.589.306 3.446 1.569 3.446 3.403 0 2.16-1.613 3.77-5.439 3.77-3.902 0-5.596-1.487-5.895-3.91Zm18.526 3.91c-4.024 0-6.175-2.667-6.175-6.214 0-3.749 2.31-6.296 6.195-6.296 4.322 0 6.116 2.71 6.096 6.948h-9.582c.24 2.16 1.534 3.362 3.545 3.362 1.813 0 2.829-.712 3.227-1.915h2.729c-.598 2.486-2.668 4.116-6.035 4.116Zm-3.426-7.415h6.733c-.18-1.793-1.195-2.953-3.307-2.953-1.853-.002-3.088 1.016-3.426 2.953Zm10.855-4.89h2.669v3.219c.677-2.14 2.012-3.424 4.442-3.424 2.749 0 4.303 1.67 4.303 4.564v7.74h-2.668v-7.352c0-1.956-.976-2.852-2.888-2.852-1.534 0-2.49.631-3.187 1.996v8.21h-2.67v-12.1h-.001Zm12.53 8.395h2.789c.219 1.202 1.136 1.773 3.167 1.773 2.092 0 2.808-.652 2.808-1.529 0-.652-.299-1.141-1.435-1.283l-3.426-.409c-2.608-.305-3.586-1.447-3.586-3.342 0-2.16 1.534-3.81 5.318-3.81 3.666 0 5.24 1.59 5.578 3.892h-2.769c-.16-1.06-.857-1.753-2.888-1.753-1.991 0-2.67.651-2.67 1.508 0 .712.378 1.141 1.435 1.263l3.565.427c2.589.306 3.446 1.569 3.446 3.403 0 2.16-1.613 3.77-5.439 3.77-3.902 0-5.594-1.487-5.893-3.91Zm24.062-8.395-4.96 15.077h-6.474v-2.241h4.501l.657-2.057h-2.569l-3.884-10.78h2.948l3.566 10.594 3.426-10.593h2.789Zm-.041 8.395h2.789c.219 1.202 1.136 1.773 3.167 1.773 2.092 0 2.808-.652 2.808-1.529 0-.652-.299-1.141-1.435-1.283l-3.424-.409c-2.609-.305-3.586-1.447-3.586-3.342 0-2.16 1.534-3.81 5.318-3.81 3.665 0 5.239 1.59 5.578 3.892h-2.769c-.161-1.06-.857-1.753-2.888-1.753-1.992 0-2.67.651-2.67 1.508 0 .712.378 1.141 1.435 1.263l3.564.427c2.59.306 3.446 1.569 3.446 3.403 0 2.16-1.613 3.77-5.438 3.77-3.902 0-5.596-1.487-5.895-3.91Z" clip-rule="evenodd"/>
</svg>
