<svg xmlns="http://www.w3.org/2000/svg" width="200" height="84" fill="none" viewBox="0 0 200 84">
  <path fill="#000" fill-rule="evenodd" d="m42.573 30.437 5.568 9.771a3.615 3.615 0 0 1-.012 3.584l-5.567 9.771a2.855 2.855 0 0 1-1.035 1.05c-.43.253-.917.386-1.413.387H28.993a3.49 3.49 0 0 1-1.758-.48 3.552 3.552 0 0 1-1.288-1.305L20.38 43.43a2.906 2.906 0 0 1 0-2.874l5.567-9.771c.31-.542.753-.991 1.287-1.305A3.49 3.49 0 0 1 28.99 29h11.124c.498-.001.988.131 1.42.384.431.252.79.615 1.039 1.053ZM22.59 40.938l-.63 1.095c.194-.335.47-.613.803-.805.333-.193.71-.292 1.093-.29h9.285a1.05 1.05 0 0 0 .918-.537l5.278-9.274H28.112a2.36 2.36 0 0 1 1.87 1.06l2.51 4.42c.125.243.152.525.076.788a1.06 1.06 0 0 1-.481.623c-.234.137-.51.178-.773.113a1.049 1.049 0 0 1-.635-.46l-3.117-5.484-4.972 8.751Zm6.788 11.938h11.223a2.324 2.324 0 0 1-1.049-.296 2.363 2.363 0 0 1-.804-.744l-4.69-8.237a1.073 1.073 0 0 0-.388-.392 1.053 1.053 0 0 0-.53-.145H22.585l4.454 7.837a2.24 2.24 0 0 1-.094 2.012l.62-1.098 3.117-5.49a1.063 1.063 0 0 1 .637-.53 1.034 1.034 0 0 1 1.133.384 1.07 1.07 0 0 1 .044 1.21l-3.117 5.49Zm11.776-1.063 4.978-8.748-.003.003.632-1.101c-.194.335-.47.613-.803.805-.333.193-.71.293-1.093.29H39.88c-.279 0-.545-.112-.742-.311a1.071 1.071 0 0 1 0-1.504c.197-.2.463-.312.742-.312h6.264s-4.072-7.196-4.25-7.449a2.245 2.245 0 0 1-.119-2.394l-.62 1.095-5.29 9.277a1.092 1.092 0 0 0 0 1.075l5.29 9.274Z" clip-rule="evenodd"/>
  <path fill="#000" d="M106.989 36.723a3.442 3.442 0 0 1 1.842-.489c.391-.018.78.06 1.134.228.354.168.663.42.9.735.474.623.737 1.678.757 3.135h-2.326a2.33 2.33 0 0 0-.269-1.15c-.1-.156-.24-.283-.404-.367a1.022 1.022 0 0 0-.531-.11 2.458 2.458 0 0 0-1.613.512c-.387.32-.723.7-.997 1.124l-.031.049v5.242h5.015l-.652 1.761a.653.653 0 0 1-.617.434h-9.24l.652-1.761a.663.663 0 0 1 .615-.431h1.6V39.76c0-1.075 1.307-1.075 1.307-1.075H99.96l.652-1.761a.663.663 0 0 1 .615-.431h3.603l.346 1.546h.332l.056-.07c.407-.489.888-.91 1.425-1.246Zm15.996 5.209a9.438 9.438 0 0 0-1.791-.655l-1.827-.48a9.295 9.295 0 0 1-1.417-.492c-.45-.204-.68-.491-.68-.862.005-.215.075-.423.202-.595s.304-.3.507-.365a4.234 4.234 0 0 1 1.646-.273c.374.001.747.041 1.113.12.363.079.72.184 1.068.314a10.879 10.879 0 0 1 1.613.762l1.079-1.773-.62-.42a5.33 5.33 0 0 0-1.049-.509 9.352 9.352 0 0 0-1.462-.39 10.546 10.546 0 0 0-1.952-.161 7.785 7.785 0 0 0-1.929.23 4.697 4.697 0 0 0-1.511.663c-.4.273-.736.632-.983 1.052a2.803 2.803 0 0 0-.354 1.437 2.4 2.4 0 0 0 .521 1.598 4.43 4.43 0 0 0 1.341 1.055 8.009 8.009 0 0 0 1.785.663c.657.164 1.272.325 1.83.483.492.133.97.31 1.431.53a1 1 0 0 1 .476.356c.12.164.189.361.198.566a1.093 1.093 0 0 1-.64 1.04c-.726.35-1.785.348-2.797.095a9.66 9.66 0 0 1-1.354-.443 7.42 7.42 0 0 1-1.15-.589 8.604 8.604 0 0 1-.652-.451l-1.184 1.882c.647.527 1.37.95 2.144 1.253a8.81 8.81 0 0 0 3.361.575c1.629 0 2.867-.33 3.683-.98.395-.312.71-.715.918-1.176.209-.461.305-.967.281-1.474a2.32 2.32 0 0 0-.519-1.56 4.214 4.214 0 0 0-1.326-1.026Zm13.986 3.349c.271-.155.528-.334.768-.535l.45-.388 1.188 1.808a4.44 4.44 0 0 1-.85.71c-.394.257-.81.48-1.241.664-.449.192-.913.34-1.389.445-.465.105-.94.16-1.416.161-1.664 0-2.919-.468-3.755-1.402-.835-.934-1.258-2.457-1.258-4.524v-2.396c0-1.13 1.417-1.13 1.417-1.13h-3.697l.651-1.762a.653.653 0 0 1 .615-.431h1.023v-2.215a.659.659 0 0 1 .476-.64l2.148-.622v3.469h6.046l-.805 2.192h-5.244v3.547c0 1.244.241 2.164.714 2.739a2.496 2.496 0 0 0 2.017.876c.401.005.801-.05 1.187-.16a4.49 4.49 0 0 0 .955-.406Z"/>
  <path fill="#000" fill-rule="evenodd" d="M151.285 45.455a11.22 11.22 0 0 0-.068-.62 14.922 14.922 0 0 1-.048-1.13c0-.442.028-.954.082-1.52.054-.566.079-1.23.079-2.012a5.542 5.542 0 0 0-.223-1.63 2.994 2.994 0 0 0-.706-1.21 3.241 3.241 0 0 0-1.289-.784 6.116 6.116 0 0 0-1.983-.287 11.815 11.815 0 0 0-2.834.287 12.83 12.83 0 0 0-1.952.647l.601 2.012c.463-.2.936-.375 1.416-.526a7.064 7.064 0 0 1 2.168-.314 2.609 2.609 0 0 1 1.606.426c.386.287.567.776.567 1.437v.437a2.69 2.69 0 0 1-.048.514l-.023.175h-.167c-.448-.03-.825-.062-1.133-.094a9.209 9.209 0 0 0-2.933.172 4.701 4.701 0 0 0-1.566.652 2.829 2.829 0 0 0-.969 1.098 3.598 3.598 0 0 0-.335 1.612 3.034 3.034 0 0 0 .949 2.343c.635.574 1.511.888 2.607.888a4.172 4.172 0 0 0 2.199-.5c.5-.297.927-.705 1.249-1.193l.057-.09h.377l.303 1.596h2.581a.653.653 0 0 0 .42-.154.67.67 0 0 0 .226-.39l.306-1.649h-1.488l-.028-.193Zm-2.601-.997-.023.043a2.935 2.935 0 0 1-.85.943 2.921 2.921 0 0 1-1.759.448c-.635 0-1.085-.135-1.377-.416a1.536 1.536 0 0 1-.436-1.15 1.313 1.313 0 0 1 .243-.793c.163-.218.373-.394.615-.515.261-.135.54-.231.827-.287a6.242 6.242 0 0 1 1.91-.026c.312.04.541.075.7.107l.153.031v1.612l-.003.003Z" clip-rule="evenodd"/>
  <path fill="#000" d="m166.399 36.498-4.497 5.147 3.179 3.986h2.051l-.651 1.761a.663.663 0 0 1-.618.434h-2.199l-3.966-4.854h-1.088v4.855h-2.624v-12.89c0-.942 1.272-.942 1.272-.942h-3.167l.651-1.762a.653.653 0 0 1 .615-.431h3.253v9.354h.974l3.78-4.658h3.035Zm-84.266-.005a.65.65 0 0 0-.387.128.667.667 0 0 0-.24.335l-2.382 6.73h-.43l-3.18-7.184h-2.311a.65.65 0 0 0-.374.118.665.665 0 0 0-.241.313l-.652 1.762h3.227s-1.541 0-.955 1.437l3.261 7.696h2.732l4.27-11.337-2.338.002Z"/>
  <path fill="#000" fill-rule="evenodd" d="M67 36.394a4.74 4.74 0 0 1 1.657.779c.513.39.928.897 1.213 1.48a5.12 5.12 0 0 1 .476 2.348 10.983 10.983 0 0 1-.198 1.986h-8.341v.198c.001.473.117.939.337 1.356.201.363.482.674.821.909.35.238.738.41 1.148.508.442.104.895.153 1.349.147a8.555 8.555 0 0 0 4.581-1.357l.365 1.874c-1.98 1.437-4.564 1.535-5.13 1.535a7.593 7.593 0 0 1-2.582-.411 4.983 4.983 0 0 1-1.887-1.176 5.074 5.074 0 0 1-1.201-1.888 7.16 7.16 0 0 1-.414-2.52c-.018-.9.142-1.796.47-2.633a5.248 5.248 0 0 1 1.267-1.868 5.366 5.366 0 0 1 1.91-1.12A7.404 7.404 0 0 1 67 36.394Zm-5.14 4.742h6.084l.002-.19a2.803 2.803 0 0 0-.688-1.983c-.46-.491-1.156-.741-2.069-.741a3.969 3.969 0 0 0-1.19.175c-.365.114-.71.29-1.017.52a2.86 2.86 0 0 0-.756.862c-.201.352-.32.745-.349 1.15l-.017.207Zm33.699-3.963a4.753 4.753 0 0 0-1.658-.78 7.404 7.404 0 0 0-4.159.148 5.366 5.366 0 0 0-1.91 1.12 5.246 5.246 0 0 0-1.28 1.865 6.821 6.821 0 0 0-.47 2.633 7.162 7.162 0 0 0 .413 2.52c.257.714.67 1.36 1.206 1.89.536.53 1.184.932 1.894 1.174a7.596 7.596 0 0 0 2.58.41c.568 0 3.151-.097 5.132-1.534l-.357-1.868a8.556 8.556 0 0 1-4.581 1.357 5.59 5.59 0 0 1-1.352-.158 3.468 3.468 0 0 1-1.147-.51 2.69 2.69 0 0 1-.825-.919 2.932 2.932 0 0 1-.337-1.356v-.198h8.355c.126-.655.193-1.32.199-1.986a5.13 5.13 0 0 0-.482-2.34 4.153 4.153 0 0 0-1.221-1.468Zm-.714 3.963h-6.083l.017-.207c.028-.405.147-.798.348-1.15.192-.336.45-.63.757-.862.307-.23.651-.407 1.017-.52a3.969 3.969 0 0 1 1.19-.175c.912 0 1.61.25 2.068.741.477.544.724 1.256.689 1.983l-.003.19Zm81.747-4.742c.596.15 1.159.413 1.657.779.517.385.939.888 1.23 1.468.341.733.504 1.538.476 2.348a11.03 11.03 0 0 1-.199 1.986h-8.361v.198c.002.474.118.94.337 1.357a2.7 2.7 0 0 0 .822.908c.349.238.738.41 1.148.509.442.107.896.16 1.351.158a8.56 8.56 0 0 0 4.582-1.357l.365 1.874c-1.98 1.437-4.564 1.535-5.131 1.535a7.593 7.593 0 0 1-2.581-.411 4.982 4.982 0 0 1-1.896-1.175 5.076 5.076 0 0 1-1.207-1.892 7.157 7.157 0 0 1-.413-2.52c-.019-.9.141-1.796.47-2.633a5.232 5.232 0 0 1 1.281-1.865 5.359 5.359 0 0 1 1.909-1.12 7.406 7.406 0 0 1 4.16-.147Zm-5.14 4.742h6.077l.009-.19a2.804 2.804 0 0 0-.689-1.983c-.459-.491-1.156-.741-2.068-.741a3.97 3.97 0 0 0-1.19.175c-.366.114-.71.29-1.017.52a2.861 2.861 0 0 0-.757.862c-.201.352-.32.745-.348 1.15l-.017.207Z" clip-rule="evenodd"/>
</svg>
