<svg width="200" height="84" viewBox="0 0 200 84" fill="none" xmlns="http://www.w3.org/2000/svg">
<path d="M84.3322 34.6426H69.1878C68.9484 34.6426 68.7688 34.8227 68.7688 35.063V39.4173C68.7688 39.6575 68.9484 39.8377 69.1878 39.8377H77.2389C77.0593 44.8527 74.0963 47.5854 69.4572 47.5854C63.7407 47.5854 60.5681 43.171 60.5681 36.1441C60.5681 29.1171 63.5611 24.4925 69.2178 24.4925C73.1984 24.4925 75.7424 26.3544 76.7899 29.9279C76.8498 30.1681 77.0593 30.3483 77.2987 30.3483H83.7336C83.973 30.3483 84.0927 30.1681 84.0628 29.9279C82.3568 23.1111 77.2089 19.1172 69.1878 19.1172C59.79 19.1172 53.3252 25.8138 53.3252 36.054C53.3252 46.2941 59.8498 52.9907 69.3973 52.9907C78.9449 52.9907 84.841 47.1049 84.7512 35.093C84.7512 34.8528 84.5716 34.6426 84.3322 34.6426Z" fill="black"/>
<path d="M101.9 33.0207L112.405 20.1379C112.555 19.9878 112.465 19.8076 112.256 19.8076H104.773C104.534 19.8076 104.264 19.9578 104.115 20.1379L94.6272 33.351L94.7768 20.228C94.7768 19.9878 94.5973 19.8076 94.3578 19.8076H88.0726C87.8332 19.8076 87.6536 19.9878 87.6536 20.228L87.8332 36.0537L87.5938 51.8794C87.5938 52.1196 87.7733 52.2998 88.0128 52.2998H94.3279C94.5673 52.2998 94.7469 52.1196 94.7469 51.8794L94.6571 41.9095L97.3508 38.5762L102.529 46.414L106.24 51.9695C106.389 52.1497 106.659 52.2998 106.898 52.2998H114.74C114.919 52.2998 115.009 52.1196 114.919 51.9695L101.9 33.0207Z" fill="black"/>
<path d="M134.583 35.0027C136.768 33.351 137.905 31.0988 137.905 28.3661C137.905 22.9007 133.356 19.0869 126.712 19.0869C120.067 19.0869 115.488 22.9307 115.488 28.3661C115.488 31.0388 116.625 33.291 118.81 35.0027C115.997 36.8045 114.62 39.2669 114.62 42.4801C114.62 48.6062 119.558 52.8704 126.682 52.8704C133.805 52.8704 138.803 48.5461 138.803 42.4801C138.773 39.2969 137.367 36.8045 134.583 35.0027ZM126.712 46.8644C123.629 46.8644 121.534 45.0026 121.534 42.36C121.534 39.7173 123.629 37.8555 126.712 37.8555C129.794 37.8555 131.86 39.7173 131.86 42.36C131.86 45.0026 129.794 46.8644 126.712 46.8644Z" fill="black"/>
<path d="M142.814 12C140.539 12 138.923 13.6516 138.923 15.8738C138.923 18.096 140.539 19.7477 142.814 19.7477C145.088 19.7477 146.675 18.096 146.675 15.8738C146.675 13.6516 145.058 12 142.814 12Z" fill="black"/>
<path d="M91.305 60.9783C90.2575 60.9783 89.4494 61.4588 88.9406 62.2696V58.5159C88.9406 58.4558 88.9106 58.4258 88.8508 58.4258H87.6835C87.6237 58.4258 87.5938 58.4558 87.5938 58.5159L87.6237 63.0203L87.5938 68.6059C87.5938 68.6659 87.6237 68.696 87.6835 68.696H88.8209C88.8807 68.696 88.9106 68.6659 88.9106 68.6059L88.8807 67.5248C89.3895 68.3957 90.1976 68.8461 91.2751 68.8461C93.2804 68.8461 94.4177 67.0743 94.4177 64.8822C94.4177 62.69 93.3402 60.9783 91.305 60.9783ZM90.9459 67.9152C89.599 67.8851 88.8508 66.774 88.8508 64.8521C88.8508 62.9002 89.6589 61.9393 90.9758 61.9393C92.4124 61.9393 93.0709 63.2005 93.0709 65.0023C93.0709 66.684 92.4124 67.9152 90.9459 67.9152Z" fill="black"/>
<path d="M100.105 61.1289C100.045 61.1289 100.015 61.1589 99.9851 61.219L98.1594 66.9547L96.0044 61.219C96.0044 61.1589 95.9446 61.1289 95.8847 61.1289H94.5977C94.5379 61.1289 94.478 61.1589 94.508 61.249L97.5009 68.7264L96.6629 71.0687C96.633 71.1288 96.6629 71.1889 96.7527 71.1889H97.8002C97.8601 71.1889 97.89 71.1588 97.9199 71.0988L101.332 61.249C101.362 61.189 101.332 61.1289 101.272 61.1289H100.105Z" fill="black"/>
<path d="M111.628 60.8281H110.431C110.371 60.8281 110.311 60.8882 110.311 60.9482L110.371 62.0894C109.832 61.1885 108.964 60.708 107.857 60.708C105.672 60.708 104.475 62.5398 104.475 64.8521C104.475 67.1644 105.672 68.8761 107.917 68.8761C109.054 68.8761 109.892 68.3356 110.431 67.4647V68.3656C110.431 70.1974 109.533 70.9782 108.216 70.9782C107.078 70.9782 106.27 70.4977 106.121 69.4767C106.091 69.4166 106.061 69.3566 106.001 69.3566H104.804C104.744 69.3566 104.684 69.4166 104.684 69.4767C104.834 71.2484 106.3 72.0292 108.156 71.9992C110.461 71.9992 111.747 70.7079 111.747 68.3656L111.718 64.0713L111.747 60.9482C111.718 60.8882 111.688 60.8281 111.628 60.8281ZM108.186 67.8251C106.659 67.8551 105.881 66.744 105.881 64.7921C105.881 62.9602 106.63 61.7591 108.066 61.729H108.336C109.652 61.8191 110.431 62.9903 110.401 64.9122C110.371 66.8941 109.503 67.8251 108.186 67.8251Z" fill="black"/>
<path d="M119.947 60.8284H118.72C118.66 60.8284 118.601 60.8884 118.601 60.9485L118.63 62.0596C118.092 61.1587 117.224 60.6782 116.086 60.6782C113.961 60.6782 112.734 62.5701 112.734 64.8824C112.734 67.1947 113.902 69.0565 116.057 69.0565C117.224 69.0565 118.092 68.516 118.63 67.5851L118.601 68.7863C118.601 68.8463 118.66 68.9064 118.72 68.9064H119.917C119.977 68.9064 120.037 68.8463 120.037 68.7863L119.977 64.7923L120.037 60.9485C120.037 60.8884 120.007 60.8284 119.947 60.8284ZM116.446 68.0055C114.919 68.0055 114.201 66.7142 114.201 64.7923C114.201 63.0205 114.889 61.7893 116.356 61.7293H116.625C117.942 61.8194 118.72 62.9905 118.69 64.9424C118.66 66.9845 117.822 68.0055 116.446 68.0055Z" fill="black"/>
<path d="M122.731 57.9155H121.534C121.474 57.9155 121.414 57.9756 121.414 58.0356L121.474 63.3509L121.414 68.7863C121.414 68.8464 121.474 68.9064 121.534 68.9064H122.731C122.791 68.9064 122.851 68.8464 122.851 68.7863L122.791 63.3209L122.851 58.0356C122.821 57.9756 122.791 57.9155 122.731 57.9155Z" fill="black"/>
<path d="M131.052 60.8284H129.825C129.765 60.8284 129.705 60.8884 129.705 60.9485L129.735 62.0596C129.196 61.1587 128.328 60.6782 127.191 60.6782C125.066 60.6782 123.839 62.5701 123.839 64.8824C123.839 67.1947 125.006 69.0565 127.161 69.0565C128.328 69.0565 129.196 68.516 129.735 67.5851L129.705 68.7863C129.705 68.8463 129.765 68.9064 129.825 68.9064H131.022C131.082 68.9064 131.142 68.8463 131.142 68.7863L131.082 64.7923L131.142 60.9485C131.172 60.8884 131.112 60.8284 131.052 60.8284ZM127.55 68.0055C126.024 68.0055 125.305 66.7142 125.305 64.7923C125.305 63.0205 125.994 61.7893 127.46 61.7293H127.73C129.047 61.8194 129.825 62.9905 129.795 64.9424C129.795 66.9845 128.927 68.0055 127.55 68.0055Z" fill="black"/>
<path d="M136.409 64.6724L138.714 60.9187C138.743 60.8586 138.714 60.8286 138.654 60.8286H137.427C137.367 60.8286 137.307 60.8586 137.247 60.9187L135.481 63.8916L133.655 60.9187C133.626 60.8586 133.536 60.8286 133.476 60.8286H132.069C132.009 60.8286 131.979 60.8887 132.009 60.9187L134.404 64.6124L131.8 68.7865C131.77 68.8466 131.8 68.8766 131.86 68.8766H133.117C133.177 68.8766 133.266 68.8466 133.296 68.7865L135.302 65.4832L137.307 68.7865C137.337 68.8466 137.427 68.8766 137.486 68.8766H138.893C138.953 68.8766 138.983 68.8165 138.953 68.7865L136.409 64.6724Z" fill="black"/>
<path d="M146.555 60.8286H145.298C145.238 60.8286 145.178 60.8887 145.148 60.9487L143.203 67.0448L140.898 60.9487C140.869 60.8887 140.809 60.8286 140.749 60.8286H139.342C139.282 60.8286 139.252 60.8887 139.282 60.9487L142.455 68.9066L141.617 71.4591C141.587 71.5192 141.647 71.5793 141.707 71.5793H142.844C142.904 71.5793 142.964 71.5192 142.994 71.4591L146.645 60.9487C146.645 60.8586 146.615 60.8286 146.555 60.8286Z" fill="black"/>
</svg>