<svg xmlns="http://www.w3.org/2000/svg" width="200" height="84" fill="none" viewBox="0 0 200 84">
  <g clip-path="url(#a)">
    <path fill="#000" d="M41.8 28.533c-7.62-.004-13.797 6.17-13.8 13.789-.003 7.618 6.17 13.796 13.789 13.8 7.619.003 13.797-6.17 13.8-13.79v-.005c-.001-7.615-6.174-13.791-13.79-13.794ZM51.896 43.08H45.49a3.897 3.897 0 1 1-7.645-1.526 3.897 3.897 0 0 1 7.675.17h6.37a.678.678 0 1 1 0 1.356h.005Zm114.786-.66c1.037 0 1.743.662 1.964 1.72h-4.041c.221-1.08 1.016-1.72 2.077-1.72ZM172 45.157c0-3.2-2.228-5.475-5.275-5.475-3.266 0-5.562 2.318-5.562 5.585s2.383 5.607 5.651 5.607c2.45 0 3.95-.817 4.855-1.943l-1.986-2.035a3.4 3.4 0 0 1-2.517 1.17c-1.324 0-2.357-.643-2.582-1.876h7.35c.022-.221.066-.73.066-1.038m-16.62 5.523h3.466v-8.012h2.052v-2.785h-2.052v-1.563c0-.857.396-1.17 1.014-1.17.31 0 .884.154 1.347.397l.643-2.495c-.375-.265-1.479-.838-2.913-.838-2.164 0-3.554 1.302-3.554 3.973v1.699h-1.037v2.786h1.037l-.003 8.008Zm-7.832-2.847c-1.369 0-2.318-1.015-2.318-2.539 0-1.523.993-2.56 2.318-2.56 1.324 0 2.273 1.08 2.273 2.56s-1.037 2.539-2.273 2.539Zm-.728 3.046c1.302 0 2.273-.442 2.98-1.346l.044.021v1.126h3.289V39.881h-3.466v1.126l-.044.023a3.86 3.86 0 0 0-2.981-1.348c-2.785 0-4.922 2.296-4.922 5.607 0 3.312 2.143 5.585 5.1 5.585Zm-11.678 0c2.605 0 5.761-1.325 5.761-5.011 0-3.024-2.118-3.731-4.878-4.79-1.7-.662-2.273-1.06-2.25-1.81 0-.75.551-1.213 1.457-1.213.905 0 1.853.419 3.2 1.477l2.075-2.692c-1.5-1.286-3.377-2.075-5.43-2.036-2.914.044-5.142 2.008-5.142 4.613 0 3.09 2.385 4.217 4.767 5.035 1.767.596 2.318.971 2.318 1.832 0 .706-.529 1.325-1.766 1.325-1.081 0-2.515-.552-3.707-1.855l-2.164 2.627c1.678 1.722 3.75 2.494 5.761 2.494m-15.384 0c2.958 0 4.392-1.457 4.392-3.466 0-2.118-1.301-2.736-3.686-3.552-1.081-.375-1.479-.619-1.479-.95 0-.42.463-.595.857-.595.729 0 1.656.375 2.407 1.125l1.634-2.406c-1.259-.926-2.451-1.348-4.085-1.348-2.25 0-4.039 1.26-4.039 3.445 0 2.186 1.589 2.957 3.4 3.509 1.346.42 1.678.643 1.678.994 0 .397-.354.643-1.039.643-.993 0-1.92-.398-2.825-1.214l-1.612 2.235c1.191 1.06 2.692 1.589 4.392 1.589m-9.049-.198h3.444v-10.8h-3.445v10.8h.001Zm1.722-12.14c1.192 0 2.075-.857 2.075-1.988 0-1.13-.883-1.942-2.075-1.942-1.192 0-2.057.878-2.057 1.937 0 1.126.857 1.987 2.053 1.987m-7.545 12.339c2.958 0 4.393-1.458 4.393-3.466 0-2.119-1.303-2.737-3.686-3.553-1.082-.375-1.48-.618-1.48-.95 0-.42.464-.595.858-.595.727 0 1.655.375 2.405 1.125l1.633-2.406c-1.258-.926-2.45-1.347-4.083-1.347-2.25 0-4.04 1.259-4.04 3.444 0 2.186 1.589 2.957 3.399 3.51 1.348.42 1.678.642 1.678.993 0 .397-.353.643-1.037.643-.994 0-1.92-.397-2.826-1.214l-1.607 2.23c1.192 1.06 2.694 1.589 4.393 1.589m-10.793-3.05c-1.37 0-2.358-1.103-2.358-2.538 0-1.434.972-2.539 2.358-2.539 1.385 0 2.34 1.038 2.34 2.54 0 1.5-1.038 2.538-2.34 2.538Zm0 3.047c3.4 0 5.827-2.274 5.827-5.585 0-3.31-2.428-5.607-5.827-5.607-3.4 0-5.85 2.318-5.85 5.607 0 3.29 2.362 5.585 5.85 5.585Zm-17.725-.199h3.443v-5.43c0-1.677.795-2.495 1.987-2.495 1.125 0 1.722.508 1.722 2.296v5.63h3.443v-6.469c0-3.42-1.633-4.525-3.863-4.525a4.187 4.187 0 0 0-3.244 1.458h-.045v-1.26H76.36v10.794Zm-8.08.176c2.43 0 4.813-.816 6.247-1.92V41.89h-6.577v3.046h3.046v1.855a5.46 5.46 0 0 1-2.715.684c-2.671 0-4.238-2.075-4.238-4.614 0-2.914 1.855-4.614 4.084-4.614a5.28 5.28 0 0 1 3.75 1.546l2.603-2.207c-1.607-1.855-4.083-2.804-6.357-2.804-5.01 0-7.946 3.536-7.946 8.079 0 5.1 3.576 7.99 8.1 7.99"/>
  </g>
  <defs>
    <clipPath id="a">
      <path fill="#fff" d="M28 28.533h144v27.589H28z"/>
    </clipPath>
  </defs>
</svg>
