<svg xmlns="http://www.w3.org/2000/svg" width="200" height="84" fill="none" viewBox="0 0 200 84">
  <path fill="#000" d="M37.91 17.275c15.446-1.073 26.23 1.08 40.53 4.996a.71.71 0 1 1-.379 1.37c-14.226-3.897-24.834-6.006-40.052-4.949a.711.711 0 1 1-.1-1.417Zm40.11 7.823c-21.885-3.931-40.908-2.138-64.541 6.066a.71.71 0 1 0 .469 1.342c23.432-8.134 42.205-9.892 63.819-6.01a.71.71 0 1 0 .253-1.398Z"/>
  <path fill="#000" d="M35.295 32.21c11.819-2.854 27.207-4.992 42.955-4.992.394 0 .713.318.713.71 0 .392-.32.71-.713.71-15.629 0-30.904 2.124-42.619 4.953a.71.71 0 1 1-.336-1.38Zm82.611-2.953c.54-.239.783-.869.543-1.406a1.071 1.071 0 0 0-1.412-.541c-4.313 1.909-7.586 3.3-10.381 4.194l.025-.023c1.817-1.669 3.863-3.96 6.339-6.73l.971-1.086a1.064 1.064 0 0 0-.086-1.504 1.073 1.073 0 0 0-1.511.086l-.918 1.027-.042.046-.004.005c-2.497 2.794-4.466 4.997-6.199 6.589-1.96 1.8-3.443 2.646-4.835 2.769-1.36.12-2.903-.43-5.04-2.12-2.136-1.692-4.709-4.398-8.096-8.304a1.073 1.073 0 0 0-1.508-.11 1.063 1.063 0 0 0-.11 1.503c3.096 3.572 5.607 6.255 7.78 8.085-2.891-.82-6.312-2.164-10.831-4.079a1.071 1.071 0 0 0-1.403.563 1.064 1.064 0 0 0 .565 1.398c8.35 3.539 13.369 5.328 18.356 5.235 4.981-.094 9.82-2.066 17.797-5.597Zm46.799 2.953c-11.819-2.854-27.207-4.992-42.955-4.992a.712.712 0 1 0 0 1.42c15.629 0 30.904 2.124 42.619 4.953a.71.71 0 1 0 .336-1.38Z"/>
  <path fill="#000" d="M186.521 31.164c-23.633-8.204-42.656-9.997-64.541-6.066a.71.71 0 1 0 .253 1.398c21.614-3.882 40.387-2.124 63.819 6.01a.71.71 0 1 0 .469-1.342ZM162.09 17.275c-15.445-1.073-26.23 1.08-40.529 4.996a.71.71 0 1 0 .378 1.37c14.226-3.897 24.834-6.006 40.052-4.949a.711.711 0 1 0 .099-1.417ZM63.012 66.863V47.49h2.44V58.2l9.92-10.739H78l-7.725 8.553 8.158 10.848h-2.737L68.73 57.49l-3.28 3.443v5.93h-2.439Zm17.681 0v-19.4h2.44v19.4h-2.44Zm14.278-17.215h6.641v-2.186H85.891v2.186h6.64v17.215h2.44V49.648Zm7.976 15.302 12.414-15.302h-12.17v-2.186h15.015v1.913l-12.197 15.302h12.197v2.186h-15.259v-1.912Zm22.601 1.258c1.048.528 2.34.792 3.876.792 1.482 0 2.737-.255 3.767-.765 1.048-.528 1.898-1.239 2.548-2.132.651-.892 1.121-1.921 1.41-3.087.307-1.184.46-2.432.46-3.744v-9.81h-2.439v9.81c0 .93-.099 1.84-.298 2.733a7.704 7.704 0 0 1-.922 2.432 5.007 5.007 0 0 1-1.761 1.721c-.741.42-1.672.629-2.792.629-1.102 0-2.024-.21-2.765-.629a4.789 4.789 0 0 1-1.762-1.694 7.85 7.85 0 0 1-.948-2.405 14.26 14.26 0 0 1-.271-2.787v-9.81h-2.44v9.81c0 1.239.145 2.441.434 3.607a9.671 9.671 0 0 0 1.382 3.143c.633.91 1.473 1.639 2.521 2.186Z"/>
</svg>
