<svg width="200" height="84" viewBox="0 0 200 84" fill="none" xmlns="http://www.w3.org/2000/svg">
<g clip-path="url(#clip0_1059_17116)">
<path fill-rule="evenodd" clip-rule="evenodd" d="M49.4848 26L57.6014 38.3983L49.4848 43.0113L41.3682 38.3983L49.4848 26ZM43.8511 37.8093L49.4848 29.2078L55.1185 37.8093L49.4848 41.01L43.8511 37.8093Z" fill="black"/>
<path d="M49.4777 45.7363L40.0615 40.3853L39.8074 40.7756C36.9107 45.2041 37.5568 51.0022 41.3611 54.721C45.8405 59.0927 53.1077 59.0927 57.5943 54.721C61.4058 51.0022 62.0519 45.2041 59.1479 40.7756L58.8938 40.3853L49.4777 45.7363Z" fill="black"/>
<path d="M90.1703 50.449H79.4619V33.5513H82.7289V47.4683H90.1703V50.449Z" fill="black"/>
<path d="M106.592 50.449H103.325V33.5513H106.592V50.449Z" fill="black"/>
<path d="M119.834 50.449V33.5513H125.431C126.281 33.5513 126.971 33.5797 127.493 33.6435C128.844 33.7997 130.012 34.2681 130.985 35.0416C131.973 35.8152 132.72 36.8088 133.229 38.0223C133.744 39.2288 133.998 40.5559 133.998 42.0037C133.998 43.4515 133.744 44.7786 133.229 45.9922C132.713 47.1986 131.965 48.1851 130.985 48.9587C130.005 49.7322 128.844 50.2006 127.493 50.3568C126.963 50.4206 126.274 50.449 125.431 50.449H119.834ZM125.431 47.447C126.281 47.447 126.905 47.4045 127.304 47.3264C128.023 47.1844 128.626 46.8509 129.105 46.3257C129.591 45.7935 129.954 45.1547 130.187 44.4025C130.426 43.6431 130.55 42.8411 130.55 41.9966C130.55 41.1521 130.426 40.3146 130.179 39.5553C129.94 38.7959 129.577 38.1572 129.083 37.6391C128.604 37.121 128.009 36.7946 127.304 36.6668C126.905 36.5887 126.281 36.5462 125.431 36.5462H123.152V47.4399H125.431V47.447Z" fill="black"/>
<path d="M153.622 50.8037C151.915 50.8037 150.434 50.4418 149.164 49.7108C147.901 48.9727 146.928 47.9437 146.245 46.6095C145.57 45.2823 145.236 43.7423 145.236 41.9965C145.236 40.2506 145.57 38.7106 146.245 37.3835C146.928 36.0563 147.901 35.0273 149.164 34.2963C150.427 33.5582 151.915 33.1963 153.622 33.1963C155.328 33.1963 156.809 33.5653 158.079 34.2963C159.342 35.0273 160.315 36.0563 160.983 37.3835C161.666 38.7106 162.007 40.2506 162.007 41.9965C162.007 43.7423 161.666 45.2823 160.983 46.6095C160.308 47.9366 159.342 48.9727 158.079 49.7108C156.816 50.4418 155.328 50.8037 153.622 50.8037ZM153.716 47.8017C154.776 47.8017 155.662 47.5604 156.38 47.085C157.099 46.6095 157.644 45.9353 157.999 45.0694C158.362 44.2036 158.537 43.1817 158.537 42.0036C158.537 40.1868 158.115 38.7674 157.266 37.7454C156.417 36.7235 155.168 36.2054 153.52 36.2054C152.46 36.2054 151.574 36.4467 150.856 36.9222C150.137 37.3977 149.592 38.0719 149.237 38.9377C148.874 39.8035 148.699 40.8255 148.699 42.0036C148.699 43.8204 149.12 45.2398 149.97 46.2617C150.819 47.2837 152.068 47.8017 153.716 47.8017Z" fill="black"/>
</g>
<defs>
<clipPath id="clip0_1059_17116">
<rect width="124" height="32" fill="white" transform="translate(38 26)"/>
</clipPath>
</defs>
</svg>
