<svg width="200" height="84" viewBox="0 0 200 84" fill="black" xmlns="http://www.w3.org/2000/svg">
<path d="M30.813 50.997H30.9965L31.004 50.8108L31.7004 33.6804L40.4502 43.0225L35.1204 50.6909L34.9076 50.997H35.2766H46.0466H46.2384L46.2377 50.8021L46.2045 41.9387L52.7897 50.9188L52.847 50.997H52.9429H55.6558H56.0365L55.8091 50.6869L45.3463 36.418L45.1888 36.2033L45.0368 36.422L41.9526 40.86L30.7966 28.9468L30.6301 28.769L30.4981 28.9745L16.5368 50.6967L16.3438 50.997H16.6968H30.813Z" fill="black"/>
<path d="M65.7158 50.9518V33.4751H69.2601V47.9942H77.4729V50.9518H65.7158ZM90.1026 50.9518H86.9008V49.4853H86.8275C86.3712 50.1045 85.8661 50.5607 85.312 50.854C84.7743 51.1474 84.0817 51.294 83.2344 51.294C81.8656 51.294 80.7982 50.8866 80.0324 50.0719C79.2665 49.2571 78.8835 48.1572 78.8835 46.772V38.4126H82.1833V46.2099C82.1833 47.7254 82.8759 48.4831 84.261 48.4831C85.0269 48.4831 85.638 48.2224 86.0942 47.7009C86.5505 47.1794 86.7786 46.4951 86.7786 45.6477V38.4126H90.1026V50.9518ZM97.7773 55.2293C96.0823 55.2293 94.7218 54.8872 93.6951 54.2027C92.6846 53.5183 92.0904 52.5569 91.9112 51.3185H95.2108C95.5368 52.2473 96.3758 52.7117 97.7286 52.7117C99.5858 52.7117 100.514 51.8399 100.514 50.0963V48.7275H100.442C99.5781 49.7052 98.4857 50.1941 97.1662 50.1941C95.6829 50.1941 94.388 49.6482 93.2795 48.5564C92.1878 47.4646 91.6423 46.0143 91.6423 44.2055C91.6423 42.3479 92.1469 40.865 93.1574 39.7569C94.1679 38.6325 95.4712 38.0704 97.0681 38.0704C98.5838 38.0704 99.7411 38.6244 100.539 39.7325H100.588V38.4126H103.79V49.9986C103.79 51.628 103.293 52.8991 102.299 53.8117C101.289 54.7567 99.7813 55.2293 97.7773 55.2293ZM97.7286 47.5298C98.7221 47.5298 99.4638 47.212 99.9528 46.5765C100.442 45.941 100.686 45.1263 100.686 44.1322C100.686 43.1545 100.425 42.3479 99.9034 41.7124C99.3988 41.0606 98.665 40.7347 97.7039 40.7347C96.8564 40.7347 96.1719 41.0443 95.6504 41.6635C95.1452 42.2827 94.8933 43.1138 94.8933 44.1567C94.8933 45.2159 95.1452 46.0469 95.6504 46.6498C96.1719 47.2365 96.8649 47.5298 97.7286 47.5298ZM113.826 50.9518C113.663 50.74 113.532 50.2756 113.435 49.5586H113.386C113.027 50.0963 112.571 50.5118 112.017 50.8052C111.463 51.0985 110.689 51.2452 109.695 51.2452C108.375 51.2452 107.316 50.9111 106.517 50.243C105.719 49.5749 105.319 48.6297 105.319 47.4076C105.319 46.1365 105.76 45.2077 106.639 44.6211C107.519 44.0182 108.758 43.6026 110.355 43.3745C111.528 43.2116 112.326 43.0486 112.75 42.8856C113.174 42.7064 113.386 42.3968 113.386 41.9568C113.386 41.5006 113.206 41.142 112.848 40.8813C112.489 40.6043 111.968 40.4658 111.283 40.4658C109.768 40.4658 108.962 41.0524 108.864 42.2257H105.906C105.955 41.0361 106.436 40.0502 107.349 39.2681C108.261 38.4859 109.581 38.0948 111.308 38.0948C114.828 38.0948 116.588 39.6347 116.588 42.7146V49.0941C116.588 50.0393 116.735 50.6178 117.028 50.8296V50.9518H113.826ZM110.502 48.9231C111.414 48.9231 112.131 48.6868 112.652 48.2142C113.19 47.7416 113.459 47.1794 113.459 46.5276V44.6455C113.1 44.8573 112.326 45.1018 111.137 45.3788C110.192 45.5907 109.523 45.8351 109.133 46.1121C108.742 46.3729 108.546 46.7802 108.546 47.3342C108.546 48.3935 109.198 48.9231 110.502 48.9231ZM121.952 38.4126V40.1236H122.025C122.889 38.7547 124.128 38.0704 125.741 38.0704C127.028 38.0704 128.071 38.5104 128.87 39.3903C129.668 40.254 130.067 41.3784 130.067 42.7634V50.9518H126.743V43.2523C126.743 42.5679 126.547 42.0139 126.156 41.5902C125.782 41.1665 125.252 40.9547 124.567 40.9547C123.834 40.9547 123.223 41.2235 122.734 41.7612C122.262 42.299 122.025 42.9915 122.025 43.8389V50.9518H118.701V38.4126H121.952ZM142.773 49.4364C141.551 50.6911 139.979 51.3185 138.056 51.3185C136.133 51.3185 134.561 50.6911 133.338 49.4364C132.116 48.1654 131.505 46.5847 131.505 44.6944C131.505 42.8042 132.116 41.2316 133.338 39.9769C134.561 38.7059 136.133 38.0704 138.056 38.0704C139.979 38.0704 141.551 38.7059 142.773 39.9769C143.995 41.2316 144.606 42.8042 144.606 44.6944C144.606 46.5847 143.995 48.1654 142.773 49.4364ZM138.056 48.7764C139.05 48.7764 139.824 48.4097 140.378 47.6765C140.948 46.9269 141.233 45.9329 141.233 44.6944C141.233 43.456 140.948 42.4619 140.378 41.7124C139.824 40.9628 139.05 40.588 138.056 40.588C137.045 40.588 136.263 40.9628 135.709 41.7124C135.155 42.4456 134.878 43.4397 134.878 44.6944C134.878 45.9329 135.155 46.9269 135.709 47.6765C136.263 48.4097 137.045 48.7764 138.056 48.7764ZM150.845 51.3185C149.264 51.3185 147.985 50.7237 147.008 49.5341C146.03 48.3283 145.541 46.715 145.541 44.6944C145.541 42.739 146.038 41.1502 147.032 39.928C148.042 38.6896 149.329 38.0704 150.894 38.0704C152.458 38.0704 153.639 38.6896 154.438 39.928H154.511V33.4751H157.836V50.9518H154.633V49.3141H154.585C153.77 50.6504 152.523 51.3185 150.845 51.3185ZM151.578 48.5319C152.556 48.5319 153.297 48.1979 153.802 47.5298C154.324 46.8617 154.585 45.941 154.585 44.7677C154.585 42.0953 153.615 40.7591 151.676 40.7591C150.779 40.7591 150.095 41.1176 149.623 41.8346C149.15 42.5516 148.914 43.5049 148.914 44.6944C148.914 45.9166 149.142 46.8617 149.598 47.5298C150.071 48.1979 150.731 48.5319 151.578 48.5319ZM165.887 51.3185C163.866 51.3185 162.278 50.6993 161.121 49.4608C159.964 48.2061 159.385 46.6091 159.385 44.67C159.385 42.796 159.964 41.2316 161.121 39.9769C162.278 38.7059 163.76 38.0704 165.57 38.0704C167.541 38.0704 169.065 38.7547 170.14 40.1236C171.216 41.4924 171.753 43.3256 171.753 45.6233H162.661C162.791 46.6173 163.125 47.3913 163.663 47.9453C164.201 48.4831 164.934 48.752 165.863 48.752C167.085 48.752 167.891 48.2387 168.283 47.212H171.558C171.314 48.3853 170.694 49.3631 169.701 50.1452C168.706 50.9274 167.435 51.3185 165.887 51.3185ZM165.618 40.6369C164.005 40.6369 163.036 41.5331 162.71 43.3256H168.283C168.233 42.5271 167.965 41.8835 167.476 41.3947C166.987 40.8895 166.368 40.6369 165.618 40.6369ZM178.376 51.3185C176.583 51.3185 175.182 50.9274 174.172 50.1452C173.162 49.3467 172.608 48.2631 172.51 46.8943H175.59C175.802 48.2794 176.714 48.9719 178.327 48.9719C179.06 48.9719 179.623 48.8416 180.014 48.5808C180.421 48.3201 180.625 47.9697 180.625 47.5298C180.625 47.3668 180.592 47.2202 180.527 47.0898C180.478 46.9595 180.381 46.8454 180.234 46.7476C180.103 46.6335 179.981 46.5439 179.868 46.4788C179.769 46.4136 179.59 46.3484 179.329 46.2832C179.069 46.218 178.865 46.1691 178.718 46.1365C178.588 46.1039 178.352 46.0632 178.01 46.0143C177.684 45.9492 177.456 45.9003 177.325 45.8677C176.641 45.7373 176.078 45.607 175.639 45.4766C175.215 45.3299 174.767 45.1263 174.294 44.8655C173.822 44.5885 173.463 44.2218 173.219 43.7656C172.99 43.293 172.877 42.7309 172.877 42.079C172.877 40.7754 173.349 39.7814 174.294 39.097C175.255 38.4126 176.486 38.0704 177.985 38.0704C179.598 38.0704 180.861 38.4452 181.773 39.1947C182.703 39.928 183.232 40.9384 183.363 42.2257H180.356C180.226 41.0035 179.419 40.3925 177.936 40.3925C177.268 40.3925 176.739 40.5147 176.347 40.7591C175.972 41.0035 175.785 41.3458 175.785 41.7857C175.785 41.9324 175.809 42.0709 175.859 42.2012C175.924 42.3153 176.022 42.4212 176.152 42.519C176.298 42.6005 176.437 42.6738 176.567 42.739C176.698 42.7879 176.885 42.8449 177.13 42.9101C177.374 42.959 177.586 43.0078 177.765 43.0567C177.945 43.0893 178.189 43.1382 178.499 43.2034C178.808 43.2523 179.052 43.293 179.232 43.3256C179.753 43.4397 180.177 43.5456 180.503 43.6433C180.845 43.7248 181.236 43.8715 181.676 44.0833C182.116 44.2789 182.458 44.5071 182.703 44.7677C182.963 45.0122 183.183 45.3544 183.363 45.7944C183.558 46.218 183.656 46.715 183.656 47.2854C183.656 48.5238 183.167 49.5097 182.189 50.243C181.228 50.9599 179.957 51.3185 178.376 51.3185Z" fill="black"/>
</svg>
