<svg width="200" height="84" viewBox="0 0 200 84" fill="none" xmlns="http://www.w3.org/2000/svg">
<g clip-path="url(#clip0_1461_16984)">
<path d="M37.2565 38.4775C42.8939 38.3134 56.34 37.6964 59.3408 33.3311C61.6221 30.0138 56.587 26.5594 54.1939 25.3111C51.8008 24.0592 48.4718 23.5 48.4718 23.5C55.1714 24.2558 65.7626 27.9249 62.4661 34.5956C59.5139 40.5664 44.122 41.3782 37.2529 41.3782V38.4757H37.2565V38.4775Z" fill="black"/>
<path d="M37.2529 53.4626V50.607C45.7793 50.322 57.1731 50.0749 63.0828 44.4233C63.2433 49.4021 56.4265 51.6478 51.2093 52.5841C46.6937 53.394 41.8858 53.5924 37.2547 53.4626H37.2529Z" fill="black"/>
<path d="M63.0858 38.2393C58.406 43.0736 49.0158 44.4157 37.1621 44.4157V47.3109C49.6271 47.3109 63.0497 45.4818 63.0858 38.2393Z" fill="black"/>
<path d="M145.604 43.8891C145.604 38.5027 148.95 34.0977 154.517 34.0977C160.885 34.0977 163.249 38.8292 162.959 43.5608H149.423C149.495 48.1462 152.079 50.8033 155.536 50.8033C158.229 50.8033 160.12 49.3115 161.031 46.6544L163.105 47.237C162.233 51.1316 159.212 53.7165 154.846 53.7165C149.169 53.7165 145.604 49.3133 145.604 43.8891ZM149.533 41.7407H159.066C158.883 38.647 157.282 36.026 154.517 36.026C151.753 36.026 149.97 38.5009 149.533 41.7407Z" fill="black"/>
<path d="M143.6 51.35L144.873 53.06V53.3504H138.577V53.06L139.85 51.35V30.1617L138.577 28.3055V28.0151L143.598 27.106V51.35H143.6Z" fill="black"/>
<path d="M118.421 60.1583V59.8679L119.694 57.9756V36.5367L118.421 34.9204L118.396 34.2818H123.405V37.922C124.424 35.5932 126.79 34.0996 129.445 34.0996C134.357 34.0996 137.85 38.1024 137.85 43.9271C137.85 49.7518 133.993 53.7185 128.68 53.7185C126.606 53.7185 124.676 52.8815 123.403 51.3157V57.9756L125.149 59.8679V60.1583H118.417H118.421ZM128.318 51.6405C131.701 51.6405 133.957 48.3286 133.957 43.9253C133.957 39.5221 131.811 36.7549 128.572 36.7549C121.595 36.7549 120.949 51.6405 128.318 51.6405Z" fill="black"/>
<path d="M106.649 53.7151C101.736 53.7151 98.2432 49.6744 98.2432 43.8876C98.2432 38.1008 102.1 34.0962 107.413 34.0962C109.779 34.0962 111.925 35.0793 113.09 36.425L114.546 34.2784H116.401V51.3123L117.675 53.0585V53.3507H112.69V49.8927C111.671 52.1854 109.305 53.7151 106.651 53.7151H106.649ZM107.558 51.058C114.888 51.058 114.827 36.1724 107.776 36.1724C104.392 36.1724 102.137 39.4843 102.137 43.8894C102.137 48.2944 104.283 51.0598 107.558 51.0598V51.058Z" fill="black"/>
<path d="M67.6429 53.3522V53.0618L69.2083 51.2417L69.2137 29.3319L67.5762 27.4035V27.1131H73.5743L81.0331 44.0009C82.2701 46.7302 82.8888 49.023 82.8888 49.023C82.8888 49.023 83.5072 46.7302 84.6725 43.9631L91.8409 27.1113H97.8803V27.4018L96.2428 29.3301V51.1316L97.8803 53.06V53.3504H90.6035V53.06L92.2411 51.1316V37.4836C92.2411 34.4982 92.4234 32.0972 92.4234 32.0972C92.4234 32.0972 91.5865 34.3539 90.3853 37.1192L83.2909 53.3522H80.9625L73.7943 37.1913C72.5571 34.4621 71.7564 32.2055 71.7564 32.2055C71.7564 32.2055 71.9386 34.6082 71.9386 37.5918L72.0107 51.2399L73.576 53.06V53.3504H67.6447L67.6429 53.3522Z" fill="black"/>
</g>
<defs>
<clipPath id="clip0_1461_16984">
<rect width="126.258" height="37" fill="white" transform="translate(36.8711 23.5)"/>
</clipPath>
</defs>
</svg>
