<svg width="200" height="84" viewBox="0 0 200 84" fill="none" xmlns="http://www.w3.org/2000/svg">
<path d="M170.428 49.2842V38.6758H173.01V39.9665H173.156C173.594 39.18 174.677 38.4136 176.238 38.4136C178.696 38.4136 180.195 40.0875 180.195 42.3464V49.2842H177.488V43.0321C177.488 41.7413 176.634 40.8741 175.385 40.8741C174.073 40.8741 173.135 41.8825 173.135 43.2136V49.2842H170.428Z" fill="black"/>
<path d="M167.676 37.7319C166.697 37.7319 166.01 37.147 166.01 36.1991C166.01 35.2916 166.697 34.6865 167.676 34.6865C168.655 34.6865 169.342 35.2916 169.342 36.1991C169.342 37.147 168.655 37.7319 167.676 37.7319ZM166.322 49.2841V38.6757H169.03V49.2841H166.322Z" fill="black"/>
<path d="M155.501 49.5464C152.273 49.5464 149.982 47.2069 149.982 44.0405C149.982 40.6926 152.293 38.4136 155.501 38.4136C159.02 38.4136 160.936 40.9346 160.936 43.9195V44.7464H152.606C152.689 46.3598 153.835 47.4489 155.584 47.4489C156.917 47.4489 157.937 46.8438 158.312 45.9766H160.832C160.291 48.1346 158.333 49.5464 155.501 49.5464ZM152.647 42.8909H158.354C158.229 41.459 157.083 40.5111 155.501 40.5111C153.98 40.5111 152.814 41.5598 152.647 42.8909Z" fill="black"/>
<path d="M137.34 53.2377V38.6758H140.006V40.027H140.152C140.443 39.5833 141.443 38.4136 143.442 38.4136C146.504 38.4136 148.607 40.6321 148.607 43.9396C148.607 47.2472 146.524 49.5464 143.525 49.5464C141.589 49.5464 140.547 48.4976 140.193 47.9128H140.048V53.2377H137.34ZM142.921 47.1665C144.671 47.1665 145.858 45.8556 145.858 43.98C145.858 42.0438 144.671 40.7934 142.901 40.7934C141.11 40.7934 139.985 42.185 139.985 43.98C139.985 45.9564 141.235 47.1665 142.921 47.1665Z" fill="black"/>
<path d="M117.878 49.5464C114.65 49.5464 112.359 47.2069 112.359 44.0405C112.359 40.6926 114.671 38.4136 117.878 38.4136C121.398 38.4136 123.314 40.9346 123.314 43.9195V44.7464H114.983C115.067 46.3598 116.212 47.4489 117.961 47.4489C119.294 47.4489 120.315 46.8438 120.69 45.9766H123.21C122.668 48.1346 120.711 49.5464 117.878 49.5464ZM115.025 42.8909H120.732C120.607 41.459 119.461 40.5111 117.878 40.5111C116.358 40.5111 115.192 41.5598 115.025 42.8909Z" fill="black"/>
<path d="M99.9062 49.2841V46.8025L107.487 37.2307V37.0847H100.177V34.6865H110.944V37.1473L103.363 46.7191V46.8859H110.986V49.2841H99.9062Z" fill="black"/>
<path d="M88.7578 49.2842V38.6758H91.3402V39.9665H91.486C91.9234 39.18 93.0063 38.4136 94.5682 38.4136C97.0257 38.4136 98.5252 40.0875 98.5252 42.3464V49.2842H95.8178V43.0321C95.8178 41.7413 94.9639 40.8741 93.7144 40.8741C92.4024 40.8741 91.4652 41.8825 91.4652 43.2136V49.2842H88.7578Z" fill="black"/>
<path d="M81.9446 49.5464C78.7166 49.5464 76.4258 47.2069 76.4258 44.0405C76.4258 40.6926 78.7375 38.4136 81.9446 38.4136C85.4642 38.4136 87.3802 40.9346 87.3802 43.9195V44.7464H79.0499C79.1332 46.3598 80.2786 47.4489 82.028 47.4489C83.3608 47.4489 84.3813 46.8438 84.7561 45.9766H87.2761C86.7346 48.1346 84.777 49.5464 81.9446 49.5464ZM79.0915 42.8909H84.7978C84.6728 41.459 83.5274 40.5111 81.9446 40.5111C80.4244 40.5111 79.2581 41.5598 79.0915 42.8909Z" fill="black"/>
<path d="M63.7852 53.2226V38.6387H66.4509V40.027H66.5967C66.8882 39.5833 67.8879 38.4136 69.8871 38.4136C72.9486 38.4136 75.052 40.6321 75.052 43.9396C75.052 47.2472 72.9694 49.5464 69.9705 49.5464C68.0336 49.5464 66.9924 48.4976 66.6383 47.9128H66.4925V53.2226H63.7852ZM69.3665 47.1665C71.1159 47.1665 72.303 45.8556 72.303 43.98C72.303 42.0438 71.1159 40.7934 69.3457 40.7934C67.5547 40.7934 66.4301 42.185 66.4301 43.98C66.4301 45.9564 67.6796 47.1665 69.3665 47.1665Z" fill="black"/>
<path d="M54.4264 49.5464C49.8511 49.5464 46.4844 46.3069 46.4844 41.9597C46.4844 37.6543 49.8727 34.373 54.448 34.373C59.0233 34.373 62.4116 37.6961 62.4116 41.9597C62.4116 46.2651 59.0017 49.5464 54.4264 49.5464ZM54.448 46.8921C57.3399 46.8921 59.4118 44.8021 59.4118 41.9597C59.4118 39.1591 57.3399 37.0273 54.448 37.0273C51.5345 37.0273 49.4626 39.1591 49.4626 41.9597C49.4626 44.8021 51.5345 46.8921 54.448 46.8921Z" fill="black"/>
<path d="M164.941 34.625H162.314V49.2844H164.941V34.625Z" fill="black"/>
<path d="M124.691 53.2377V38.6758H127.356V40.027H127.502C127.794 39.5833 128.793 38.4136 130.793 38.4136C133.854 38.4136 135.958 40.6321 135.958 43.9396C135.958 47.2472 133.875 49.5464 130.876 49.5464C128.939 49.5464 127.898 48.4976 127.544 47.9128H127.398V53.2377H124.691ZM130.272 47.1665C132.021 47.1665 133.209 45.8556 133.209 43.98C133.209 42.0438 132.021 40.7934 130.251 40.7934C128.46 40.7934 127.336 42.185 127.336 43.98C127.336 45.9564 128.585 47.1665 130.272 47.1665Z" fill="black"/>
<path d="M19.8047 53.2589C22.3863 48.9332 24.58 45.3658 27.3682 40.4764C28.3531 38.8265 30.055 37.8013 32.1559 37.8013H35.457L26.2382 53.2589H19.8047Z" fill="black"/>
<path d="M19.8359 30.7402H39.6441L36.2596 36.455H19.8359V30.7402Z" fill="black"/>
<path d="M29.756 49.6998C30.5009 48.4245 31.6982 47.6323 33.3753 47.6323L39.646 47.6157V53.2593H27.6309C28.3831 52.0099 29.0363 50.9318 29.756 49.6998Z" fill="black"/>
</svg>
