<svg xmlns="http://www.w3.org/2000/svg" width="200" height="84" fill="none" viewBox="0 0 200 84">
  <path fill="#000" fill-rule="evenodd" d="M35.492 29a.487.487 0 0 0-.492.482v14.444c0 .266.22.481.492.481h38.41a.487.487 0 0 0 .492-.481V29.48A.487.487 0 0 0 73.9 29H35.492Zm33.732 10.593a.244.244 0 0 0 .246-.241v-5.296a.244.244 0 0 0-.246-.241H40.17a.244.244 0 0 0-.246.24v5.297c0 .133.11.24.246.24h29.053Z" clip-rule="evenodd"/>
  <path fill="#000" d="M39.924 50.667a.487.487 0 0 0-.492-.482h-3.94a.487.487 0 0 0-.492.482v3.852c0 .265.22.481.492.481h3.94a.487.487 0 0 0 .492-.481v-3.852Zm90.606 0a.487.487 0 0 0-.492-.482h-3.94a.487.487 0 0 0-.492.482v3.852c0 .265.221.481.492.481h3.94a.487.487 0 0 0 .492-.481v-3.852Zm-50.227 0c0-.266.22-.482.493-.482h38.409c.272 0 .492.216.492.482v3.852c0 .265-.22.481-.492.481h-38.41a.487.487 0 0 1-.492-.481v-3.852Z"/>
  <path fill="#000" fill-rule="evenodd" d="M125.606 29.482c0-.266.221-.482.492-.482h38.41c.272 0 .492.216.492.482v14.444c0 .266-.22.481-.492.481h-38.41a.487.487 0 0 1-.492-.481V29.48Zm34.224 4.333c.136 0 .246.108.246.24v5.297c0 .133-.11.24-.246.24h-29.053a.244.244 0 0 1-.247-.24v-5.296c0-.133.111-.241.247-.241h29.053Z" clip-rule="evenodd"/>
  <path fill="#000" d="M80.796 29a.487.487 0 0 0-.493.482v3.851c0 .266.22.482.493.482h33.731c.135 0 .246.108.246.24v5.297c0 .133-.111.24-.246.24H80.796a.487.487 0 0 0-.493.482v3.852c0 .266.22.481.493.481h38.409a.487.487 0 0 0 .492-.481V29.48a.487.487 0 0 0-.492-.481h-38.41Z"/>
</svg>
