<svg xmlns="http://www.w3.org/2000/svg" width="200" height="84" fill="none" viewBox="0 0 200 84">
  <path fill="#000" d="M131.997 74.007V74H132l-.003.006ZM98.081 39.332c3.953-4.026 6.829-8.525 8.909-13.538 2.089-5.038 3.066-10.313 3.155-15.776h21.852V74H68.019V52.149c11.25-.205 20.958-4.2 29.325-11.997H68V10.001h30.081v29.331Zm1.121 21.679c-1.335-.5-2.685-.447-3.94.3-.63.376-.93.985-.978 1.8.311 0 .587.019.857-.006.239-.023.634-.04.678-.162.334-.9 1.096-.917 1.833-.931 1.183-.025 1.744.76 1.408 1.974-.51.023-1.04.025-1.566.078-.64.063-1.293.105-1.911.275-1.143.311-1.775 1.213-1.767 2.358.009 1.104.649 1.94 1.794 2.26 1.436.398 2.744.181 3.809-.973.273.929.812 1.126 2.142.815v-1.12l.007-.006c-.583-.08-.877-.396-.879-.948 0-1.043.018-2.086-.004-3.125-.023-1.126-.32-2.155-1.483-2.59Zm12.912-.22a6.933 6.933 0 0 0-2.195.122c-1.151.245-1.819 1.12-1.772 2.15.685.041 1.338.267 1.814-.606.361-.664 2.208-.648 2.637-.015.247.364.273.898.3 1.363.003.06-.592.184-.915.225-.845.106-1.711.1-2.537.286-1.204.276-1.905 1.286-1.846 2.434.064 1.2.873 2.071 2.122 2.285 1.327.228 2.525.02 3.466-1.062.3.942.837 1.137 2.147.817v-1.167c-.818.113-.904-.313-.885-.907.034-1.087.026-2.174.006-3.26-.028-1.564-.795-2.49-2.342-2.665Zm-4.629.167c-1.185.025-2.409-.314-3.193 1.093-.045-.473-.07-.762-.095-1.037-.891-.12-1.338.235-1.338 1.067v6.793h1.555c.014-.2.028-.336.028-.47 0-1.479-.008-2.961.006-4.44.011-1.229.411-1.622 1.621-1.63.476-.003.952 0 1.416 0v-1.376Zm17.937 7.897h1.446v-7.852h-1.446v7.852ZM85.68 57.329h-.848v11.52h1.6v-4.68l-.006-.002c.38 0 .698.008 1.017 0 1.04-.036 2.092.005 3.118-.137 1.845-.253 2.921-1.584 2.882-3.394-.041-1.835-1.21-3.123-3.109-3.251-1.547-.103-3.102-.045-4.654-.056Zm31.232 11.515h1.541v-5.116h5.275v-1.51h-5.289c0-.973.026-1.892-.007-2.809-.02-.509.191-.625.653-.617 1.157.025 2.317.009 3.475.009.861 0 1.261-.425 1.198-1.274-.003-.041-.041-.078-.08-.15h-6.766v11.467Zm-3.967-3.343c.064.708-.101 1.334-.641 1.81-.654.579-1.458.65-2.279.378-.539-.177-.846-.547-.818-1.14.028-.594.393-.947.921-1.072.512-.123 1.051-.14 1.58-.193.387-.039.773-.058 1.196-.089l.041.306Zm-13.8.007c.081 1.589-.963 2.529-2.536 2.284-.715-.111-1.173-.553-1.187-1.145-.017-.626.37-1.062 1.106-1.212.362-.073.732-.104 1.099-.14.253-.025.51-.027.763-.044.228-.017.456-.041.722-.066l.032.323Zm-12.233-6.71c1.04.036 2.087.008 3.124.086 1.074.078 1.703.776 1.747 1.801.042.957-.553 1.738-1.594 1.85-1.123.119-2.261.094-3.393.088-.128 0-.346-.27-.362-.428-.048-.506-.017-1.017-.017-1.526h-.003c0-.44.017-.881-.005-1.32-.017-.373.097-.565.503-.551Zm40.081-1.335c-2.203-.117-1.669-.205-1.733 1.466-.006.108.036.217.055.325h1.681V57.46l-.003.003Z"/>
</svg>
