<svg xmlns="http://www.w3.org/2000/svg" width="200" height="84" fill="none" viewBox="0 0 200 84">
  <g clip-path="url(#a)">
    <path fill="#000" d="M107.926 38.771c.493 0 .953-.004 1.413 0 .44.005.96-.122 1.296.076.322.19.456.72.667 1.103 1.077 1.958 2.152 3.92 3.229 5.878.057.105.12.206.199.344.06-.096.107-.16.146-.231.52-.927 1.037-1.855 1.565-2.777.095-.166.09-.284-.003-.447-.698-1.216-1.386-2.437-2.076-3.657-.043-.074-.079-.152-.14-.272.133-.008.236-.018.337-.018.593-.002 1.188.032 1.779-.01.453-.034.734.088.913.541.164.414.416.79.654 1.232.303-.531.593-1.015.857-1.514.102-.194.223-.257.433-.253.764.012 1.528.005 2.355.005l-2.346 4.11 1.824 3.317 1.732-3.08c.757-1.347 1.52-2.69 2.265-4.045.13-.237.278-.313.534-.307.74.016 1.481.005 2.279.005-.143.26-.257.467-.374.672-1.765 3.091-3.531 6.181-5.288 9.277-.121.211-.248.288-.482.276a12.78 12.78 0 0 0-1.294 0c-.282.016-.441-.073-.583-.334-.56-1.03-1.148-2.045-1.726-3.065-.063-.112-.131-.222-.22-.372-.368.642-.716 1.245-1.06 1.85-.322.56-.644 1.12-.956 1.688-.088.159-.184.237-.376.232-.516-.015-1.036.004-1.552-.014-.104-.004-.25-.08-.301-.168a4100.89 4100.89 0 0 1-5.612-9.848c-.026-.045-.042-.096-.086-.195l-.002.001Zm-46.51 10.205H48.987v-10.18h12.43v10.18Zm-2.294-2.368v-5.472h-7.823v5.472h7.823Zm-23.87 2.365H33v-10.18h12.392v6.372h-1.395c.378 1.69 1.439 2.806 2.78 3.827h-.483c-.798 0-1.595.01-2.393-.008a.681.681 0 0 1-.418-.176c-1.025-.972-1.615-2.184-1.847-3.608h-6.384v3.773Zm7.87-5.88v-1.959h-7.848v1.959h7.85-.001Zm33.408 3.521v2.328H64.936V38.795h11.588v2.311h-9.298v5.508h9.304Zm64.75 2.376c-.867 0-1.694.01-2.521-.011-.1-.003-.222-.146-.29-.254-1.422-2.247-2.836-4.5-4.253-6.75l-.491-.775-2.066 3.28c-.893 1.419-1.788 2.833-2.671 4.256-.119.191-.244.264-.465.26-.771-.013-1.544-.005-2.371-.005.082-.149.134-.252.195-.349 1.969-3.197 3.943-6.391 5.906-9.592.133-.218.276-.29.519-.284.668.016 1.337-.004 2.005.014.123.004.294.088.357.19 2.033 3.286 4.056 6.58 6.08 9.87.017.029.027.06.066.15Zm-31.707 0c-.865 0-1.684.009-2.501-.01-.104-.002-.234-.13-.3-.233-1.51-2.387-3.013-4.78-4.517-7.17-.07-.11-.143-.219-.236-.362-.084.125-.157.225-.223.33-1.504 2.391-3.012 4.78-4.509 7.175-.124.2-.254.283-.49.277-.762-.016-1.526-.005-2.338-.005.07-.13.115-.224.168-.313 1.973-3.209 3.947-6.418 5.914-9.63.123-.2.249-.288.487-.282.679.017 1.359-.004 2.039.015.123.004.292.09.356.192 2.028 3.278 4.045 6.563 6.064 9.846.022.036.038.077.084.17h.002Zm-17.053-.023c-.125-.047-.215-.074-.301-.113-3.042-1.343-6.082-2.69-9.128-4.028-.214-.095-.289-.21-.277-.442.018-.384-.008-.772.013-1.156.005-.102.088-.252.173-.29 3.133-1.378 6.27-2.745 9.408-4.114.018-.008.041 0 .111 0v1.528c0 .579-.262.975-.786 1.19l-5.457 2.216-.282.117 3.173 1.291c1.028.42 2.055.846 3.087 1.255.203.08.276.18.27.406-.015.702-.006 1.405-.006 2.141l.001-.001Zm70.346-16.147c-.125-.092-.226-.169-.33-.239-1.246-.85-2.489-1.702-3.74-2.543-.195-.131-.267-.273-.263-.51.013-.825.006-1.65.006-2.528.103.052.178.078.242.122 2.23 1.56 4.458 3.123 6.692 4.678.167.117.277.234.24.451-.009.053 0 .11-.002.165-.005.43.118.925-.054 1.269-.17.338-.632.53-.976.77-1.977 1.38-3.957 2.755-5.935 4.13-.051.035-.11.057-.205.105 0-.944-.008-1.855.01-2.765.002-.094.138-.206.236-.274 1.307-.907 2.617-1.807 3.927-2.71.041-.028.08-.063.152-.12v-.001Zm11.1 5.871c-.269-.184-.498-.339-.726-.498-2.063-1.44-4.123-2.883-6.19-4.316a.482.482 0 0 1-.232-.463c.013-.385.014-.772 0-1.156a.446.446 0 0 1 .218-.433 1642.99 1642.99 0 0 0 4.974-3.467c.585-.409 1.165-.825 1.749-1.236.058-.041.126-.066.232-.12 0 .942.006 1.841-.009 2.74-.002.09-.115.2-.205.261-1.27.878-2.546 1.748-3.819 2.62-.086.06-.171.124-.288.21.612.426 1.196.835 1.783 1.239.76.522 1.519 1.044 2.285 1.555.18.12.264.245.261.475-.015.749-.006 1.498-.007 2.247 0 .094-.014.19-.026.341v.001Zm-33.483-.397c.266.192.473.346.684.494 1.369.962 2.769 1.863 4.285 2.577 1.346.634 2.619.537 3.908-.132 1.516-.783 2.935-1.72 4.292-2.758.075-.057.155-.11.287-.203v1.785c0 .882.019.91-.716 1.394a52.83 52.83 0 0 1-3.008 1.867c-1.867 1.062-3.77 1.093-5.694.114a25.22 25.22 0 0 1-3.861-2.4c-.082-.062-.166-.187-.168-.284-.012-.793-.007-1.586-.007-2.456l-.002.002Zm-60.95.5h2.252v10.18h-2.252v-10.18Zm68.788 10.181h-2.251v-3.732h2.251v3.732Z"/>
  </g>
  <defs>
    <clipPath id="a">
      <path fill="#fff" d="M33 27h141v22H33z"/>
    </clipPath>
  </defs>
</svg>
