<svg xmlns="http://www.w3.org/2000/svg" width="200" height="84" fill="none" viewBox="0 0 200 84">
  <path fill="#000" d="M23 39.825 37.073 33l-6.809 14.108H23v-7.282Zm18.271 6.256L31.125 51l4.91-10.168h5.236v5.25Zm13.168-5.362.711.17c3.862.75 5.512 2.064 5.495 4.397 0 2.688-2.453 4.496-6.124 4.496-3.947 0-6.4-1.989-6.4-5.185v-.123h2.558v.116c0 2.023 1.365 3.138 3.842 3.138 2.218 0 3.579-.917 3.579-2.387 0-1.416-1.218-1.938-3.467-2.408l-.708-.15c-3.123-.632-5.202-1.597-5.202-4.326 0-2.606 2.177-4.23 5.71-4.23 3.715 0 6.022 1.822 6.022 4.752v.396h-2.56v-.396c0-1.77-1.197-2.708-3.463-2.708-2 0-3.15.767-3.15 2.105 0 1.415 1.16 1.93 3.157 2.343Zm11.051.127V34.45h-2.494v15.1h2.494V43.1h7.806v6.45h2.473v-15.1h-2.474v6.396H65.49Z"/>
  <path fill="#000" fill-rule="evenodd" d="m105.633 49.55-3.185-5.976a4.399 4.399 0 0 0 2.52-1.622c.624-.82.943-1.833.899-2.863 0-2.828-2-4.64-4.797-4.64h-8.142v15.102h2.498v-5.823h4.47l2.917 5.822h2.82Zm-4.822-8.067h-5.386v-4.775h5.386c1.573 0 2.562.928 2.562 2.388s-.989 2.387-2.562 2.387Zm13.556-7.033c4.022 0 6.196 2.046 6.196 6.14v2.814c0 4.093-2.174 6.14-6.196 6.14h-6.519V34.45h6.519Zm-4.025 12.836h4.045c2.518 0 3.702-1.293 3.702-3.797v-2.984c0-2.5-1.204-3.797-3.702-3.797h-4.045v10.578Z" clip-rule="evenodd"/>
  <path fill="#000" d="M125.231 47.286V34.45h-2.491v15.1h11.569v-2.264h-9.078Z"/>
  <path fill="#000" fill-rule="evenodd" d="M158.542 34.45c2.602 0 4.423 1.531 4.423 3.99 0 2.18-1.399 3.07-2.498 3.388v.215a3.36 3.36 0 0 1 2.562 3.431c0 2.545-1.874 4.094-4.454 4.094h-8.349V34.45h8.316Zm-5.822 6.396h5.563c1.399 0 2.303-.82 2.303-2.07 0-1.253-.925-2.048-2.303-2.048h-5.563v4.118Zm0 6.45h5.607c1.44 0 2.324-.819 2.324-2.091 0-1.273-.884-2.115-2.381-2.115h-5.55v4.206Z" clip-rule="evenodd"/>
  <path fill="#000" d="m171.501 40.89-.707-.171c-2.001-.413-3.158-.928-3.158-2.343 0-1.338 1.147-2.105 3.151-2.105 2.263 0 3.46.938 3.46 2.708v.396h2.545v-.396c0-2.93-2.307-4.751-6.019-4.751-3.508 0-5.695 1.623-5.695 4.23 0 2.728 2.078 3.694 5.199 4.325l.711.15c2.249.47 3.467.992 3.467 2.408 0 1.47-1.361 2.387-3.58 2.387-2.477 0-3.841-1.115-3.841-3.138v-.116h-2.559v.123c0 3.196 2.45 5.185 6.4 5.185 3.672 0 6.125-1.808 6.125-4.496.014-2.333-1.634-3.646-5.499-4.397ZM84.35 34.462l-2.701 9.307-.603 2.265-1.01 3.517h-2.562l4.433-15.101h4.886l4.43 15.1h-2.558l-1.01-3.516-.603-2.265-2.702-9.307Zm57.563 0-2.701 9.307-.602 2.265-1.011 3.517h-2.559l4.43-15.101h4.886l4.434 15.1h-2.562l-1.011-3.516-.602-2.265-2.702-9.307Z"/>
</svg>
