<svg xmlns="http://www.w3.org/2000/svg" width="200" height="84" fill="none" viewBox="0 0 200 84">
  <path fill="#000" d="M35 28.018 63.943 22l16.201 7.61v2.301l-16.2-5.663L35 30.495v-2.477Z"/>
  <path fill="#000" d="m35.003 31.914 27.233-4.071 17.911 5.31v2.3l-17.912-3.54-27.232 3.01v-3.01Z"/>
  <path fill="#000" d="M60.225 33.861 35.003 36.34v2.832l25.222-1.593 19.922 1.593v-2.478L60.225 33.86Zm-25.222 6.723 22.502-.53 22.642.53v2.478l-22.642.885-22.502-.885v-2.477Zm20.752 5.666-20.752-1.77v2.3l20.752 3.363 24.392-3.009V44.48l-24.393 1.77Z"/>
  <path fill="#000" d="m35.003 48.195 18.535 4.071 26.61-3.363v2.832l-26.61 4.07-18.535-5.132v-2.478Z"/>
  <path fill="#000" d="m51.519 57.752-16.516-6.017v2.477L51.519 62l28.628-6.195v-2.477L51.52 57.752ZM87.58 37.037h-2.226a5 5 0 0 0 .282 1.558c.166.466.432.845.764 1.165.333.32.765.568 1.28.742.498.175 1.113.262 1.81.262.599 0 1.147-.072 1.629-.232a3.287 3.287 0 0 0 1.229-.656c.332-.276.581-.611.764-1.019a3.36 3.36 0 0 0 .266-1.325c0-.553-.133-1.019-.399-1.368-.266-.35-.614-.626-1.013-.86a7.1 7.1 0 0 0-1.296-.538 30.388 30.388 0 0 1-1.313-.436c-.398-.146-.73-.306-.996-.495a.838.838 0 0 1-.399-.743c0-.146.017-.277.066-.422a.811.811 0 0 1 .233-.364 1.44 1.44 0 0 1 .465-.262c.2-.058.449-.102.764-.102.3 0 .549.058.748.175.2.116.349.247.465.407.117.175.2.364.25.568.037.154.065.309.091.45l.025.132h2.226c0-.378-.083-.786-.216-1.194a3.724 3.724 0 0 0-.681-1.135c-.3-.335-.698-.611-1.18-.83-.482-.218-1.063-.335-1.728-.335a6.29 6.29 0 0 0-1.777.233 3.422 3.422 0 0 0-1.23.626 2.41 2.41 0 0 0-.697.946 3.22 3.22 0 0 0-.216 1.209c0 .611.133 1.106.399 1.485.265.378.598.684.996.917.399.233.83.422 1.296.553.465.146.897.277 1.296.393.399.117.73.262.997.423.266.174.398.393.398.67 0 .378-.116.684-.349.946-.232.262-.614.378-1.112.378-.632 0-1.097-.16-1.396-.51-.3-.334-.482-.8-.515-1.412Zm6.646-6.638v1.776H96.9v8.415h2.409v-8.415h2.624v-1.776h-7.708Z"/>
  <path fill="#000" fill-rule="evenodd" d="m110.853 40.59-1.047-2.271h-4.934l-.997 2.27h-2.408l4.651-10.19h2.326l4.818 10.19h-2.409Zm-1.927-4.237-1.628-3.567-1.595 3.567h3.223Z" clip-rule="evenodd"/>
  <path fill="#000" d="m116.437 36.499 3.705 4.09h2.741l-4.535-5.11 4.535-5.08h-2.741l-3.705 4.076V30.4h-2.408v10.19h2.408V36.5Zm7.46 4.091V30.399h2.409v10.19h-2.409Zm6.838-6.916 5.3 6.916h2.309V30.399h-2.409v6.595l-5.084-6.595h-2.525v10.19h2.409v-6.915Zm14.663 3.189v-1.776h6.213v1.324c-.1.656-.282 1.252-.565 1.777a4.37 4.37 0 0 1-1.113 1.383 4.976 4.976 0 0 1-1.694.888c-.665.204-1.429.305-2.276.305-.831 0-1.612-.13-2.31-.407a5.78 5.78 0 0 1-1.827-1.136 4.992 4.992 0 0 1-1.229-1.674c-.299-.64-.432-1.34-.432-2.067 0-.728.133-1.427.432-2.068a5.407 5.407 0 0 1 1.212-1.688 5.901 5.901 0 0 1 1.844-1.122 6.26 6.26 0 0 1 2.31-.422c1.561 0 2.824.335 3.804 1.005.964.67 1.595 1.63 1.861 2.912h-2.21c-.166-.612-.548-1.078-1.163-1.413-.614-.334-1.379-.51-2.276-.51-.481 0-.93.088-1.345.248-.416.175-.781.393-1.08.685-.316.29-.565.64-.731 1.048a3.245 3.245 0 0 0-.266 1.34c0 .494.083.931.266 1.339.166.407.415.771.731 1.062.299.292.664.524 1.08.685.415.174.864.247 1.345.247.465 0 .881-.044 1.246-.145.366-.102.665-.248.931-.423a2.48 2.48 0 0 0 .648-.626 3.18 3.18 0 0 0 .398-.771h-3.804Zm-59.546 6.824v10.191h2.41v-3.843h3.87v-1.776h-3.87v-2.606h4.202v-1.966h-6.612Z"/>
  <path fill="#000" fill-rule="evenodd" d="m102.125 53.878-1.047-2.27h-4.934l-.997 2.27h-2.409l4.652-10.19h2.326l4.818 10.19h-2.409Zm-1.928-4.236-1.628-3.567-1.594 3.567h3.222Z" clip-rule="evenodd"/>
  <path fill="#000" d="M116.505 49.904h-2.359c-.1.306-.232.582-.415.844-.2.262-.432.48-.715.67-.282.19-.614.335-.98.437-.382.116-.797.16-1.262.16-.515 0-.98-.073-1.396-.248a3.029 3.029 0 0 1-1.08-.684 3.068 3.068 0 0 1-.697-1.019 3.225 3.225 0 0 1-.25-1.281 3.205 3.205 0 0 1 .947-2.3c.299-.292.648-.51 1.08-.685a3.86 3.86 0 0 1 1.396-.247c.897 0 1.644.204 2.242.582.582.379.964.888 1.13 1.529h2.376a4.536 4.536 0 0 0-.631-1.63 5.35 5.35 0 0 0-1.246-1.34 6.21 6.21 0 0 0-1.761-.888 6.726 6.726 0 0 0-2.127-.335c-.831 0-1.611.145-2.309.422a5.89 5.89 0 0 0-1.844 1.121 5.41 5.41 0 0 0-1.213 1.689c-.299.64-.432 1.34-.432 2.067 0 .728.133 1.427.432 2.068.299.64.698 1.208 1.229 1.674.515.48 1.13.859 1.828 1.136.698.276 1.478.407 2.309.407.764 0 1.462-.102 2.127-.32a5.54 5.54 0 0 0 1.744-.874 5.271 5.271 0 0 0 1.246-1.325 4.4 4.4 0 0 0 .631-1.63Zm4.252 3.974h-2.409v-10.19h2.409v10.19Zm2.02 0h6.114v-1.776h-3.705v-8.415h-2.409v10.191Zm10.002 0h-2.409v-10.19h2.409v10.19Zm1.422-10.191v1.776h2.675v8.415h2.409v-8.415h2.625v-1.776h-7.709Zm11.557 10.191h-2.409v-10.19h2.409v10.19Zm2.02 0h6.945v-1.863h-4.536v-2.33h4.203V47.91h-4.203v-2.358h4.536v-1.864h-6.945v10.191Zm8.198-3.552h2.226c.033.611.216 1.077.515 1.412.299.35.764.51 1.396.51.498 0 .88-.117 1.113-.379.232-.262.348-.568.348-.946 0-.277-.132-.495-.398-.67a4.233 4.233 0 0 0-.997-.422 70.245 70.245 0 0 1-1.296-.393 5.555 5.555 0 0 1-1.296-.553 3.135 3.135 0 0 1-.996-.917c-.266-.379-.399-.874-.399-1.486 0-.436.066-.83.216-1.208a2.4 2.4 0 0 1 .698-.946c.315-.262.731-.48 1.229-.626a6.29 6.29 0 0 1 1.778-.233c.664 0 1.246.116 1.727.335.482.218.881.495 1.18.83.299.349.531.727.681 1.135.133.408.216.816.216 1.194h-2.226l-.01-.052-.015-.08c-.026-.142-.054-.296-.092-.45a1.746 1.746 0 0 0-.249-.568 1.47 1.47 0 0 0-.465-.408c-.199-.116-.448-.175-.747-.175a2.71 2.71 0 0 0-.765.102c-.199.073-.349.16-.465.262a.81.81 0 0 0-.232.364c-.05.146-.067.277-.067.423 0 .32.133.567.399.742.266.19.598.35.997.495.398.146.847.291 1.312.437.465.145.897.32 1.296.539.399.233.747.51 1.013.858.266.35.399.816.399 1.37 0 .494-.1.93-.266 1.324a2.77 2.77 0 0 1-.764 1.019 3.29 3.29 0 0 1-1.229.655c-.482.16-1.03.233-1.628.233-.698 0-1.313-.087-1.811-.262-.515-.175-.947-.422-1.28-.742a2.999 2.999 0 0 1-.764-1.165 4.986 4.986 0 0 1-.282-1.558Z"/>
</svg>
