<svg width="200" height="84" viewBox="0 0 200 84" fill="none" xmlns="http://www.w3.org/2000/svg">
	<g clip-path="url(#clip0_2102_72859)">
		<path d="M81.0315 53.343C78.3031 53.2796 75.7046 52.7726 73.6258 50.9347C72.6513 50.1108 72.0017 48.97 71.2222 47.8927C70.8974 47.3857 70.7674 46.7519 71.2871 46.2449C71.8068 45.6745 72.5214 45.5478 73.236 45.8646C73.7557 46.1182 74.3404 46.435 74.6652 46.8787C76.5491 49.6672 79.3424 50.2376 82.5256 49.9207C83.1103 49.8573 83.6949 49.7306 84.2796 49.5404C85.5138 49.0968 86.1635 48.1462 86.3584 46.942C86.4883 45.9914 86.0336 45.1041 85.0591 44.7873C83.3051 44.2169 81.5512 43.9 79.7972 43.3296C78.1082 42.8226 76.3542 42.3156 74.7301 41.5551C73.171 40.858 72.1966 39.5905 71.8068 37.9427C71.2871 35.7879 72.3265 33.5064 74.4053 32.2389C76.9388 30.6545 79.7322 30.5911 82.6555 30.908C85.189 31.2249 87.2678 32.2389 88.5021 34.4571C88.762 34.8373 88.8919 35.3443 89.0218 35.7879C89.2817 36.4851 89.1517 37.0555 88.5671 37.4991C87.9174 37.9427 87.2029 38.0695 86.5532 37.5625C86.0985 37.2456 85.7087 36.802 85.4489 36.3583C84.6044 34.9641 83.3701 34.2669 81.746 34.0768C80.2519 33.9501 78.8227 33.9501 77.3936 34.3937C76.2243 34.7739 75.6396 35.5978 75.5746 36.7386C75.5097 37.7526 76.0943 38.5131 76.9388 38.8933C78.3031 39.4637 79.7322 39.9074 81.1614 40.2876C82.7854 40.7312 84.4745 40.9847 86.0985 41.5551C89.9962 42.9494 91.3604 46.6885 89.1517 50.1108C87.9824 51.8853 86.1635 52.5825 84.0847 52.9627C83.0453 53.2162 82.0059 53.2796 81.0315 53.343Z" fill="white"/>
		<path d="M120.269 41.1745C120.334 40.414 120.334 39.7169 120.399 38.9564C120.464 37.879 121.114 37.2452 122.088 37.1819C123.063 37.1819 123.777 37.8156 123.842 38.893C123.907 40.4774 123.907 41.9984 123.907 43.5828C123.907 45.9911 123.907 48.4627 123.842 50.871C123.777 52.4554 122.738 53.2159 121.179 52.899C120.594 52.7722 120.464 52.3286 120.464 51.885C120.399 50.6808 120.269 49.4767 120.204 48.1458C120.074 48.3993 119.944 48.5895 119.879 48.7796C118.775 52.2019 115.787 53.5961 112.474 53.1525C107.602 52.5187 104.678 48.0825 105.783 43.2025C106.822 38.6395 111.434 35.9144 115.982 37.1819C118.06 37.7522 119.425 39.2099 120.269 41.1745ZM109.161 44.9137C109.161 48.2726 111.304 50.4273 114.617 50.4273C118.19 50.4273 120.269 48.4627 120.204 44.977C120.139 42.0618 118.385 39.6535 114.423 39.7803C111.045 39.8436 109.161 41.6181 109.161 44.9137Z" fill="white"/>
		<path d="M158.076 41.3013C158.271 40.921 158.466 40.5407 158.661 40.2239C161 36.2946 167.171 35.7242 169.9 39.2732C170.484 40.0337 170.939 41.1111 171.004 41.9984C171.134 44.977 171.134 47.8923 171.069 50.871C171.069 52.1385 170.354 52.8356 169.315 52.8356C168.276 52.8356 167.626 52.0751 167.561 50.7442C167.496 48.3993 167.496 45.991 167.496 43.6461C167.431 40.0337 164.508 39.4634 161.909 39.9704C160.22 40.2872 158.986 41.3646 158.076 42.6955C157.882 42.949 157.817 43.3926 157.817 43.7095C157.817 46.0544 157.817 48.4627 157.817 50.8076C157.817 51.6315 157.297 52.392 156.582 52.5821C155.868 52.8356 155.153 52.6455 154.698 52.0117C154.439 51.6948 154.309 51.1878 154.309 50.7442C154.309 46.8149 154.244 42.8856 154.309 38.9564C154.309 37.7522 155.088 37.0551 156.128 37.0551C157.102 37.1185 157.817 37.879 157.817 39.0197C157.817 39.7169 157.817 40.3506 157.817 41.0478C157.947 41.2379 158.012 41.3013 158.076 41.3013Z" fill="white"/>
		<path d="M96.2327 37.2443C96.2327 36.4838 96.2327 35.7867 96.2327 35.1529C96.2327 33.9488 96.9473 33.1249 97.9867 33.0615C98.8961 32.9982 99.6757 33.7587 99.8056 34.8994C99.8706 35.4064 99.8706 35.9768 99.8056 36.4838C99.7406 37.0542 99.9355 37.2443 100.52 37.2443C101.105 37.2443 101.625 37.2443 102.209 37.3077C103.054 37.3711 103.573 37.8781 103.638 38.5752C103.703 39.2723 103.184 39.8427 102.404 40.0329C101.819 40.1596 101.235 40.1596 100.65 40.1596C100 40.0962 99.7406 40.2864 99.7406 40.9835C99.8056 43.9621 99.8056 46.8774 99.8056 49.8561C99.8056 50.4264 99.8056 50.9968 99.7406 51.5038C99.6107 52.2643 98.8961 52.8981 98.1166 52.9615C97.402 53.0248 96.6225 52.5178 96.3626 51.7573C96.2327 51.3137 96.1677 50.8701 96.1677 50.4264C96.1677 47.321 96.1677 44.2156 96.1677 41.1102C96.1677 40.8567 96.1677 40.5399 96.1677 40.1596C95.4531 40.1596 94.7386 40.1596 94.0889 40.1596C93.1795 40.1596 92.335 39.4625 92.335 38.702C92.335 37.9415 93.1145 37.3077 94.0889 37.3077C94.7386 37.2443 95.3882 37.2443 96.2327 37.2443Z" fill="white"/>
		<path d="M131.766 42.0623C131.766 45.0409 131.766 48.0196 131.766 50.9982C131.766 52.139 131.117 52.8361 129.947 52.8995C129.103 52.9628 128.453 52.3291 128.323 51.2517C128.258 50.9348 128.258 50.5546 128.258 50.2377C128.258 44.5973 128.258 38.9569 128.258 33.3164C128.258 32.7461 128.388 31.9855 128.778 31.6053C129.103 31.225 129.817 31.0349 130.337 31.0349C130.987 31.0349 131.506 31.5419 131.636 32.239C131.701 32.5559 131.701 32.9362 131.701 33.2531C131.701 36.2317 131.701 39.147 131.766 42.0623Z" fill="white"/>
		<path d="M132.936 44.0898C133.26 43.5194 133.39 42.8857 133.845 42.5054C135.534 40.8576 137.223 39.3366 138.977 37.7522C139.757 37.0551 140.601 37.0551 141.186 37.6889C141.9 38.386 141.835 39.2733 141.056 39.9704C139.692 41.2379 138.327 42.442 136.898 43.6462C136.379 44.0898 136.508 44.3433 136.898 44.7236C138.652 46.4981 140.406 48.336 142.16 50.1105C142.615 50.6175 142.94 51.1879 142.615 51.8216C142.355 52.2652 141.835 52.6455 141.381 52.7722C140.991 52.899 140.406 52.6455 140.081 52.392C137.938 50.2372 135.794 48.0191 133.715 45.8009C133.39 45.3573 133.195 44.7236 132.936 44.0898Z" fill="white"/>
		<path d="M146.449 44.9147C146.449 43.0135 146.449 41.0488 146.449 39.1476C146.449 38.3237 146.839 37.8167 147.553 37.4364C148.138 37.1196 148.722 37.2463 149.242 37.6266C149.567 37.9434 149.827 38.3871 149.957 38.7673C150.087 39.2743 150.087 39.8447 150.087 40.4151C150.087 43.5839 150.087 46.7526 150.087 49.9214C150.087 50.4284 150.022 50.9988 149.957 51.5058C149.827 52.3931 149.112 52.9001 148.203 52.9001C147.423 52.9001 146.709 52.3931 146.579 51.5058C146.514 51.1255 146.449 50.6819 146.449 50.2383C146.449 48.4638 146.449 46.6893 146.449 44.9147Z" fill="white"/>
		<path d="M148.138 30.5903C149.437 30.5903 150.282 31.2241 150.282 32.2381C150.282 33.2521 149.372 33.9492 148.073 33.8859C146.969 33.8859 146.124 33.1887 146.189 32.1747C146.124 31.1607 146.904 30.5903 148.138 30.5903Z" fill="white"/>
		<path fill-rule="evenodd" clip-rule="evenodd" d="M38.4384 28.0913C34.4783 28.0913 31.2681 31.3016 31.2681 35.2616V48.7358C31.2681 52.6959 34.4783 55.9061 38.4384 55.9061H52.4992C56.4593 55.9061 59.6695 52.6959 59.6695 48.7358V35.2616C59.6695 31.3016 56.4593 28.0913 52.4992 28.0913H38.4384ZM46.9005 34.1916C46.3817 34.1916 45.8729 34.1752 45.3722 34.159C44.2951 34.1241 43.2548 34.0905 42.23 34.2243C40.1283 34.4857 38.6271 36.4133 38.6271 38.5043C38.6271 40.6606 40.0949 42.4249 42.2967 42.8496C42.3693 42.8597 42.4451 42.873 42.5221 42.8866L42.5221 42.8866C42.6929 42.9166 42.8697 42.9476 43.0307 42.9476C43.1013 42.9515 43.1734 42.9535 43.2456 42.9555L43.2457 42.9555L43.2458 42.9555L43.246 42.9555C43.7871 42.9708 44.3357 42.9863 44.3651 43.7644C44.3984 44.3525 43.8647 44.6139 42.8972 44.5485C39.8614 44.3852 37.2926 42.0981 36.9924 39.4191C36.5921 35.7272 38.994 33.2768 41.863 32.6234C42.0966 32.558 42.3634 32.558 42.597 32.558C43.2877 32.558 43.9746 32.5544 44.6604 32.5508H44.6604H44.6605H44.6605C46.0282 32.5435 47.3911 32.5363 48.7687 32.558C51.5043 32.558 54.3399 35.3351 54.3066 37.9815C54.3066 38.3082 54.1731 38.733 53.9396 38.8637C53.7394 38.9943 53.239 38.8637 53.0055 38.7003C51.571 37.7528 50.003 37.2954 48.3016 37.2301C47.3008 37.1974 46.9005 36.7727 46.8671 35.7925C46.9005 35.3025 46.9005 34.7797 46.9005 34.1916ZM49.2024 49.5473C48.1856 49.7022 47.1381 49.6622 46.0393 49.6203C45.5159 49.6004 44.9808 49.58 44.4318 49.58V47.979C44.3651 47.0316 43.9648 46.6395 43.0307 46.6068C41.3293 46.5415 39.7613 46.0514 38.3268 45.1366C38.0599 44.9733 37.5595 44.8426 37.3594 44.9733C37.1258 45.104 37.0258 45.5614 36.9924 45.8881C36.959 46.1821 37.0258 46.5415 37.1258 46.8355C37.9599 49.58 40.1617 51.2789 43.1308 51.3116C44.8655 51.3442 46.6336 51.3442 48.3684 51.3116C51.0372 51.2789 53.3391 49.58 54.1398 47.1296C54.9071 44.7446 54.0397 42.0328 51.938 40.4973C50.8037 39.6805 49.4693 39.2884 48.0348 39.2884C47.4676 39.2884 47.0006 39.4518 46.9672 40.0725C46.9339 40.7586 47.4343 40.922 48.0348 40.922C48.2683 40.922 48.4685 40.922 48.702 40.9547C50.9038 41.1834 52.6052 42.8823 52.7053 44.9733C52.8053 47.2603 51.4709 49.1879 49.2024 49.5473Z" fill="white"/>
	</g>
	<defs>
		<clipPath id="clip0_2102_72859">
			<rect width="142.007" height="30.04" fill="white" transform="translate(28.9966 26.9797)"/>
		</clipPath>
	</defs>
</svg>
