<svg xmlns="http://www.w3.org/2000/svg" width="200" height="84" fill="none" viewBox="0 0 200 84">
  <g clip-path="url(#a)">
    <path fill="#000" d="M81.467 53.451c-2.594-.06-5.064-.55-7.04-2.325-.927-.795-1.544-1.896-2.285-2.936-.31-.49-.433-1.101.062-1.59.494-.552 1.173-.674 1.852-.368.494.245 1.05.55 1.359.979 1.79 2.692 4.446 3.242 7.472 2.937a8.156 8.156 0 0 0 1.668-.367c1.173-.429 1.79-1.346 1.976-2.509.123-.918-.309-1.774-1.235-2.08-1.668-.55-3.335-.857-5.002-1.407-1.606-.49-3.273-.98-4.817-1.713-1.483-.673-2.409-1.897-2.78-3.488-.493-2.08.495-4.282 2.47-5.506 2.41-1.53 5.065-1.59 7.844-1.285 2.408.306 4.385 1.285 5.558 3.426.247.367.37.857.494 1.285.247.673.124 1.224-.432 1.652-.618.428-1.297.55-1.915.061a3.768 3.768 0 0 1-1.05-1.162c-.802-1.346-1.976-2.02-3.52-2.203-1.42-.122-2.779-.122-4.137.306-1.112.367-1.668 1.163-1.73 2.264-.061.979.495 1.713 1.297 2.08 1.297.55 2.656.979 4.015 1.346 1.543.428 3.15.673 4.693 1.224 3.705 1.346 5.002 4.955 2.903 8.26-1.112 1.712-2.841 2.385-4.817 2.752-.989.245-1.977.306-2.903.367Zm37.301-11.746c.062-.734.062-1.407.124-2.142.062-1.04.679-1.652 1.606-1.713.926 0 1.605.612 1.667 1.652.062 1.53.062 2.998.062 4.528 0 2.325 0 4.71-.062 7.035-.062 1.53-1.05 2.264-2.532 1.958-.556-.122-.679-.55-.679-.979-.062-1.162-.186-2.325-.247-3.61-.124.245-.247.429-.309.613-1.05 3.303-3.891 4.65-7.04 4.221-4.632-.612-7.411-4.895-6.361-9.605.988-4.405 5.372-7.036 9.695-5.813 1.977.55 3.274 1.958 4.076 3.855Zm-10.56 3.61c0 3.242 2.038 5.322 5.188 5.322 3.396 0 5.372-1.896 5.311-5.261-.062-2.815-1.73-5.14-5.497-5.017-3.211.06-5.002 1.774-5.002 4.955Zm46.503-3.488c.185-.367.37-.734.556-1.04 2.223-3.793 8.09-4.344 10.684-.918.555.734.988 1.774 1.049 2.63.124 2.876.124 5.69.062 8.566 0 1.224-.679 1.897-1.667 1.897s-1.606-.734-1.668-2.02c-.061-2.263-.061-4.588-.061-6.851-.062-3.488-2.841-4.038-5.311-3.549-1.606.306-2.78 1.346-3.644 2.63-.185.246-.247.674-.247.98v6.852c0 .796-.494 1.53-1.174 1.713-.679.245-1.358.061-1.79-.55-.247-.306-.371-.796-.371-1.224 0-3.793-.062-7.587 0-11.38 0-1.162.741-1.835 1.729-1.835.927.06 1.606.795 1.606 1.896v1.958c.123.184.185.245.247.245Zm-58.793-3.916v-2.019c0-1.162.68-1.957 1.668-2.019.864-.06 1.605.673 1.729 1.775.062.49.062 1.04 0 1.53-.062.55.123.733.68.733.555 0 1.049 0 1.605.062.803.06 1.297.55 1.359 1.223.061.673-.433 1.224-1.174 1.407-.556.123-1.111.123-1.667.123-.618-.061-.865.122-.865.795.062 2.876.062 5.69.062 8.566 0 .55 0 1.1-.062 1.59-.123.734-.803 1.346-1.544 1.407-.68.062-1.42-.428-1.667-1.162a4.618 4.618 0 0 1-.186-1.285v-9.911H93.88c-.864 0-1.667-.673-1.667-1.407 0-.735.741-1.346 1.667-1.346.618-.062 1.236-.062 2.038-.062Zm33.781 4.65v8.627c0 1.1-.617 1.774-1.729 1.835-.803.061-1.42-.55-1.544-1.59-.062-.306-.062-.674-.062-.98V34.118c0-.55.124-1.285.494-1.652.309-.367.988-.55 1.482-.55.618 0 1.112.489 1.236 1.162.061.306.061.673.061.979 0 2.875 0 5.69.062 8.504Zm1.112 1.958c.308-.55.432-1.163.864-1.53 1.606-1.59 3.211-3.059 4.879-4.588.741-.673 1.544-.673 2.1-.061.679.673.617 1.53-.124 2.202a108.989 108.989 0 0 1-3.952 3.549c-.494.428-.371.673 0 1.04 1.667 1.713 3.335 3.487 5.002 5.2.432.49.741 1.04.432 1.652a2.149 2.149 0 0 1-1.173.918c-.371.122-.926-.123-1.235-.367a295.355 295.355 0 0 1-6.052-6.363c-.309-.428-.494-1.04-.741-1.652Zm12.845.795v-5.567c0-.795.371-1.285 1.05-1.652.556-.306 1.112-.184 1.606.184.309.305.556.734.679 1.1.124.49.124 1.04.124 1.592v9.177c0 .49-.062 1.04-.124 1.53-.123.856-.803 1.345-1.667 1.345-.741 0-1.421-.49-1.544-1.346a7.436 7.436 0 0 1-.124-1.223v-5.14Zm1.606-13.827c1.235 0 2.038.612 2.038 1.591s-.865 1.652-2.1 1.59c-1.05 0-1.853-.672-1.791-1.651-.062-.98.679-1.53 1.853-1.53ZM53.16 29.074a8 8 0 0 1 8 8v10.852a8 8 0 0 1-8 8h-11a8 8 0 0 1-8-8V37.073a8 8 0 0 1 8-8h11ZM50.1 39.882c-.54 0-.984.157-1.016.756-.032.663.445.82 1.016.82.221 0 .412 0 .633.032 2.094.22 3.71 1.861 3.806 3.88.095 2.208-1.174 4.068-3.33 4.415-.967.15-1.962.112-3.007.071a37.745 37.745 0 0 0-1.528-.039v-1.546c-.064-.914-.444-1.292-1.332-1.324a8.71 8.71 0 0 1-4.472-1.42c-.254-.157-.73-.283-.92-.157-.222.126-.317.568-.348.883-.032.284.031.63.127.915.792 2.649 2.886 4.29 5.709 4.321 1.648.032 3.33.032 4.978 0a5.826 5.826 0 0 0 5.487-4.038c.73-2.302-.096-4.92-2.093-6.402-1.079-.789-2.347-1.167-3.71-1.167Zm-3.208-6.504c-.652.003-1.306.007-1.962.007-.222 0-.476 0-.698.062-2.727.63-5.01 2.997-4.63 6.56.285 2.587 2.727 4.795 5.613 4.953.92.063 1.427-.19 1.395-.757-.028-.751-.549-.767-1.063-.781a7.567 7.567 0 0 1-.205-.008c-.153 0-.321-.03-.484-.059-.073-.013-.145-.026-.213-.036-2.094-.41-3.489-2.113-3.489-4.194 0-2.019 1.427-3.88 3.425-4.132.974-.13 1.963-.097 2.987-.064.476.016.96.033 1.453.033 0 .567 0 1.072-.032 1.545.032.946.412 1.356 1.364 1.387 1.617.063 3.108.506 4.472 1.42.222.158.698.283.888.157.222-.126.349-.536.349-.851.031-2.555-2.665-5.235-5.265-5.235-1.31-.021-2.605-.014-3.905-.007Z"/>
  </g>
  <defs>
    <clipPath id="a">
      <path fill="#fff" d="M32 28h135v29H32z"/>
    </clipPath>
  </defs>
</svg>
