<svg xmlns="http://www.w3.org/2000/svg" width="200" height="84" fill="none" viewBox="0 0 200 84">
  <path fill="#000" d="m28 28.002 17.306-5.625v38.94C32.945 56.126 28 46.175 28 40.55V28.002Z"/>
  <path fill="url(#a)" d="m62.614 28.002-17.306-5.625v38.94c12.361-5.192 17.306-15.143 17.306-20.767V28.002Z"/>
  <path fill="#000" d="M93.005 31.563h6.864v3.845c2.248-3.456 4.836-3.845 8.625-3.845v6.794h-1.726c-4.539 0-6.712 2.136-6.712 6.368v7.222h-7.051V31.563Zm38.39 20.383h-7.049v-1.943c-1.54 1.786-3.637 2.562-6.224 2.562-4.912 0-7.689-2.912-7.689-8.269V31.562h7.049v11.144c0 2.522 1.238 3.997 3.337 3.997s3.526-1.438 3.526-3.882v-11.26h7.049v20.385h.001Zm1.723-6.292h6.603c.301 1.475 1.313 2.095 3.749 2.095 1.988 0 3.151-.465 3.151-1.319 0-.661-.564-1.089-2.174-1.438l-5.325-1.204c-3.563-.813-5.364-2.871-5.364-6.173 0-4.35 3.187-6.602 9.375-6.602 6.188 0 9.225 2.194 9.752 6.894h-6.562c-.111-1.241-1.388-2-3.487-2-1.687 0-2.773.542-2.773 1.359 0 .699.711 1.241 2.139 1.593l5.587 1.36c3.674.892 5.439 2.757 5.439 5.785 0 4.194-3.639 6.679-9.823 6.679-6.185 0-10.276-2.679-10.276-7.03h-.011ZM172 37.902v-6.34h-17.401v6.344h5.192v14.04h7.014V37.902H172Zm-80.958 0v-6.34h-17.4v6.344h5.193v14.04h7.015V37.902h5.192Z"/>
  <defs>
    <linearGradient id="a" x1="58.017" x2="44.943" y1="19.651" y2="60.785" gradientUnits="userSpaceOnUse">
      <stop offset=".02"/>
      <stop offset=".08" stop-opacity=".35"/>
      <stop offset=".16" stop-opacity=".52"/>
      <stop offset=".42" stop-opacity=".57"/>
      <stop offset=".68"/>
      <stop offset=".9"/>
    </linearGradient>
  </defs>
</svg>
