<svg xmlns="http://www.w3.org/2000/svg" width="200" height="84" fill="none" viewBox="0 0 200 84">
  <path fill="#000" d="M61.946 41.903a5.76 5.76 0 0 1-.615 2.588l-1.54 1.81a5.345 5.345 0 0 1-2.485.596 4.311 4.311 0 0 1-2.485-.596 4.64 4.64 0 0 1-1.64-1.81 5.763 5.763 0 0 1 0-5.176 4.633 4.633 0 0 1 1.553-1.786 5.35 5.35 0 0 1 2.485-.596 4.28 4.28 0 0 1 2.485.596 4.641 4.641 0 0 1 1.627 1.786c.405.805.615 1.69.615 2.588Z"/>
  <path fill="#000" fill-rule="evenodd" d="M51.566 62h21.779a9.812 9.812 0 0 0 6.721-2.774 9.388 9.388 0 0 0 2.845-6.57V31.332a9.164 9.164 0 0 0-.732-3.575 9.333 9.333 0 0 0-2.075-3.029 9.57 9.57 0 0 0-3.102-2.021A9.74 9.74 0 0 0 73.345 22H51.541a9.741 9.741 0 0 0-3.655.716 9.571 9.571 0 0 0-3.097 2.03 9.33 9.33 0 0 0-2.067 3.033A9.166 9.166 0 0 0 42 31.356v21.312a9.166 9.166 0 0 0 .732 3.575 9.333 9.333 0 0 0 2.075 3.029 9.571 9.571 0 0 0 3.102 2.021 9.74 9.74 0 0 0 3.657.707Zm1.826-11.543a12.36 12.36 0 0 0 3.877.607 12.288 12.288 0 0 0 3.888-.607 11.705 11.705 0 0 0 3.057-1.98 7.28 7.28 0 0 0 2.025-2.99 9.277 9.277 0 0 0 .608-3.584 11.03 11.03 0 0 0-.633-3.56 11.151 11.151 0 0 0-2.025-2.977 6.332 6.332 0 0 0-3.056-2.017 12.69 12.69 0 0 0-7.74 0 11.2 11.2 0 0 0-3.044 2.017 7.08 7.08 0 0 0-2.038 2.952 9.352 9.352 0 0 0-.608 3.585c.002 1.219.208 2.43.608 3.584a15.78 15.78 0 0 0 2.038 2.99 6.135 6.135 0 0 0 3.044 1.98Zm17.916.607h4.67v-18.31h-3.043l-5.293 2.612.808 3.985 2.858-1.215v12.928Zm44.364 0a12.37 12.37 0 0 1-3.876-.607 6.137 6.137 0 0 1-3.044-1.98 11.174 11.174 0 0 1-2.037-2.99 11.03 11.03 0 0 1-.609-3.584 9.344 9.344 0 0 1 .609-3.585 7.08 7.08 0 0 1 2.037-2.952 11.22 11.22 0 0 1 3.044-1.993 12.69 12.69 0 0 1 7.74 0 6.33 6.33 0 0 1 3.056 1.993c.835.88 1.518 1.884 2.026 2.977.401 1.146.611 2.348.621 3.56a9.285 9.285 0 0 1-.609 3.584 7.28 7.28 0 0 1-2.025 2.99 11.707 11.707 0 0 1-3.056 1.98c-1.25.408-2.559.614-3.877.607Zm0-4.18a5.499 5.499 0 0 0 2.485-.607 4.64 4.64 0 0 0 1.628-1.786 5.77 5.77 0 0 0 .615-2.588c0-.898-.211-1.783-.615-2.588a4.64 4.64 0 0 0-1.628-1.786 4.274 4.274 0 0 0-2.485-.596 5.346 5.346 0 0 0-2.484.596 4.629 4.629 0 0 0-1.615 1.786 5.758 5.758 0 0 0 0 5.176 4.64 4.64 0 0 0 1.652 1.81c.739.427 1.591.63 2.447.584Z" clip-rule="evenodd"/>
  <path fill="#000" d="M88.191 50.858V33.142h4.075l8.125 10.73v-10.73h4.063v17.716h-4.261L92.266 40.31v10.547h-4.075Z"/>
  <path fill="#000" fill-rule="evenodd" d="M126.655 33.142v17.934h7.566a9.014 9.014 0 0 0 4.684-1.215 8.27 8.27 0 0 0 3.218-3.17 8.523 8.523 0 0 0 1.242-4.582 8.523 8.523 0 0 0-1.242-4.58 8.251 8.251 0 0 0-3.255-3.172 9.155 9.155 0 0 0-4.684-1.215h-7.529Zm4.684 3.986h2.845v-.049a4.631 4.631 0 0 1 3.255 1.215 5.465 5.465 0 0 1 1.242 3.585 5.08 5.08 0 0 1-1.242 3.584 3.72 3.72 0 0 1-1.448 1.096 3.806 3.806 0 0 1-1.807.29h-2.845v-9.721Z" clip-rule="evenodd"/>
  <path fill="#000" d="M144.769 50.858V33.142h12.771v3.791h-8.299v2.977h7.33v3.779h-7.119v3.39H158v3.779h-13.231Z"/>
</svg>
