<svg width="41" height="41" viewBox="0 0 41 41" fill="none" xmlns="http://www.w3.org/2000/svg">
<rect y="0.00366211" width="40.0018" height="40.0018" rx="20.0009" fill="black"/>
<path d="M30.8356 25.1607C30.8356 23.7351 28.5163 22.4965 25.1063 21.8672V21.8681C23.6248 22.2518 21.8751 22.473 20.0018 22.473C18.1284 22.473 16.3788 22.2518 14.8973 21.8672C11.4882 22.4965 9.16797 23.7351 9.16797 25.1607C9.16797 27.2227 14.0188 28.8938 20.0018 28.8938C25.9848 28.8938 30.8356 27.2236 30.8356 25.1607Z" fill="white"/>
<path d="M28.6923 18.4916C28.6923 17.317 26.6971 16.3031 23.8009 15.821C22.6877 16.1027 21.3894 16.2652 20.0018 16.2652C18.6142 16.2652 17.3159 16.1036 16.2027 15.821C13.3065 16.3031 11.3113 17.3179 11.3113 18.4916C11.3113 20.1302 15.2024 21.4591 20.0018 21.4591C24.8012 21.4591 28.6923 20.1302 28.6923 18.4916Z" fill="white"/>
<path d="M26.5499 13.0846C26.5499 11.8432 23.6356 10.8375 20.0415 10.8375C16.4474 10.8375 13.5331 11.8432 13.5331 13.0846C13.5331 14.3251 16.4474 15.3308 20.0415 15.3308C23.6356 15.3308 26.5499 14.3251 26.5499 13.0846Z" fill="white"/>
</svg>
