<svg width="48" height="48" viewBox="0 0 48 48" fill="none" xmlns="http://www.w3.org/2000/svg">
<path d="M24 48C37.2548 48 48 37.2548 48 24C48 10.7452 37.2548 0 24 0C10.7452 0 0 10.7452 0 24C0 37.2548 10.7452 48 24 48Z" fill="#fff"/>
<path d="M11.4391 20.0194L10.0567 21.4019C9.67153 21.7673 9.36541 22.2116 9.15804 22.6955C8.95066 23.1794 8.84204 23.7126 8.84204 24.2459C8.84204 24.7791 8.95066 25.3025 9.15804 25.7864C9.36541 26.2702 9.67153 26.7146 10.0567 27.08L21.1956 38.3374C21.4622 38.604 21.7683 38.8311 22.1041 38.999V25.3617L11.4391 20.0194Z" fill="#3D89F5"/>
<path d="M36.5609 20.0194L37.9434 21.4019C38.3285 21.7673 38.6346 22.2116 38.842 22.6955C39.0494 23.1794 39.158 23.7126 39.158 24.236C39.158 24.7594 39.0494 25.2926 38.842 25.7765C38.6346 26.2604 38.3285 26.7047 37.9434 27.0701L26.8045 38.3275C26.5379 38.5941 26.2317 38.8213 25.896 38.9891V25.3617L36.5609 20.0194Z" fill="#1656B9"/>
<path d="M33.8849 17.1951L26.9132 10.2036C26.5478 9.81852 26.1034 9.52227 25.6097 9.3149C25.1159 9.10753 24.6024 8.9989 24.0692 8.9989C23.5359 8.9989 23.0126 9.10753 22.5287 9.3149C22.0448 9.52227 21.6005 9.82839 21.2252 10.2036L14.2437 17.1951L24.0396 22.0832L33.8849 17.1951Z" fill="#85B5F8"/>
</svg>
