<svg width="20" height="20" viewBox="0 0 20 20" fill="currentColor" xmlns="http://www.w3.org/2000/svg">
<g clip-path="url(#clip0_930_6963)">
<path d="M6.26769 1.44229C6.77383 1.22155 7.36323 1.45278 7.58409 1.95889C7.80497 2.46504 7.57359 3.05436 7.06749 3.2753C5.96963 3.75439 5.00534 4.49492 4.25987 5.43253C3.5144 6.37017 3.01042 7.47658 2.79112 8.65421C2.57184 9.83182 2.64407 11.0453 3.00206 12.1884C3.36006 13.3315 3.99299 14.3697 4.84484 15.2118C5.69664 16.0539 6.74174 16.6745 7.88878 17.0194C9.03583 17.3643 10.25 17.423 11.4249 17.1903C12.5998 16.9576 13.7 16.4405 14.629 15.6845C15.5581 14.9284 16.2885 13.9557 16.755 12.8524C16.9702 12.344 17.557 12.1062 18.0655 12.3212C18.574 12.5364 18.8118 13.1232 18.5968 13.6317C18.003 15.0359 17.0741 16.2729 15.8917 17.2353C14.7093 18.1976 13.3091 18.8561 11.8136 19.1523C10.3181 19.4484 8.77254 19.3735 7.31261 18.9345C5.85277 18.4955 4.52266 17.7055 3.43859 16.6337C2.35448 15.5619 1.54948 14.2409 1.09386 12.786C0.638225 11.3312 0.546204 9.78679 0.825304 8.288C1.1044 6.78933 1.74578 5.38167 2.69444 4.18839C3.64322 2.99503 4.87038 2.05206 6.26769 1.44229ZM10.9308 0.714753H10.9317C13.0744 0.929541 15.0769 1.87876 16.5997 3.40128C18.1226 4.92389 19.072 6.92649 19.2872 9.06925C19.3987 10.1825 18.4831 11.0007 17.5011 11.0009L10.8331 11.0019C10.3471 11.0018 9.88097 10.8083 9.53722 10.4648C9.1934 10.1209 9.00011 9.65411 9.00011 9.16788V2.50186C9.00011 1.52044 9.81632 0.603502 10.9308 0.714753ZM11.0001 9.00089H17.2638C17.0458 7.41884 16.3185 5.94793 15.1857 4.81534C14.0528 3.68283 12.5821 2.95481 11.0001 2.73721V9.00089Z"/>
</g>
<defs>
<clipPath id="clip0_930_6963">
<rect width="20" height="20" fill="white"/>
</clipPath>
</defs>
</svg>
