<svg width="32" height="32" viewBox="0 0 32 32" fill="none" xmlns="http://www.w3.org/2000/svg">
<rect opacity="0.4" width="32" height="32" rx="8" fill="#1C1C21"/>
<path d="M25.6012 15.2299C24.3147 14.7679 23.5235 13.4587 23.6229 12.4249C23.6229 12.2549 23.5211 12.097 23.3923 11.9855C23.2636 11.8744 23.0639 11.8264 22.8968 11.8533C20.9364 12.1409 19.1413 10.7067 18.9634 8.69069C18.9474 8.50874 18.8479 8.34507 18.6934 8.24721C18.5395 8.14995 18.3477 8.12878 18.1778 8.19229C16.5888 8.77421 15.0873 7.72202 14.4882 6.35101C14.3761 6.09464 14.098 5.95331 13.8239 6.01397C9.31324 7.0205 6 11.3772 6 16.0001C6 21.4926 10.5074 26.0001 16 26.0001C21.4926 26.0001 26 21.4926 26 16.0001C25.9837 15.6511 25.9813 15.366 25.6012 15.2299ZM10.1113 16.6301C9.78773 16.6301 9.52539 16.3678 9.52539 16.0442C9.52539 15.7205 9.78773 15.4582 10.1113 15.4582C10.4349 15.4582 10.6973 15.7205 10.6973 16.0442C10.6973 16.3678 10.4349 16.6301 10.1113 16.6301ZM12.4844 21.2735C11.5151 21.2735 10.7266 20.485 10.7266 19.5157C10.7266 18.5464 11.5151 17.7579 12.4844 17.7579C13.4537 17.7579 14.2422 18.5464 14.2422 19.5157C14.2422 20.485 13.4537 21.2735 12.4844 21.2735ZM13.0703 14.2422C12.4243 14.2422 11.8984 13.7164 11.8984 13.0704C11.8984 12.4244 12.4243 11.8985 13.0703 11.8985C13.7163 11.8985 14.2422 12.4244 14.2422 13.0704C14.2422 13.7164 13.7163 14.2422 13.0703 14.2422ZM17.7578 22.4454C17.1118 22.4454 16.5859 21.9195 16.5859 21.2735C16.5859 20.6275 17.1118 20.1016 17.7578 20.1016C18.4038 20.1016 18.9297 20.6275 18.9297 21.2735C18.9297 21.9195 18.4038 22.4454 17.7578 22.4454ZM18.3438 17.7579C17.3745 17.7579 16.5859 16.9694 16.5859 16.0001C16.5859 15.0308 17.3745 14.2422 18.3438 14.2422C19.313 14.2422 20.1016 15.0308 20.1016 16.0001C20.1016 16.9694 19.3131 17.7579 18.3438 17.7579ZM21.8301 18.9738C21.5065 18.9738 21.2441 18.7115 21.2441 18.3879C21.2441 18.0642 21.5065 17.802 21.8301 17.802C22.1537 17.802 22.416 18.0642 22.416 18.3879C22.416 18.7115 22.1536 18.9738 21.8301 18.9738Z" fill="white"/>
</svg>
