<svg width="24" height="24" viewBox="0 0 24 24" fill="currentColor" xmlns="http://www.w3.org/2000/svg">
<path fill-rule="evenodd" clip-rule="evenodd" d="M18.6 9.858V14.1C18.6 15.2598 17.6598 16.2 16.5 16.2H15.8V16.9C15.8 18.0598 14.8598 19 13.7 19H8.1C6.9402 19 6 18.0598 6 16.9V9.9C6 8.7402 6.9402 7.8 8.1 7.8H8.8V7.1C8.8 5.9402 9.7402 5 10.9 5H13.735C13.9102 5 14.1019 5.09413 14.225 5.21L18.425 9.41C18.5457 9.53825 18.6 9.68359 18.6 9.858ZM13.7 17.6001C14.0866 17.6001 14.4 17.2867 14.4 16.9001V16.2001H10.9C9.74024 16.2001 8.80004 15.2599 8.80004 14.1001V9.20013H8.10004C7.71344 9.20013 7.40004 9.51353 7.40004 9.90013V16.9001C7.40004 17.2867 7.71344 17.6001 8.10004 17.6001H13.7ZM14.4 7.38711L16.213 9.20011H15.1C14.7134 9.20011 14.4 8.88671 14.4 8.50011V7.38711ZM16.5 14.8C16.8866 14.8 17.2 14.4866 17.2 14.1V10.6H15.1C13.9402 10.6 13 9.65984 13 8.50004V6.40004H10.9C10.5134 6.40004 10.2 6.71344 10.2 7.10004V14.1C10.2 14.4866 10.5134 14.8 10.9 14.8H16.5Z"/>
</svg>
