<svg width="24" height="24" viewBox="0 0 24 24" fill="currentColor" xmlns="http://www.w3.org/2000/svg">
<path fill-rule="evenodd" clip-rule="evenodd" d="M5.00044 3H19.0004C20.4524 3.01127 21.6879 4.06081 21.9338 5.49189C22.1797 6.92297 21.3654 8.32472 20.0004 8.82V18C20.0004 19.6569 18.6573 21 17.0004 21H7.00044C5.34358 21 4.00044 19.6569 4.00044 18V8.82C2.63547 8.32472 1.82115 6.92297 2.06704 5.49189C2.31293 4.06081 3.54843 3.01127 5.00044 3ZM14.0004 13H10.0004C9.44815 13 9.00044 12.5523 9.00044 12C9.00044 11.4477 9.44815 11 10.0004 11H14.0004C14.5527 11 15.0004 11.4477 15.0004 12C15.0004 12.5523 14.5527 13 14.0004 13ZM18.0004 18C18.0004 18.5523 17.5527 19 17.0004 19H7.00044C6.44815 19 6.00044 18.5523 6.00044 18V9H18.0004V18ZM5.00044 7H19.0004C19.5527 7 20.0004 6.55228 20.0004 6C20.0004 5.44772 19.5527 5 19.0004 5H5.00044C4.44815 5 4.00044 5.44772 4.00044 6C4.00044 6.55228 4.44815 7 5.00044 7Z"/>
</svg>
