<svg width="24" height="24" viewBox="0 0 24 24" fill="currentColor" xmlns="http://www.w3.org/2000/svg">
<path fill-rule="evenodd" clip-rule="evenodd" d="M12.4105 11.0178C11.0434 11.0178 4 7.0237 4 7.0237V6.4C4 5.6272 4.6272 5 5.4014 5H19.4196C20.1945 5 20.8217 5.6272 20.8217 6.4L20.8105 7.1C20.8105 7.1 13.8434 11.0178 12.4105 11.0178Z"/>
<path fill-rule="evenodd" clip-rule="evenodd" d="M12.4105 12.943C13.9092 12.943 20.8105 9.2002 20.8105 9.2002L20.8217 17.6002C20.8217 18.373 20.1945 19.0002 19.4196 19.0002H5.4014C4.6279 19.0002 4 18.373 4 17.6002L4.0112 9.2002C4.0112 9.2002 11.0434 12.943 12.4105 12.943Z"/>
</svg>
