<svg width="24" height="24" viewBox="0 0 24 24" fill="currentColor" xmlns="http://www.w3.org/2000/svg">
<path fill-rule="evenodd" clip-rule="evenodd" d="M8.33333 7.75C8.01117 7.75 7.75 8.01117 7.75 8.33333V15.6667C7.75 15.9888 8.01117 16.25 8.33333 16.25H15.6667C15.9888 16.25 16.25 15.9888 16.25 15.6667V13.6667C16.25 13.2525 16.5858 12.9167 17 12.9167C17.4142 12.9167 17.75 13.2525 17.75 13.6667V15.6667C17.75 16.8173 16.8173 17.75 15.6667 17.75H8.33333C7.18274 17.75 6.25 16.8173 6.25 15.6667V8.33333C6.25 7.18274 7.18274 6.25 8.33333 6.25H10.3333C10.7475 6.25 11.0833 6.58579 11.0833 7C11.0833 7.41421 10.7475 7.75 10.3333 7.75H8.33333ZM13.9999 7.75C13.5857 7.75 13.2499 7.41421 13.2499 7C13.2499 6.58579 13.5857 6.25 13.9999 6.25H16.9999H16.9999C17.1089 6.25 17.2124 6.27324 17.3059 6.31504C17.3691 6.34329 17.4293 6.38074 17.4843 6.42739C17.5628 6.49381 17.6274 6.57605 17.6732 6.66919C17.7223 6.76897 17.7499 6.88126 17.7499 7V10C17.7499 10.4142 17.4141 10.75 16.9999 10.75C16.5857 10.75 16.2499 10.4142 16.2499 10V8.81062L12.1969 12.8637C11.904 13.1566 11.4291 13.1566 11.1362 12.8637C10.8433 12.5708 10.8433 12.0959 11.1362 11.803L15.1892 7.75H13.9999Z"/>
</svg>
