<svg width="48" height="49" viewBox="0 0 48 49" fill="none" xmlns="http://www.w3.org/2000/svg">
<rect y="0.00195312" width="48" height="48" rx="24" fill="url(#paint0_linear_10169:6069)"/>
<path d="M36.9324 15.6063C37.7902 26.7593 30.3247 32.0332 23.6326 32.5951C17.4106 33.1178 11.5552 29.4458 11.0404 23.8041C10.6165 19.1429 13.6157 17.1585 15.9724 16.9609C18.3961 16.7567 20.4327 18.3622 20.6105 20.306C20.7808 22.1748 19.5667 23.0252 18.7222 23.0962C18.3509 23.1418 17.9759 23.0444 17.6792 22.8253C17.3824 22.6062 17.188 22.2832 17.1383 21.9269C17.0731 21.2084 17.3574 21.1105 17.288 20.3474C17.1645 18.9889 15.931 18.8306 15.2555 18.8866C14.4381 18.9554 12.9553 19.8715 13.1633 22.1536C13.3727 24.4556 15.6707 26.2745 18.6827 26.0214C21.9335 25.7488 24.196 23.3189 24.3673 19.9081C24.3654 19.7276 24.4046 19.549 24.4821 19.3846V19.3806C24.5172 19.3092 24.5582 19.2406 24.6047 19.1755C24.6869 19.0586 24.7782 18.9478 24.878 18.8442C24.878 18.8412 24.878 18.8412 24.8812 18.8412C24.9648 18.7507 25.0649 18.6528 25.1792 18.5474C26.6005 17.2608 31.7148 14.2258 36.5512 15.1869C36.6535 15.2079 36.7458 15.2601 36.8146 15.3357C36.8834 15.4113 36.9249 15.5062 36.9329 15.6063" fill="white"/>
<defs>
<linearGradient id="paint0_linear_10169:6069" x1="46.6562" y1="1.4901" x2="0.00100442" y2="47.8581" gradientUnits="userSpaceOnUse">
<stop stop-color="#11C4D1"/>
<stop offset="1" stop-color="#0062AD"/>
</linearGradient>
</defs>
</svg>
