<svg width="24" height="24" viewBox="0 0 24 24" fill="none" xmlns="http://www.w3.org/2000/svg">
<path d="M12 23C18.0751 23 23 18.0751 23 12C23 5.92487 18.0751 1 12 1C5.92487 1 1 5.92487 1 12C1 18.0751 5.92487 23 12 23Z" fill="#F69988"/>
<path fill-rule="evenodd" clip-rule="evenodd" d="M12.0051 4.22266L15.8637 10.2483L12.005 12.4918L8.14662 10.2482L12.0051 4.22266ZM9.32779 9.96332L12.0051 5.78229L14.6825 9.96332L12.005 11.52L9.32779 9.96332Z" fill="white"/>
<path d="M11.9994 13.8162L7.52333 11.2135L7.40113 11.4044C6.02252 13.5573 6.33039 16.3768 8.14135 18.1831C10.2724 20.3087 13.7275 20.3087 15.8586 18.1831C17.6696 16.3768 17.9775 13.5573 16.5988 11.4044L16.4766 11.2135L11.9996 13.8164L11.9994 13.8162Z" fill="white"/>
</svg>
