<svg width="24" height="24" viewBox="0 0 24 24" fill="currentColor" xmlns="http://www.w3.org/2000/svg">
<path fill-rule="evenodd" clip-rule="evenodd" d="M17 7V9C18.6569 9 20 10.3431 20 12V19C20 20.6569 18.6569 22 17 22H7C5.34315 22 4 20.6569 4 19V12C4 10.3431 5.34315 9 7 9V7C7 4.23858 9.23858 2 12 2C14.7614 2 17 4.23858 17 7ZM11 14C11 13.4477 11.4477 13 12 13C12.5523 13 13 13.4477 13 14V17C13 17.5523 12.5523 18 12 18C11.4477 18 11 17.5523 11 17V14ZM9 7C9 5.34315 10.3431 4 12 4C13.6569 4 15 5.34315 15 7V9H9V7ZM17 20C17.5523 20 18 19.5523 18 19V12C18 11.4477 17.5523 11 17 11H7C6.44772 11 6 11.4477 6 12V19C6 19.5523 6.44772 20 7 20H17Z"/>
</svg>
