<svg width="48" height="48" viewBox="0 0 48 48" fill="none" xmlns="http://www.w3.org/2000/svg">
<circle cx="24" cy="24" r="24" fill="white"/>
<path d="M31.9544 22.596C31.2797 21.9214 31.2797 20.8275 31.9544 20.1528C32.6291 19.4781 33.7229 19.4781 34.3976 20.1528C35.0723 20.8275 35.0723 21.9214 34.3976 22.596C33.7229 23.2707 32.6291 23.2707 31.9544 22.596ZM26.1517 28.3987C25.6457 27.8927 25.6457 27.0723 26.1517 26.5663C26.6577 26.0603 27.4781 26.0603 27.9841 26.5663C28.4902 27.0723 28.4902 27.8927 27.9841 28.3987C27.4781 28.9047 26.6577 28.9047 26.1517 28.3987ZM35.3138 25.3447C34.8078 24.8386 34.8078 24.0182 35.3138 23.5122C35.8198 23.0062 36.6402 23.0062 37.1462 23.5122C37.6522 24.0182 37.6522 24.8386 37.1462 25.3447C36.6402 25.8507 35.8198 25.8507 35.3138 25.3447ZM32.2598 28.3987C31.7538 27.8927 31.7538 27.0723 32.2598 26.5663C32.7658 26.0603 33.5862 26.0603 34.0922 26.5663C34.5982 27.0723 34.5982 27.8927 34.0922 28.3987C33.5862 28.9047 32.7658 28.9047 32.2598 28.3987ZM38.6732 28.0933C38.3359 27.7559 38.3359 27.209 38.6732 26.8717C39.0106 26.5343 39.5575 26.5343 39.8949 26.8717C40.2322 27.209 40.2322 27.7559 39.8949 28.0933C39.5575 28.4306 39.0106 28.4306 38.6732 28.0933ZM35.6192 31.1473C35.2819 30.81 35.2819 30.263 35.6192 29.9257C35.9566 29.5884 36.5035 29.5884 36.8408 29.9257C37.1782 30.263 37.1782 30.81 36.8408 31.1473C36.5035 31.4847 35.9566 31.4847 35.6192 31.1473ZM28.9004 25.6501C28.2257 24.9754 28.2257 23.8815 28.9004 23.2068C29.575 22.5322 30.6689 22.5322 31.3436 23.2068C32.0183 23.8815 32.0183 24.9754 31.3436 25.6501C30.6689 26.3247 29.575 26.3247 28.9004 25.6501ZM28.9004 19.542C28.2257 18.8673 28.2257 17.7735 28.9004 17.0988C29.575 16.4241 30.6689 16.4241 31.3436 17.0988C32.0183 17.7735 32.0183 18.8673 31.3436 19.542C30.6689 20.2167 29.575 20.2167 28.9004 19.542ZM25.8463 22.596C25.1716 21.9214 25.1716 20.8275 25.8463 20.1528C26.521 19.4781 27.6149 19.4781 28.2895 20.1528C28.9642 20.8275 28.9642 21.9214 28.2895 22.596C27.6149 23.2707 26.521 23.2707 25.8463 22.596ZM19.7099 22.596C19.0352 21.9214 19.0352 20.8275 19.7099 20.1528C20.3846 19.4781 21.4784 19.4781 22.1531 20.1528C22.8278 20.8275 22.8278 21.9214 22.1531 22.596C21.4784 23.2707 20.3846 23.2707 19.7099 22.596ZM13.9072 28.3987C13.4012 27.8927 13.4012 27.0723 13.9072 26.5663C14.4132 26.0603 15.2336 26.0603 15.7396 26.5663C16.2456 27.0723 16.2456 27.8927 15.7396 28.3987C15.2336 28.9047 14.4132 28.9047 13.9072 28.3987ZM23.0693 25.3447C22.5633 24.8386 22.5633 24.0182 23.0693 23.5122C23.5753 23.0062 24.3957 23.0062 24.9017 23.5122C25.4077 24.0182 25.4077 24.8386 24.9017 25.3447C24.3957 25.8507 23.5753 25.8507 23.0693 25.3447ZM20.0153 28.3987C19.5093 27.8927 19.5093 27.0723 20.0153 26.5663C20.5213 26.0603 21.3417 26.0603 21.8477 26.5663C22.3537 27.0723 22.3537 27.8927 21.8477 28.3987C21.3417 28.9047 20.5213 28.9047 20.0153 28.3987ZM8.10457 28.0933C7.76723 27.7559 7.76723 27.209 8.10457 26.8717C8.44191 26.5343 8.98884 26.5343 9.32618 26.8717C9.66352 27.209 9.66352 27.7559 9.32618 28.0933C8.98884 28.4306 8.44191 28.4306 8.10457 28.0933ZM11.1586 31.1473C10.8213 30.81 10.8213 30.263 11.1586 29.9257C11.4959 29.5884 12.0429 29.5884 12.3802 29.9257C12.7175 30.263 12.7175 30.81 12.3802 31.1473C12.0429 31.4847 11.4959 31.4847 11.1586 31.1473ZM23.3747 31.1473C23.0374 30.81 23.0374 30.263 23.3747 29.9257C23.712 29.5884 24.259 29.5884 24.5963 29.9257C24.9337 30.263 24.9337 30.81 24.5963 31.1473C24.259 31.4847 23.712 31.4847 23.3747 31.1473ZM10.8532 25.3447C10.3472 24.8386 10.3472 24.0182 10.8532 23.5122C11.3592 23.0062 12.1796 23.0062 12.6856 23.5122C13.1916 24.0182 13.1916 24.8386 12.6856 25.3447C12.1796 25.8507 11.3592 25.8507 10.8532 25.3447ZM16.6558 25.6501C15.9812 24.9754 15.9812 23.8815 16.6558 23.2068C17.3305 22.5322 18.4244 22.5322 19.0991 23.2068C19.7737 23.8815 19.7737 24.9754 19.0991 25.6501C18.4244 26.3247 17.3305 26.3247 16.6558 25.6501ZM16.6558 19.542C15.9812 18.8673 15.9812 17.7735 16.6558 17.0988C17.3305 16.4241 18.4244 16.4241 19.0991 17.0988C19.7737 17.7735 19.7737 18.8673 19.0991 19.542C18.4244 20.2167 17.3305 20.2167 16.6558 19.542ZM13.6018 22.596C12.9271 21.9214 12.9271 20.8275 13.6018 20.1528C14.2765 19.4781 15.3704 19.4781 16.045 20.1528C16.7197 20.8275 16.7197 21.9214 16.045 22.596C15.3704 23.2707 14.2765 23.2707 13.6018 22.596Z" fill="#293037"/>
</svg>
