<svg width="48" height="48" viewBox="0 0 48 48" fill="none" xmlns="http://www.w3.org/2000/svg">
<path d="M24 48C37.2548 48 48 37.2548 48 24C48 10.7452 37.2548 0 24 0C10.7452 0 0 10.7452 0 24C0 37.2548 10.7452 48 24 48Z" fill="#F2F5FF"/>
<path d="M19.3255 32.0012C17.7556 30.1481 16.7387 27.408 16.6691 24.3333V23.6643C16.7383 20.5897 17.7553 17.8499 19.3255 15.9965C21.3622 13.3507 24.391 11.6738 27.7722 11.6738C29.8517 11.6738 31.7981 12.309 33.4629 13.4136C30.9637 11.1775 27.6676 9.81296 24.0529 9.79989L23.9999 9.79883C16.1569 9.79883 9.79956 16.1565 9.79956 23.9992C9.79956 31.614 15.7948 37.8286 23.3235 38.1819C23.5478 38.1925 23.7731 38.1988 23.9999 38.1988C27.6355 38.1988 30.951 36.8318 33.4633 34.5852C31.7988 35.689 29.8531 36.3242 27.7725 36.3242C24.391 36.3242 21.3626 34.6473 19.3255 32.0019V32.0012Z" fill="url(#paint0_linear_12052_1639)"/>
<path d="M19.3254 15.9968C20.6282 14.4588 22.3118 13.5312 24.1507 13.5312C28.2837 13.5312 31.6352 18.218 31.6352 23.9992C31.6352 29.7803 28.2844 34.4672 24.15 34.4672C22.3118 34.4672 20.6282 33.5395 19.3258 32.0015C21.3629 34.6473 24.3913 36.3242 27.7729 36.3242C29.8535 36.3242 31.7998 35.6897 33.4636 34.5862C36.3705 31.986 38.2003 28.2063 38.2003 23.9992C38.2003 19.7928 36.3705 16.0141 33.4647 13.4139C31.7995 12.3093 29.8531 11.6738 27.7725 11.6738C24.3909 11.6738 21.3626 13.3517 19.3254 15.9968V15.9968Z" fill="url(#paint1_linear_12052_1639)"/>
<defs>
<linearGradient id="paint0_linear_12052_1639" x1="21.6318" y1="10.2619" x2="21.6318" y2="37.7855" gradientUnits="userSpaceOnUse">
<stop offset="0.3" stop-color="#FF1B2D"/>
<stop offset="0.438" stop-color="#FA1A2C"/>
<stop offset="0.594" stop-color="#ED1528"/>
<stop offset="0.758" stop-color="#D60E21"/>
<stop offset="0.927" stop-color="#B70519"/>
<stop offset="1" stop-color="#A70014"/>
</linearGradient>
<linearGradient id="paint1_linear_12052_1639" x1="28.7623" y1="11.884" x2="28.7623" y2="36.2274" gradientUnits="userSpaceOnUse">
<stop stop-color="#9C0000"/>
<stop offset="0.7" stop-color="#FF4B4B"/>
</linearGradient>
</defs>
</svg>
