<svg width="24" height="24" viewBox="0 0 24 24" fill="none" xmlns="http://www.w3.org/2000/svg">
<path d="M17.1287 9.03271C17.0877 9.07438 17.0388 9.10749 16.985 9.13012C16.9311 9.15275 16.8733 9.16445 16.8148 9.16454H5.69478C5.3017 9.16454 5.1026 8.68519 5.37739 8.40053L7.2014 6.51078C7.24247 6.46808 7.29173 6.4341 7.34622 6.41086C7.40072 6.38761 7.45934 6.37558 7.51858 6.37549H18.6802C19.0757 6.37549 19.2737 6.85983 18.9941 7.1431L17.1287 9.03271ZM17.1287 17.4731C17.045 17.5554 16.9322 17.6016 16.8148 17.6015H5.69478C5.3017 17.6015 5.1026 17.1341 5.37739 16.8565L7.2014 15.014C7.24299 14.9721 7.29244 14.939 7.34692 14.9163C7.40139 14.8937 7.4598 14.8821 7.51879 14.8822H18.6802C19.0757 14.8822 19.2737 15.3543 18.9941 15.6305L17.1287 17.4731ZM17.1287 10.7571C17.045 10.6748 16.9322 10.6287 16.8148 10.6289H5.69478C5.3017 10.6289 5.1026 11.0962 5.37739 11.3738L7.2014 13.2163C7.24295 13.2581 7.29237 13.2913 7.34681 13.3139C7.40125 13.3365 7.45963 13.3482 7.51858 13.3481H18.6802C19.0757 13.3481 19.2737 12.8759 18.9941 12.5998L17.1287 10.7571Z" fill="url(#solana-icon-gradient)"/>
<defs>
<linearGradient id="solana-icon-gradient" x1="6.2631" y1="17.9058" x2="18.0921" y2="6.07749" gradientUnits="userSpaceOnUse">
<stop stop-color="#CF41E8"/>
<stop offset="1" stop-color="#10F2B0"/>
</linearGradient>
</defs>
</svg>
