<svg width="24" height="24" viewBox="0 0 24 24" fill="currentColor" xmlns="http://www.w3.org/2000/svg">
<path fill-rule="evenodd" clip-rule="evenodd" d="M18.9877 9.05016C19.3642 9.0513 19.7082 9.26388 19.8777 9.60016C20.0482 9.93438 20.0173 10.336 19.7977 10.6402L11.7977 21.6402C11.6088 21.8986 11.3077 22.051 10.9877 22.0502C10.8825 22.0481 10.7781 22.0313 10.6777 22.0002C10.2664 21.8661 9.98798 21.4827 9.98766 21.0502V15.0502H4.98766C4.59007 15.0329 4.24055 14.7816 4.09766 14.4102C3.9431 14.0866 3.97363 13.705 4.17766 13.4102L12.1777 2.41016C12.4335 2.06002 12.8858 1.91464 13.2977 2.05016C13.727 2.18955 14.0097 2.5993 13.9877 3.05016V9.05016H18.9877ZM11.9877 14.0502V17.9702L16.9877 11.0502H12.9877C12.4354 11.0502 11.9877 10.6024 11.9877 10.0502V6.13016L6.98766 13.0502H10.9877C11.5399 13.0502 11.9877 13.4979 11.9877 14.0502Z"/>
</svg>
