<svg width="60" height="60" viewBox="0 0 60 60" fill="currentColor" xmlns="http://www.w3.org/2000/svg">
<path fill-rule="evenodd" clip-rule="evenodd" d="M30 58C45.464 58 58 45.464 58 30C58 14.536 45.464 2 30 2C14.536 2 2 14.536 2 30C2 45.464 14.536 58 30 58ZM30 60C46.5685 60 60 46.5685 60 30C60 13.4315 46.5685 0 30 0C13.4315 0 0 13.4315 0 30C0 46.5685 13.4315 60 30 60Z"/>
<path fill-rule="evenodd" clip-rule="evenodd" d="M38.7071 24.2929C39.0976 24.6834 39.0976 25.3166 38.7071 25.7071L27.7071 36.7071C27.3166 37.0976 26.6834 37.0976 26.2929 36.7071L21.2929 31.7071C20.9024 31.3166 20.9024 30.6834 21.2929 30.2929C21.6834 29.9024 22.3166 29.9024 22.7071 30.2929L27 34.5858L37.2929 24.2929C37.6834 23.9024 38.3166 23.9024 38.7071 24.2929Z"/>
</svg>
