<svg width="24" height="24" viewBox="0 0 24 24" fill="none" xmlns="http://www.w3.org/2000/svg">
<g clip-path="url(#clip0)">
<path fill-rule="evenodd" clip-rule="evenodd" d="M8.06734 7.79216C6.43133 7.41117 4.85188 6.07459 4.61836 3.50668C4.58844 3.17763 4.55398 2.8893 4.51663 2.63668C6.5684 0.986517 9.16958 0 11.9996 0C15.434 0 18.5313 1.45288 20.7188 3.78159C19.579 4.23276 9.60946 8.15126 8.06734 7.79216Z" fill="#2642B4"/>
<path fill-rule="evenodd" clip-rule="evenodd" d="M17.9463 21.3917C21.3727 19.3671 21.9556 17.6351 22.6152 14.851C23.2749 12.0669 14.9082 13.6111 12.6557 14.5706C10.4032 15.5301 9.15059 18.3213 11.4448 20.9625C13.739 23.6038 14.5199 23.4162 17.9463 21.3917Z" fill="#2642B4"/>
<path fill-rule="evenodd" clip-rule="evenodd" d="M22.4972 17.9433C20.2271 18.4192 17.5046 19.9431 16.2948 20.9871C15.1238 21.9975 15.5428 23.0027 17.1003 23.0257C19.3855 21.9436 21.2765 20.1567 22.4972 17.9433Z" fill="#4393FF"/>
<path fill-rule="evenodd" clip-rule="evenodd" d="M20.0615 3.13215C17.5604 1.81707 16.271 2.18975 10.7386 4.25383C3.79603 6.84402 6.70445 12.3592 11.9996 14.1974C12.5107 14.3749 13.0084 14.5501 13.4929 14.7205C17.737 16.2146 20.9615 17.3496 23.1883 16.4613C23.7124 15.1039 24 13.6276 24 12.0836C24 8.53459 22.4807 5.34294 20.0615 3.13215Z" fill="#4393FF"/>
<path fill-rule="evenodd" clip-rule="evenodd" d="M1.26901 6.66902C3.23404 6.60572 7.05705 5.48521 8.54363 3.33824C9.97437 1.27193 8.6659 0.971537 6.74059 1.21934C4.37679 2.38178 2.44856 4.30343 1.26901 6.66902Z" fill="#4393FF"/>
<path fill-rule="evenodd" clip-rule="evenodd" d="M0.70694 7.98874C0.249372 9.26784 0 10.647 0 12.0849C0 17.0774 3.00657 21.3629 7.29587 23.2052C7.39195 21.8487 7.45823 20.2381 7.39181 18.7862C7.2744 16.2197 3.62279 11.151 0.70694 7.98874Z" fill="#4393FF"/>
</g>
<defs>
<clipPath id="clip0">
<rect width="24" height="24" fill="white"/>
</clipPath>
</defs>
</svg>
