<svg width="16" height="16" viewBox="0 0 16 16" fill="none" xmlns="http://www.w3.org/2000/svg">
<path fill-rule="evenodd" clip-rule="evenodd" d="M5.11337 1.3335H10.8934C13.1534 1.3335 14.6667 2.92016 14.6667 5.28016V10.7275C14.6667 13.0802 13.1534 14.6668 10.8934 14.6668H5.11337C2.85337 14.6668 1.33337 13.0802 1.33337 10.7275V5.28016C1.33337 2.92016 2.85337 1.3335 5.11337 1.3335ZM7.62004 9.9935L10.7867 6.82683C11.0134 6.60016 11.0134 6.2335 10.7867 6.00016C10.56 5.7735 10.1867 5.7735 9.96004 6.00016L7.20671 8.7535L6.04004 7.58683C5.81337 7.36016 5.44004 7.36016 5.21337 7.58683C4.98671 7.8135 4.98671 8.18016 5.21337 8.4135L6.80004 9.9935C6.91337 10.1068 7.06004 10.1602 7.20671 10.1602C7.36004 10.1602 7.50671 10.1068 7.62004 9.9935Z" fill="#53BA95"/>
</svg>
