<svg width="16" height="16" viewBox="0 0 16 16" fill="none" xmlns="http://www.w3.org/2000/svg">
<path fill-rule="evenodd" clip-rule="evenodd" d="M5.11325 1.3335H10.8933C13.1533 1.3335 14.6666 2.9195 14.6666 5.2795V10.7262C14.6666 13.0802 13.1533 14.6668 10.8933 14.6668H5.11325C2.85325 14.6668 1.33325 13.0802 1.33325 10.7262V5.2795C1.33325 2.9195 2.85325 1.3335 5.11325 1.3335ZM10.3866 10.5402C10.5533 10.5402 10.7199 10.4535 10.8133 10.2935C10.9599 10.0595 10.8799 9.75283 10.6399 9.60683L8.26658 8.1935V5.11283C8.26658 4.84016 8.04659 4.61283 7.76658 4.61283C7.49325 4.61283 7.26658 4.84016 7.26658 5.11283V8.48016C7.26658 8.6535 7.35992 8.82016 7.51325 8.90683L10.1266 10.4668C10.2066 10.5202 10.2999 10.5402 10.3866 10.5402Z" fill="#EC8600"/>
</svg>
