<svg width="48" height="48" viewBox="0 0 48 48" fill="none" xmlns="http://www.w3.org/2000/svg">
<path d="M24 48C37.2548 48 48 37.2548 48 24C48 10.7452 37.2548 0 24 0C10.7452 0 0 10.7452 0 24C0 37.2548 10.7452 48 24 48Z" fill="#3375BB"/>
<path fill-rule="evenodd" clip-rule="evenodd" d="M23.1805 12.3501C23.7201 11.8924 24.5116 11.8924 25.0512 12.3501C27.9693 14.8252 31.2943 14.8072 32.617 14.8001C32.6822 14.7997 32.7426 14.7994 32.7978 14.7994C33.185 14.7994 33.556 14.9547 33.8278 15.2305C34.0996 15.5064 34.2493 15.8797 34.2436 16.2669C34.1805 20.5099 34.0131 23.5531 33.6816 25.7921C33.3505 28.0285 32.8377 29.6033 31.9853 30.8064C31.124 32.0222 30.0177 32.7067 28.8931 33.3379C28.6965 33.4483 28.497 33.5582 28.2936 33.6702C27.3136 34.2103 26.2432 34.8001 24.9673 35.7296C24.4599 36.0993 23.7719 36.0993 23.2644 35.7296C21.9898 34.8009 20.9208 34.2114 19.9423 33.6718C19.7379 33.5591 19.5375 33.4486 19.34 33.3376C18.2162 32.7062 17.1112 32.0214 16.2516 30.8051C15.4011 29.6019 14.89 28.0273 14.5602 25.7913C14.2299 23.5527 14.0632 20.5098 14.0002 16.2669C13.9944 15.8797 14.1442 15.5064 14.416 15.2305C14.6877 14.9547 15.0588 14.7994 15.446 14.7994C15.5006 14.7994 15.5603 14.7997 15.625 14.8001C16.9368 14.8072 20.2622 14.8254 23.1805 12.3501ZM16.9185 17.6702C16.9957 21.1164 17.1558 23.5707 17.4212 25.3693C17.7226 27.4127 18.1419 28.4692 18.6131 29.1359C19.0752 29.7896 19.6834 30.2134 20.7566 30.8164C20.9298 30.9137 21.1135 31.0148 21.307 31.1214C22.091 31.5531 23.0382 32.0747 24.1159 32.7971C25.1953 32.0737 26.144 31.5517 26.9293 31.1197C27.1221 31.0136 27.305 30.913 27.4776 30.8161C28.5523 30.2129 29.1621 29.7888 29.6255 29.1346C30.0979 28.4678 30.5184 27.4115 30.8208 25.3685C31.087 23.5703 31.2478 21.1164 31.3252 17.6705C29.5867 17.5792 26.7916 17.154 24.1159 15.2779C21.4439 17.1514 18.6532 17.578 16.9185 17.6702Z" fill="white"/>
</svg>
