<svg width="24" height="24" viewBox="0 0 24 24" fill="currentColor" xmlns="http://www.w3.org/2000/svg">
<path fill-rule="evenodd" clip-rule="evenodd" d="M12.0508 9.19219L12.0822 9.71122L11.5576 9.64767C9.64804 9.40404 7.97978 8.57782 6.56334 7.1902L5.87085 6.50169L5.69248 7.01013C5.31477 8.14353 5.55609 9.34048 6.343 10.1455C6.76269 10.5904 6.66826 10.654 5.9443 10.3891C5.69248 10.3044 5.47215 10.2408 5.45116 10.2726C5.37772 10.3468 5.62953 11.3107 5.82888 11.692C6.10168 12.2217 6.65777 12.7407 7.26631 13.0479L7.78043 13.2915L7.17188 13.3021C6.58432 13.3021 6.56334 13.3127 6.62629 13.5351C6.83613 14.2236 7.66502 14.9545 8.58833 15.2723L9.23884 15.4947L8.67227 15.8337C7.83289 16.321 6.84663 16.5964 5.86036 16.6175C5.38821 16.6281 5 16.6705 5 16.7023C5 16.8082 6.28005 17.4014 7.02499 17.6344C9.25983 18.3229 11.9144 18.0264 13.9079 16.8506C15.3243 16.0138 16.7408 14.3507 17.4018 12.7407C17.7585 11.8827 18.1152 10.315 18.1152 9.56293C18.1152 9.07567 18.1467 9.01211 18.7343 8.42953C19.0805 8.09056 19.4058 7.71983 19.4687 7.6139C19.5737 7.41264 19.5632 7.41264 19.0281 7.59272C18.1362 7.91049 18.0103 7.86812 18.451 7.39146C18.7762 7.0525 19.1645 6.43813 19.1645 6.25806C19.1645 6.22628 19.0071 6.27924 18.8287 6.37458C18.6398 6.4805 18.2202 6.63939 17.9054 6.73472L17.3388 6.91479L16.8247 6.56524C16.5414 6.37458 16.1427 6.16273 15.9329 6.09917C15.3978 5.95087 14.5794 5.97206 14.0967 6.14154C12.7852 6.6182 11.9563 7.84694 12.0508 9.19219Z"/>
</svg>
