<svg width="48" height="48" viewBox="0 0 48 48" fill="none" xmlns="http://www.w3.org/2000/svg">
<path d="M24 48C37.2548 48 48 37.2548 48 24C48 10.7452 37.2548 0 24 0C10.7452 0 0 10.7452 0 24C0 37.2548 10.7452 48 24 48Z" fill="#4C47F7"/>
<path fill-rule="evenodd" clip-rule="evenodd" d="M38.8966 10.9645V21.2059L9.10352 33.3093L38.8966 10.9645Z" fill="#2FE9FF"/>
<path fill-rule="evenodd" clip-rule="evenodd" d="M33.3104 10.4989V28.1886C33.3104 33.3305 29.142 37.4989 24 37.4989C18.8581 37.4989 14.6897 33.3305 14.6897 28.1886V20.7403L20.2759 17.6679V28.1886C20.2759 29.9882 21.7348 31.4472 23.5345 31.4472C25.3342 31.4472 26.7931 29.9882 26.7931 28.1886V14.0834L33.3104 10.4989Z" fill="white"/>
</svg>
