<svg width="24" height="24" viewBox="0 0 24 24" fill="currentColor" xmlns="http://www.w3.org/2000/svg">
<path opacity="0.6" d="M11.999 3.75V9.84813L17.2469 12.1513L11.999 3.75Z"/>
<path d="M11.9986 3.75L6.75 12.1513L11.9986 9.84813V3.75Z"/>
<path opacity="0.6" d="M11.999 16.1029V20.2464L17.2504 13.1109L11.999 16.1029Z"/>
<path d="M11.9986 20.2464V16.1022L6.75 13.1109L11.9986 20.2464Z"/>
<path opacity="0.2" d="M11.999 15.144L17.2469 12.1514L11.999 9.84961V15.144Z"/>
<path opacity="0.6" d="M6.75 12.1514L11.9986 15.144V9.84961L6.75 12.1514Z"/>
<path fill-rule="evenodd" clip-rule="evenodd" d="M12 1.5C11.6107 1.5 11.2264 1.52117 10.8484 1.56239C10.5739 1.59231 10.3271 1.39404 10.2972 1.11952C10.2672 0.845007 10.4655 0.598206 10.74 0.568276C11.154 0.523144 11.5744 0.5 12 0.5C12.4256 0.5 12.846 0.523144 13.26 0.568276C13.5345 0.598206 13.7328 0.845007 13.7028 1.11952C13.6729 1.39404 13.4261 1.59231 13.1516 1.56239C12.7736 1.52117 12.3893 1.5 12 1.5ZM8.03337 1.72466C8.14454 1.97744 8.02975 2.27247 7.77697 2.38365C7.06884 2.6951 6.40149 3.08256 5.78528 3.5358C5.56283 3.69942 5.24986 3.65173 5.08625 3.42928C4.92263 3.20683 4.97032 2.89386 5.19277 2.73024C5.86743 2.23401 6.59839 1.80956 7.37438 1.46827C7.62715 1.3571 7.92219 1.47189 8.03337 1.72466ZM15.9666 1.72466C16.0778 1.47189 16.3728 1.3571 16.6256 1.46827C17.4016 1.80956 18.1326 2.23401 18.8072 2.73024C19.0297 2.89386 19.0774 3.20683 18.9138 3.42928C18.7501 3.65173 18.4372 3.69942 18.2147 3.5358C17.5985 3.08256 16.9312 2.6951 16.223 2.38365C15.9703 2.27247 15.8555 1.97744 15.9666 1.72466ZM3.42928 5.08625C3.65173 5.24986 3.69942 5.56283 3.5358 5.78528C3.08256 6.40149 2.6951 7.06884 2.38365 7.77697C2.27247 8.02975 1.97744 8.14454 1.72466 8.03337C1.47189 7.92219 1.3571 7.62715 1.46827 7.37438C1.80956 6.59839 2.23401 5.86743 2.73024 5.19277C2.89386 4.97032 3.20683 4.92263 3.42928 5.08625ZM20.5707 5.08625C20.7932 4.92263 21.1061 4.97032 21.2698 5.19277C21.766 5.86743 22.1904 6.59839 22.5317 7.37438C22.6429 7.62715 22.5281 7.92219 22.2753 8.03337C22.0226 8.14454 21.7275 8.02975 21.6164 7.77697C21.3049 7.06884 20.9174 6.40149 20.4642 5.78528C20.3006 5.56283 20.3483 5.24986 20.5707 5.08625ZM1.11952 10.2972C1.39404 10.3271 1.59231 10.5739 1.56239 10.8484C1.52117 11.2264 1.5 11.6107 1.5 12C1.5 12.3893 1.52117 12.7736 1.56239 13.1516C1.59231 13.4261 1.39404 13.6729 1.11952 13.7028C0.845007 13.7328 0.598206 13.5345 0.568276 13.26C0.523144 12.846 0.5 12.4256 0.5 12C0.5 11.5744 0.523144 11.154 0.568276 10.74C0.598206 10.4655 0.845007 10.2672 1.11952 10.2972ZM22.8805 10.2972C23.155 10.2672 23.4018 10.4655 23.4317 10.74C23.4769 11.154 23.5 11.5744 23.5 12C23.5 12.4256 23.4769 12.846 23.4317 13.26C23.4018 13.5345 23.155 13.7328 22.8805 13.7028C22.606 13.6729 22.4077 13.4261 22.4376 13.1516C22.4788 12.7736 22.5 12.3893 22.5 12C22.5 11.6107 22.4788 11.2264 22.4376 10.8484C22.4077 10.5739 22.606 10.3271 22.8805 10.2972ZM1.72466 15.9666C1.97744 15.8555 2.27247 15.9703 2.38365 16.223C2.6951 16.9312 3.08256 17.5985 3.5358 18.2147C3.69942 18.4372 3.65173 18.7501 3.42928 18.9138C3.20683 19.0774 2.89386 19.0297 2.73024 18.8072C2.23401 18.1326 1.80956 17.4016 1.46827 16.6256C1.3571 16.3728 1.47189 16.0778 1.72466 15.9666ZM22.2753 15.9666C22.5281 16.0778 22.6429 16.3728 22.5317 16.6256C22.1904 17.4016 21.766 18.1326 21.2698 18.8072C21.1061 19.0297 20.7932 19.0774 20.5707 18.9138C20.3483 18.7501 20.3006 18.4372 20.4642 18.2147C20.9174 17.5985 21.3049 16.9312 21.6164 16.223C21.7275 15.9703 22.0226 15.8555 22.2753 15.9666ZM5.08625 20.5707C5.24986 20.3483 5.56283 20.3006 5.78528 20.4642C6.40149 20.9174 7.06884 21.3049 7.77697 21.6164C8.02975 21.7275 8.14454 22.0226 8.03337 22.2753C7.92219 22.5281 7.62715 22.6429 7.37438 22.5317C6.59839 22.1904 5.86743 21.766 5.19277 21.2698C4.97032 21.1061 4.92263 20.7932 5.08625 20.5707ZM18.9138 20.5707C19.0774 20.7932 19.0297 21.1061 18.8072 21.2698C18.1326 21.766 17.4016 22.1904 16.6256 22.5317C16.3728 22.6429 16.0778 22.5281 15.9666 22.2753C15.8555 22.0226 15.9703 21.7275 16.223 21.6164C16.9312 21.3049 17.5985 20.9174 18.2147 20.4642C18.4372 20.3006 18.7501 20.3483 18.9138 20.5707ZM10.2972 22.8805C10.3271 22.606 10.5739 22.4077 10.8484 22.4376C11.2264 22.4788 11.6107 22.5 12 22.5C12.3893 22.5 12.7736 22.4788 13.1516 22.4376C13.4261 22.4077 13.6729 22.606 13.7028 22.8805C13.7328 23.155 13.5345 23.4018 13.26 23.4317C12.846 23.4769 12.4256 23.5 12 23.5C11.5744 23.5 11.154 23.4769 10.74 23.4317C10.4655 23.4018 10.2672 23.155 10.2972 22.8805Z"/>
</svg>
