<svg width="48" height="48" viewBox="0 0 48 48" fill="none" xmlns="http://www.w3.org/2000/svg">
<circle cx="24" cy="24" r="24" fill="#2043D0"/>
<path fill-rule="evenodd" clip-rule="evenodd" d="M19.0218 27.4322C21.6897 27.6012 24.3483 26.9805 26.6655 25.6476L28.0698 26.4826C25.3664 28.2546 22.1619 29.1035 18.9358 28.9023C17.7104 28.9038 16.4981 28.6506 15.3758 28.1587C14.2535 27.6668 13.2457 26.947 12.4163 26.0449C11.7647 25.2287 11.2957 24.2824 11.0408 23.2697C10.7859 22.2569 10.7511 21.2013 10.9387 20.174C11.051 19.402 11.2829 18.6522 11.6261 17.9516L11.6775 17.847C12.769 15.7676 14.3838 14.0086 16.3626 12.7437C18.3523 11.4714 20.6363 10.7332 22.9943 10.6003C25.3523 10.4673 27.7047 10.9441 29.8249 11.9846C31.9367 13.0206 33.7428 14.588 35.0657 16.533C36.3816 18.4664 37.165 20.7122 37.3372 23.0446C37.5094 25.3769 37.0642 27.7134 36.0466 29.819C35.0233 31.933 33.4659 33.7433 31.5285 35.0709C29.5818 36.4057 27.3234 37.2153 24.972 37.4214L24.8438 35.964C26.9382 35.7806 28.9499 35.0599 30.6843 33.8716C32.4094 32.6886 33.796 31.076 34.7073 29.1932C35.6143 27.3173 36.0112 25.2356 35.8583 23.1575C35.7054 21.0795 35.0079 19.0783 33.8361 17.3553C32.6586 15.6224 31.0508 14.2253 29.1704 13.3011C27.2828 12.3727 25.1881 11.9458 23.0877 12.0616C20.9874 12.1774 18.9522 12.832 17.1782 13.9624C15.4133 15.0876 13.9724 16.6536 12.9974 18.5057L12.9595 18.5833C12.6828 19.1479 12.4953 19.7519 12.4037 20.3739C12.2453 21.1988 12.2666 22.0481 12.4662 22.864C12.6657 23.6799 13.0388 24.4432 13.56 25.1019C14.2632 25.8424 15.1106 26.4312 16.0499 26.8319C16.9892 27.2327 18.0006 27.437 19.0218 27.4322ZM19.8282 30.843C23.3523 30.7606 26.7508 29.5172 29.496 27.3058L30.8362 28.1028C29.6352 29.2582 26.1874 31.9638 19.9125 32.3096C19.4242 32.3476 18.9552 32.3476 18.5082 32.3476C13.0523 32.3476 10.7296 30.4921 10.6267 30.4078L11.1606 29.7751L11.5713 29.2743C11.5932 29.2936 14.0163 31.1601 19.8282 30.843ZM32.0152 28.8163C31.217 29.8523 30.237 30.7345 29.1231 31.4198C25.1904 33.9281 20.1882 34.252 16.6856 34.0774L16.6148 35.5423C17.2051 35.571 17.7685 35.5837 18.3176 35.5837C28.1937 35.5837 32.1847 31.1381 33.2996 29.5509L32.0143 28.8045L32.0152 28.8163ZM32.286 23.0725C32.0952 23.2029 31.8701 23.274 31.6391 23.2768C31.3267 23.2782 31.0264 23.1556 30.8042 22.9361C30.5819 22.7165 30.4557 22.4178 30.4533 22.1053C30.4533 21.8743 30.5216 21.6484 30.6497 21.456C30.7778 21.2637 30.96 21.1136 31.1732 21.0245C31.3864 20.9354 31.6212 20.9114 31.8481 20.9554C32.0749 20.9995 32.2837 21.1097 32.448 21.2721C32.6124 21.4345 32.7251 21.6419 32.7719 21.8681C32.8187 22.0944 32.7976 22.3295 32.7111 22.5438C32.6246 22.7581 32.4767 22.942 32.286 23.0725Z" fill="white"/>
</svg>
