<svg xmlns="http://www.w3.org/2000/svg" width="81" height="80" fill="none" viewBox="0 0 81 80">
  <g clip-path="url(#a)">
    <g filter="url(#b)">
      <path fill="url(#c)" fill-opacity=".5" d="m62.04 40.478-.06.062a5.644 5.644 0 0 1-.084.086l-16.278 16.25a7.269 7.269 0 0 1-10.268 0l-4.495-4.487a.813.813 0 0 1 .332-1.353c4.818-1.487 8.733-3.204 11.744-5.15 7.172-4.635 13.541-6.438 19.108-5.408ZM58.626 27.11c6.01 1.894 5.308 6.315 5.388 8.057-6.582-3.45-14.5-2.186-23.753 3.795-6.898 4.458-12.675 6.296-17.333 5.514-4.658-.782-5.706-6.47-5.914-7.983 5.118 2.588 11.977 1.103 20.577-4.455 8.013-5.18 15.025-6.822 21.035-4.928ZM45.618 14.123l4.224 4.216a.814.814 0 0 1-.413 1.374c-6.115 1.232-11.005 3.032-14.67 5.401-6.281 4.06-11.634 5.946-16.058 5.66l16.65-16.65a7.269 7.269 0 0 1 10.267 0Z"/>
    </g>
    <path fill="url(#d)" d="m62.04 45.478-.06.062a5.644 5.644 0 0 1-.084.086l-16.278 16.25a7.269 7.269 0 0 1-10.268 0l-4.495-4.487a.813.813 0 0 1 .332-1.353c4.818-1.487 8.733-3.204 11.744-5.15 7.172-4.635 13.541-6.438 19.108-5.408ZM58.626 32.11c6.01 1.894 5.308 6.315 5.388 8.057-6.582-3.45-14.5-2.186-23.753 3.795-6.898 4.458-12.675 6.296-17.333 5.514-4.658-.782-5.706-6.47-5.914-7.983 5.118 2.588 11.977 1.103 20.577-4.455 8.013-5.18 15.025-6.822 21.035-4.928ZM45.618 19.123l4.224 4.216a.814.814 0 0 1-.413 1.374c-6.115 1.232-11.005 3.032-14.67 5.401-6.281 4.06-11.634 5.946-16.058 5.66l16.65-16.65a7.269 7.269 0 0 1 10.267 0Z"/>
  </g>
  <defs>
    <linearGradient id="c" x1="40.515" x2="40.054" y1="12" y2="91.255" gradientUnits="userSpaceOnUse">
      <stop stop-color="#3068EF"/>
      <stop offset="1" stop-color="#1322AC"/>
    </linearGradient>
    <linearGradient id="d" x1="40.515" x2="40.054" y1="17" y2="96.255" gradientUnits="userSpaceOnUse">
      <stop stop-color="#3068EF"/>
      <stop offset="1" stop-color="#1322AC"/>
    </linearGradient>
    <clipPath id="a">
      <path fill="#fff" d="M.015 0h80.004v80H.015z"/>
    </clipPath>
    <filter id="b" width="75" height="75" x="3.015" y="-2" color-interpolation-filters="sRGB" filterUnits="userSpaceOnUse">
      <feFlood flood-opacity="0" result="BackgroundImageFix"/>
      <feBlend in="SourceGraphic" in2="BackgroundImageFix" result="shape"/>
      <feGaussianBlur result="effect1_foregroundBlur_52_25153" stdDeviation="7"/>
    </filter>
  </defs>
</svg>
