<svg xmlns="http://www.w3.org/2000/svg" width="80" height="80" fill="none" viewBox="0 0 80 80">
  <g clip-path="url(#a)">
    <g filter="url(#b)" opacity=".5">
      <path fill="#F6851B" d="m18.334 30.773 1.445 6.934-.918.68 1.36 1.037-1.037.815 1.36 1.241-.85.612 1.954 2.294-2.956 9.211 2.754 9.398 9.635-2.651 1.87 1.53 3.79 2.634h6.508l3.807-2.634 1.87-1.53 9.635 2.65 2.77-9.397-2.991-9.211 1.97-2.294-.85-.612 1.36-1.24-1.054-.816 1.36-1.037-.901-.68 1.444-6.934-2.157-6.439-13.782 5.149-11.452.001-13.8-5.152-2.144 6.441Z"/>
    </g>
    <path fill="#E2761B" d="m59.513 18.334-16.91 12.558 3.127-7.41 13.783-5.148Z"/>
    <path fill="#E4761B" d="M20.477 18.332 37.251 31.01l-2.974-7.528-13.8-5.15Zm32.952 29.112-4.504 6.9 9.636 2.651 2.77-9.398-7.902-.153Zm-34.737.153 2.753 9.398 9.636-2.651-4.503-6.9-7.886.153Z"/>
    <path fill="#E4761B" d="m30.538 35.787-2.685 4.061 9.568.425-.34-10.282-6.543 5.796Zm18.914-.001-6.628-5.914-.221 10.4 9.55-.424-2.701-4.062ZM31.081 54.343l5.745-2.804-4.963-3.875-.782 6.68Zm12.083-2.803 5.761 2.803-.799-6.679-4.962 3.875Z"/>
    <path fill="#D7C1B3" d="m48.926 54.345-5.761-2.804.458 3.756-.05 1.58 5.353-2.532Zm-17.845 0 5.354 2.532-.034-1.58.425-3.756-5.745 2.804Z"/>
    <path fill="#C0AD9E" d="m43.572 56.877.051-1.58-.424-.374h-6.407l-.391.373.034 1.58-5.354-2.531 1.87 1.53 3.79 2.633h6.509l3.806-2.634 1.87-1.53-5.354 2.533Z"/>
    <path fill="#233447" d="m43.47 45.185 1.41-2.957 3.399 1.546-4.81 1.41Zm-6.95 0-4.793-1.41 3.382-1.547 1.41 2.957Z"/>
    <path fill="#CD6116" d="m31.08 54.345.816-6.9-5.319.153 4.504 6.747Zm17.029-6.9.816 6.9 4.503-6.747-5.32-.153Zm4.045-7.597-9.551.425.884 4.912 1.41-2.957 3.4 1.546 3.857-3.926Zm-20.428 3.926 3.4-1.546 1.393 2.957.9-4.912-9.567-.425 3.874 3.926Z"/>
    <path fill="#E4751F" d="m27.852 39.85 4.01 7.817-.136-3.892-3.874-3.926Zm20.446 3.924-.17 3.892 4.028-7.818-3.858 3.926Zm-10.877-3.501-.9 4.911 1.121 5.796.255-7.631-.476-3.076Zm5.182 0-.459 3.059.205 7.648 1.138-5.796-.884-4.911Z"/>
    <path fill="#F6851B" d="m43.488 45.184-1.139 5.795.816.561 4.962-3.875.17-3.891-4.81 1.41Zm-11.761-1.41.136 3.891 4.962 3.875.816-.56-1.121-5.796-4.793-1.41Z"/>
    <path fill="#161616" d="m43.164 51.541-.816-.56h-4.707l-.816.56-.425 3.756.39-.374h6.408l.425.374-.46-3.756Z"/>
    <path fill="#763D16" d="m60.225 31.707 1.445-6.934-2.159-6.44-16.348 12.134 6.288 5.319 8.888 2.6 1.971-2.294-.85-.612 1.36-1.24-1.054-.816 1.36-1.037-.9-.68Zm-41.891-6.934 1.445 6.934-.918.68 1.36 1.037-1.037.815 1.36 1.241-.85.612 1.954 2.294 8.888-2.6 6.288-5.32-16.349-12.134-2.141 6.441Z"/>
    <path fill="#F6851B" d="m58.34 38.386-8.889-2.6 2.703 4.062-4.028 7.817 5.302-.068h7.903l-2.991-9.211Zm-27.802-2.6-8.889 2.6-2.957 9.211h7.886l5.285.068-4.01-7.817 2.685-4.062Zm12.064 4.489.561-9.806 2.583-6.985H34.275l2.55 6.985.594 9.806.204 3.093.017 7.613h4.707l.034-7.613.221-3.093Z"/>
  </g>
  <defs>
    <clipPath id="a">
      <path fill="#fff" d="M0-.002h80.004v80.004H0z"/>
    </clipPath>
    <filter id="b" width="73.335" height="70.176" x="3.334" y="9.333" color-interpolation-filters="sRGB" filterUnits="userSpaceOnUse">
      <feFlood flood-opacity="0" result="BackgroundImageFix"/>
      <feBlend in="SourceGraphic" in2="BackgroundImageFix" result="shape"/>
      <feGaussianBlur result="effect1_foregroundBlur_52_23790" stdDeviation="7.5"/>
    </filter>
  </defs>
</svg>
