<svg xmlns="http://www.w3.org/2000/svg" width="80" height="80" fill="none" viewBox="0 0 80 80">
  <g filter="url(#a)" opacity=".3">
    <path fill="#4452D3" d="M31.79 19c-1.028 0-1.423 1.265-.562 1.793l21.554 12.949c.538.33 1.254.2 1.624-.295l9.477-12.396c.644-.86-.007-2.051-1.122-2.051H31.789Zm33.876 29.848c1.027 0 1.432-1.272.571-1.8L44.677 34.1a1.22 1.22 0 0 0-1.606.311l-9.496 12.393c-.644.861.028 2.043 1.143 2.043h30.948Z"/>
  </g>
  <path fill="#4452D3" d="M24.327 26.461c-1.027 0-1.422 1.265-.56 1.794L45.32 41.203c.538.33 1.254.2 1.624-.295l9.477-12.395c.644-.861-.007-2.052-1.122-2.052H24.327Zm33.877 29.848c1.027 0 1.432-1.272.571-1.8l-21.56-12.947a1.22 1.22 0 0 0-1.606.312l-9.496 12.392c-.644.861.028 2.043 1.143 2.043h30.948Z"/>
  <defs>
    <filter id="a" width="59.949" height="53.848" x="18.756" y="7" color-interpolation-filters="sRGB" filterUnits="userSpaceOnUse">
      <feFlood flood-opacity="0" result="BackgroundImageFix"/>
      <feBlend in="SourceGraphic" in2="BackgroundImageFix" result="shape"/>
      <feGaussianBlur result="effect1_foregroundBlur_52_25687" stdDeviation="6"/>
    </filter>
  </defs>
</svg>
