<svg width="500" height="500" viewBox="0 0 500 500" fill="none" xmlns="http://www.w3.org/2000/svg">
<ellipse cx="244.211" cy="344.244" rx="135.4" ry="76.7561" fill="url(#paint0_radial_2174_373)"/>
<g filter="url(#filter0_f_2174_373)">
<ellipse cx="249.556" cy="252.494" rx="81.3585" ry="46.1724" fill="url(#paint1_radial_2174_373)"/>
</g>
<path d="M372.361 256.051L378.473 252.519L378.728 342.838L372.616 346.371L364.876 350.842L358.764 354.375L358.652 314.9L342.086 364.015L336.851 367.041L336.409 366.253L335.974 367.548L330.74 370.574L313.952 340.736L314.065 380.21L307.949 383.743L300.214 388.214L294.102 391.747L293.847 301.427L299.959 297.894L307.15 293.739L313.262 290.206L336.308 329.872L359.053 263.736L365.165 260.203L372.357 256.047L372.361 256.051ZM339.386 335.169L364.246 262.884L360.216 265.215L337.358 331.677L339.386 335.169ZM334.804 366.08L335.37 364.402L313.915 326.272L313.941 335.841L331.902 367.758L334.804 366.08ZM300.214 386.078L299.97 300.042L295.722 302.497L295.965 388.533L300.214 386.078ZM364.873 348.702L364.726 296.903L360.504 309.419L360.624 351.157L364.873 348.702Z" fill="url(#paint2_radial_2174_373)"/>
<path d="M372.361 256.051L378.473 252.519L378.728 342.838L372.616 346.371L364.876 350.842L358.764 354.375L358.652 314.9L342.086 364.015L336.851 367.041L336.409 366.253L335.974 367.548L330.74 370.574L313.952 340.736L314.065 380.21L307.949 383.743L300.214 388.214L294.102 391.747L293.847 301.427L299.959 297.894L307.15 293.739L313.262 290.206L336.308 329.872L359.053 263.736L365.165 260.203L372.357 256.047L372.361 256.051ZM339.386 335.169L364.246 262.884L360.216 265.215L337.358 331.677L339.386 335.169ZM334.804 366.08L335.37 364.402L313.915 326.272L313.941 335.841L331.902 367.758L334.804 366.08ZM300.214 386.078L299.97 300.042L295.722 302.497L295.965 388.533L300.214 386.078ZM364.873 348.702L364.726 296.903L360.504 309.419L360.624 351.157L364.873 348.702Z" fill="url(#paint3_radial_2174_373)"/>
<path d="M267.826 376.374L293.73 391.349V301.496L267.826 286.318V376.374Z" fill="url(#paint4_linear_2174_373)"/>
<path d="M332.787 248.475L316.192 296.032L336.227 329.424L359.095 263.653L332.787 248.475Z" fill="url(#paint5_linear_2174_373)"/>
<path d="M287.052 274.784L267.22 286.117L293.73 301.294L313.361 290.164L287.052 274.784Z" fill="url(#paint6_linear_2174_373)"/>
<path d="M352.418 237.142L332.586 248.474L359.097 263.652L378.727 252.522L352.418 237.142Z" fill="url(#paint7_linear_2174_373)"/>
<path d="M241.924 375.626C243.503 379.747 244.288 384.264 244.276 389.177C244.26 394.407 243.296 398.422 241.382 401.223C239.467 404.023 236.897 405.768 233.676 406.46C230.45 407.152 226.807 406.954 222.743 405.869C218.676 404.784 214.487 402.999 210.172 400.51C209.047 399.859 207.938 399.174 206.853 398.47C205.768 397.924 204.676 397.337 203.575 396.702C197.297 393.075 191.639 388.534 186.608 383.078C184.997 381.329 183.475 379.524 182.05 377.654C176.728 377.351 170.641 375.218 163.776 371.255C162.072 370.272 160.421 369.223 158.81 368.127C157.847 367.795 156.871 367.264 155.876 366.69C147.4 361.796 140.099 355.462 133.971 347.679C127.843 339.896 123.132 331.238 119.841 321.702C116.547 312.175 114.915 302.36 114.944 292.257C114.972 282.163 116.656 274.258 119.991 268.551C123.33 262.848 128.07 259.647 134.222 258.955C140.374 258.263 147.688 260.363 156.163 265.253C157.159 265.827 158.138 266.43 159.097 267.042C160.708 267.968 162.36 268.835 164.064 269.818C172.575 274.732 179.889 281.078 186.001 288.857C186.45 288.886 186.907 288.93 187.373 288.995C192.068 289.626 197.249 291.581 202.911 294.852L203.271 295.058C204.226 295.625 205.165 296.216 206.088 296.819C207.225 297.389 208.383 298.009 209.565 298.689C215.717 302.331 220.93 306.496 225.512 311.353C230.098 316.214 233.935 321.642 237.019 327.648C239.783 333.027 241.855 338.754 243.227 344.834L236.986 342.684C237.019 342.842 237.051 343.004 237.088 343.166L219.773 336.556C219.153 333.039 218.004 329.712 216.324 326.571C214.644 323.431 212.633 320.626 210.306 318.153C208.788 316.542 207.225 315.125 205.611 313.903C204.542 313.486 203.494 313.174 202.482 312.992C200.264 312.592 198.455 312.822 197.058 313.688C195.662 314.555 194.962 316.137 194.954 318.432C194.95 320.553 195.512 322.601 196.645 324.588C197.783 326.575 199.212 328.474 200.936 330.283C202.66 332.092 204.425 333.788 206.226 335.367L220.926 348.46C223.12 350.403 225.548 352.698 228.216 355.341C230.879 357.984 233.437 360.995 235.881 364.375C238.326 367.75 240.338 371.498 241.92 375.614L241.924 375.626ZM207.99 381.783C209.464 382.402 210.917 382.859 212.337 383.134C214.81 383.612 216.846 383.389 218.441 382.459C220.036 381.528 220.837 379.71 220.845 377.007C220.845 376.015 220.72 374.983 220.469 373.91C220.214 372.838 219.801 371.729 219.214 370.579C218.627 369.426 217.793 368.179 216.721 366.835C215.644 365.492 214.28 364.051 212.637 362.509L190.647 342.365C189 340.871 187.089 339.001 184.916 336.751C182.742 334.504 180.634 331.865 178.602 328.842C176.566 325.815 174.878 322.39 173.53 318.566C172.187 314.741 171.523 310.507 171.535 305.861C171.547 301.214 172.308 297.426 173.814 294.714C170.981 291.796 167.714 289.266 164.023 287.137C158.648 284.033 154.163 282.823 150.565 283.494C146.967 284.174 144.259 286.494 142.442 290.456C140.621 294.419 139.702 299.781 139.686 306.545C139.67 313.308 140.552 319.707 142.345 325.754C144.134 331.797 146.821 337.232 150.403 342.061C153.985 346.882 158.462 350.844 163.837 353.948C166.439 355.45 168.827 356.506 171.009 357.126C169.6 352.969 168.641 348.727 168.127 344.4L184.851 351.212C184.928 351.621 185.009 352.03 185.098 352.435L191.449 355.021C192.61 361.286 195.031 367.001 198.71 372.15C201.51 376.068 204.607 379.281 207.999 381.791M135.015 346.299C138.787 351.091 143.094 355.345 147.874 359.02C145.765 356.899 143.766 354.64 141.879 352.244C135.748 344.465 131.04 335.808 127.746 326.276C124.451 316.744 122.82 306.929 122.848 296.831C122.877 286.728 124.556 278.828 127.896 273.125C131.235 267.422 135.974 264.217 142.13 263.528C144.025 263.314 146.028 263.367 148.141 263.682C143.361 261.837 139.046 261.116 135.254 261.541C129.466 262.193 124.933 265.253 121.788 270.632C118.607 276.067 116.984 283.737 116.955 293.427C116.927 302.768 118.655 313.077 121.642 321.719C124.747 330.708 129.247 338.981 135.015 346.307M177.465 294.366C176.76 295.018 176.153 295.807 175.639 296.73C174.255 299.207 173.551 302.651 173.539 307.018C173.526 311.385 174.125 315.15 175.319 318.541C176.53 321.978 178.051 325.074 179.845 327.741C181.718 330.526 183.673 332.979 185.657 335.031C187.757 337.204 189.619 339.029 191.198 340.462L193.266 342.356C192.699 341.786 192.116 341.191 191.505 340.559C189.332 338.313 187.227 335.674 185.191 332.651C183.159 329.623 181.468 326.195 180.12 322.374C178.776 318.549 178.112 314.316 178.124 309.673C178.145 303.137 179.59 298.531 182.467 295.855C185.159 293.354 188.688 292.306 193.055 292.711C191.335 292.168 189.676 291.788 188.093 291.577C183.641 290.99 180.087 291.933 177.469 294.374M187.421 381.43C189.433 383.608 191.57 385.648 193.816 387.538C193.614 387.324 193.407 387.105 193.205 386.886C188.17 381.426 184.046 375.392 180.82 368.762C177.792 362.537 175.813 356.114 174.886 349.484L170.463 347.683C171.005 351.022 171.839 354.325 172.956 357.559C173.761 359.894 174.716 362.193 175.813 364.447C178.1 369.151 180.913 373.583 184.2 377.679C185.228 378.962 186.3 380.212 187.425 381.43M225.034 386.263C226.629 385.332 227.43 383.515 227.434 380.807C227.434 379.816 227.313 378.783 227.062 377.711C226.807 376.638 226.39 375.529 225.807 374.376C225.22 373.226 224.387 371.976 223.314 370.632C222.237 369.288 220.878 367.847 219.23 366.309L215.628 363.007C216.409 363.828 217.113 364.634 217.733 365.407C219.028 367.022 220.019 368.519 220.764 369.98C221.509 371.449 222.059 372.907 222.391 374.307C222.703 375.635 222.861 376.93 222.857 378.152C222.849 381.475 221.841 383.746 219.87 384.895C218.639 385.607 217.17 385.956 215.494 385.939C216.656 386.376 217.805 386.708 218.939 386.927C221.412 387.405 223.448 387.182 225.042 386.251M216.907 321.965C215.385 320.351 213.819 318.934 212.204 317.708C214.341 320.164 216.227 322.908 217.83 325.9C219.339 328.721 220.481 331.695 221.23 334.772L225.407 336.366C224.779 334.306 223.954 332.311 222.921 330.388C221.242 327.247 219.234 324.442 216.903 321.969" fill="url(#paint8_radial_2174_373)"/>
<path d="M241.924 375.626C243.503 379.747 244.288 384.264 244.276 389.177C244.26 394.407 243.296 398.422 241.382 401.223C239.467 404.023 236.897 405.768 233.676 406.46C230.45 407.152 226.807 406.954 222.743 405.869C218.676 404.784 214.487 402.999 210.172 400.51C209.047 399.859 207.938 399.174 206.853 398.47C205.768 397.924 204.676 397.337 203.575 396.702C197.297 393.075 191.639 388.534 186.608 383.078C184.997 381.329 183.475 379.524 182.05 377.654C176.728 377.351 170.641 375.218 163.776 371.255C162.072 370.272 160.421 369.223 158.81 368.127C157.847 367.795 156.871 367.264 155.876 366.69C147.4 361.796 140.099 355.462 133.971 347.679C127.843 339.896 123.132 331.238 119.841 321.702C116.547 312.175 114.915 302.36 114.944 292.257C114.972 282.163 116.656 274.258 119.991 268.551C123.33 262.848 128.07 259.647 134.222 258.955C140.374 258.263 147.688 260.363 156.163 265.253C157.159 265.827 158.138 266.43 159.097 267.042C160.708 267.968 162.36 268.835 164.064 269.818C172.575 274.732 179.889 281.078 186.001 288.857C186.45 288.886 186.907 288.93 187.373 288.995C192.068 289.626 197.249 291.581 202.911 294.852L203.271 295.058C204.226 295.625 205.165 296.216 206.088 296.819C207.225 297.389 208.383 298.009 209.565 298.689C215.717 302.331 220.93 306.496 225.512 311.353C230.098 316.214 233.935 321.642 237.019 327.648C239.783 333.027 241.855 338.754 243.227 344.834L236.986 342.684C237.019 342.842 237.051 343.004 237.088 343.166L219.773 336.556C219.153 333.039 218.004 329.712 216.324 326.571C214.644 323.431 212.633 320.626 210.306 318.153C208.788 316.542 207.225 315.125 205.611 313.903C204.542 313.486 203.494 313.174 202.482 312.992C200.264 312.592 198.455 312.822 197.058 313.688C195.662 314.555 194.962 316.137 194.954 318.432C194.95 320.553 195.512 322.601 196.645 324.588C197.783 326.575 199.212 328.474 200.936 330.283C202.66 332.092 204.425 333.788 206.226 335.367L220.926 348.46C223.12 350.403 225.548 352.698 228.216 355.341C230.879 357.984 233.437 360.995 235.881 364.375C238.326 367.75 240.338 371.498 241.92 375.614L241.924 375.626ZM207.99 381.783C209.464 382.402 210.917 382.859 212.337 383.134C214.81 383.612 216.846 383.389 218.441 382.459C220.036 381.528 220.837 379.71 220.845 377.007C220.845 376.015 220.72 374.983 220.469 373.91C220.214 372.838 219.801 371.729 219.214 370.579C218.627 369.426 217.793 368.179 216.721 366.835C215.644 365.492 214.28 364.051 212.637 362.509L190.647 342.365C189 340.871 187.089 339.001 184.916 336.751C182.742 334.504 180.634 331.865 178.602 328.842C176.566 325.815 174.878 322.39 173.53 318.566C172.187 314.741 171.523 310.507 171.535 305.861C171.547 301.214 172.308 297.426 173.814 294.714C170.981 291.796 167.714 289.266 164.023 287.137C158.648 284.033 154.163 282.823 150.565 283.494C146.967 284.174 144.259 286.494 142.442 290.456C140.621 294.419 139.702 299.781 139.686 306.545C139.67 313.308 140.552 319.707 142.345 325.754C144.134 331.797 146.821 337.232 150.403 342.061C153.985 346.882 158.462 350.844 163.837 353.948C166.439 355.45 168.827 356.506 171.009 357.126C169.6 352.969 168.641 348.727 168.127 344.4L184.851 351.212C184.928 351.621 185.009 352.03 185.098 352.435L191.449 355.021C192.61 361.286 195.031 367.001 198.71 372.15C201.51 376.068 204.607 379.281 207.999 381.791M135.015 346.299C138.787 351.091 143.094 355.345 147.874 359.02C145.765 356.899 143.766 354.64 141.879 352.244C135.748 344.465 131.04 335.808 127.746 326.276C124.451 316.744 122.82 306.929 122.848 296.831C122.877 286.728 124.556 278.828 127.896 273.125C131.235 267.422 135.974 264.217 142.13 263.528C144.025 263.314 146.028 263.367 148.141 263.682C143.361 261.837 139.046 261.116 135.254 261.541C129.466 262.193 124.933 265.253 121.788 270.632C118.607 276.067 116.984 283.737 116.955 293.427C116.927 302.768 118.655 313.077 121.642 321.719C124.747 330.708 129.247 338.981 135.015 346.307M177.465 294.366C176.76 295.018 176.153 295.807 175.639 296.73C174.255 299.207 173.551 302.651 173.539 307.018C173.526 311.385 174.125 315.15 175.319 318.541C176.53 321.978 178.051 325.074 179.845 327.741C181.718 330.526 183.673 332.979 185.657 335.031C187.757 337.204 189.619 339.029 191.198 340.462L193.266 342.356C192.699 341.786 192.116 341.191 191.505 340.559C189.332 338.313 187.227 335.674 185.191 332.651C183.159 329.623 181.468 326.195 180.12 322.374C178.776 318.549 178.112 314.316 178.124 309.673C178.145 303.137 179.59 298.531 182.467 295.855C185.159 293.354 188.688 292.306 193.055 292.711C191.335 292.168 189.676 291.788 188.093 291.577C183.641 290.99 180.087 291.933 177.469 294.374M187.421 381.43C189.433 383.608 191.57 385.648 193.816 387.538C193.614 387.324 193.407 387.105 193.205 386.886C188.17 381.426 184.046 375.392 180.82 368.762C177.792 362.537 175.813 356.114 174.886 349.484L170.463 347.683C171.005 351.022 171.839 354.325 172.956 357.559C173.761 359.894 174.716 362.193 175.813 364.447C178.1 369.151 180.913 373.583 184.2 377.679C185.228 378.962 186.3 380.212 187.425 381.43M225.034 386.263C226.629 385.332 227.43 383.515 227.434 380.807C227.434 379.816 227.313 378.783 227.062 377.711C226.807 376.638 226.39 375.529 225.807 374.376C225.22 373.226 224.387 371.976 223.314 370.632C222.237 369.288 220.878 367.847 219.23 366.309L215.628 363.007C216.409 363.828 217.113 364.634 217.733 365.407C219.028 367.022 220.019 368.519 220.764 369.98C221.509 371.449 222.059 372.907 222.391 374.307C222.703 375.635 222.861 376.93 222.857 378.152C222.849 381.475 221.841 383.746 219.87 384.895C218.639 385.607 217.17 385.956 215.494 385.939C216.656 386.376 217.805 386.708 218.939 386.927C221.412 387.405 223.448 387.182 225.042 386.251M216.907 321.965C215.385 320.351 213.819 318.934 212.204 317.708C214.341 320.164 216.227 322.908 217.83 325.9C219.339 328.721 220.481 331.695 221.23 334.772L225.407 336.366C224.779 334.306 223.954 332.311 222.921 330.388C221.242 327.247 219.234 324.442 216.903 321.969" fill="url(#paint9_radial_2174_373)"/>
<path d="M158.657 243.061L125.468 262.084C130.055 260.397 138.015 256.424 156.835 265.726C170.921 272.688 181.997 284.142 185.775 288.999L214.107 272.404L214.086 272.382C210.897 268.922 202.036 259.307 189.822 251.358C177.073 243.061 169.99 239.956 158.657 243.061Z" fill="url(#paint10_linear_2174_373)"/>
<path d="M213.905 272.202L181.728 291.023C186.315 289.336 200.953 293.357 212.893 301.008C226.122 309.485 242.844 333.926 242.844 344.247L268.95 329.607C268.95 325.559 268.343 302.76 242.844 284.749C230.915 276.323 219.369 271.393 213.905 272.202Z" fill="url(#paint11_linear_2174_373)"/>
<path d="M266.926 387.96L238.189 404.757C240.55 402.261 246.89 397.269 243.248 379.865C239.607 362.469 214.916 342.831 202.774 332.712C193.06 324.617 194.004 317.467 195.69 314.904L220.987 300.535C221.594 302.289 224.104 307.618 229.284 314.904C235.76 324.01 265.307 341.212 270.973 361.449C275.506 377.639 270.163 385.869 266.926 387.96Z" fill="url(#paint12_linear_2174_373)"/>
<path d="M153.193 283.264C158.535 283.264 166.482 288.391 169.787 290.954C168.775 292.978 167.804 300.344 172.013 313.62C176.222 326.896 189.417 339.119 195.488 343.571L171.204 357.13C162.502 355.106 151.169 345.19 145.705 334.464C140.241 323.739 138.824 315.644 139.836 301.073C140.848 286.502 146.514 283.264 153.193 283.264Z" fill="url(#paint13_linear_2174_373)"/>
<g clip-path="url(#clip0_2174_373)">
<path d="M253.119 269.779C286.271 269.779 313.146 243.062 313.146 210.104C313.146 197.457 309.188 185.728 302.437 176.076L253.084 205.988L202.997 177.255C196.736 186.677 193.092 197.967 193.092 210.104C193.092 243.062 219.967 269.779 253.119 269.779Z" fill="url(#paint14_radial_2174_373)"/>
<path d="M252.907 205.986L302.437 176.091C252.985 268.487 253.379 269.746 253.379 269.746C253.379 249.623 252.907 227.119 252.907 205.986Z" fill="url(#paint15_radial_2174_373)"/>
<path opacity="0.3" d="M252.907 205.986L202.875 177.242L253.304 269.701C253.304 249.577 252.907 227.119 252.907 205.986Z" fill="url(#paint16_radial_2174_373)"/>
<path opacity="0.2" d="M253.111 142.653V191.085L210.514 166.885L253.111 142.653Z" fill="#00A3FF"/>
<path opacity="0.8" d="M253.124 142.653L295.752 166.884L253.124 191.085V142.653Z" fill="url(#paint17_radial_2174_373)"/>
<path d="M253.124 101.922L295.752 166.901L253.124 142.601V101.922Z" fill="url(#paint18_radial_2174_373)"/>
<path opacity="0.5" d="M253.111 142.593L210.482 166.893L253.111 101.882V142.593Z" fill="url(#paint19_radial_2174_373)"/>
<g opacity="0.6" filter="url(#filter2_f_2174_373)">
<path d="M235.517 269.779C268.669 269.779 295.544 243.062 295.544 210.104C295.544 197.457 291.587 185.728 284.835 176.076L235.483 205.988L185.395 177.255C179.135 186.677 175.49 197.967 175.49 210.104C175.49 243.062 202.365 269.779 235.517 269.779Z" fill="url(#paint20_radial_2174_373)"/>
<path d="M235.304 205.987L284.834 176.092C235.383 268.488 235.777 269.747 235.777 269.747C235.777 249.624 235.304 227.12 235.304 205.987Z" fill="url(#paint21_radial_2174_373)"/>
<path opacity="0.3" d="M235.305 205.988L185.273 177.244L235.702 269.702C235.702 249.579 235.305 227.12 235.305 205.988Z" fill="url(#paint22_radial_2174_373)"/>
<path opacity="0.2" d="M235.509 142.654V191.087L192.912 166.886L235.509 142.654Z" fill="#00A3FF"/>
<path opacity="0.8" d="M235.522 142.654L278.149 166.886L235.522 191.087V142.654Z" fill="url(#paint23_radial_2174_373)"/>
<path d="M235.522 101.923L278.149 166.902L235.522 142.602V101.923Z" fill="url(#paint24_radial_2174_373)"/>
<path opacity="0.5" d="M235.509 142.595L192.879 166.895L235.509 101.884V142.595Z" fill="url(#paint25_radial_2174_373)"/>
</g>
</g>
<path d="M384.693 143.505C393.315 148.434 393.362 156.424 384.795 161.35L268.664 228.16C260.097 233.09 246.161 233.09 237.54 228.16L120.652 161.353C112.03 156.424 111.984 148.434 120.55 143.507L236.681 76.6973C245.248 71.7682 259.184 71.7682 267.805 76.6973L384.696 143.505H384.693Z" fill="url(#paint26_radial_2174_373)"/>
<path d="M384.693 165.313C393.315 170.252 393.362 178.257 384.795 183.192L268.664 250.127C260.097 255.066 246.161 255.066 237.54 250.127L120.652 183.195C112.03 178.257 111.984 170.252 120.55 165.316L236.681 98.381C245.248 93.4427 259.184 93.4427 267.805 98.381L384.696 165.313H384.693Z" fill="url(#paint27_radial_2174_373)"/>
<defs>
<filter id="filter0_f_2174_373" x="110.736" y="148.861" width="277.638" height="207.266" filterUnits="userSpaceOnUse" color-interpolation-filters="sRGB">
<feFlood flood-opacity="0" result="BackgroundImageFix"/>
<feBlend mode="normal" in="SourceGraphic" in2="BackgroundImageFix" result="shape"/>
<feGaussianBlur stdDeviation="28.7304" result="effect1_foregroundBlur_2174_373"/>
</filter>
<filter id="filter2_f_2174_373" x="133.626" y="60.0195" width="203.783" height="251.624" filterUnits="userSpaceOnUse" color-interpolation-filters="sRGB">
<feFlood flood-opacity="0" result="BackgroundImageFix"/>
<feBlend mode="normal" in="SourceGraphic" in2="BackgroundImageFix" result="shape"/>
<feGaussianBlur stdDeviation="20.9321" result="effect1_foregroundBlur_2174_373"/>
</filter>
<radialGradient id="paint0_radial_2174_373" cx="0" cy="0" r="1" gradientTransform="matrix(0 -215.029 -180.274 2.1228 240.088 490.205)" gradientUnits="userSpaceOnUse">
<stop offset="0.00493164" stop-color="#C8DFFF"/>
<stop offset="1" stop-color="#C4D9FD" stop-opacity="0"/>
</radialGradient>
<radialGradient id="paint1_radial_2174_373" cx="0" cy="0" r="1" gradientUnits="userSpaceOnUse" gradientTransform="translate(256.088 252.642) scale(60.5735 36.8218)">
<stop offset="0.0404544" stop-color="#00A3FF"/>
<stop offset="0.929325" stop-color="#00A3FF" stop-opacity="0"/>
</radialGradient>
<radialGradient id="paint2_radial_2174_373" cx="0" cy="0" r="1" gradientTransform="matrix(79.1425 171.406 -87.8682 46.1035 279.16 315.662)" gradientUnits="userSpaceOnUse">
<stop stop-color="#00A3FF" stop-opacity="0.87"/>
<stop offset="0.723967" stop-color="#6BAFFF" stop-opacity="0"/>
</radialGradient>
<radialGradient id="paint3_radial_2174_373" cx="0" cy="0" r="1" gradientTransform="matrix(-264.242 -171.935 63.593 -64.4913 539.152 398.756)" gradientUnits="userSpaceOnUse">
<stop stop-color="#2238FF"/>
<stop offset="1" stop-color="#0047FF" stop-opacity="0"/>
</radialGradient>
<linearGradient id="paint4_linear_2174_373" x1="255.642" y1="269.121" x2="321.642" y2="321.377" gradientUnits="userSpaceOnUse">
<stop stop-color="#00A3FF"/>
<stop offset="1" stop-color="#00A3FF" stop-opacity="0"/>
</linearGradient>
<linearGradient id="paint5_linear_2174_373" x1="319.745" y1="302.219" x2="359.144" y2="308.848" gradientUnits="userSpaceOnUse">
<stop stop-color="#357CE6" stop-opacity="0.42"/>
<stop offset="1" stop-color="#00A3FF" stop-opacity="0"/>
<stop offset="1" stop-color="#00A3FF" stop-opacity="0"/>
</linearGradient>
<linearGradient id="paint6_linear_2174_373" x1="336.859" y1="247.568" x2="240.606" y2="257.92" gradientUnits="userSpaceOnUse">
<stop stop-color="#5F82FF"/>
<stop offset="0.780546" stop-color="#00A3FF" stop-opacity="0"/>
</linearGradient>
<linearGradient id="paint7_linear_2174_373" x1="402.225" y1="209.926" x2="305.973" y2="220.278" gradientUnits="userSpaceOnUse">
<stop stop-color="#5F82FF"/>
<stop offset="0.780546" stop-color="#00A3FF" stop-opacity="0"/>
</linearGradient>
<radialGradient id="paint8_radial_2174_373" cx="0" cy="0" r="1" gradientTransform="matrix(114.188 -240.733 135.554 108.825 154.571 475.376)" gradientUnits="userSpaceOnUse">
<stop stop-color="#00A3FF" stop-opacity="0.87"/>
<stop offset="0.723967" stop-color="#6BAFFF" stop-opacity="0"/>
</radialGradient>
<radialGradient id="paint9_radial_2174_373" cx="0" cy="0" r="1" gradientTransform="matrix(331.688 -257.046 14.6678 111.692 -25.3608 457.087)" gradientUnits="userSpaceOnUse">
<stop stop-color="#2238FF"/>
<stop offset="1" stop-color="#0047FF" stop-opacity="0"/>
</radialGradient>
<linearGradient id="paint10_linear_2174_373" x1="109.094" y1="242.058" x2="204.274" y2="293.51" gradientUnits="userSpaceOnUse">
<stop stop-color="#2238FF"/>
<stop offset="1" stop-color="#77C7FF" stop-opacity="0.1"/>
</linearGradient>
<linearGradient id="paint11_linear_2174_373" x1="190.317" y1="301.728" x2="242.447" y2="344.075" gradientUnits="userSpaceOnUse">
<stop stop-color="#5F82FF"/>
<stop offset="0.780546" stop-color="#00A3FF" stop-opacity="0.3"/>
</linearGradient>
<linearGradient id="paint12_linear_2174_373" x1="250.938" y1="431.065" x2="216.939" y2="324.213" gradientUnits="userSpaceOnUse">
<stop stop-color="#00A3FF"/>
<stop offset="0.424638" stop-color="#00A3FF" stop-opacity="0.575362"/>
<stop offset="1" stop-color="#00A3FF" stop-opacity="0"/>
</linearGradient>
<linearGradient id="paint13_linear_2174_373" x1="111.566" y1="215.859" x2="230.053" y2="272.53" gradientUnits="userSpaceOnUse">
<stop stop-color="#2238FF"/>
<stop offset="1" stop-color="#77C7FF" stop-opacity="0.1"/>
</linearGradient>
<radialGradient id="paint14_radial_2174_373" cx="0" cy="0" r="1" gradientTransform="matrix(194.665 -14.2973 19.2968 259.346 167.455 231.559)" gradientUnits="userSpaceOnUse">
<stop offset="0.104397" stop-color="#E3F5FF" stop-opacity="0"/>
<stop offset="0.668358" stop-color="#00A3FF" stop-opacity="0.45726"/>
<stop offset="0.927101" stop-color="#00A3FF"/>
</radialGradient>
<radialGradient id="paint15_radial_2174_373" cx="0" cy="0" r="1" gradientTransform="matrix(24.6983 62.0104 78.1588 -30.766 252.973 207.736)" gradientUnits="userSpaceOnUse">
<stop stop-color="#00A3FF"/>
<stop offset="1" stop-color="#00A3FF" stop-opacity="0"/>
</radialGradient>
<radialGradient id="paint16_radial_2174_373" cx="0" cy="0" r="1" gradientTransform="matrix(-94.7717 59.9555 -32.0891 -50.1299 255.93 209.806)" gradientUnits="userSpaceOnUse">
<stop stop-color="#00A3FF"/>
<stop offset="1" stop-color="#00A3FF" stop-opacity="0"/>
</radialGradient>
<radialGradient id="paint17_radial_2174_373" cx="0" cy="0" r="1" gradientTransform="matrix(68.0633 -35.1168 -30.908 -59.205 249.704 186.68)" gradientUnits="userSpaceOnUse">
<stop stop-color="#00A3FF"/>
<stop offset="1" stop-color="#00A3FF" stop-opacity="0"/>
</radialGradient>
<radialGradient id="paint18_radial_2174_373" cx="0" cy="0" r="1" gradientTransform="matrix(-64.366 61.6913 40.4711 41.7319 274.438 134.411)" gradientUnits="userSpaceOnUse">
<stop stop-color="#00A3FF"/>
<stop offset="1" stop-color="#00A3FF" stop-opacity="0"/>
</radialGradient>
<radialGradient id="paint19_radial_2174_373" cx="0" cy="0" r="1" gradientTransform="matrix(-38.7702 -39.3993 -50.169 48.7905 253.15 146.425)" gradientUnits="userSpaceOnUse">
<stop stop-color="#00A3FF"/>
<stop offset="0.490775" stop-color="#00A3FF" stop-opacity="0.509225"/>
<stop offset="1" stop-color="#00A3FF" stop-opacity="0"/>
</radialGradient>
<radialGradient id="paint20_radial_2174_373" cx="0" cy="0" r="1" gradientTransform="matrix(164.294 -13.3422 17.9856 218.882 180.224 230.604)" gradientUnits="userSpaceOnUse">
<stop offset="0.104397" stop-color="#00A3FF" stop-opacity="0"/>
<stop offset="0.668358" stop-color="#00A3FF" stop-opacity="0.45726"/>
<stop offset="0.927101" stop-color="#00A3FF"/>
</radialGradient>
<radialGradient id="paint21_radial_2174_373" cx="0" cy="0" r="1" gradientTransform="matrix(24.6984 62.0104 78.1588 -30.766 235.371 207.737)" gradientUnits="userSpaceOnUse">
<stop stop-color="#00A3FF"/>
<stop offset="1" stop-color="#00A3FF" stop-opacity="0"/>
</radialGradient>
<radialGradient id="paint22_radial_2174_373" cx="0" cy="0" r="1" gradientTransform="matrix(-94.7717 59.9555 -32.0891 -50.1299 238.328 209.808)" gradientUnits="userSpaceOnUse">
<stop stop-color="#00A3FF"/>
<stop offset="1" stop-color="#00A3FF" stop-opacity="0"/>
</radialGradient>
<radialGradient id="paint23_radial_2174_373" cx="0" cy="0" r="1" gradientTransform="matrix(68.0633 -35.1168 -30.908 -59.205 232.101 186.682)" gradientUnits="userSpaceOnUse">
<stop stop-color="#00A3FF"/>
<stop offset="1" stop-color="#00A3FF" stop-opacity="0"/>
</radialGradient>
<radialGradient id="paint24_radial_2174_373" cx="0" cy="0" r="1" gradientTransform="matrix(-64.366 61.6913 40.4711 41.7319 256.836 134.413)" gradientUnits="userSpaceOnUse">
<stop stop-color="#00A3FF"/>
<stop offset="1" stop-color="#00A3FF" stop-opacity="0"/>
</radialGradient>
<radialGradient id="paint25_radial_2174_373" cx="0" cy="0" r="1" gradientTransform="matrix(-38.7702 -39.3993 -50.169 48.7905 235.547 146.426)" gradientUnits="userSpaceOnUse">
<stop stop-color="#00A3FF"/>
<stop offset="0.490775" stop-color="#00A3FF" stop-opacity="0.509225"/>
<stop offset="1" stop-color="#00A3FF" stop-opacity="0"/>
</radialGradient>
<radialGradient id="paint26_radial_2174_373" cx="0" cy="0" r="1" gradientUnits="userSpaceOnUse" gradientTransform="translate(248.242 179.446) rotate(-90) scale(165.5 238.466)">
<stop offset="0.347213" stop-color="#6822FF" stop-opacity="0"/>
<stop offset="1" stop-color="#6822FF"/>
</radialGradient>
<radialGradient id="paint27_radial_2174_373" cx="0" cy="0" r="1" gradientUnits="userSpaceOnUse" gradientTransform="translate(248.242 201.322) rotate(-90) scale(165.81 238.466)">
<stop offset="0.347213" stop-color="#6822FF" stop-opacity="0"/>
<stop offset="1" stop-color="#6822FF"/>
</radialGradient>
<clipPath id="clip0_2174_373">
<rect x="140.286" y="73" width="225.666" height="225.666" rx="8.20868" fill="white"/>
</clipPath>
</defs>
</svg>
