<svg xmlns="http://www.w3.org/2000/svg" width="501" height="500" fill="none" viewBox="0 0 501 500">
  <path fill="url(#a)" d="m158.233 197.468 93.159 53.252V55l-93.159 142.468Z"/>
  <path fill="url(#b)" d="m344.395 197.468-93.004 53.252V55l93.004 142.468Z"/>
  <path fill="url(#c)" fill-opacity=".6" d="m344.395 197.468-93.004 53.252V55l93.004 142.468Z"/>
  <path fill="url(#d)" d="M251.391 425c73.059 0 132.285-58.879 132.285-131.509 0-27.872-8.721-53.719-23.6-74.99l-109.57 65.574-109.571-62.976c-13.797 20.763-21.829 45.645-21.829 72.392 0 72.63 59.226 131.509 132.285 131.509Z"/>
  <path fill="url(#e)" d="M251.391 425c73.059 0 132.285-58.879 132.285-131.509 0-27.872-8.721-53.719-23.6-74.99l-109.57 65.574-109.571-62.976c-13.797 20.763-21.829 45.645-21.829 72.392 0 72.63 59.226 131.509 132.285 131.509Z"/>
  <path fill="url(#f)" d="M251.391 425c73.059 0 132.285-58.879 132.285-131.509 0-27.872-8.721-53.719-23.6-74.99l-109.57 65.574-109.571-62.976c-13.797 20.763-21.829 45.645-21.829 72.392 0 72.63 59.226 131.509 132.285 131.509Z"/>
  <g opacity=".9">
    <ellipse cx="246.86" cy="344.863" fill="url(#g)" rx="170.808" ry="50" transform="rotate(1.977 246.86 344.863)"/>
    <ellipse cx="246.86" cy="344.863" fill="url(#h)" fill-opacity=".6" rx="170.808" ry="50" transform="rotate(1.977 246.86 344.863)"/>
  </g>
  <g opacity=".9">
    <ellipse cx="255.525" cy="311.483" fill="url(#i)" rx="183.126" ry="62" transform="rotate(-8.2 255.525 311.483)"/>
    <ellipse cx="255.525" cy="311.483" fill="url(#j)" fill-opacity=".6" rx="183.126" ry="62" transform="rotate(-8.2 255.525 311.483)"/>
  </g>
  <g opacity=".9">
    <ellipse cx="247.429" cy="292" fill="url(#k)" rx="178" ry="57" transform="rotate(-15 247.429 292)"/>
    <ellipse cx="247.429" cy="292" fill="url(#l)" fill-opacity=".6" rx="178" ry="57" transform="rotate(-15 247.429 292)"/>
  </g>
  <g opacity=".9">
    <ellipse cx="238.94" cy="275.215" fill="url(#m)" rx="176.444" ry="53.121" transform="rotate(-21.946 238.94 275.215)"/>
    <ellipse cx="238.94" cy="275.215" fill="url(#n)" fill-opacity=".6" rx="176.444" ry="53.121" transform="rotate(-21.946 238.94 275.215)"/>
  </g>
  <defs>
    <radialGradient id="a" cx="0" cy="0" r="1" gradientTransform="matrix(-98.57731 -64.14168 160.98684 -247.41558 241.99 246.752)" gradientUnits="userSpaceOnUse">
      <stop stop-color="#5551FA"/>
      <stop offset=".944" stop-color="#0047FF" stop-opacity=".11"/>
    </radialGradient>
    <radialGradient id="b" cx="0" cy="0" r="1" gradientTransform="rotate(-74.42 270.633 -55.483) scale(211.359 320.55)" gradientUnits="userSpaceOnUse">
      <stop stop-color="#2238FF"/>
      <stop offset="1" stop-color="#0047FF" stop-opacity="0"/>
    </radialGradient>
    <radialGradient id="d" cx="0" cy="0" r="1" gradientTransform="matrix(-9.99987 -176.00015 143.18607 -8.13546 251.429 417)" gradientUnits="userSpaceOnUse">
      <stop stop-color="#5135FF"/>
      <stop offset="1" stop-color="#00A3FF" stop-opacity="0"/>
    </radialGradient>
    <radialGradient id="e" cx="0" cy="0" r="1" gradientTransform="matrix(88.8598 128.85291 -165.088 113.84832 126.07 212.649)" gradientUnits="userSpaceOnUse">
      <stop stop-color="#3B52FC"/>
      <stop offset="1" stop-color="#3B52FC" stop-opacity="0"/>
    </radialGradient>
    <radialGradient id="f" cx="0" cy="0" r="1" gradientTransform="matrix(-58.3399 156.22 -200.15154 -74.74601 366.768 188.279)" gradientUnits="userSpaceOnUse">
      <stop stop-color="#2A6BFF"/>
      <stop offset="1" stop-color="#2A6BFF" stop-opacity="0"/>
    </radialGradient>
    <radialGradient id="g" cx="0" cy="0" r="1" gradientTransform="matrix(-57.3019 -65.62626 128.6102 -112.29665 206.18 427.706)" gradientUnits="userSpaceOnUse">
      <stop stop-color="#2238FF"/>
      <stop offset="1" stop-color="#0047FF" stop-opacity="0"/>
    </radialGradient>
    <radialGradient id="h" cx="0" cy="0" r="1" gradientTransform="matrix(17.48991 96.0559 -346.28062 63.05098 273.057 309.17)" gradientUnits="userSpaceOnUse">
      <stop offset=".211" stop-color="#5F5BFF" stop-opacity="0"/>
      <stop offset="1" stop-color="#06F"/>
    </radialGradient>
    <radialGradient id="i" cx="0" cy="0" r="1" gradientTransform="rotate(-127.051 209.099 154.335) scale(101.962 193.946)" gradientUnits="userSpaceOnUse">
      <stop stop-color="#2238FF"/>
      <stop offset="1" stop-color="#0047FF" stop-opacity="0"/>
    </radialGradient>
    <radialGradient id="j" cx="0" cy="0" r="1" gradientTransform="rotate(81.053 -14.486 299.488) scale(120.576 378.894)" gradientUnits="userSpaceOnUse">
      <stop offset=".211" stop-color="#5F5BFF" stop-opacity="0"/>
      <stop offset="1" stop-color="#06F"/>
    </radialGradient>
    <radialGradient id="k" cx="0" cy="0" r="1" gradientTransform="rotate(-128.596 195.517 143.878) scale(95.7233 184.611)" gradientUnits="userSpaceOnUse">
      <stop stop-color="#2238FF"/>
      <stop offset="1" stop-color="#0047FF" stop-opacity="0"/>
    </radialGradient>
    <radialGradient id="l" cx="0" cy="0" r="1" gradientTransform="matrix(18.22638 109.50351 -362.77416 60.38218 274.728 251.309)" gradientUnits="userSpaceOnUse">
      <stop offset=".211" stop-color="#5F5BFF" stop-opacity="0"/>
      <stop offset="1" stop-color="#06F"/>
    </radialGradient>
    <radialGradient id="m" cx="0" cy="0" r="1" gradientTransform="matrix(-59.19332 -69.72186 136.06771 -115.52044 196.918 363.228)" gradientUnits="userSpaceOnUse">
      <stop stop-color="#2238FF"/>
      <stop offset="1" stop-color="#0047FF" stop-opacity="0"/>
    </radialGradient>
    <radialGradient id="n" cx="0" cy="0" r="1" gradientTransform="matrix(18.06709 102.05104 -358.33467 63.43947 266.001 237.293)" gradientUnits="userSpaceOnUse">
      <stop offset=".211" stop-color="#5F5BFF" stop-opacity="0"/>
      <stop offset="1" stop-color="#06F"/>
    </radialGradient>
    <linearGradient id="c" x1="344.886" x2="283.717" y1="227.07" y2="199.22" gradientUnits="userSpaceOnUse">
      <stop stop-color="#29EDFE"/>
      <stop offset="1" stop-color="#29EDFE" stop-opacity="0"/>
    </linearGradient>
  </defs>
</svg>
