<svg xmlns="http://www.w3.org/2000/svg" width="80" height="80" fill="none" viewBox="0 0 80 80">
  <g clip-path="url(#a)">
    <rect width="80" height="80" fill="#F5AC37" rx="40"/>
    <path fill="#F5AC37" d="M40 0c22.093 0 40 17.91 40 40 0 22.093-17.907 40-40 40C17.91 80 0 62.092 0 40 0 17.91 17.91 0 40 0Z"/>
    <g filter="url(#b)">
      <path fill="#FEFEFD" fill-opacity=".1" d="M42.55 38.982h13.368c.285 0 .42 0 .44-.372.11-1.356.11-2.72 0-4.077 0-.264-.131-.373-.417-.373H29.334c-.33 0-.418.11-.418.417v3.902c0 .503 0 .503.527.503H42.55Zm12.315-9.381a.425.425 0 0 0 0-.306 8.655 8.655 0 0 0-.794-1.381 11.183 11.183 0 0 0-1.628-2.04 5.388 5.388 0 0 0-1.012-.986 15.824 15.824 0 0 0-6.597-3.332 16.441 16.441 0 0 0-3.738-.394H29.288c-.33 0-.374.13-.374.417v7.78c0 .329 0 .417.418.417h25.375s.22-.044.264-.175h-.107.001Zm0 13.94a5.152 5.152 0 0 0-1.124 0H29.356c-.33 0-.44 0-.44.44v7.607c0 .35 0 .438.44.438h11.259a5.644 5.644 0 0 0 1.603-.108 16.797 16.797 0 0 0 4.774-1.053 8.75 8.75 0 0 0 1.604-.745h.153a14.262 14.262 0 0 0 6.135-6.157s.154-.331-.019-.418v-.003Zm-30.368 12.43V43.85c0-.286 0-.329-.351-.329h-4.772c-.265 0-.374 0-.374-.35v-4.165h5.101c.285 0 .396 0 .396-.373v-4.12c0-.264 0-.329-.351-.329h-4.772c-.265 0-.374 0-.374-.35v-3.858c0-.241 0-.306.352-.306h4.727c.33 0 .418 0 .418-.416V17.439c0-.35 0-.439.44-.439h16.491c1.197.047 2.386.178 3.563.395a21.534 21.534 0 0 1 6.882 2.542 19.386 19.386 0 0 1 3.87 2.982 21.14 21.14 0 0 1 2.352 2.915 17.563 17.563 0 0 1 1.718 3.353c.055.307.35.513.657.461h3.936c.505 0 .505 0 .527.483v3.596c0 .35-.131.438-.484.438h-3.035c-.307 0-.396 0-.374.395.12 1.335.12 2.675 0 4.01 0 .373 0 .417.42.417h3.472c.153.197 0 .394 0 .593.022.254.022.512 0 .766v2.653c0 .372-.11.483-.44.483h-4.156a.55.55 0 0 0-.639.416 17.527 17.527 0 0 1-4.618 6.708 26.46 26.46 0 0 1-2.353 1.884c-.88.505-1.736 1.031-2.639 1.448a23.833 23.833 0 0 1-5.19 1.643 27.11 27.11 0 0 1-5.145.416H24.49v-.022l.006-.004Z"/>
    </g>
    <path fill="#FEFEFD" d="M42.55 42.982h13.368c.285 0 .42 0 .44-.372.11-1.356.11-2.72 0-4.077 0-.264-.131-.373-.417-.373H29.334c-.33 0-.418.11-.418.417v3.902c0 .503 0 .503.527.503H42.55Zm12.315-9.381a.425.425 0 0 0 0-.306 8.655 8.655 0 0 0-.794-1.381 11.183 11.183 0 0 0-1.628-2.04 5.388 5.388 0 0 0-1.012-.986 15.824 15.824 0 0 0-6.597-3.332 16.441 16.441 0 0 0-3.738-.394H29.288c-.33 0-.374.13-.374.417v7.78c0 .329 0 .417.418.417h25.375s.22-.044.264-.175h-.107.001Zm0 13.94a5.152 5.152 0 0 0-1.124 0H29.356c-.33 0-.44 0-.44.44v7.607c0 .35 0 .438.44.438h11.259a5.644 5.644 0 0 0 1.603-.108 16.797 16.797 0 0 0 4.774-1.053 8.75 8.75 0 0 0 1.604-.745h.153a14.262 14.262 0 0 0 6.135-6.157s.154-.331-.019-.418v-.003Zm-30.368 12.43V47.85c0-.286 0-.329-.351-.329h-4.772c-.265 0-.374 0-.374-.35v-4.165h5.101c.285 0 .396 0 .396-.373v-4.12c0-.264 0-.329-.351-.329h-4.772c-.265 0-.374 0-.374-.35v-3.858c0-.241 0-.306.352-.306h4.727c.33 0 .418 0 .418-.416V21.439c0-.35 0-.439.44-.439h16.491c1.197.047 2.386.178 3.563.395a21.534 21.534 0 0 1 6.882 2.542 19.386 19.386 0 0 1 3.87 2.982 21.14 21.14 0 0 1 2.352 2.915 17.563 17.563 0 0 1 1.718 3.353c.055.307.35.513.657.461h3.936c.505 0 .505 0 .527.483v3.596c0 .35-.131.438-.484.438h-3.035c-.307 0-.396 0-.374.395.12 1.335.12 2.675 0 4.01 0 .373 0 .417.42.417h3.472c.153.197 0 .394 0 .593.022.254.022.512 0 .766v2.653c0 .372-.11.483-.44.483h-4.156a.55.55 0 0 0-.639.416 17.527 17.527 0 0 1-4.618 6.708 26.46 26.46 0 0 1-2.353 1.884c-.88.505-1.736 1.031-2.639 1.448a23.833 23.833 0 0 1-5.19 1.643 27.11 27.11 0 0 1-5.145.416H24.49v-.022l.006-.004Z"/>
  </g>
  <defs>
    <clipPath id="a">
      <rect width="80" height="80" fill="#fff" rx="40"/>
    </clipPath>
    <filter id="b" width="72" height="65" x="6" y="4" color-interpolation-filters="sRGB" filterUnits="userSpaceOnUse">
      <feFlood flood-opacity="0" result="BackgroundImageFix"/>
      <feBlend in="SourceGraphic" in2="BackgroundImageFix" result="shape"/>
      <feGaussianBlur result="effect1_foregroundBlur_52_25863" stdDeviation="6.5"/>
    </filter>
  </defs>
</svg>
