<svg xmlns="http://www.w3.org/2000/svg" width="81" height="80" fill="none" viewBox="0 0 81 80">
  <g clip-path="url(#a)">
    <g filter="url(#b)" opacity=".7">
      <path fill="#00A3FF" d="m53.932 35.868.389.597c4.39 6.735 3.41 15.555-2.357 21.206-3.393 3.324-7.84 4.987-12.287 4.987l14.255-26.79Z" opacity=".6"/>
      <path fill="#00A3FF" d="m39.676 44.01 14.255-8.142-14.255 26.79V44.01Z" opacity=".2"/>
      <path fill="#00A3FF" d="m25.408 35.868-.389.597c-4.39 6.735-3.41 15.555 2.357 21.206 3.393 3.324 7.84 4.987 12.286 4.987l-14.254-26.79Z"/>
      <path fill="#00A3FF" d="m39.658 44.01-14.254-8.142 14.254 26.79V44.01Z" opacity=".6"/>
      <path fill="#00A3FF" d="M39.682 25.821v14.043l12.278-7.017-12.278-7.026Z" opacity=".2"/>
      <path fill="#00A3FF" d="M39.678 25.821 27.39 32.847l12.287 7.017V25.821Z" opacity=".6"/>
      <path fill="#00A3FF" d="M39.678 14.011 27.39 32.851l12.287-7.045V14.01Z"/>
      <path fill="#00A3FF" d="m39.682 25.804 12.287 7.046L39.682 14v11.804Z" opacity=".6"/>
    </g>
    <path fill="#00A3FF" d="m55.053 35.471.403.614c4.546 6.92 3.531 15.984-2.44 21.79C49.503 61.291 44.898 63 40.294 63l14.76-27.529Z" opacity=".6"/>
    <path fill="#00A3FF" d="m40.292 43.838 14.76-8.367L40.292 63V43.838Z" opacity=".2"/>
    <path fill="#00A3FF" d="m25.519 35.471-.403.614c-4.546 6.92-3.53 15.984 2.44 21.79C31.07 61.291 35.675 63 40.279 63L25.518 35.47Z"/>
    <path fill="#00A3FF" d="m40.274 43.838-14.76-8.367L40.275 63V43.838Z" opacity=".6"/>
    <path fill="#00A3FF" d="M40.298 25.147v14.43l12.713-7.21-12.713-7.22Z" opacity=".2"/>
    <path fill="#00A3FF" d="m40.294 25.147-12.723 7.22 12.723 7.21v-14.43Z" opacity=".6"/>
    <path fill="#00A3FF" d="m40.294 13.011-12.723 19.36 12.723-7.24v-12.12Z"/>
    <path fill="#00A3FF" d="m40.298 25.13 12.723 7.24L40.298 13v12.13Z" opacity=".6"/>
  </g>
  <defs>
    <clipPath id="a">
      <rect width="80" height="80" x=".286" fill="#fff" rx="40"/>
    </clipPath>
    <filter id="b" width="70.768" height="84.658" x="4.286" y="-4" color-interpolation-filters="sRGB" filterUnits="userSpaceOnUse">
      <feFlood flood-opacity="0" result="BackgroundImageFix"/>
      <feBlend in="SourceGraphic" in2="BackgroundImageFix" result="shape"/>
      <feGaussianBlur result="effect1_foregroundBlur_52_25895" stdDeviation="9"/>
    </filter>
  </defs>
</svg>
