<svg xmlns="http://www.w3.org/2000/svg" width="405" height="405" fill="none" viewBox="0 0 405 405">
  <path fill="#fff" fill-opacity=".45" d="M341.093 187.421c-.015.172-.029.344-.058.509a4.64 4.64 0 0 1-.109.416c-.044.164-.08.322-.138.487a7.7 7.7 0 0 1-.305.717c-.022.043-.044.078-.066.121-.138.251-.29.509-.464.753-.029.036-.051.072-.08.107-.167.23-.349.452-.545.667a8.793 8.793 0 0 1-.806.795c-.16.144-.334.28-.508.416-.153.122-.298.244-.458.358-.188.137-.392.258-.595.387-.211.137-.407.273-.625.395l-121.854 69.89a14.72 14.72 0 0 1-1.111.573c-.102.05-.204.093-.305.143-.342.158-.697.309-1.053.445-.044.021-.095.036-.138.057-.385.143-.784.272-1.184.401-.276.086-.566.165-.849.237-.218.057-.429.122-.647.172-.297.072-.602.129-.907.193-.211.043-.414.086-.625.122-.617.108-1.242.194-1.866.258-.196.022-.392.036-.588.05-.371.029-.741.058-1.111.072l-.719.022c-.298 0-.603.007-.901 0-.254 0-.501-.015-.755-.022-.276-.014-.559-.021-.835-.043a29.368 29.368 0 0 1-1.583-.158 23.057 23.057 0 0 1-1.612-.25 22.16 22.16 0 0 1-1.699-.38c-.218-.058-.443-.115-.661-.172l-.348-.108a29.372 29.372 0 0 1-1.002-.337c-.095-.035-.189-.064-.284-.1a19.42 19.42 0 0 1-.878-.373c-.138-.064-.284-.114-.421-.179a17.297 17.297 0 0 1-1.213-.623l-122.654-69.89c-3.246-1.849-4.872-4.279-4.865-6.701L63 286.917c0 2.422 1.612 4.852 4.865 6.701l122.654 69.89c.392.222.791.43 1.205.623.138.065.283.122.429.187.247.107.486.222.74.322.044.014.087.029.131.05.094.036.189.065.283.101.327.122.661.229 1.002.336l.349.108c.08.022.152.05.232.072.138.035.283.064.421.1.342.086.676.172 1.024.251.095.021.182.05.276.064.131.029.276.043.407.072.29.057.581.108.871.151.116.021.233.043.356.057l.385.043c.276.036.544.064.82.093.131.014.262.036.393.043l.363.021c.276.022.551.036.835.043.138 0 .283.022.421.022h1.684c.088 0 .175-.014.262-.014.37-.015.741-.043 1.111-.072.152-.014.298-.014.45-.029.044 0 .087-.014.138-.021a27.418 27.418 0 0 0 1.874-.258.436.436 0 0 0 .094-.014c.182-.029.356-.079.53-.115.305-.057.61-.122.908-.194.218-.05.435-.114.646-.172.283-.078.566-.15.85-.236.058-.022.123-.029.181-.05.341-.108.675-.222 1.002-.351.051-.022.095-.036.138-.058.363-.136.712-.287 1.053-.444.102-.043.203-.093.305-.144a17.58 17.58 0 0 0 1.111-.573l121.855-69.89.203-.115c.153-.093.283-.186.429-.279.203-.129.406-.258.595-.387.16-.115.312-.237.458-.359.174-.136.348-.272.508-.415.029-.029.072-.058.102-.086.21-.194.406-.387.588-.588.036-.043.072-.086.109-.122.109-.122.225-.243.319-.372.08-.101.145-.201.218-.294.029-.036.058-.072.08-.108.131-.186.254-.372.363-.566.036-.064.065-.129.102-.186.021-.043.043-.079.065-.122.102-.201.196-.409.276-.616.014-.036.014-.065.029-.101.058-.157.094-.322.138-.487.029-.108.073-.215.094-.33 0-.028 0-.057.008-.086.029-.172.043-.344.058-.509.007-.107.036-.222.036-.329v-.144l.668-100.069c0 .158-.029.316-.044.48l.037-.021Z"/>
  <path fill="url(#a)" d="M341.093 187.421c-.015.172-.029.344-.058.509a4.64 4.64 0 0 1-.109.416c-.044.164-.08.322-.138.487a7.7 7.7 0 0 1-.305.717c-.022.043-.044.078-.066.121-.138.251-.29.509-.464.753-.029.036-.051.072-.08.107-.167.23-.349.452-.545.667a8.793 8.793 0 0 1-.806.795c-.16.144-.334.28-.508.416-.153.122-.298.244-.458.358-.188.137-.392.258-.595.387-.211.137-.407.273-.625.395l-121.854 69.89a14.72 14.72 0 0 1-1.111.573c-.102.05-.204.093-.305.143-.342.158-.697.309-1.053.445-.044.021-.095.036-.138.057-.385.143-.784.272-1.184.401-.276.086-.566.165-.849.237-.218.057-.429.122-.647.172-.297.072-.602.129-.907.193-.211.043-.414.086-.625.122-.617.108-1.242.194-1.866.258-.196.022-.392.036-.588.05-.371.029-.741.058-1.111.072l-.719.022c-.298 0-.603.007-.901 0-.254 0-.501-.015-.755-.022-.276-.014-.559-.021-.835-.043a29.368 29.368 0 0 1-1.583-.158 23.057 23.057 0 0 1-1.612-.25 22.16 22.16 0 0 1-1.699-.38c-.218-.058-.443-.115-.661-.172l-.348-.108a29.372 29.372 0 0 1-1.002-.337c-.095-.035-.189-.064-.284-.1a19.42 19.42 0 0 1-.878-.373c-.138-.064-.284-.114-.421-.179a17.297 17.297 0 0 1-1.213-.623l-122.654-69.89c-3.246-1.849-4.872-4.279-4.865-6.701L63 286.917c0 2.422 1.612 4.852 4.865 6.701l122.654 69.89c.392.222.791.43 1.205.623.138.065.283.122.429.187.247.107.486.222.74.322.044.014.087.029.131.05.094.036.189.065.283.101.327.122.661.229 1.002.336l.349.108c.08.022.152.05.232.072.138.035.283.064.421.1.342.086.676.172 1.024.251.095.021.182.05.276.064.131.029.276.043.407.072.29.057.581.108.871.151.116.021.233.043.356.057l.385.043c.276.036.544.064.82.093.131.014.262.036.393.043l.363.021c.276.022.551.036.835.043.138 0 .283.022.421.022h1.684c.088 0 .175-.014.262-.014.37-.015.741-.043 1.111-.072.152-.014.298-.014.45-.029.044 0 .087-.014.138-.021a27.418 27.418 0 0 0 1.874-.258.436.436 0 0 0 .094-.014c.182-.029.356-.079.53-.115.305-.057.61-.122.908-.194.218-.05.435-.114.646-.172.283-.078.566-.15.85-.236.058-.022.123-.029.181-.05.341-.108.675-.222 1.002-.351.051-.022.095-.036.138-.058.363-.136.712-.287 1.053-.444.102-.043.203-.093.305-.144a17.58 17.58 0 0 0 1.111-.573l121.855-69.89.203-.115c.153-.093.283-.186.429-.279.203-.129.406-.258.595-.387.16-.115.312-.237.458-.359.174-.136.348-.272.508-.415.029-.029.072-.058.102-.086.21-.194.406-.387.588-.588.036-.043.072-.086.109-.122.109-.122.225-.243.319-.372.08-.101.145-.201.218-.294.029-.036.058-.072.08-.108.131-.186.254-.372.363-.566.036-.064.065-.129.102-.186.021-.043.043-.079.065-.122.102-.201.196-.409.276-.616.014-.036.014-.065.029-.101.058-.157.094-.322.138-.487.029-.108.073-.215.094-.33 0-.028 0-.057.008-.086.029-.172.043-.344.058-.509.007-.107.036-.222.036-.329v-.144l.668-100.069c0 .158-.029.316-.044.48l.037-.021Z"/>
  <path fill="#fff" fill-opacity=".45" d="M70.491 195.598c-8.619-4.939-8.666-12.94-.1-17.874l116.092-66.914c8.562-4.939 22.495-4.939 31.114 0l116.851 66.914c8.619 4.938 8.667 12.94.105 17.874l-116.097 66.909c-8.562 4.939-22.494 4.939-31.113 0L70.491 195.598Z"/>
  <path fill="url(#b)" fill-opacity=".5" d="M70.491 195.598c-8.619-4.939-8.666-12.94-.1-17.874l116.092-66.914c8.562-4.939 22.495-4.939 31.114 0l116.851 66.914c8.619 4.938 8.667 12.94.105 17.874l-116.097 66.909c-8.562 4.939-22.494 4.939-31.113 0L70.491 195.598Z"/>
  <path fill="#fff" fill-opacity=".45" d="M70.491 171.387c-8.619-4.939-8.666-12.941-.1-17.874l116.092-66.915c8.562-4.938 22.495-4.938 31.114 0l116.851 66.915c8.619 4.938 8.667 12.94.105 17.874l-116.097 66.909c-8.562 4.939-22.494 4.939-31.113 0L70.491 171.387Z"/>
  <path fill="url(#c)" fill-opacity=".8" d="M70.491 171.387c-8.619-4.939-8.666-12.941-.1-17.874l116.092-66.915c8.562-4.938 22.495-4.938 31.114 0l116.851 66.915c8.619 4.938 8.667 12.94.105 17.874l-116.097 66.909c-8.562 4.939-22.494 4.939-31.113 0L70.491 171.387Z"/>
  <path fill="url(#d)" fill-opacity=".8" d="M70.491 171.387c-8.619-4.939-8.666-12.941-.1-17.874l116.092-66.915c8.562-4.938 22.495-4.938 31.114 0l116.851 66.915c8.619 4.938 8.667 12.94.105 17.874l-116.097 66.909c-8.562 4.939-22.494 4.939-31.113 0L70.491 171.387Z"/>
  <path fill="url(#e)" fill-opacity=".8" d="M70.491 127.492c-8.619-4.938-8.666-12.94-.1-17.874l116.092-66.914c8.562-4.939 22.495-4.939 31.114 0l116.851 66.914c8.619 4.939 8.667 12.94.105 17.874l-116.097 66.909c-8.562 4.939-22.494 4.939-31.113 0L70.491 127.492Z"/>
  <path fill="url(#f)" fill-opacity=".8" d="M70.491 127.492c-8.619-4.938-8.666-12.94-.1-17.874l116.092-66.914c8.562-4.939 22.495-4.939 31.114 0l116.851 66.914c8.619 4.939 8.667 12.94.105 17.874l-116.097 66.909c-8.562 4.939-22.494 4.939-31.113 0L70.491 127.492Z"/>
  <g filter="url(#g)">
    <path fill="url(#h)" fill-opacity=".5" d="M149.317 117.436c0 .37-.014.754-.029 1.148-.014.241-.024.491-.029.74-.004.169-.009.337-.009.51l-.222 98.342c0-.428.019-.846.038-1.25.01-.192.015-.384.02-.572.005-.197.009-.389.009-.576l.222-98.342Z"/>
    <path fill="url(#i)" fill-opacity=".5" d="M177.994 224.139h.212c.381.01.772.024 1.163.043.053 0 .111.01.164.01.333.019.671.038 1.009.067.188.014.376.034.564.048.145.015.29.024.43.043l.622.072c.135.02.275.034.41.053a25.806 25.806 0 0 1 1.129.178c.29.053.575.106.864.168.116.024.227.053.343.077.222.048.448.101.67.159l.382.101c.197.053.395.11.598.168.174.053.352.106.526.163.183.058.371.125.555.188.173.062.352.125.526.192.255.096.511.197.767.303.043.019.087.033.125.052a21.177 21.177 0 0 1 1.173.548c.323.164.642.327.965.51l.222-98.342a16.55 16.55 0 0 0-.965-.509c-.073-.039-.145-.073-.222-.111a20.094 20.094 0 0 0-.951-.437l-.125-.053-.521-.216c-.082-.034-.164-.058-.246-.092a20.377 20.377 0 0 0-1.081-.379c-.174-.058-.352-.111-.526-.164-.097-.028-.188-.062-.285-.086-.106-.029-.207-.053-.314-.082l-.381-.101c-.226-.057-.448-.11-.675-.158-.116-.024-.227-.053-.343-.077l-.12-.029a19.626 19.626 0 0 0-.748-.139 31.982 31.982 0 0 0-1.047-.169.371.371 0 0 1-.078-.009c-.135-.019-.275-.034-.41-.053-.207-.024-.415-.053-.622-.072a46.82 46.82 0 0 0-.864-.082c-.043 0-.092-.005-.135-.009-.338-.029-.676-.048-1.013-.068-.053 0-.111-.009-.164-.009-.391-.02-.777-.034-1.163-.044h-.213a72.385 72.385 0 0 0-1.727-.019h-.135c-.579 0-1.144.01-1.689.015-.579 0-1.139.009-1.684.009h-.005c-.545 0-1.076 0-1.597-.019h-.01c-.294-.01-.584-.019-.873-.034-.087 0-.174-.009-.265-.014-.203-.01-.401-.024-.604-.038-.086-.005-.168-.015-.255-.02a20.397 20.397 0 0 1-1.129-.125l-.174-.028a18.76 18.76 0 0 1-.864-.149c-.063-.015-.13-.024-.193-.039a16.947 16.947 0 0 1-.965-.235l-.338-.101c-.106-.034-.207-.063-.313-.096a56.073 56.073 0 0 0-.377-.13c-.101-.039-.202-.072-.304-.111-.077-.028-.149-.062-.227-.091a16.372 16.372 0 0 1-.685-.298l-.246-.115a16.46 16.46 0 0 1-.873-.462c-2.538-1.504-3.301-2.96-3.498-4.584l.009-3.589c.01-2.6-.637-5.637-5.491-8.453a22.241 22.241 0 0 0-.931-.5c-.082-.038-.159-.081-.242-.12a22.092 22.092 0 0 0-.873-.408c-.019-.01-.043-.02-.063-.029a22.692 22.692 0 0 0-.733-.303c-.043-.019-.087-.029-.135-.048-.41-.159-.825-.308-1.235-.437l-.222 98.341c.41.13.825.279 1.235.438.289.11.579.226.868.35.025.01.044.02.068.029.29.13.584.265.873.409.082.038.16.081.242.12.313.158.622.322.936.5 4.096 2.378 5.192 4.911 5.428 7.203l-.01 3.647c-.004 2.124.42 3.917 3.562 5.776.289.168.583.317.873.462l.246.115c.227.106.454.206.685.298.048.019.097.043.14.062l.082.029c.101.039.203.077.309.111.125.043.251.091.376.129.106.034.208.068.314.096.082.024.169.053.251.077.029.01.058.015.082.02.318.091.642.168.97.235.019 0 .038.01.058.014.043.01.087.015.135.024.284.058.574.106.864.149.038.005.077.015.12.02.019 0 .039 0 .058.004.372.053.748.092 1.129.125.034 0 .068.01.101.01a28.255 28.255 0 0 0 .758.048l.265.014c.29.015.579.024.874.034h.009c.522.015 1.052.019 1.598.019h.004c.546 0 1.11 0 1.684-.009a93.19 93.19 0 0 1 1.689-.015h.135c.565 0 1.144 0 1.728.02v.014Z"/>
    <path fill="url(#j)" fill-opacity=".5" d="M232.312 98.767c3.011 1.73 3.04 4.752-.352 6.718l-40.547 23.464c-5.737-3.253-11.851-3.215-16.753-3.147-4.637.033-8.232.062-11.977-2.095-3.686-2.187-3.633-4.272-3.532-6.915.145-2.845.213-6.425-5.447-9.712a22.065 22.065 0 0 0-4.218-1.845c23.195-10.173 53.252-12.686 79.825-7.53 1.206.235 2.21.6 3.006 1.057l-.005.005Z"/>
    <path fill="url(#k)" fill-opacity=".5" d="M234.517 102.208c-.01.086-.014.168-.029.254-.014.073-.039.149-.058.222-.024.081-.043.168-.072.249-.024.072-.058.14-.092.212a2.77 2.77 0 0 1-.125.264c-.034.063-.078.125-.116.188-.063.105-.13.206-.208.307a3.561 3.561 0 0 1-.251.308c-.014.019-.029.033-.043.053-.111.12-.236.24-.372.36-.086.077-.188.154-.284.231-.082.062-.159.129-.242.192-.106.077-.221.149-.337.226-.111.072-.213.144-.333.211l-40.547 23.465-.222 98.341 40.547-23.464c.038-.024.077-.043.111-.067.077-.049.145-.097.217-.145.116-.072.232-.149.338-.226.087-.062.164-.124.241-.192.096-.077.193-.153.285-.23.019-.02.043-.034.062-.053.111-.101.213-.202.309-.308.015-.014.029-.033.044-.053.067-.077.135-.149.197-.225l.054-.082c.077-.101.144-.207.207-.308.029-.043.063-.086.087-.129.01-.02.014-.039.024-.058.048-.087.087-.178.125-.264.025-.053.058-.111.078-.164l.014-.048c.029-.082.048-.168.073-.25.014-.062.038-.12.053-.182 0-.015 0-.029.004-.044.015-.081.02-.168.029-.249.005-.063.02-.125.02-.183v-.072l.222-98.342c0 .087-.015.173-.024.255h.014Z"/>
    <path fill="url(#l)" fill-opacity=".5" d="m246.295 144.952-.222 78.342c.015-4.993-2.47-9.991-7.459-14.306-1.313-1.134-2.017-2.47-2.013-3.772l.222-78.342c0 1.302.7 2.638 2.013 3.772 4.984 4.315 7.474 9.308 7.459 14.306Z"/>
    <path fill="url(#m)" fill-opacity=".5" d="m246.295 144.952-.222 98.341c.015-4.992-2.47-9.99-7.459-14.305-1.313-1.134-2.017-2.47-2.013-3.772l.222-98.342c0 1.302.7 2.638 2.013 3.772 4.984 4.315 7.474 9.308 7.459 14.306Z"/>
    <path fill="url(#n)" fill-opacity=".5" d="M287.853 146.057c-.01.235-.02.471-.034.706l-.029.481c-.019.25-.044.5-.073.754l-.043.433c-.034.307-.082.615-.125.922-.015.087-.025.173-.039.26-.063.394-.135.788-.212 1.182l-.073.336c-.058.279-.12.558-.188.837-.034.148-.077.297-.116.446-.062.241-.125.481-.193.721-.043.164-.096.322-.144.486-.068.225-.14.456-.213.682-.053.168-.111.331-.169.5-.077.221-.154.442-.236.663-.063.163-.126.331-.188.495l-.275.692-.208.495c-.101.23-.203.461-.309.687-.072.163-.149.322-.226.485-.111.236-.232.471-.348.707-.077.153-.154.307-.231.456-.136.255-.275.509-.415.769-.073.13-.14.259-.213.384-.231.404-.468.803-.714 1.207-.053.086-.111.173-.164.259-.198.312-.4.63-.608.937-.092.139-.188.279-.285.413-.178.265-.362.524-.555.784l-.318.437c-.193.259-.391.519-.594.778-.101.13-.202.265-.308.394-.348.438-.705.875-1.076 1.307-.063.073-.131.145-.193.221-.319.37-.647.736-.985 1.101l-.333.36c-.376.399-.762.798-1.163 1.197-.028.029-.057.062-.086.091-.425.423-.869.841-1.318 1.259-.169.159-.342.313-.511.471-.164.149-.328.293-.492.442-.198.173-.396.346-.599.519l-.506.433c-.208.173-.415.346-.628.519-.173.144-.347.283-.521.422-.217.173-.439.346-.661.519-.174.135-.352.274-.531.409-.231.178-.468.351-.709.529-.174.129-.347.259-.526.389-.251.182-.506.36-.757.538-.174.12-.343.245-.517.365-.284.197-.574.389-.863.586-.15.101-.3.207-.454.308-.434.283-.873.572-1.317.85-.015.01-.024.02-.039.025L265 277.046a63.29 63.29 0 0 0 1.361-.879c.149-.096.294-.197.439-.298.294-.197.589-.394.878-.596.174-.12.343-.24.512-.36.255-.183.511-.361.762-.543.179-.13.352-.26.531-.394.236-.173.473-.351.704-.524.179-.135.353-.274.531-.413.222-.173.444-.346.661-.519.174-.14.348-.284.521-.423.213-.173.425-.346.628-.519.173-.144.337-.289.506-.433.203-.173.401-.346.599-.519.168-.149.328-.293.492-.442.12-.11.246-.216.362-.327.053-.048.096-.096.149-.144.449-.418.893-.836 1.317-1.259a1.37 1.37 0 0 0 .092-.096c.396-.394.782-.793 1.158-1.192l.333-.36c.338-.365.666-.73.985-1.096.062-.072.13-.144.193-.221.371-.432.728-.869 1.076-1.307.028-.038.067-.077.096-.115.072-.091.14-.183.208-.274.202-.259.4-.519.593-.778.106-.145.212-.289.319-.438.188-.259.371-.523.554-.788l.285-.413c.208-.312.41-.625.608-.942.053-.086.111-.173.164-.259.246-.399.487-.803.714-1.207.01-.019.024-.038.034-.062.063-.106.116-.216.174-.327.14-.254.284-.509.415-.769.077-.149.154-.302.231-.456.121-.236.237-.471.353-.711.077-.159.149-.322.222-.481.106-.23.207-.461.308-.692.073-.163.14-.327.208-.49a22.1 22.1 0 0 0 .275-.692l.116-.288.072-.212c.082-.221.159-.442.237-.663.057-.168.115-.331.168-.5.073-.225.145-.456.213-.682l.144-.485c.068-.241.131-.486.193-.726l.116-.447c.068-.283.131-.562.188-.846.02-.1.049-.197.068-.297a34.885 34.885 0 0 0 .217-1.211c.015-.087.024-.173.034-.255.048-.308.092-.615.125-.928l.044-.427c.024-.25.053-.505.072-.755.015-.158.02-.322.029-.48.015-.236.029-.471.034-.707 0-.057.005-.115.01-.173.009-.254.009-.504.014-.759l.222-98.342c0 .313-.01.62-.019.933l.005.019Z"/>
    <path fill="url(#o)" fill-opacity=".5" d="M264.342 178.545h-.256c-.338 0-.671-.004-.999-.014H263a19.728 19.728 0 0 1-.767-.029c-.087 0-.169-.009-.256-.014-.207-.01-.415-.024-.622-.039l-.222-.014a21.939 21.939 0 0 1-1.124-.125c-.063-.01-.126-.014-.184-.024a16.485 16.485 0 0 1-.965-.168l-.164-.034a17.245 17.245 0 0 1-.979-.24c-.015 0-.029-.01-.044-.01-.154-.043-.304-.091-.458-.139a11.548 11.548 0 0 1-.859-.303 12.784 12.784 0 0 1-1.076-.48 14.63 14.63 0 0 1-.869-.462c-2.538-1.504-3.3-2.96-3.498-4.584l.01-3.59c.009-2.599-.637-5.636-5.491-8.452a21.124 21.124 0 0 0-1.149-.606c-.053-.024-.106-.053-.159-.081a22.34 22.34 0 0 0-1.095-.491c-.068-.028-.135-.057-.203-.081a4.673 4.673 0 0 0-.236-.096c-.218-.087-.44-.159-.657-.241-.111-.038-.222-.081-.333-.12-.381-.129-.762-.25-1.143-.355l-.053-.015-.222 98.342c.4.111.796.235 1.196.37.111.038.222.082.333.12.3.106.594.216.893.337.068.028.135.057.203.081.366.154.733.317 1.095.49.053.024.106.053.159.082.381.187.767.389 1.149.606 3.035 1.763 4.424 3.608 5.037 5.377.217.62.333 1.23.391 1.826l-.01 3.647c-.004 2.124.42 3.916 3.561 5.776.29.168.58.317.869.461.072.034.145.072.217.106.285.135.574.264.859.375.217.086.439.163.656.24.068.024.131.039.198.063.155.048.309.101.463.144h.01c.01 0 .019.005.034.009.323.092.651.169.979.241.034.004.068.019.102.024.019 0 .043.005.062.009.319.063.642.12.97.169.029 0 .053.009.082.014.034.005.068.005.102.01a26.633 26.633 0 0 0 1.177.129c.053 0 .111.005.164.01.208.014.415.029.623.038.082 0 .168.01.25.015l.768.029h.082c.328.009.661.009.998.014h1.25l.222-98.342h-.994l.01-.005Z"/>
    <path fill="url(#p)" fill-opacity=".5" d="M268.067 113.087c.193.11.381.23.555.355 26.881 18.991 25.796 46.78-3.286 65.103-4.092.019-7.446-.096-10.929-2.104-3.687-2.182-3.634-4.272-3.532-6.915.144-2.845.212-6.425-5.453-9.712a22.185 22.185 0 0 0-5.028-2.09c8.353-8.41 7.827-18.948-1.563-27.074-2.736-2.369-2.838-5.608.651-7.626l16.831-9.74c3.286-1.903 8.545-2.033 11.744-.192l.01-.005Z"/>
    <path fill="url(#q)" fill-opacity=".5" d="m183.234 231.886.227-98.342-50.154 29.024-.222 98.342 50.149-29.024Z"/>
    <path fill="url(#r)" fill-opacity=".5" d="M133.085 260.91c-.27.154-.555.297-.849.427h-.01a10.227 10.227 0 0 1-1.008.394l-.116.043-.048.015c-.152.05-.303.091-.457.133l-.113.03-.106.029-.106.029c-.265.067-.536.125-.806.173h-.009c-.02.01-.034.01-.054.01-.308.052-.617.096-.926.129-.018.002-.035.006-.051.009-.025.005-.049.011-.074.011a1.336 1.336 0 0 1-.126.01l-.063.004c-.183.014-.361.024-.545.034a.747.747 0 0 0-.068.006c-.043.004-.085.008-.13.008h-.849a.67.67 0 0 1-.064-.003 1.085 1.085 0 0 0-.057-.002c-.131-.004-.258-.013-.389-.022l-.026-.002-.089-.004a2.558 2.558 0 0 1-.225-.015c-.018-.002-.037-.005-.057-.005-.088-.006-.175-.017-.262-.027a5.89 5.89 0 0 0-.139-.016c-.03-.004-.062-.006-.093-.009a2.82 2.82 0 0 1-.177-.02l-.034-.006c-.021-.004-.04-.008-.062-.008a6.538 6.538 0 0 1-.28-.047 6.848 6.848 0 0 0-.14-.025l-.081-.013a1.81 1.81 0 0 1-.184-.031c-.013-.002-.025-.006-.037-.009a9.63 9.63 0 0 1-.581-.144c-.032-.01-.063-.017-.094-.025a.995.995 0 0 1-.094-.024l-.007-.003a10.013 10.013 0 0 1-.828-.28l-.036-.012-.036-.012a7.911 7.911 0 0 1-.185-.08l-.124-.055a2.923 2.923 0 0 1-.193-.081 8.755 8.755 0 0 1-.555-.289c-.796-.456-1.433-1.038-1.843-1.73-3.079-5.223-4.613-10.691-4.599-16.155l.222-98.324c-.01 5.461 1.524 10.917 4.599 16.128.405.692 1.047 1.274 1.843 1.73.178.106.362.197.555.288.031.015.064.028.096.041l.097.041c.125.058.251.111.381.159.26.101.531.192.811.274l.108.026.109.026c.178.048.362.097.545.135.097.021.197.038.295.055l.043.007.14.026c.093.017.186.034.279.047.121.019.242.033.367.048l.2.021.201.022c.062.005.125.008.189.012l.182.012.096.007c.105.008.212.017.319.017.121.005.241.005.362.005h.463l.343-.015c.177-.004.349-.018.525-.032l.02-.001.157-.015.157-.014c.309-.034.617-.077.921-.13l.011-.002c.019-.004.036-.008.057-.008a10.568 10.568 0 0 0 1.013-.23c.193-.053.386-.106.575-.164.053-.019.106-.038.164-.057a9.98 9.98 0 0 0 .772-.289 8.525 8.525 0 0 0 1.09-.528l-.222 98.342Z"/>
    <path fill="url(#s)" fill-opacity=".5" d="M145.737 111.665c3.711 2.191 3.653 4.281 3.551 6.924-.144 2.845-.207 6.425 5.453 9.717 5.747 3.282 11.885 3.248 16.801 3.176 4.609-.034 8.194-.062 11.919 2.062l-50.149 29.024c-3.392 1.965-8.632 1.956-11.643.226-.797-.457-1.438-1.038-1.844-1.73-10.234-17.357-3.397-37.333 20.527-51.23 1.838.269 3.595.798 5.385 1.826v.005Z"/>
    <path fill="url(#t)" fill-opacity=".5" d="M247.999 285.201c.41-.154.82-.298 1.225-.452a92.03 92.03 0 0 0 1.993-.803c.333-.134.671-.264 1.004-.403a101.12 101.12 0 0 0 2.924-1.288l.222-98.342c-.96.442-1.94.87-2.924 1.288-.328.139-.666.269-.999.404-.661.269-1.327.543-1.998.802-.4.154-.81.298-1.22.452-.613.226-1.226.456-1.844.673-.439.153-.883.298-1.327.446-.627.212-1.259.428-1.891.63l-.555.173c-.955.298-1.921.591-2.895.865-.015 0-.034.01-.048.014-.985.279-1.979.543-2.978.798-.193.048-.386.101-.584.149-.969.245-1.944.476-2.924.702-.183.043-.366.081-.55.12-.965.216-1.93.418-2.905.615l-.212.043c-.965.192-1.935.365-2.909.533a82 82 0 0 1-1.086.183c-.738.125-1.482.24-2.225.351-.337.053-.675.101-1.013.149-.984.139-1.973.269-2.963.389-.082.01-.164.024-.246.034-1.085.129-2.171.245-3.262.35-.236.024-.472.044-.714.063-.883.082-1.766.154-2.649.216-.222.015-.444.034-.666.048-1.042.072-2.089.13-3.136.183l-.685.029c-.932.038-1.863.072-2.794.096-.164 0-.328.009-.492.014-1.043.024-2.085.034-3.132.034h-.671c-1.061 0-2.118-.019-3.179-.043-.073 0-.14-.005-.213-.005-1.032-.029-2.06-.068-3.088-.116-.174-.009-.347-.014-.521-.024a127.858 127.858 0 0 1-3.725-.24 170.916 170.916 0 0 1-3.132-.269c-.111-.01-.222-.024-.333-.034a152.394 152.394 0 0 1-2.996-.331c-.145-.019-.29-.034-.439-.053a126.773 126.773 0 0 1-3.055-.413c-.217-.034-.439-.063-.656-.096a131.715 131.715 0 0 1-3.059-.495c-.116-.02-.227-.044-.343-.063-.95-.168-1.901-.346-2.847-.533-.178-.034-.357-.072-.535-.106a122.573 122.573 0 0 1-2.997-.649c-.217-.048-.434-.101-.651-.153-.84-.197-1.674-.399-2.504-.611-.213-.053-.425-.105-.637-.163-.965-.25-1.921-.514-2.871-.783-.3-.087-.599-.178-.898-.265a148.21 148.21 0 0 1-2.118-.644c-.352-.11-.7-.225-1.052-.336-.666-.216-1.322-.442-1.978-.668l-.999-.346c-.758-.274-1.511-.552-2.254-.836-.207-.082-.419-.154-.627-.235-.675-.265-1.337-.543-2.002-.817-.338-.14-.676-.274-1.009-.414a108.19 108.19 0 0 1-2.929-1.307 6.62 6.62 0 0 1-.617-.322c-.772-.442-1.347-.956-1.723-1.504-.376-.548-.569-1.134-.565-1.725l-.222 98.342c0 1.182.748 2.345 2.292 3.229.193.111.401.216.618.322.965.452 1.94.884 2.929 1.312.328.139.666.274.999.408.622.26 1.245.524 1.877.769.043.019.092.034.14.053.207.082.415.154.622.236a102.153 102.153 0 0 0 3.257 1.191c.657.226 1.313.452 1.979.668.352.116.699.226 1.052.341.699.221 1.409.438 2.113.644.299.087.598.178.898.265.101.028.197.057.299.086a135.755 135.755 0 0 0 3.208.86c.83.212 1.665.413 2.505.611.217.052.434.105.651.153.883.202 1.766.394 2.659.582.116.024.227.043.343.067.178.038.357.072.535.106.946.187 1.892.365 2.842.533.116.019.232.043.348.063 1.013.177 2.036.341 3.059.495.217.033.434.067.656.096.236.033.478.072.714.105.777.111 1.559.212 2.336.308.149.019.294.034.444.053.994.12 1.992.23 2.991.331.111.01.222.024.338.034.753.072 1.51.144 2.268.207.289.024.574.043.864.062.207.015.415.034.617.048 1.033.072 2.07.14 3.108.192.173.01.347.015.521.024 1.032.048 2.06.092 3.093.116.067 0 .135.005.202.005h.087c1.033.024 2.061.038 3.093.043h.671c1.042 0 2.089-.01 3.132-.034.164 0 .328-.009.492-.014.482-.01.965-.024 1.447-.039.449-.014.898-.038 1.347-.057l.685-.029c1.047-.048 2.089-.111 3.136-.183.222-.014.444-.033.666-.048a153.33 153.33 0 0 0 2.649-.216c.237-.024.473-.043.709-.063.14-.014.28-.024.42-.038a139.44 139.44 0 0 0 2.842-.312c.082-.01.164-.024.246-.034.99-.12 1.979-.25 2.963-.389.338-.048.676-.101 1.013-.149.744-.111 1.487-.226 2.225-.351.362-.062.724-.12 1.086-.183.246-.043.492-.081.738-.125.728-.129 1.452-.269 2.171-.408l.213-.043c.974-.192 1.944-.399 2.909-.615.184-.039.367-.082.55-.12.98-.222 1.954-.457 2.924-.702.193-.048.386-.101.579-.149.999-.255 1.993-.519 2.978-.798l.053-.014c.97-.274 1.93-.567 2.89-.865l.555-.173c.145-.048.294-.091.439-.135.487-.158.965-.326 1.448-.49.443-.149.892-.293 1.331-.451.618-.217 1.226-.447 1.839-.673v-.019Z"/>
    <path fill="url(#u)" fill-opacity=".5" d="M237.451 164.398c3.72 2.196 3.667 4.292 3.561 6.93-.145 2.844-.208 6.424 5.452 9.716 2.939 1.677 5.979 2.49 8.903 2.869-31.577 14.541-76.722 14.474-108.139-.221a6.89 6.89 0 0 1-.618-.322c-3.199-1.841-2.996-4.873.29-6.776l16.835-9.74c3.484-2.014 9.105-1.97 13.221-.399 17.362 6.627 40.996 5.512 56.277-3.33.14-.082.28-.163.415-.245 1.279.312 2.534.788 3.803 1.518Z"/>
  </g>
  <path fill="url(#v)" d="M149.317 98.436c0 .37-.015.754-.029 1.148-.015.24-.024.491-.029.74-.005.169-.01.337-.01.51l-.222 98.342c0-.428.02-.846.039-1.25.01-.192.014-.384.019-.572.005-.197.01-.389.01-.576l.222-98.342Z"/>
  <path fill="url(#w)" d="M177.993 205.139h.213c.381.01.772.024 1.163.043.053 0 .111.01.164.01.333.019.67.038 1.008.067.188.014.376.034.565.048.144.015.289.024.429.043l.623.072c.135.02.275.034.41.053a25.806 25.806 0 0 1 1.129.178c.289.053.574.106.864.168.115.024.226.053.342.077.222.048.449.101.671.159l.381.101c.198.053.396.11.598.168.174.053.353.106.526.163.184.058.372.125.555.188.174.062.352.125.526.192.256.096.512.197.767.303.044.019.087.033.126.052a21.144 21.144 0 0 1 1.172.548c.324.164.642.327.965.51l.222-98.342a15.931 15.931 0 0 0-.965-.509c-.072-.039-.144-.073-.222-.111a20.063 20.063 0 0 0-.95-.437l-.126-.053-.521-.216c-.082-.034-.164-.058-.246-.092a19.1 19.1 0 0 0-.526-.192c-.183-.067-.371-.13-.555-.187-.173-.058-.352-.111-.526-.164-.096-.028-.188-.062-.284-.086-.106-.029-.208-.053-.314-.082l-.381-.101c-.227-.057-.449-.11-.676-.158-.116-.024-.227-.053-.342-.077l-.121-.029a19.626 19.626 0 0 0-.748-.139 31.982 31.982 0 0 0-1.047-.169.362.362 0 0 1-.077-.009c-.135-.019-.275-.034-.41-.053-.208-.024-.415-.053-.623-.072a43.74 43.74 0 0 0-.863-.082c-.044 0-.092-.005-.136-.009-.337-.029-.675-.048-1.013-.068-.053 0-.111-.009-.164-.009-.391-.02-.777-.034-1.163-.044h-.212a72.468 72.468 0 0 0-1.728-.019h-.135c-.579 0-1.143.01-1.689.015-.579 0-1.138.009-1.684.009h-.004c-.546 0-1.076 0-1.598-.019h-.009c-.295-.01-.584-.019-.874-.034-.086 0-.173-.009-.265-.014-.203-.01-.4-.024-.603-.038-.087-.005-.169-.015-.256-.02a20.613 20.613 0 0 1-1.129-.125l-.174-.028a18.717 18.717 0 0 1-.863-.149c-.063-.015-.131-.024-.193-.039a16.544 16.544 0 0 1-.965-.235l-.338-.101c-.106-.034-.208-.063-.314-.096l-.376-.13c-.102-.039-.203-.072-.304-.111-.077-.028-.15-.062-.227-.091a15.299 15.299 0 0 1-.685-.298l-.246-.115c-.29-.144-.579-.293-.874-.462-2.538-1.504-3.3-2.96-3.498-4.584l.01-3.59c.009-2.6-.637-5.636-5.491-8.452a22.035 22.035 0 0 0-.932-.5c-.082-.038-.159-.082-.241-.12-.29-.144-.584-.279-.873-.408l-.063-.03a22.935 22.935 0 0 0-.734-.302c-.043-.02-.086-.029-.135-.048-.41-.159-.825-.308-1.235-.437l-.222 98.341c.41.13.825.279 1.235.438.29.11.579.226.869.35.024.01.043.02.067.029.29.13.584.265.874.409.082.038.159.081.241.12.314.158.623.322.936.5 4.097 2.378 5.192 4.911 5.429 7.203l-.01 3.647c-.005 2.124.42 3.917 3.561 5.776.29.168.584.317.873.462l.246.115c.227.106.454.206.686.298.048.019.096.043.14.062l.082.029c.101.039.202.077.308.111.126.043.251.091.377.129.106.034.207.068.313.096.083.024.169.053.251.077.029.01.058.015.082.02.319.091.642.168.97.235.02 0 .039.01.058.014.044.01.087.015.135.024.285.058.575.106.864.149.039.005.077.015.121.02.019 0 .038 0 .058.004.371.053.747.092 1.129.125.033 0 .067.01.101.01a28.352 28.352 0 0 0 1.023.062c.289.015.579.025.873.034h.01c.521.015 1.052.019 1.597.019h.005c.545 0 1.11 0 1.684-.009.55-.01 1.115-.015 1.689-.015h.135c.564 0 1.144 0 1.727.02v.014Z"/>
  <path fill="url(#x)" d="M232.312 79.767c3.011 1.73 3.04 4.752-.352 6.718l-40.547 23.464c-5.737-3.253-11.851-3.215-16.753-3.147-4.637.033-8.232.062-11.977-2.095-3.686-2.187-3.633-4.272-3.532-6.915.145-2.845.213-6.425-5.447-9.712a22.117 22.117 0 0 0-4.218-1.845c23.195-10.173 53.252-12.686 79.825-7.53 1.206.235 2.21.6 3.006 1.057l-.005.005Z"/>
  <path fill="url(#y)" d="M234.517 83.208c-.009.086-.014.168-.029.255-.014.072-.038.149-.058.22-.024.082-.043.169-.072.25-.024.072-.058.14-.092.212a2.56 2.56 0 0 1-.125.264c-.034.063-.077.125-.116.188a4.01 4.01 0 0 1-.458.615l-.044.052a5.33 5.33 0 0 1-.371.36c-.087.078-.188.155-.285.232-.082.062-.159.13-.241.192-.106.077-.222.149-.338.226-.111.072-.212.144-.333.211l-40.547 23.465-.221 98.341 40.546-23.464c.039-.024.077-.043.111-.067.077-.049.145-.097.217-.145.116-.072.232-.149.338-.226.087-.062.164-.124.241-.192.097-.077.193-.153.285-.23.019-.02.043-.034.063-.053.111-.101.212-.202.309-.308a.41.41 0 0 0 .043-.053c.068-.077.135-.149.198-.225l.053-.082c.077-.101.145-.207.207-.308.029-.043.063-.086.087-.129.01-.02.015-.039.024-.058.049-.087.087-.178.126-.264.024-.053.058-.111.077-.164a.563.563 0 0 0 .015-.048c.028-.082.048-.168.072-.25.014-.062.038-.12.053-.182 0-.015 0-.029.005-.044.014-.081.019-.168.029-.249.005-.063.019-.125.019-.183v-.072l.222-98.342c0 .087-.014.173-.024.255h.014Z"/>
  <mask id="z" width="11" height="98" x="236" y="107" maskUnits="userSpaceOnUse" style="mask-type:luminance">
    <path fill="#fff" d="m246.296 125.952-.222 78.341c.014-4.992-2.471-9.99-7.46-14.305-1.313-1.134-2.017-2.47-2.012-3.772l.222-78.342c0 1.302.699 2.638 2.012 3.772 4.984 4.315 7.474 9.308 7.46 14.306Z"/>
  </mask>
  <g mask="url(#z)">
    <path fill="url(#A)" d="m246.296 125.952-.222 98.341c.014-4.992-2.471-9.99-7.46-14.305-1.313-1.134-2.017-2.47-2.012-3.772l.222-98.342c0 1.302.699 2.638 2.012 3.772 4.984 4.315 7.474 9.308 7.46 14.306Z"/>
  </g>
  <path fill="url(#B)" d="M287.852 127.057a33.339 33.339 0 0 1-.062 1.187c-.02.25-.044.5-.073.754l-.043.433c-.034.307-.082.615-.126.922-.014.087-.024.173-.038.26-.063.394-.135.788-.212 1.182l-.073.336c-.058.279-.12.558-.188.837-.034.148-.077.297-.116.446-.063.241-.125.481-.193.721-.043.164-.096.322-.145.486-.067.225-.14.456-.212.682-.053.168-.111.331-.169.5-.077.221-.154.442-.236.663-.063.163-.126.331-.188.495l-.275.692-.208.495c-.101.23-.203.461-.309.687-.072.163-.149.322-.227.485-.111.236-.231.471-.347.707-.077.153-.154.307-.232.456-.135.255-.275.509-.415.769-.072.13-.139.259-.212.384-.231.404-.468.803-.714 1.207-.053.086-.111.173-.164.259-.198.312-.401.63-.608.937-.092.139-.188.279-.285.413-.178.265-.362.524-.555.784l-.318.437c-.193.259-.391.519-.594.778-.101.13-.202.265-.308.394-.348.438-.705.875-1.076 1.307-.063.073-.131.145-.193.221-.319.37-.647.736-.985 1.101l-.333.36c-.376.399-.762.798-1.163 1.197l-.087.091c-.424.423-.868.841-1.317 1.259-.169.159-.342.313-.511.471-.164.149-.328.293-.492.442-.198.173-.396.346-.599.519l-.506.433c-.208.173-.415.346-.628.519-.173.144-.347.283-.521.422-.217.173-.439.346-.661.519-.174.135-.352.274-.531.409-.231.178-.468.351-.709.529-.174.129-.347.259-.526.389-.251.182-.507.36-.758.538-.173.12-.342.245-.516.365-.285.197-.574.389-.864.586-.149.101-.299.207-.453.308-.434.283-.874.572-1.317.85-.015.01-.025.02-.039.025L265 258.046c.458-.288.912-.581 1.361-.879.149-.096.294-.197.439-.298.294-.197.589-.394.878-.596.174-.12.343-.24.512-.36.255-.183.511-.361.762-.543.178-.13.352-.26.531-.394.236-.173.473-.351.704-.524.179-.135.352-.274.531-.413.222-.173.444-.346.661-.519.174-.14.347-.284.521-.423.212-.173.425-.346.627-.519.174-.144.338-.289.507-.433a53.14 53.14 0 0 0 1.091-.961c.12-.11.246-.216.361-.327.054-.048.097-.096.15-.144.449-.418.893-.836 1.317-1.259a1.37 1.37 0 0 0 .092-.096c.396-.394.782-.793 1.158-1.192l.333-.36c.338-.365.666-.73.984-1.096.063-.072.131-.144.193-.221.372-.432.729-.869 1.076-1.307.029-.038.068-.077.097-.115.072-.091.14-.183.207-.274.203-.259.401-.519.594-.778.106-.145.212-.289.318-.438.189-.259.372-.523.555-.788l.285-.413c.207-.312.41-.625.608-.942.053-.086.111-.173.164-.259.246-.399.487-.803.714-1.207.01-.019.024-.038.034-.062.063-.106.116-.216.174-.327.14-.254.284-.509.415-.769.077-.149.154-.302.231-.456.121-.236.237-.471.352-.711.078-.159.15-.322.222-.481.107-.231.208-.461.309-.692.073-.163.14-.327.208-.49a22.1 22.1 0 0 0 .275-.692l.116-.288.072-.212c.082-.221.159-.442.236-.663.058-.168.116-.331.169-.5.073-.225.145-.456.213-.682l.144-.485c.068-.241.131-.486.193-.726l.116-.447c.068-.283.13-.562.188-.846.02-.1.049-.197.068-.297a34.885 34.885 0 0 0 .217-1.211c.015-.087.024-.173.034-.255.048-.308.092-.615.125-.928l.044-.427c.024-.25.053-.505.072-.755.015-.158.019-.322.029-.48.015-.236.029-.471.034-.707 0-.057.005-.115.009-.173.01-.254.01-.504.015-.759l.222-98.342c0 .313-.01.62-.019.933l.004.019Z"/>
  <path fill="url(#C)" d="M264.342 159.545h-.256c-.338 0-.671-.004-.999-.014H263a19.728 19.728 0 0 1-.767-.029c-.087 0-.169-.009-.256-.014-.207-.01-.415-.024-.622-.039l-.222-.014a21.939 21.939 0 0 1-1.124-.125c-.063-.01-.126-.014-.184-.024a16.485 16.485 0 0 1-.965-.168l-.164-.034a17.245 17.245 0 0 1-.979-.24c-.015 0-.029-.01-.044-.01-.154-.043-.304-.091-.458-.139a11.548 11.548 0 0 1-.859-.303 12.784 12.784 0 0 1-1.076-.48c-.29-.145-.579-.293-.869-.462-2.538-1.504-3.3-2.96-3.498-4.584l.01-3.59c.009-2.599-.637-5.636-5.491-8.452a21.124 21.124 0 0 0-1.149-.606c-.053-.024-.106-.053-.159-.081a22.34 22.34 0 0 0-1.095-.491c-.068-.028-.136-.057-.203-.081a4.351 4.351 0 0 0-.237-.096c-.217-.087-.439-.159-.656-.241-.111-.038-.222-.081-.333-.12-.381-.129-.762-.25-1.143-.355l-.053-.015-.222 98.342c.4.111.796.235 1.196.37.111.038.222.082.333.12.299.106.594.216.893.337.067.028.135.057.203.081.366.154.733.317 1.095.49.053.024.106.053.159.082.381.187.767.389 1.149.606 3.035 1.763 4.424 3.608 5.037 5.377.217.62.333 1.23.391 1.826l-.01 3.647c-.005 2.124.42 3.916 3.561 5.776.29.168.579.317.869.461.072.034.145.072.217.106.285.135.574.264.859.375.217.086.439.163.656.24.068.024.13.039.198.063.154.048.309.101.463.144h.01c.01 0 .019.005.034.009.323.092.651.169.979.241.034.004.068.019.102.024.019 0 .043.005.062.009.319.063.642.12.97.169.029 0 .053.009.082.014.034.005.068.005.101.01a26.865 26.865 0 0 0 1.178.129c.053 0 .111.005.164.01.207.014.415.029.622.038.082 0 .169.01.251.015l.768.029h.082c.328.009.661.009.998.014h1.25l.222-98.342h-.994l.01-.005Z"/>
  <path fill="url(#D)" d="M268.067 94.087c.193.11.381.23.555.355 26.881 18.991 25.795 46.78-3.286 65.103-4.092.019-7.446-.096-10.93-2.104-3.686-2.182-3.633-4.272-3.532-6.915.145-2.845.213-6.425-5.452-9.712a22.185 22.185 0 0 0-5.028-2.09c8.352-8.41 7.826-18.948-1.564-27.074-2.735-2.369-2.837-5.608.652-7.626l16.83-9.74c3.286-1.903 8.546-2.033 11.745-.193l.01-.004Z"/>
  <path fill="url(#E)" d="M115.222 125.903c-.015 5.469 1.52 10.932 4.598 16.151.406.692 1.048 1.274 1.844 1.73.179.106.362.197.555.288.063.029.13.053.193.082a10.149 10.149 0 0 0 1.192.433c.072.019.144.033.216.053.179.048.363.096.546.134.111.024.227.043.338.062.14.024.279.053.419.072.121.019.242.035.367.049l.401.043c.12.01.246.014.372.023.135.01.274.025.414.025.12.005.242.005.362.005h.463l.343-.015c.183-.005.362-.019.546-.033l.313-.029c.309-.034.617-.077.921-.13.024-.005.044-.01.068-.01.275-.048.541-.106.806-.173l.207-.058c.193-.052.386-.105.574-.163a7.65 7.65 0 0 1 .164-.057c.266-.087.522-.183.773-.288.082-.034.164-.068.241-.102.29-.13.58-.269.85-.428l-.223 98.342c-.27.154-.554.298-.849.428h-.009a10.065 10.065 0 0 1-1.009.394l-.116.043-.048.015c-.188.063-.377.11-.57.163l-.211.058c-.266.067-.537.125-.807.173h-.009c-.019.009-.034.009-.054.009a14.72 14.72 0 0 1-.926.13c-.044.005-.082.02-.125.02-.063.009-.126.009-.189.013-.183.015-.361.025-.545.035-.067.004-.13.014-.198.014h-.849c-.043 0-.082-.005-.121-.005-.14-.004-.275-.014-.415-.024-.086-.005-.178-.005-.264-.015-.034 0-.068-.008-.107-.008-.135-.01-.265-.03-.4-.044-.087-.01-.179-.014-.271-.029-.034-.005-.063-.014-.096-.014-.14-.02-.28-.049-.42-.073-.092-.014-.178-.023-.265-.043-.024-.004-.049-.014-.073-.019a10.575 10.575 0 0 1-.545-.135c-.063-.019-.126-.029-.189-.048-.009-.004-.014-.009-.023-.009-.28-.082-.55-.173-.811-.274-.024-.01-.048-.015-.072-.024-.106-.044-.208-.091-.309-.134a3.186 3.186 0 0 1-.193-.082 8.258 8.258 0 0 1-.555-.288c-.797-.457-1.433-1.039-1.843-1.731-3.079-5.223-4.613-10.691-4.599-16.155l.222-98.347Zm68.012 86.983-50.149 29.024.223-98.342 50.153-29.024-.227 98.342Z"/>
  <path fill="url(#F)" d="M145.737 92.665c3.711 2.191 3.653 4.281 3.552 6.924-.145 2.845-.208 6.425 5.452 9.717 5.747 3.282 11.885 3.248 16.802 3.176 4.608-.034 8.193-.062 11.918 2.062l-50.149 29.024c-3.392 1.965-8.632 1.956-11.643.226-.796-.457-1.438-1.038-1.843-1.73-10.235-17.357-3.397-37.333 20.526-51.23 1.839.27 3.595.798 5.385 1.826v.005Z"/>
  <path fill="url(#G)" d="M247.999 266.201c.41-.154.82-.298 1.226-.452a94.05 94.05 0 0 0 1.992-.803c.333-.134.671-.264 1.004-.403a101.12 101.12 0 0 0 2.924-1.288l.222-98.342c-.96.442-1.94.87-2.924 1.288-.328.139-.666.269-.999.404-.661.269-1.327.543-1.997.802-.401.154-.811.298-1.221.452-.613.226-1.226.456-1.843.673-.44.153-.884.298-1.327.446-.628.212-1.26.428-1.892.63l-.555.173c-.955.298-1.92.591-2.895.865-.014 0-.034.01-.048.014-.985.279-1.979.543-2.977.798-.193.048-.386.101-.584.149-.97.245-1.945.476-2.924.702-.184.043-.367.081-.55.12-.966.216-1.931.418-2.905.615l-.213.043c-.965.192-1.935.365-2.909.533a82 82 0 0 1-1.086.183c-.738.125-1.481.24-2.224.351-.338.053-.676.101-1.014.149-.984.139-1.973.269-2.962.389-.082.01-.164.024-.246.034a147.71 147.71 0 0 1-3.262.35c-.237.024-.473.044-.714.063-.883.082-1.767.154-2.65.216-.221.015-.443.034-.665.048-1.043.072-2.09.13-3.137.183l-.685.029a186.2 186.2 0 0 1-2.794.096c-.164 0-.328.009-.492.014-1.042.024-2.085.034-3.132.034h-.67c-1.062 0-2.119-.019-3.18-.043-.073 0-.14-.005-.212-.005a166.118 166.118 0 0 1-3.089-.116c-.173-.009-.347-.014-.521-.024a127.464 127.464 0 0 1-3.725-.24 170.052 170.052 0 0 1-3.131-.269c-.111-.01-.222-.024-.333-.034-1.004-.1-2.003-.211-2.997-.331-.145-.019-.289-.034-.439-.053a126.014 126.014 0 0 1-3.054-.413c-.218-.034-.439-.063-.657-.096a131.715 131.715 0 0 1-3.059-.495c-.116-.02-.227-.044-.342-.063-.951-.168-1.902-.346-2.847-.533-.179-.034-.357-.072-.536-.106a122.493 122.493 0 0 1-2.996-.649c-.218-.048-.435-.101-.652-.153-.839-.197-1.674-.399-2.504-.611-.212-.053-.425-.105-.637-.163-.965-.25-1.921-.514-2.871-.783-.299-.087-.598-.178-.898-.265-.709-.211-1.413-.423-2.118-.644-.352-.11-.7-.225-1.052-.336-.666-.216-1.322-.442-1.978-.668l-.999-.346c-.758-.274-1.51-.552-2.253-.836-.208-.082-.42-.154-.628-.235-.675-.265-1.336-.543-2.002-.817-.338-.14-.676-.274-1.009-.414a105.16 105.16 0 0 1-2.929-1.307 6.62 6.62 0 0 1-.617-.322c-.772-.442-1.346-.956-1.723-1.504-.376-.548-.569-1.134-.564-1.725l-.222 98.342c0 1.182.748 2.345 2.292 3.229.193.111.4.216.617.322.965.452 1.94.884 2.929 1.312.328.139.666.274.999.408.623.26 1.245.524 1.877.769.044.019.092.034.14.053.208.082.415.154.622.236a100.391 100.391 0 0 0 3.258 1.191c.656.226 1.312.452 1.978.668.352.116.7.226 1.052.341.699.221 1.409.438 2.113.644.299.087.599.178.898.265.101.028.198.057.299.086a135.755 135.755 0 0 0 3.209.86c.83.212 1.664.414 2.504.611.217.052.434.105.651.153.883.202 1.766.394 2.659.582.116.024.227.043.343.067.178.038.357.072.535.106.946.187 1.892.365 2.842.533.116.019.232.043.348.063 1.013.177 2.036.341 3.059.495.217.033.434.067.656.096.237.033.478.072.714.105.777.111 1.559.212 2.336.308.149.019.294.034.444.053.994.12 1.993.23 2.991.331.111.01.222.024.338.034.753.072 1.511.144 2.268.207.29.024.574.043.864.062.207.015.415.034.617.048 1.033.072 2.07.14 3.108.192.174.01.347.015.521.024 1.033.048 2.06.092 3.093.116.068 0 .135.005.203.005h.087c1.032.024 2.06.038 3.093.043h.67c1.043 0 2.09-.01 3.132-.034.164 0 .328-.009.492-.014.483-.01.965-.024 1.448-.039.448-.014.897-.038 1.346-.057l.685-.029c1.047-.048 2.089-.111 3.136-.183.222-.014.444-.033.666-.048a153.33 153.33 0 0 0 2.649-.216c.237-.024.473-.043.71-.063.14-.014.28-.024.42-.038.95-.096 1.896-.197 2.842-.312.082-.01.164-.024.246-.034.989-.12 1.978-.25 2.962-.389.338-.048.676-.101 1.014-.149.743-.111 1.486-.226 2.224-.351.362-.062.724-.12 1.086-.183.246-.043.492-.081.738-.125.729-.129 1.452-.269 2.171-.408l.213-.043c.974-.192 1.944-.399 2.909-.615.184-.039.367-.082.55-.12.98-.222 1.955-.457 2.925-.702.193-.048.386-.101.579-.149a119.28 119.28 0 0 0 2.977-.798l.053-.014c.97-.274 1.93-.567 2.89-.865l.555-.173c.145-.048.294-.091.439-.135.488-.158.965-.326 1.448-.49.444-.149.892-.293 1.332-.451.617-.217 1.225-.447 1.838-.673v-.019Z"/>
  <path fill="url(#H)" d="M237.45 145.398c3.721 2.196 3.668 4.292 3.561 6.93-.144 2.844-.207 6.424 5.453 9.716 2.939 1.677 5.978 2.489 8.903 2.869-31.577 14.541-76.722 14.474-108.139-.221a6.89 6.89 0 0 1-.618-.322c-3.199-1.841-2.996-4.873.29-6.776l16.835-9.74c3.484-2.014 9.105-1.97 13.221-.399 17.361 6.627 40.995 5.512 56.277-3.33.14-.082.28-.163.415-.245 1.279.312 2.533.788 3.802 1.518Z"/>
  <defs>
    <linearGradient id="a" x1="-101.7" x2="501.75" y1="306.617" y2="306.617" gradientUnits="userSpaceOnUse">
      <stop stop-color="#4C74F6" stop-opacity=".34"/>
      <stop offset=".332" stop-color="#4C74F6"/>
      <stop offset=".592" stop-color="#4C74F6" stop-opacity=".3"/>
      <stop offset=".917" stop-color="#4C74F6" stop-opacity=".5"/>
    </linearGradient>
    <linearGradient id="d" x1="202" x2="201.999" y1="187.289" y2="121.289" gradientUnits="userSpaceOnUse">
      <stop stop-color="#fff" stop-opacity="0"/>
      <stop offset="1" stop-color="#fff" stop-opacity=".5"/>
    </linearGradient>
    <linearGradient id="h" x1="201" x2="201" y1="194.105" y2="262.605" gradientUnits="userSpaceOnUse">
      <stop stop-color="#fff"/>
      <stop offset="1" stop-color="#fff" stop-opacity="0"/>
    </linearGradient>
    <linearGradient id="i" x1="201" x2="201" y1="194.105" y2="262.605" gradientUnits="userSpaceOnUse">
      <stop stop-color="#fff"/>
      <stop offset="1" stop-color="#fff" stop-opacity="0"/>
    </linearGradient>
    <linearGradient id="j" x1="201" x2="201" y1="194.105" y2="262.605" gradientUnits="userSpaceOnUse">
      <stop stop-color="#fff"/>
      <stop offset="1" stop-color="#fff" stop-opacity="0"/>
    </linearGradient>
    <linearGradient id="k" x1="201" x2="201" y1="194.105" y2="262.605" gradientUnits="userSpaceOnUse">
      <stop stop-color="#fff"/>
      <stop offset="1" stop-color="#fff" stop-opacity="0"/>
    </linearGradient>
    <linearGradient id="l" x1="201" x2="201" y1="194.105" y2="262.605" gradientUnits="userSpaceOnUse">
      <stop stop-color="#fff"/>
      <stop offset="1" stop-color="#fff" stop-opacity="0"/>
    </linearGradient>
    <linearGradient id="m" x1="201" x2="201" y1="194.105" y2="262.605" gradientUnits="userSpaceOnUse">
      <stop stop-color="#fff"/>
      <stop offset="1" stop-color="#fff" stop-opacity="0"/>
    </linearGradient>
    <linearGradient id="n" x1="201" x2="201" y1="194.105" y2="262.605" gradientUnits="userSpaceOnUse">
      <stop stop-color="#fff"/>
      <stop offset="1" stop-color="#fff" stop-opacity="0"/>
    </linearGradient>
    <linearGradient id="o" x1="201" x2="201" y1="194.105" y2="262.605" gradientUnits="userSpaceOnUse">
      <stop stop-color="#fff"/>
      <stop offset="1" stop-color="#fff" stop-opacity="0"/>
    </linearGradient>
    <linearGradient id="p" x1="201" x2="201" y1="194.105" y2="262.605" gradientUnits="userSpaceOnUse">
      <stop stop-color="#fff"/>
      <stop offset="1" stop-color="#fff" stop-opacity="0"/>
    </linearGradient>
    <linearGradient id="q" x1="201" x2="201" y1="194.105" y2="262.605" gradientUnits="userSpaceOnUse">
      <stop stop-color="#fff"/>
      <stop offset="1" stop-color="#fff" stop-opacity="0"/>
    </linearGradient>
    <linearGradient id="r" x1="201" x2="201" y1="194.105" y2="262.605" gradientUnits="userSpaceOnUse">
      <stop stop-color="#fff"/>
      <stop offset="1" stop-color="#fff" stop-opacity="0"/>
    </linearGradient>
    <linearGradient id="s" x1="201" x2="201" y1="194.105" y2="262.605" gradientUnits="userSpaceOnUse">
      <stop stop-color="#fff"/>
      <stop offset="1" stop-color="#fff" stop-opacity="0"/>
    </linearGradient>
    <linearGradient id="t" x1="201" x2="201" y1="194.105" y2="262.605" gradientUnits="userSpaceOnUse">
      <stop stop-color="#fff"/>
      <stop offset="1" stop-color="#fff" stop-opacity="0"/>
    </linearGradient>
    <linearGradient id="u" x1="201" x2="201" y1="194.105" y2="262.605" gradientUnits="userSpaceOnUse">
      <stop stop-color="#fff"/>
      <stop offset="1" stop-color="#fff" stop-opacity="0"/>
    </linearGradient>
    <linearGradient id="v" x1="149" x2="153.729" y1="80.106" y2="171.862" gradientUnits="userSpaceOnUse">
      <stop stop-color="#4C74F6"/>
      <stop offset="1" stop-color="#4C74F6" stop-opacity="0"/>
    </linearGradient>
    <linearGradient id="w" x1="149" x2="153.729" y1="80.106" y2="171.862" gradientUnits="userSpaceOnUse">
      <stop stop-color="#4C74F6"/>
      <stop offset="1" stop-color="#4C74F6" stop-opacity="0"/>
    </linearGradient>
    <linearGradient id="x" x1="238.5" x2="155.504" y1="70.606" y2="120.201" gradientUnits="userSpaceOnUse">
      <stop stop-color="#2253F4"/>
      <stop offset="1" stop-color="#4C74F6"/>
    </linearGradient>
    <linearGradient id="y" x1="191" x2="195.105" y1="98.606" y2="179.898" gradientUnits="userSpaceOnUse">
      <stop stop-color="#4C74F6"/>
      <stop offset="1" stop-color="#4C74F6" stop-opacity="0"/>
    </linearGradient>
    <linearGradient id="A" x1="241.449" x2="240.5" y1="107.874" y2="193.605" gradientUnits="userSpaceOnUse">
      <stop stop-color="#4C74F6"/>
      <stop offset="1" stop-color="#4C74F6" stop-opacity="0"/>
    </linearGradient>
    <linearGradient id="B" x1="272" x2="276" y1="133.5" y2="245.605" gradientUnits="userSpaceOnUse">
      <stop stop-color="#4C74F6"/>
      <stop offset="1" stop-color="#4C74F6" stop-opacity="0"/>
    </linearGradient>
    <linearGradient id="C" x1="240" x2="240" y1="142.105" y2="219.605" gradientUnits="userSpaceOnUse">
      <stop stop-color="#4C74F6"/>
      <stop offset="1" stop-color="#4C74F6" stop-opacity="0"/>
    </linearGradient>
    <linearGradient id="D" x1="262" x2="259.5" y1="88.106" y2="180.105" gradientUnits="userSpaceOnUse">
      <stop stop-color="#2253F4"/>
      <stop offset="1" stop-color="#4C74F6"/>
    </linearGradient>
    <linearGradient id="E" x1="133" x2="148.37" y1="81.105" y2="241.489" gradientUnits="userSpaceOnUse">
      <stop stop-color="#0C4BD5"/>
      <stop offset=".557" stop-color="#0C4BD5" stop-opacity=".5"/>
      <stop offset="1" stop-color="#0C4BD5" stop-opacity="0"/>
    </linearGradient>
    <linearGradient id="F" x1="162.001" x2="115.198" y1="101.105" y2="162.906" gradientUnits="userSpaceOnUse">
      <stop stop-color="#0A40B6"/>
      <stop offset="1" stop-color="#0D41B0" stop-opacity=".6"/>
    </linearGradient>
    <linearGradient id="H" x1="255" x2="154.5" y1="156.105" y2="153.605" gradientUnits="userSpaceOnUse">
      <stop stop-color="#003DC2"/>
      <stop offset="1" stop-color="#0D41B0" stop-opacity=".8"/>
    </linearGradient>
    <radialGradient id="b" cx="0" cy="0" r="1" gradientTransform="rotate(109.983 49.771 144.3) scale(175.004 395.914)" gradientUnits="userSpaceOnUse">
      <stop stop-color="#4C74F6" stop-opacity=".01"/>
      <stop offset="1" stop-color="#4C74F6"/>
    </radialGradient>
    <radialGradient id="c" cx="0" cy="0" r="1" gradientTransform="matrix(0 -85.5 193.428 0 202 149.789)" gradientUnits="userSpaceOnUse">
      <stop stop-color="#4C74F6" stop-opacity=".01"/>
      <stop offset=".482" stop-color="#4C74F6" stop-opacity=".283"/>
      <stop offset="1" stop-color="#4C74F6"/>
    </radialGradient>
    <radialGradient id="e" cx="0" cy="0" r="1" gradientTransform="matrix(0 -108.105 244.568 0 202 93.606)" gradientUnits="userSpaceOnUse">
      <stop stop-color="#4C74F6" stop-opacity=".01"/>
      <stop offset=".313" stop-color="#4C74F6" stop-opacity=".283"/>
      <stop offset="1" stop-color="#4C74F6"/>
    </radialGradient>
    <radialGradient id="f" cx="0" cy="0" r="1" gradientTransform="matrix(0 -38.5 15.5299 0 202 152.105)" gradientUnits="userSpaceOnUse">
      <stop stop-color="#fff" stop-opacity="0"/>
      <stop offset="1" stop-color="#fff" stop-opacity=".5"/>
    </radialGradient>
    <radialGradient id="G" cx="0" cy="0" r="1" gradientTransform="matrix(0 157 -187.925 0 193.5 141.105)" gradientUnits="userSpaceOnUse">
      <stop stop-color="#0C4BD5"/>
      <stop offset=".511" stop-color="#0C4BD5" stop-opacity=".5"/>
      <stop offset=".858" stop-color="#0C4BD5" stop-opacity="0"/>
    </radialGradient>
    <filter id="g" width="272.997" height="298.015" x="65" y="45.105" color-interpolation-filters="sRGB" filterUnits="userSpaceOnUse">
      <feFlood flood-opacity="0" result="BackgroundImageFix"/>
      <feBlend in="SourceGraphic" in2="BackgroundImageFix" result="shape"/>
      <feGaussianBlur result="effect1_foregroundBlur_369_8207" stdDeviation="25"/>
    </filter>
  </defs>
</svg>
